<?xml version="1.0" encoding="UTF-8" standalone="no"?>
<!DOCTYPE svg PUBLIC "-//W3C//DTD SVG 1.1//EN"
 "http://www.w3.org/Graphics/SVG/1.1/DTD/svg11.dtd">
<!-- Generated by graphviz version 2.43.0 (0)
 -->
<!-- Title: mpdfg Pages: 1 -->
<svg width="2489pt" height="1095pt"
 viewBox="0.00 0.00 2489.00 1094.85" xmlns="http://www.w3.org/2000/svg" xmlns:xlink="http://www.w3.org/1999/xlink">
<g id="graph0" class="graph" transform="scale(1 1) rotate(0) translate(4 1090.85)">
<title>mpdfg</title>
<polygon fill="white" stroke="transparent" points="-4,4 -4,-1090.85 2485,-1090.85 2485,4 -4,4"/>
<!-- start -->
<g id="node1" class="node">
<title>start</title>
<ellipse fill="green" stroke="black" cx="1986" cy="-1065.64" rx="21.43" ry="21.43"/>
<text text-anchor="middle" x="1986" y="-1060.64" font-family="Times,serif" font-size="20.00">▲</text>
</g>
<!-- A0 -->
<g id="node3" class="node">
<title>A0</title>
<polygon fill="#08306b" stroke="transparent" points="1130,-963.43 1130,-986.43 1243,-986.43 1243,-963.43 1130,-963.43"/>
<polygon fill="none" stroke="black" points="1130,-963.43 1130,-986.43 1243,-986.43 1243,-963.43 1130,-963.43"/>
<text text-anchor="start" x="1134" y="-971.23" font-family="arial" font-size="14.00" fill="white">HOOFD (31,109)</text>
<polygon fill="#fdb475" stroke="transparent" points="1130,-940.43 1130,-963.43 1243,-963.43 1243,-940.43 1130,-940.43"/>
<polygon fill="none" stroke="black" points="1130,-940.43 1130,-963.43 1243,-963.43 1243,-940.43 1130,-940.43"/>
<text text-anchor="start" x="1166" y="-948.23" font-family="arial" font-size="14.00" fill="white">Instant</text>
</g>
<!-- start&#45;&gt;A0 -->
<g id="edge1" class="edge">
<title>start&#45;&gt;A0</title>
<path fill="none" stroke="#bfbfbf" stroke-width="1.21" stroke-dasharray="5,2" d="M1965.01,-1062.01C1863.2,-1049.26 1418.76,-993.58 1250.69,-972.53"/>
<polygon fill="white" stroke="transparent" points="1657,-1008.43 1657,-1026.43 1685,-1026.43 1685,-1008.43 1657,-1008.43"/>
<text text-anchor="start" x="1657" y="-1013.63" font-family="arial" font-size="16.00" fill="#9dc9e2">935</text>
</g>
<!-- A1 -->
<g id="node4" class="node">
<title>A1</title>
<polygon fill="#9ec9e2" stroke="transparent" points="493,-723.43 493,-746.43 569,-746.43 569,-723.43 493,-723.43"/>
<polygon fill="none" stroke="black" points="493,-723.43 493,-746.43 569,-746.43 569,-723.43 493,-723.43"/>
<text text-anchor="start" x="497" y="-731.23" font-family="arial" font-size="14.00" fill="white">EIND (772)</text>
<polygon fill="#fdb475" stroke="transparent" points="493,-700.43 493,-723.43 569,-723.43 569,-700.43 493,-700.43"/>
<polygon fill="none" stroke="black" points="493,-700.43 493,-723.43 569,-723.43 569,-700.43 493,-700.43"/>
<text text-anchor="start" x="510.5" y="-708.23" font-family="arial" font-size="14.00" fill="white">Instant</text>
</g>
<!-- start&#45;&gt;A1 -->
<g id="edge5" class="edge">
<title>start&#45;&gt;A1</title>
<path fill="none" stroke="#bfbfbf" stroke-dasharray="5,2" d="M1964.5,-1064.7C1764.26,-1065.04 229.72,-1062.89 96,-918.43 -22.66,-790.23 350.73,-741.5 484.89,-728.39"/>
<polygon fill="white" stroke="transparent" points="96,-894.43 96,-912.43 106,-912.43 106,-894.43 96,-894.43"/>
<text text-anchor="start" x="96" y="-899.63" font-family="arial" font-size="16.00" fill="#a4cce4">1</text>
</g>
<!-- A3 -->
<g id="node6" class="node">
<title>A3</title>
<polygon fill="#99c6e1" stroke="transparent" points="1528,-363.43 1528,-386.43 1602,-386.43 1602,-363.43 1528,-363.43"/>
<polygon fill="none" stroke="black" points="1528,-363.43 1528,-386.43 1602,-386.43 1602,-363.43 1528,-363.43"/>
<text text-anchor="start" x="1532" y="-371.23" font-family="arial" font-size="14.00" fill="white">AH (1,535)</text>
<polygon fill="#fdb475" stroke="transparent" points="1528,-340.43 1528,-363.43 1602,-363.43 1602,-340.43 1528,-340.43"/>
<polygon fill="none" stroke="black" points="1528,-340.43 1528,-363.43 1602,-363.43 1602,-340.43 1528,-340.43"/>
<text text-anchor="start" x="1544.5" y="-348.23" font-family="arial" font-size="14.00" fill="white">Instant</text>
</g>
<!-- start&#45;&gt;A3 -->
<g id="edge2" class="edge">
<title>start&#45;&gt;A3</title>
<path fill="none" stroke="#bfbfbf" stroke-dasharray="5,2" d="M1985.19,-1044.42C1980.98,-944.01 1960.34,-501.99 1921,-456.43 1880.48,-409.5 1696.48,-380.82 1610.07,-369.71"/>
<polygon fill="white" stroke="transparent" points="1967,-714.43 1967,-732.43 1977,-732.43 1977,-714.43 1967,-714.43"/>
<text text-anchor="start" x="1967" y="-719.63" font-family="arial" font-size="16.00" fill="#a4cce4">8</text>
</g>
<!-- A6 -->
<g id="node9" class="node">
<title>A6</title>
<polygon fill="#9dc9e2" stroke="transparent" points="2120,-843.43 2120,-866.43 2190,-866.43 2190,-843.43 2120,-843.43"/>
<polygon fill="none" stroke="black" points="2120,-843.43 2120,-866.43 2190,-866.43 2190,-843.43 2120,-843.43"/>
<text text-anchor="start" x="2124" y="-851.23" font-family="arial" font-size="14.00" fill="white">BPT (864)</text>
<polygon fill="#fdb475" stroke="transparent" points="2120,-820.43 2120,-843.43 2190,-843.43 2190,-820.43 2120,-820.43"/>
<polygon fill="none" stroke="black" points="2120,-820.43 2120,-843.43 2190,-843.43 2190,-820.43 2120,-820.43"/>
<text text-anchor="start" x="2134.5" y="-828.23" font-family="arial" font-size="14.00" fill="white">Instant</text>
</g>
<!-- start&#45;&gt;A6 -->
<g id="edge3" class="edge">
<title>start&#45;&gt;A6</title>
<path fill="none" stroke="#bfbfbf" stroke-dasharray="5,2" d="M2006.69,-1059.65C2056.11,-1046.48 2180.58,-1005.65 2230,-918.43 2236.57,-906.83 2236.63,-900 2230,-888.43 2222.87,-875.98 2210.71,-866.71 2198.22,-859.98"/>
<polygon fill="white" stroke="transparent" points="2216,-954.43 2216,-972.43 2226,-972.43 2226,-954.43 2216,-954.43"/>
<text text-anchor="start" x="2216" y="-959.63" font-family="arial" font-size="16.00" fill="#a4cce4">2</text>
</g>
<!-- A8 -->
<g id="node11" class="node">
<title>A8</title>
<polygon fill="#a0cae3" stroke="transparent" points="2119,-723.43 2119,-746.43 2191,-746.43 2191,-723.43 2119,-723.43"/>
<polygon fill="none" stroke="black" points="2119,-723.43 2119,-746.43 2191,-746.43 2191,-723.43 2119,-723.43"/>
<text text-anchor="start" x="2123" y="-731.23" font-family="arial" font-size="14.00" fill="white">DRZ (614)</text>
<polygon fill="#fdb475" stroke="transparent" points="2119,-700.43 2119,-723.43 2191,-723.43 2191,-700.43 2119,-700.43"/>
<polygon fill="none" stroke="black" points="2119,-700.43 2119,-723.43 2191,-723.43 2191,-700.43 2119,-700.43"/>
<text text-anchor="start" x="2134.5" y="-708.23" font-family="arial" font-size="14.00" fill="white">Instant</text>
</g>
<!-- start&#45;&gt;A8 -->
<g id="edge4" class="edge">
<title>start&#45;&gt;A8</title>
<path fill="none" stroke="#bfbfbf" stroke-dasharray="5,2" d="M2007.25,-1063.11C2080.57,-1056.53 2322.92,-1023.44 2403,-870.43 2448,-784.44 2281.92,-744.88 2199.18,-730.8"/>
<polygon fill="white" stroke="transparent" points="2391,-894.43 2391,-912.43 2401,-912.43 2401,-894.43 2391,-894.43"/>
<text text-anchor="start" x="2391" y="-899.63" font-family="arial" font-size="16.00" fill="#a4cce4">2</text>
</g>
<!-- complete -->
<g id="node2" class="node">
<title>complete</title>
<ellipse fill="red" stroke="black" cx="1530" cy="-21.21" rx="21.43" ry="21.43"/>
<text text-anchor="middle" x="1530" y="-16.21" font-family="Times,serif" font-size="20.00">■</text>
</g>
<!-- A0&#45;&gt;complete -->
<g id="edge6" class="edge">
<title>A0&#45;&gt;complete</title>
<path fill="none" stroke="#bfbfbf" stroke-width="1.19" stroke-dasharray="5,2" d="M1250.73,-960.23C1352.38,-956.01 1544.33,-944.76 1607,-918.43 1702.96,-878.11 1889,-648.52 1889,-544.43 1889,-544.43 1889,-544.43 1889,-122.43 1889,-51.81 1628.07,-28.76 1551.12,-23.5"/>
<polygon fill="white" stroke="transparent" points="1889,-474.43 1889,-492.43 1917,-492.43 1917,-474.43 1889,-474.43"/>
<text text-anchor="start" x="1889" y="-479.63" font-family="arial" font-size="16.00" fill="#9dc9e2">855</text>
</g>
<!-- A0&#45;&gt;A0 -->
<g id="edge45" class="edge">
<title>A0&#45;&gt;A0</title>
<path fill="none" stroke="black" stroke-width="6.89" d="M1250.68,-972.79C1261.24,-971.45 1268.5,-968.33 1268.5,-963.43 1268.5,-960.28 1265.52,-957.87 1260.6,-956.19"/>
<polygon fill="black" stroke="black" stroke-width="6.89" points="1261.72,-950.27 1250.68,-954.06 1259.19,-962.06 1261.72,-950.27"/>
<polygon fill="snow" stroke="transparent" points="1268.5,-963.43 1268.5,-978.43 1352.5,-978.43 1352.5,-963.43 1268.5,-963.43"/>
<text text-anchor="start" x="1289.5" y="-967.23" font-family="arial" font-size="14.00" fill="#0a4b91">26,162</text>
<polygon fill="snow" stroke="transparent" points="1268.5,-948.43 1268.5,-963.43 1352.5,-963.43 1352.5,-948.43 1268.5,-948.43"/>
<text text-anchor="start" x="1268.5" y="-952.23" font-family="arial" font-size="14.00" fill="#fda661">01d 17h 38m </text>
</g>
<!-- A0&#45;&gt;A1 -->
<g id="edge47" class="edge">
<title>A0&#45;&gt;A1</title>
<path fill="none" stroke="black" stroke-width="1.09" d="M1121.49,-960.89C967.88,-956.84 583.87,-944.38 458,-918.43 396.45,-905.73 361.11,-921.86 325,-870.43 279.74,-805.97 399.5,-760.07 474.92,-738.43"/>
<polygon fill="black" stroke="black" stroke-width="1.09" points="476.11,-741.73 484.8,-735.66 474.22,-734.99 476.11,-741.73"/>
<polygon fill="snow" stroke="transparent" points="325,-843.43 325,-858.43 409,-858.43 409,-843.43 325,-843.43"/>
<text text-anchor="start" x="355.5" y="-847.23" font-family="arial" font-size="14.00" fill="#a1cbe3">391</text>
<polygon fill="snow" stroke="transparent" points="325,-828.43 325,-843.43 409,-843.43 409,-828.43 325,-828.43"/>
<text text-anchor="start" x="325" y="-832.23" font-family="arial" font-size="14.00" fill="#f3721e">07d 23h 37m </text>
</g>
<!-- A2 -->
<g id="node5" class="node">
<title>A2</title>
<polygon fill="#9ac7e1" stroke="transparent" points="776,-483.43 776,-506.43 850,-506.43 850,-483.43 776,-483.43"/>
<polygon fill="none" stroke="black" points="776,-483.43 776,-506.43 850,-506.43 850,-483.43 776,-483.43"/>
<text text-anchor="start" x="780" y="-491.23" font-family="arial" font-size="14.00" fill="white">VD (1,287)</text>
<polygon fill="#fdb475" stroke="transparent" points="776,-460.43 776,-483.43 850,-483.43 850,-460.43 776,-460.43"/>
<polygon fill="none" stroke="black" points="776,-460.43 776,-483.43 850,-483.43 850,-460.43 776,-460.43"/>
<text text-anchor="start" x="792.5" y="-468.23" font-family="arial" font-size="14.00" fill="white">Instant</text>
</g>
<!-- A0&#45;&gt;A2 -->
<g id="edge34" class="edge">
<title>A0&#45;&gt;A2</title>
<path fill="none" stroke="black" stroke-width="1.06" d="M1121.24,-959.49C1047.61,-954.96 933.18,-943.95 899,-918.43 858.86,-888.44 875.63,-860.06 851,-816.43 833.67,-785.73 817.65,-784.03 807,-750.43 781.2,-669.06 803.11,-643.78 802,-558.43 801.83,-545.09 800.37,-541.66 802,-528.43 802.31,-525.9 802.72,-523.3 803.2,-520.7"/>
<polygon fill="black" stroke="black" stroke-width="1.06" points="806.66,-521.26 805.31,-510.75 799.81,-519.81 806.66,-521.26"/>
<polygon fill="snow" stroke="transparent" points="807,-723.43 807,-738.43 891,-738.43 891,-723.43 807,-723.43"/>
<text text-anchor="start" x="837.5" y="-727.23" font-family="arial" font-size="14.00" fill="#a3cbe3">278</text>
<polygon fill="snow" stroke="transparent" points="807,-708.43 807,-723.43 891,-723.43 891,-708.43 807,-708.43"/>
<text text-anchor="start" x="807" y="-712.23" font-family="arial" font-size="14.00" fill="#ee6815">09d 04h 13m </text>
</g>
<!-- A0&#45;&gt;A3 -->
<g id="edge44" class="edge">
<title>A0&#45;&gt;A3</title>
<path fill="none" stroke="black" stroke-width="1.27" d="M1250.57,-961.5C1326.67,-958.96 1446.62,-949.91 1477,-918.43 1560.87,-831.5 1435.45,-745 1508,-648.43 1520.44,-631.86 1539.07,-647.37 1551,-630.43 1599.52,-561.51 1586.05,-455.9 1574.26,-400.77"/>
<polygon fill="black" stroke="black" stroke-width="1.27" points="1577.62,-399.76 1572.02,-390.77 1570.79,-401.29 1577.62,-399.76"/>
<polygon fill="snow" stroke="transparent" points="1508.5,-663.43 1508.5,-678.43 1591.5,-678.43 1591.5,-663.43 1508.5,-663.43"/>
<text text-anchor="start" x="1533" y="-667.23" font-family="arial" font-size="14.00" fill="#9cc8e1">1,179</text>
<polygon fill="snow" stroke="transparent" points="1508.5,-648.43 1508.5,-663.43 1591.5,-663.43 1591.5,-648.43 1508.5,-648.43"/>
<text text-anchor="start" x="1508.5" y="-652.23" font-family="arial" font-size="14.00" fill="#fdad6a">22h 57m 37s </text>
</g>
<!-- A4 -->
<g id="node7" class="node">
<title>A4</title>
<polygon fill="#9dc9e2" stroke="transparent" points="956,-123.43 956,-146.43 1046,-146.43 1046,-123.43 956,-123.43"/>
<polygon fill="none" stroke="black" points="956,-123.43 956,-146.43 1046,-146.43 1046,-123.43 956,-123.43"/>
<text text-anchor="start" x="960" y="-131.23" font-family="arial" font-size="14.00" fill="white">AWB45 (858)</text>
<polygon fill="#fdb475" stroke="transparent" points="956,-100.43 956,-123.43 1046,-123.43 1046,-100.43 956,-100.43"/>
<polygon fill="none" stroke="black" points="956,-100.43 956,-123.43 1046,-123.43 1046,-100.43 956,-100.43"/>
<text text-anchor="start" x="980.5" y="-108.23" font-family="arial" font-size="14.00" fill="white">Instant</text>
</g>
<!-- A0&#45;&gt;A4 -->
<g id="edge42" class="edge">
<title>A0&#45;&gt;A4</title>
<path fill="none" stroke="black" stroke-width="1.14" d="M1182.96,-936.12C1178.09,-898.26 1166.99,-826.58 1147,-768.43 1144.09,-759.97 1141.76,-758.54 1138,-750.43 1099.01,-666.22 1085.32,-646.46 1056,-558.43 1031.71,-485.51 1026.18,-466.47 1015,-390.43 1003.04,-309.06 1000.94,-212.36 1000.77,-160.91"/>
<polygon fill="black" stroke="black" stroke-width="1.14" points="1004.27,-160.64 1000.76,-150.64 997.27,-160.64 1004.27,-160.64"/>
<polygon fill="snow" stroke="transparent" points="1056,-543.43 1056,-558.43 1140,-558.43 1140,-543.43 1056,-543.43"/>
<text text-anchor="start" x="1086.5" y="-547.23" font-family="arial" font-size="14.00" fill="#a0cae3">626</text>
<polygon fill="snow" stroke="transparent" points="1056,-528.43 1056,-543.43 1140,-543.43 1140,-528.43 1056,-528.43"/>
<text text-anchor="start" x="1056" y="-532.23" font-family="arial" font-size="14.00" fill="#fd9a4f">03d 04h 02m </text>
</g>
<!-- A5 -->
<g id="node8" class="node">
<title>A5</title>
<polygon fill="#a1cbe3" stroke="transparent" points="1765,-843.43 1765,-866.43 1827,-866.43 1827,-843.43 1765,-843.43"/>
<polygon fill="none" stroke="black" points="1765,-843.43 1765,-866.43 1827,-866.43 1827,-843.43 1765,-843.43"/>
<text text-anchor="start" x="1769" y="-851.23" font-family="arial" font-size="14.00" fill="white">BB (356)</text>
<polygon fill="#fdb475" stroke="transparent" points="1765,-820.43 1765,-843.43 1827,-843.43 1827,-820.43 1765,-820.43"/>
<polygon fill="none" stroke="black" points="1765,-820.43 1765,-843.43 1827,-843.43 1827,-820.43 1765,-820.43"/>
<text text-anchor="start" x="1775.5" y="-828.23" font-family="arial" font-size="14.00" fill="white">Instant</text>
</g>
<!-- A0&#45;&gt;A5 -->
<g id="edge33" class="edge">
<title>A0&#45;&gt;A5</title>
<path fill="none" stroke="black" stroke-width="1.06" d="M1250.51,-962.96C1407.64,-963.6 1800.31,-960.87 1840,-918.43 1851.01,-906.65 1844.93,-891.67 1834.22,-878.27"/>
<polygon fill="black" stroke="black" stroke-width="1.06" points="1836.7,-875.79 1827.46,-870.59 1831.44,-880.41 1836.7,-875.79"/>
<polygon fill="snow" stroke="transparent" points="1845,-903.43 1845,-918.43 1929,-918.43 1929,-903.43 1845,-903.43"/>
<text text-anchor="start" x="1875.5" y="-907.23" font-family="arial" font-size="14.00" fill="#a3cbe3">252</text>
<polygon fill="snow" stroke="transparent" points="1845,-888.43 1845,-903.43 1929,-903.43 1929,-888.43 1845,-888.43"/>
<text text-anchor="start" x="1845" y="-892.23" font-family="arial" font-size="14.00" fill="#a43503">17d 14h 09m </text>
</g>
<!-- A0&#45;&gt;A6 -->
<g id="edge38" class="edge">
<title>A0&#45;&gt;A6</title>
<path fill="none" stroke="black" stroke-width="1.08" d="M1250.69,-962.19C1413.87,-961.04 1838.93,-954.58 1975,-918.43 2003.81,-910.77 2007.21,-899.23 2035,-888.43 2062.14,-877.87 2070.68,-880.5 2098,-870.43 2099.4,-869.91 2100.82,-869.37 2102.25,-868.82"/>
<polygon fill="black" stroke="black" stroke-width="1.08" points="2103.76,-871.98 2111.71,-864.98 2101.13,-865.5 2103.76,-871.98"/>
<polygon fill="snow" stroke="transparent" points="2035,-903.43 2035,-918.43 2119,-918.43 2119,-903.43 2035,-903.43"/>
<text text-anchor="start" x="2065.5" y="-907.23" font-family="arial" font-size="14.00" fill="#a1cbe3">376</text>
<polygon fill="snow" stroke="transparent" points="2035,-888.43 2035,-903.43 2119,-903.43 2119,-888.43 2035,-888.43"/>
<text text-anchor="start" x="2035" y="-892.23" font-family="arial" font-size="14.00" fill="#fdab67">01d 04h 37m </text>
</g>
<!-- A7 -->
<g id="node10" class="node">
<title>A7</title>
<polygon fill="#a0cae3" stroke="transparent" points="1308,-243.43 1308,-266.43 1382,-266.43 1382,-243.43 1308,-243.43"/>
<polygon fill="none" stroke="black" points="1308,-243.43 1308,-266.43 1382,-266.43 1382,-243.43 1308,-243.43"/>
<text text-anchor="start" x="1312" y="-251.23" font-family="arial" font-size="14.00" fill="white">UOV (538)</text>
<polygon fill="#fdb475" stroke="transparent" points="1308,-220.43 1308,-243.43 1382,-243.43 1382,-220.43 1308,-220.43"/>
<polygon fill="none" stroke="black" points="1308,-220.43 1308,-243.43 1382,-243.43 1382,-220.43 1308,-220.43"/>
<text text-anchor="start" x="1324.5" y="-228.23" font-family="arial" font-size="14.00" fill="white">Instant</text>
</g>
<!-- A0&#45;&gt;A7 -->
<g id="edge30" class="edge">
<title>A0&#45;&gt;A7</title>
<path fill="none" stroke="black" stroke-width="1.04" d="M1250.76,-942.25C1294.01,-924.29 1343,-893.19 1343,-844.43 1343,-844.43 1343,-844.43 1343,-422.43 1343,-373.34 1343.77,-316.65 1344.35,-280.68"/>
<polygon fill="black" stroke="black" stroke-width="1.04" points="1347.85,-280.72 1344.52,-270.66 1340.85,-280.6 1347.85,-280.72"/>
<polygon fill="snow" stroke="transparent" points="1343,-603.43 1343,-618.43 1427,-618.43 1427,-603.43 1343,-603.43"/>
<text text-anchor="start" x="1373.5" y="-607.23" font-family="arial" font-size="14.00" fill="#a3cbe3">157</text>
<polygon fill="snow" stroke="transparent" points="1343,-588.43 1343,-603.43 1427,-603.43 1427,-588.43 1343,-588.43"/>
<text text-anchor="start" x="1343" y="-592.23" font-family="arial" font-size="14.00" fill="#fc994d">03d 08h 36m </text>
</g>
<!-- A0&#45;&gt;A8 -->
<g id="edge39" class="edge">
<title>A0&#45;&gt;A8</title>
<path fill="none" stroke="black" stroke-width="1.09" d="M1250.58,-961.6C1463.76,-958.6 2136.76,-946.95 2230,-918.43 2268.92,-906.52 2288.14,-905.96 2308,-870.43 2319.71,-849.48 2317.83,-838.32 2308,-816.43 2290.05,-776.46 2245.27,-752.57 2208.76,-739.2"/>
<polygon fill="black" stroke="black" stroke-width="1.09" points="2209.79,-735.86 2199.2,-735.87 2207.49,-742.47 2209.79,-735.86"/>
<polygon fill="snow" stroke="transparent" points="2316.5,-843.43 2316.5,-858.43 2399.5,-858.43 2399.5,-843.43 2316.5,-843.43"/>
<text text-anchor="start" x="2346.5" y="-847.23" font-family="arial" font-size="14.00" fill="#a1cbe3">419</text>
<polygon fill="snow" stroke="transparent" points="2316.5,-828.43 2316.5,-843.43 2399.5,-843.43 2399.5,-828.43 2316.5,-828.43"/>
<text text-anchor="start" x="2316.5" y="-832.23" font-family="arial" font-size="14.00" fill="#fdb06f">11h 31m 59s </text>
</g>
<!-- A9 -->
<g id="node12" class="node">
<title>A9</title>
<polygon fill="#a3cbe3" stroke="transparent" points="271,-243.43 271,-266.43 345,-266.43 345,-243.43 271,-243.43"/>
<polygon fill="none" stroke="black" points="271,-243.43 271,-266.43 345,-266.43 345,-243.43 271,-243.43"/>
<text text-anchor="start" x="275" y="-251.23" font-family="arial" font-size="14.00" fill="white">GBH (138)</text>
<polygon fill="#fdb475" stroke="transparent" points="271,-220.43 271,-243.43 345,-243.43 345,-220.43 271,-220.43"/>
<polygon fill="none" stroke="black" points="271,-220.43 271,-243.43 345,-243.43 345,-220.43 271,-220.43"/>
<text text-anchor="start" x="287.5" y="-228.23" font-family="arial" font-size="14.00" fill="white">Instant</text>
</g>
<!-- A0&#45;&gt;A9 -->
<g id="edge22" class="edge">
<title>A0&#45;&gt;A9</title>
<path fill="none" stroke="black" stroke-width="1.01" d="M1121.2,-962.6C898.04,-962.83 169.75,-960.32 74,-918.43 31.39,-899.78 0,-890.94 0,-844.43 0,-844.43 0,-844.43 0,-362.43 0,-304.97 53.35,-311.43 106,-288.43 153.25,-267.78 211.08,-256.45 252.73,-250.48"/>
<polygon fill="black" stroke="black" stroke-width="1.01" points="253.26,-253.94 262.69,-249.11 252.31,-247.01 253.26,-253.94"/>
<polygon fill="snow" stroke="transparent" points="0,-603.43 0,-618.43 84,-618.43 84,-603.43 0,-603.43"/>
<text text-anchor="start" x="34" y="-607.23" font-family="arial" font-size="14.00" fill="#a4cce4">45</text>
<polygon fill="snow" stroke="transparent" points="0,-588.43 0,-603.43 84,-603.43 84,-588.43 0,-588.43"/>
<text text-anchor="start" x="0" y="-592.23" font-family="arial" font-size="14.00" fill="#f26f1c">08d 04h 54m </text>
</g>
<!-- A10 -->
<g id="node13" class="node">
<title>A10</title>
<polygon fill="#a4cce4" stroke="transparent" points="426,-843.43 426,-866.43 480,-866.43 480,-843.43 426,-843.43"/>
<polygon fill="none" stroke="black" points="426,-843.43 426,-866.43 480,-866.43 480,-843.43 426,-843.43"/>
<text text-anchor="start" x="430" y="-851.23" font-family="arial" font-size="14.00" fill="white">AP (22)</text>
<polygon fill="#fdb475" stroke="transparent" points="426,-820.43 426,-843.43 480,-843.43 480,-820.43 426,-820.43"/>
<polygon fill="none" stroke="black" points="426,-820.43 426,-843.43 480,-843.43 480,-820.43 426,-820.43"/>
<text text-anchor="start" x="432.5" y="-828.23" font-family="arial" font-size="14.00" fill="white">Instant</text>
</g>
<!-- A0&#45;&gt;A10 -->
<g id="edge19" class="edge">
<title>A0&#45;&gt;A10</title>
<path fill="none" stroke="black" d="M1121.28,-962.25C957.14,-961.28 534.04,-955.18 483,-918.43 470.69,-909.56 463.42,-894.75 459.13,-880.7"/>
<polygon fill="black" stroke="black" points="462.43,-879.48 456.51,-870.7 455.66,-881.26 462.43,-879.48"/>
<polygon fill="snow" stroke="transparent" points="483,-903.43 483,-918.43 505,-918.43 505,-903.43 483,-903.43"/>
<text text-anchor="start" x="486" y="-907.23" font-family="arial" font-size="14.00" fill="#a4cce4">15</text>
<polygon fill="snow" stroke="transparent" points="483,-888.43 483,-903.43 505,-903.43 505,-888.43 483,-888.43"/>
<text text-anchor="start" x="483" y="-892.23" font-family="arial" font-size="14.00" fill="#fdb475">02s</text>
</g>
<!-- A11 -->
<g id="node14" class="node">
<title>A11</title>
<polygon fill="#a3cbe3" stroke="transparent" points="879,-603.43 879,-626.43 952,-626.43 952,-603.43 879,-603.43"/>
<polygon fill="none" stroke="black" points="879,-603.43 879,-626.43 952,-626.43 952,-603.43 879,-603.43"/>
<text text-anchor="start" x="883" y="-611.23" font-family="arial" font-size="14.00" fill="white">OPS (141)</text>
<polygon fill="#fdb475" stroke="transparent" points="879,-580.43 879,-603.43 952,-603.43 952,-580.43 879,-580.43"/>
<polygon fill="none" stroke="black" points="879,-580.43 879,-603.43 952,-603.43 952,-580.43 879,-580.43"/>
<text text-anchor="start" x="895" y="-588.23" font-family="arial" font-size="14.00" fill="white">Instant</text>
</g>
<!-- A0&#45;&gt;A11 -->
<g id="edge26" class="edge">
<title>A0&#45;&gt;A11</title>
<path fill="none" stroke="black" stroke-width="1.02" d="M1151.73,-936.27C1145.47,-930.73 1139.27,-924.66 1134,-918.43 1094.01,-871.09 1084.04,-856.71 1063,-798.43 1040.07,-734.92 1082.2,-700.31 1039,-648.43 1021.85,-627.83 994.37,-616.87 969.64,-611.04"/>
<polygon fill="black" stroke="black" stroke-width="1.02" points="970.11,-607.56 959.6,-608.91 968.66,-614.41 970.11,-607.56"/>
<polygon fill="snow" stroke="transparent" points="1063,-783.43 1063,-798.43 1147,-798.43 1147,-783.43 1063,-783.43"/>
<text text-anchor="start" x="1097" y="-787.23" font-family="arial" font-size="14.00" fill="#a4cce4">79</text>
<polygon fill="snow" stroke="transparent" points="1063,-768.43 1063,-783.43 1147,-783.43 1147,-768.43 1063,-768.43"/>
<text text-anchor="start" x="1063" y="-772.23" font-family="arial" font-size="14.00" fill="#fd9a4f">03d 06h 11m </text>
</g>
<!-- A12 -->
<g id="node15" class="node">
<title>A12</title>
<polygon fill="#a3cbe3" stroke="transparent" points="166,-363.43 166,-386.43 239,-386.43 239,-363.43 166,-363.43"/>
<polygon fill="none" stroke="black" points="166,-363.43 166,-386.43 239,-386.43 239,-363.43 166,-363.43"/>
<text text-anchor="start" x="170" y="-371.23" font-family="arial" font-size="14.00" fill="white">VRIJ (138)</text>
<polygon fill="#fdb475" stroke="transparent" points="166,-340.43 166,-363.43 239,-363.43 239,-340.43 166,-340.43"/>
<polygon fill="none" stroke="black" points="166,-340.43 166,-363.43 239,-363.43 239,-340.43 166,-340.43"/>
<text text-anchor="start" x="182" y="-348.23" font-family="arial" font-size="14.00" fill="white">Instant</text>
</g>
<!-- A0&#45;&gt;A12 -->
<g id="edge27" class="edge">
<title>A0&#45;&gt;A12</title>
<path fill="none" stroke="black" stroke-width="1.02" d="M1121.23,-961.29C915.91,-957.45 291,-943.73 256,-918.43 163.43,-851.49 184.79,-790.75 164,-678.43 161.57,-665.32 156.57,-659.5 164,-648.43 175.78,-630.88 196.22,-647.97 208,-630.43 221.38,-610.5 208.34,-600.42 208,-576.43 207.13,-514.66 204.82,-442.79 203.34,-400.6"/>
<polygon fill="black" stroke="black" stroke-width="1.02" points="206.83,-400.4 202.98,-390.53 199.83,-400.65 206.83,-400.4"/>
<polygon fill="snow" stroke="transparent" points="164,-663.43 164,-678.43 248,-678.43 248,-663.43 164,-663.43"/>
<text text-anchor="start" x="198" y="-667.23" font-family="arial" font-size="14.00" fill="#a3cbe3">96</text>
<polygon fill="snow" stroke="transparent" points="164,-648.43 164,-663.43 248,-663.43 248,-648.43 164,-648.43"/>
<text text-anchor="start" x="164" y="-652.23" font-family="arial" font-size="14.00" fill="#fa8736">05d 14h 30m </text>
</g>
<!-- A13 -->
<g id="node16" class="node">
<title>A13</title>
<polygon fill="#a4cce4" stroke="transparent" points="1136,-243.43 1136,-266.43 1202,-266.43 1202,-243.43 1136,-243.43"/>
<polygon fill="none" stroke="black" points="1136,-243.43 1136,-266.43 1202,-266.43 1202,-243.43 1136,-243.43"/>
<text text-anchor="start" x="1140" y="-251.23" font-family="arial" font-size="14.00" fill="white">NGV (41)</text>
<polygon fill="#fdb475" stroke="transparent" points="1136,-220.43 1136,-243.43 1202,-243.43 1202,-220.43 1136,-220.43"/>
<polygon fill="none" stroke="black" points="1136,-220.43 1136,-243.43 1202,-243.43 1202,-220.43 1136,-220.43"/>
<text text-anchor="start" x="1148.5" y="-228.23" font-family="arial" font-size="14.00" fill="white">Instant</text>
</g>
<!-- A0&#45;&gt;A13 -->
<g id="edge20" class="edge">
<title>A0&#45;&gt;A13</title>
<path fill="none" stroke="black" stroke-width="1.01" d="M1186.53,-936.34C1186.76,-898.76 1185.15,-827.42 1172,-768.43 1157.7,-704.3 1130.98,-695.03 1119,-630.43 1114.62,-606.83 1108.06,-597.79 1119,-576.43 1125.24,-564.24 1137.76,-570.61 1144,-558.43 1150.08,-546.56 1147.4,-541.32 1144,-528.43 1129.23,-472.39 1080.52,-465.02 1093,-408.43 1103.39,-361.29 1128.73,-311.59 1147.31,-279.42"/>
<polygon fill="black" stroke="black" stroke-width="1.01" points="1150.54,-280.83 1152.59,-270.43 1144.51,-277.28 1150.54,-280.83"/>
<polygon fill="snow" stroke="transparent" points="1119.5,-603.43 1119.5,-618.43 1202.5,-618.43 1202.5,-603.43 1119.5,-603.43"/>
<text text-anchor="start" x="1153" y="-607.23" font-family="arial" font-size="14.00" fill="#a4cce4">29</text>
<polygon fill="snow" stroke="transparent" points="1119.5,-588.43 1119.5,-603.43 1202.5,-603.43 1202.5,-588.43 1119.5,-588.43"/>
<text text-anchor="start" x="1119.5" y="-592.23" font-family="arial" font-size="14.00" fill="#fdb272">05h 28m 36s </text>
</g>
<!-- A14 -->
<g id="node17" class="node">
<title>A14</title>
<polygon fill="#a4cce4" stroke="transparent" points="616,-843.43 616,-866.43 682,-866.43 682,-843.43 616,-843.43"/>
<polygon fill="none" stroke="black" points="616,-843.43 616,-866.43 682,-866.43 682,-843.43 616,-843.43"/>
<text text-anchor="start" x="620" y="-851.23" font-family="arial" font-size="14.00" fill="white">LGSV (2)</text>
<polygon fill="#fdb475" stroke="transparent" points="616,-820.43 616,-843.43 682,-843.43 682,-820.43 616,-820.43"/>
<polygon fill="none" stroke="black" points="616,-820.43 616,-843.43 682,-843.43 682,-820.43 616,-820.43"/>
<text text-anchor="start" x="628.5" y="-828.23" font-family="arial" font-size="14.00" fill="white">Instant</text>
</g>
<!-- A0&#45;&gt;A14 -->
<g id="edge16" class="edge">
<title>A0&#45;&gt;A14</title>
<path fill="none" stroke="black" d="M1121.01,-960.91C990.31,-957.29 705.18,-946.27 671,-918.43 659.71,-909.23 654.04,-894.51 651.25,-880.62"/>
<polygon fill="black" stroke="black" points="654.71,-880.07 649.7,-870.74 647.8,-881.16 654.71,-880.07"/>
<polygon fill="snow" stroke="transparent" points="671.5,-903.43 671.5,-918.43 712.5,-918.43 712.5,-903.43 671.5,-903.43"/>
<text text-anchor="start" x="688" y="-907.23" font-family="arial" font-size="14.00" fill="#a4cce4">1</text>
<polygon fill="snow" stroke="transparent" points="671.5,-888.43 671.5,-903.43 712.5,-903.43 712.5,-888.43 671.5,-888.43"/>
<text text-anchor="start" x="671.5" y="-892.23" font-family="arial" font-size="14.00" fill="#fdb475">Instant</text>
</g>
<!-- A15 -->
<g id="node18" class="node">
<title>A15</title>
<polygon fill="#a3cbe3" stroke="transparent" points="1673,-243.43 1673,-266.43 1746,-266.43 1746,-243.43 1673,-243.43"/>
<polygon fill="none" stroke="black" points="1673,-243.43 1673,-266.43 1746,-266.43 1746,-243.43 1673,-243.43"/>
<text text-anchor="start" x="1677" y="-251.23" font-family="arial" font-size="14.00" fill="white">CRD (278)</text>
<polygon fill="#fdb475" stroke="transparent" points="1673,-220.43 1673,-243.43 1746,-243.43 1746,-220.43 1673,-220.43"/>
<polygon fill="none" stroke="black" points="1673,-220.43 1673,-243.43 1746,-243.43 1746,-220.43 1673,-220.43"/>
<text text-anchor="start" x="1689" y="-228.23" font-family="arial" font-size="14.00" fill="white">Instant</text>
</g>
<!-- A0&#45;&gt;A15 -->
<g id="edge29" class="edge">
<title>A0&#45;&gt;A15</title>
<path fill="none" stroke="black" stroke-width="1.03" d="M1250.7,-960.66C1339.29,-957.2 1492.77,-947.13 1540,-918.43 1585.67,-890.67 1638.71,-847.26 1684,-678.43 1687.45,-665.55 1687.61,-661.26 1684,-648.43 1681.46,-639.4 1675.54,-639.45 1673,-630.43 1666.5,-607.32 1669.98,-600.24 1673,-576.43 1683.75,-491.73 1707.9,-474.79 1721,-390.43 1727.96,-345.6 1732.87,-333.11 1725,-288.43 1724.53,-285.74 1723.9,-283.01 1723.18,-280.28"/>
<polygon fill="black" stroke="black" stroke-width="1.03" points="1726.47,-279.07 1720.18,-270.54 1719.78,-281.13 1726.47,-279.07"/>
<polygon fill="snow" stroke="transparent" points="1673.5,-603.43 1673.5,-618.43 1756.5,-618.43 1756.5,-603.43 1673.5,-603.43"/>
<text text-anchor="start" x="1703.5" y="-607.23" font-family="arial" font-size="14.00" fill="#a3cbe3">149</text>
<polygon fill="snow" stroke="transparent" points="1673.5,-588.43 1673.5,-603.43 1756.5,-603.43 1756.5,-588.43 1673.5,-588.43"/>
<text text-anchor="start" x="1673.5" y="-592.23" font-family="arial" font-size="14.00" fill="#fdb06f">11h 21m 03s </text>
</g>
<!-- A1&#45;&gt;complete -->
<g id="edge8" class="edge">
<title>A1&#45;&gt;complete</title>
<path fill="none" stroke="#bfbfbf" stroke-width="1.01" stroke-dasharray="5,2" d="M529,-696.38C528.61,-690.48 528.24,-684.24 528,-678.43 523.27,-565.62 524,-537.33 524,-424.43 524,-424.43 524,-424.43 524,-122.43 524,-19.86 1362.73,-21.05 1508.52,-22.03"/>
<polygon fill="white" stroke="transparent" points="524.5,-354.43 524.5,-372.43 543.5,-372.43 543.5,-354.43 524.5,-354.43"/>
<text text-anchor="start" x="524.5" y="-359.63" font-family="arial" font-size="16.00" fill="#a4cce4">27</text>
</g>
<!-- A1&#45;&gt;A0 -->
<g id="edge37" class="edge">
<title>A1&#45;&gt;A0</title>
<path fill="none" stroke="black" stroke-width="1.08" d="M577.28,-736.85C599.92,-744.1 626.97,-754.58 649,-768.43 675.08,-784.81 678.51,-793.42 699,-816.43 719.04,-838.93 717.4,-850.49 740,-870.43 771.96,-898.62 782.58,-904.92 823,-918.43 919.03,-950.51 1036.31,-959.7 1111.08,-962.06"/>
<polygon fill="black" stroke="black" stroke-width="1.08" points="1111.25,-965.57 1121.34,-962.35 1111.45,-958.57 1111.25,-965.57"/>
<polygon fill="snow" stroke="transparent" points="740.5,-843.43 740.5,-858.43 823.5,-858.43 823.5,-843.43 740.5,-843.43"/>
<text text-anchor="start" x="770.5" y="-847.23" font-family="arial" font-size="14.00" fill="#a1cbe3">360</text>
<polygon fill="snow" stroke="transparent" points="740.5,-828.43 740.5,-843.43 823.5,-843.43 823.5,-828.43 740.5,-828.43"/>
<text text-anchor="start" x="740.5" y="-832.23" font-family="arial" font-size="14.00" fill="#fdb06f">11h 34m 35s </text>
</g>
<!-- A1&#45;&gt;A1 -->
<g id="edge49" class="edge">
<title>A1&#45;&gt;A1</title>
<path fill="none" stroke="black" stroke-width="1.06" d="M577.02,-734.4C587.41,-733.41 595,-729.75 595,-723.43 595,-719.37 591.88,-716.41 586.91,-714.55"/>
<polygon fill="black" stroke="black" stroke-width="1.06" points="587.53,-711.1 577.02,-712.45 586.08,-717.95 587.53,-711.1"/>
<polygon fill="snow" stroke="transparent" points="595.5,-723.43 595.5,-738.43 678.5,-738.43 678.5,-723.43 595.5,-723.43"/>
<text text-anchor="start" x="625.5" y="-727.23" font-family="arial" font-size="14.00" fill="#a3cbe3">269</text>
<polygon fill="snow" stroke="transparent" points="595.5,-708.43 595.5,-723.43 678.5,-723.43 678.5,-708.43 595.5,-708.43"/>
<text text-anchor="start" x="595.5" y="-712.23" font-family="arial" font-size="14.00" fill="#fdae6c">18h 13m 36s </text>
</g>
<!-- A1&#45;&gt;A2 -->
<g id="edge57" class="edge">
<title>A1&#45;&gt;A2</title>
<path fill="none" stroke="black" stroke-width="1.02" d="M551.28,-696.22C583.06,-655.3 641.63,-580.45 648,-576.43 677.34,-557.87 693.98,-575.86 724,-558.43 739.77,-549.27 738.32,-540.49 752,-528.43 756.46,-524.5 761.25,-520.58 766.13,-516.79"/>
<polygon fill="black" stroke="black" stroke-width="1.02" points="768.51,-519.37 774.37,-510.55 764.29,-513.79 768.51,-519.37"/>
<polygon fill="snow" stroke="transparent" points="648,-603.43 648,-618.43 670,-618.43 670,-603.43 648,-603.43"/>
<text text-anchor="start" x="651" y="-607.23" font-family="arial" font-size="14.00" fill="#a4cce4">74</text>
<polygon fill="snow" stroke="transparent" points="648,-588.43 648,-603.43 670,-603.43 670,-588.43 648,-588.43"/>
<text text-anchor="start" x="648" y="-592.23" font-family="arial" font-size="14.00" fill="#fdb475">45s</text>
</g>
<!-- A1&#45;&gt;A9 -->
<g id="edge68" class="edge">
<title>A1&#45;&gt;A9</title>
<path fill="none" stroke="black" d="M508.02,-696.31C504.11,-690.72 500.51,-684.62 498,-678.43 452.65,-566.3 515.83,-517.71 464,-408.43 438.4,-354.46 388.21,-306.76 351.64,-276.91"/>
<polygon fill="black" stroke="black" points="353.59,-273.98 343.6,-270.45 349.21,-279.44 353.59,-273.98"/>
<polygon fill="snow" stroke="transparent" points="485,-483.43 485,-498.43 507,-498.43 507,-483.43 485,-483.43"/>
<text text-anchor="start" x="488" y="-487.23" font-family="arial" font-size="14.00" fill="#a4cce4">16</text>
<polygon fill="snow" stroke="transparent" points="485,-468.43 485,-483.43 507,-483.43 507,-468.43 485,-468.43"/>
<text text-anchor="start" x="485" y="-472.23" font-family="arial" font-size="14.00" fill="#fdb475">06s</text>
</g>
<!-- A1&#45;&gt;A11 -->
<g id="edge64" class="edge">
<title>A1&#45;&gt;A11</title>
<path fill="none" stroke="black" d="M577.18,-710.03C608.53,-701.48 650.89,-689.67 688,-678.43 747.32,-660.45 814.79,-638.23 860.65,-622.85"/>
<polygon fill="black" stroke="black" points="862.02,-626.09 870.38,-619.58 859.79,-619.45 862.02,-626.09"/>
<polygon fill="snow" stroke="transparent" points="781,-663.43 781,-678.43 803,-678.43 803,-663.43 781,-663.43"/>
<text text-anchor="start" x="784" y="-667.23" font-family="arial" font-size="14.00" fill="#a4cce4">23</text>
<polygon fill="snow" stroke="transparent" points="781,-648.43 781,-663.43 803,-663.43 803,-648.43 781,-648.43"/>
<text text-anchor="start" x="781" y="-652.23" font-family="arial" font-size="14.00" fill="#fdb475">10s</text>
</g>
<!-- A2&#45;&gt;complete -->
<g id="edge10" class="edge">
<title>A2&#45;&gt;complete</title>
<path fill="none" stroke="#bfbfbf" stroke-dasharray="5,2" d="M795.91,-456.21C792.84,-450.54 789.99,-444.43 788,-438.43 756.91,-344.78 743.78,-304.63 788,-216.43 796.83,-198.81 919.53,-104.47 939,-96.43 1045.68,-52.34 1415.75,-28.71 1508.7,-23.38"/>
<polygon fill="white" stroke="transparent" points="788,-234.43 788,-252.43 798,-252.43 798,-234.43 788,-234.43"/>
<text text-anchor="start" x="788" y="-239.63" font-family="arial" font-size="16.00" fill="#a4cce4">7</text>
</g>
<!-- A2&#45;&gt;A0 -->
<g id="edge36" class="edge">
<title>A2&#45;&gt;A0</title>
<path fill="none" stroke="black" stroke-width="1.07" d="M816.32,-510.5C818.55,-524.86 822,-542.86 827,-558.43 847.66,-622.8 864.02,-634.44 891,-696.43 901.34,-720.19 902.23,-726.85 913,-750.43 937.86,-804.84 934.86,-825.18 974,-870.43 1009.22,-911.13 1065.74,-934.44 1111.57,-947.41"/>
<polygon fill="black" stroke="black" stroke-width="1.07" points="1110.91,-950.85 1121.48,-950.1 1112.74,-944.1 1110.91,-950.85"/>
<polygon fill="snow" stroke="transparent" points="913,-723.43 913,-738.43 997,-738.43 997,-723.43 913,-723.43"/>
<text text-anchor="start" x="943.5" y="-727.23" font-family="arial" font-size="14.00" fill="#a1cbe3">333</text>
<polygon fill="snow" stroke="transparent" points="913,-708.43 913,-723.43 997,-723.43 997,-708.43 913,-708.43"/>
<text text-anchor="start" x="913" y="-712.23" font-family="arial" font-size="14.00" fill="#f77d2a">06d 16h 20m </text>
</g>
<!-- A2&#45;&gt;A1 -->
<g id="edge59" class="edge">
<title>A2&#45;&gt;A1</title>
<path fill="none" stroke="black" stroke-width="1.01" d="M791.49,-510.46C774.96,-530.25 754.12,-554.71 749,-558.43 732.22,-570.58 721.98,-563.24 706,-576.43 683.75,-594.78 690.43,-610.06 670,-630.43 645.31,-655.04 613.08,-676.86 585.87,-693.06"/>
<polygon fill="black" stroke="black" stroke-width="1.01" points="584.09,-690.05 577.23,-698.12 587.62,-696.09 584.09,-690.05"/>
<polygon fill="snow" stroke="transparent" points="706,-603.43 706,-618.43 790,-618.43 790,-603.43 706,-603.43"/>
<text text-anchor="start" x="740" y="-607.23" font-family="arial" font-size="14.00" fill="#a4cce4">57</text>
<polygon fill="snow" stroke="transparent" points="706,-588.43 706,-603.43 790,-603.43 790,-588.43 706,-588.43"/>
<text text-anchor="start" x="706" y="-592.23" font-family="arial" font-size="14.00" fill="#fda45e">01d 23h 34m </text>
</g>
<!-- A2&#45;&gt;A2 -->
<g id="edge46" class="edge">
<title>A2&#45;&gt;A2</title>
<path fill="none" stroke="black" stroke-width="1.19" d="M858.02,-494.43C868.39,-493.48 876,-489.81 876,-483.43 876,-479.33 872.88,-476.36 867.9,-474.5"/>
<polygon fill="black" stroke="black" stroke-width="1.19" points="868.53,-471.05 858.02,-472.42 867.09,-477.9 868.53,-471.05"/>
<polygon fill="snow" stroke="transparent" points="876.5,-483.43 876.5,-498.43 959.5,-498.43 959.5,-483.43 876.5,-483.43"/>
<text text-anchor="start" x="906.5" y="-487.23" font-family="arial" font-size="14.00" fill="#9ec9e2">840</text>
<polygon fill="snow" stroke="transparent" points="876.5,-468.43 876.5,-483.43 959.5,-483.43 959.5,-468.43 876.5,-468.43"/>
<text text-anchor="start" x="876.5" y="-472.23" font-family="arial" font-size="14.00" fill="#fdb475">01h 24m 15s </text>
</g>
<!-- A2&#45;&gt;A3 -->
<g id="edge71" class="edge">
<title>A2&#45;&gt;A3</title>
<path fill="none" stroke="black" d="M858.1,-478.5C930.02,-471.97 1075.04,-457.64 1197,-438.43 1308.67,-420.83 1437.97,-393.11 1509.74,-377.06"/>
<polygon fill="black" stroke="black" points="1510.91,-380.38 1519.9,-374.77 1509.37,-373.55 1510.91,-380.38"/>
<polygon fill="snow" stroke="transparent" points="1359,-423.43 1359,-438.43 1443,-438.43 1443,-423.43 1359,-423.43"/>
<text text-anchor="start" x="1393" y="-427.23" font-family="arial" font-size="14.00" fill="#a4cce4">10</text>
<polygon fill="snow" stroke="transparent" points="1359,-408.43 1359,-423.43 1443,-423.43 1443,-408.43 1359,-408.43"/>
<text text-anchor="start" x="1359" y="-412.23" font-family="arial" font-size="14.00" fill="#f47522">07d 15h 17m </text>
</g>
<!-- A2&#45;&gt;A4 -->
<g id="edge69" class="edge">
<title>A2&#45;&gt;A4</title>
<path fill="none" stroke="black" d="M804.13,-456.2C792.71,-418.15 776.5,-345.9 796,-288.43 817.59,-224.78 834.26,-208.78 888,-168.43 902.92,-157.23 921.04,-148.51 938.37,-141.9"/>
<polygon fill="black" stroke="black" points="939.68,-145.14 947.89,-138.44 937.29,-138.57 939.68,-145.14"/>
<polygon fill="snow" stroke="transparent" points="796,-303.43 796,-318.43 880,-318.43 880,-303.43 796,-303.43"/>
<text text-anchor="start" x="830" y="-307.23" font-family="arial" font-size="14.00" fill="#a4cce4">13</text>
<polygon fill="snow" stroke="transparent" points="796,-288.43 796,-303.43 880,-303.43 880,-288.43 796,-288.43"/>
<text text-anchor="start" x="796" y="-292.23" font-family="arial" font-size="14.00" fill="#f77b29">06d 21h 40m </text>
</g>
<!-- A2&#45;&gt;A11 -->
<g id="edge72" class="edge">
<title>A2&#45;&gt;A11</title>
<path fill="none" stroke="black" d="M819.17,-510.57C823.79,-525.82 831.34,-544.69 843,-558.43 848.45,-564.85 855.08,-570.61 862.1,-575.67"/>
<polygon fill="black" stroke="black" points="860.2,-578.62 870.45,-581.3 864.11,-572.81 860.2,-578.62"/>
<polygon fill="snow" stroke="transparent" points="843,-543.43 843,-558.43 927,-558.43 927,-543.43 843,-543.43"/>
<text text-anchor="start" x="881" y="-547.23" font-family="arial" font-size="14.00" fill="#a4cce4">9</text>
<polygon fill="snow" stroke="transparent" points="843,-528.43 843,-543.43 927,-543.43 927,-528.43 843,-528.43"/>
<text text-anchor="start" x="843" y="-532.23" font-family="arial" font-size="14.00" fill="#fb8d3e">04d 19h 45m </text>
</g>
<!-- A2&#45;&gt;A12 -->
<g id="edge82" class="edge">
<title>A2&#45;&gt;A12</title>
<path fill="none" stroke="black" d="M767.82,-479.2C699.7,-473.81 566.86,-461.25 456,-438.43 386.05,-424.02 307.38,-399.82 256.38,-383.03"/>
<polygon fill="black" stroke="black" points="257.47,-379.71 246.87,-379.88 255.26,-386.35 257.47,-379.71"/>
<polygon fill="snow" stroke="transparent" points="456,-423.43 456,-438.43 540,-438.43 540,-423.43 456,-423.43"/>
<text text-anchor="start" x="494" y="-427.23" font-family="arial" font-size="14.00" fill="#a4cce4">5</text>
<polygon fill="snow" stroke="transparent" points="456,-408.43 456,-423.43 540,-423.43 540,-408.43 456,-408.43"/>
<text text-anchor="start" x="456" y="-412.23" font-family="arial" font-size="14.00" fill="#b53b02">16d 00h 53m </text>
</g>
<!-- A2&#45;&gt;A13 -->
<g id="edge78" class="edge">
<title>A2&#45;&gt;A13</title>
<path fill="none" stroke="black" d="M858.21,-466.84C876.8,-459.49 898.13,-449.82 916,-438.43 1000.11,-384.78 1000.79,-344.95 1083,-288.43 1094.12,-280.78 1106.75,-273.59 1118.84,-267.33"/>
<polygon fill="black" stroke="black" points="1120.6,-270.36 1127.95,-262.73 1117.44,-264.11 1120.6,-270.36"/>
<polygon fill="snow" stroke="transparent" points="1024,-363.43 1024,-378.43 1046,-378.43 1046,-363.43 1024,-363.43"/>
<text text-anchor="start" x="1031" y="-367.23" font-family="arial" font-size="14.00" fill="#a4cce4">7</text>
<polygon fill="snow" stroke="transparent" points="1024,-348.43 1024,-363.43 1046,-363.43 1046,-348.43 1024,-348.43"/>
<text text-anchor="start" x="1024" y="-352.23" font-family="arial" font-size="14.00" fill="#fdb475">30s</text>
</g>
<!-- A3&#45;&gt;A0 -->
<g id="edge43" class="edge">
<title>A3&#45;&gt;A0</title>
<path fill="none" stroke="black" stroke-width="1.26" d="M1581.97,-390.53C1584.88,-396.22 1587.45,-402.36 1589,-408.43 1617.3,-519.4 1601.85,-843.78 1515,-918.43 1477.99,-950.23 1345.95,-959.21 1260.82,-961.65"/>
<polygon fill="black" stroke="black" stroke-width="1.26" points="1260.58,-958.15 1250.68,-961.91 1260.77,-965.15 1260.58,-958.15"/>
<polygon fill="snow" stroke="transparent" points="1597.5,-663.43 1597.5,-678.43 1680.5,-678.43 1680.5,-663.43 1597.5,-663.43"/>
<text text-anchor="start" x="1622" y="-667.23" font-family="arial" font-size="14.00" fill="#9cc8e1">1,159</text>
<polygon fill="snow" stroke="transparent" points="1597.5,-648.43 1597.5,-663.43 1680.5,-663.43 1680.5,-648.43 1597.5,-648.43"/>
<text text-anchor="start" x="1597.5" y="-652.23" font-family="arial" font-size="14.00" fill="#fdb06f">12h 10m 43s </text>
</g>
<!-- A3&#45;&gt;A2 -->
<g id="edge77" class="edge">
<title>A3&#45;&gt;A2</title>
<path fill="none" stroke="black" d="M1519.79,-363.9C1436.88,-364.01 1255.56,-369.22 1109,-408.43 1077.87,-416.75 1073.71,-428.66 1043,-438.43 984.71,-456.96 915.49,-468.91 868.32,-475.61"/>
<polygon fill="black" stroke="black" points="867.73,-472.16 858.31,-477 868.69,-479.09 867.73,-472.16"/>
<polygon fill="snow" stroke="transparent" points="1109,-423.43 1109,-438.43 1193,-438.43 1193,-423.43 1109,-423.43"/>
<text text-anchor="start" x="1147" y="-427.23" font-family="arial" font-size="14.00" fill="#a4cce4">7</text>
<polygon fill="snow" stroke="transparent" points="1109,-408.43 1109,-423.43 1193,-423.43 1193,-408.43 1109,-408.43"/>
<text text-anchor="start" x="1109" y="-412.23" font-family="arial" font-size="14.00" fill="#fb8b3b">04d 23h 29m </text>
</g>
<!-- A3&#45;&gt;A3 -->
<g id="edge51" class="edge">
<title>A3&#45;&gt;A3</title>
<path fill="none" stroke="black" stroke-width="1.05" d="M1610.02,-374.43C1620.39,-373.48 1628,-369.81 1628,-363.43 1628,-359.33 1624.88,-356.36 1619.9,-354.5"/>
<polygon fill="black" stroke="black" stroke-width="1.05" points="1620.53,-351.05 1610.02,-352.42 1619.09,-357.9 1620.53,-351.05"/>
<polygon fill="snow" stroke="transparent" points="1628,-363.43 1628,-378.43 1712,-378.43 1712,-363.43 1628,-363.43"/>
<text text-anchor="start" x="1658.5" y="-367.23" font-family="arial" font-size="14.00" fill="#a3cbe3">237</text>
<polygon fill="snow" stroke="transparent" points="1628,-348.43 1628,-363.43 1712,-363.43 1712,-348.43 1628,-348.43"/>
<text text-anchor="start" x="1628" y="-352.23" font-family="arial" font-size="14.00" fill="#fd9d53">02d 19h 28m </text>
</g>
<!-- A3&#45;&gt;A4 -->
<g id="edge84" class="edge">
<title>A3&#45;&gt;A4</title>
<path fill="none" stroke="black" d="M1578.34,-336.35C1592.45,-304.71 1609.33,-251.27 1583,-216.43 1521.47,-134.99 1202.23,-124.61 1064.44,-123.99"/>
<polygon fill="black" stroke="black" points="1064.06,-120.49 1054.05,-123.97 1064.04,-127.49 1064.06,-120.49"/>
<polygon fill="snow" stroke="transparent" points="1596.5,-243.43 1596.5,-258.43 1637.5,-258.43 1637.5,-243.43 1596.5,-243.43"/>
<text text-anchor="start" x="1613" y="-247.23" font-family="arial" font-size="14.00" fill="#a4cce4">5</text>
<polygon fill="snow" stroke="transparent" points="1596.5,-228.43 1596.5,-243.43 1637.5,-243.43 1637.5,-228.43 1596.5,-228.43"/>
<text text-anchor="start" x="1596.5" y="-232.23" font-family="arial" font-size="14.00" fill="#fdb475">Instant</text>
</g>
<!-- A3&#45;&gt;A7 -->
<g id="edge81" class="edge">
<title>A3&#45;&gt;A7</title>
<path fill="none" stroke="black" d="M1519.7,-342.87C1506.79,-336.16 1493.21,-327.91 1482,-318.43 1469.17,-307.58 1472.45,-298.49 1459,-288.43 1441.49,-275.32 1419.58,-265.63 1399.67,-258.73"/>
<polygon fill="black" stroke="black" points="1400.67,-255.38 1390.08,-255.57 1398.48,-262.03 1400.67,-255.38"/>
<polygon fill="snow" stroke="transparent" points="1482,-303.43 1482,-318.43 1566,-318.43 1566,-303.43 1482,-303.43"/>
<text text-anchor="start" x="1520" y="-307.23" font-family="arial" font-size="14.00" fill="#a4cce4">5</text>
<polygon fill="snow" stroke="transparent" points="1482,-288.43 1482,-303.43 1566,-303.43 1566,-288.43 1482,-288.43"/>
<text text-anchor="start" x="1482" y="-292.23" font-family="arial" font-size="14.00" fill="#f3721e">08d 00h 00m </text>
</g>
<!-- A3&#45;&gt;A13 -->
<g id="edge85" class="edge">
<title>A3&#45;&gt;A13</title>
<path fill="none" stroke="black" d="M1519.67,-353.34C1483.55,-345.58 1431.93,-333.32 1388,-318.43 1356.33,-307.69 1350.44,-299.82 1319,-288.43 1286.59,-276.68 1249.41,-265.76 1220.18,-257.73"/>
<polygon fill="black" stroke="black" points="1220.76,-254.26 1210.19,-255.02 1218.92,-261.02 1220.76,-254.26"/>
<polygon fill="snow" stroke="transparent" points="1388,-303.43 1388,-318.43 1410,-318.43 1410,-303.43 1388,-303.43"/>
<text text-anchor="start" x="1395" y="-307.23" font-family="arial" font-size="14.00" fill="#a4cce4">4</text>
<polygon fill="snow" stroke="transparent" points="1388,-288.43 1388,-303.43 1410,-303.43 1410,-288.43 1388,-288.43"/>
<text text-anchor="start" x="1388" y="-292.23" font-family="arial" font-size="14.00" fill="#fdb475">17s</text>
</g>
<!-- A3&#45;&gt;A15 -->
<g id="edge55" class="edge">
<title>A3&#45;&gt;A15</title>
<path fill="none" stroke="black" stroke-width="1.03" d="M1610.18,-354.28C1633.61,-348 1661.18,-337.09 1680,-318.43 1690.3,-308.2 1697.04,-293.89 1701.39,-280.57"/>
<polygon fill="black" stroke="black" stroke-width="1.03" points="1704.84,-281.24 1704.28,-270.66 1698.12,-279.28 1704.84,-281.24"/>
<polygon fill="snow" stroke="transparent" points="1698.5,-303.43 1698.5,-318.43 1721.5,-318.43 1721.5,-303.43 1698.5,-303.43"/>
<text text-anchor="start" x="1698.5" y="-307.23" font-family="arial" font-size="14.00" fill="#a3cbe3">116</text>
<polygon fill="snow" stroke="transparent" points="1698.5,-288.43 1698.5,-303.43 1721.5,-303.43 1721.5,-288.43 1698.5,-288.43"/>
<text text-anchor="start" x="1699" y="-292.23" font-family="arial" font-size="14.00" fill="#fdb475">03s</text>
</g>
<!-- A4&#45;&gt;complete -->
<g id="edge9" class="edge">
<title>A4&#45;&gt;complete</title>
<path fill="none" stroke="#bfbfbf" stroke-dasharray="5,2" d="M1054.14,-112.36C1168.38,-90.72 1433.13,-40.56 1509.21,-26.15"/>
<polygon fill="white" stroke="transparent" points="1312,-60.43 1312,-78.43 1322,-78.43 1322,-60.43 1312,-60.43"/>
<text text-anchor="start" x="1312" y="-65.63" font-family="arial" font-size="16.00" fill="#a4cce4">9</text>
</g>
<!-- A4&#45;&gt;A0 -->
<g id="edge41" class="edge">
<title>A4&#45;&gt;A0</title>
<path fill="none" stroke="black" stroke-width="1.14" d="M947.88,-140.83C937.02,-144.09 925.66,-147.43 915,-150.43 884.49,-159.01 873.5,-152.67 846,-168.43 819.82,-183.42 814.24,-191 798,-216.43 627.51,-483.34 629.02,-582.19 666,-630.43 684.76,-654.89 708.91,-629.18 733,-648.43 762.43,-671.95 793.39,-765.67 812,-798.43 816.63,-806.58 818.59,-808.15 823,-816.43 846.5,-860.46 829.92,-888.67 870,-918.43 907.1,-945.98 1030.09,-956.3 1111.24,-960.16"/>
<polygon fill="black" stroke="black" stroke-width="1.14" points="1111.27,-963.66 1121.41,-960.62 1111.58,-956.67 1111.27,-963.66"/>
<polygon fill="snow" stroke="transparent" points="649,-543.43 649,-558.43 733,-558.43 733,-543.43 649,-543.43"/>
<text text-anchor="start" x="679.5" y="-547.23" font-family="arial" font-size="14.00" fill="#a0cae3">617</text>
<polygon fill="snow" stroke="transparent" points="649,-528.43 649,-543.43 733,-543.43 733,-528.43 649,-528.43"/>
<text text-anchor="start" x="649" y="-532.23" font-family="arial" font-size="14.00" fill="#fda25b">02d 04h 34m </text>
</g>
<!-- A4&#45;&gt;A1 -->
<g id="edge76" class="edge">
<title>A4&#45;&gt;A1</title>
<path fill="none" stroke="black" d="M947.68,-124.49C861.03,-125.65 694.81,-132.64 650,-168.43 561.34,-239.23 588.28,-297.82 563,-408.43 540.48,-506.99 533.8,-626.6 531.82,-685.71"/>
<polygon fill="black" stroke="black" points="528.31,-685.92 531.51,-696.02 535.31,-686.13 528.31,-685.92"/>
<polygon fill="snow" stroke="transparent" points="563,-423.43 563,-438.43 647,-438.43 647,-423.43 563,-423.43"/>
<text text-anchor="start" x="601" y="-427.23" font-family="arial" font-size="14.00" fill="#a4cce4">7</text>
<polygon fill="snow" stroke="transparent" points="563,-408.43 563,-423.43 647,-423.43 647,-408.43 563,-408.43"/>
<text text-anchor="start" x="563" y="-412.23" font-family="arial" font-size="14.00" fill="#7f2704">21d 07h 36m </text>
</g>
<!-- A4&#45;&gt;A2 -->
<g id="edge74" class="edge">
<title>A4&#45;&gt;A2</title>
<path fill="none" stroke="black" d="M984.18,-150.64C963.93,-182.62 929.36,-238.58 903,-288.43 874.36,-342.59 845.24,-407.53 828.17,-446.85"/>
<polygon fill="black" stroke="black" points="824.85,-445.71 824.1,-456.28 831.28,-448.49 824.85,-445.71"/>
<polygon fill="snow" stroke="transparent" points="903,-303.43 903,-318.43 987,-318.43 987,-303.43 903,-303.43"/>
<text text-anchor="start" x="941" y="-307.23" font-family="arial" font-size="14.00" fill="#a4cce4">8</text>
<polygon fill="snow" stroke="transparent" points="903,-288.43 903,-303.43 987,-303.43 987,-288.43 903,-288.43"/>
<text text-anchor="start" x="903" y="-292.23" font-family="arial" font-size="14.00" fill="#bd3e02">15d 07h 33m </text>
</g>
<!-- A4&#45;&gt;A3 -->
<g id="edge73" class="edge">
<title>A4&#45;&gt;A3</title>
<path fill="none" stroke="black" d="M1054.05,-129.32C1166.87,-140.49 1426.4,-170.51 1501,-216.43 1526.66,-232.22 1520.63,-249.18 1542,-270.43 1551.46,-279.83 1560.04,-276.5 1566,-288.43 1571.7,-299.83 1572.83,-313.51 1572.08,-325.99"/>
<polygon fill="black" stroke="black" points="1568.58,-325.81 1571.06,-336.11 1575.55,-326.51 1568.58,-325.81"/>
<polygon fill="snow" stroke="transparent" points="1542.5,-243.43 1542.5,-258.43 1583.5,-258.43 1583.5,-243.43 1542.5,-243.43"/>
<text text-anchor="start" x="1559" y="-247.23" font-family="arial" font-size="14.00" fill="#a4cce4">9</text>
<polygon fill="snow" stroke="transparent" points="1542.5,-228.43 1542.5,-243.43 1583.5,-243.43 1583.5,-228.43 1542.5,-228.43"/>
<text text-anchor="start" x="1542.5" y="-232.23" font-family="arial" font-size="14.00" fill="#fdb475">Instant</text>
</g>
<!-- A4&#45;&gt;A4 -->
<g id="edge53" class="edge">
<title>A4&#45;&gt;A4</title>
<path fill="none" stroke="black" stroke-width="1.05" d="M1054.26,-133.1C1064.63,-131.98 1072,-128.75 1072,-123.43 1072,-120.01 1068.98,-117.46 1064.08,-115.78"/>
<polygon fill="black" stroke="black" stroke-width="1.05" points="1064.76,-112.34 1054.26,-113.75 1063.34,-119.2 1064.76,-112.34"/>
<polygon fill="snow" stroke="transparent" points="1072,-123.43 1072,-138.43 1156,-138.43 1156,-123.43 1072,-123.43"/>
<text text-anchor="start" x="1102.5" y="-127.23" font-family="arial" font-size="14.00" fill="#a3cbe3">201</text>
<polygon fill="snow" stroke="transparent" points="1072,-108.43 1072,-123.43 1156,-123.43 1156,-108.43 1072,-108.43"/>
<text text-anchor="start" x="1072" y="-112.23" font-family="arial" font-size="14.00" fill="#f67926">07d 01h 36m </text>
</g>
<!-- A5&#45;&gt;complete -->
<g id="edge7" class="edge">
<title>A5&#45;&gt;complete</title>
<path fill="none" stroke="#bfbfbf" stroke-width="1.01" stroke-dasharray="5,2" d="M1817.09,-816.38C1865.99,-753.26 1983,-585.41 1983,-424.43 1983,-424.43 1983,-424.43 1983,-122.43 1983,-32.82 1640.8,-23.27 1551.24,-22.31"/>
<polygon fill="white" stroke="transparent" points="1983.5,-414.43 1983.5,-432.43 2002.5,-432.43 2002.5,-414.43 1983.5,-414.43"/>
<text text-anchor="start" x="1983.5" y="-419.63" font-family="arial" font-size="16.00" fill="#a4cce4">37</text>
</g>
<!-- A5&#45;&gt;A0 -->
<g id="edge32" class="edge">
<title>A5&#45;&gt;A0</title>
<path fill="none" stroke="black" stroke-width="1.05" d="M1771.52,-870.63C1766.31,-876.41 1760.9,-882.56 1756,-888.43 1745.23,-901.32 1747.76,-910.39 1733,-918.43 1692.54,-940.45 1400.99,-954.31 1260.85,-959.77"/>
<polygon fill="black" stroke="black" stroke-width="1.05" points="1260.48,-956.28 1250.62,-960.17 1260.75,-963.28 1260.48,-956.28"/>
<polygon fill="snow" stroke="transparent" points="1756,-903.43 1756,-918.43 1840,-918.43 1840,-903.43 1756,-903.43"/>
<text text-anchor="start" x="1786.5" y="-907.23" font-family="arial" font-size="14.00" fill="#a3cbe3">216</text>
<polygon fill="snow" stroke="transparent" points="1756,-888.43 1756,-903.43 1840,-903.43 1840,-888.43 1756,-888.43"/>
<text text-anchor="start" x="1756" y="-892.23" font-family="arial" font-size="14.00" fill="#fda25b">02d 05h 55m </text>
</g>
<!-- A5&#45;&gt;A5 -->
<g id="edge56" class="edge">
<title>A5&#45;&gt;A5</title>
<path fill="none" stroke="black" stroke-width="1.02" d="M1835.16,-854.56C1845.33,-853.88 1853,-850.16 1853,-843.43 1853,-839.21 1850,-836.19 1845.28,-834.34"/>
<polygon fill="black" stroke="black" stroke-width="1.02" points="1845.66,-830.85 1835.16,-832.29 1844.27,-837.71 1845.66,-830.85"/>
<polygon fill="snow" stroke="transparent" points="1853,-843.43 1853,-858.43 1937,-858.43 1937,-843.43 1853,-843.43"/>
<text text-anchor="start" x="1883.5" y="-847.23" font-family="arial" font-size="14.00" fill="#a3cbe3">101</text>
<polygon fill="snow" stroke="transparent" points="1853,-828.43 1853,-843.43 1937,-843.43 1937,-828.43 1853,-828.43"/>
<text text-anchor="start" x="1853" y="-832.23" font-family="arial" font-size="14.00" fill="#f06b18">08d 19h 51m </text>
</g>
<!-- A6&#45;&gt;complete -->
<g id="edge12" class="edge">
<title>A6&#45;&gt;complete</title>
<path fill="none" stroke="#bfbfbf" stroke-dasharray="5,2" d="M2198.28,-835.59C2284.82,-820.69 2471,-781.96 2471,-724.43 2471,-724.43 2471,-724.43 2471,-122.43 2471,-26.73 1691.49,-22.22 1551.42,-22.18"/>
<polygon fill="white" stroke="transparent" points="2471,-414.43 2471,-432.43 2481,-432.43 2481,-414.43 2471,-414.43"/>
<text text-anchor="start" x="2471" y="-419.63" font-family="arial" font-size="16.00" fill="#a4cce4">4</text>
</g>
<!-- A6&#45;&gt;A0 -->
<g id="edge40" class="edge">
<title>A6&#45;&gt;A0</title>
<path fill="none" stroke="black" stroke-width="1.11" d="M2149.49,-870.55C2144.51,-887.22 2135.34,-907.66 2119,-918.43 2083.38,-941.89 1475.93,-956.51 1260.78,-960.97"/>
<polygon fill="black" stroke="black" stroke-width="1.11" points="1260.46,-957.48 1250.53,-961.18 1260.6,-964.48 1260.46,-957.48"/>
<polygon fill="snow" stroke="transparent" points="2142,-903.43 2142,-918.43 2226,-918.43 2226,-903.43 2142,-903.43"/>
<text text-anchor="start" x="2172.5" y="-907.23" font-family="arial" font-size="14.00" fill="#a0cae3">477</text>
<polygon fill="snow" stroke="transparent" points="2142,-888.43 2142,-903.43 2226,-903.43 2226,-888.43 2142,-888.43"/>
<text text-anchor="start" x="2142" y="-892.23" font-family="arial" font-size="14.00" fill="#fc9548">03d 22h 31m </text>
</g>
<!-- A6&#45;&gt;A6 -->
<g id="edge52" class="edge">
<title>A6&#45;&gt;A6</title>
<path fill="none" stroke="black" stroke-width="1.05" d="M2198.04,-854.48C2208.35,-853.61 2216,-849.93 2216,-843.43 2216,-839.26 2212.86,-836.25 2207.89,-834.4"/>
<polygon fill="black" stroke="black" stroke-width="1.05" points="2208.54,-830.96 2198.04,-832.37 2207.13,-837.81 2208.54,-830.96"/>
<polygon fill="snow" stroke="transparent" points="2216.5,-843.43 2216.5,-858.43 2299.5,-858.43 2299.5,-843.43 2216.5,-843.43"/>
<text text-anchor="start" x="2246.5" y="-847.23" font-family="arial" font-size="14.00" fill="#a3cbe3">221</text>
<polygon fill="snow" stroke="transparent" points="2216.5,-828.43 2216.5,-843.43 2299.5,-843.43 2299.5,-828.43 2216.5,-828.43"/>
<text text-anchor="start" x="2216.5" y="-832.23" font-family="arial" font-size="14.00" fill="#fdb171">08h 14m 40s </text>
</g>
<!-- A6&#45;&gt;A8 -->
<g id="edge54" class="edge">
<title>A6&#45;&gt;A8</title>
<path fill="none" stroke="black" stroke-width="1.03" d="M2129.64,-816.23C2125.68,-810.73 2122.19,-804.69 2120,-798.43 2115.6,-785.84 2115.6,-781.01 2120,-768.43 2121.09,-765.29 2122.52,-762.22 2124.16,-759.24"/>
<polygon fill="black" stroke="black" stroke-width="1.03" points="2127.22,-760.94 2129.64,-750.62 2121.32,-757.18 2127.22,-760.94"/>
<polygon fill="snow" stroke="transparent" points="2120.5,-783.43 2120.5,-798.43 2161.5,-798.43 2161.5,-783.43 2120.5,-783.43"/>
<text text-anchor="start" x="2129.5" y="-787.23" font-family="arial" font-size="14.00" fill="#a3cbe3">155</text>
<polygon fill="snow" stroke="transparent" points="2120.5,-768.43 2120.5,-783.43 2161.5,-783.43 2161.5,-768.43 2120.5,-768.43"/>
<text text-anchor="start" x="2120.5" y="-772.23" font-family="arial" font-size="14.00" fill="#fdb475">Instant</text>
</g>
<!-- A7&#45;&gt;A0 -->
<g id="edge28" class="edge">
<title>A7&#45;&gt;A0</title>
<path fill="none" stroke="black" stroke-width="1.03" d="M1376.19,-270.77C1381.09,-276.17 1385.64,-282.14 1389,-288.43 1428.9,-363.17 1463,-577.7 1463,-662.43 1463,-844.43 1463,-844.43 1463,-844.43 1463,-932.62 1342.69,-955.82 1260.65,-961.38"/>
<polygon fill="black" stroke="black" stroke-width="1.03" points="1260.37,-957.9 1250.59,-961.99 1260.79,-964.88 1260.37,-957.9"/>
<polygon fill="snow" stroke="transparent" points="1461,-603.43 1461,-618.43 1545,-618.43 1545,-603.43 1461,-603.43"/>
<text text-anchor="start" x="1491.5" y="-607.23" font-family="arial" font-size="14.00" fill="#a3cbe3">140</text>
<polygon fill="snow" stroke="transparent" points="1461,-588.43 1461,-603.43 1545,-603.43 1545,-588.43 1461,-588.43"/>
<text text-anchor="start" x="1461" y="-592.23" font-family="arial" font-size="14.00" fill="#ee6815">09d 03h 51m </text>
</g>
<!-- A7&#45;&gt;A3 -->
<g id="edge66" class="edge">
<title>A7&#45;&gt;A3</title>
<path fill="none" stroke="black" d="M1390.1,-269.95C1398.43,-275.55 1406.78,-281.8 1414,-288.43 1426.38,-299.78 1423.36,-308.61 1437,-318.43 1458.62,-333.99 1486.2,-344.4 1510.22,-351.17"/>
<polygon fill="black" stroke="black" points="1509.35,-354.56 1519.91,-353.76 1511.16,-347.79 1509.35,-354.56"/>
<polygon fill="snow" stroke="transparent" points="1437,-303.43 1437,-318.43 1459,-318.43 1459,-303.43 1437,-303.43"/>
<text text-anchor="start" x="1440" y="-307.23" font-family="arial" font-size="14.00" fill="#a4cce4">22</text>
<polygon fill="snow" stroke="transparent" points="1437,-288.43 1437,-303.43 1459,-303.43 1459,-288.43 1437,-288.43"/>
<text text-anchor="start" x="1437" y="-292.23" font-family="arial" font-size="14.00" fill="#fdb475">07s</text>
</g>
<!-- A7&#45;&gt;A7 -->
<g id="edge48" class="edge">
<title>A7&#45;&gt;A7</title>
<path fill="none" stroke="black" stroke-width="1.08" d="M1390.02,-254.43C1400.39,-253.48 1408,-249.81 1408,-243.43 1408,-239.33 1404.88,-236.36 1399.9,-234.5"/>
<polygon fill="black" stroke="black" stroke-width="1.08" points="1400.53,-231.05 1390.02,-232.42 1399.09,-237.9 1400.53,-231.05"/>
<polygon fill="snow" stroke="transparent" points="1408,-243.43 1408,-258.43 1492,-258.43 1492,-243.43 1408,-243.43"/>
<text text-anchor="start" x="1438.5" y="-247.23" font-family="arial" font-size="14.00" fill="#a1cbe3">367</text>
<polygon fill="snow" stroke="transparent" points="1408,-228.43 1408,-243.43 1492,-243.43 1492,-228.43 1408,-228.43"/>
<text text-anchor="start" x="1408" y="-232.23" font-family="arial" font-size="14.00" fill="#f77b29">06d 20h 21m </text>
</g>
<!-- A8&#45;&gt;complete -->
<g id="edge11" class="edge">
<title>A8&#45;&gt;complete</title>
<path fill="none" stroke="#bfbfbf" stroke-dasharray="5,2" d="M2131.54,-696.4C2113.63,-673.79 2092,-639.26 2092,-604.43 2092,-604.43 2092,-604.43 2092,-122.43 2092,-72.01 2044.7,-76.76 1997,-60.43 1912.83,-31.6 1631.52,-24.14 1551.44,-22.57"/>
<polygon fill="white" stroke="transparent" points="2092,-354.43 2092,-372.43 2102,-372.43 2102,-354.43 2092,-354.43"/>
<text text-anchor="start" x="2092" y="-359.63" font-family="arial" font-size="16.00" fill="#a4cce4">6</text>
</g>
<!-- A8&#45;&gt;A0 -->
<g id="edge35" class="edge">
<title>A8&#45;&gt;A0</title>
<path fill="none" stroke="black" stroke-width="1.07" d="M2110.9,-750.28C2083.42,-767.38 2048.07,-791.23 2020,-816.43 1975.66,-856.22 1986.34,-891.88 1933,-918.43 1873.92,-947.82 1438.07,-958.27 1260.73,-961.33"/>
<polygon fill="black" stroke="black" stroke-width="1.07" points="1260.64,-957.84 1250.7,-961.5 1260.76,-964.83 1260.64,-957.84"/>
<polygon fill="snow" stroke="transparent" points="2020.5,-843.43 2020.5,-858.43 2103.5,-858.43 2103.5,-843.43 2020.5,-843.43"/>
<text text-anchor="start" x="2050.5" y="-847.23" font-family="arial" font-size="14.00" fill="#a1cbe3">303</text>
<polygon fill="snow" stroke="transparent" points="2020.5,-828.43 2020.5,-843.43 2103.5,-843.43 2103.5,-828.43 2020.5,-828.43"/>
<text text-anchor="start" x="2020.5" y="-832.23" font-family="arial" font-size="14.00" fill="#fdae6c">19h 01m 51s </text>
</g>
<!-- A8&#45;&gt;A6 -->
<g id="edge50" class="edge">
<title>A8&#45;&gt;A6</title>
<path fill="none" stroke="black" stroke-width="1.06" d="M2162,-750.79C2163.25,-756.56 2164.35,-762.67 2165,-768.43 2166.49,-781.68 2166.49,-785.18 2165,-798.43 2164.72,-800.95 2164.35,-803.53 2163.91,-806.13"/>
<polygon fill="black" stroke="black" stroke-width="1.06" points="2160.45,-805.58 2162,-816.07 2167.33,-806.91 2160.45,-805.58"/>
<polygon fill="snow" stroke="transparent" points="2166,-783.43 2166,-798.43 2250,-798.43 2250,-783.43 2166,-783.43"/>
<text text-anchor="start" x="2196.5" y="-787.23" font-family="arial" font-size="14.00" fill="#a3cbe3">262</text>
<polygon fill="snow" stroke="transparent" points="2166,-768.43 2166,-783.43 2250,-783.43 2250,-768.43 2166,-768.43"/>
<text text-anchor="start" x="2166" y="-772.23" font-family="arial" font-size="14.00" fill="#fda55f">01d 18h 07m </text>
</g>
<!-- A8&#45;&gt;A8 -->
<g id="edge61" class="edge">
<title>A8&#45;&gt;A8</title>
<path fill="none" stroke="black" stroke-width="1.01" d="M2199.02,-734.45C2209.37,-733.55 2217,-729.87 2217,-723.43 2217,-719.3 2213.87,-716.3 2208.9,-714.45"/>
<polygon fill="black" stroke="black" stroke-width="1.01" points="2209.53,-711.01 2199.02,-712.4 2208.1,-717.86 2209.53,-711.01"/>
<polygon fill="snow" stroke="transparent" points="2217.5,-723.43 2217.5,-738.43 2300.5,-738.43 2300.5,-723.43 2217.5,-723.43"/>
<text text-anchor="start" x="2251" y="-727.23" font-family="arial" font-size="14.00" fill="#a4cce4">38</text>
<polygon fill="snow" stroke="transparent" points="2217.5,-708.43 2217.5,-723.43 2300.5,-723.43 2300.5,-708.43 2217.5,-708.43"/>
<text text-anchor="start" x="2217.5" y="-712.23" font-family="arial" font-size="14.00" fill="#fdae6c">19h 17m 13s </text>
</g>
<!-- A9&#45;&gt;complete -->
<g id="edge13" class="edge">
<title>A9&#45;&gt;complete</title>
<path fill="none" stroke="#bfbfbf" stroke-dasharray="5,2" d="M327.06,-216.11C359.25,-174.12 428.86,-93.34 510,-60.43 605.55,-21.66 1370.5,-21.8 1508.65,-22.14"/>
<polygon fill="white" stroke="transparent" points="445,-114.43 445,-132.43 455,-132.43 455,-114.43 445,-114.43"/>
<text text-anchor="start" x="445" y="-119.63" font-family="arial" font-size="16.00" fill="#a4cce4">1</text>
</g>
<!-- A9&#45;&gt;A0 -->
<g id="edge24" class="edge">
<title>A9&#45;&gt;A0</title>
<path fill="none" stroke="black" stroke-width="1.02" d="M262.97,-252.24C207.35,-264.78 120,-295.18 120,-362.43 120,-844.43 120,-844.43 120,-844.43 120,-899 166.66,-899.91 218,-918.43 301.06,-948.38 898.88,-958.8 1111.32,-961.57"/>
<polygon fill="black" stroke="black" stroke-width="1.02" points="1111.4,-965.08 1121.45,-961.7 1111.49,-958.08 1111.4,-965.08"/>
<polygon fill="snow" stroke="transparent" points="120,-603.43 120,-618.43 204,-618.43 204,-603.43 120,-603.43"/>
<text text-anchor="start" x="154" y="-607.23" font-family="arial" font-size="14.00" fill="#a4cce4">76</text>
<polygon fill="snow" stroke="transparent" points="120,-588.43 120,-603.43 204,-603.43 204,-588.43 120,-588.43"/>
<text text-anchor="start" x="120" y="-592.23" font-family="arial" font-size="14.00" fill="#fc974a">03d 14h 57m </text>
</g>
<!-- A9&#45;&gt;A1 -->
<g id="edge62" class="edge">
<title>A9&#45;&gt;A1</title>
<path fill="none" stroke="black" stroke-width="1.01" d="M320.44,-270.59C322.87,-276.37 325.21,-282.54 327,-288.43 356.18,-384.42 334.37,-415.9 368,-510.43 396.54,-590.63 401.44,-616.63 460,-678.43 464.94,-683.64 470.62,-688.48 476.58,-692.9"/>
<polygon fill="black" stroke="black" stroke-width="1.01" points="474.62,-695.8 484.82,-698.66 478.63,-690.06 474.62,-695.8"/>
<polygon fill="snow" stroke="transparent" points="368,-483.43 368,-498.43 452,-498.43 452,-483.43 368,-483.43"/>
<text text-anchor="start" x="402" y="-487.23" font-family="arial" font-size="14.00" fill="#a4cce4">37</text>
<polygon fill="snow" stroke="transparent" points="368,-468.43 368,-483.43 452,-483.43 452,-468.43 368,-468.43"/>
<text text-anchor="start" x="368" y="-472.23" font-family="arial" font-size="14.00" fill="#d74c05">12d 18h 05m </text>
</g>
<!-- A9&#45;&gt;A12 -->
<g id="edge67" class="edge">
<title>A9&#45;&gt;A12</title>
<path fill="none" stroke="black" d="M262.79,-250.59C239.59,-256.29 213.27,-267.28 199,-288.43 191.62,-299.36 190.64,-313.41 192.11,-326.33"/>
<polygon fill="black" stroke="black" points="188.68,-327.05 193.74,-336.36 195.59,-325.93 188.68,-327.05"/>
<polygon fill="snow" stroke="transparent" points="199.5,-303.43 199.5,-318.43 282.5,-318.43 282.5,-303.43 199.5,-303.43"/>
<text text-anchor="start" x="233" y="-307.23" font-family="arial" font-size="14.00" fill="#a4cce4">19</text>
<polygon fill="snow" stroke="transparent" points="199.5,-288.43 199.5,-303.43 282.5,-303.43 282.5,-288.43 199.5,-288.43"/>
<text text-anchor="start" x="199.5" y="-292.23" font-family="arial" font-size="14.00" fill="#fdb171">08h 55m 20s </text>
</g>
<!-- A10&#45;&gt;A0 -->
<g id="edge18" class="edge">
<title>A10&#45;&gt;A0</title>
<path fill="none" stroke="black" d="M483.04,-870.51C504.38,-887.39 534.55,-908.09 565,-918.43 664.1,-952.07 968.62,-959.99 1111.08,-961.86"/>
<polygon fill="black" stroke="black" points="1111.42,-965.36 1121.46,-961.98 1111.5,-958.36 1111.42,-965.36"/>
<polygon fill="snow" stroke="transparent" points="565,-903.43 565,-918.43 649,-918.43 649,-903.43 565,-903.43"/>
<text text-anchor="start" x="599" y="-907.23" font-family="arial" font-size="14.00" fill="#a4cce4">13</text>
<polygon fill="snow" stroke="transparent" points="565,-888.43 565,-903.43 649,-903.43 649,-888.43 565,-888.43"/>
<text text-anchor="start" x="565" y="-892.23" font-family="arial" font-size="14.00" fill="#fc9245">04d 02h 45m </text>
</g>
<!-- A10&#45;&gt;A10 -->
<g id="edge79" class="edge">
<title>A10&#45;&gt;A10</title>
<path fill="none" stroke="black" d="M488.17,-854.63C498.24,-854.19 506,-850.46 506,-843.43 506,-839.03 502.97,-835.92 498.23,-834.11"/>
<polygon fill="black" stroke="black" points="498.64,-830.62 488.17,-832.22 497.35,-837.5 498.64,-830.62"/>
<polygon fill="snow" stroke="transparent" points="506,-843.43 506,-858.43 590,-858.43 590,-843.43 506,-843.43"/>
<text text-anchor="start" x="544" y="-847.23" font-family="arial" font-size="14.00" fill="#a4cce4">6</text>
<polygon fill="snow" stroke="transparent" points="506,-828.43 506,-843.43 590,-843.43 590,-828.43 506,-828.43"/>
<text text-anchor="start" x="506" y="-832.23" font-family="arial" font-size="14.00" fill="#fa8534">05d 17h 31m </text>
</g>
<!-- A11&#45;&gt;A0 -->
<g id="edge63" class="edge">
<title>A11&#45;&gt;A0</title>
<path fill="none" stroke="black" stroke-width="1.01" d="M949.85,-630.52C968.89,-647.03 990.65,-670.19 1001,-696.43 1009.81,-718.75 1013.25,-729.79 1001,-750.43 992.47,-764.79 976.53,-754.06 968,-768.43 961.19,-779.89 962.49,-786.28 968,-798.43 996.28,-860.78 1062.14,-905.01 1114.12,-931.7"/>
<polygon fill="black" stroke="black" stroke-width="1.01" points="1112.81,-934.96 1123.32,-936.32 1115.95,-928.71 1112.81,-934.96"/>
<polygon fill="snow" stroke="transparent" points="968,-783.43 968,-798.43 1052,-798.43 1052,-783.43 968,-783.43"/>
<text text-anchor="start" x="1002" y="-787.23" font-family="arial" font-size="14.00" fill="#a4cce4">37</text>
<polygon fill="snow" stroke="transparent" points="968,-768.43 968,-783.43 1052,-783.43 1052,-768.43 968,-768.43"/>
<text text-anchor="start" x="968" y="-772.23" font-family="arial" font-size="14.00" fill="#fdab67">01d 02h 54m </text>
</g>
<!-- A11&#45;&gt;A2 -->
<g id="edge25" class="edge">
<title>A11&#45;&gt;A2</title>
<path fill="none" stroke="black" stroke-width="1.02" d="M930.05,-576.14C936.53,-561.04 940.67,-542.35 931,-528.43 916.71,-507.84 891.56,-496.87 868.14,-491.03"/>
<polygon fill="black" stroke="black" stroke-width="1.02" points="868.76,-487.58 858.24,-488.83 867.24,-494.41 868.76,-487.58"/>
<polygon fill="snow" stroke="transparent" points="936.5,-543.43 936.5,-558.43 1019.5,-558.43 1019.5,-543.43 936.5,-543.43"/>
<text text-anchor="start" x="970" y="-547.23" font-family="arial" font-size="14.00" fill="#a4cce4">77</text>
<polygon fill="snow" stroke="transparent" points="936.5,-528.43 936.5,-543.43 1019.5,-543.43 1019.5,-528.43 936.5,-528.43"/>
<text text-anchor="start" x="936.5" y="-532.23" font-family="arial" font-size="14.00" fill="#fdb272">04h 53m 39s </text>
</g>
<!-- A11&#45;&gt;A11 -->
<g id="edge65" class="edge">
<title>A11&#45;&gt;A11</title>
<path fill="none" stroke="black" d="M959.66,-614.43C969.95,-613.48 977.5,-609.81 977.5,-603.43 977.5,-599.33 974.4,-596.36 969.47,-594.5"/>
<polygon fill="black" stroke="black" points="970.17,-591.07 959.66,-592.42 968.72,-597.92 970.17,-591.07"/>
<polygon fill="snow" stroke="transparent" points="978,-603.43 978,-618.43 1031,-618.43 1031,-603.43 978,-603.43"/>
<text text-anchor="start" x="996.5" y="-607.23" font-family="arial" font-size="14.00" fill="#a4cce4">22</text>
<polygon fill="snow" stroke="transparent" points="978,-588.43 978,-603.43 1031,-603.43 1031,-588.43 978,-588.43"/>
<text text-anchor="start" x="978" y="-592.23" font-family="arial" font-size="14.00" fill="#fdb475">42m 41s</text>
</g>
<!-- A12&#45;&gt;complete -->
<g id="edge14" class="edge">
<title>A12&#45;&gt;complete</title>
<path fill="none" stroke="#bfbfbf" stroke-dasharray="5,2" d="M190.1,-336.09C185.27,-321.66 182.07,-303.66 188,-288.43 246.81,-137.25 314.23,-93.67 473,-60.43 681.04,-16.86 1377.18,-20.84 1508.53,-22"/>
<polygon fill="white" stroke="transparent" points="253,-174.43 253,-192.43 263,-192.43 263,-174.43 253,-174.43"/>
<text text-anchor="start" x="253" y="-179.63" font-family="arial" font-size="16.00" fill="#a4cce4">1</text>
</g>
<!-- A12&#45;&gt;A0 -->
<g id="edge60" class="edge">
<title>A12&#45;&gt;A0</title>
<path fill="none" stroke="black" stroke-width="1.01" d="M227.71,-390.57C246.96,-413 270,-447.2 270,-482.43 270,-844.43 270,-844.43 270,-844.43 270,-888.79 296.92,-899.39 337,-918.43 405.89,-951.14 916.91,-959.71 1111.27,-961.8"/>
<polygon fill="black" stroke="black" stroke-width="1.01" points="1111.36,-965.3 1121.39,-961.91 1111.43,-958.3 1111.36,-965.3"/>
<polygon fill="snow" stroke="transparent" points="270,-663.43 270,-678.43 292,-678.43 292,-663.43 270,-663.43"/>
<text text-anchor="start" x="273" y="-667.23" font-family="arial" font-size="14.00" fill="#a4cce4">40</text>
<polygon fill="snow" stroke="transparent" points="270,-648.43 270,-663.43 292,-663.43 292,-648.43 270,-648.43"/>
<text text-anchor="start" x="270" y="-652.23" font-family="arial" font-size="14.00" fill="#fdb475">03s</text>
</g>
<!-- A12&#45;&gt;A1 -->
<g id="edge75" class="edge">
<title>A12&#45;&gt;A1</title>
<path fill="none" stroke="black" d="M246.75,-379.73C260.58,-386.51 274.62,-395.87 284,-408.43 357.33,-506.62 254.3,-590.82 340,-678.43 358.53,-697.37 425.23,-709.55 474.61,-716.19"/>
<polygon fill="black" stroke="black" points="474.18,-719.66 484.55,-717.48 475.09,-712.72 474.18,-719.66"/>
<polygon fill="snow" stroke="transparent" points="310,-543.43 310,-558.43 332,-558.43 332,-543.43 310,-543.43"/>
<text text-anchor="start" x="317" y="-547.23" font-family="arial" font-size="14.00" fill="#a4cce4">8</text>
<polygon fill="snow" stroke="transparent" points="310,-528.43 310,-543.43 332,-543.43 332,-528.43 310,-528.43"/>
<text text-anchor="start" x="310" y="-532.23" font-family="arial" font-size="14.00" fill="#fdb475">11s</text>
</g>
<!-- A12&#45;&gt;A9 -->
<g id="edge23" class="edge">
<title>A12&#45;&gt;A9</title>
<path fill="none" stroke="black" stroke-width="1.02" d="M246.78,-347.07C261.03,-340.25 275.75,-330.88 286,-318.43 294.8,-307.73 300.09,-293.61 303.25,-280.57"/>
<polygon fill="black" stroke="black" stroke-width="1.02" points="306.75,-280.93 305.37,-270.43 299.9,-279.5 306.75,-280.93"/>
<polygon fill="snow" stroke="transparent" points="301,-303.43 301,-318.43 323,-318.43 323,-303.43 301,-303.43"/>
<text text-anchor="start" x="304" y="-307.23" font-family="arial" font-size="14.00" fill="#a4cce4">73</text>
<polygon fill="snow" stroke="transparent" points="301,-288.43 301,-303.43 323,-303.43 323,-288.43 301,-288.43"/>
<text text-anchor="start" x="301" y="-292.23" font-family="arial" font-size="14.00" fill="#fdb475">09s</text>
</g>
<!-- A12&#45;&gt;A12 -->
<g id="edge70" class="edge">
<title>A12&#45;&gt;A12</title>
<path fill="none" stroke="black" d="M246.66,-374.43C256.95,-373.48 264.5,-369.81 264.5,-363.43 264.5,-359.33 261.4,-356.36 256.47,-354.5"/>
<polygon fill="black" stroke="black" points="257.17,-351.07 246.66,-352.42 255.72,-357.92 257.17,-351.07"/>
<polygon fill="snow" stroke="transparent" points="265,-363.43 265,-378.43 318,-378.43 318,-363.43 265,-363.43"/>
<text text-anchor="start" x="283.5" y="-367.23" font-family="arial" font-size="14.00" fill="#a4cce4">12</text>
<polygon fill="snow" stroke="transparent" points="265,-348.43 265,-363.43 318,-363.43 318,-348.43 265,-348.43"/>
<text text-anchor="start" x="265" y="-352.23" font-family="arial" font-size="14.00" fill="#fdb475">44m 53s</text>
</g>
<!-- A13&#45;&gt;A0 -->
<g id="edge21" class="edge">
<title>A13&#45;&gt;A0</title>
<path fill="none" stroke="black" stroke-width="1.01" d="M1200.86,-270.69C1233.92,-300.2 1283.58,-351.5 1304,-408.43 1331.08,-483.94 1261.99,-499.88 1238,-576.43 1226.42,-613.38 1224,-623.7 1224,-662.43 1224,-844.43 1224,-844.43 1224,-844.43 1224,-873.05 1213.74,-903.78 1203.89,-926.71"/>
<polygon fill="black" stroke="black" stroke-width="1.01" points="1200.61,-925.47 1199.72,-936.02 1207,-928.32 1200.61,-925.47"/>
<polygon fill="snow" stroke="transparent" points="1238.5,-603.43 1238.5,-618.43 1321.5,-618.43 1321.5,-603.43 1238.5,-603.43"/>
<text text-anchor="start" x="1272" y="-607.23" font-family="arial" font-size="14.00" fill="#a4cce4">39</text>
<polygon fill="snow" stroke="transparent" points="1238.5,-588.43 1238.5,-603.43 1321.5,-603.43 1321.5,-588.43 1238.5,-588.43"/>
<text text-anchor="start" x="1238.5" y="-592.23" font-family="arial" font-size="14.00" fill="#fdb374">04h 10m 02s </text>
</g>
<!-- A14&#45;&gt;A1 -->
<g id="edge17" class="edge">
<title>A14&#45;&gt;A1</title>
<path fill="none" stroke="black" d="M622.81,-816.24C605.55,-798.98 582.79,-776.22 564.25,-757.68"/>
<polygon fill="black" stroke="black" points="566.66,-755.14 557.11,-750.54 561.71,-760.09 566.66,-755.14"/>
<polygon fill="snow" stroke="transparent" points="604.5,-783.43 604.5,-798.43 645.5,-798.43 645.5,-783.43 604.5,-783.43"/>
<text text-anchor="start" x="621" y="-787.23" font-family="arial" font-size="14.00" fill="#a4cce4">1</text>
<polygon fill="snow" stroke="transparent" points="604.5,-768.43 604.5,-783.43 645.5,-783.43 645.5,-768.43 604.5,-768.43"/>
<text text-anchor="start" x="604.5" y="-772.23" font-family="arial" font-size="14.00" fill="#fdb475">Instant</text>
</g>
<!-- A15&#45;&gt;complete -->
<g id="edge15" class="edge">
<title>A15&#45;&gt;complete</title>
<path fill="none" stroke="#bfbfbf" stroke-dasharray="5,2" d="M1706.48,-216.34C1704.14,-201.48 1699.64,-182.98 1691,-168.43 1653.78,-105.78 1581.17,-54.49 1547.69,-33.04"/>
<polygon fill="white" stroke="transparent" points="1678,-114.43 1678,-132.43 1688,-132.43 1688,-114.43 1678,-114.43"/>
<text text-anchor="start" x="1678" y="-119.63" font-family="arial" font-size="16.00" fill="#a4cce4">1</text>
</g>
<!-- A15&#45;&gt;A0 -->
<g id="edge31" class="edge">
<title>A15&#45;&gt;A0</title>
<path fill="none" stroke="black" stroke-width="1.05" d="M1735.09,-270.51C1754.63,-292.89 1778,-327.07 1778,-362.43 1778,-544.43 1778,-544.43 1778,-544.43 1778,-639.1 1660.63,-880.24 1574,-918.43 1519.56,-942.43 1357.35,-954.2 1260.76,-959.23"/>
<polygon fill="black" stroke="black" stroke-width="1.05" points="1260.57,-955.74 1250.76,-959.74 1260.92,-962.73 1260.57,-955.74"/>
<polygon fill="snow" stroke="transparent" points="1774.5,-603.43 1774.5,-618.43 1857.5,-618.43 1857.5,-603.43 1774.5,-603.43"/>
<text text-anchor="start" x="1804.5" y="-607.23" font-family="arial" font-size="14.00" fill="#a3cbe3">201</text>
<polygon fill="snow" stroke="transparent" points="1774.5,-588.43 1774.5,-603.43 1857.5,-603.43 1857.5,-588.43 1774.5,-588.43"/>
<text text-anchor="start" x="1774.5" y="-592.23" font-family="arial" font-size="14.00" fill="#fdb272">05h 08m 08s </text>
</g>
<!-- A15&#45;&gt;A3 -->
<g id="edge58" class="edge">
<title>A15&#45;&gt;A3</title>
<path fill="none" stroke="black" stroke-width="1.01" d="M1664.32,-266.4C1654.01,-272.67 1643.57,-280.09 1635,-288.43 1623.68,-299.43 1626.31,-306.48 1616,-318.43 1612.83,-322.11 1609.34,-325.75 1605.72,-329.28"/>
<polygon fill="black" stroke="black" stroke-width="1.01" points="1603.1,-326.93 1598.18,-336.31 1607.88,-332.05 1603.1,-326.93"/>
<polygon fill="snow" stroke="transparent" points="1635.5,-303.43 1635.5,-318.43 1676.5,-318.43 1676.5,-303.43 1635.5,-303.43"/>
<text text-anchor="start" x="1648" y="-307.23" font-family="arial" font-size="14.00" fill="#a4cce4">65</text>
<polygon fill="snow" stroke="transparent" points="1635.5,-288.43 1635.5,-303.43 1676.5,-303.43 1676.5,-288.43 1635.5,-288.43"/>
<text text-anchor="start" x="1635.5" y="-292.23" font-family="arial" font-size="14.00" fill="#fdb475">Instant</text>
</g>
<!-- A15&#45;&gt;A4 -->
<g id="edge83" class="edge">
<title>A15&#45;&gt;A4</title>
<path fill="none" stroke="black" d="M1672.55,-216.38C1664.96,-210.65 1657.1,-204.47 1650,-198.43 1635.4,-186 1636.51,-176.25 1619,-168.43 1569.31,-146.23 1211.91,-131.63 1064.41,-126.49"/>
<polygon fill="black" stroke="black" points="1064.28,-122.98 1054.16,-126.13 1064.03,-129.98 1064.28,-122.98"/>
<polygon fill="snow" stroke="transparent" points="1650.5,-183.43 1650.5,-198.43 1691.5,-198.43 1691.5,-183.43 1650.5,-183.43"/>
<text text-anchor="start" x="1667" y="-187.23" font-family="arial" font-size="14.00" fill="#a4cce4">5</text>
<polygon fill="snow" stroke="transparent" points="1650.5,-168.43 1650.5,-183.43 1691.5,-183.43 1691.5,-168.43 1650.5,-168.43"/>
<text text-anchor="start" x="1650.5" y="-172.23" font-family="arial" font-size="14.00" fill="#fdb475">Instant</text>
</g>
<!-- A15&#45;&gt;A15 -->
<g id="edge80" class="edge">
<title>A15&#45;&gt;A15</title>
<path fill="none" stroke="black" d="M1753.66,-254.43C1763.95,-253.48 1771.5,-249.81 1771.5,-243.43 1771.5,-239.33 1768.4,-236.36 1763.47,-234.5"/>
<polygon fill="black" stroke="black" points="1764.17,-231.07 1753.66,-232.42 1762.72,-237.92 1764.17,-231.07"/>
<polygon fill="snow" stroke="transparent" points="1771.5,-243.43 1771.5,-258.43 1793.5,-258.43 1793.5,-243.43 1771.5,-243.43"/>
<text text-anchor="start" x="1778.5" y="-247.23" font-family="arial" font-size="14.00" fill="#a4cce4">5</text>
<polygon fill="snow" stroke="transparent" points="1771.5,-228.43 1771.5,-243.43 1793.5,-243.43 1793.5,-228.43 1771.5,-228.43"/>
<text text-anchor="start" x="1771.5" y="-232.23" font-family="arial" font-size="14.00" fill="#fdb475">01s</text>
</g>
</g>
</svg>
