<?xml version="1.0" encoding="UTF-8" standalone="no"?>
<!-- Created with Inkscape (http://www.inkscape.org/) -->

<svg
   version="1.1"
   id="svg228"
   width="668"
   height="668"
   viewBox="0 0 668 668"
   sodipodi:docname="logo-white.svg"
   inkscape:version="1.2.2 (b0a8486541, 2022-12-01)"
   xmlns:inkscape="http://www.inkscape.org/namespaces/inkscape"
   xmlns:sodipodi="http://sodipodi.sourceforge.net/DTD/sodipodi-0.dtd"
   xmlns="http://www.w3.org/2000/svg"
   xmlns:svg="http://www.w3.org/2000/svg">
  <defs
     id="defs232" />
  <sodipodi:namedview
     id="namedview230"
     pagecolor="#ffffff"
     bordercolor="#000000"
     borderopacity="0.25"
     inkscape:showpageshadow="2"
     inkscape:pageopacity="0.0"
     inkscape:pagecheckerboard="0"
     inkscape:deskcolor="#d1d1d1"
     showgrid="false"
     inkscape:zoom="0.044777626"
     inkscape:cx="7481.4149"
     inkscape:cy="4946.6669"
     inkscape:window-width="2560"
     inkscape:window-height="1383"
     inkscape:window-x="0"
     inkscape:window-y="33"
     inkscape:window-maximized="1"
     inkscape:current-layer="g234" />
  <g
     inkscape:groupmode="layer"
     inkscape:label="Image"
     id="g234"
     transform="translate(-236.5,-180.07108)">
    <path
       id="path292"
       style="fill:#ffffff;fill-opacity:1;stroke-width:0.913764"
       d="m 708.85938,244.3125 c -83.54411,0.21148 -167.08785,0.5533 -250.63122,0.95776 -13.81564,0.0934 -27.63284,0.13042 -41.44707,0.31972 -4.93362,0.22828 -9.87191,0.33962 -14.81039,0.39635 0,155.01823 0,310.03646 0,465.05469 96.62725,-0.0907 193.25492,-0.0594 289.88159,-0.45063 25.56747,-0.10982 51.13498,-0.2711 76.70015,-0.64384 6.47275,-0.0844 12.94551,-0.16879 19.41826,-0.25319 2.6601,-1.23313 5.36063,-2.43683 7.76563,-4.13477 0.22984,-0.16765 0.80385,-0.59989 1.17028,-0.88947 5.39561,-4.09881 10.33208,-9.13857 13.09925,-15.40935 1.32543,-3.51504 1.47632,-7.32188 1.79352,-11.02627 0.5499,-8.22812 0.6209,-16.40672 0.78755,-24.66485 0.48004,-30.73879 0.74684,-61.48045 1.00992,-92.22173 0.5714,-71.90976 0.83908,-143.82201 0.79948,-215.73403 -0.0337,-17.0438 -0.0169,-34.08993 -0.39047,-51.13047 -0.12086,-2.80954 -0.12302,-5.77986 -0.43519,-8.63622 -0.26713,-2.57651 -1.32077,-4.97971 -2.22324,-7.38312 -1.97485,-4.90088 -4.38887,-9.66412 -7.65842,-13.83821 -6.43926,-8.37463 -15.3176,-14.90536 -25.30398,-18.38455 -2.58515,-0.93923 -5.3196,-1.34152 -8.05839,-1.45207 -7.44329,-0.33943 -14.89786,-0.33611 -22.34733,-0.42577 -13.03975,-0.0879 -26.07999,-0.0433 -39.11993,-0.05 z m -338.3379,3.01172 c -5.78775,1.02304 -11.19892,3.52771 -16.27567,6.41429 -7.69028,4.45504 -14.37697,10.67393 -19.27807,18.09477 -2.8085,4.23594 -4.86373,8.91728 -6.48957,13.71955 -0.64882,1.83361 -1.34766,3.66552 -1.89223,5.52569 0.008,126.31119 -0.0311,252.62241 0.0542,378.93358 0.046,26.53309 0.0486,53.06737 0.38892,79.59868 0.097,5.58103 0.16197,11.06013 0.57592,16.62935 0.46431,4.30441 2.11443,8.37629 3.92545,12.27148 2.55388,5.23955 6.05246,10.01018 10.24304,14.0587 0.53668,0.51902 1.3151,1.23534 1.96875,1.80469 7.18044,6.23235 16.05339,10.37059 25.32226,12.36133 1.06175,0.22264 2.37804,0.47825 3.55078,0.65627 0.75039,0.1158 1.53304,0.22588 2.1543,0.30076 2.6799,0.31883 5.29042,0.45273 7.94513,0.58669 3.28684,0.14871 6.52084,0.21056 9.84469,0.18623 0.46743,-0.11603 1.50424,0.33224 1.23753,-0.5112 0,-1.43425 -10e-6,-2.86849 0,-4.30274 -9.79487,-0.42821 -19.7769,-0.58971 -29.21204,-3.55901 -6.10331,-1.94323 -11.74981,-5.26781 -16.40906,-9.66364 -6.71407,-6.12591 -12.20341,-13.82386 -14.78895,-22.60564 -2.81128,-9.27019 -2.21674,-19.52504 1.70023,-28.39017 4.1504,-9.63491 11.82316,-17.50708 20.89427,-22.65207 4.58585,-2.64019 9.53821,-4.58348 14.59094,-6.12361 0.10156,-154.46289 0.20312,-308.92578 0.30468,-463.38867 -0.11849,0.0182 -0.23698,0.0365 -0.35547,0.0547 z m 221.41016,62.66016 c 9.8826,0.1688 19.78161,0.21576 29.63585,1.051 9.89113,1.01201 19.58338,3.43653 29.06585,6.36479 19.86068,6.29061 38.50506,16.23826 55.04343,28.87888 6.22111,4.74097 11.83967,10.18513 17.427,15.64088 4.99156,5.01398 9.91354,10.1235 14.30711,15.67708 7.89748,10.12122 14.15941,21.4147 19.60379,33.01059 6.34484,13.6681 11.3539,27.99159 14.47995,42.74313 1.11292,5.37545 1.67021,10.85583 1.72754,16.34368 0.23169,8.75756 0.15316,17.52064 0.0325,26.27928 -0.14959,7.02381 -0.73372,14.07275 -2.40252,20.91367 -5.4526,25.17384 -16.30607,49.26768 -32.21238,69.57761 -13.43495,17.33363 -29.64183,32.63669 -48.28544,44.25554 -12.87312,8.07857 -26.86118,14.344 -41.41014,18.72432 -11.04076,3.32171 -22.39141,5.6433 -33.86045,6.83562 -11.05073,0.93538 -22.1652,0.98457 -33.24032,0.50138 -8.87274,-0.5051 -17.62987,-2.21196 -26.24572,-4.3265 -11.38744,-2.86618 -22.5296,-6.85201 -32.95769,-12.27416 -6.89204,-3.65069 -13.57358,-7.68966 -20.12698,-11.91418 -13.16678,-8.59757 -25.41061,-18.72246 -35.73392,-30.61783 -6.12636,-6.92629 -11.64201,-14.39275 -16.39043,-22.32942 -4.44736,-7.29729 -8.6104,-14.7805 -12.23629,-22.52169 -6.91015,-15.17411 -11.29603,-31.4574 -13.35053,-47.99004 -3.50083,-28.40364 0.1764,-57.6354 10.47478,-84.32856 5.09001,-13.2082 11.71365,-25.85213 19.92252,-37.3925 9.50575,-13.18881 21.25691,-24.6014 33.7611,-34.92547 13.5691,-11.0861 28.69826,-20.39306 45.10954,-26.62697 8.76969,-3.37753 17.86699,-5.82287 27.04874,-7.78496 8.6471,-1.98633 17.43087,-3.7144 26.33858,-3.73505 1.49129,-0.0305 2.98302,-0.0237 4.47454,-0.0301 z m 0.14844,31.66992 c -8.05684,0.10487 -16.2263,0.42244 -24.18358,2.08496 -4.33641,0.87922 -8.6798,2.08988 -12.78893,3.37621 -7.5444,2.30011 -14.77967,5.48958 -21.82827,9.00562 -0.72675,0.3772 -1.72103,0.88121 -2.55052,1.30711 -5.44992,2.89674 -10.88301,5.87777 -15.91538,9.46556 -5.02896,3.6171 -9.52321,7.90777 -13.95674,12.21651 -5.66353,5.64931 -11.08654,11.5578 -16.02095,17.85826 -1.4687,1.89263 -2.9334,3.91171 -4.20575,5.81826 -7.48236,11.43554 -13.73681,23.71387 -18.15926,36.65852 -0.41175,1.21054 -0.88371,2.66018 -1.29263,3.97072 -3.0321,9.78774 -4.98733,19.9202 -5.64096,30.15038 -0.0259,0.5624 -0.0775,1.44829 -0.11328,2.13476 -0.0405,1.00846 -0.0934,2.28789 -0.1051,3.40132 -0.0689,3.54811 0.0347,7.30443 0.29455,10.68657 0.81014,9.68326 2.54156,19.28177 4.93967,28.69433 4.45561,17.30334 11.74989,33.95218 22.12173,48.53997 2.83147,4.0014 5.8898,7.84374 9.15344,11.50203 0.71298,0.79663 1.61345,1.77593 2.41487,2.62692 12.39052,13.21594 27.61551,23.61216 44.07034,31.10323 6.5811,3.01032 13.46709,5.62529 20.3312,7.68782 7.57474,2.24124 15.47005,4.05658 23.41771,4.73879 1.34186,0.10667 2.51694,0.18508 3.88978,0.21941 6.16587,0.17689 12.39858,0.14585 18.49709,-0.0986 2.54418,-0.10187 5.08753,-0.2278 7.62706,-0.41432 0.84905,-0.0734 1.98783,-0.16 2.94668,-0.25739 5.94313,-0.58815 11.98029,-1.84589 17.85919,-3.27815 6.48972,-1.60964 12.87247,-3.64697 19.10038,-6.07969 0.96835,-0.39511 2.19312,-0.86799 3.24882,-1.32181 4.41569,-1.83864 8.83396,-3.95713 12.98946,-6.18015 3.42357,-1.84117 6.87357,-3.86869 10.23167,-6.04136 11.53935,-7.4689 22.12459,-16.7803 30.67256,-27.66635 3.37163,-4.218 6.54604,-8.63328 9.42854,-13.1323 6.41641,-10.01515 11.58768,-20.81882 15.43872,-32.07014 2.53933,-7.39809 4.56403,-15.17445 5.98078,-22.94186 1.51322,-7.82345 1.2382,-15.83432 1.27603,-23.76164 -0.0249,-3.43194 -0.0407,-7.04213 -0.19431,-10.36095 -0.17602,-4.46735 -0.77031,-8.90907 -1.72907,-13.27482 -0.45099,-2.185 -0.94553,-4.5558 -1.4526,-6.71872 -1.9825,-8.79191 -4.71985,-17.42659 -8.4498,-25.63878 -3.94817,-8.77242 -8.47452,-17.34247 -14.26892,-25.04933 -1.21411,-1.60763 -2.62338,-3.4001 -3.99873,-5.03478 -2.09236,-2.48042 -4.30231,-4.94718 -6.47641,-7.24446 -9.08983,-9.64024 -18.82023,-18.84206 -30.043,-25.9734 -8.4293,-5.36776 -17.61935,-9.44471 -27.07172,-12.64085 -9.83137,-3.37378 -19.95467,-6.05529 -30.31663,-7.1171 -8.34279,-0.90838 -16.73921,-0.99031 -25.16773,-0.95034 z m 4.97265,19.42187 c 4.56957,-0.13878 9.37378,1.96783 11.72704,6.01144 2.66568,4.26794 3.07739,9.44293 3.26938,14.34744 0.15616,5.23147 -0.0161,10.477 -0.51204,15.68604 -0.41082,2.95384 -1.85406,5.76665 -4.14672,7.69706 -3.3848,3.28171 -8.17684,5.45756 -12.95244,4.71048 -4.85577,-0.72333 -9.296,-4.24344 -10.83948,-8.94089 -1.02627,-3.27805 -0.84778,-6.80832 -0.99927,-10.12168 -0.0801,-5.95018 -0.43153,-11.9166 0.0396,-17.85773 0.32618,-2.93397 1.6943,-5.79208 4.03435,-7.6436 2.81883,-2.53223 6.58428,-3.9714 10.3796,-3.88856 z m 77.09375,26.49219 c 6.21074,0.16229 11.91033,5.12439 12.88282,11.26953 0.80282,4.41516 -0.10395,9.08349 -2.40846,12.92486 -7.68024,13.51168 -16.13663,26.56239 -23.98825,39.97397 -4.90592,8.32968 -9.84559,16.81573 -14.39821,25.29258 -3.01798,5.77347 -6.28535,11.54426 -8.2552,17.81721 -2.07421,6.26302 -5.39282,12.24442 -10.34651,16.68607 -6.10068,5.58015 -13.5438,9.33929 -20.66709,13.41117 -10.12765,5.69772 -19.8001,12.15772 -29.39975,18.69936 -14.6689,9.84904 -29.27493,19.79905 -44.23157,29.21012 -3.89207,2.3396 -8.1193,4.41618 -12.69394,4.87748 -4.3893,0.23384 -8.52239,-2.24673 -11.25944,-5.53595 -2.467,-2.948 -3.96136,-6.96072 -3.09488,-10.80596 0.67752,-3.2485 2.23611,-6.22028 3.62074,-9.2088 4.89854,-9.96174 10.82383,-19.36849 16.57919,-28.84626 8.81407,-14.38395 17.54624,-28.82081 26.00534,-43.41727 2.45307,-4.19955 4.8026,-8.45794 7.07356,-12.75711 2.93054,-5.46289 6.40123,-10.78527 11.2436,-14.75073 3.92615,-3.3443 8.45296,-5.86619 13.0023,-8.24878 3.44886,-1.89466 7.01017,-4.02603 10.41893,-6.16666 12.0002,-7.49128 23.38242,-15.90812 35.12207,-23.79006 10.99675,-7.48083 21.99232,-14.96596 33.01441,-22.40953 3.52894,-2.26641 7.4787,-4.28493 11.78034,-4.22524 z m 25.85743,80.42187 c 5.92694,0.0973 12.06727,0.0162 17.65625,2.27539 3.60491,1.55437 6.55018,4.7854 7.32027,8.68879 1.15071,4.63126 0.2327,9.96145 -3.17574,13.45184 -3.1048,3.33459 -7.5754,5.2769 -12.11815,5.40793 -6.84592,0.52144 -13.76369,0.66918 -20.58447,-0.22666 -4.1087,-0.58043 -8.39251,-2.03255 -11.09206,-5.35555 -2.97501,-3.68052 -3.41304,-8.8082 -2.39282,-13.29056 1.09163,-4.36077 4.71453,-7.82534 8.97022,-9.11459 4.93717,-1.7306 10.24882,-1.74761 15.4165,-1.83659 z m -202.99219,0.45313 c 4.70596,0.10208 9.48081,-0.25345 14.11985,0.70851 4.29163,1.16708 7.59581,4.77078 9.21278,8.81321 1.69675,4.32126 1.10662,9.49506 -1.72427,13.21015 -2.41261,3.3073 -6.30531,5.40238 -10.3643,5.78142 -6.95956,1.07038 -14.03602,1.23219 -21.06046,0.90158 -3.74124,-0.22818 -7.5818,-1.24121 -10.4663,-3.7462 -3.80136,-3.09321 -5.88482,-8.19797 -5.13825,-13.06643 0.56495,-4.47962 3.22326,-8.91294 7.49679,-10.70853 3.74178,-1.62408 7.90702,-1.64403 11.91231,-1.82497 2.00346,-0.0551 4.00777,-0.0599 6.01185,-0.0687 z m 101.36133,2.43359 c -4.23527,0.0813 -8.55399,2.68517 -9.92639,6.81482 -1.60417,4.3516 -0.49192,9.81909 3.30498,12.68729 2.18569,1.71449 4.91407,2.88134 7.71475,2.91818 5.64488,-0.20618 10.47443,-5.378 10.54927,-10.98216 0.19715,-4.2163 -2.27461,-8.38592 -6.06573,-10.24011 -1.71107,-0.88006 -3.6548,-1.29951 -5.57688,-1.19802 z m 0.0117,87.13282 c 3.41691,0.17223 6.67632,1.58412 9.47805,3.47835 3.13617,2.43186 4.37778,6.48635 4.71827,10.29472 0.65699,6.14274 0.62243,12.33415 0.52721,18.50311 -0.13285,3.9761 -0.52103,8.13148 -2.52236,11.65546 -1.6672,2.78386 -4.47192,4.75992 -7.55768,5.67873 -2.60789,1.03731 -5.61583,1.53887 -8.28654,0.42322 -3.08475,-1.05568 -6.19214,-2.72434 -7.87114,-5.64094 -2.07807,-3.34535 -2.27224,-7.38875 -2.60932,-11.20242 -0.31824,-5.01349 -0.44743,-10.03885 -0.52493,-15.06133 0.0459,-3.11894 0.0823,-6.31603 1.04696,-9.31167 1.00642,-2.98893 3.24278,-5.55032 6.14177,-6.82618 2.30147,-1.18376 4.84602,-2.03415 7.45971,-1.99105 z M 809.1875,733.29688 c -4.75406,2.99873 -9.95704,5.29137 -15.36719,6.80859 -3.72545,0.85688 -7.57339,0.84983 -11.37264,1.03293 -13.50548,0.41407 -27.02033,0.41018 -40.53104,0.5187 -42.34268,0.20924 -84.68604,0.21103 -127.0291,0.28442 -63.11211,0.0929 -126.22446,0.10082 -189.33628,0.3293 -14.5322,0.0673 -29.06584,0.12316 -43.59422,0.49285 -1.62139,0.0588 -3.45795,0.11266 -5.16158,0.22603 -1.61205,0.14772 -3.30797,0.17157 -4.72676,1.05478 -3.82165,1.97917 -7.24846,5.1899 -8.48745,9.41702 -1.23899,4.04968 0.23745,8.46699 2.84155,11.65432 1.70686,1.90121 3.32831,4.1585 5.84776,5.00963 3.14339,0.86005 6.4292,0.92188 9.665,1.05814 1.98973,0.0453 4.18115,0.076 6.2492,0.10422 12.48158,0.10696 24.96384,0.0305 37.44572,0.0734 0.22716,0.40575 0.0339,1.23151 0.0981,1.8001 0.0413,21.79514 -0.12552,43.59201 0.20898,65.38555 11.60376,-8.03609 23.02585,-16.32989 34.5412,-24.49153 0.50435,-0.67239 0.99597,0.20333 1.49273,0.45339 11.27882,8.28303 22.45823,16.64047 33.81373,24.81938 0.2391,-9.86204 0.14851,-19.72846 0.17697,-29.59257 0.001,-12.68464 0.004,-25.36927 0.005,-38.05391 65.10047,-0.55007 130.20239,-0.96855 195.30037,-1.77704 23.80917,-0.30431 47.62001,-0.59256 71.42228,-1.26398 5.28572,-0.19621 10.6531,-0.23463 15.94829,-0.73602 2.79151,-0.4284 5.41879,-1.58948 7.95258,-2.79808 7.8044,-3.858 14.66278,-9.79896 19.23396,-17.23992 1.50817,-2.43852 2.65518,-5.14846 2.91192,-8.02767 0.24395,-1.60301 0.40394,-3.0158 0.56035,-4.63692 0.0677,-0.69747 0.12612,-1.39594 0.18001,-2.09459 -0.0963,0.0631 -0.19271,0.1263 -0.28906,0.18946 z" />
  </g>
</svg>
