<?xml version="1.0" encoding="UTF-8" standalone="no"?>
<!DOCTYPE svg PUBLIC "-//W3C//DTD SVG 1.1//EN"
 "http://www.w3.org/Graphics/SVG/1.1/DTD/svg11.dtd">
<!-- Generated by graphviz version 2.43.0 (0)
 -->
<!-- Title: mpdfg Pages: 1 -->
<svg width="1056pt" height="1215pt"
 viewBox="0.00 0.00 1056.00 1214.85" xmlns="http://www.w3.org/2000/svg" xmlns:xlink="http://www.w3.org/1999/xlink">
<g id="graph0" class="graph" transform="scale(1 1) rotate(0) translate(4 1210.85)">
<title>mpdfg</title>
<polygon fill="white" stroke="transparent" points="-4,4 -4,-1210.85 1052,-1210.85 1052,4 -4,4"/>
<!-- start -->
<g id="node1" class="node">
<title>start</title>
<ellipse fill="green" stroke="black" cx="239" cy="-1185.64" rx="21.43" ry="21.43"/>
<text text-anchor="middle" x="239" y="-1180.64" font-family="Times,serif" font-size="20.00">▲</text>
</g>
<!-- A0 -->
<g id="node3" class="node">
<title>A0</title>
<polygon fill="#1966ac" stroke="transparent" points="170,-1083.43 170,-1106.43 308,-1106.43 308,-1083.43 170,-1083.43"/>
<polygon fill="none" stroke="black" points="170,-1083.43 170,-1106.43 308,-1106.43 308,-1083.43 170,-1083.43"/>
<text text-anchor="start" x="174" y="-1091.23" font-family="arial" font-size="14.00" fill="white">ER Registration (734)</text>
<polygon fill="#fdb475" stroke="transparent" points="170,-1060.43 170,-1083.43 308,-1083.43 308,-1060.43 170,-1060.43"/>
<polygon fill="none" stroke="black" points="170,-1060.43 170,-1083.43 308,-1083.43 308,-1060.43 170,-1060.43"/>
<text text-anchor="start" x="218.5" y="-1068.23" font-family="arial" font-size="14.00" fill="white">Instant</text>
</g>
<!-- start&#45;&gt;A0 -->
<g id="edge1" class="edge">
<title>start&#45;&gt;A0</title>
<path fill="none" stroke="#bfbfbf" stroke-width="5.74" stroke-dasharray="5,2" d="M239,-1164.36C239,-1148.92 239,-1127.53 239,-1110.77"/>
<polygon fill="white" stroke="transparent" points="239,-1128.43 239,-1146.43 267,-1146.43 267,-1128.43 239,-1128.43"/>
<text text-anchor="start" x="239" y="-1133.63" font-family="arial" font-size="16.00" fill="#1966ac">734</text>
</g>
<!-- complete -->
<g id="node2" class="node">
<title>complete</title>
<ellipse fill="red" stroke="black" cx="537" cy="-21.21" rx="21.43" ry="21.43"/>
<text text-anchor="middle" x="537" y="-16.21" font-family="Times,serif" font-size="20.00">■</text>
</g>
<!-- A1 -->
<g id="node4" class="node">
<title>A1</title>
<polygon fill="#1966ac" stroke="transparent" points="187,-963.43 187,-986.43 292,-986.43 292,-963.43 187,-963.43"/>
<polygon fill="none" stroke="black" points="187,-963.43 187,-986.43 292,-986.43 292,-963.43 187,-963.43"/>
<text text-anchor="start" x="191" y="-971.23" font-family="arial" font-size="14.00" fill="white">ER Triage (735)</text>
<polygon fill="#fdb475" stroke="transparent" points="187,-940.43 187,-963.43 292,-963.43 292,-940.43 187,-940.43"/>
<polygon fill="none" stroke="black" points="187,-940.43 187,-963.43 292,-963.43 292,-940.43 187,-940.43"/>
<text text-anchor="start" x="219" y="-948.23" font-family="arial" font-size="14.00" fill="white">Instant</text>
</g>
<!-- A0&#45;&gt;A1 -->
<g id="edge12" class="edge">
<title>A0&#45;&gt;A1</title>
<path fill="none" stroke="black" stroke-width="5.55" d="M239,-1056.24C239,-1039.89 239,-1018.62 239,-1000.67"/>
<polygon fill="black" stroke="black" stroke-width="5.55" points="243.86,-1000.54 239,-990.54 234.14,-1000.54 243.86,-1000.54"/>
<polygon fill="snow" stroke="transparent" points="239.5,-1023.43 239.5,-1038.43 292.5,-1038.43 292.5,-1023.43 239.5,-1023.43"/>
<text text-anchor="start" x="254.5" y="-1027.23" font-family="arial" font-size="14.00" fill="#1d6bb0">705</text>
<polygon fill="snow" stroke="transparent" points="239.5,-1008.43 239.5,-1023.43 292.5,-1023.43 292.5,-1008.43 239.5,-1008.43"/>
<text text-anchor="start" x="239.5" y="-1012.23" font-family="arial" font-size="14.00" fill="#fdb475">10m 45s</text>
</g>
<!-- A2 -->
<g id="node5" class="node">
<title>A2</title>
<polygon fill="#1966ac" stroke="transparent" points="286,-843.43 286,-866.43 435,-866.43 435,-843.43 286,-843.43"/>
<polygon fill="none" stroke="black" points="286,-843.43 286,-866.43 435,-866.43 435,-843.43 286,-843.43"/>
<text text-anchor="start" x="290" y="-851.23" font-family="arial" font-size="14.00" fill="white">ER Sepsis Triage (734)</text>
<polygon fill="#fdb475" stroke="transparent" points="286,-820.43 286,-843.43 435,-843.43 435,-820.43 286,-820.43"/>
<polygon fill="none" stroke="black" points="286,-820.43 286,-843.43 435,-843.43 435,-820.43 286,-820.43"/>
<text text-anchor="start" x="340" y="-828.23" font-family="arial" font-size="14.00" fill="white">Instant</text>
</g>
<!-- A0&#45;&gt;A2 -->
<g id="edge4" class="edge">
<title>A0&#45;&gt;A2</title>
<path fill="none" stroke="black" stroke-width="1.03" d="M276.64,-1056.25C314.07,-1027.53 368.76,-977.57 389,-918.43 393.32,-905.81 392.83,-901.2 389,-888.43 388.11,-885.46 386.95,-882.5 385.6,-879.61"/>
<polygon fill="black" stroke="black" stroke-width="1.03" points="388.59,-877.79 380.77,-870.64 382.43,-881.11 388.59,-877.79"/>
<polygon fill="snow" stroke="transparent" points="381.5,-963.43 381.5,-978.43 434.5,-978.43 434.5,-963.43 381.5,-963.43"/>
<text text-anchor="start" x="404" y="-967.23" font-family="arial" font-size="14.00" fill="#a3cbe3">7</text>
<polygon fill="snow" stroke="transparent" points="381.5,-948.43 381.5,-963.43 434.5,-963.43 434.5,-948.43 381.5,-948.43"/>
<text text-anchor="start" x="381.5" y="-952.23" font-family="arial" font-size="14.00" fill="#fdb475">02m 41s</text>
</g>
<!-- A3 -->
<g id="node6" class="node">
<title>A3</title>
<polygon fill="#2e7ebb" stroke="transparent" points="252,-483.43 252,-506.43 348,-506.43 348,-483.43 252,-483.43"/>
<polygon fill="none" stroke="black" points="252,-483.43 252,-506.43 348,-506.43 348,-483.43 252,-483.43"/>
<text text-anchor="start" x="256" y="-491.23" font-family="arial" font-size="14.00" fill="white">IV Liquid (585)</text>
<polygon fill="#fdb475" stroke="transparent" points="252,-460.43 252,-483.43 348,-483.43 348,-460.43 252,-460.43"/>
<polygon fill="none" stroke="black" points="252,-460.43 252,-483.43 348,-483.43 348,-460.43 252,-460.43"/>
<text text-anchor="start" x="279.5" y="-468.23" font-family="arial" font-size="14.00" fill="white">Instant</text>
</g>
<!-- A0&#45;&gt;A3 -->
<g id="edge5" class="edge">
<title>A0&#45;&gt;A3</title>
<path fill="none" stroke="black" stroke-width="1.13" d="M161.73,-1076.08C91.91,-1065.62 0,-1037.89 0,-964.43 0,-964.43 0,-964.43 0,-602.43 0,-553.99 36.86,-550.44 80,-528.43 128.06,-503.9 188.52,-493.03 233.9,-488.22"/>
<polygon fill="black" stroke="black" stroke-width="1.13" points="234.31,-491.7 243.92,-487.23 233.62,-484.73 234.31,-491.7"/>
<polygon fill="snow" stroke="transparent" points="0.5,-783.43 0.5,-798.43 53.5,-798.43 53.5,-783.43 0.5,-783.43"/>
<text text-anchor="start" x="19" y="-787.23" font-family="arial" font-size="14.00" fill="#a0cae3">22</text>
<polygon fill="snow" stroke="transparent" points="0.5,-768.43 0.5,-783.43 53.5,-783.43 53.5,-768.43 0.5,-768.43"/>
<text text-anchor="start" x="0.5" y="-772.23" font-family="arial" font-size="14.00" fill="#fdb475">05m 24s</text>
</g>
<!-- A1&#45;&gt;A2 -->
<g id="edge13" class="edge">
<title>A1&#45;&gt;A2</title>
<path fill="none" stroke="black" stroke-width="5.59" d="M285.41,-936.4C293.35,-930.97 301.22,-924.91 308,-918.43 320.01,-906.94 330.98,-892.31 339.71,-879.09"/>
<polygon fill="black" stroke="black" stroke-width="5.59" points="343.84,-881.72 345.11,-870.66 335.6,-876.44 343.84,-881.72"/>
<polygon fill="snow" stroke="transparent" points="332.5,-903.43 332.5,-918.43 385.5,-918.43 385.5,-903.43 332.5,-903.43"/>
<text text-anchor="start" x="347.5" y="-907.23" font-family="arial" font-size="14.00" fill="#1c6aaf">711</text>
<polygon fill="snow" stroke="transparent" points="332.5,-888.43 332.5,-903.43 385.5,-903.43 385.5,-888.43 332.5,-888.43"/>
<text text-anchor="start" x="332.5" y="-892.23" font-family="arial" font-size="14.00" fill="#fdb475">07m 02s</text>
</g>
<!-- A1&#45;&gt;A3 -->
<g id="edge24" class="edge">
<title>A1&#45;&gt;A3</title>
<path fill="none" stroke="black" stroke-width="1.08" d="M178.23,-947.29C129.08,-930.98 68,-899.61 68,-844.43 68,-844.43 68,-844.43 68,-602.43 68,-527.64 164.97,-500.23 233.52,-490.2"/>
<polygon fill="black" stroke="black" stroke-width="1.08" points="234.41,-493.61 243.84,-488.79 233.46,-486.68 234.41,-493.61"/>
<polygon fill="snow" stroke="transparent" points="68.5,-723.43 68.5,-738.43 121.5,-738.43 121.5,-723.43 68.5,-723.43"/>
<text text-anchor="start" x="87" y="-727.23" font-family="arial" font-size="14.00" fill="#a1cbe3">14</text>
<polygon fill="snow" stroke="transparent" points="68.5,-708.43 68.5,-723.43 121.5,-723.43 121.5,-708.43 68.5,-708.43"/>
<text text-anchor="start" x="68.5" y="-712.23" font-family="arial" font-size="14.00" fill="#fdb475">42m 23s</text>
</g>
<!-- A5 -->
<g id="node8" class="node">
<title>A5</title>
<polygon fill="#08306b" stroke="transparent" points="349,-603.43 349,-626.43 490,-626.43 490,-603.43 349,-603.43"/>
<polygon fill="none" stroke="black" points="349,-603.43 349,-626.43 490,-626.43 490,-603.43 349,-603.43"/>
<text text-anchor="start" x="353" y="-611.23" font-family="arial" font-size="14.00" fill="white">Admission NC (1,083)</text>
<polygon fill="#fdb475" stroke="transparent" points="349,-580.43 349,-603.43 490,-603.43 490,-580.43 349,-580.43"/>
<polygon fill="none" stroke="black" points="349,-580.43 349,-603.43 490,-603.43 490,-580.43 349,-580.43"/>
<text text-anchor="start" x="399" y="-588.23" font-family="arial" font-size="14.00" fill="white">Instant</text>
</g>
<!-- A1&#45;&gt;A5 -->
<g id="edge27" class="edge">
<title>A1&#45;&gt;A5</title>
<path fill="none" stroke="black" stroke-width="1.03" d="M234.95,-936.25C230.24,-896.97 226.56,-821.74 257,-768.43 281.21,-726.02 298.85,-722.73 340,-696.43 356.43,-685.93 365.79,-691.78 380,-678.43 391.24,-667.86 399.87,-653.33 406.11,-639.93"/>
<polygon fill="black" stroke="black" stroke-width="1.03" points="409.46,-641.02 410.25,-630.45 403.04,-638.22 409.46,-641.02"/>
<polygon fill="snow" stroke="transparent" points="257.5,-783.43 257.5,-798.43 340.5,-798.43 340.5,-783.43 257.5,-783.43"/>
<text text-anchor="start" x="295" y="-787.23" font-family="arial" font-size="14.00" fill="#a3cbe3">7</text>
<polygon fill="snow" stroke="transparent" points="257.5,-768.43 257.5,-783.43 340.5,-783.43 340.5,-768.43 257.5,-768.43"/>
<text text-anchor="start" x="257.5" y="-772.23" font-family="arial" font-size="14.00" fill="#fdb475">03h 26m 02s </text>
</g>
<!-- A2&#45;&gt;A1 -->
<g id="edge30" class="edge">
<title>A2&#45;&gt;A1</title>
<path fill="none" stroke="black" stroke-width="1.02" d="M277.42,-866.68C267.36,-872.37 258.13,-879.5 251,-888.43 242.6,-898.94 239.03,-913.03 237.76,-926.09"/>
<polygon fill="black" stroke="black" stroke-width="1.02" points="234.25,-926.07 237.18,-936.26 241.24,-926.47 234.25,-926.07"/>
<polygon fill="snow" stroke="transparent" points="251.5,-903.43 251.5,-918.43 304.5,-918.43 304.5,-903.43 251.5,-903.43"/>
<text text-anchor="start" x="274" y="-907.23" font-family="arial" font-size="14.00" fill="#a4cce4">5</text>
<polygon fill="snow" stroke="transparent" points="251.5,-888.43 251.5,-903.43 304.5,-903.43 304.5,-888.43 251.5,-888.43"/>
<text text-anchor="start" x="251.5" y="-892.23" font-family="arial" font-size="14.00" fill="#fdb475">06m 20s</text>
</g>
<!-- A2&#45;&gt;A3 -->
<g id="edge9" class="edge">
<title>A2&#45;&gt;A3</title>
<path fill="none" stroke="black" stroke-width="4.06" d="M346.97,-816.28C344.41,-810.49 341.93,-804.33 340,-798.43 306.14,-694.86 301.17,-666.81 290,-558.43 288.63,-545.16 288.51,-541.68 290,-528.43 290.28,-525.91 290.65,-523.32 291.09,-520.72"/>
<polygon fill="black" stroke="black" stroke-width="4.06" points="294.6,-521.28 293,-510.79 287.62,-519.93 294.6,-521.28"/>
<polygon fill="snow" stroke="transparent" points="305.5,-663.43 305.5,-678.43 388.5,-678.43 388.5,-663.43 305.5,-663.43"/>
<text text-anchor="start" x="335.5" y="-667.23" font-family="arial" font-size="14.00" fill="#408fc4">475</text>
<polygon fill="snow" stroke="transparent" points="305.5,-648.43 305.5,-663.43 388.5,-663.43 388.5,-648.43 305.5,-648.43"/>
<text text-anchor="start" x="305.5" y="-652.23" font-family="arial" font-size="14.00" fill="#fdb475">01h 17m 02s </text>
</g>
<!-- A4 -->
<g id="node7" class="node">
<title>A4</title>
<polygon fill="#2676b6" stroke="transparent" points="615,-363.43 615,-386.43 736,-386.43 736,-363.43 615,-363.43"/>
<polygon fill="none" stroke="black" points="615,-363.43 615,-386.43 736,-386.43 736,-363.43 615,-363.43"/>
<text text-anchor="start" x="619" y="-371.23" font-family="arial" font-size="14.00" fill="white">IV Antibiotics (638)</text>
<polygon fill="#fdb475" stroke="transparent" points="615,-340.43 615,-363.43 736,-363.43 736,-340.43 615,-340.43"/>
<polygon fill="none" stroke="black" points="615,-340.43 615,-363.43 736,-363.43 736,-340.43 615,-340.43"/>
<text text-anchor="start" x="655" y="-348.23" font-family="arial" font-size="14.00" fill="white">Instant</text>
</g>
<!-- A2&#45;&gt;A4 -->
<g id="edge16" class="edge">
<title>A2&#45;&gt;A4</title>
<path fill="none" stroke="black" stroke-width="1.98" d="M442.59,-837.64C566.31,-828.74 791.33,-805.31 848,-750.43 852.97,-745.61 914.06,-517.28 915,-510.43 918.26,-486.65 928.6,-476.2 915,-456.43 879.06,-404.16 809.03,-381.57 753.85,-371.82"/>
<polygon fill="black" stroke="black" stroke-width="1.98" points="754.17,-368.32 743.74,-370.14 753.03,-375.23 754.17,-368.32"/>
<polygon fill="snow" stroke="transparent" points="897.5,-603.43 897.5,-618.43 980.5,-618.43 980.5,-603.43 897.5,-603.43"/>
<text text-anchor="start" x="927.5" y="-607.23" font-family="arial" font-size="14.00" fill="#82bbdb">153</text>
<polygon fill="snow" stroke="transparent" points="897.5,-588.43 897.5,-603.43 980.5,-603.43 980.5,-588.43 897.5,-588.43"/>
<text text-anchor="start" x="897.5" y="-592.23" font-family="arial" font-size="14.00" fill="#fdb475">01h 30m 30s </text>
</g>
<!-- A2&#45;&gt;A5 -->
<g id="edge17" class="edge">
<title>A2&#45;&gt;A5</title>
<path fill="none" stroke="black" stroke-width="1.6" d="M395.25,-816.42C414.51,-799.93 436.51,-776.77 447,-750.43 461.38,-714.29 449.13,-670.11 436.62,-639.87"/>
<polygon fill="black" stroke="black" stroke-width="1.6" points="439.77,-638.35 432.58,-630.57 433.35,-641.14 439.77,-638.35"/>
<polygon fill="snow" stroke="transparent" points="453.5,-723.43 453.5,-738.43 536.5,-738.43 536.5,-723.43 453.5,-723.43"/>
<text text-anchor="start" x="487" y="-727.23" font-family="arial" font-size="14.00" fill="#90c2de">95</text>
<polygon fill="snow" stroke="transparent" points="453.5,-708.43 453.5,-723.43 536.5,-723.43 536.5,-708.43 453.5,-708.43"/>
<text text-anchor="start" x="453.5" y="-712.23" font-family="arial" font-size="14.00" fill="#fdb475">02h 59m 00s </text>
</g>
<!-- A8 -->
<g id="node11" class="node">
<title>A8</title>
<polygon fill="#8ec1de" stroke="transparent" points="605,-723.43 605,-746.43 729,-746.43 729,-723.43 605,-723.43"/>
<polygon fill="none" stroke="black" points="605,-723.43 605,-746.43 729,-746.43 729,-723.43 605,-723.43"/>
<text text-anchor="start" x="609" y="-731.23" font-family="arial" font-size="14.00" fill="white">Admission IC (101)</text>
<polygon fill="#fdb475" stroke="transparent" points="605,-700.43 605,-723.43 729,-723.43 729,-700.43 605,-700.43"/>
<polygon fill="none" stroke="black" points="605,-700.43 605,-723.43 729,-723.43 729,-700.43 605,-700.43"/>
<text text-anchor="start" x="646.5" y="-708.23" font-family="arial" font-size="14.00" fill="white">Instant</text>
</g>
<!-- A2&#45;&gt;A8 -->
<g id="edge28" class="edge">
<title>A2&#45;&gt;A8</title>
<path fill="none" stroke="black" stroke-width="1.03" d="M442.32,-816.37C459.17,-810.71 476.73,-804.57 493,-798.43 528.64,-784.98 567.72,-768.52 599.8,-754.54"/>
<polygon fill="black" stroke="black" stroke-width="1.03" points="601.33,-757.69 609.09,-750.47 598.53,-751.28 601.33,-757.69"/>
<polygon fill="snow" stroke="transparent" points="565.5,-783.43 565.5,-798.43 648.5,-798.43 648.5,-783.43 565.5,-783.43"/>
<text text-anchor="start" x="603" y="-787.23" font-family="arial" font-size="14.00" fill="#a3cbe3">6</text>
<polygon fill="snow" stroke="transparent" points="565.5,-768.43 565.5,-783.43 648.5,-783.43 648.5,-768.43 565.5,-768.43"/>
<text text-anchor="start" x="565.5" y="-772.23" font-family="arial" font-size="14.00" fill="#fdb475">02h 33m 17s </text>
</g>
<!-- A3&#45;&gt;A1 -->
<g id="edge22" class="edge">
<title>A3&#45;&gt;A1</title>
<path fill="none" stroke="black" stroke-width="1.12" d="M243.89,-504.84C203.83,-523.44 157,-555.27 157,-602.43 157,-844.43 157,-844.43 157,-844.43 157,-877.23 178.64,-907.47 199.68,-929.12"/>
<polygon fill="black" stroke="black" stroke-width="1.12" points="197.49,-931.87 207.06,-936.41 202.41,-926.89 197.49,-931.87"/>
<polygon fill="snow" stroke="transparent" points="157.5,-723.43 157.5,-738.43 210.5,-738.43 210.5,-723.43 157.5,-723.43"/>
<text text-anchor="start" x="176" y="-727.23" font-family="arial" font-size="14.00" fill="#a0cae3">20</text>
<polygon fill="snow" stroke="transparent" points="157.5,-708.43 157.5,-723.43 210.5,-723.43 210.5,-708.43 157.5,-708.43"/>
<text text-anchor="start" x="157.5" y="-712.23" font-family="arial" font-size="14.00" fill="#fdb475">05m 14s</text>
</g>
<!-- A3&#45;&gt;A2 -->
<g id="edge26" class="edge">
<title>A3&#45;&gt;A2</title>
<path fill="none" stroke="black" stroke-width="1.05" d="M273.87,-510.7C240.47,-547.63 189.59,-617.23 213,-678.43 224.53,-708.56 284.73,-770.23 324.43,-808.76"/>
<polygon fill="black" stroke="black" stroke-width="1.05" points="322.45,-811.72 332.08,-816.14 327.31,-806.68 322.45,-811.72"/>
<polygon fill="snow" stroke="transparent" points="213.5,-663.43 213.5,-678.43 296.5,-678.43 296.5,-663.43 213.5,-663.43"/>
<text text-anchor="start" x="251" y="-667.23" font-family="arial" font-size="14.00" fill="#a3cbe3">9</text>
<polygon fill="snow" stroke="transparent" points="213.5,-648.43 213.5,-663.43 296.5,-663.43 296.5,-648.43 213.5,-648.43"/>
<text text-anchor="start" x="213.5" y="-652.23" font-family="arial" font-size="14.00" fill="#fdb475">01h 14m 03s </text>
</g>
<!-- A3&#45;&gt;A4 -->
<g id="edge10" class="edge">
<title>A3&#45;&gt;A4</title>
<path fill="none" stroke="black" stroke-width="4.1" d="M356.14,-480.08C397.85,-476.04 454.61,-465.49 497,-438.43 511.16,-429.39 506.1,-417.87 520,-408.43 542.67,-393.03 570.7,-382.97 596.65,-376.42"/>
<polygon fill="black" stroke="black" stroke-width="4.1" points="597.59,-379.89 606.48,-374.08 595.93,-372.91 597.59,-379.89"/>
<polygon fill="snow" stroke="transparent" points="520.5,-423.43 520.5,-438.43 573.5,-438.43 573.5,-423.43 520.5,-423.43"/>
<text text-anchor="start" x="535.5" y="-427.23" font-family="arial" font-size="14.00" fill="#3f8ec4">481</text>
<polygon fill="snow" stroke="transparent" points="520.5,-408.43 520.5,-423.43 573.5,-423.43 573.5,-408.43 520.5,-408.43"/>
<text text-anchor="start" x="520.5" y="-412.23" font-family="arial" font-size="14.00" fill="#fdb475">29m 09s</text>
</g>
<!-- A3&#45;&gt;A5 -->
<g id="edge18" class="edge">
<title>A3&#45;&gt;A5</title>
<path fill="none" stroke="black" stroke-width="1.34" d="M356.46,-503.54C369.08,-509.89 381.52,-518.07 391,-528.43 400.68,-539.01 407.12,-553.26 411.36,-566.44"/>
<polygon fill="black" stroke="black" stroke-width="1.34" points="408.04,-567.59 414.18,-576.22 414.77,-565.64 408.04,-567.59"/>
<polygon fill="snow" stroke="transparent" points="408.5,-543.43 408.5,-558.43 491.5,-558.43 491.5,-543.43 408.5,-543.43"/>
<text text-anchor="start" x="442" y="-547.23" font-family="arial" font-size="14.00" fill="#99c6e1">54</text>
<polygon fill="snow" stroke="transparent" points="408.5,-528.43 408.5,-543.43 491.5,-543.43 491.5,-528.43 408.5,-528.43"/>
<text text-anchor="start" x="408.5" y="-532.23" font-family="arial" font-size="14.00" fill="#fdb374">10h 15m 42s </text>
</g>
<!-- A6 -->
<g id="node9" class="node">
<title>A6</title>
<polygon fill="#1966ac" stroke="transparent" points="491,-243.43 491,-266.43 584,-266.43 584,-243.43 491,-243.43"/>
<polygon fill="none" stroke="black" points="491,-243.43 491,-266.43 584,-266.43 584,-243.43 491,-243.43"/>
<text text-anchor="start" x="495" y="-251.23" font-family="arial" font-size="14.00" fill="white">Release (734)</text>
<polygon fill="#fdb475" stroke="transparent" points="491,-220.43 491,-243.43 584,-243.43 584,-220.43 491,-220.43"/>
<polygon fill="none" stroke="black" points="491,-220.43 491,-243.43 584,-243.43 584,-220.43 491,-220.43"/>
<text text-anchor="start" x="517" y="-228.23" font-family="arial" font-size="14.00" fill="white">Instant</text>
</g>
<!-- A3&#45;&gt;A6 -->
<g id="edge23" class="edge">
<title>A3&#45;&gt;A6</title>
<path fill="none" stroke="black" stroke-width="1.1" d="M295.73,-456.38C292.04,-425.24 290.51,-372.79 314,-336.43 348.27,-283.39 419.53,-260.91 472.32,-251.39"/>
<polygon fill="black" stroke="black" stroke-width="1.1" points="473.01,-254.83 482.28,-249.71 471.84,-247.93 473.01,-254.83"/>
<polygon fill="snow" stroke="transparent" points="314,-363.43 314,-378.43 398,-378.43 398,-363.43 314,-363.43"/>
<text text-anchor="start" x="348" y="-367.23" font-family="arial" font-size="14.00" fill="#a1cbe3">17</text>
<polygon fill="snow" stroke="transparent" points="314,-348.43 314,-363.43 398,-363.43 398,-348.43 314,-348.43"/>
<text text-anchor="start" x="314" y="-352.23" font-family="arial" font-size="14.00" fill="#fdac69">04d 01h 58m </text>
</g>
<!-- A3&#45;&gt;A8 -->
<g id="edge33" class="edge">
<title>A3&#45;&gt;A8</title>
<path fill="none" stroke="black" stroke-width="1.01" d="M356.03,-488.88C422.56,-496.72 533.94,-518.17 609,-576.43 632.81,-594.9 629.88,-607.99 650,-630.43 657.77,-639.09 664.4,-637.74 669,-648.43 674.04,-660.14 674.87,-673.89 674,-686.34"/>
<polygon fill="black" stroke="black" stroke-width="1.01" points="670.51,-686.1 672.92,-696.41 677.47,-686.84 670.51,-686.1"/>
<polygon fill="snow" stroke="transparent" points="650.5,-603.43 650.5,-618.43 733.5,-618.43 733.5,-603.43 650.5,-603.43"/>
<text text-anchor="start" x="688" y="-607.23" font-family="arial" font-size="14.00" fill="#a4cce4">4</text>
<polygon fill="snow" stroke="transparent" points="650.5,-588.43 650.5,-603.43 733.5,-603.43 733.5,-588.43 650.5,-588.43"/>
<text text-anchor="start" x="650.5" y="-592.23" font-family="arial" font-size="14.00" fill="#fdb475">02h 07m 29s </text>
</g>
<!-- A4&#45;&gt;A1 -->
<g id="edge34" class="edge">
<title>A4&#45;&gt;A1</title>
<path fill="none" stroke="black" stroke-width="1.01" d="M743.6,-366.12C789.16,-370.02 848.7,-380.67 894,-408.43 957.59,-447.39 995,-467.85 995,-542.43 995,-844.43 995,-844.43 995,-844.43 995,-990.97 485.81,-908.23 342,-936.43 331.47,-938.49 320.4,-940.96 309.59,-943.54"/>
<polygon fill="black" stroke="black" stroke-width="1.01" points="308.64,-940.17 299.76,-945.94 310.3,-946.97 308.64,-940.17"/>
<polygon fill="snow" stroke="transparent" points="995.5,-663.43 995.5,-678.43 1048.5,-678.43 1048.5,-663.43 995.5,-663.43"/>
<text text-anchor="start" x="1018" y="-667.23" font-family="arial" font-size="14.00" fill="#a4cce4">4</text>
<polygon fill="snow" stroke="transparent" points="995.5,-648.43 995.5,-663.43 1048.5,-663.43 1048.5,-648.43 995.5,-648.43"/>
<text text-anchor="start" x="995.5" y="-652.23" font-family="arial" font-size="14.00" fill="#fdb475">03m 16s</text>
</g>
<!-- A4&#45;&gt;A3 -->
<g id="edge19" class="edge">
<title>A4&#45;&gt;A3</title>
<path fill="none" stroke="black" stroke-width="1.33" d="M621.17,-390.47C612.34,-395.82 603.6,-401.86 596,-408.43 583.29,-419.41 587.43,-429.81 573,-438.43 539.02,-458.72 435.55,-471.12 366.21,-477.38"/>
<polygon fill="black" stroke="black" stroke-width="1.33" points="365.89,-473.9 356.24,-478.26 366.51,-480.87 365.89,-473.9"/>
<polygon fill="snow" stroke="transparent" points="596.5,-423.43 596.5,-438.43 649.5,-438.43 649.5,-423.43 596.5,-423.43"/>
<text text-anchor="start" x="615" y="-427.23" font-family="arial" font-size="14.00" fill="#99c6e1">53</text>
<polygon fill="snow" stroke="transparent" points="596.5,-408.43 596.5,-423.43 649.5,-423.43 649.5,-408.43 596.5,-408.43"/>
<text text-anchor="start" x="596.5" y="-412.23" font-family="arial" font-size="14.00" fill="#fdb475">22m 13s</text>
</g>
<!-- A4&#45;&gt;A5 -->
<g id="edge14" class="edge">
<title>A4&#45;&gt;A5</title>
<path fill="none" stroke="black" stroke-width="4.37" d="M678.5,-390.51C681.27,-421.92 681.22,-474.88 656,-510.43 622.17,-558.11 559.9,-581.08 507.67,-592.14"/>
<polygon fill="black" stroke="black" stroke-width="4.37" points="506.76,-588.43 497.71,-594.14 508.26,-595.92 506.76,-588.43"/>
<polygon fill="snow" stroke="transparent" points="676.5,-483.43 676.5,-498.43 759.5,-498.43 759.5,-483.43 676.5,-483.43"/>
<text text-anchor="start" x="706.5" y="-487.23" font-family="arial" font-size="14.00" fill="#3988c1">522</text>
<polygon fill="snow" stroke="transparent" points="676.5,-468.43 676.5,-483.43 759.5,-483.43 759.5,-468.43 676.5,-468.43"/>
<text text-anchor="start" x="676.5" y="-472.23" font-family="arial" font-size="14.00" fill="#fdb475">01h 26m 17s </text>
</g>
<!-- A4&#45;&gt;A6 -->
<g id="edge31" class="edge">
<title>A4&#45;&gt;A6</title>
<path fill="none" stroke="black" stroke-width="1.02" d="M644.37,-336.24C624.01,-318.82 597.1,-295.81 575.31,-277.19"/>
<polygon fill="black" stroke="black" stroke-width="1.02" points="577.42,-274.38 567.54,-270.54 572.87,-279.7 577.42,-274.38"/>
<polygon fill="snow" stroke="transparent" points="622,-303.43 622,-318.43 706,-318.43 706,-303.43 622,-303.43"/>
<text text-anchor="start" x="660" y="-307.23" font-family="arial" font-size="14.00" fill="#a4cce4">5</text>
<polygon fill="snow" stroke="transparent" points="622,-288.43 622,-303.43 706,-303.43 706,-288.43 622,-288.43"/>
<text text-anchor="start" x="622" y="-292.23" font-family="arial" font-size="14.00" fill="#fda762">06d 00h 57m </text>
</g>
<!-- A4&#45;&gt;A8 -->
<g id="edge6" class="edge">
<title>A4&#45;&gt;A8</title>
<path fill="none" stroke="black" stroke-width="1.33" d="M711.1,-390.73C730.46,-407.17 752.46,-430.17 763,-456.43 771.94,-478.7 771.17,-487.86 763,-510.43 759.45,-520.22 752.25,-518.92 748,-528.43 729.3,-570.26 750.17,-587.95 733,-630.43 724.59,-651.22 710.57,-671.76 697.6,-688.13"/>
<polygon fill="black" stroke="black" stroke-width="1.33" points="694.56,-686.33 690.96,-696.3 699.98,-690.75 694.56,-686.33"/>
<polygon fill="snow" stroke="transparent" points="748.5,-543.43 748.5,-558.43 831.5,-558.43 831.5,-543.43 748.5,-543.43"/>
<text text-anchor="start" x="782" y="-547.23" font-family="arial" font-size="14.00" fill="#99c6e1">53</text>
<polygon fill="snow" stroke="transparent" points="748.5,-528.43 748.5,-543.43 831.5,-543.43 831.5,-528.43 748.5,-528.43"/>
<text text-anchor="start" x="748.5" y="-532.23" font-family="arial" font-size="14.00" fill="#fdb475">01h 14m 05s </text>
</g>
<!-- A5&#45;&gt;A2 -->
<g id="edge32" class="edge">
<title>A5&#45;&gt;A2</title>
<path fill="none" stroke="black" stroke-width="1.02" d="M420.03,-630.67C419.3,-646.13 415.88,-665.2 405,-678.43 391.31,-695.06 372.08,-678.59 360,-696.43 338.14,-728.72 342.55,-774.93 349.56,-806.66"/>
<polygon fill="black" stroke="black" stroke-width="1.02" points="346.16,-807.51 351.89,-816.42 352.97,-805.88 346.16,-807.51"/>
<polygon fill="snow" stroke="transparent" points="360.5,-723.43 360.5,-738.43 443.5,-738.43 443.5,-723.43 360.5,-723.43"/>
<text text-anchor="start" x="398" y="-727.23" font-family="arial" font-size="14.00" fill="#a4cce4">5</text>
<polygon fill="snow" stroke="transparent" points="360.5,-708.43 360.5,-723.43 443.5,-723.43 443.5,-708.43 360.5,-708.43"/>
<text text-anchor="start" x="360.5" y="-712.23" font-family="arial" font-size="14.00" fill="#fdb475">01h 55m 33s </text>
</g>
<!-- A5&#45;&gt;A3 -->
<g id="edge21" class="edge">
<title>A5&#45;&gt;A3</title>
<path fill="none" stroke="black" stroke-width="1.12" d="M340.22,-586.19C326.13,-579.79 313.06,-570.87 304,-558.43 296.23,-547.76 294.04,-533.76 294.21,-520.81"/>
<polygon fill="black" stroke="black" stroke-width="1.12" points="297.71,-520.92 294.79,-510.74 290.72,-520.52 297.71,-520.92"/>
<polygon fill="snow" stroke="transparent" points="304.5,-543.43 304.5,-558.43 387.5,-558.43 387.5,-543.43 304.5,-543.43"/>
<text text-anchor="start" x="338" y="-547.23" font-family="arial" font-size="14.00" fill="#a0cae3">21</text>
<polygon fill="snow" stroke="transparent" points="304.5,-528.43 304.5,-543.43 387.5,-543.43 387.5,-528.43 304.5,-528.43"/>
<text text-anchor="start" x="304.5" y="-532.23" font-family="arial" font-size="14.00" fill="#fdb374">16h 39m 41s </text>
</g>
<!-- A5&#45;&gt;A4 -->
<g id="edge35" class="edge">
<title>A5&#45;&gt;A4</title>
<path fill="none" stroke="black" d="M497.73,-578.02C507.69,-572.66 517.13,-566.19 525,-558.43 560.15,-523.76 531,-487.95 569,-456.43 597.05,-433.16 621.77,-462.65 649,-438.43 659.86,-428.76 666.19,-414.28 669.87,-400.69"/>
<polygon fill="black" stroke="black" points="673.37,-401.09 672.2,-390.56 666.55,-399.52 673.37,-401.09"/>
<polygon fill="snow" stroke="transparent" points="569.5,-483.43 569.5,-498.43 652.5,-498.43 652.5,-483.43 569.5,-483.43"/>
<text text-anchor="start" x="607" y="-487.23" font-family="arial" font-size="14.00" fill="#a4cce4">2</text>
<polygon fill="snow" stroke="transparent" points="569.5,-468.43 569.5,-483.43 652.5,-483.43 652.5,-468.43 569.5,-468.43"/>
<text text-anchor="start" x="569.5" y="-472.23" font-family="arial" font-size="14.00" fill="#fdb475">04h 17m 52s </text>
</g>
<!-- A5&#45;&gt;A5 -->
<g id="edge15" class="edge">
<title>A5&#45;&gt;A5</title>
<path fill="none" stroke="black" stroke-width="3.06" d="M497.76,-613.41C508.41,-611.73 515.5,-608.41 515.5,-603.43 515.5,-600.24 512.59,-597.72 507.7,-595.89"/>
<polygon fill="black" stroke="black" stroke-width="3.06" points="508.3,-592.44 497.76,-593.45 506.63,-599.23 508.3,-592.44"/>
<polygon fill="snow" stroke="transparent" points="515.5,-603.43 515.5,-618.43 599.5,-618.43 599.5,-603.43 515.5,-603.43"/>
<text text-anchor="start" x="546" y="-607.23" font-family="arial" font-size="14.00" fill="#5da4d0">320</text>
<polygon fill="snow" stroke="transparent" points="515.5,-588.43 515.5,-603.43 599.5,-603.43 599.5,-588.43 515.5,-588.43"/>
<text text-anchor="start" x="515.5" y="-592.23" font-family="arial" font-size="14.00" fill="#fdb171">01d 16h 38m </text>
</g>
<!-- A5&#45;&gt;A6 -->
<g id="edge11" class="edge">
<title>A5&#45;&gt;A6</title>
<path fill="none" stroke="black" stroke-width="5.53" d="M479.32,-576.22C485.55,-571.19 491.04,-565.29 495,-558.43 501.66,-546.88 499.96,-540.8 495,-528.43 470.58,-467.52 387.65,-470.47 409,-408.43 426.95,-356.26 469.05,-307.95 500.09,-277.48"/>
<polygon fill="black" stroke="black" stroke-width="5.53" points="503.49,-280.93 507.33,-270.5 496.77,-273.96 503.49,-280.93"/>
<polygon fill="snow" stroke="transparent" points="409,-423.43 409,-438.43 493,-438.43 493,-423.43 409,-423.43"/>
<text text-anchor="start" x="439.5" y="-427.23" font-family="arial" font-size="14.00" fill="#1d6bb0">702</text>
<polygon fill="snow" stroke="transparent" points="409,-408.43 409,-423.43 493,-423.43 493,-408.43 409,-408.43"/>
<text text-anchor="start" x="409" y="-412.23" font-family="arial" font-size="14.00" fill="#fda661">06d 07h 51m </text>
</g>
<!-- A5&#45;&gt;A8 -->
<g id="edge20" class="edge">
<title>A5&#45;&gt;A8</title>
<path fill="none" stroke="black" stroke-width="1.19" d="M497.56,-619.21C519.69,-625.78 542.91,-635.15 562,-648.43 575.79,-658.02 572.2,-667.54 585,-678.43 590.21,-682.86 595.94,-687.02 601.87,-690.89"/>
<polygon fill="black" stroke="black" stroke-width="1.19" points="600.33,-694.06 610.68,-696.35 604.02,-688.11 600.33,-694.06"/>
<polygon fill="snow" stroke="transparent" points="585,-663.43 585,-678.43 669,-678.43 669,-663.43 585,-663.43"/>
<text text-anchor="start" x="619" y="-667.23" font-family="arial" font-size="14.00" fill="#9dc9e2">32</text>
<polygon fill="snow" stroke="transparent" points="585,-648.43 585,-663.43 669,-663.43 669,-648.43 585,-648.43"/>
<text text-anchor="start" x="585" y="-652.23" font-family="arial" font-size="14.00" fill="#fdb272">01d 01h 54m </text>
</g>
<!-- A6&#45;&gt;complete -->
<g id="edge2" class="edge">
<title>A6&#45;&gt;complete</title>
<path fill="none" stroke="#bfbfbf" stroke-width="3.96" stroke-dasharray="5,2" d="M534.65,-216.32C532.31,-187.11 529.31,-138.38 531,-96.43 531.74,-78.09 533.51,-57.26 534.93,-42.35"/>
<polygon fill="white" stroke="transparent" points="531,-114.43 531,-132.43 559,-132.43 559,-114.43 531,-114.43"/>
<text text-anchor="start" x="531" y="-119.63" font-family="arial" font-size="16.00" fill="#4391c6">459</text>
</g>
<!-- A7 -->
<g id="node10" class="node">
<title>A7</title>
<polygon fill="#66aad3" stroke="transparent" points="576,-123.43 576,-146.43 683,-146.43 683,-123.43 576,-123.43"/>
<polygon fill="none" stroke="black" points="576,-123.43 576,-146.43 683,-146.43 683,-123.43 576,-123.43"/>
<text text-anchor="start" x="580" y="-131.23" font-family="arial" font-size="14.00" fill="white">Return ER (275)</text>
<polygon fill="#fdb475" stroke="transparent" points="576,-100.43 576,-123.43 683,-123.43 683,-100.43 576,-100.43"/>
<polygon fill="none" stroke="black" points="576,-100.43 576,-123.43 683,-123.43 683,-100.43 576,-100.43"/>
<text text-anchor="start" x="609" y="-108.23" font-family="arial" font-size="14.00" fill="white">Instant</text>
</g>
<!-- A6&#45;&gt;A7 -->
<g id="edge8" class="edge">
<title>A6&#45;&gt;A7</title>
<path fill="none" stroke="black" stroke-width="2.77" d="M557.42,-216.24C570.64,-199.28 587.99,-177.02 602.3,-158.67"/>
<polygon fill="black" stroke="black" stroke-width="2.77" points="605.25,-160.58 608.64,-150.54 599.73,-156.28 605.25,-160.58"/>
<polygon fill="snow" stroke="transparent" points="593,-183.43 593,-198.43 677,-198.43 677,-183.43 593,-183.43"/>
<text text-anchor="start" x="623.5" y="-187.23" font-family="arial" font-size="14.00" fill="#66aad3">275</text>
<polygon fill="snow" stroke="transparent" points="593,-168.43 593,-183.43 677,-183.43 677,-168.43 593,-168.43"/>
<text text-anchor="start" x="593" y="-172.23" font-family="arial" font-size="14.00" fill="#7f2704">02m 22d 00h </text>
</g>
<!-- A7&#45;&gt;complete -->
<g id="edge3" class="edge">
<title>A7&#45;&gt;complete</title>
<path fill="none" stroke="#bfbfbf" stroke-width="2.77" stroke-dasharray="5,2" d="M605.07,-96.36C587.92,-77.68 565.42,-53.17 551.08,-37.55"/>
<polygon fill="white" stroke="transparent" points="588,-60.43 588,-78.43 616,-78.43 616,-60.43 588,-60.43"/>
<text text-anchor="start" x="588" y="-65.63" font-family="arial" font-size="16.00" fill="#66aad3">275</text>
</g>
<!-- A8&#45;&gt;A5 -->
<g id="edge7" class="edge">
<title>A8&#45;&gt;A5</title>
<path fill="none" stroke="black" stroke-width="1.54" d="M596.75,-703.86C586.46,-701.28 575.97,-698.73 566,-696.43 527.1,-687.45 511.84,-699.61 478,-678.43 463.76,-669.51 465.43,-661.6 455,-648.43 452.52,-645.3 449.92,-642.05 447.31,-638.82"/>
<polygon fill="black" stroke="black" stroke-width="1.54" points="449.86,-636.4 440.84,-630.84 444.42,-640.81 449.86,-636.4"/>
<polygon fill="snow" stroke="transparent" points="478,-663.43 478,-678.43 562,-678.43 562,-663.43 478,-663.43"/>
<text text-anchor="start" x="512" y="-667.23" font-family="arial" font-size="14.00" fill="#91c3df">85</text>
<polygon fill="snow" stroke="transparent" points="478,-648.43 478,-663.43 562,-663.43 562,-648.43 478,-648.43"/>
<text text-anchor="start" x="478" y="-652.23" font-family="arial" font-size="14.00" fill="#fdae6c">03d 01h 33m </text>
</g>
<!-- A8&#45;&gt;A6 -->
<g id="edge25" class="edge">
<title>A8&#45;&gt;A6</title>
<path fill="none" stroke="black" stroke-width="1.05" d="M714.96,-696.37C768.34,-663.42 845.38,-602.01 831,-528.43 808.09,-411.19 812.17,-350.32 710,-288.43 677.19,-268.55 635.66,-257.61 601.52,-251.61"/>
<polygon fill="black" stroke="black" stroke-width="1.05" points="602.08,-248.15 591.64,-249.97 600.93,-255.06 602.08,-248.15"/>
<polygon fill="snow" stroke="transparent" points="827,-483.43 827,-498.43 911,-498.43 911,-483.43 827,-483.43"/>
<text text-anchor="start" x="865" y="-487.23" font-family="arial" font-size="14.00" fill="#a3cbe3">9</text>
<polygon fill="snow" stroke="transparent" points="827,-468.43 827,-483.43 911,-483.43 911,-468.43 827,-468.43"/>
<text text-anchor="start" x="827" y="-472.23" font-family="arial" font-size="14.00" fill="#fda762">06d 00h 45m </text>
</g>
<!-- A8&#45;&gt;A8 -->
<g id="edge29" class="edge">
<title>A8&#45;&gt;A8</title>
<path fill="none" stroke="black" stroke-width="1.02" d="M737.07,-733.68C747.75,-732.12 755,-728.7 755,-723.43 755,-720.05 752.02,-717.43 747.08,-715.57"/>
<polygon fill="black" stroke="black" stroke-width="1.02" points="747.61,-712.1 737.07,-713.17 745.98,-718.91 747.61,-712.1"/>
<polygon fill="snow" stroke="transparent" points="755,-723.43 755,-738.43 839,-738.43 839,-723.43 755,-723.43"/>
<text text-anchor="start" x="793" y="-727.23" font-family="arial" font-size="14.00" fill="#a4cce4">5</text>
<polygon fill="snow" stroke="transparent" points="755,-708.43 755,-723.43 839,-723.43 839,-708.43 755,-708.43"/>
<text text-anchor="start" x="755" y="-712.23" font-family="arial" font-size="14.00" fill="#fdac69">03d 23h 58m </text>
</g>
</g>
</svg>
