<?xml version="1.0" encoding="UTF-8" standalone="no"?>
<!DOCTYPE svg PUBLIC "-//W3C//DTD SVG 1.1//EN"
 "http://www.w3.org/Graphics/SVG/1.1/DTD/svg11.dtd">
<!-- Generated by graphviz version 2.43.0 (0)
 -->
<!-- Title: mpdfg Pages: 1 -->
<svg width="730pt" height="1335pt"
 viewBox="0.00 0.00 730.00 1334.85" xmlns="http://www.w3.org/2000/svg" xmlns:xlink="http://www.w3.org/1999/xlink">
<g id="graph0" class="graph" transform="scale(1 1) rotate(0) translate(4 1330.85)">
<title>mpdfg</title>
<polygon fill="white" stroke="transparent" points="-4,4 -4,-1330.85 726,-1330.85 726,4 -4,4"/>
<!-- start -->
<g id="node1" class="node">
<title>start</title>
<ellipse fill="green" stroke="black" cx="665" cy="-1305.64" rx="21.43" ry="21.43"/>
<text text-anchor="middle" x="665" y="-1300.64" font-family="Times,serif" font-size="20.00">▲</text>
</g>
<!-- A0 -->
<g id="node3" class="node">
<title>A0</title>
<polygon fill="#08306b" stroke="transparent" points="421,-1203.43 421,-1226.43 530,-1226.43 530,-1203.43 421,-1203.43"/>
<polygon fill="none" stroke="black" points="421,-1203.43 421,-1226.43 530,-1226.43 530,-1203.43 421,-1203.43"/>
<text text-anchor="start" x="425" y="-1211.23" font-family="arial" font-size="14.00" fill="white">Make_order (99)</text>
<polygon fill="#fdb475" stroke="transparent" points="421,-1180.43 421,-1203.43 530,-1203.43 530,-1180.43 421,-1180.43"/>
<polygon fill="none" stroke="black" points="421,-1180.43 421,-1203.43 530,-1203.43 530,-1180.43 421,-1180.43"/>
<text text-anchor="start" x="455" y="-1188.23" font-family="arial" font-size="14.00" fill="white">Instant</text>
</g>
<!-- start&#45;&gt;A0 -->
<g id="edge1" class="edge">
<title>start&#45;&gt;A0</title>
<path fill="none" stroke="#bfbfbf" stroke-width="6.71" stroke-dasharray="5,2" d="M646.44,-1294.85C618.42,-1280.07 564.38,-1251.57 524.43,-1230.5"/>
<polygon fill="white" stroke="transparent" points="587.5,-1248.43 587.5,-1266.43 606.5,-1266.43 606.5,-1248.43 587.5,-1248.43"/>
<text text-anchor="start" x="587.5" y="-1253.63" font-family="arial" font-size="16.00" fill="#0b4f96">81</text>
</g>
<!-- A1 -->
<g id="node4" class="node">
<title>A1</title>
<polygon fill="#08306b" stroke="transparent" points="514,-1083.43 514,-1106.43 643,-1106.43 643,-1083.43 514,-1083.43"/>
<polygon fill="none" stroke="black" points="514,-1083.43 514,-1106.43 643,-1106.43 643,-1083.43 514,-1083.43"/>
<text text-anchor="start" x="518" y="-1091.23" font-family="arial" font-size="14.00" fill="white">Order Payment (99)</text>
<polygon fill="#fdb475" stroke="transparent" points="514,-1060.43 514,-1083.43 643,-1083.43 643,-1060.43 514,-1060.43"/>
<polygon fill="none" stroke="black" points="514,-1060.43 514,-1083.43 643,-1083.43 643,-1060.43 514,-1060.43"/>
<text text-anchor="start" x="558" y="-1068.23" font-family="arial" font-size="14.00" fill="white">Instant</text>
</g>
<!-- start&#45;&gt;A1 -->
<g id="edge2" class="edge">
<title>start&#45;&gt;A1</title>
<path fill="none" stroke="#bfbfbf" stroke-width="1.79" stroke-dasharray="5,2" d="M667.04,-1284.45C669.54,-1249.81 670.23,-1178.03 640,-1128.43 635.95,-1121.78 630.47,-1115.85 624.44,-1110.68"/>
<polygon fill="white" stroke="transparent" points="667.5,-1194.43 667.5,-1212.43 686.5,-1212.43 686.5,-1194.43 667.5,-1194.43"/>
<text text-anchor="start" x="667.5" y="-1199.63" font-family="arial" font-size="16.00" fill="#88bedc">12</text>
</g>
<!-- A2 -->
<g id="node5" class="node">
<title>A2</title>
<polygon fill="#08306b" stroke="transparent" points="371,-843.43 371,-866.43 508,-866.43 508,-843.43 371,-843.43"/>
<polygon fill="none" stroke="black" points="371,-843.43 371,-866.43 508,-866.43 508,-843.43 371,-843.43"/>
<text text-anchor="start" x="375" y="-851.23" font-family="arial" font-size="14.00" fill="white">Order_Approved (99)</text>
<polygon fill="#fdb475" stroke="transparent" points="371,-820.43 371,-843.43 508,-843.43 508,-820.43 371,-820.43"/>
<polygon fill="none" stroke="black" points="371,-820.43 371,-843.43 508,-843.43 508,-820.43 371,-820.43"/>
<text text-anchor="start" x="419" y="-828.23" font-family="arial" font-size="14.00" fill="white">Instant</text>
</g>
<!-- start&#45;&gt;A2 -->
<g id="edge3" class="edge">
<title>start&#45;&gt;A2</title>
<path fill="none" stroke="#bfbfbf" stroke-width="1.36" stroke-dasharray="5,2" d="M677.84,-1288.7C691.76,-1269.78 712,-1236.71 712,-1204.43 712,-1204.43 712,-1204.43 712,-962.43 712,-876.46 596.52,-852.4 515.77,-846.09"/>
<polygon fill="white" stroke="transparent" points="712,-1074.43 712,-1092.43 722,-1092.43 722,-1074.43 712,-1074.43"/>
<text text-anchor="start" x="712" y="-1079.63" font-family="arial" font-size="16.00" fill="#99c6e1">6</text>
</g>
<!-- complete -->
<g id="node2" class="node">
<title>complete</title>
<ellipse fill="red" stroke="black" cx="515" cy="-21.21" rx="21.43" ry="21.43"/>
<text text-anchor="middle" x="515" y="-16.21" font-family="Times,serif" font-size="20.00">■</text>
</g>
<!-- A0&#45;&gt;A1 -->
<g id="edge6" class="edge">
<title>A0&#45;&gt;A1</title>
<path fill="none" stroke="black" stroke-width="6.29" d="M475.65,-1176.12C477.25,-1160.82 481.47,-1141.94 492,-1128.43 495.27,-1124.23 499.04,-1120.41 503.15,-1116.91"/>
<polygon fill="black" stroke="black" stroke-width="6.29" points="506.8,-1121.05 511.41,-1110.61 500.12,-1112.3 506.8,-1121.05"/>
<polygon fill="snow" stroke="transparent" points="492.5,-1143.43 492.5,-1158.43 575.5,-1158.43 575.5,-1143.43 492.5,-1143.43"/>
<text text-anchor="start" x="526" y="-1147.23" font-family="arial" font-size="14.00" fill="#1059a1">75</text>
<polygon fill="snow" stroke="transparent" points="492.5,-1128.43 492.5,-1143.43 575.5,-1143.43 575.5,-1128.43 492.5,-1128.43"/>
<text text-anchor="start" x="492.5" y="-1132.23" font-family="arial" font-size="14.00" fill="#fdb272">03h 51m 44s </text>
</g>
<!-- A0&#45;&gt;A2 -->
<g id="edge12" class="edge">
<title>A0&#45;&gt;A2</title>
<path fill="none" stroke="black" stroke-width="2.36" d="M471.5,-1176.33C467.23,-1144 459.99,-1087.22 455,-1038.43 449.4,-983.57 444.44,-919.84 441.58,-880.82"/>
<polygon fill="black" stroke="black" stroke-width="2.36" points="445.04,-880.22 440.83,-870.5 438.06,-880.73 445.04,-880.22"/>
<polygon fill="snow" stroke="transparent" points="455.5,-1023.43 455.5,-1038.43 538.5,-1038.43 538.5,-1023.43 455.5,-1023.43"/>
<text text-anchor="start" x="489" y="-1027.23" font-family="arial" font-size="14.00" fill="#75b3d7">20</text>
<polygon fill="snow" stroke="transparent" points="455.5,-1008.43 455.5,-1023.43 538.5,-1023.43 538.5,-1008.43 455.5,-1008.43"/>
<text text-anchor="start" x="455.5" y="-1012.23" font-family="arial" font-size="14.00" fill="#fdb06f">06h 06m 39s </text>
</g>
<!-- A3 -->
<g id="node6" class="node">
<title>A3</title>
<polygon fill="#08306b" stroke="transparent" points="93,-963.43 93,-986.43 309,-986.43 309,-963.43 93,-963.43"/>
<polygon fill="none" stroke="black" points="93,-963.43 93,-986.43 309,-986.43 309,-963.43 93,-963.43"/>
<text text-anchor="start" x="97" y="-971.23" font-family="arial" font-size="14.00" fill="white">Package Received Expedition (99)</text>
<polygon fill="#fdb475" stroke="transparent" points="93,-940.43 93,-963.43 309,-963.43 309,-940.43 93,-940.43"/>
<polygon fill="none" stroke="black" points="93,-940.43 93,-963.43 309,-963.43 309,-940.43 93,-940.43"/>
<text text-anchor="start" x="180.5" y="-948.23" font-family="arial" font-size="14.00" fill="white">Instant</text>
</g>
<!-- A0&#45;&gt;A3 -->
<g id="edge21" class="edge">
<title>A0&#45;&gt;A3</title>
<path fill="none" stroke="black" stroke-width="1.21" d="M412.42,-1193.84C372,-1187.06 318.8,-1175.8 274,-1158.43 234.27,-1143.02 212.29,-1147.34 191,-1110.43 171.64,-1076.87 178.89,-1031.48 187.92,-1000.27"/>
<polygon fill="black" stroke="black" stroke-width="1.21" points="191.28,-1001.25 190.89,-990.67 184.59,-999.19 191.28,-1001.25"/>
<polygon fill="snow" stroke="transparent" points="191.5,-1083.43 191.5,-1098.43 274.5,-1098.43 274.5,-1083.43 191.5,-1083.43"/>
<text text-anchor="start" x="229" y="-1087.23" font-family="arial" font-size="14.00" fill="#9dc9e2">4</text>
<polygon fill="snow" stroke="transparent" points="191.5,-1068.43 191.5,-1083.43 274.5,-1083.43 274.5,-1068.43 191.5,-1068.43"/>
<text text-anchor="start" x="191.5" y="-1072.23" font-family="arial" font-size="14.00" fill="#fdab67">15h 53m 15s </text>
</g>
<!-- A1&#45;&gt;A0 -->
<g id="edge24" class="edge">
<title>A1&#45;&gt;A0</title>
<path fill="none" stroke="black" stroke-width="1.86" d="M583.38,-1110.52C585.04,-1125.75 584.42,-1144.62 575,-1158.43 567.92,-1168.81 557.8,-1176.77 546.69,-1182.86"/>
<polygon fill="black" stroke="black" stroke-width="1.86" points="545.02,-1179.78 537.61,-1187.36 548.13,-1186.06 545.02,-1179.78"/>
<polygon fill="snow" stroke="transparent" points="583.5,-1143.43 583.5,-1158.43 636.5,-1158.43 636.5,-1143.43 583.5,-1143.43"/>
<text text-anchor="start" x="602" y="-1147.23" font-family="arial" font-size="14.00" fill="#87bddc">13</text>
<polygon fill="snow" stroke="transparent" points="583.5,-1128.43 583.5,-1143.43 636.5,-1143.43 636.5,-1128.43 583.5,-1128.43"/>
<text text-anchor="start" x="583.5" y="-1132.23" font-family="arial" font-size="14.00" fill="#fdb475">01m 32s</text>
</g>
<!-- A1&#45;&gt;A2 -->
<g id="edge7" class="edge">
<title>A1&#45;&gt;A2</title>
<path fill="none" stroke="black" stroke-width="5.86" d="M580.29,-1056.37C582.04,-1026.57 582.24,-976.72 569,-936.43 561.07,-912.3 557.3,-904.94 538,-888.43 532.5,-883.72 526.41,-879.43 520.04,-875.55"/>
<polygon fill="black" stroke="black" stroke-width="5.86" points="522.43,-871.01 511.21,-870.49 517.34,-879.91 522.43,-871.01"/>
<polygon fill="snow" stroke="transparent" points="579.5,-963.43 579.5,-978.43 662.5,-978.43 662.5,-963.43 579.5,-963.43"/>
<text text-anchor="start" x="613" y="-967.23" font-family="arial" font-size="14.00" fill="#1864aa">69</text>
<polygon fill="snow" stroke="transparent" points="579.5,-948.43 579.5,-963.43 662.5,-963.43 662.5,-948.43 579.5,-948.43"/>
<text text-anchor="start" x="579.5" y="-952.23" font-family="arial" font-size="14.00" fill="#fdb171">04h 34m 48s </text>
</g>
<!-- A1&#45;&gt;A3 -->
<g id="edge14" class="edge">
<title>A1&#45;&gt;A3</title>
<path fill="none" stroke="black" stroke-width="2.14" d="M505.33,-1081.2C458.74,-1077.42 398.67,-1066.74 353,-1038.43 338.72,-1029.57 343.65,-1018.23 330,-1008.43 322.95,-1003.36 315.27,-998.85 307.28,-994.83"/>
<polygon fill="black" stroke="black" stroke-width="2.14" points="308.69,-991.62 298.16,-990.49 305.69,-997.94 308.69,-991.62"/>
<polygon fill="snow" stroke="transparent" points="353.5,-1023.43 353.5,-1038.43 436.5,-1038.43 436.5,-1023.43 353.5,-1023.43"/>
<text text-anchor="start" x="387" y="-1027.23" font-family="arial" font-size="14.00" fill="#7cb7d9">17</text>
<polygon fill="snow" stroke="transparent" points="353.5,-1008.43 353.5,-1023.43 436.5,-1023.43 436.5,-1008.43 353.5,-1008.43"/>
<text text-anchor="start" x="353.5" y="-1012.23" font-family="arial" font-size="14.00" fill="#fda661">21h 32m 28s </text>
</g>
<!-- A2&#45;&gt;A0 -->
<g id="edge20" class="edge">
<title>A2&#45;&gt;A0</title>
<path fill="none" stroke="black" stroke-width="1.29" d="M433.47,-870.7C429.47,-885.63 422.97,-904.13 413,-918.43 384.3,-959.6 368.72,-964.08 326,-990.43 309.06,-1000.87 295.88,-991.76 285,-1008.43 277.71,-1019.59 279.45,-1026.3 285,-1038.43 311.93,-1097.24 371.5,-1142.98 416.82,-1171.04"/>
<polygon fill="black" stroke="black" stroke-width="1.29" points="415.02,-1174.05 425.39,-1176.25 418.66,-1168.07 415.02,-1174.05"/>
<polygon fill="snow" stroke="transparent" points="285.5,-1023.43 285.5,-1038.43 326.5,-1038.43 326.5,-1023.43 285.5,-1023.43"/>
<text text-anchor="start" x="302" y="-1027.23" font-family="arial" font-size="14.00" fill="#9ac7e1">5</text>
<polygon fill="snow" stroke="transparent" points="285.5,-1008.43 285.5,-1023.43 326.5,-1023.43 326.5,-1008.43 285.5,-1008.43"/>
<text text-anchor="start" x="285.5" y="-1012.23" font-family="arial" font-size="14.00" fill="#fdb475">Instant</text>
</g>
<!-- A2&#45;&gt;A1 -->
<g id="edge13" class="edge">
<title>A2&#45;&gt;A1</title>
<path fill="none" stroke="black" stroke-width="1.79" d="M459.65,-870.43C463.93,-876.22 468.26,-882.43 472,-888.43 498.92,-931.61 494.09,-949.26 524,-990.43 530.65,-999.58 535.43,-999.21 542,-1008.43 550.39,-1020.2 557.77,-1034.23 563.63,-1046.89"/>
<polygon fill="black" stroke="black" stroke-width="1.79" points="560.54,-1048.54 567.81,-1056.25 566.93,-1045.69 560.54,-1048.54"/>
<polygon fill="snow" stroke="transparent" points="524.5,-963.43 524.5,-978.43 565.5,-978.43 565.5,-963.43 524.5,-963.43"/>
<text text-anchor="start" x="537" y="-967.23" font-family="arial" font-size="14.00" fill="#88bedc">12</text>
<polygon fill="snow" stroke="transparent" points="524.5,-948.43 524.5,-963.43 565.5,-963.43 565.5,-948.43 524.5,-948.43"/>
<text text-anchor="start" x="524.5" y="-952.23" font-family="arial" font-size="14.00" fill="#fdb475">Instant</text>
</g>
<!-- A2&#45;&gt;A3 -->
<g id="edge8" class="edge">
<title>A2&#45;&gt;A3</title>
<path fill="none" stroke="black" stroke-width="6.43" d="M362.32,-866.62C357.15,-867.95 352.01,-869.24 347,-870.43 306.04,-880.16 289.44,-865.7 254,-888.43 251.82,-889.82 238.01,-909.15 225.03,-927.7"/>
<polygon fill="black" stroke="black" stroke-width="6.43" points="220.27,-924.68 219.17,-936.1 229.5,-931.12 220.27,-924.68"/>
<polygon fill="snow" stroke="transparent" points="254.5,-903.43 254.5,-918.43 337.5,-918.43 337.5,-903.43 254.5,-903.43"/>
<text text-anchor="start" x="288" y="-907.23" font-family="arial" font-size="14.00" fill="#0e569e">77</text>
<polygon fill="snow" stroke="transparent" points="254.5,-888.43 254.5,-903.43 337.5,-903.43 337.5,-888.43 254.5,-888.43"/>
<text text-anchor="start" x="254.5" y="-892.23" font-family="arial" font-size="14.00" fill="#fdae6c">10h 11m 28s </text>
</g>
<!-- A7 -->
<g id="node10" class="node">
<title>A7</title>
<polygon fill="#094487" stroke="transparent" points="171,-723.43 171,-746.43 333,-746.43 333,-723.43 171,-723.43"/>
<polygon fill="none" stroke="black" points="171,-723.43 171,-746.43 333,-746.43 333,-723.43 171,-723.43"/>
<text text-anchor="start" x="175" y="-731.23" font-family="arial" font-size="14.00" fill="white">Shipping Warehouse (88)</text>
<polygon fill="#fdb475" stroke="transparent" points="171,-700.43 171,-723.43 333,-723.43 333,-700.43 171,-700.43"/>
<polygon fill="none" stroke="black" points="171,-700.43 171,-723.43 333,-723.43 333,-700.43 171,-700.43"/>
<text text-anchor="start" x="231.5" y="-708.23" font-family="arial" font-size="14.00" fill="white">Instant</text>
</g>
<!-- A2&#45;&gt;A7 -->
<g id="edge26" class="edge">
<title>A2&#45;&gt;A7</title>
<path fill="none" stroke="black" stroke-width="1.29" d="M397.5,-816.24C369.29,-798.44 331.83,-774.8 301.99,-755.97"/>
<polygon fill="black" stroke="black" stroke-width="1.29" points="303.71,-752.92 293.39,-750.54 299.97,-758.84 303.71,-752.92"/>
<polygon fill="snow" stroke="transparent" points="368.5,-783.43 368.5,-798.43 451.5,-798.43 451.5,-783.43 368.5,-783.43"/>
<text text-anchor="start" x="406" y="-787.23" font-family="arial" font-size="14.00" fill="#9ac7e1">5</text>
<polygon fill="snow" stroke="transparent" points="368.5,-768.43 368.5,-783.43 451.5,-783.43 451.5,-768.43 368.5,-768.43"/>
<text text-anchor="start" x="368.5" y="-772.23" font-family="arial" font-size="14.00" fill="#fdb272">03h 53m 48s </text>
</g>
<!-- A3&#45;&gt;A2 -->
<g id="edge25" class="edge">
<title>A3&#45;&gt;A2</title>
<path fill="none" stroke="black" stroke-width="1.21" d="M304.48,-936.4C315.95,-931.38 327.07,-925.44 337,-918.43 350.72,-908.74 347.29,-899.41 360,-888.43 365.11,-884.01 370.73,-879.84 376.55,-875.95"/>
<polygon fill="black" stroke="black" stroke-width="1.21" points="378.61,-878.79 385.17,-870.47 374.86,-872.88 378.61,-878.79"/>
<polygon fill="snow" stroke="transparent" points="360.5,-903.43 360.5,-918.43 413.5,-918.43 413.5,-903.43 360.5,-903.43"/>
<text text-anchor="start" x="383" y="-907.23" font-family="arial" font-size="14.00" fill="#9dc9e2">4</text>
<polygon fill="snow" stroke="transparent" points="360.5,-888.43 360.5,-903.43 413.5,-903.43 413.5,-888.43 360.5,-888.43"/>
<text text-anchor="start" x="360.5" y="-892.23" font-family="arial" font-size="14.00" fill="#fdb475">14m 30s</text>
</g>
<!-- A4 -->
<g id="node7" class="node">
<title>A4</title>
<polygon fill="#08306b" stroke="transparent" points="65,-483.43 65,-506.43 210,-506.43 210,-483.43 65,-483.43"/>
<polygon fill="none" stroke="black" points="65,-483.43 65,-506.43 210,-506.43 210,-483.43 65,-483.43"/>
<text text-anchor="start" x="69" y="-491.23" font-family="arial" font-size="14.00" fill="white">Package Shipping (99)</text>
<polygon fill="#fdb475" stroke="transparent" points="65,-460.43 65,-483.43 210,-483.43 210,-460.43 65,-460.43"/>
<polygon fill="none" stroke="black" points="65,-460.43 65,-483.43 210,-483.43 210,-460.43 65,-460.43"/>
<text text-anchor="start" x="117" y="-468.23" font-family="arial" font-size="14.00" fill="white">Instant</text>
</g>
<!-- A3&#45;&gt;A4 -->
<g id="edge9" class="edge">
<title>A3&#45;&gt;A4</title>
<path fill="none" stroke="black" stroke-width="1.79" d="M84.95,-936.71C40.39,-919.38 0,-890.86 0,-844.43 0,-844.43 0,-844.43 0,-602.43 0,-563.81 31.63,-535.06 64.49,-515.61"/>
<polygon fill="black" stroke="black" stroke-width="1.79" points="66.33,-518.59 73.31,-510.62 62.89,-512.5 66.33,-518.59"/>
<polygon fill="snow" stroke="transparent" points="0.5,-723.43 0.5,-738.43 83.5,-738.43 83.5,-723.43 0.5,-723.43"/>
<text text-anchor="start" x="34" y="-727.23" font-family="arial" font-size="14.00" fill="#88bedc">12</text>
<polygon fill="snow" stroke="transparent" points="0.5,-708.43 0.5,-723.43 83.5,-723.43 83.5,-708.43 0.5,-708.43"/>
<text text-anchor="start" x="0.5" y="-712.23" font-family="arial" font-size="14.00" fill="#fdac69">13h 52m 05s </text>
</g>
<!-- A6 -->
<g id="node9" class="node">
<title>A6</title>
<polygon fill="#08306b" stroke="transparent" points="177,-603.43 177,-626.43 311,-626.43 311,-603.43 177,-603.43"/>
<polygon fill="none" stroke="black" points="177,-603.43 177,-626.43 311,-626.43 311,-603.43 177,-603.43"/>
<text text-anchor="start" x="181" y="-611.23" font-family="arial" font-size="14.00" fill="white">Done_Approved (99)</text>
<polygon fill="#fdb475" stroke="transparent" points="177,-580.43 177,-603.43 311,-603.43 311,-580.43 177,-580.43"/>
<polygon fill="none" stroke="black" points="177,-580.43 177,-603.43 311,-603.43 311,-580.43 177,-580.43"/>
<text text-anchor="start" x="223.5" y="-588.23" font-family="arial" font-size="14.00" fill="white">Instant</text>
</g>
<!-- A3&#45;&gt;A6 -->
<g id="edge34" class="edge">
<title>A3&#45;&gt;A6</title>
<path fill="none" stroke="black" d="M177.32,-936.14C147.47,-899.75 101.77,-831.39 117,-768.43 131.11,-710.08 139.06,-693.24 179,-648.43 182.63,-644.36 186.71,-640.49 191.01,-636.85"/>
<polygon fill="black" stroke="black" points="193.28,-639.52 198.95,-630.56 188.94,-634.03 193.28,-639.52"/>
<polygon fill="snow" stroke="transparent" points="117.5,-783.43 117.5,-798.43 200.5,-798.43 200.5,-783.43 117.5,-783.43"/>
<text text-anchor="start" x="155" y="-787.23" font-family="arial" font-size="14.00" fill="#a4cce4">1</text>
<polygon fill="snow" stroke="transparent" points="117.5,-768.43 117.5,-783.43 200.5,-783.43 200.5,-768.43 117.5,-768.43"/>
<text text-anchor="start" x="117.5" y="-772.23" font-family="arial" font-size="14.00" fill="#fdaa65">16h 37m 00s </text>
</g>
<!-- A3&#45;&gt;A7 -->
<g id="edge15" class="edge">
<title>A3&#45;&gt;A7</title>
<path fill="none" stroke="black" stroke-width="6.79" d="M195.75,-936.29C190.83,-906.64 185.76,-857.12 197,-816.43 202.69,-795.81 214.37,-775.15 225.5,-758.65"/>
<polygon fill="black" stroke="black" stroke-width="6.79" points="230.39,-762.03 231.23,-750.43 220.64,-755.23 230.39,-762.03"/>
<polygon fill="snow" stroke="transparent" points="197.5,-843.43 197.5,-858.43 280.5,-858.43 280.5,-843.43 197.5,-843.43"/>
<text text-anchor="start" x="231" y="-847.23" font-family="arial" font-size="14.00" fill="#0b4e95">82</text>
<polygon fill="snow" stroke="transparent" points="197.5,-828.43 197.5,-843.43 280.5,-843.43 280.5,-828.43 197.5,-828.43"/>
<text text-anchor="start" x="197.5" y="-832.23" font-family="arial" font-size="14.00" fill="#fdb272">04h 15m 27s </text>
</g>
<!-- A5 -->
<g id="node8" class="node">
<title>A5</title>
<polygon fill="#08306b" stroke="transparent" points="275,-123.43 275,-146.43 456,-146.43 456,-123.43 275,-123.43"/>
<polygon fill="none" stroke="black" points="275,-123.43 275,-146.43 456,-146.43 456,-123.43 275,-123.43"/>
<text text-anchor="start" x="279" y="-131.23" font-family="arial" font-size="14.00" fill="white">Received_by_Customer (99)</text>
<polygon fill="#fdb475" stroke="transparent" points="275,-100.43 275,-123.43 456,-123.43 456,-100.43 275,-100.43"/>
<polygon fill="none" stroke="black" points="275,-100.43 275,-123.43 456,-123.43 456,-100.43 275,-100.43"/>
<text text-anchor="start" x="345" y="-108.23" font-family="arial" font-size="14.00" fill="white">Instant</text>
</g>
<!-- A4&#45;&gt;A5 -->
<g id="edge10" class="edge">
<title>A4&#45;&gt;A5</title>
<path fill="none" stroke="black" stroke-width="1.14" d="M205.31,-456.34C213.9,-451.23 222.09,-445.29 229,-438.43 281.6,-386.18 261.75,-350.69 302,-288.43 307.65,-279.68 311.95,-279.53 317,-270.43 336.47,-235.31 349.63,-191.03 357.18,-160.49"/>
<polygon fill="black" stroke="black" stroke-width="1.14" points="360.6,-161.23 359.53,-150.69 353.79,-159.6 360.6,-161.23"/>
<polygon fill="snow" stroke="transparent" points="302.5,-303.43 302.5,-318.43 385.5,-318.43 385.5,-303.43 302.5,-303.43"/>
<text text-anchor="start" x="340" y="-307.23" font-family="arial" font-size="14.00" fill="#a0cae3">3</text>
<polygon fill="snow" stroke="transparent" points="302.5,-288.43 302.5,-303.43 385.5,-303.43 385.5,-288.43 302.5,-288.43"/>
<text text-anchor="start" x="302.5" y="-292.23" font-family="arial" font-size="14.00" fill="#fdae6c">09h 35m 20s </text>
</g>
<!-- A4&#45;&gt;A6 -->
<g id="edge31" class="edge">
<title>A4&#45;&gt;A6</title>
<path fill="none" stroke="black" d="M105.17,-510.58C91.34,-525.12 80.62,-543.28 92,-558.43 93.21,-560.03 125.06,-569.36 159.29,-579.02"/>
<polygon fill="black" stroke="black" points="158.42,-582.41 168.99,-581.74 160.31,-575.67 158.42,-582.41"/>
<polygon fill="snow" stroke="transparent" points="92,-543.43 92,-558.43 176,-558.43 176,-543.43 92,-543.43"/>
<text text-anchor="start" x="130" y="-547.23" font-family="arial" font-size="14.00" fill="#a4cce4">1</text>
<polygon fill="snow" stroke="transparent" points="92,-528.43 92,-543.43 176,-543.43 176,-528.43 92,-528.43"/>
<text text-anchor="start" x="92" y="-532.23" font-family="arial" font-size="14.00" fill="#fda058">01d 08h 19m </text>
</g>
<!-- A8 -->
<g id="node11" class="node">
<title>A8</title>
<polygon fill="#083573" stroke="transparent" points="62,-363.43 62,-386.43 227,-386.43 227,-363.43 62,-363.43"/>
<polygon fill="none" stroke="black" points="62,-363.43 62,-386.43 227,-386.43 227,-363.43 62,-363.43"/>
<text text-anchor="start" x="66" y="-371.23" font-family="arial" font-size="14.00" fill="white">Receiving warehouse (96)</text>
<polygon fill="#fdb475" stroke="transparent" points="62,-340.43 62,-363.43 227,-363.43 227,-340.43 62,-340.43"/>
<polygon fill="none" stroke="black" points="62,-340.43 62,-363.43 227,-363.43 227,-340.43 62,-340.43"/>
<text text-anchor="start" x="124" y="-348.23" font-family="arial" font-size="14.00" fill="white">Instant</text>
</g>
<!-- A4&#45;&gt;A8 -->
<g id="edge17" class="edge">
<title>A4&#45;&gt;A8</title>
<path fill="none" stroke="black" stroke-width="7.71" d="M138.55,-456.24C139.52,-439.89 140.79,-418.62 141.85,-400.67"/>
<polygon fill="black" stroke="black" stroke-width="7.71" points="148.59,-400.92 142.45,-390.54 135.12,-400.12 148.59,-400.92"/>
<polygon fill="snow" stroke="transparent" points="142.5,-423.43 142.5,-438.43 225.5,-438.43 225.5,-423.43 142.5,-423.43"/>
<text text-anchor="start" x="176" y="-427.23" font-family="arial" font-size="14.00" fill="#083776">95</text>
<polygon fill="snow" stroke="transparent" points="142.5,-408.43 142.5,-423.43 225.5,-423.43 225.5,-408.43 142.5,-408.43"/>
<text text-anchor="start" x="142.5" y="-412.23" font-family="arial" font-size="14.00" fill="#fda762">20h 43m 11s </text>
</g>
<!-- A5&#45;&gt;complete -->
<g id="edge5" class="edge">
<title>A5&#45;&gt;complete</title>
<path fill="none" stroke="#bfbfbf" stroke-width="1.79" stroke-dasharray="5,2" d="M404.02,-96.36C434.4,-76.06 475.11,-48.87 497.82,-33.69"/>
<polygon fill="white" stroke="transparent" points="453.5,-60.43 453.5,-78.43 472.5,-78.43 472.5,-60.43 453.5,-60.43"/>
<text text-anchor="start" x="453.5" y="-65.63" font-family="arial" font-size="16.00" fill="#88bedc">12</text>
</g>
<!-- A5&#45;&gt;A6 -->
<g id="edge11" class="edge">
<title>A5&#45;&gt;A6</title>
<path fill="none" stroke="black" stroke-width="7.14" d="M440.65,-150.44C479.59,-169.12 519,-198.81 519,-242.43 519,-484.43 519,-484.43 519,-484.43 519,-568.13 410.08,-593.21 329.34,-600.31"/>
<polygon fill="black" stroke="black" stroke-width="7.14" points="328.62,-594.1 319.14,-601.12 329.61,-606.55 328.62,-594.1"/>
<polygon fill="snow" stroke="transparent" points="519.5,-363.43 519.5,-378.43 602.5,-378.43 602.5,-363.43 519.5,-363.43"/>
<text text-anchor="start" x="553" y="-367.23" font-family="arial" font-size="14.00" fill="#094589">87</text>
<polygon fill="snow" stroke="transparent" points="519.5,-348.43 519.5,-363.43 602.5,-363.43 602.5,-348.43 519.5,-348.43"/>
<text text-anchor="start" x="519.5" y="-352.23" font-family="arial" font-size="14.00" fill="#fda55f">23h 19m 06s </text>
</g>
<!-- A6&#45;&gt;complete -->
<g id="edge4" class="edge">
<title>A6&#45;&gt;complete</title>
<path fill="none" stroke="#bfbfbf" stroke-width="7.14" stroke-dasharray="5,2" d="M319.34,-594.86C431.67,-581.47 630,-548.72 630,-484.43 630,-484.43 630,-484.43 630,-122.43 630,-72.51 567.65,-41.77 534.77,-29.03"/>
<polygon fill="white" stroke="transparent" points="630.5,-294.43 630.5,-312.43 649.5,-312.43 649.5,-294.43 630.5,-294.43"/>
<text text-anchor="start" x="630.5" y="-299.63" font-family="arial" font-size="16.00" fill="#094589">87</text>
</g>
<!-- A6&#45;&gt;A4 -->
<g id="edge23" class="edge">
<title>A6&#45;&gt;A4</title>
<path fill="none" stroke="black" d="M218.86,-576.28C213.52,-570.49 207.99,-564.33 203,-558.43 192.15,-545.6 191,-541.12 180,-528.43 177.01,-524.97 173.81,-521.45 170.57,-517.96"/>
<polygon fill="black" stroke="black" points="172.87,-515.31 163.45,-510.46 167.8,-520.13 172.87,-515.31"/>
<polygon fill="snow" stroke="transparent" points="203,-543.43 203,-558.43 287,-558.43 287,-543.43 203,-543.43"/>
<text text-anchor="start" x="241" y="-547.23" font-family="arial" font-size="14.00" fill="#a4cce4">1</text>
<polygon fill="snow" stroke="transparent" points="203,-528.43 203,-543.43 287,-543.43 287,-528.43 203,-528.43"/>
<text text-anchor="start" x="203" y="-532.23" font-family="arial" font-size="14.00" fill="#fd9c52">01d 16h 01m </text>
</g>
<!-- A6&#45;&gt;A5 -->
<g id="edge29" class="edge">
<title>A6&#45;&gt;A5</title>
<path fill="none" stroke="black" stroke-width="1.57" d="M319.23,-576.98C358.72,-558.36 399,-528.56 399,-484.43 399,-484.43 399,-484.43 399,-242.43 399,-213.88 389.7,-182.92 380.83,-159.88"/>
<polygon fill="black" stroke="black" stroke-width="1.57" points="384.05,-158.5 377.08,-150.52 377.55,-161.1 384.05,-158.5"/>
<polygon fill="snow" stroke="transparent" points="399,-363.43 399,-378.43 483,-378.43 483,-363.43 399,-363.43"/>
<text text-anchor="start" x="437" y="-367.23" font-family="arial" font-size="14.00" fill="#91c3df">9</text>
<polygon fill="snow" stroke="transparent" points="399,-348.43 399,-363.43 483,-363.43 483,-348.43 399,-348.43"/>
<text text-anchor="start" x="399" y="-352.23" font-family="arial" font-size="14.00" fill="#7f2704">11d 18h 57m </text>
</g>
<!-- A6&#45;&gt;A7 -->
<g id="edge35" class="edge">
<title>A6&#45;&gt;A7</title>
<path fill="none" stroke="black" d="M262.64,-630.87C265.68,-636.43 268.36,-642.44 270,-648.43 273.38,-660.78 271.62,-674.38 268.13,-686.52"/>
<polygon fill="black" stroke="black" points="264.71,-685.71 264.87,-696.31 271.35,-687.93 264.71,-685.71"/>
<polygon fill="snow" stroke="transparent" points="272.5,-663.43 272.5,-678.43 355.5,-678.43 355.5,-663.43 272.5,-663.43"/>
<text text-anchor="start" x="310" y="-667.23" font-family="arial" font-size="14.00" fill="#a4cce4">1</text>
<polygon fill="snow" stroke="transparent" points="272.5,-648.43 272.5,-663.43 355.5,-663.43 355.5,-648.43 272.5,-648.43"/>
<text text-anchor="start" x="272.5" y="-652.23" font-family="arial" font-size="14.00" fill="#fdad6a">11h 54m 00s </text>
</g>
<!-- A9 -->
<g id="node12" class="node">
<title>A9</title>
<polygon fill="#083776" stroke="transparent" points="13,-243.43 13,-266.43 176,-266.43 176,-243.43 13,-243.43"/>
<polygon fill="none" stroke="black" points="13,-243.43 13,-266.43 176,-266.43 176,-243.43 13,-243.43"/>
<text text-anchor="start" x="17" y="-251.23" font-family="arial" font-size="14.00" fill="white">Packet_to_Customer (95)</text>
<polygon fill="#fdb475" stroke="transparent" points="13,-220.43 13,-243.43 176,-243.43 176,-220.43 13,-220.43"/>
<polygon fill="none" stroke="black" points="13,-220.43 13,-243.43 176,-243.43 176,-220.43 13,-220.43"/>
<text text-anchor="start" x="74" y="-228.23" font-family="arial" font-size="14.00" fill="white">Instant</text>
</g>
<!-- A6&#45;&gt;A9 -->
<g id="edge32" class="edge">
<title>A6&#45;&gt;A9</title>
<path fill="none" stroke="black" d="M168.69,-577.73C167.11,-577.29 165.55,-576.85 164,-576.43 128.85,-566.78 114.73,-578.02 84,-558.43 61.29,-543.94 56,-535.81 47,-510.43 14.01,-417.42 7.25,-376.88 51,-288.43 52.66,-285.07 54.67,-281.81 56.91,-278.68"/>
<polygon fill="black" stroke="black" points="59.76,-280.72 63.27,-270.72 54.29,-276.35 59.76,-280.72"/>
<polygon fill="snow" stroke="transparent" points="26.5,-423.43 26.5,-438.43 109.5,-438.43 109.5,-423.43 26.5,-423.43"/>
<text text-anchor="start" x="64" y="-427.23" font-family="arial" font-size="14.00" fill="#a4cce4">1</text>
<polygon fill="snow" stroke="transparent" points="26.5,-408.43 26.5,-423.43 109.5,-423.43 109.5,-408.43 26.5,-408.43"/>
<text text-anchor="start" x="26.5" y="-412.23" font-family="arial" font-size="14.00" fill="#fdab67">15h 53m 00s </text>
</g>
<!-- A7&#45;&gt;A3 -->
<g id="edge30" class="edge">
<title>A7&#45;&gt;A3</title>
<path fill="none" stroke="black" d="M267.73,-750.52C284.27,-781.7 304.73,-834.19 280,-870.43 267.62,-888.56 249.88,-873.27 234,-888.43 223.19,-898.74 215.67,-913.24 210.57,-926.67"/>
<polygon fill="black" stroke="black" points="207.24,-925.59 207.27,-936.18 213.86,-927.88 207.24,-925.59"/>
<polygon fill="snow" stroke="transparent" points="292.5,-843.43 292.5,-858.43 333.5,-858.43 333.5,-843.43 292.5,-843.43"/>
<text text-anchor="start" x="309" y="-847.23" font-family="arial" font-size="14.00" fill="#a4cce4">1</text>
<polygon fill="snow" stroke="transparent" points="292.5,-828.43 292.5,-843.43 333.5,-843.43 333.5,-828.43 292.5,-828.43"/>
<text text-anchor="start" x="292.5" y="-832.23" font-family="arial" font-size="14.00" fill="#fdb475">Instant</text>
</g>
<!-- A7&#45;&gt;A4 -->
<g id="edge16" class="edge">
<title>A7&#45;&gt;A4</title>
<path fill="none" stroke="black" stroke-width="7.07" d="M162.92,-697.35C129.99,-683.29 96.08,-662.01 77,-630.43 53.51,-591.53 61.76,-568.05 84,-528.43 86.07,-524.73 88.59,-521.21 91.38,-517.9"/>
<polygon fill="black" stroke="black" stroke-width="7.07" points="95.97,-522.06 98.34,-510.54 86.97,-513.56 95.97,-522.06"/>
<polygon fill="snow" stroke="transparent" points="77.5,-603.43 77.5,-618.43 160.5,-618.43 160.5,-603.43 77.5,-603.43"/>
<text text-anchor="start" x="111" y="-607.23" font-family="arial" font-size="14.00" fill="#09478c">86</text>
<polygon fill="snow" stroke="transparent" points="77.5,-588.43 77.5,-603.43 160.5,-603.43 160.5,-588.43 77.5,-588.43"/>
<text text-anchor="start" x="77.5" y="-592.23" font-family="arial" font-size="14.00" fill="#fdb06f">06h 27m 41s </text>
</g>
<!-- A7&#45;&gt;A6 -->
<g id="edge22" class="edge">
<title>A7&#45;&gt;A6</title>
<path fill="none" stroke="black" d="M201.52,-696.16C195.7,-691.06 190.58,-685.17 187,-678.43 180.75,-666.65 181.12,-660.39 187,-648.43 188.81,-644.74 191.09,-641.28 193.69,-638.05"/>
<polygon fill="black" stroke="black" points="196.49,-640.18 200.74,-630.47 191.37,-635.41 196.49,-640.18"/>
<polygon fill="snow" stroke="transparent" points="187.5,-663.43 187.5,-678.43 270.5,-678.43 270.5,-663.43 187.5,-663.43"/>
<text text-anchor="start" x="225" y="-667.23" font-family="arial" font-size="14.00" fill="#a4cce4">1</text>
<polygon fill="snow" stroke="transparent" points="187.5,-648.43 187.5,-663.43 270.5,-663.43 270.5,-648.43 187.5,-648.43"/>
<text text-anchor="start" x="187.5" y="-652.23" font-family="arial" font-size="14.00" fill="#fdb171">05h 32m 00s </text>
</g>
<!-- A8&#45;&gt;A5 -->
<g id="edge27" class="edge">
<title>A8&#45;&gt;A5</title>
<path fill="none" stroke="black" stroke-width="1.07" d="M178.25,-336.26C184.01,-330.81 189.55,-324.77 194,-318.43 221.95,-278.55 203.91,-254.71 234,-216.43 253.2,-191.99 280.62,-171.35 305.42,-155.85"/>
<polygon fill="black" stroke="black" stroke-width="1.07" points="307.34,-158.78 314.06,-150.59 303.7,-152.8 307.34,-158.78"/>
<polygon fill="snow" stroke="transparent" points="234.5,-243.43 234.5,-258.43 317.5,-258.43 317.5,-243.43 234.5,-243.43"/>
<text text-anchor="start" x="272" y="-247.23" font-family="arial" font-size="14.00" fill="#a1cbe3">2</text>
<polygon fill="snow" stroke="transparent" points="234.5,-228.43 234.5,-243.43 317.5,-243.43 317.5,-228.43 234.5,-228.43"/>
<text text-anchor="start" x="234.5" y="-232.23" font-family="arial" font-size="14.00" fill="#fdad6a">11h 15m 30s </text>
</g>
<!-- A8&#45;&gt;A9 -->
<g id="edge18" class="edge">
<title>A8&#45;&gt;A9</title>
<path fill="none" stroke="black" stroke-width="7.64" d="M75.45,-336.29C68.96,-331.29 63.23,-325.38 59,-318.43 51.44,-306 55.52,-291.67 63.15,-278.96"/>
<polygon fill="black" stroke="black" stroke-width="7.64" points="68.83,-282.49 68.89,-270.46 57.75,-275 68.83,-282.49"/>
<polygon fill="snow" stroke="transparent" points="59.5,-303.43 59.5,-318.43 142.5,-318.43 142.5,-303.43 59.5,-303.43"/>
<text text-anchor="start" x="93" y="-307.23" font-family="arial" font-size="14.00" fill="#083877">94</text>
<polygon fill="snow" stroke="transparent" points="59.5,-288.43 59.5,-303.43 142.5,-303.43 142.5,-288.43 59.5,-288.43"/>
<text text-anchor="start" x="59.5" y="-292.23" font-family="arial" font-size="14.00" fill="#fdb06f">07h 25m 28s </text>
</g>
<!-- A9&#45;&gt;A5 -->
<g id="edge19" class="edge">
<title>A9&#45;&gt;A5</title>
<path fill="none" stroke="black" stroke-width="7" d="M97.67,-216.39C101.34,-200.19 108.62,-180.26 123,-168.43 143.64,-151.44 201.98,-140.54 256.2,-133.84"/>
<polygon fill="black" stroke="black" stroke-width="7" points="257.07,-139.91 266.27,-132.64 255.62,-127.75 257.07,-139.91"/>
<polygon fill="snow" stroke="transparent" points="123.5,-183.43 123.5,-198.43 206.5,-198.43 206.5,-183.43 123.5,-183.43"/>
<text text-anchor="start" x="157" y="-187.23" font-family="arial" font-size="14.00" fill="#0a498e">85</text>
<polygon fill="snow" stroke="transparent" points="123.5,-168.43 123.5,-183.43 206.5,-183.43 206.5,-168.43 123.5,-168.43"/>
<text text-anchor="start" x="123.5" y="-172.23" font-family="arial" font-size="14.00" fill="#fdb06f">06h 20m 38s </text>
</g>
<!-- A9&#45;&gt;A6 -->
<g id="edge28" class="edge">
<title>A9&#45;&gt;A6</title>
<path fill="none" stroke="black" stroke-width="1.57" d="M166.21,-270.61C195.49,-285.2 226.29,-306.59 243,-336.43 341.4,-512.13 311.37,-498.61 287,-558.43 285.67,-561.69 283.97,-564.84 282.01,-567.86"/>
<polygon fill="black" stroke="black" stroke-width="1.57" points="279.12,-565.88 275.93,-575.98 284.72,-570.08 279.12,-565.88"/>
<polygon fill="snow" stroke="transparent" points="296.5,-423.43 296.5,-438.43 379.5,-438.43 379.5,-423.43 296.5,-423.43"/>
<text text-anchor="start" x="334" y="-427.23" font-family="arial" font-size="14.00" fill="#91c3df">9</text>
<polygon fill="snow" stroke="transparent" points="296.5,-408.43 296.5,-423.43 379.5,-423.43 379.5,-408.43 296.5,-408.43"/>
<text text-anchor="start" x="296.5" y="-412.23" font-family="arial" font-size="14.00" fill="#fdab67">15h 32m 33s </text>
</g>
<!-- A9&#45;&gt;A8 -->
<g id="edge33" class="edge">
<title>A9&#45;&gt;A8</title>
<path fill="none" stroke="black" d="M129.43,-270.44C134.5,-275.8 139,-281.84 142,-288.43 147.29,-300.03 148.78,-313.75 148.62,-326.21"/>
<polygon fill="black" stroke="black" points="145.12,-326.15 148.15,-336.31 152.11,-326.48 145.12,-326.15"/>
<polygon fill="snow" stroke="transparent" points="149.5,-303.43 149.5,-318.43 190.5,-318.43 190.5,-303.43 149.5,-303.43"/>
<text text-anchor="start" x="166" y="-307.23" font-family="arial" font-size="14.00" fill="#a4cce4">1</text>
<polygon fill="snow" stroke="transparent" points="149.5,-288.43 149.5,-303.43 190.5,-303.43 190.5,-288.43 149.5,-288.43"/>
<text text-anchor="start" x="149.5" y="-292.23" font-family="arial" font-size="14.00" fill="#fdb475">Instant</text>
</g>
</g>
</svg>
