<?xml version="1.0" encoding="utf-8" standalone="no"?>
<!DOCTYPE svg PUBLIC "-//W3C//DTD SVG 1.1//EN"
  "http://www.w3.org/Graphics/SVG/1.1/DTD/svg11.dtd">
<svg xmlns:xlink="http://www.w3.org/1999/xlink" width="447.599304pt" height="278.39952pt" viewBox="0 0 447.599304 278.39952" xmlns="http://www.w3.org/2000/svg" version="1.1">
 <metadata>
  <rdf:RDF xmlns:dc="http://purl.org/dc/elements/1.1/" xmlns:cc="http://creativecommons.org/ns#" xmlns:rdf="http://www.w3.org/1999/02/22-rdf-syntax-ns#">
   <cc:Work>
    <dc:type rdf:resource="http://purl.org/dc/dcmitype/StillImage"/>
    <dc:date>2025-09-16T10:33:57.869967</dc:date>
    <dc:format>image/svg+xml</dc:format>
    <dc:creator>
     <cc:Agent>
      <dc:title>Matplotlib v3.9.4, https://matplotlib.org/</dc:title>
     </cc:Agent>
    </dc:creator>
   </cc:Work>
  </rdf:RDF>
 </metadata>
 <defs>
  <style type="text/css">*{stroke-linejoin: round; stroke-linecap: butt}</style>
 </defs>
 <g id="figure_1">
  <g id="patch_1">
   <path d="M 0 278.39952 
L 447.599304 278.39952 
L 447.599304 0 
L 0 0 
z
" style="fill: #ffffff"/>
  </g>
  <g id="axes_1">
   <g id="patch_2">
    <path d="M 40.403125 244.221395 
L 439.965015 244.221395 
L 439.965015 3.6 
L 40.403125 3.6 
z
" style="fill: #ffffff"/>
   </g>
   <g id="matplotlib.axis_1">
    <g id="xtick_1">
     <g id="line2d_1">
      <path d="M 44.320398 244.221395 
L 44.320398 3.6 
" clip-path="url(#p96399f1431)" style="fill: none; stroke-dasharray: 1.85,0.8; stroke-dashoffset: 0; stroke: #b0b0b0; stroke-opacity: 0.7; stroke-width: 0.5"/>
     </g>
     <g id="line2d_2">
      <defs>
       <path id="m3e9319af4d" d="M 0 0 
L 0 3.5 
" style="stroke: #000000; stroke-width: 0.8"/>
      </defs>
      <g>
       <use xlink:href="#m3e9319af4d" x="44.320398" y="244.221395" style="stroke: #000000; stroke-width: 0.8"/>
      </g>
     </g>
     <g id="text_1">
      <!-- 0.0 -->
      <g transform="translate(36.368836 258.819832) scale(0.1 -0.1)">
       <defs>
        <path id="DejaVuSerif-30" d="M 2034 219 
Q 2513 219 2750 744 
Q 2988 1269 2988 2328 
Q 2988 3391 2750 3916 
Q 2513 4441 2034 4441 
Q 1556 4441 1318 3916 
Q 1081 3391 1081 2328 
Q 1081 1269 1318 744 
Q 1556 219 2034 219 
z
M 2034 -91 
Q 1275 -91 848 546 
Q 422 1184 422 2328 
Q 422 3475 848 4112 
Q 1275 4750 2034 4750 
Q 2797 4750 3222 4112 
Q 3647 3475 3647 2328 
Q 3647 1184 3222 546 
Q 2797 -91 2034 -91 
z
" transform="scale(0.015625)"/>
        <path id="DejaVuSerif-2e" d="M 603 325 
Q 603 500 722 622 
Q 841 744 1019 744 
Q 1191 744 1312 622 
Q 1434 500 1434 325 
Q 1434 153 1312 31 
Q 1191 -91 1019 -91 
Q 841 -91 722 29 
Q 603 150 603 325 
z
" transform="scale(0.015625)"/>
       </defs>
       <use xlink:href="#DejaVuSerif-30"/>
       <use xlink:href="#DejaVuSerif-2e" x="63.623047"/>
       <use xlink:href="#DejaVuSerif-30" x="95.410156"/>
      </g>
     </g>
    </g>
    <g id="xtick_2">
     <g id="line2d_3">
      <path d="M 93.286316 244.221395 
L 93.286316 3.6 
" clip-path="url(#p96399f1431)" style="fill: none; stroke-dasharray: 1.85,0.8; stroke-dashoffset: 0; stroke: #b0b0b0; stroke-opacity: 0.7; stroke-width: 0.5"/>
     </g>
     <g id="line2d_4">
      <g>
       <use xlink:href="#m3e9319af4d" x="93.286316" y="244.221395" style="stroke: #000000; stroke-width: 0.8"/>
      </g>
     </g>
     <g id="text_2">
      <!-- 0.5 -->
      <g transform="translate(85.334754 258.819832) scale(0.1 -0.1)">
       <defs>
        <path id="DejaVuSerif-35" d="M 3219 4666 
L 3219 4153 
L 1081 4153 
L 1081 2816 
Q 1244 2928 1461 2984 
Q 1678 3041 1947 3041 
Q 2703 3041 3140 2622 
Q 3578 2203 3578 1478 
Q 3578 738 3136 323 
Q 2694 -91 1894 -91 
Q 1572 -91 1234 -12 
Q 897 66 544 225 
L 544 1131 
L 897 1131 
Q 925 688 1179 453 
Q 1434 219 1894 219 
Q 2388 219 2653 544 
Q 2919 869 2919 1478 
Q 2919 2084 2655 2407 
Q 2391 2731 1894 2731 
Q 1613 2731 1398 2631 
Q 1184 2531 1019 2322 
L 750 2322 
L 750 4666 
L 3219 4666 
z
" transform="scale(0.015625)"/>
       </defs>
       <use xlink:href="#DejaVuSerif-30"/>
       <use xlink:href="#DejaVuSerif-2e" x="63.623047"/>
       <use xlink:href="#DejaVuSerif-35" x="95.410156"/>
      </g>
     </g>
    </g>
    <g id="xtick_3">
     <g id="line2d_5">
      <path d="M 142.252234 244.221395 
L 142.252234 3.6 
" clip-path="url(#p96399f1431)" style="fill: none; stroke-dasharray: 1.85,0.8; stroke-dashoffset: 0; stroke: #b0b0b0; stroke-opacity: 0.7; stroke-width: 0.5"/>
     </g>
     <g id="line2d_6">
      <g>
       <use xlink:href="#m3e9319af4d" x="142.252234" y="244.221395" style="stroke: #000000; stroke-width: 0.8"/>
      </g>
     </g>
     <g id="text_3">
      <!-- 1.0 -->
      <g transform="translate(134.300672 258.819832) scale(0.1 -0.1)">
       <defs>
        <path id="DejaVuSerif-31" d="M 909 0 
L 909 331 
L 1722 331 
L 1722 4213 
L 781 3603 
L 781 4013 
L 1919 4750 
L 2350 4750 
L 2350 331 
L 3163 331 
L 3163 0 
L 909 0 
z
" transform="scale(0.015625)"/>
       </defs>
       <use xlink:href="#DejaVuSerif-31"/>
       <use xlink:href="#DejaVuSerif-2e" x="63.623047"/>
       <use xlink:href="#DejaVuSerif-30" x="95.410156"/>
      </g>
     </g>
    </g>
    <g id="xtick_4">
     <g id="line2d_7">
      <path d="M 191.218152 244.221395 
L 191.218152 3.6 
" clip-path="url(#p96399f1431)" style="fill: none; stroke-dasharray: 1.85,0.8; stroke-dashoffset: 0; stroke: #b0b0b0; stroke-opacity: 0.7; stroke-width: 0.5"/>
     </g>
     <g id="line2d_8">
      <g>
       <use xlink:href="#m3e9319af4d" x="191.218152" y="244.221395" style="stroke: #000000; stroke-width: 0.8"/>
      </g>
     </g>
     <g id="text_4">
      <!-- 1.5 -->
      <g transform="translate(183.26659 258.819832) scale(0.1 -0.1)">
       <use xlink:href="#DejaVuSerif-31"/>
       <use xlink:href="#DejaVuSerif-2e" x="63.623047"/>
       <use xlink:href="#DejaVuSerif-35" x="95.410156"/>
      </g>
     </g>
    </g>
    <g id="xtick_5">
     <g id="line2d_9">
      <path d="M 240.18407 244.221395 
L 240.18407 3.6 
" clip-path="url(#p96399f1431)" style="fill: none; stroke-dasharray: 1.85,0.8; stroke-dashoffset: 0; stroke: #b0b0b0; stroke-opacity: 0.7; stroke-width: 0.5"/>
     </g>
     <g id="line2d_10">
      <g>
       <use xlink:href="#m3e9319af4d" x="240.18407" y="244.221395" style="stroke: #000000; stroke-width: 0.8"/>
      </g>
     </g>
     <g id="text_5">
      <!-- 2.0 -->
      <g transform="translate(232.232508 258.819832) scale(0.1 -0.1)">
       <defs>
        <path id="DejaVuSerif-32" d="M 819 3553 
L 469 3553 
L 469 4384 
Q 803 4563 1142 4656 
Q 1481 4750 1806 4750 
Q 2534 4750 2956 4397 
Q 3378 4044 3378 3438 
Q 3378 2753 2422 1800 
Q 2347 1728 2309 1691 
L 1131 513 
L 3078 513 
L 3078 1088 
L 3444 1088 
L 3444 0 
L 434 0 
L 434 341 
L 1850 1753 
Q 2319 2222 2519 2614 
Q 2719 3006 2719 3438 
Q 2719 3909 2473 4175 
Q 2228 4441 1797 4441 
Q 1350 4441 1106 4219 
Q 863 3997 819 3553 
z
" transform="scale(0.015625)"/>
       </defs>
       <use xlink:href="#DejaVuSerif-32"/>
       <use xlink:href="#DejaVuSerif-2e" x="63.623047"/>
       <use xlink:href="#DejaVuSerif-30" x="95.410156"/>
      </g>
     </g>
    </g>
    <g id="xtick_6">
     <g id="line2d_11">
      <path d="M 289.149988 244.221395 
L 289.149988 3.6 
" clip-path="url(#p96399f1431)" style="fill: none; stroke-dasharray: 1.85,0.8; stroke-dashoffset: 0; stroke: #b0b0b0; stroke-opacity: 0.7; stroke-width: 0.5"/>
     </g>
     <g id="line2d_12">
      <g>
       <use xlink:href="#m3e9319af4d" x="289.149988" y="244.221395" style="stroke: #000000; stroke-width: 0.8"/>
      </g>
     </g>
     <g id="text_6">
      <!-- 2.5 -->
      <g transform="translate(281.198426 258.819832) scale(0.1 -0.1)">
       <use xlink:href="#DejaVuSerif-32"/>
       <use xlink:href="#DejaVuSerif-2e" x="63.623047"/>
       <use xlink:href="#DejaVuSerif-35" x="95.410156"/>
      </g>
     </g>
    </g>
    <g id="xtick_7">
     <g id="line2d_13">
      <path d="M 338.115906 244.221395 
L 338.115906 3.6 
" clip-path="url(#p96399f1431)" style="fill: none; stroke-dasharray: 1.85,0.8; stroke-dashoffset: 0; stroke: #b0b0b0; stroke-opacity: 0.7; stroke-width: 0.5"/>
     </g>
     <g id="line2d_14">
      <g>
       <use xlink:href="#m3e9319af4d" x="338.115906" y="244.221395" style="stroke: #000000; stroke-width: 0.8"/>
      </g>
     </g>
     <g id="text_7">
      <!-- 3.0 -->
      <g transform="translate(330.164343 258.819832) scale(0.1 -0.1)">
       <defs>
        <path id="DejaVuSerif-33" d="M 622 4469 
Q 988 4606 1323 4678 
Q 1659 4750 1953 4750 
Q 2638 4750 3022 4454 
Q 3406 4159 3406 3634 
Q 3406 3213 3140 2930 
Q 2875 2647 2388 2547 
Q 2963 2466 3280 2130 
Q 3597 1794 3597 1259 
Q 3597 606 3158 257 
Q 2719 -91 1894 -91 
Q 1528 -91 1179 -12 
Q 831 66 488 225 
L 488 1131 
L 838 1131 
Q 869 681 1141 450 
Q 1413 219 1906 219 
Q 2384 219 2661 495 
Q 2938 772 2938 1253 
Q 2938 1803 2653 2086 
Q 2369 2369 1819 2369 
L 1522 2369 
L 1522 2688 
L 1678 2688 
Q 2225 2688 2498 2914 
Q 2772 3141 2772 3597 
Q 2772 4006 2547 4223 
Q 2322 4441 1900 4441 
Q 1478 4441 1245 4241 
Q 1013 4041 972 3647 
L 622 3647 
L 622 4469 
z
" transform="scale(0.015625)"/>
       </defs>
       <use xlink:href="#DejaVuSerif-33"/>
       <use xlink:href="#DejaVuSerif-2e" x="63.623047"/>
       <use xlink:href="#DejaVuSerif-30" x="95.410156"/>
      </g>
     </g>
    </g>
    <g id="xtick_8">
     <g id="line2d_15">
      <path d="M 387.081824 244.221395 
L 387.081824 3.6 
" clip-path="url(#p96399f1431)" style="fill: none; stroke-dasharray: 1.85,0.8; stroke-dashoffset: 0; stroke: #b0b0b0; stroke-opacity: 0.7; stroke-width: 0.5"/>
     </g>
     <g id="line2d_16">
      <g>
       <use xlink:href="#m3e9319af4d" x="387.081824" y="244.221395" style="stroke: #000000; stroke-width: 0.8"/>
      </g>
     </g>
     <g id="text_8">
      <!-- 3.5 -->
      <g transform="translate(379.130261 258.819832) scale(0.1 -0.1)">
       <use xlink:href="#DejaVuSerif-33"/>
       <use xlink:href="#DejaVuSerif-2e" x="63.623047"/>
       <use xlink:href="#DejaVuSerif-35" x="95.410156"/>
      </g>
     </g>
    </g>
    <g id="xtick_9">
     <g id="line2d_17">
      <path d="M 436.047742 244.221395 
L 436.047742 3.6 
" clip-path="url(#p96399f1431)" style="fill: none; stroke-dasharray: 1.85,0.8; stroke-dashoffset: 0; stroke: #b0b0b0; stroke-opacity: 0.7; stroke-width: 0.5"/>
     </g>
     <g id="line2d_18">
      <g>
       <use xlink:href="#m3e9319af4d" x="436.047742" y="244.221395" style="stroke: #000000; stroke-width: 0.8"/>
      </g>
     </g>
     <g id="text_9">
      <!-- 4.0 -->
      <g transform="translate(428.096179 258.819832) scale(0.1 -0.1)">
       <defs>
        <path id="DejaVuSerif-34" d="M 2234 1581 
L 2234 4063 
L 641 1581 
L 2234 1581 
z
M 3609 0 
L 1484 0 
L 1484 331 
L 2234 331 
L 2234 1247 
L 197 1247 
L 197 1588 
L 2241 4750 
L 2859 4750 
L 2859 1581 
L 3750 1581 
L 3750 1247 
L 2859 1247 
L 2859 331 
L 3609 331 
L 3609 0 
z
" transform="scale(0.015625)"/>
       </defs>
       <use xlink:href="#DejaVuSerif-34"/>
       <use xlink:href="#DejaVuSerif-2e" x="63.623047"/>
       <use xlink:href="#DejaVuSerif-30" x="95.410156"/>
      </g>
     </g>
    </g>
    <g id="text_10">
     <!-- Larmor frequency $\omega_L$ ($\Gamma$) -->
     <g transform="translate(178.18407 272.49952) scale(0.1 -0.1)">
      <defs>
       <path id="DejaVuSerif-4c" d="M 353 0 
L 353 331 
L 947 331 
L 947 4331 
L 353 4331 
L 353 4666 
L 2175 4666 
L 2175 4331 
L 1581 4331 
L 1581 384 
L 3713 384 
L 3713 1166 
L 4097 1166 
L 4097 0 
L 353 0 
z
" transform="scale(0.015625)"/>
       <path id="DejaVuSerif-61" d="M 2547 1044 
L 2547 1747 
L 1806 1747 
Q 1378 1747 1168 1562 
Q 959 1378 959 997 
Q 959 650 1171 447 
Q 1384 244 1747 244 
Q 2106 244 2326 466 
Q 2547 688 2547 1044 
z
M 3122 2075 
L 3122 331 
L 3634 331 
L 3634 0 
L 2547 0 
L 2547 359 
Q 2356 128 2106 18 
Q 1856 -91 1522 -91 
Q 969 -91 644 203 
Q 319 497 319 997 
Q 319 1513 691 1797 
Q 1063 2081 1741 2081 
L 2547 2081 
L 2547 2309 
Q 2547 2688 2317 2895 
Q 2088 3103 1672 3103 
Q 1328 3103 1125 2947 
Q 922 2791 872 2484 
L 575 2484 
L 575 3156 
Q 875 3284 1158 3348 
Q 1441 3413 1709 3413 
Q 2400 3413 2761 3070 
Q 3122 2728 3122 2075 
z
" transform="scale(0.015625)"/>
       <path id="DejaVuSerif-72" d="M 3059 3328 
L 3059 2497 
L 2728 2497 
Q 2713 2744 2591 2866 
Q 2469 2988 2234 2988 
Q 1809 2988 1582 2694 
Q 1356 2400 1356 1850 
L 1356 331 
L 2022 331 
L 2022 0 
L 263 0 
L 263 331 
L 781 331 
L 781 2994 
L 231 2994 
L 231 3322 
L 1356 3322 
L 1356 2731 
Q 1525 3078 1790 3245 
Q 2056 3413 2438 3413 
Q 2578 3413 2733 3391 
Q 2888 3369 3059 3328 
z
" transform="scale(0.015625)"/>
       <path id="DejaVuSerif-6d" d="M 3316 2675 
Q 3481 3041 3739 3227 
Q 3997 3413 4341 3413 
Q 4863 3413 5119 3089 
Q 5375 2766 5375 2113 
L 5375 331 
L 5894 331 
L 5894 0 
L 4300 0 
L 4300 331 
L 4800 331 
L 4800 2047 
Q 4800 2556 4650 2772 
Q 4500 2988 4153 2988 
Q 3769 2988 3567 2697 
Q 3366 2406 3366 1850 
L 3366 331 
L 3866 331 
L 3866 0 
L 2291 0 
L 2291 331 
L 2791 331 
L 2791 2069 
Q 2791 2566 2641 2777 
Q 2491 2988 2144 2988 
Q 1759 2988 1557 2697 
Q 1356 2406 1356 1850 
L 1356 331 
L 1856 331 
L 1856 0 
L 263 0 
L 263 331 
L 781 331 
L 781 2994 
L 231 2994 
L 231 3322 
L 1356 3322 
L 1356 2731 
Q 1516 3063 1762 3238 
Q 2009 3413 2322 3413 
Q 2709 3413 2968 3220 
Q 3228 3028 3316 2675 
z
" transform="scale(0.015625)"/>
       <path id="DejaVuSerif-6f" d="M 1925 219 
Q 2388 219 2623 584 
Q 2859 950 2859 1663 
Q 2859 2375 2623 2739 
Q 2388 3103 1925 3103 
Q 1463 3103 1227 2739 
Q 991 2375 991 1663 
Q 991 950 1228 584 
Q 1466 219 1925 219 
z
M 1925 -91 
Q 1200 -91 759 389 
Q 319 869 319 1663 
Q 319 2456 758 2934 
Q 1197 3413 1925 3413 
Q 2653 3413 3092 2934 
Q 3531 2456 3531 1663 
Q 3531 869 3092 389 
Q 2653 -91 1925 -91 
z
" transform="scale(0.015625)"/>
       <path id="DejaVuSerif-20" transform="scale(0.015625)"/>
       <path id="DejaVuSerif-66" d="M 2753 4078 
L 2450 4078 
Q 2447 4313 2317 4434 
Q 2188 4556 1941 4556 
Q 1619 4556 1487 4379 
Q 1356 4203 1356 3750 
L 1356 3322 
L 2284 3322 
L 2284 2988 
L 1356 2988 
L 1356 331 
L 2094 331 
L 2094 0 
L 231 0 
L 231 331 
L 781 331 
L 781 2988 
L 231 2988 
L 231 3322 
L 781 3322 
L 781 3738 
Q 781 4294 1070 4578 
Q 1359 4863 1919 4863 
Q 2128 4863 2337 4825 
Q 2547 4788 2753 4709 
L 2753 4078 
z
" transform="scale(0.015625)"/>
       <path id="DejaVuSerif-65" d="M 3469 1600 
L 991 1600 
L 991 1575 
Q 991 903 1244 561 
Q 1497 219 1991 219 
Q 2369 219 2611 417 
Q 2853 616 2950 1006 
L 3413 1006 
Q 3275 459 2904 184 
Q 2534 -91 1931 -91 
Q 1203 -91 761 389 
Q 319 869 319 1663 
Q 319 2450 753 2931 
Q 1188 3413 1894 3413 
Q 2647 3413 3050 2948 
Q 3453 2484 3469 1600 
z
M 2791 1931 
Q 2772 2513 2545 2808 
Q 2319 3103 1894 3103 
Q 1497 3103 1269 2806 
Q 1041 2509 991 1931 
L 2791 1931 
z
" transform="scale(0.015625)"/>
       <path id="DejaVuSerif-71" d="M 3359 2988 
L 3359 -997 
L 3909 -997 
L 3909 -1331 
L 2241 -1331 
L 2241 -997 
L 2784 -997 
L 2784 519 
Q 2616 206 2355 57 
Q 2094 -91 1709 -91 
Q 1097 -91 708 395 
Q 319 881 319 1663 
Q 319 2444 706 2928 
Q 1094 3413 1709 3413 
Q 2094 3413 2355 3264 
Q 2616 3116 2784 2803 
L 2784 3322 
L 3909 3322 
L 3909 2988 
L 3359 2988 
z
M 2784 1825 
Q 2784 2422 2554 2737 
Q 2325 3053 1888 3053 
Q 1444 3053 1217 2703 
Q 991 2353 991 1663 
Q 991 975 1217 622 
Q 1444 269 1888 269 
Q 2325 269 2554 583 
Q 2784 897 2784 1497 
L 2784 1825 
z
" transform="scale(0.015625)"/>
       <path id="DejaVuSerif-75" d="M 2266 3322 
L 3341 3322 
L 3341 331 
L 3884 331 
L 3884 0 
L 2766 0 
L 2766 588 
Q 2606 256 2353 82 
Q 2100 -91 1766 -91 
Q 1213 -91 952 223 
Q 691 538 691 1209 
L 691 2988 
L 172 2988 
L 172 3322 
L 1269 3322 
L 1269 1388 
Q 1269 781 1417 556 
Q 1566 331 1947 331 
Q 2347 331 2556 625 
Q 2766 919 2766 1478 
L 2766 2988 
L 2266 2988 
L 2266 3322 
z
" transform="scale(0.015625)"/>
       <path id="DejaVuSerif-6e" d="M 263 0 
L 263 331 
L 781 331 
L 781 2988 
L 231 2988 
L 231 3322 
L 1356 3322 
L 1356 2731 
Q 1516 3069 1770 3241 
Q 2025 3413 2363 3413 
Q 2913 3413 3172 3097 
Q 3431 2781 3431 2113 
L 3431 331 
L 3944 331 
L 3944 0 
L 2356 0 
L 2356 331 
L 2853 331 
L 2853 1931 
Q 2853 2541 2703 2767 
Q 2553 2994 2175 2994 
Q 1775 2994 1565 2701 
Q 1356 2409 1356 1850 
L 1356 331 
L 1856 331 
L 1856 0 
L 263 0 
z
" transform="scale(0.015625)"/>
       <path id="DejaVuSerif-63" d="M 3291 997 
Q 3169 466 2822 187 
Q 2475 -91 1925 -91 
Q 1200 -91 759 389 
Q 319 869 319 1663 
Q 319 2459 759 2936 
Q 1200 3413 1925 3413 
Q 2241 3413 2553 3339 
Q 2866 3266 3181 3116 
L 3181 2266 
L 2847 2266 
Q 2781 2703 2561 2903 
Q 2341 3103 1931 3103 
Q 1466 3103 1228 2742 
Q 991 2381 991 1663 
Q 991 944 1227 581 
Q 1463 219 1931 219 
Q 2303 219 2525 412 
Q 2747 606 2828 997 
L 3291 997 
z
" transform="scale(0.015625)"/>
       <path id="DejaVuSerif-79" d="M 1381 -609 
L 1600 -56 
L 359 2988 
L -19 2988 
L -19 3322 
L 1509 3322 
L 1509 2988 
L 978 2988 
L 1913 703 
L 2847 2988 
L 2350 2988 
L 2350 3322 
L 3597 3322 
L 3597 2988 
L 3225 2988 
L 1703 -750 
Q 1547 -1138 1356 -1280 
Q 1166 -1422 819 -1422 
Q 672 -1422 517 -1397 
Q 363 -1372 206 -1325 
L 206 -691 
L 500 -691 
Q 519 -903 608 -995 
Q 697 -1088 884 -1088 
Q 1056 -1088 1161 -992 
Q 1266 -897 1381 -609 
z
" transform="scale(0.015625)"/>
       <path id="DejaVuSans-Oblique-3c9" d="M 1369 -91 
Q 72 -91 434 1766 
Q 575 2500 1256 3500 
L 1875 3500 
Q 1231 2500 1088 1750 
Q 819 397 1519 397 
Q 2166 397 2478 2078 
L 3009 2078 
Q 2669 388 3316 397 
Q 4013 403 4275 1750 
Q 4419 2500 4169 3500 
L 4788 3500 
Q 5075 2500 4934 1766 
Q 4578 -94 3278 -91 
Q 2428 -88 2503 844 
Q 2194 -91 1369 -91 
z
" transform="scale(0.015625)"/>
       <path id="DejaVuSans-Oblique-4c" d="M 1075 4666 
L 1709 4666 
L 909 525 
L 3181 525 
L 3078 0 
L 172 0 
L 1075 4666 
z
" transform="scale(0.015625)"/>
       <path id="DejaVuSerif-28" d="M 2041 -997 
Q 1281 -656 893 83 
Q 506 822 506 1931 
Q 506 3044 893 3783 
Q 1281 4522 2041 4863 
L 2041 4556 
Q 1559 4225 1350 3623 
Q 1141 3022 1141 1931 
Q 1141 844 1350 242 
Q 1559 -359 2041 -691 
L 2041 -997 
z
" transform="scale(0.015625)"/>
       <path id="DejaVuSans-393" d="M 628 0 
L 628 4666 
L 3531 4666 
L 3531 4134 
L 1259 4134 
L 1259 0 
L 628 0 
z
" transform="scale(0.015625)"/>
       <path id="DejaVuSerif-29" d="M 453 -997 
L 453 -691 
Q 934 -359 1145 242 
Q 1356 844 1356 1931 
Q 1356 3022 1145 3623 
Q 934 4225 453 4556 
L 453 4863 
Q 1216 4522 1603 3783 
Q 1991 3044 1991 1931 
Q 1991 822 1603 83 
Q 1216 -656 453 -997 
z
" transform="scale(0.015625)"/>
      </defs>
      <use xlink:href="#DejaVuSerif-4c" transform="translate(0 0.015625)"/>
      <use xlink:href="#DejaVuSerif-61" transform="translate(66.40625 0.015625)"/>
      <use xlink:href="#DejaVuSerif-72" transform="translate(126.025391 0.015625)"/>
      <use xlink:href="#DejaVuSerif-6d" transform="translate(173.828125 0.015625)"/>
      <use xlink:href="#DejaVuSerif-6f" transform="translate(268.652344 0.015625)"/>
      <use xlink:href="#DejaVuSerif-72" transform="translate(328.857422 0.015625)"/>
      <use xlink:href="#DejaVuSerif-20" transform="translate(376.660156 0.015625)"/>
      <use xlink:href="#DejaVuSerif-66" transform="translate(408.447266 0.015625)"/>
      <use xlink:href="#DejaVuSerif-72" transform="translate(445.458984 0.015625)"/>
      <use xlink:href="#DejaVuSerif-65" transform="translate(493.261719 0.015625)"/>
      <use xlink:href="#DejaVuSerif-71" transform="translate(552.441406 0.015625)"/>
      <use xlink:href="#DejaVuSerif-75" transform="translate(616.455078 0.015625)"/>
      <use xlink:href="#DejaVuSerif-65" transform="translate(680.859375 0.015625)"/>
      <use xlink:href="#DejaVuSerif-6e" transform="translate(740.039062 0.015625)"/>
      <use xlink:href="#DejaVuSerif-63" transform="translate(804.443359 0.015625)"/>
      <use xlink:href="#DejaVuSerif-79" transform="translate(860.449219 0.015625)"/>
      <use xlink:href="#DejaVuSerif-20" transform="translate(916.943359 0.015625)"/>
      <use xlink:href="#DejaVuSans-Oblique-3c9" transform="translate(948.730469 0.015625)"/>
      <use xlink:href="#DejaVuSans-Oblique-4c" transform="translate(1032.470703 -16.390625) scale(0.7)"/>
      <use xlink:href="#DejaVuSerif-20" transform="translate(1074.204102 0.015625)"/>
      <use xlink:href="#DejaVuSerif-28" transform="translate(1105.991211 0.015625)"/>
      <use xlink:href="#DejaVuSans-393" transform="translate(1145.004883 0.015625)"/>
      <use xlink:href="#DejaVuSerif-29" transform="translate(1200.717773 0.015625)"/>
     </g>
    </g>
   </g>
   <g id="matplotlib.axis_2">
    <g id="ytick_1">
     <g id="line2d_19">
      <path d="M 40.403125 240.490221 
L 439.965015 240.490221 
" clip-path="url(#p96399f1431)" style="fill: none; stroke-dasharray: 1.85,0.8; stroke-dashoffset: 0; stroke: #b0b0b0; stroke-opacity: 0.7; stroke-width: 0.5"/>
     </g>
     <g id="line2d_20">
      <defs>
       <path id="m394be9017a" d="M 0 0 
L -3.5 0 
" style="stroke: #000000; stroke-width: 0.8"/>
      </defs>
      <g>
       <use xlink:href="#m394be9017a" x="40.403125" y="240.490221" style="stroke: #000000; stroke-width: 0.8"/>
      </g>
     </g>
     <g id="text_11">
      <!-- 0.0 -->
      <g transform="translate(17.5 244.28944) scale(0.1 -0.1)">
       <use xlink:href="#DejaVuSerif-30"/>
       <use xlink:href="#DejaVuSerif-2e" x="63.623047"/>
       <use xlink:href="#DejaVuSerif-30" x="95.410156"/>
      </g>
     </g>
    </g>
    <g id="ytick_2">
     <g id="line2d_21">
      <path d="M 40.403125 192.862976 
L 439.965015 192.862976 
" clip-path="url(#p96399f1431)" style="fill: none; stroke-dasharray: 1.85,0.8; stroke-dashoffset: 0; stroke: #b0b0b0; stroke-opacity: 0.7; stroke-width: 0.5"/>
     </g>
     <g id="line2d_22">
      <g>
       <use xlink:href="#m394be9017a" x="40.403125" y="192.862976" style="stroke: #000000; stroke-width: 0.8"/>
      </g>
     </g>
     <g id="text_12">
      <!-- 0.1 -->
      <g transform="translate(17.5 196.662195) scale(0.1 -0.1)">
       <use xlink:href="#DejaVuSerif-30"/>
       <use xlink:href="#DejaVuSerif-2e" x="63.623047"/>
       <use xlink:href="#DejaVuSerif-31" x="95.410156"/>
      </g>
     </g>
    </g>
    <g id="ytick_3">
     <g id="line2d_23">
      <path d="M 40.403125 145.235731 
L 439.965015 145.235731 
" clip-path="url(#p96399f1431)" style="fill: none; stroke-dasharray: 1.85,0.8; stroke-dashoffset: 0; stroke: #b0b0b0; stroke-opacity: 0.7; stroke-width: 0.5"/>
     </g>
     <g id="line2d_24">
      <g>
       <use xlink:href="#m394be9017a" x="40.403125" y="145.235731" style="stroke: #000000; stroke-width: 0.8"/>
      </g>
     </g>
     <g id="text_13">
      <!-- 0.2 -->
      <g transform="translate(17.5 149.03495) scale(0.1 -0.1)">
       <use xlink:href="#DejaVuSerif-30"/>
       <use xlink:href="#DejaVuSerif-2e" x="63.623047"/>
       <use xlink:href="#DejaVuSerif-32" x="95.410156"/>
      </g>
     </g>
    </g>
    <g id="ytick_4">
     <g id="line2d_25">
      <path d="M 40.403125 97.608487 
L 439.965015 97.608487 
" clip-path="url(#p96399f1431)" style="fill: none; stroke-dasharray: 1.85,0.8; stroke-dashoffset: 0; stroke: #b0b0b0; stroke-opacity: 0.7; stroke-width: 0.5"/>
     </g>
     <g id="line2d_26">
      <g>
       <use xlink:href="#m394be9017a" x="40.403125" y="97.608487" style="stroke: #000000; stroke-width: 0.8"/>
      </g>
     </g>
     <g id="text_14">
      <!-- 0.3 -->
      <g transform="translate(17.5 101.407705) scale(0.1 -0.1)">
       <use xlink:href="#DejaVuSerif-30"/>
       <use xlink:href="#DejaVuSerif-2e" x="63.623047"/>
       <use xlink:href="#DejaVuSerif-33" x="95.410156"/>
      </g>
     </g>
    </g>
    <g id="ytick_5">
     <g id="line2d_27">
      <path d="M 40.403125 49.981242 
L 439.965015 49.981242 
" clip-path="url(#p96399f1431)" style="fill: none; stroke-dasharray: 1.85,0.8; stroke-dashoffset: 0; stroke: #b0b0b0; stroke-opacity: 0.7; stroke-width: 0.5"/>
     </g>
     <g id="line2d_28">
      <g>
       <use xlink:href="#m394be9017a" x="40.403125" y="49.981242" style="stroke: #000000; stroke-width: 0.8"/>
      </g>
     </g>
     <g id="text_15">
      <!-- 0.4 -->
      <g transform="translate(17.5 53.780461) scale(0.1 -0.1)">
       <use xlink:href="#DejaVuSerif-30"/>
       <use xlink:href="#DejaVuSerif-2e" x="63.623047"/>
       <use xlink:href="#DejaVuSerif-34" x="95.410156"/>
      </g>
     </g>
    </g>
    <g id="text_16">
     <!-- Scattering rate $R_{sc}$ ($\Gamma/2$) -->
     <g transform="translate(11.2 184.360697) rotate(-90) scale(0.1 -0.1)">
      <defs>
       <path id="DejaVuSerif-53" d="M 594 225 
L 594 1288 
L 953 1284 
Q 969 753 1261 498 
Q 1553 244 2150 244 
Q 2706 244 2998 464 
Q 3291 684 3291 1106 
Q 3291 1444 3114 1625 
Q 2938 1806 2369 1978 
L 1753 2163 
Q 1084 2366 811 2669 
Q 538 2972 538 3500 
Q 538 4094 959 4422 
Q 1381 4750 2144 4750 
Q 2469 4750 2856 4679 
Q 3244 4609 3681 4475 
L 3681 3481 
L 3328 3481 
Q 3275 3975 2998 4195 
Q 2722 4416 2156 4416 
Q 1663 4416 1405 4214 
Q 1147 4013 1147 3628 
Q 1147 3294 1340 3103 
Q 1534 2913 2163 2725 
L 2741 2553 
Q 3375 2363 3645 2067 
Q 3916 1772 3916 1275 
Q 3916 597 3481 253 
Q 3047 -91 2188 -91 
Q 1803 -91 1404 -12 
Q 1006 66 594 225 
z
" transform="scale(0.015625)"/>
       <path id="DejaVuSerif-74" d="M 691 2988 
L 184 2988 
L 184 3322 
L 691 3322 
L 691 4353 
L 1269 4353 
L 1269 3322 
L 2350 3322 
L 2350 2988 
L 1269 2988 
L 1269 878 
Q 1269 456 1350 337 
Q 1431 219 1650 219 
Q 1875 219 1978 351 
Q 2081 484 2088 781 
L 2522 781 
Q 2497 328 2275 118 
Q 2053 -91 1600 -91 
Q 1103 -91 897 129 
Q 691 350 691 878 
L 691 2988 
z
" transform="scale(0.015625)"/>
       <path id="DejaVuSerif-69" d="M 622 4353 
Q 622 4497 726 4603 
Q 831 4709 978 4709 
Q 1122 4709 1226 4603 
Q 1331 4497 1331 4353 
Q 1331 4206 1228 4103 
Q 1125 4000 978 4000 
Q 831 4000 726 4103 
Q 622 4206 622 4353 
z
M 1356 331 
L 1900 331 
L 1900 0 
L 231 0 
L 231 331 
L 781 331 
L 781 2988 
L 231 2988 
L 231 3322 
L 1356 3322 
L 1356 331 
z
" transform="scale(0.015625)"/>
       <path id="DejaVuSerif-67" d="M 3359 2988 
L 3359 72 
Q 3359 -644 2965 -1033 
Q 2572 -1422 1844 -1422 
Q 1516 -1422 1216 -1362 
Q 916 -1303 641 -1184 
L 641 -488 
L 941 -488 
Q 997 -813 1206 -963 
Q 1416 -1113 1806 -1113 
Q 2313 -1113 2548 -827 
Q 2784 -541 2784 72 
L 2784 519 
Q 2616 206 2355 57 
Q 2094 -91 1709 -91 
Q 1097 -91 708 395 
Q 319 881 319 1663 
Q 319 2444 706 2928 
Q 1094 3413 1709 3413 
Q 2094 3413 2355 3264 
Q 2616 3116 2784 2803 
L 2784 3322 
L 3909 3322 
L 3909 2988 
L 3359 2988 
z
M 2784 1825 
Q 2784 2422 2554 2737 
Q 2325 3053 1888 3053 
Q 1444 3053 1217 2703 
Q 991 2353 991 1663 
Q 991 975 1217 622 
Q 1444 269 1888 269 
Q 2325 269 2554 583 
Q 2784 897 2784 1497 
L 2784 1825 
z
" transform="scale(0.015625)"/>
       <path id="DejaVuSans-Oblique-52" d="M 1613 4147 
L 1294 2491 
L 2106 2491 
Q 2584 2491 2879 2755 
Q 3175 3019 3175 3444 
Q 3175 3784 2976 3965 
Q 2778 4147 2406 4147 
L 1613 4147 
z
M 2772 2241 
Q 2972 2194 3105 2009 
Q 3238 1825 3413 1275 
L 3809 0 
L 3144 0 
L 2778 1197 
Q 2638 1659 2453 1815 
Q 2269 1972 1888 1972 
L 1191 1972 
L 806 0 
L 172 0 
L 1081 4666 
L 2503 4666 
Q 3150 4666 3495 4373 
Q 3841 4081 3841 3531 
Q 3841 3044 3547 2687 
Q 3253 2331 2772 2241 
z
" transform="scale(0.015625)"/>
       <path id="DejaVuSans-Oblique-73" d="M 3200 3397 
L 3091 2853 
Q 2863 2978 2609 3040 
Q 2356 3103 2088 3103 
Q 1634 3103 1373 2948 
Q 1113 2794 1113 2528 
Q 1113 2219 1719 2053 
Q 1766 2041 1788 2034 
L 1972 1978 
Q 2547 1819 2739 1644 
Q 2931 1469 2931 1166 
Q 2931 609 2489 259 
Q 2047 -91 1331 -91 
Q 1053 -91 747 -37 
Q 441 16 72 128 
L 184 722 
Q 500 559 806 475 
Q 1113 391 1394 391 
Q 1816 391 2080 572 
Q 2344 753 2344 1031 
Q 2344 1331 1650 1516 
L 1591 1531 
L 1394 1581 
Q 956 1697 753 1886 
Q 550 2075 550 2369 
Q 550 2928 970 3256 
Q 1391 3584 2113 3584 
Q 2397 3584 2667 3537 
Q 2938 3491 3200 3397 
z
" transform="scale(0.015625)"/>
       <path id="DejaVuSans-Oblique-63" d="M 3431 3366 
L 3316 2797 
Q 3109 2947 2876 3022 
Q 2644 3097 2394 3097 
Q 2119 3097 1870 3000 
Q 1622 2903 1453 2725 
Q 1184 2453 1037 2087 
Q 891 1722 891 1331 
Q 891 859 1127 628 
Q 1363 397 1844 397 
Q 2081 397 2348 469 
Q 2616 541 2906 684 
L 2797 116 
Q 2547 13 2283 -39 
Q 2019 -91 1741 -91 
Q 1044 -91 669 257 
Q 294 606 294 1253 
Q 294 1797 489 2255 
Q 684 2713 1069 3078 
Q 1331 3328 1684 3456 
Q 2038 3584 2456 3584 
Q 2700 3584 2940 3529 
Q 3181 3475 3431 3366 
z
" transform="scale(0.015625)"/>
       <path id="DejaVuSans-2f" d="M 1625 4666 
L 2156 4666 
L 531 -594 
L 0 -594 
L 1625 4666 
z
" transform="scale(0.015625)"/>
       <path id="DejaVuSans-32" d="M 1228 531 
L 3431 531 
L 3431 0 
L 469 0 
L 469 531 
Q 828 903 1448 1529 
Q 2069 2156 2228 2338 
Q 2531 2678 2651 2914 
Q 2772 3150 2772 3378 
Q 2772 3750 2511 3984 
Q 2250 4219 1831 4219 
Q 1534 4219 1204 4116 
Q 875 4013 500 3803 
L 500 4441 
Q 881 4594 1212 4672 
Q 1544 4750 1819 4750 
Q 2544 4750 2975 4387 
Q 3406 4025 3406 3419 
Q 3406 3131 3298 2873 
Q 3191 2616 2906 2266 
Q 2828 2175 2409 1742 
Q 1991 1309 1228 531 
z
" transform="scale(0.015625)"/>
      </defs>
      <use xlink:href="#DejaVuSerif-53" transform="translate(0 0.015625)"/>
      <use xlink:href="#DejaVuSerif-63" transform="translate(68.505859 0.015625)"/>
      <use xlink:href="#DejaVuSerif-61" transform="translate(124.511719 0.015625)"/>
      <use xlink:href="#DejaVuSerif-74" transform="translate(184.130859 0.015625)"/>
      <use xlink:href="#DejaVuSerif-74" transform="translate(224.316406 0.015625)"/>
      <use xlink:href="#DejaVuSerif-65" transform="translate(264.501953 0.015625)"/>
      <use xlink:href="#DejaVuSerif-72" transform="translate(323.681641 0.015625)"/>
      <use xlink:href="#DejaVuSerif-69" transform="translate(371.484375 0.015625)"/>
      <use xlink:href="#DejaVuSerif-6e" transform="translate(403.466797 0.015625)"/>
      <use xlink:href="#DejaVuSerif-67" transform="translate(467.871094 0.015625)"/>
      <use xlink:href="#DejaVuSerif-20" transform="translate(531.884766 0.015625)"/>
      <use xlink:href="#DejaVuSerif-72" transform="translate(563.671875 0.015625)"/>
      <use xlink:href="#DejaVuSerif-61" transform="translate(611.474609 0.015625)"/>
      <use xlink:href="#DejaVuSerif-74" transform="translate(671.09375 0.015625)"/>
      <use xlink:href="#DejaVuSerif-65" transform="translate(711.279297 0.015625)"/>
      <use xlink:href="#DejaVuSerif-20" transform="translate(770.458984 0.015625)"/>
      <use xlink:href="#DejaVuSans-Oblique-52" transform="translate(802.246094 0.015625)"/>
      <use xlink:href="#DejaVuSans-Oblique-73" transform="translate(871.728516 -16.390625) scale(0.7)"/>
      <use xlink:href="#DejaVuSans-Oblique-63" transform="translate(908.198242 -16.390625) scale(0.7)"/>
      <use xlink:href="#DejaVuSerif-20" transform="translate(949.418945 0.015625)"/>
      <use xlink:href="#DejaVuSerif-28" transform="translate(981.206055 0.015625)"/>
      <use xlink:href="#DejaVuSans-393" transform="translate(1020.219727 0.015625)"/>
      <use xlink:href="#DejaVuSans-2f" transform="translate(1075.932617 0.015625)"/>
      <use xlink:href="#DejaVuSans-32" transform="translate(1105.999023 0.015625)"/>
      <use xlink:href="#DejaVuSerif-29" transform="translate(1169.62207 0.015625)"/>
     </g>
    </g>
   </g>
   <g id="line2d_29">
    <path d="M 44.320398 240.490831 
L 44.429212 240.490353 
L 44.755651 240.489593 
L 45.299717 240.487144 
L 46.061409 240.480555 
L 47.040727 240.467827 
L 48.237672 240.443616 
L 49.652243 240.404157 
L 51.28444 240.342855 
L 53.134264 240.253589 
L 55.201714 240.130171 
L 57.48679 239.962928 
L 59.989492 239.742485 
L 62.709821 239.459806 
L 65.647776 239.106475 
L 68.803357 238.663956 
L 72.176565 238.124285 
L 75.767399 237.472276 
L 79.575859 236.695542 
L 83.601946 235.769739 
L 87.845659 234.684796 
L 92.306998 233.426021 
L 96.985963 231.966137 
L 101.882555 230.288588 
L 106.996773 228.36843 
L 112.328618 226.184741 
L 117.878088 223.715381 
L 123.645185 220.922047 
L 129.629909 217.791429 
L 135.832258 214.292621 
L 142.252234 210.377742 
L 148.889836 206.04948 
L 155.745065 201.236517 
L 162.81792 195.934055 
L 170.108401 190.112862 
L 177.616508 183.739468 
L 185.342242 176.790786 
L 193.285602 169.257308 
L 201.446588 161.140199 
L 209.825201 152.387844 
L 218.42144 143.036501 
L 227.235305 133.153506 
L 236.266797 122.769378 
L 245.515915 111.946504 
L 254.982659 100.817239 
L 264.667029 89.479506 
L 274.569026 78.067751 
L 284.688649 66.845274 
L 295.025898 55.985979 
L 305.580774 45.736573 
L 316.353276 36.324699 
L 327.343404 27.942077 
L 338.551159 20.771909 
L 349.976539 15.055648 
L 361.619547 10.900631 
L 373.48018 8.319717 
L 385.55844 7.330564 
L 397.854326 7.886729 
L 410.367838 9.905502 
L 423.098977 13.24696 
L 436.047742 17.744848 
" clip-path="url(#p96399f1431)" style="fill: none; stroke: #0d0887; stroke-width: 0.7; stroke-linecap: square"/>
   </g>
   <g id="line2d_30">
    <path d="M 44.320398 240.490263 
L 44.429212 240.489809 
L 44.755651 240.488946 
L 45.299717 240.48261 
L 46.061409 240.465952 
L 47.040727 240.432073 
L 48.237672 240.369467 
L 49.652243 240.266547 
L 51.28444 240.107319 
L 53.134264 239.877048 
L 55.201714 239.556866 
L 57.48679 239.122737 
L 59.989492 238.549016 
L 62.709821 237.815567 
L 65.647776 236.892421 
L 68.803357 235.741896 
L 72.176565 234.335904 
L 75.767399 232.631412 
L 79.575859 230.593085 
L 83.601946 228.173005 
L 87.845659 225.328836 
L 92.306998 222.007461 
L 96.985963 218.15182 
L 101.882555 213.713883 
L 106.996773 208.630398 
L 112.328618 202.841034 
L 117.878088 196.294505 
L 123.645185 188.931901 
L 129.629909 180.688941 
L 135.832258 171.561878 
L 142.252234 161.500841 
L 148.889836 150.51952 
L 155.745065 138.681639 
L 162.81792 126.067047 
L 170.108401 112.802787 
L 177.616508 99.097207 
L 185.342242 85.273277 
L 193.285602 71.618582 
L 201.446588 58.575054 
L 209.825201 46.595013 
L 218.42144 36.020181 
L 227.235305 27.333778 
L 236.266797 20.799005 
L 245.515915 16.604969 
L 254.982659 14.8486 
L 264.667029 15.448269 
L 274.569026 18.221682 
L 284.688649 22.900232 
L 295.025898 29.138222 
L 305.580774 36.660416 
L 316.353276 45.028191 
L 327.343404 53.991051 
L 338.551159 63.278911 
L 349.976539 72.661361 
L 361.619547 81.973393 
L 373.48018 91.056008 
L 385.55844 99.859597 
L 397.854326 108.285638 
L 410.367838 116.289365 
L 423.098977 123.86852 
L 436.047742 130.992019 
" clip-path="url(#p96399f1431)" style="fill: none; stroke: #5302a3; stroke-width: 0.7; stroke-linecap: square"/>
   </g>
   <g id="line2d_31">
    <path d="M 44.320398 240.490176 
L 44.429212 240.490082 
L 44.755651 240.486269 
L 45.299717 240.47055 
L 46.061409 240.427371 
L 47.040727 240.338915 
L 48.237672 240.1771 
L 49.652243 239.909153 
L 51.28444 239.500465 
L 53.134264 238.904618 
L 55.201714 238.07195 
L 57.48679 236.941456 
L 59.989492 235.460208 
L 62.709821 233.552299 
L 65.647776 231.142058 
L 68.803357 228.148895 
L 72.176565 224.480335 
L 75.767399 220.039612 
L 79.575859 214.725759 
L 83.601946 208.435734 
L 87.845659 201.065124 
L 92.306998 192.512777 
L 96.985963 182.711842 
L 101.882555 171.598917 
L 106.996773 159.182864 
L 112.328618 145.541647 
L 117.878088 130.84164 
L 123.645185 115.369933 
L 129.629909 99.566518 
L 135.832258 83.973303 
L 142.252234 69.312408 
L 148.889836 56.29318 
L 155.745065 45.622808 
L 162.81792 37.852402 
L 170.108401 33.32272 
L 177.616508 32.117207 
L 185.342242 34.072306 
L 193.285602 38.762892 
L 201.446588 45.686454 
L 209.825201 54.265734 
L 218.42144 63.961048 
L 227.235305 74.275619 
L 236.266797 84.801553 
L 245.515915 95.258504 
L 254.982659 105.405245 
L 264.667029 115.10503 
L 274.569026 124.285597 
L 284.688649 132.850237 
L 295.025898 140.825959 
L 305.580774 148.210876 
L 316.353276 155.023057 
L 327.343404 161.279279 
L 338.551159 167.040087 
L 349.976539 172.321308 
L 361.619547 177.168915 
L 373.48018 181.613096 
L 385.55844 185.688336 
L 397.854326 189.428103 
L 410.367838 192.879008 
L 423.098977 196.032462 
L 436.047742 198.948518 
" clip-path="url(#p96399f1431)" style="fill: none; stroke: #8b0aa5; stroke-width: 0.7; stroke-linecap: square"/>
   </g>
   <g id="line2d_32">
    <path d="M 44.320398 240.489912 
L 44.429212 240.489343 
L 44.755651 240.480364 
L 45.299717 240.439664 
L 46.061409 240.329148 
L 47.040727 240.09718 
L 48.237672 239.679997 
L 49.652243 238.990514 
L 51.28444 237.92717 
L 53.134264 236.383904 
L 55.201714 234.23662 
L 57.48679 231.340275 
L 59.989492 227.547439 
L 62.709821 222.698021 
L 65.647776 216.629705 
L 68.803357 209.18609 
L 72.176565 200.234901 
L 75.767399 189.685742 
L 79.575859 177.519458 
L 83.601946 163.840073 
L 87.845659 148.908789 
L 92.306998 133.176068 
L 96.985963 117.329603 
L 101.882555 102.233618 
L 106.996773 88.851378 
L 112.328618 78.105862 
L 117.878088 70.717858 
L 123.645185 67.064344 
L 129.629909 67.112774 
L 135.832258 70.482549 
L 142.252234 76.551957 
L 148.889836 84.597769 
L 155.745065 93.906211 
L 162.81792 103.872134 
L 170.108401 114.012814 
L 177.616508 123.963528 
L 185.342242 133.50214 
L 193.285602 142.478881 
L 201.446588 150.820312 
L 209.825201 158.503843 
L 218.42144 165.53215 
L 227.235305 171.933768 
L 236.266797 177.745001 
L 245.515915 183.014391 
L 254.982659 187.786447 
L 264.667029 192.104184 
L 274.569026 196.014326 
L 284.688649 199.552478 
L 295.025898 202.765494 
L 305.580774 205.675535 
L 316.353276 208.314201 
L 327.343404 210.721348 
L 338.551159 212.907125 
L 349.976539 214.901747 
L 361.619547 216.721029 
L 373.48018 218.384097 
L 385.55844 219.905863 
L 397.854326 221.303682 
L 410.367838 222.580042 
L 423.098977 223.75482 
L 436.047742 224.836101 
" clip-path="url(#p96399f1431)" style="fill: none; stroke: #b83289; stroke-width: 0.7; stroke-linecap: square"/>
   </g>
   <g id="line2d_33">
    <path d="M 44.320398 240.490504 
L 44.429212 240.488602 
L 44.755651 240.464293 
L 45.299717 240.359506 
L 46.061409 240.071645 
L 47.040727 239.474013 
L 48.237672 238.397235 
L 49.652243 236.635999 
L 51.28444 233.960837 
L 53.134264 230.142276 
L 55.201714 224.959521 
L 57.48679 218.22355 
L 59.989492 209.824441 
L 62.709821 199.783766 
L 65.647776 188.2897 
L 68.803357 175.735446 
L 72.176565 162.736267 
L 75.767399 150.117403 
L 79.575859 138.758329 
L 83.601946 129.504889 
L 87.845659 122.985262 
L 92.306998 119.510926 
L 96.985963 119.035526 
L 101.882555 121.224642 
L 106.996773 125.551704 
L 112.328618 131.424071 
L 117.878088 138.276435 
L 123.645185 145.624923 
L 129.629909 153.096005 
L 135.832258 160.419817 
L 142.252234 167.414859 
L 148.889836 173.977971 
L 155.745065 180.050593 
L 162.81792 185.616521 
L 170.108401 190.684019 
L 177.616508 195.275335 
L 185.342242 199.420257 
L 193.285602 203.155649 
L 201.446588 206.516347 
L 209.825201 209.53851 
L 218.42144 212.255988 
L 227.235305 214.700169 
L 236.266797 216.900053 
L 245.515915 218.881801 
L 254.982659 220.668499 
L 264.667029 222.28074 
L 274.569026 223.738654 
L 284.688649 225.058787 
L 295.025898 226.254126 
L 305.580774 227.338661 
L 316.353276 228.324272 
L 327.343404 229.221616 
L 338.551159 230.039059 
L 349.976539 230.784962 
L 361.619547 231.466793 
L 373.48018 232.090504 
L 385.55844 232.661874 
L 397.854326 233.187951 
L 410.367838 233.667779 
L 423.098977 234.110885 
L 436.047742 234.517617 
" clip-path="url(#p96399f1431)" style="fill: none; stroke: #db5c68; stroke-width: 0.7; stroke-linecap: square"/>
   </g>
   <g id="line2d_34">
    <path d="M 44.320398 240.490219 
L 44.429212 240.486029 
L 44.755651 240.422674 
L 45.299717 240.152953 
L 46.061409 239.428012 
L 47.040727 237.921775 
L 48.237672 235.298527 
L 49.652243 231.246094 
L 51.28444 225.617551 
L 53.134264 218.510842 
L 55.201714 210.316875 
L 57.48679 201.662501 
L 59.989492 193.277359 
L 62.709821 185.830166 
L 65.647776 179.824007 
L 68.803357 175.52265 
L 72.176565 172.987803 
L 75.767399 172.115331 
L 79.575859 172.693638 
L 83.601946 174.459091 
L 87.845659 177.133593 
L 92.306998 180.452384 
L 96.985963 184.180717 
L 101.882555 188.121962 
L 106.996773 192.119457 
L 112.328618 196.054608 
L 117.878088 199.843398 
L 123.645185 203.429678 
L 129.629909 206.779227 
L 135.832258 209.87647 
L 142.252234 212.717856 
L 148.889836 215.308292 
L 155.745065 217.659392 
L 162.81792 219.786069 
L 170.108401 221.704855 
L 177.616508 223.433105 
L 185.342242 224.987943 
L 193.285602 226.386226 
L 201.446588 227.643493 
L 209.825201 228.773932 
L 218.42144 229.791039 
L 227.235305 230.706623 
L 236.266797 231.531515 
L 245.515915 232.275598 
L 254.982659 232.947341 
L 264.667029 233.55491 
L 274.569026 234.104426 
L 284.688649 234.602272 
L 295.025898 235.054349 
L 305.580774 235.46455 
L 316.353276 235.838572 
L 327.343404 236.178828 
L 338.551159 236.48925 
L 349.976539 236.772581 
L 361.619547 237.031898 
L 373.48018 237.269668 
L 385.55844 237.487364 
L 397.854326 237.687278 
L 410.367838 237.871008 
L 423.098977 238.039371 
L 436.047742 238.195945 
" clip-path="url(#p96399f1431)" style="fill: none; stroke: #f48849; stroke-width: 0.7; stroke-linecap: square"/>
   </g>
   <g id="line2d_35">
    <path d="M 44.320398 240.490206 
L 44.429212 240.479436 
L 44.755651 240.314125 
L 45.299717 239.622202 
L 46.061409 237.881313 
L 47.040727 234.687765 
L 48.237672 230.12292 
L 49.652243 224.855311 
L 51.28444 219.792141 
L 53.134264 215.57429 
L 55.201714 212.393246 
L 57.48679 210.28942 
L 59.989492 209.047563 
L 62.709821 208.501377 
L 65.647776 208.516082 
L 68.803357 208.988378 
L 72.176565 209.811717 
L 75.767399 210.935788 
L 79.575859 212.278663 
L 83.601946 213.777619 
L 87.845659 215.390864 
L 92.306998 217.061616 
L 96.985963 218.751062 
L 101.882555 220.421202 
L 106.996773 222.043716 
L 112.328618 223.596528 
L 117.878088 225.06388 
L 123.645185 226.436069 
L 129.629909 227.7081 
L 135.832258 228.87878 
L 142.252234 229.949996 
L 148.889836 230.925573 
L 155.745065 231.810734 
L 162.81792 232.611622 
L 170.108401 233.335162 
L 177.616508 233.987286 
L 185.342242 234.574596 
L 193.285602 235.103311 
L 201.446588 235.580356 
L 209.825201 236.008249 
L 218.42144 236.394307 
L 227.235305 236.742101 
L 236.266797 237.056458 
L 245.515915 237.339706 
L 254.982659 237.595382 
L 264.667029 237.827612 
L 274.569026 238.037325 
L 284.688649 238.227474 
L 295.025898 238.400705 
L 305.580774 238.55766 
L 316.353276 238.700487 
L 327.343404 238.831221 
L 338.551159 238.950106 
L 349.976539 239.059264 
L 361.619547 239.158477 
L 373.48018 239.249547 
L 385.55844 239.333082 
L 397.854326 239.410122 
L 410.367838 239.480912 
L 423.098977 239.545673 
L 436.047742 239.605601 
" clip-path="url(#p96399f1431)" style="fill: none; stroke: #febd2a; stroke-width: 0.7; stroke-linecap: square"/>
   </g>
   <g id="line2d_36">
    <path d="M 44.320398 240.490243 
L 44.429212 240.462555 
L 44.755651 240.047812 
L 45.299717 238.526558 
L 46.061409 235.68471 
L 47.040727 232.521718 
L 48.237672 230.092069 
L 49.652243 228.566797 
L 51.28444 227.739566 
L 53.134264 227.219414 
L 55.201714 227.03826 
L 57.48679 227.019834 
L 59.989492 227.12165 
L 62.709821 227.345758 
L 65.647776 227.657996 
L 68.803357 228.053043 
L 72.176565 228.528138 
L 75.767399 229.052085 
L 79.575859 229.634503 
L 83.601946 230.251549 
L 87.845659 230.888554 
L 92.306998 231.543467 
L 96.985963 232.193036 
L 101.882555 232.83318 
L 106.996773 233.451376 
L 112.328618 234.041878 
L 117.878088 234.598675 
L 123.645185 235.11923 
L 129.629909 235.60246 
L 135.832258 236.046898 
L 142.252234 236.453667 
L 148.889836 236.825304 
L 155.745065 237.162008 
L 162.81792 237.466754 
L 170.108401 237.74326 
L 177.616508 237.991763 
L 185.342242 238.216726 
L 193.285602 238.418532 
L 201.446588 238.601131 
L 209.825201 238.764986 
L 218.42144 238.913257 
L 227.235305 239.046412 
L 236.266797 239.167179 
L 245.515915 239.275599 
L 254.982659 239.374312 
L 264.667029 239.463121 
L 274.569026 239.544045 
L 284.688649 239.617434 
L 295.025898 239.683756 
L 305.580774 239.744399 
L 316.353276 239.799353 
L 327.343404 239.849185 
L 338.551159 239.895464 
L 349.976539 239.937295 
L 361.619547 239.975635 
L 373.48018 240.010705 
L 385.55844 240.042956 
L 397.854326 240.072725 
L 410.367838 240.099961 
L 423.098977 240.124953 
L 436.047742 240.148114 
" clip-path="url(#p96399f1431)" style="fill: none; stroke: #f0f921; stroke-width: 0.7; stroke-linecap: square"/>
   </g>
   <g id="patch_3">
    <path d="M 40.403125 244.221395 
L 40.403125 3.6 
" style="fill: none; stroke: #000000; stroke-width: 0.8; stroke-linejoin: miter; stroke-linecap: square"/>
   </g>
   <g id="patch_4">
    <path d="M 439.965015 244.221395 
L 439.965015 3.6 
" style="fill: none; stroke: #000000; stroke-width: 0.8; stroke-linejoin: miter; stroke-linecap: square"/>
   </g>
   <g id="patch_5">
    <path d="M 40.403125 244.221395 
L 439.965015 244.221395 
" style="fill: none; stroke: #000000; stroke-width: 0.8; stroke-linejoin: miter; stroke-linecap: square"/>
   </g>
   <g id="patch_6">
    <path d="M 40.403125 3.6 
L 439.965015 3.6 
" style="fill: none; stroke: #000000; stroke-width: 0.8; stroke-linejoin: miter; stroke-linecap: square"/>
   </g>
   <g id="legend_1">
    <g id="patch_7">
     <path d="M 378.665015 143.703125 
L 432.965015 143.703125 
Q 434.965015 143.703125 434.965015 141.703125 
L 434.965015 10.6 
Q 434.965015 8.6 432.965015 8.6 
L 378.665015 8.6 
Q 376.665015 8.6 376.665015 10.6 
L 376.665015 141.703125 
Q 376.665015 143.703125 378.665015 143.703125 
z
" style="fill: #ffffff; opacity: 0.8; stroke: #cccccc; stroke-linejoin: miter"/>
    </g>
    <g id="text_17">
     <!-- $\Omega$ ($\Gamma$) -->
     <g transform="translate(393.715015 20.198437) scale(0.1 -0.1)">
      <defs>
       <path id="DejaVuSans-3a9" d="M 4647 556 
L 4647 0 
L 2772 0 
L 2772 556 
Q 3325 859 3634 1378 
Q 3944 1897 3944 2528 
Q 3944 3278 3531 3731 
Q 3119 4184 2444 4184 
Q 1769 4184 1355 3729 
Q 941 3275 941 2528 
Q 941 1897 1250 1378 
Q 1563 859 2119 556 
L 2119 0 
L 244 0 
L 244 556 
L 1241 556 
Q 747 991 519 1456 
Q 294 1922 294 2497 
Q 294 3491 894 4106 
Q 1491 4722 2444 4722 
Q 3391 4722 3994 4106 
Q 4594 3494 4594 2528 
Q 4594 1922 4372 1459 
Q 4150 997 3647 556 
L 4647 556 
z
" transform="scale(0.015625)"/>
      </defs>
      <use xlink:href="#DejaVuSans-3a9" transform="translate(0 0.015625)"/>
      <use xlink:href="#DejaVuSerif-20" transform="translate(76.416016 0.015625)"/>
      <use xlink:href="#DejaVuSerif-28" transform="translate(108.203125 0.015625)"/>
      <use xlink:href="#DejaVuSans-393" transform="translate(147.216797 0.015625)"/>
      <use xlink:href="#DejaVuSerif-29" transform="translate(202.929688 0.015625)"/>
     </g>
    </g>
    <g id="line2d_37">
     <path d="M 380.665015 31.376562 
L 390.665015 31.376562 
L 400.665015 31.376562 
" style="fill: none; stroke: #0d0887; stroke-width: 0.7; stroke-linecap: square"/>
    </g>
    <g id="text_18">
     <!-- $7.00$ -->
     <g transform="translate(408.665015 34.876562) scale(0.1 -0.1)">
      <defs>
       <path id="DejaVuSans-37" d="M 525 4666 
L 3525 4666 
L 3525 4397 
L 1831 0 
L 1172 0 
L 2766 4134 
L 525 4134 
L 525 4666 
z
" transform="scale(0.015625)"/>
       <path id="DejaVuSans-2e" d="M 684 794 
L 1344 794 
L 1344 0 
L 684 0 
L 684 794 
z
" transform="scale(0.015625)"/>
       <path id="DejaVuSans-30" d="M 2034 4250 
Q 1547 4250 1301 3770 
Q 1056 3291 1056 2328 
Q 1056 1369 1301 889 
Q 1547 409 2034 409 
Q 2525 409 2770 889 
Q 3016 1369 3016 2328 
Q 3016 3291 2770 3770 
Q 2525 4250 2034 4250 
z
M 2034 4750 
Q 2819 4750 3233 4129 
Q 3647 3509 3647 2328 
Q 3647 1150 3233 529 
Q 2819 -91 2034 -91 
Q 1250 -91 836 529 
Q 422 1150 422 2328 
Q 422 3509 836 4129 
Q 1250 4750 2034 4750 
z
" transform="scale(0.015625)"/>
      </defs>
      <use xlink:href="#DejaVuSans-37" transform="translate(0 0.78125)"/>
      <use xlink:href="#DejaVuSans-2e" transform="translate(63.623047 0.78125)"/>
      <use xlink:href="#DejaVuSans-30" transform="translate(95.410156 0.78125)"/>
      <use xlink:href="#DejaVuSans-30" transform="translate(159.033203 0.78125)"/>
     </g>
    </g>
    <g id="line2d_38">
     <path d="M 380.665015 46.054688 
L 390.665015 46.054688 
L 400.665015 46.054688 
" style="fill: none; stroke: #5302a3; stroke-width: 0.7; stroke-linecap: square"/>
    </g>
    <g id="text_19">
     <!-- $4.35$ -->
     <g transform="translate(408.665015 49.554688) scale(0.1 -0.1)">
      <defs>
       <path id="DejaVuSans-34" d="M 2419 4116 
L 825 1625 
L 2419 1625 
L 2419 4116 
z
M 2253 4666 
L 3047 4666 
L 3047 1625 
L 3713 1625 
L 3713 1100 
L 3047 1100 
L 3047 0 
L 2419 0 
L 2419 1100 
L 313 1100 
L 313 1709 
L 2253 4666 
z
" transform="scale(0.015625)"/>
       <path id="DejaVuSans-33" d="M 2597 2516 
Q 3050 2419 3304 2112 
Q 3559 1806 3559 1356 
Q 3559 666 3084 287 
Q 2609 -91 1734 -91 
Q 1441 -91 1130 -33 
Q 819 25 488 141 
L 488 750 
Q 750 597 1062 519 
Q 1375 441 1716 441 
Q 2309 441 2620 675 
Q 2931 909 2931 1356 
Q 2931 1769 2642 2001 
Q 2353 2234 1838 2234 
L 1294 2234 
L 1294 2753 
L 1863 2753 
Q 2328 2753 2575 2939 
Q 2822 3125 2822 3475 
Q 2822 3834 2567 4026 
Q 2313 4219 1838 4219 
Q 1578 4219 1281 4162 
Q 984 4106 628 3988 
L 628 4550 
Q 988 4650 1302 4700 
Q 1616 4750 1894 4750 
Q 2613 4750 3031 4423 
Q 3450 4097 3450 3541 
Q 3450 3153 3228 2886 
Q 3006 2619 2597 2516 
z
" transform="scale(0.015625)"/>
       <path id="DejaVuSans-35" d="M 691 4666 
L 3169 4666 
L 3169 4134 
L 1269 4134 
L 1269 2991 
Q 1406 3038 1543 3061 
Q 1681 3084 1819 3084 
Q 2600 3084 3056 2656 
Q 3513 2228 3513 1497 
Q 3513 744 3044 326 
Q 2575 -91 1722 -91 
Q 1428 -91 1123 -41 
Q 819 9 494 109 
L 494 744 
Q 775 591 1075 516 
Q 1375 441 1709 441 
Q 2250 441 2565 725 
Q 2881 1009 2881 1497 
Q 2881 1984 2565 2268 
Q 2250 2553 1709 2553 
Q 1456 2553 1204 2497 
Q 953 2441 691 2322 
L 691 4666 
z
" transform="scale(0.015625)"/>
      </defs>
      <use xlink:href="#DejaVuSans-34" transform="translate(0 0.78125)"/>
      <use xlink:href="#DejaVuSans-2e" transform="translate(63.623047 0.78125)"/>
      <use xlink:href="#DejaVuSans-33" transform="translate(95.410156 0.78125)"/>
      <use xlink:href="#DejaVuSans-35" transform="translate(159.033203 0.78125)"/>
     </g>
    </g>
    <g id="line2d_39">
     <path d="M 380.665015 60.732812 
L 390.665015 60.732812 
L 400.665015 60.732812 
" style="fill: none; stroke: #8b0aa5; stroke-width: 0.7; stroke-linecap: square"/>
    </g>
    <g id="text_20">
     <!-- $2.70$ -->
     <g transform="translate(408.665015 64.232812) scale(0.1 -0.1)">
      <use xlink:href="#DejaVuSans-32" transform="translate(0 0.78125)"/>
      <use xlink:href="#DejaVuSans-2e" transform="translate(63.623047 0.78125)"/>
      <use xlink:href="#DejaVuSans-37" transform="translate(87.660156 0.78125)"/>
      <use xlink:href="#DejaVuSans-30" transform="translate(151.283203 0.78125)"/>
     </g>
    </g>
    <g id="line2d_40">
     <path d="M 380.665015 75.410937 
L 390.665015 75.410937 
L 400.665015 75.410937 
" style="fill: none; stroke: #b83289; stroke-width: 0.7; stroke-linecap: square"/>
    </g>
    <g id="text_21">
     <!-- $1.68$ -->
     <g transform="translate(408.665015 78.910937) scale(0.1 -0.1)">
      <defs>
       <path id="DejaVuSans-31" d="M 794 531 
L 1825 531 
L 1825 4091 
L 703 3866 
L 703 4441 
L 1819 4666 
L 2450 4666 
L 2450 531 
L 3481 531 
L 3481 0 
L 794 0 
L 794 531 
z
" transform="scale(0.015625)"/>
       <path id="DejaVuSans-36" d="M 2113 2584 
Q 1688 2584 1439 2293 
Q 1191 2003 1191 1497 
Q 1191 994 1439 701 
Q 1688 409 2113 409 
Q 2538 409 2786 701 
Q 3034 994 3034 1497 
Q 3034 2003 2786 2293 
Q 2538 2584 2113 2584 
z
M 3366 4563 
L 3366 3988 
Q 3128 4100 2886 4159 
Q 2644 4219 2406 4219 
Q 1781 4219 1451 3797 
Q 1122 3375 1075 2522 
Q 1259 2794 1537 2939 
Q 1816 3084 2150 3084 
Q 2853 3084 3261 2657 
Q 3669 2231 3669 1497 
Q 3669 778 3244 343 
Q 2819 -91 2113 -91 
Q 1303 -91 875 529 
Q 447 1150 447 2328 
Q 447 3434 972 4092 
Q 1497 4750 2381 4750 
Q 2619 4750 2861 4703 
Q 3103 4656 3366 4563 
z
" transform="scale(0.015625)"/>
       <path id="DejaVuSans-38" d="M 2034 2216 
Q 1584 2216 1326 1975 
Q 1069 1734 1069 1313 
Q 1069 891 1326 650 
Q 1584 409 2034 409 
Q 2484 409 2743 651 
Q 3003 894 3003 1313 
Q 3003 1734 2745 1975 
Q 2488 2216 2034 2216 
z
M 1403 2484 
Q 997 2584 770 2862 
Q 544 3141 544 3541 
Q 544 4100 942 4425 
Q 1341 4750 2034 4750 
Q 2731 4750 3128 4425 
Q 3525 4100 3525 3541 
Q 3525 3141 3298 2862 
Q 3072 2584 2669 2484 
Q 3125 2378 3379 2068 
Q 3634 1759 3634 1313 
Q 3634 634 3220 271 
Q 2806 -91 2034 -91 
Q 1263 -91 848 271 
Q 434 634 434 1313 
Q 434 1759 690 2068 
Q 947 2378 1403 2484 
z
M 1172 3481 
Q 1172 3119 1398 2916 
Q 1625 2713 2034 2713 
Q 2441 2713 2670 2916 
Q 2900 3119 2900 3481 
Q 2900 3844 2670 4047 
Q 2441 4250 2034 4250 
Q 1625 4250 1398 4047 
Q 1172 3844 1172 3481 
z
" transform="scale(0.015625)"/>
      </defs>
      <use xlink:href="#DejaVuSans-31" transform="translate(0 0.78125)"/>
      <use xlink:href="#DejaVuSans-2e" transform="translate(63.623047 0.78125)"/>
      <use xlink:href="#DejaVuSans-36" transform="translate(95.410156 0.78125)"/>
      <use xlink:href="#DejaVuSans-38" transform="translate(159.033203 0.78125)"/>
     </g>
    </g>
    <g id="line2d_41">
     <path d="M 380.665015 90.089062 
L 390.665015 90.089062 
L 400.665015 90.089062 
" style="fill: none; stroke: #db5c68; stroke-width: 0.7; stroke-linecap: square"/>
    </g>
    <g id="text_22">
     <!-- $1.04$ -->
     <g transform="translate(408.665015 93.589062) scale(0.1 -0.1)">
      <use xlink:href="#DejaVuSans-31" transform="translate(0 0.78125)"/>
      <use xlink:href="#DejaVuSans-2e" transform="translate(63.623047 0.78125)"/>
      <use xlink:href="#DejaVuSans-30" transform="translate(95.410156 0.78125)"/>
      <use xlink:href="#DejaVuSans-34" transform="translate(159.033203 0.78125)"/>
     </g>
    </g>
    <g id="line2d_42">
     <path d="M 380.665015 104.767187 
L 390.665015 104.767187 
L 400.665015 104.767187 
" style="fill: none; stroke: #f48849; stroke-width: 0.7; stroke-linecap: square"/>
    </g>
    <g id="text_23">
     <!-- $0.65$ -->
     <g transform="translate(408.665015 108.267187) scale(0.1 -0.1)">
      <use xlink:href="#DejaVuSans-30" transform="translate(0 0.78125)"/>
      <use xlink:href="#DejaVuSans-2e" transform="translate(63.623047 0.78125)"/>
      <use xlink:href="#DejaVuSans-36" transform="translate(95.410156 0.78125)"/>
      <use xlink:href="#DejaVuSans-35" transform="translate(159.033203 0.78125)"/>
     </g>
    </g>
    <g id="line2d_43">
     <path d="M 380.665015 119.445312 
L 390.665015 119.445312 
L 400.665015 119.445312 
" style="fill: none; stroke: #febd2a; stroke-width: 0.7; stroke-linecap: square"/>
    </g>
    <g id="text_24">
     <!-- $0.40$ -->
     <g transform="translate(408.665015 122.945312) scale(0.1 -0.1)">
      <use xlink:href="#DejaVuSans-30" transform="translate(0 0.78125)"/>
      <use xlink:href="#DejaVuSans-2e" transform="translate(63.623047 0.78125)"/>
      <use xlink:href="#DejaVuSans-34" transform="translate(95.410156 0.78125)"/>
      <use xlink:href="#DejaVuSans-30" transform="translate(159.033203 0.78125)"/>
     </g>
    </g>
    <g id="line2d_44">
     <path d="M 380.665015 134.123437 
L 390.665015 134.123437 
L 400.665015 134.123437 
" style="fill: none; stroke: #f0f921; stroke-width: 0.7; stroke-linecap: square"/>
    </g>
    <g id="text_25">
     <!-- $0.25$ -->
     <g transform="translate(408.665015 137.623437) scale(0.1 -0.1)">
      <use xlink:href="#DejaVuSans-30" transform="translate(0 0.78125)"/>
      <use xlink:href="#DejaVuSans-2e" transform="translate(63.623047 0.78125)"/>
      <use xlink:href="#DejaVuSans-32" transform="translate(89.910156 0.78125)"/>
      <use xlink:href="#DejaVuSans-35" transform="translate(153.533203 0.78125)"/>
     </g>
    </g>
   </g>
  </g>
 </g>
 <defs>
  <clipPath id="p96399f1431">
   <rect x="40.403125" y="3.6" width="399.56189" height="240.621395"/>
  </clipPath>
 </defs>
</svg>
