<?xml version="1.0" encoding="UTF-8" standalone="no"?>
<!DOCTYPE svg PUBLIC "-//W3C//DTD SVG 1.1//EN"
 "http://www.w3.org/Graphics/SVG/1.1/DTD/svg11.dtd">
<!-- Generated by graphviz version 2.43.0 (0)
 -->
<!-- Title: G Pages: 1 -->
<svg width="794pt" height="368pt"
 viewBox="0.00 0.00 794.00 368.00" xmlns="http://www.w3.org/2000/svg" xmlns:xlink="http://www.w3.org/1999/xlink">
<g id="graph0" class="graph" transform="scale(1 1) rotate(0) translate(4 364)">
<title>G</title>
<polygon fill="white" stroke="transparent" points="-4,4 -4,-364 790,-364 790,4 -4,4"/>
<g id="clust1" class="cluster">
<title>cluster_clean_classifications_flag</title>
<polygon fill="none" stroke="black" stroke-dasharray="5,2" points="8,-8 8,-352 778,-352 778,-8 8,-8"/>
<text text-anchor="middle" x="393" y="-336.8" font-family="Times,serif" font-size="14.00">clean_classifications_flag</text>
</g>
<!-- clean_classifications_flag_dim_indicator -->
<g id="node1" class="node">
<title>clean_classifications_flag_dim_indicator</title>
<polygon fill="none" stroke="black" points="298.5,-104 298.5,-125 471.5,-125 471.5,-104 298.5,-104"/>
<text text-anchor="start" x="301.5" y="-111.8" font-family="Times,serif" font-weight="bold" font-size="14.00">dim_indicator</text>
<text text-anchor="start" x="410.5" y="-111.8" font-family="Times,serif" font-size="14.00"> </text>
<polygon fill="none" stroke="black" points="298.5,-83 298.5,-104 325.5,-104 325.5,-83 298.5,-83"/>
<text text-anchor="start" x="301.5" y="-89.8" font-family="Times,serif" font-size="14.00">PK</text>
<polygon fill="none" stroke="black" points="325.5,-83 325.5,-104 383.5,-104 383.5,-83 325.5,-83"/>
<text text-anchor="start" x="328.5" y="-89.8" font-family="Times,serif" font-size="14.00">string</text>
<polygon fill="none" stroke="black" points="383.5,-83 383.5,-104 471.5,-104 471.5,-83 383.5,-83"/>
<text text-anchor="start" x="386.5" y="-89.8" font-family="Times,serif" font-size="14.00">id</text>
<polygon fill="none" stroke="black" points="298.5,-62 298.5,-83 325.5,-83 325.5,-62 298.5,-62"/>
<polygon fill="none" stroke="black" points="325.5,-62 325.5,-83 383.5,-83 383.5,-62 325.5,-62"/>
<text text-anchor="start" x="328.5" y="-68.8" font-family="Times,serif" font-size="14.00">integer</text>
<polygon fill="none" stroke="black" points="383.5,-62 383.5,-83 471.5,-83 471.5,-62 383.5,-62"/>
<text text-anchor="start" x="386.5" y="-68.8" font-family="Times,serif" font-size="14.00">position</text>
<polygon fill="none" stroke="black" points="298.5,-41 298.5,-62 325.5,-62 325.5,-41 298.5,-41"/>
<text text-anchor="start" x="301.5" y="-47.8" font-family="Times,serif" font-size="14.00">FK</text>
<polygon fill="none" stroke="black" points="325.5,-41 325.5,-62 383.5,-62 383.5,-41 325.5,-41"/>
<text text-anchor="start" x="328.5" y="-47.8" font-family="Times,serif" font-size="14.00">string</text>
<polygon fill="none" stroke="black" points="383.5,-41 383.5,-62 471.5,-62 471.5,-41 383.5,-41"/>
<text text-anchor="start" x="386.5" y="-47.8" font-family="Times,serif" font-size="14.00">dim_source</text>
<polygon fill="none" stroke="black" points="298.5,-20 298.5,-41 325.5,-41 325.5,-20 298.5,-20"/>
<polygon fill="none" stroke="black" points="325.5,-20 325.5,-41 383.5,-41 383.5,-20 325.5,-20"/>
<text text-anchor="start" x="328.5" y="-26.8" font-family="Times,serif" font-size="14.00">string</text>
<polygon fill="none" stroke="black" points="383.5,-20 383.5,-41 471.5,-41 471.5,-20 383.5,-20"/>
<text text-anchor="start" x="386.5" y="-26.8" font-family="Times,serif" font-size="14.00">name</text>
</g>
<!-- clean_classifications_flag_dim_score -->
<g id="node3" class="node">
<title>clean_classifications_flag_dim_score</title>
<polygon fill="none" stroke="black" points="573.5,-147 573.5,-168 762.5,-168 762.5,-147 573.5,-147"/>
<text text-anchor="start" x="576.5" y="-154.8" font-family="Times,serif" font-weight="bold" font-size="14.00">dim_score</text>
<text text-anchor="start" x="655.5" y="-154.8" font-family="Times,serif" font-size="14.00"> </text>
<polygon fill="none" stroke="black" points="573.5,-126 573.5,-147 600.5,-147 600.5,-126 573.5,-126"/>
<text text-anchor="start" x="576.5" y="-132.8" font-family="Times,serif" font-size="14.00">PK</text>
<polygon fill="none" stroke="black" points="600.5,-126 600.5,-147 658.5,-147 658.5,-126 600.5,-126"/>
<text text-anchor="start" x="603.5" y="-132.8" font-family="Times,serif" font-size="14.00">string</text>
<polygon fill="none" stroke="black" points="658.5,-126 658.5,-147 762.5,-147 762.5,-126 658.5,-126"/>
<text text-anchor="start" x="661.5" y="-132.8" font-family="Times,serif" font-size="14.00">id</text>
<polygon fill="none" stroke="black" points="573.5,-105 573.5,-126 600.5,-126 600.5,-105 573.5,-105"/>
<polygon fill="none" stroke="black" points="600.5,-105 600.5,-126 658.5,-126 658.5,-105 600.5,-105"/>
<text text-anchor="start" x="603.5" y="-111.8" font-family="Times,serif" font-size="14.00">integer</text>
<polygon fill="none" stroke="black" points="658.5,-105 658.5,-126 762.5,-126 762.5,-105 658.5,-105"/>
<text text-anchor="start" x="661.5" y="-111.8" font-family="Times,serif" font-size="14.00">position</text>
<polygon fill="none" stroke="black" points="573.5,-84 573.5,-105 600.5,-105 600.5,-84 573.5,-84"/>
<text text-anchor="start" x="576.5" y="-90.8" font-family="Times,serif" font-size="14.00">FK</text>
<polygon fill="none" stroke="black" points="600.5,-84 600.5,-105 658.5,-105 658.5,-84 600.5,-84"/>
<text text-anchor="start" x="603.5" y="-90.8" font-family="Times,serif" font-size="14.00">string</text>
<polygon fill="none" stroke="black" points="658.5,-84 658.5,-105 762.5,-105 762.5,-84 658.5,-84"/>
<text text-anchor="start" x="661.5" y="-90.8" font-family="Times,serif" font-size="14.00">dim_indicator</text>
<polygon fill="none" stroke="black" points="573.5,-63 573.5,-84 600.5,-84 600.5,-63 573.5,-63"/>
<polygon fill="none" stroke="black" points="600.5,-63 600.5,-84 658.5,-84 658.5,-63 600.5,-63"/>
<text text-anchor="start" x="603.5" y="-69.8" font-family="Times,serif" font-size="14.00">string</text>
<polygon fill="none" stroke="black" points="658.5,-63 658.5,-84 762.5,-84 762.5,-63 658.5,-63"/>
<text text-anchor="start" x="661.5" y="-69.8" font-family="Times,serif" font-size="14.00">name</text>
<polygon fill="none" stroke="black" points="573.5,-42 573.5,-63 600.5,-63 600.5,-42 573.5,-42"/>
<polygon fill="none" stroke="black" points="600.5,-42 600.5,-63 658.5,-63 658.5,-42 600.5,-42"/>
<text text-anchor="start" x="603.5" y="-48.8" font-family="Times,serif" font-size="14.00">string</text>
<polygon fill="none" stroke="black" points="658.5,-42 658.5,-63 762.5,-63 762.5,-42 658.5,-42"/>
<text text-anchor="start" x="661.5" y="-48.8" font-family="Times,serif" font-size="14.00">description</text>
<polygon fill="none" stroke="black" points="573.5,-21 573.5,-42 600.5,-42 600.5,-21 573.5,-21"/>
<polygon fill="none" stroke="black" points="600.5,-21 600.5,-42 658.5,-42 658.5,-21 600.5,-21"/>
<text text-anchor="start" x="603.5" y="-27.8" font-family="Times,serif" font-size="14.00">string</text>
<polygon fill="none" stroke="black" points="658.5,-21 658.5,-42 762.5,-42 762.5,-21 658.5,-21"/>
<text text-anchor="start" x="661.5" y="-27.8" font-family="Times,serif" font-size="14.00">comment</text>
</g>
<!-- clean_classifications_flag_dim_indicator&#45;&gt;clean_classifications_flag_dim_score -->
<g id="edge3" class="edge">
<title>clean_classifications_flag_dim_indicator:id_right&#45;&gt;clean_classifications_flag_dim_score:dim_indicator_left</title>
<path fill="none" stroke="black" d="M472.5,-94C513.3,-94 526.01,-94 562.2,-94"/>
<polygon fill="black" stroke="black" points="562.5,-97.5 572.5,-94 562.5,-90.5 562.5,-97.5"/>
</g>
<!-- clean_classifications_flag_dim_main -->
<g id="node2" class="node">
<title>clean_classifications_flag_dim_main</title>
<polygon fill="none" stroke="black" points="298.5,-295 298.5,-316 471.5,-316 471.5,-295 298.5,-295"/>
<text text-anchor="start" x="301.5" y="-302.8" font-family="Times,serif" font-weight="bold" font-size="14.00">dim_main</text>
<text text-anchor="start" x="378.5" y="-302.8" font-family="Times,serif" font-size="14.00"> </text>
<polygon fill="none" stroke="black" points="298.5,-274 298.5,-295 325.5,-295 325.5,-274 298.5,-274"/>
<text text-anchor="start" x="301.5" y="-280.8" font-family="Times,serif" font-size="14.00">PK</text>
<polygon fill="none" stroke="black" points="325.5,-274 325.5,-295 383.5,-295 383.5,-274 325.5,-274"/>
<text text-anchor="start" x="328.5" y="-280.8" font-family="Times,serif" font-size="14.00">string</text>
<polygon fill="none" stroke="black" points="383.5,-274 383.5,-295 471.5,-295 471.5,-274 383.5,-274"/>
<text text-anchor="start" x="386.5" y="-280.8" font-family="Times,serif" font-size="14.00">id</text>
<polygon fill="none" stroke="black" points="298.5,-253 298.5,-274 325.5,-274 325.5,-253 298.5,-253"/>
<polygon fill="none" stroke="black" points="325.5,-253 325.5,-274 383.5,-274 383.5,-253 325.5,-253"/>
<text text-anchor="start" x="328.5" y="-259.8" font-family="Times,serif" font-size="14.00">integer</text>
<polygon fill="none" stroke="black" points="383.5,-253 383.5,-274 471.5,-274 471.5,-253 383.5,-253"/>
<text text-anchor="start" x="386.5" y="-259.8" font-family="Times,serif" font-size="14.00">position</text>
<polygon fill="none" stroke="black" points="298.5,-232 298.5,-253 325.5,-253 325.5,-232 298.5,-232"/>
<text text-anchor="start" x="301.5" y="-238.8" font-family="Times,serif" font-size="14.00">FK</text>
<polygon fill="none" stroke="black" points="325.5,-232 325.5,-253 383.5,-253 383.5,-232 325.5,-232"/>
<text text-anchor="start" x="328.5" y="-238.8" font-family="Times,serif" font-size="14.00">string</text>
<polygon fill="none" stroke="black" points="383.5,-232 383.5,-253 471.5,-253 471.5,-232 383.5,-232"/>
<text text-anchor="start" x="386.5" y="-238.8" font-family="Times,serif" font-size="14.00">dim_source</text>
<polygon fill="none" stroke="black" points="298.5,-211 298.5,-232 325.5,-232 325.5,-211 298.5,-211"/>
<polygon fill="none" stroke="black" points="325.5,-211 325.5,-232 383.5,-232 383.5,-211 325.5,-211"/>
<text text-anchor="start" x="328.5" y="-217.8" font-family="Times,serif" font-size="14.00">string</text>
<polygon fill="none" stroke="black" points="383.5,-211 383.5,-232 471.5,-232 471.5,-211 383.5,-211"/>
<text text-anchor="start" x="386.5" y="-217.8" font-family="Times,serif" font-size="14.00">name</text>
<polygon fill="none" stroke="black" points="298.5,-190 298.5,-211 325.5,-211 325.5,-190 298.5,-190"/>
<polygon fill="none" stroke="black" points="325.5,-190 325.5,-211 383.5,-211 383.5,-190 325.5,-190"/>
<text text-anchor="start" x="328.5" y="-196.8" font-family="Times,serif" font-size="14.00">any</text>
<polygon fill="none" stroke="black" points="383.5,-190 383.5,-211 471.5,-211 471.5,-190 383.5,-190"/>
<text text-anchor="start" x="386.5" y="-196.8" font-family="Times,serif" font-size="14.00">description</text>
<polygon fill="none" stroke="black" points="298.5,-169 298.5,-190 325.5,-190 325.5,-169 298.5,-169"/>
<polygon fill="none" stroke="black" points="325.5,-169 325.5,-190 383.5,-190 383.5,-169 325.5,-169"/>
<text text-anchor="start" x="328.5" y="-175.8" font-family="Times,serif" font-size="14.00">any</text>
<polygon fill="none" stroke="black" points="383.5,-169 383.5,-190 471.5,-190 471.5,-169 383.5,-169"/>
<text text-anchor="start" x="386.5" y="-175.8" font-family="Times,serif" font-size="14.00">comment</text>
</g>
<!-- clean_classifications_flag_dim_source -->
<g id="node4" class="node">
<title>clean_classifications_flag_dim_source</title>
<polygon fill="none" stroke="black" points="24,-188 24,-209 196,-209 196,-188 24,-188"/>
<text text-anchor="start" x="27" y="-195.8" font-family="Times,serif" font-weight="bold" font-size="14.00">dim_source</text>
<text text-anchor="start" x="117" y="-195.8" font-family="Times,serif" font-size="14.00"> </text>
<polygon fill="none" stroke="black" points="24,-167 24,-188 51,-188 51,-167 24,-167"/>
<text text-anchor="start" x="27" y="-173.8" font-family="Times,serif" font-size="14.00">PK</text>
<polygon fill="none" stroke="black" points="51,-167 51,-188 109,-188 109,-167 51,-167"/>
<text text-anchor="start" x="54" y="-173.8" font-family="Times,serif" font-size="14.00">string</text>
<polygon fill="none" stroke="black" points="109,-167 109,-188 196,-188 196,-167 109,-167"/>
<text text-anchor="start" x="112" y="-173.8" font-family="Times,serif" font-size="14.00">id</text>
<polygon fill="none" stroke="black" points="24,-146 24,-167 51,-167 51,-146 24,-146"/>
<polygon fill="none" stroke="black" points="51,-146 51,-167 109,-167 109,-146 51,-146"/>
<text text-anchor="start" x="54" y="-152.8" font-family="Times,serif" font-size="14.00">integer</text>
<polygon fill="none" stroke="black" points="109,-146 109,-167 196,-167 196,-146 109,-146"/>
<text text-anchor="start" x="112" y="-152.8" font-family="Times,serif" font-size="14.00">position</text>
<polygon fill="none" stroke="black" points="24,-125 24,-146 51,-146 51,-125 24,-125"/>
<polygon fill="none" stroke="black" points="51,-125 51,-146 109,-146 109,-125 51,-125"/>
<text text-anchor="start" x="54" y="-131.8" font-family="Times,serif" font-size="14.00">string</text>
<polygon fill="none" stroke="black" points="109,-125 109,-146 196,-146 196,-125 109,-125"/>
<text text-anchor="start" x="112" y="-131.8" font-family="Times,serif" font-size="14.00">name</text>
<polygon fill="none" stroke="black" points="24,-104 24,-125 51,-125 51,-104 24,-104"/>
<polygon fill="none" stroke="black" points="51,-104 51,-125 109,-125 109,-104 51,-104"/>
<text text-anchor="start" x="54" y="-110.8" font-family="Times,serif" font-size="14.00">string</text>
<polygon fill="none" stroke="black" points="109,-104 109,-125 196,-125 196,-104 109,-104"/>
<text text-anchor="start" x="112" y="-110.8" font-family="Times,serif" font-size="14.00">description</text>
<polygon fill="none" stroke="black" points="24,-83 24,-104 51,-104 51,-83 24,-83"/>
<polygon fill="none" stroke="black" points="51,-83 51,-104 109,-104 109,-83 51,-83"/>
<text text-anchor="start" x="54" y="-89.8" font-family="Times,serif" font-size="14.00">string</text>
<polygon fill="none" stroke="black" points="109,-83 109,-104 196,-104 196,-83 109,-83"/>
<text text-anchor="start" x="112" y="-89.8" font-family="Times,serif" font-size="14.00">comment</text>
</g>
<!-- clean_classifications_flag_dim_source&#45;&gt;clean_classifications_flag_dim_indicator -->
<g id="edge1" class="edge">
<title>clean_classifications_flag_dim_source:id_right&#45;&gt;clean_classifications_flag_dim_indicator:dim_source_left</title>
<path fill="none" stroke="black" d="M197,-178C265.32,-178 229.64,-63.57 287.4,-51.95"/>
<polygon fill="black" stroke="black" points="287.87,-55.42 297.5,-51 287.22,-48.45 287.87,-55.42"/>
</g>
<!-- clean_classifications_flag_dim_source&#45;&gt;clean_classifications_flag_dim_main -->
<g id="edge2" class="edge">
<title>clean_classifications_flag_dim_source:id_right&#45;&gt;clean_classifications_flag_dim_main:dim_source_left</title>
<path fill="none" stroke="black" d="M197,-178C246.33,-178 245.01,-233.55 287.42,-241.14"/>
<polygon fill="black" stroke="black" points="287.24,-244.64 297.5,-242 287.83,-237.67 287.24,-244.64"/>
</g>
</g>
</svg>
