<svg width="1999" height="810" viewBox="0 0 1999 810" fill="none" xmlns="http://www.w3.org/2000/svg">
<g clip-path="url(#clip0_1272_81)">
<path d="M185.523 0.804932L190.406 1.78149L216.773 16.4299L286.109 56.469L306.617 68.1877L325.172 78.9299L348.609 92.6018L364.234 101.391L387.672 115.063L412.086 128.735L435.523 142.406L460.914 157.055L488.258 172.68L539.039 201.977L559.547 213.696L610.328 242.992L633.766 256.664L656.227 269.36L671.852 279.125V532.055L657.203 540.844L606.422 570.141L582.984 583.813L456.031 657.055L451.148 659.008L455.055 662.914L477.516 675.61L487.281 681.469L488.258 683.422V809.399H485.328L468.727 799.633L420.875 772.289L395.484 757.641L372.047 743.969L317.359 712.719L293.922 699.047L268.531 684.399L241.188 668.774L217.75 655.102L195.289 642.406L119.117 598.461L98.6094 586.742L22.4375 542.797L1.92969 531.078L0.953125 529.125V478.344L1.92969 277.172L10.7188 271.313L26.3438 262.524L42.9453 252.758L68.3359 238.11L91.7734 224.438L112.281 212.719L137.672 198.071L161.109 184.399L188.453 168.774L211.891 155.102L219.703 150.219H221.656L217.75 146.313L199.195 135.571L186.5 127.758L185.523 126.781V0.804932ZM223.609 150.219V275.219L214.82 281.078L190.406 294.75L173.805 304.516L148.414 319.164L80.0547 358.227L29.2734 387.524L4.85938 402.172L6.8125 406.078L31.2266 419.75L54.6641 433.422L82.0078 449.047L105.445 462.719L132.789 478.344L158.18 492.992L180.641 505.688L197.242 515.453L224.586 531.078L248.023 544.75L275.367 560.375L300.758 575.024L341.773 598.461L417.945 642.406L445.289 658.031L449.195 659.008L450.172 533.031L477.516 517.406L500.953 503.735L528.297 488.11L629.859 429.516L657.203 413.891L666.969 408.031V404.125L643.531 390.453L616.188 374.828L590.797 360.18L567.359 346.508L541.969 331.86L514.625 316.235L491.188 302.563L468.727 289.867L374 235.18L353.492 223.461L302.711 194.164L275.367 178.539L249.977 163.891L229.469 152.172L226.539 150.219H223.609Z" fill="#008b8b"/>
<path d="M1860.33 300.61H1876.93L1897.44 302.563L1915.02 306.469L1931.62 312.328L1943.34 319.164L1954.08 326.977L1967.75 340.649L1976.54 354.321L1981.42 365.063L1985.33 377.758L1987.28 388.5L1988.26 401.196L1989.23 580.883L1992.16 609.203L1996.07 625.805L1999 631.664V636.547L1959.94 637.524L1957.01 630.688L1954.08 613.11L1952.12 595.531L1951.15 592.602L1942.36 602.367L1933.57 611.156L1919.9 620.922L1908.18 627.758L1888.65 635.571L1870.09 640.453L1858.38 642.406L1846.66 643.383H1831.03L1808.57 640.453L1792.95 635.571L1777.32 627.758L1766.58 619.946L1756.81 611.156L1748.02 600.414L1739.23 583.813L1735.33 570.141L1733.38 555.492V543.774L1736.3 524.242L1741.19 510.571L1749 496.899L1757.79 487.133L1762.67 481.274L1777.32 470.531L1792.95 461.742L1807.59 455.883L1830.05 450.024L1846.66 447.094L1874 445.141L1951.15 444.164V417.797L1950.17 392.406L1946.27 376.781L1938.45 362.133L1929.66 352.367L1920.88 345.531L1907.2 338.696L1892.55 334.789L1878.88 332.836H1853.49L1835.91 335.766L1824.2 339.672L1810.52 346.508L1797.83 356.274L1790.02 365.063L1784.16 374.828L1780.25 385.571L1778.3 397.289L1777.32 398.266H1745.09L1741.19 397.289L1742.16 384.594L1745.09 372.875L1752.91 356.274L1763.65 342.602L1772.44 333.813L1785.13 324.047L1801.73 314.281L1822.24 306.469L1840.8 302.563L1860.33 300.61ZM1894.51 472.485L1869.12 473.461L1844.7 476.391L1826.15 481.274L1811.5 487.133L1800.76 492.992L1788.06 502.758L1779.27 513.5L1772.44 527.172L1770.48 535.961V556.469L1773.41 568.188L1779.27 579.906L1786.11 588.696L1794.9 596.508L1808.57 604.321L1819.31 608.227L1838.84 611.156H1852.52L1874 608.227L1889.62 603.344L1903.3 597.485L1918.92 587.719L1928.69 578.93L1935.52 573.071L1947.24 556.469L1952.12 545.727V473.461L1951.15 472.485H1894.51Z" fill="white"/>
<path d="M929.664 193.188H970.68L974.586 202.953L984.352 230.297L1006.81 292.797L1026.34 347.485L1040.02 385.571L1061.5 445.141L1072.24 474.438L1081.03 499.828L1096.66 542.797L1110.33 581.86L1112.28 589.672H1114.23L1116.19 579.906L1131.81 535.961L1145.48 497.875L1155.25 470.531L1182.59 394.36L1205.05 331.86L1214.82 305.492L1223.61 280.102L1250.95 203.93L1254.86 193.188H1295.88L1294.9 199.047L1278.3 243.969L1263.65 283.031L1245.09 332.836L1238.26 350.414L1232.4 367.016L1220.68 398.266L1192.36 474.438L1176.73 516.43L1169.9 534.008L1164.04 550.61L1131.81 636.547L1096.66 637.524L1093.73 634.594L1079.08 595.531L1065.41 558.422L1046.85 508.617L1008.77 407.055L998.023 377.758L985.328 343.578L976.539 320.141L948.219 243.969L937.477 214.672L929.664 194.164V193.188Z" fill="white"/>
<path d="M1496.07 300.61H1512.67L1533.18 302.563L1547.83 305.492L1565.41 311.352L1581.03 319.164L1591.77 326.977L1603.49 337.719L1610.33 345.531L1616.19 354.321L1622.05 368.969L1624.98 379.711L1626.93 394.36V399.242H1589.82L1586.89 382.641L1582.01 370.922L1576.15 362.133L1570.29 355.297L1556.62 345.531L1541.97 338.696L1528.3 334.789L1512.67 332.836H1495.09L1474.59 335.766L1459.94 340.649L1449.2 346.508L1441.38 353.344H1439.43L1437.48 357.25L1431.62 365.063L1427.71 373.852L1425.76 382.641V398.266L1428.69 409.985L1434.55 419.75L1444.31 428.539L1464.82 439.281L1492.16 448.071L1534.16 458.813L1566.38 469.555L1584.94 478.344L1598.61 488.11L1611.3 499.828L1620.09 513.5L1624.98 525.219L1627.91 539.867V563.305L1624 579.906L1620.09 588.696L1613.26 600.414L1600.56 614.086L1586.89 623.852L1571.27 631.664L1550.76 638.5L1528.3 642.406L1517.55 643.383H1495.09L1468.73 640.453L1450.17 635.571L1431.62 627.758L1419.9 620.922L1411.11 614.086L1401.34 605.297L1392.55 595.531L1384.74 581.86L1380.84 572.094L1376.93 554.516V544.75H1413.06L1414.04 545.727L1416.97 561.352L1422.83 575.024L1429.66 583.813L1439.43 593.578L1457.01 603.344L1472.63 608.227L1490.21 611.156H1524.39L1545.88 606.274L1561.5 599.438L1572.24 591.625L1579.08 585.766L1585.91 575.024L1589.82 564.281L1590.8 558.422V546.703L1587.87 534.008L1581.03 521.313L1575.17 514.477L1561.5 504.711L1545.88 496.899L1526.34 490.063L1468.73 475.414L1441.38 465.649L1424.78 456.86L1413.06 448.071L1403.3 438.305L1394.51 424.633L1389.62 409.985L1387.67 398.266V384.594L1390.6 367.992L1395.48 356.274L1402.32 344.555L1411.11 334.789L1418.92 326.977L1433.57 317.211L1447.24 310.375L1461.89 305.492L1483.38 301.586L1496.07 300.61Z" fill="white"/>
<path d="M1665.99 306.469L1701.15 307.446L1702.12 309.399L1701.15 636.547L1665.99 637.524L1664.04 635.571V308.422L1665.99 306.469Z" fill="white"/>
<path d="M1331.03 306.469H1343.73L1344.7 307.446V635.571L1343.73 636.547H1307.59V307.446L1331.03 306.469Z" fill="white"/>
<path d="M1319.31 187.328H1332.01L1341.77 191.235L1346.66 196.117L1350.56 201.977L1351.54 205.883V217.602L1346.66 227.367L1339.82 233.227L1333.96 235.18H1318.34L1310.52 231.274L1303.69 223.461L1301.73 218.578L1300.76 209.789L1304.66 198.071L1310.52 191.235L1319.31 187.328Z" fill="white"/>
<path d="M1676.73 187.328H1690.41L1700.17 192.211L1706.03 199.047L1708.96 207.836V214.672L1706.03 223.461L1699.2 231.274L1691.38 235.18L1681.62 236.156L1672.83 234.203L1666.97 230.297L1661.11 223.461L1658.18 214.672L1659.16 203.93L1663.06 196.117L1669.9 190.258L1676.73 187.328Z" fill="white"/>
<path d="M326.148 278.149H345.68L365.211 281.078L382.789 286.938L398.414 294.75L410.133 302.563L420.875 311.352L429.664 320.141L440.406 334.789L449.195 350.414L457.008 373.852L459.938 393.383V410.961L457.008 430.492L450.172 451L441.383 467.602L431.617 481.274L420.875 492.992L407.203 503.735L390.602 513.5L375.953 519.36L361.305 523.266L350.562 525.219L333.961 526.196L314.43 524.242L298.805 520.336L283.18 514.477L267.555 505.688L254.859 495.922L239.234 480.297L227.516 462.719L219.703 446.117L213.844 425.61L211.891 409.985V393.383L214.82 374.828L218.727 361.156L225.562 344.555L234.352 330.883L241.188 322.094L249.977 312.328L259.742 303.539L276.344 292.797L293.922 284.985L306.617 281.078L326.148 278.149Z" fill="white"/>
</g>
<defs>
<clipPath id="clip0_1272_81">
<rect width="1999" height="810" fill="white"/>
</clipPath>
</defs>
</svg>
