<?xml version="1.0" encoding="UTF-8" standalone="no"?>
<!DOCTYPE svg PUBLIC "-//W3C//DTD SVG 1.1//EN"
 "http://www.w3.org/Graphics/SVG/1.1/DTD/svg11.dtd">
<!-- Generated by graphviz version 2.43.0 (0)
 -->
<!-- Title: mpdfg Pages: 1 -->
<svg width="1535pt" height="1143pt"
 viewBox="0.00 0.00 1535.00 1142.85" xmlns="http://www.w3.org/2000/svg" xmlns:xlink="http://www.w3.org/1999/xlink">
<g id="graph0" class="graph" transform="scale(1 1) rotate(0) translate(4 1138.85)">
<title>mpdfg</title>
<polygon fill="white" stroke="transparent" points="-4,4 -4,-1138.85 1531,-1138.85 1531,4 -4,4"/>
<!-- start -->
<g id="node1" class="node">
<title>start</title>
<ellipse fill="green" stroke="black" cx="713" cy="-1113.64" rx="21.43" ry="21.43"/>
<text text-anchor="middle" x="713" y="-1108.64" font-family="Times,serif" font-size="20.00">▲</text>
</g>
<!-- A0 -->
<g id="node3" class="node">
<title>A0</title>
<polygon fill="#083471" stroke="transparent" points="729,-891.43 729,-914.43 900,-914.43 900,-891.43 729,-891.43"/>
<polygon fill="none" stroke="black" points="729,-891.43 729,-914.43 900,-914.43 900,-891.43 729,-891.43"/>
<text text-anchor="start" x="733" y="-899.23" font-family="arial" font-size="14.00" fill="white">Assign seriousness (4,926)</text>
<polygon fill="#fdb475" stroke="transparent" points="729,-868.43 729,-891.43 900,-891.43 900,-868.43 729,-868.43"/>
<polygon fill="none" stroke="black" points="729,-868.43 729,-891.43 900,-891.43 900,-868.43 729,-868.43"/>
<text text-anchor="start" x="794" y="-876.23" font-family="arial" font-size="14.00" fill="white">Instant</text>
</g>
<!-- start&#45;&gt;A0 -->
<g id="edge1" class="edge">
<title>start&#45;&gt;A0</title>
<path fill="none" stroke="#bfbfbf" stroke-width="7.07" stroke-dasharray="5,2" d="M730.06,-1100.53C747.31,-1087.31 773.3,-1064.52 787,-1038.43 807.19,-999.97 812.5,-948.89 813.77,-918.46"/>
<polygon fill="white" stroke="transparent" points="805.5,-1002.43 805.5,-1020.43 842.5,-1020.43 842.5,-1002.43 805.5,-1002.43"/>
<text text-anchor="start" x="805.5" y="-1007.63" font-family="arial" font-size="16.00" fill="#09478c">4373</text>
</g>
<!-- A1 -->
<g id="node4" class="node">
<title>A1</title>
<polygon fill="#08306b" stroke="transparent" points="490,-771.43 490,-794.43 668,-794.43 668,-771.43 490,-771.43"/>
<polygon fill="none" stroke="black" points="490,-771.43 490,-794.43 668,-794.43 668,-771.43 490,-771.43"/>
<text text-anchor="start" x="494" y="-779.23" font-family="arial" font-size="14.00" fill="white">Take in charge ticket (5,046)</text>
<polygon fill="#fdb475" stroke="transparent" points="490,-748.43 490,-771.43 668,-771.43 668,-748.43 490,-748.43"/>
<polygon fill="none" stroke="black" points="490,-748.43 490,-771.43 668,-771.43 668,-748.43 490,-748.43"/>
<text text-anchor="start" x="558.5" y="-756.23" font-family="arial" font-size="14.00" fill="white">Instant</text>
</g>
<!-- start&#45;&gt;A1 -->
<g id="edge3" class="edge">
<title>start&#45;&gt;A1</title>
<path fill="none" stroke="#bfbfbf" stroke-width="1.1" stroke-dasharray="5,2" d="M696.14,-1100.42C679.07,-1087.11 653.21,-1064.25 639,-1038.43 595.08,-958.58 583.28,-848.41 580.14,-798.67"/>
<polygon fill="white" stroke="transparent" points="609.5,-942.43 609.5,-960.43 628.5,-960.43 628.5,-942.43 609.5,-942.43"/>
<text text-anchor="start" x="609.5" y="-947.63" font-family="arial" font-size="16.00" fill="#a1cbe3">74</text>
</g>
<!-- A6 -->
<g id="node9" class="node">
<title>A6</title>
<polygon fill="#9ec9e2" stroke="transparent" points="657,-1011.43 657,-1034.43 770,-1034.43 770,-1011.43 657,-1011.43"/>
<polygon fill="none" stroke="black" points="657,-1011.43 657,-1034.43 770,-1034.43 770,-1011.43 657,-1011.43"/>
<text text-anchor="start" x="661" y="-1019.23" font-family="arial" font-size="14.00" fill="white">Insert ticket (114)</text>
<polygon fill="#fdb475" stroke="transparent" points="657,-988.43 657,-1011.43 770,-1011.43 770,-988.43 657,-988.43"/>
<polygon fill="none" stroke="black" points="657,-988.43 657,-1011.43 770,-1011.43 770,-988.43 657,-988.43"/>
<text text-anchor="start" x="693" y="-996.23" font-family="arial" font-size="14.00" fill="white">Instant</text>
</g>
<!-- start&#45;&gt;A6 -->
<g id="edge2" class="edge">
<title>start&#45;&gt;A6</title>
<path fill="none" stroke="#bfbfbf" stroke-width="1.16" stroke-dasharray="5,2" d="M713,-1092.36C713,-1076.92 713,-1055.53 713,-1038.77"/>
<polygon fill="white" stroke="transparent" points="713,-1056.43 713,-1074.43 741,-1074.43 741,-1056.43 713,-1056.43"/>
<text text-anchor="start" x="713" y="-1061.63" font-family="arial" font-size="16.00" fill="#9ec9e2">114</text>
</g>
<!-- complete -->
<g id="node2" class="node">
<title>complete</title>
<ellipse fill="red" stroke="black" cx="623" cy="-21.21" rx="21.43" ry="21.43"/>
<text text-anchor="middle" x="623" y="-16.21" font-family="Times,serif" font-size="20.00">■</text>
</g>
<!-- A0&#45;&gt;A0 -->
<g id="edge20" class="edge">
<title>A0&#45;&gt;A0</title>
<path fill="none" stroke="black" stroke-width="1.61" d="M907.54,-901.03C918.42,-899.26 925.5,-896.06 925.5,-891.43 925.5,-888.39 922.45,-885.97 917.28,-884.16"/>
<polygon fill="black" stroke="black" stroke-width="1.61" points="918.08,-880.75 907.54,-881.83 916.45,-887.56 918.08,-880.75"/>
<polygon fill="snow" stroke="transparent" points="925.5,-891.43 925.5,-906.43 1009.5,-906.43 1009.5,-891.43 925.5,-891.43"/>
<text text-anchor="start" x="956" y="-895.23" font-family="arial" font-size="14.00" fill="#90c2de">438</text>
<polygon fill="snow" stroke="transparent" points="925.5,-876.43 925.5,-891.43 1009.5,-891.43 1009.5,-876.43 925.5,-876.43"/>
<text text-anchor="start" x="925.5" y="-880.23" font-family="arial" font-size="14.00" fill="#fda159">03d 06h 18m </text>
</g>
<!-- A0&#45;&gt;A1 -->
<g id="edge16" class="edge">
<title>A0&#45;&gt;A1</title>
<path fill="none" stroke="black" stroke-width="6.76" d="M754.08,-864.36C741.42,-858.62 728.21,-852.45 716,-846.43 688.69,-832.94 658.88,-817 634.07,-803.36"/>
<polygon fill="black" stroke="black" stroke-width="6.76" points="636.78,-798.1 625.17,-798.45 631.07,-808.46 636.78,-798.1"/>
<polygon fill="snow" stroke="transparent" points="716,-831.43 716,-846.43 800,-846.43 800,-831.43 716,-831.43"/>
<text text-anchor="start" x="741" y="-835.23" font-family="arial" font-size="14.00" fill="#0b4e95">4,151</text>
<polygon fill="snow" stroke="transparent" points="716,-816.43 716,-831.43 800,-831.43 800,-816.43 716,-816.43"/>
<text text-anchor="start" x="716" y="-820.23" font-family="arial" font-size="14.00" fill="#fd9e55">03d 17h 28m </text>
</g>
<!-- A2 -->
<g id="node5" class="node">
<title>A2</title>
<polygon fill="#08326e" stroke="transparent" points="651,-243.43 651,-266.43 790,-266.43 790,-243.43 651,-243.43"/>
<polygon fill="none" stroke="black" points="651,-243.43 651,-266.43 790,-266.43 790,-243.43 651,-243.43"/>
<text text-anchor="start" x="655" y="-251.23" font-family="arial" font-size="14.00" fill="white">Resolve ticket (4,974)</text>
<polygon fill="#fdb475" stroke="transparent" points="651,-220.43 651,-243.43 790,-243.43 790,-220.43 651,-220.43"/>
<polygon fill="none" stroke="black" points="651,-220.43 651,-243.43 790,-243.43 790,-220.43 651,-220.43"/>
<text text-anchor="start" x="700" y="-228.23" font-family="arial" font-size="14.00" fill="white">Instant</text>
</g>
<!-- A0&#45;&gt;A2 -->
<g id="edge21" class="edge">
<title>A0&#45;&gt;A2</title>
<path fill="none" stroke="black" stroke-width="1.36" d="M907.78,-890.36C1002.43,-888.25 1152.05,-879.27 1277,-846.43 1355.12,-825.89 1443,-853.2 1443,-772.43 1443,-772.43 1443,-772.43 1443,-362.43 1443,-298.74 1000.43,-262.48 807.81,-249.71"/>
<polygon fill="black" stroke="black" stroke-width="1.36" points="807.92,-246.21 797.72,-249.05 807.47,-253.2 807.92,-246.21"/>
<polygon fill="snow" stroke="transparent" points="1443,-579.43 1443,-594.43 1527,-594.43 1527,-579.43 1443,-579.43"/>
<text text-anchor="start" x="1473.5" y="-583.23" font-family="arial" font-size="14.00" fill="#99c6e1">257</text>
<polygon fill="snow" stroke="transparent" points="1443,-564.43 1443,-579.43 1527,-579.43 1527,-564.43 1443,-564.43"/>
<text text-anchor="start" x="1443" y="-568.23" font-family="arial" font-size="14.00" fill="#fd9e55">03d 16h 08m </text>
</g>
<!-- A4 -->
<g id="node7" class="node">
<title>A4</title>
<polygon fill="#5fa6d1" stroke="transparent" points="443,-579.43 443,-602.43 525,-602.43 525,-579.43 443,-579.43"/>
<polygon fill="none" stroke="black" points="443,-579.43 443,-602.43 525,-602.43 525,-579.43 443,-579.43"/>
<text text-anchor="start" x="447" y="-587.23" font-family="arial" font-size="14.00" fill="white">Wait (1,440)</text>
<polygon fill="#fdb475" stroke="transparent" points="443,-556.43 443,-579.43 525,-579.43 525,-556.43 443,-556.43"/>
<polygon fill="none" stroke="black" points="443,-556.43 443,-579.43 525,-579.43 525,-556.43 443,-556.43"/>
<text text-anchor="start" x="463.5" y="-564.23" font-family="arial" font-size="14.00" fill="white">Instant</text>
</g>
<!-- A0&#45;&gt;A4 -->
<g id="edge27" class="edge">
<title>A0&#45;&gt;A4</title>
<path fill="none" stroke="black" stroke-width="1.09" d="M815.63,-864.34C816.24,-832.93 812.85,-779.97 787,-744.43 727.15,-662.12 613.02,-616.78 543.2,-595.62"/>
<polygon fill="black" stroke="black" stroke-width="1.09" points="543.81,-592.15 533.23,-592.68 541.83,-598.87 543.81,-592.15"/>
<polygon fill="snow" stroke="transparent" points="809,-771.43 809,-786.43 893,-786.43 893,-771.43 809,-771.43"/>
<text text-anchor="start" x="843" y="-775.23" font-family="arial" font-size="14.00" fill="#a1cbe3">69</text>
<polygon fill="snow" stroke="transparent" points="809,-756.43 809,-771.43 893,-771.43 893,-756.43 809,-756.43"/>
<text text-anchor="start" x="809" y="-760.23" font-family="arial" font-size="14.00" fill="#fda35c">02d 20h 00m </text>
</g>
<!-- A9 -->
<g id="node12" class="node">
<title>A9</title>
<polygon fill="#9ec9e2" stroke="transparent" points="648,-363.43 648,-386.43 792,-386.43 792,-363.43 648,-363.43"/>
<polygon fill="none" stroke="black" points="648,-363.43 648,-386.43 792,-386.43 792,-363.43 648,-363.43"/>
<text text-anchor="start" x="652" y="-371.23" font-family="arial" font-size="14.00" fill="white">Require upgrade (112)</text>
<polygon fill="#fdb475" stroke="transparent" points="648,-340.43 648,-363.43 792,-363.43 792,-340.43 648,-340.43"/>
<polygon fill="none" stroke="black" points="648,-340.43 648,-363.43 792,-363.43 792,-340.43 648,-340.43"/>
<text text-anchor="start" x="699.5" y="-348.23" font-family="arial" font-size="14.00" fill="white">Instant</text>
</g>
<!-- A0&#45;&gt;A9 -->
<g id="edge32" class="edge">
<title>A0&#45;&gt;A9</title>
<path fill="none" stroke="black" stroke-width="1.01" d="M907.62,-888.04C1056.61,-881.67 1331,-858.28 1331,-772.43 1331,-772.43 1331,-772.43 1331,-578.43 1331,-491.44 1313.54,-443.64 1234,-408.43 1167.45,-378.97 979.44,-397.44 907,-390.43 875.49,-387.37 841.14,-382.92 810.58,-378.57"/>
<polygon fill="black" stroke="black" stroke-width="1.01" points="810.76,-375.06 800.37,-377.09 809.76,-381.98 810.76,-375.06"/>
<polygon fill="snow" stroke="transparent" points="1331,-651.43 1331,-666.43 1415,-666.43 1415,-651.43 1331,-651.43"/>
<text text-anchor="start" x="1369" y="-655.23" font-family="arial" font-size="14.00" fill="#a4cce4">8</text>
<polygon fill="snow" stroke="transparent" points="1331,-636.43 1331,-651.43 1415,-651.43 1415,-636.43 1331,-636.43"/>
<text text-anchor="start" x="1331" y="-640.23" font-family="arial" font-size="14.00" fill="#f16e1b">11d 12h 53m </text>
</g>
<!-- A1&#45;&gt;A1 -->
<g id="edge25" class="edge">
<title>A1&#45;&gt;A1</title>
<path fill="none" stroke="black" stroke-width="1.14" d="M676.32,-780.89C687.06,-779.09 694,-775.94 694,-771.43 694,-768.54 691.15,-766.2 686.28,-764.43"/>
<polygon fill="black" stroke="black" stroke-width="1.14" points="686.87,-760.97 676.32,-761.96 685.19,-767.76 686.87,-760.97"/>
<polygon fill="snow" stroke="transparent" points="694,-771.43 694,-786.43 778,-786.43 778,-771.43 694,-771.43"/>
<text text-anchor="start" x="728" y="-775.23" font-family="arial" font-size="14.00" fill="#a0cae3">99</text>
<polygon fill="snow" stroke="transparent" points="694,-756.43 694,-771.43 778,-771.43 778,-756.43 694,-756.43"/>
<text text-anchor="start" x="694" y="-760.23" font-family="arial" font-size="14.00" fill="#fd9a4f">04d 09h 15m </text>
</g>
<!-- A1&#45;&gt;A2 -->
<g id="edge18" class="edge">
<title>A1&#45;&gt;A2</title>
<path fill="none" stroke="black" stroke-width="5.94" d="M676.24,-757.67C710.02,-753.33 748.16,-748.55 783,-744.43 938.47,-726.04 1008.14,-777.93 1129,-678.43 1211.41,-610.58 1210.06,-566.45 1234,-462.43 1275.78,-280.92 965.24,-249.07 807.76,-244.47"/>
<polygon fill="black" stroke="black" stroke-width="5.94" points="807.74,-239.27 797.61,-244.21 807.47,-249.66 807.74,-239.27"/>
<polygon fill="snow" stroke="transparent" points="1229,-507.43 1229,-522.43 1313,-522.43 1313,-507.43 1229,-507.43"/>
<text text-anchor="start" x="1254" y="-511.23" font-family="arial" font-size="14.00" fill="#1662a9">3,562</text>
<polygon fill="snow" stroke="transparent" points="1229,-492.43 1229,-507.43 1313,-507.43 1313,-492.43 1229,-492.43"/>
<text text-anchor="start" x="1229" y="-496.23" font-family="arial" font-size="14.00" fill="#fda058">03d 10h 07m </text>
</g>
<!-- A1&#45;&gt;A4 -->
<g id="edge15" class="edge">
<title>A1&#45;&gt;A4</title>
<path fill="none" stroke="black" stroke-width="2.74" d="M571.21,-744.24C566.58,-729.85 560.21,-711.85 553,-696.43 539.77,-668.13 521.61,-637.85 507.24,-615.32"/>
<polygon fill="black" stroke="black" stroke-width="2.74" points="510.1,-613.29 501.74,-606.78 504.21,-617.09 510.1,-613.29"/>
<polygon fill="snow" stroke="transparent" points="566,-711.43 566,-726.43 650,-726.43 650,-711.43 566,-711.43"/>
<text text-anchor="start" x="591" y="-715.23" font-family="arial" font-size="14.00" fill="#68abd4">1,258</text>
<polygon fill="snow" stroke="transparent" points="566,-696.43 566,-711.43 650,-711.43 650,-696.43 566,-696.43"/>
<text text-anchor="start" x="566" y="-700.23" font-family="arial" font-size="14.00" fill="#fda058">03d 08h 14m </text>
</g>
<!-- A5 -->
<g id="node8" class="node">
<title>A5</title>
<polygon fill="#a1cbe3" stroke="transparent" points="851,-651.43 851,-674.43 1010,-674.43 1010,-651.43 851,-651.43"/>
<polygon fill="none" stroke="black" points="851,-651.43 851,-674.43 1010,-674.43 1010,-651.43 851,-651.43"/>
<text text-anchor="start" x="855" y="-659.23" font-family="arial" font-size="14.00" fill="white">Create SW anomaly (60)</text>
<polygon fill="#fdb475" stroke="transparent" points="851,-628.43 851,-651.43 1010,-651.43 1010,-628.43 851,-628.43"/>
<polygon fill="none" stroke="black" points="851,-628.43 851,-651.43 1010,-651.43 1010,-628.43 851,-628.43"/>
<text text-anchor="start" x="910" y="-636.23" font-family="arial" font-size="14.00" fill="white">Instant</text>
</g>
<!-- A1&#45;&gt;A5 -->
<g id="edge11" class="edge">
<title>A1&#45;&gt;A5</title>
<path fill="none" stroke="black" stroke-width="1.07" d="M676.05,-758.6C716.19,-751.87 762.67,-741.64 803,-726.43 831.37,-715.72 860.76,-699.01 884.12,-684.18"/>
<polygon fill="black" stroke="black" stroke-width="1.07" points="886.26,-686.97 892.76,-678.6 882.46,-681.08 886.26,-686.97"/>
<polygon fill="snow" stroke="transparent" points="860,-711.43 860,-726.43 944,-726.43 944,-711.43 860,-711.43"/>
<text text-anchor="start" x="894" y="-715.23" font-family="arial" font-size="14.00" fill="#a1cbe3">50</text>
<polygon fill="snow" stroke="transparent" points="860,-696.43 860,-711.43 944,-711.43 944,-696.43 860,-696.43"/>
<text text-anchor="start" x="860" y="-700.23" font-family="arial" font-size="14.00" fill="#fda964">01d 21h 56m </text>
</g>
<!-- A7 -->
<g id="node10" class="node">
<title>A7</title>
<polygon fill="#a4cce4" stroke="transparent" points="98,-435.43 98,-458.43 257,-458.43 257,-435.43 98,-435.43"/>
<polygon fill="none" stroke="black" points="98,-435.43 98,-458.43 257,-458.43 257,-435.43 98,-435.43"/>
<text text-anchor="start" x="102" y="-443.23" font-family="arial" font-size="14.00" fill="white">Schedule intervention (5)</text>
<polygon fill="#fdb475" stroke="transparent" points="98,-412.43 98,-435.43 257,-435.43 257,-412.43 98,-412.43"/>
<polygon fill="none" stroke="black" points="98,-412.43 98,-435.43 257,-435.43 257,-412.43 98,-412.43"/>
<text text-anchor="start" x="157" y="-420.23" font-family="arial" font-size="14.00" fill="white">Instant</text>
</g>
<!-- A1&#45;&gt;A7 -->
<g id="edge9" class="edge">
<title>A1&#45;&gt;A7</title>
<path fill="none" stroke="black" stroke-width="1.01" d="M481.81,-765.99C419.82,-760.89 338.56,-749.93 270,-726.43 229.33,-712.48 208.27,-715.21 186,-678.43 147.38,-614.63 157.96,-523.06 168.1,-472.83"/>
<polygon fill="black" stroke="black" stroke-width="1.01" points="171.58,-473.27 170.24,-462.76 164.73,-471.82 171.58,-473.27"/>
<polygon fill="snow" stroke="transparent" points="186,-651.43 186,-666.43 270,-666.43 270,-651.43 186,-651.43"/>
<text text-anchor="start" x="224" y="-655.23" font-family="arial" font-size="14.00" fill="#a4cce4">5</text>
<polygon fill="snow" stroke="transparent" points="186,-636.43 186,-651.43 270,-651.43 270,-636.43 186,-636.43"/>
<text text-anchor="start" x="186" y="-640.23" font-family="arial" font-size="14.00" fill="#fda159">03d 06h 20m </text>
</g>
<!-- A1&#45;&gt;A9 -->
<g id="edge26" class="edge">
<title>A1&#45;&gt;A9</title>
<path fill="none" stroke="black" stroke-width="1.1" d="M659.49,-744.41C669.62,-739.31 679.43,-733.35 688,-726.43 768.15,-661.66 787.78,-632.95 818,-534.43 825.04,-511.48 826.25,-502.97 818,-480.43 806.25,-448.31 781.25,-418.96 759.44,-397.82"/>
<polygon fill="black" stroke="black" stroke-width="1.1" points="761.56,-395.01 751.89,-390.69 756.76,-400.1 761.56,-395.01"/>
<polygon fill="snow" stroke="transparent" points="811,-579.43 811,-594.43 895,-594.43 895,-579.43 811,-579.43"/>
<text text-anchor="start" x="845" y="-583.23" font-family="arial" font-size="14.00" fill="#a1cbe3">70</text>
<polygon fill="snow" stroke="transparent" points="811,-564.43 811,-579.43 895,-579.43 895,-564.43 811,-564.43"/>
<text text-anchor="start" x="811" y="-568.23" font-family="arial" font-size="14.00" fill="#fc974a">04d 22h 43m </text>
</g>
<!-- A2&#45;&gt;complete -->
<g id="edge5" class="edge">
<title>A2&#45;&gt;complete</title>
<path fill="none" stroke="#bfbfbf" stroke-width="1.01" stroke-dasharray="5,2" d="M719.32,-216.23C717.57,-185.87 711.66,-135.07 692,-96.43 679.24,-71.34 655.48,-48.62 639.45,-35.11"/>
<polygon fill="white" stroke="transparent" points="711.5,-114.43 711.5,-132.43 730.5,-132.43 730.5,-114.43 711.5,-114.43"/>
<text text-anchor="start" x="711.5" y="-119.63" font-family="arial" font-size="16.00" fill="#a4cce4">10</text>
</g>
<!-- A2&#45;&gt;A1 -->
<g id="edge23" class="edge">
<title>A2&#45;&gt;A1</title>
<path fill="none" stroke="black" stroke-width="1.21" d="M642.3,-249.52C516.95,-259.9 284,-289.06 284,-362.43 284,-652.43 284,-652.43 284,-652.43 284,-694.28 387.65,-727.97 472.07,-748.48"/>
<polygon fill="black" stroke="black" stroke-width="1.21" points="471.46,-751.93 482,-750.85 473.08,-745.12 471.46,-751.93"/>
<polygon fill="snow" stroke="transparent" points="284,-507.43 284,-522.43 368,-522.43 368,-507.43 284,-507.43"/>
<text text-anchor="start" x="314.5" y="-511.23" font-family="arial" font-size="14.00" fill="#9dc9e2">153</text>
<polygon fill="snow" stroke="transparent" points="284,-492.43 284,-507.43 368,-507.43 368,-492.43 284,-492.43"/>
<text text-anchor="start" x="284" y="-496.23" font-family="arial" font-size="14.00" fill="#fd9a4f">04d 10h 35m </text>
</g>
<!-- A2&#45;&gt;A2 -->
<g id="edge22" class="edge">
<title>A2&#45;&gt;A2</title>
<path fill="none" stroke="black" stroke-width="1.35" d="M797.57,-253.47C808.31,-251.81 815.5,-248.47 815.5,-243.43 815.5,-240.2 812.55,-237.66 807.61,-235.83"/>
<polygon fill="black" stroke="black" stroke-width="1.35" points="808.11,-232.35 797.57,-233.39 806.46,-239.15 808.11,-232.35"/>
<polygon fill="snow" stroke="transparent" points="816,-243.43 816,-258.43 899,-258.43 899,-243.43 816,-243.43"/>
<text text-anchor="start" x="846" y="-247.23" font-family="arial" font-size="14.00" fill="#99c6e1">254</text>
<polygon fill="snow" stroke="transparent" points="816,-228.43 816,-243.43 899,-243.43 899,-228.43 816,-228.43"/>
<text text-anchor="start" x="816" y="-232.23" font-family="arial" font-size="14.00" fill="#fdb272">06h 59m 49s </text>
</g>
<!-- A3 -->
<g id="node6" class="node">
<title>A3</title>
<polygon fill="#094183" stroke="transparent" points="477,-123.43 477,-146.43 574,-146.43 574,-123.43 477,-123.43"/>
<polygon fill="none" stroke="black" points="477,-123.43 477,-146.43 574,-146.43 574,-123.43 477,-123.43"/>
<text text-anchor="start" x="481" y="-131.23" font-family="arial" font-size="14.00" fill="white">Closed (4,566)</text>
<polygon fill="#fdb475" stroke="transparent" points="477,-100.43 477,-123.43 574,-123.43 574,-100.43 477,-100.43"/>
<polygon fill="none" stroke="black" points="477,-100.43 477,-123.43 574,-123.43 574,-100.43 477,-100.43"/>
<text text-anchor="start" x="505" y="-108.23" font-family="arial" font-size="14.00" fill="white">Instant</text>
</g>
<!-- A2&#45;&gt;A3 -->
<g id="edge17" class="edge">
<title>A2&#45;&gt;A3</title>
<path fill="none" stroke="black" stroke-width="7.31" d="M656.18,-216.34C644.57,-210.88 632.74,-204.82 622,-198.43 601.82,-186.42 580.93,-170.93 563.73,-157.23"/>
<polygon fill="black" stroke="black" stroke-width="7.31" points="567.39,-151.98 555.6,-150.68 559.36,-161.93 567.39,-151.98"/>
<polygon fill="snow" stroke="transparent" points="622,-183.43 622,-198.43 706,-198.43 706,-183.43 622,-183.43"/>
<text text-anchor="start" x="647" y="-187.23" font-family="arial" font-size="14.00" fill="#094183">4,552</text>
<polygon fill="snow" stroke="transparent" points="622,-168.43 622,-183.43 706,-183.43 706,-168.43 622,-168.43"/>
<text text-anchor="start" x="622" y="-172.23" font-family="arial" font-size="14.00" fill="#7f2704">29d 08h 57m </text>
</g>
<!-- A3&#45;&gt;complete -->
<g id="edge4" class="edge">
<title>A3&#45;&gt;complete</title>
<path fill="none" stroke="#bfbfbf" stroke-width="7.31" stroke-dasharray="5,2" d="M550.49,-96.36C568.98,-77.45 593.32,-52.56 608.57,-36.97"/>
<polygon fill="white" stroke="transparent" points="583.5,-60.43 583.5,-78.43 620.5,-78.43 620.5,-60.43 583.5,-60.43"/>
<text text-anchor="start" x="583.5" y="-65.63" font-family="arial" font-size="16.00" fill="#094183">4551</text>
</g>
<!-- A3&#45;&gt;A1 -->
<g id="edge6" class="edge">
<title>A3&#45;&gt;A1</title>
<path fill="none" stroke="black" d="M468.32,-125.27C332.56,-128.83 0,-147.26 0,-242.43 0,-652.43 0,-652.43 0,-652.43 0,-747.62 304.28,-766.81 471.68,-770.16"/>
<polygon fill="black" stroke="black" points="471.7,-773.66 481.76,-770.35 471.83,-766.66 471.7,-773.66"/>
<polygon fill="snow" stroke="transparent" points="0,-435.43 0,-450.43 84,-450.43 84,-435.43 0,-435.43"/>
<text text-anchor="start" x="38" y="-439.23" font-family="arial" font-size="14.00" fill="#a4cce4">1</text>
<polygon fill="snow" stroke="transparent" points="0,-420.43 0,-435.43 84,-435.43 84,-420.43 0,-420.43"/>
<text text-anchor="start" x="0" y="-424.23" font-family="arial" font-size="14.00" fill="#fda35c">02d 18h 47m </text>
</g>
<!-- A3&#45;&gt;A3 -->
<g id="edge30" class="edge">
<title>A3&#45;&gt;A3</title>
<path fill="none" stroke="black" stroke-width="1.02" d="M581.53,-133.03C592.07,-131.85 599.5,-128.65 599.5,-123.43 599.5,-120.08 596.45,-117.57 591.49,-115.88"/>
<polygon fill="black" stroke="black" stroke-width="1.02" points="592.03,-112.42 581.53,-113.82 590.61,-119.27 592.03,-112.42"/>
<polygon fill="snow" stroke="transparent" points="599.5,-123.43 599.5,-138.43 683.5,-138.43 683.5,-123.43 599.5,-123.43"/>
<text text-anchor="start" x="633.5" y="-127.23" font-family="arial" font-size="14.00" fill="#a4cce4">14</text>
<polygon fill="snow" stroke="transparent" points="599.5,-108.43 599.5,-123.43 683.5,-123.43 683.5,-108.43 599.5,-108.43"/>
<text text-anchor="start" x="599.5" y="-112.23" font-family="arial" font-size="14.00" fill="#fdab67">01d 13h 42m </text>
</g>
<!-- A4&#45;&gt;A1 -->
<g id="edge19" class="edge">
<title>A4&#45;&gt;A1</title>
<path fill="none" stroke="black" stroke-width="1.77" d="M470.69,-606.65C456.86,-637.97 440.42,-690.59 465,-726.43 467.85,-730.58 471.15,-734.34 474.8,-737.75"/>
<polygon fill="black" stroke="black" stroke-width="1.77" points="472.78,-740.62 482.73,-744.26 477.22,-735.21 472.78,-740.62"/>
<polygon fill="snow" stroke="transparent" points="465,-711.43 465,-726.43 549,-726.43 549,-711.43 465,-711.43"/>
<text text-anchor="start" x="495.5" y="-715.23" font-family="arial" font-size="14.00" fill="#8abfdd">556</text>
<polygon fill="snow" stroke="transparent" points="465,-696.43 465,-711.43 549,-711.43 549,-696.43 465,-696.43"/>
<text text-anchor="start" x="465" y="-700.23" font-family="arial" font-size="14.00" fill="#f98332">08d 04h 58m </text>
</g>
<!-- A4&#45;&gt;A2 -->
<g id="edge14" class="edge">
<title>A4&#45;&gt;A2</title>
<path fill="none" stroke="black" stroke-width="2.07" d="M447.5,-552.18C441.23,-546.74 435.1,-540.72 430,-534.43 393.26,-489.08 362.35,-458.09 393,-408.43 444.9,-324.33 554.51,-281.88 632.5,-261.51"/>
<polygon fill="black" stroke="black" stroke-width="2.07" points="633.5,-264.87 642.33,-259.02 631.78,-258.09 633.5,-264.87"/>
<polygon fill="snow" stroke="transparent" points="393,-435.43 393,-450.43 477,-450.43 477,-435.43 393,-435.43"/>
<text text-anchor="start" x="423.5" y="-439.23" font-family="arial" font-size="14.00" fill="#7fb9da">772</text>
<polygon fill="snow" stroke="transparent" points="393,-420.43 393,-435.43 477,-435.43 477,-420.43 393,-420.43"/>
<text text-anchor="start" x="393" y="-424.23" font-family="arial" font-size="14.00" fill="#f16e1b">11d 13h 20m </text>
</g>
<!-- A4&#45;&gt;A4 -->
<g id="edge24" class="edge">
<title>A4&#45;&gt;A4</title>
<path fill="none" stroke="black" stroke-width="1.14" d="M533.08,-592.49C543.49,-591.16 551,-586.81 551,-579.43 551,-574.7 547.92,-571.21 542.96,-568.97"/>
<polygon fill="black" stroke="black" stroke-width="1.14" points="543.64,-565.53 533.08,-566.36 541.86,-572.29 543.64,-565.53"/>
<polygon fill="snow" stroke="transparent" points="551,-579.43 551,-594.43 635,-594.43 635,-579.43 551,-579.43"/>
<text text-anchor="start" x="581.5" y="-583.23" font-family="arial" font-size="14.00" fill="#a0cae3">102</text>
<polygon fill="snow" stroke="transparent" points="551,-564.43 551,-579.43 635,-579.43 635,-564.43 551,-564.43"/>
<text text-anchor="start" x="551" y="-568.23" font-family="arial" font-size="14.00" fill="#fd9f56">03d 13h 18m </text>
</g>
<!-- A4&#45;&gt;A9 -->
<g id="edge35" class="edge">
<title>A4&#45;&gt;A9</title>
<path fill="none" stroke="black" stroke-width="1.01" d="M453.22,-552.38C448.64,-546.95 444.59,-540.9 442,-534.43 433.07,-512.15 429.07,-500.64 442,-480.43 452.29,-464.35 463.75,-470.6 481,-462.43 530.58,-438.93 541.3,-429.38 592,-408.43 604.32,-403.33 617.47,-398.34 630.47,-393.65"/>
<polygon fill="black" stroke="black" stroke-width="1.01" points="631.65,-396.94 639.89,-390.29 629.3,-390.35 631.65,-396.94"/>
<polygon fill="snow" stroke="transparent" points="442,-507.43 442,-522.43 526,-522.43 526,-507.43 442,-507.43"/>
<text text-anchor="start" x="480" y="-511.23" font-family="arial" font-size="14.00" fill="#a4cce4">6</text>
<polygon fill="snow" stroke="transparent" points="442,-492.43 442,-507.43 526,-507.43 526,-492.43 442,-492.43"/>
<text text-anchor="start" x="442" y="-496.23" font-family="arial" font-size="14.00" fill="#fd9d53">03d 22h 46m </text>
</g>
<!-- A5&#45;&gt;A2 -->
<g id="edge28" class="edge">
<title>A5&#45;&gt;A2</title>
<path fill="none" stroke="black" stroke-width="1.05" d="M1017.72,-630.1C1067.56,-613.45 1125.55,-584.25 1154,-534.43 1165.9,-513.58 1162.53,-502.86 1154,-480.43 1101.93,-343.47 1026.21,-330.98 886,-288.43 860.69,-280.74 832.98,-273.1 807.58,-266.39"/>
<polygon fill="black" stroke="black" stroke-width="1.05" points="808.16,-262.93 797.6,-263.77 806.38,-269.7 808.16,-262.93"/>
<polygon fill="snow" stroke="transparent" points="1146,-435.43 1146,-450.43 1230,-450.43 1230,-435.43 1146,-435.43"/>
<text text-anchor="start" x="1180" y="-439.23" font-family="arial" font-size="14.00" fill="#a3cbe3">40</text>
<polygon fill="snow" stroke="transparent" points="1146,-420.43 1146,-435.43 1230,-435.43 1230,-420.43 1146,-420.43"/>
<text text-anchor="start" x="1146" y="-424.23" font-family="arial" font-size="14.00" fill="#da4f06">17d 02h 54m </text>
</g>
<!-- A5&#45;&gt;A5 -->
<g id="edge36" class="edge">
<title>A5&#45;&gt;A5</title>
<path fill="none" stroke="black" d="M1017.72,-661.16C1028.46,-659.42 1035.5,-656.17 1035.5,-651.43 1035.5,-648.39 1032.61,-645.96 1027.71,-644.15"/>
<polygon fill="black" stroke="black" points="1028.26,-640.69 1017.72,-641.69 1026.59,-647.48 1028.26,-640.69"/>
<polygon fill="snow" stroke="transparent" points="1035.5,-651.43 1035.5,-666.43 1119.5,-666.43 1119.5,-651.43 1035.5,-651.43"/>
<text text-anchor="start" x="1073.5" y="-655.23" font-family="arial" font-size="14.00" fill="#a4cce4">4</text>
<polygon fill="snow" stroke="transparent" points="1035.5,-636.43 1035.5,-651.43 1119.5,-651.43 1119.5,-636.43 1035.5,-636.43"/>
<text text-anchor="start" x="1035.5" y="-640.23" font-family="arial" font-size="14.00" fill="#fda55f">02d 12h 06m </text>
</g>
<!-- A8 -->
<g id="node11" class="node">
<title>A8</title>
<polygon fill="#a4cce4" stroke="transparent" points="869,-507.43 869,-530.43 1036,-530.43 1036,-507.43 869,-507.43"/>
<polygon fill="none" stroke="black" points="869,-507.43 869,-530.43 1036,-530.43 1036,-507.43 869,-507.43"/>
<text text-anchor="start" x="873" y="-515.23" font-family="arial" font-size="14.00" fill="white">Resolve SW anomaly (10)</text>
<polygon fill="#fdb475" stroke="transparent" points="869,-484.43 869,-507.43 1036,-507.43 1036,-484.43 869,-484.43"/>
<polygon fill="none" stroke="black" points="869,-484.43 869,-507.43 1036,-507.43 1036,-484.43 869,-484.43"/>
<text text-anchor="start" x="932" y="-492.23" font-family="arial" font-size="14.00" fill="white">Instant</text>
</g>
<!-- A5&#45;&gt;A8 -->
<g id="edge10" class="edge">
<title>A5&#45;&gt;A8</title>
<path fill="none" stroke="black" stroke-width="1.01" d="M934.04,-624.38C937.49,-602.1 942.49,-569.79 946.34,-544.93"/>
<polygon fill="black" stroke="black" stroke-width="1.01" points="949.84,-545.21 947.92,-534.79 942.93,-544.13 949.84,-545.21"/>
<polygon fill="snow" stroke="transparent" points="944,-579.43 944,-594.43 1028,-594.43 1028,-579.43 944,-579.43"/>
<text text-anchor="start" x="982" y="-583.23" font-family="arial" font-size="14.00" fill="#a4cce4">5</text>
<polygon fill="snow" stroke="transparent" points="944,-564.43 944,-579.43 1028,-579.43 1028,-564.43 944,-564.43"/>
<text text-anchor="start" x="944" y="-568.23" font-family="arial" font-size="14.00" fill="#fb8e3f">06d 11h 10m </text>
</g>
<!-- A5&#45;&gt;A9 -->
<g id="edge31" class="edge">
<title>A5&#45;&gt;A9</title>
<path fill="none" stroke="black" stroke-width="1.01" d="M924.39,-624.4C918.07,-601.7 905.47,-569.76 882,-552.43 840.73,-521.96 806.36,-568.48 768,-534.43 730.16,-500.83 721.16,-439.93 719.54,-400.87"/>
<polygon fill="black" stroke="black" stroke-width="1.01" points="723.03,-400.38 719.26,-390.47 716.03,-400.56 723.03,-400.38"/>
<polygon fill="snow" stroke="transparent" points="768,-507.43 768,-522.43 852,-522.43 852,-507.43 768,-507.43"/>
<text text-anchor="start" x="806" y="-511.23" font-family="arial" font-size="14.00" fill="#a4cce4">9</text>
<polygon fill="snow" stroke="transparent" points="768,-492.43 768,-507.43 852,-507.43 852,-492.43 768,-492.43"/>
<text text-anchor="start" x="768" y="-496.23" font-family="arial" font-size="14.00" fill="#f67a27">09d 15h 23m </text>
</g>
<!-- A6&#45;&gt;A0 -->
<g id="edge13" class="edge">
<title>A6&#45;&gt;A0</title>
<path fill="none" stroke="black" stroke-width="1.15" d="M708.09,-984.33C706.68,-969.1 707.56,-950.24 717,-936.43 719.85,-932.26 723.2,-928.48 726.9,-925.05"/>
<polygon fill="black" stroke="black" stroke-width="1.15" points="729.41,-927.52 734.96,-918.5 724.99,-922.09 729.41,-927.52"/>
<polygon fill="snow" stroke="transparent" points="717.5,-951.43 717.5,-966.43 800.5,-966.43 800.5,-951.43 717.5,-951.43"/>
<text text-anchor="start" x="747.5" y="-955.23" font-family="arial" font-size="14.00" fill="#9ec9e2">111</text>
<polygon fill="snow" stroke="transparent" points="717.5,-936.43 717.5,-951.43 800.5,-951.43 800.5,-936.43 717.5,-936.43"/>
<text text-anchor="start" x="717.5" y="-940.23" font-family="arial" font-size="14.00" fill="#fdb171">12h 05m 21s </text>
</g>
<!-- A7&#45;&gt;A2 -->
<g id="edge8" class="edge">
<title>A7&#45;&gt;A2</title>
<path fill="none" stroke="black" d="M173.15,-408.17C171.45,-387.12 172.32,-357.69 186,-336.43 209.26,-300.26 229.03,-301.47 270,-288.43 335.28,-267.64 520.75,-254.74 632.15,-248.64"/>
<polygon fill="black" stroke="black" points="632.57,-252.12 642.37,-248.09 632.19,-245.13 632.57,-252.12"/>
<polygon fill="snow" stroke="transparent" points="186,-363.43 186,-378.43 270,-378.43 270,-363.43 186,-363.43"/>
<text text-anchor="start" x="224" y="-367.23" font-family="arial" font-size="14.00" fill="#a4cce4">4</text>
<polygon fill="snow" stroke="transparent" points="186,-348.43 186,-363.43 270,-363.43 270,-348.43 186,-348.43"/>
<text text-anchor="start" x="186" y="-352.23" font-family="arial" font-size="14.00" fill="#eb6211">13d 11h 16m </text>
</g>
<!-- A8&#45;&gt;A2 -->
<g id="edge38" class="edge">
<title>A8&#45;&gt;A2</title>
<path fill="none" stroke="black" d="M952.56,-480.24C951.95,-443.88 945.67,-377.88 911,-336.43 884.34,-304.55 844.04,-282.89 807.32,-268.64"/>
<polygon fill="black" stroke="black" points="808.17,-265.22 797.58,-265 805.72,-271.78 808.17,-265.22"/>
<polygon fill="snow" stroke="transparent" points="938,-363.43 938,-378.43 1022,-378.43 1022,-363.43 938,-363.43"/>
<text text-anchor="start" x="976" y="-367.23" font-family="arial" font-size="14.00" fill="#a4cce4">3</text>
<polygon fill="snow" stroke="transparent" points="938,-348.43 938,-363.43 1022,-363.43 1022,-348.43 938,-348.43"/>
<text text-anchor="start" x="938" y="-352.23" font-family="arial" font-size="14.00" fill="#d74c05">17d 16h 20m </text>
</g>
<!-- A8&#45;&gt;A8 -->
<g id="edge37" class="edge">
<title>A8&#45;&gt;A8</title>
<path fill="none" stroke="black" d="M1043.86,-518.95C1054.55,-516.82 1061.5,-512.98 1061.5,-507.43 1061.5,-503.87 1058.65,-501.01 1053.79,-498.86"/>
<polygon fill="black" stroke="black" points="1054.45,-495.41 1043.86,-495.9 1052.45,-502.11 1054.45,-495.41"/>
<polygon fill="snow" stroke="transparent" points="1062,-507.43 1062,-522.43 1145,-522.43 1145,-507.43 1062,-507.43"/>
<text text-anchor="start" x="1099.5" y="-511.23" font-family="arial" font-size="14.00" fill="#a4cce4">4</text>
<polygon fill="snow" stroke="transparent" points="1062,-492.43 1062,-507.43 1145,-507.43 1145,-492.43 1062,-492.43"/>
<text text-anchor="start" x="1062" y="-496.23" font-family="arial" font-size="14.00" fill="#fdb374">05h 26m 02s </text>
</g>
<!-- A8&#45;&gt;A9 -->
<g id="edge7" class="edge">
<title>A8&#45;&gt;A9</title>
<path fill="none" stroke="black" d="M900.2,-480.22C892.26,-474.95 884.55,-468.98 878,-462.43 858.29,-442.69 867.59,-426.1 846,-408.43 835.25,-399.63 822.63,-392.54 809.59,-386.84"/>
<polygon fill="black" stroke="black" points="810.63,-383.48 800.05,-382.93 807.98,-389.96 810.63,-383.48"/>
<polygon fill="snow" stroke="transparent" points="878.5,-435.43 878.5,-450.43 931.5,-450.43 931.5,-435.43 878.5,-435.43"/>
<text text-anchor="start" x="901" y="-439.23" font-family="arial" font-size="14.00" fill="#a4cce4">3</text>
<polygon fill="snow" stroke="transparent" points="878.5,-420.43 878.5,-435.43 931.5,-435.43 931.5,-420.43 878.5,-420.43"/>
<text text-anchor="start" x="878.5" y="-424.23" font-family="arial" font-size="14.00" fill="#fdb475">19m 13s</text>
</g>
<!-- A9&#45;&gt;A1 -->
<g id="edge34" class="edge">
<title>A9&#45;&gt;A1</title>
<path fill="none" stroke="black" stroke-width="1.01" d="M716.5,-390.65C705.86,-469.17 673.38,-698.71 654,-726.43 651.17,-730.47 647.85,-734.19 644.2,-737.62"/>
<polygon fill="black" stroke="black" stroke-width="1.01" points="641.72,-735.13 636.3,-744.23 646.22,-740.49 641.72,-735.13"/>
<polygon fill="snow" stroke="transparent" points="693,-579.43 693,-594.43 777,-594.43 777,-579.43 693,-579.43"/>
<text text-anchor="start" x="731" y="-583.23" font-family="arial" font-size="14.00" fill="#a4cce4">6</text>
<polygon fill="snow" stroke="transparent" points="693,-564.43 693,-579.43 777,-579.43 777,-564.43 693,-564.43"/>
<text text-anchor="start" x="693" y="-568.23" font-family="arial" font-size="14.00" fill="#f67926">09d 18h 27m </text>
</g>
<!-- A9&#45;&gt;A2 -->
<g id="edge12" class="edge">
<title>A9&#45;&gt;A2</title>
<path fill="none" stroke="black" stroke-width="1.11" d="M720,-336.24C720,-319.89 720,-298.62 720,-280.67"/>
<polygon fill="black" stroke="black" stroke-width="1.11" points="723.5,-280.54 720,-270.54 716.5,-280.54 723.5,-280.54"/>
<polygon fill="snow" stroke="transparent" points="720,-303.43 720,-318.43 804,-318.43 804,-303.43 720,-303.43"/>
<text text-anchor="start" x="754" y="-307.23" font-family="arial" font-size="14.00" fill="#a0cae3">82</text>
<polygon fill="snow" stroke="transparent" points="720,-288.43 720,-303.43 804,-303.43 804,-288.43 720,-288.43"/>
<text text-anchor="start" x="720" y="-292.23" font-family="arial" font-size="14.00" fill="#e4590b">15d 03h 09m </text>
</g>
<!-- A9&#45;&gt;A4 -->
<g id="edge33" class="edge">
<title>A9&#45;&gt;A4</title>
<path fill="none" stroke="black" stroke-width="1.01" d="M683.5,-390.51C675.66,-396.3 667.49,-402.49 660,-408.43 621.48,-438.99 610.72,-445.6 576,-480.43 553.74,-502.75 551.64,-511.5 530,-534.43 526.67,-537.96 523.12,-541.57 519.54,-545.14"/>
<polygon fill="black" stroke="black" stroke-width="1.01" points="516.87,-542.85 512.18,-552.35 521.77,-547.85 516.87,-542.85"/>
<polygon fill="snow" stroke="transparent" points="576,-507.43 576,-522.43 660,-522.43 660,-507.43 576,-507.43"/>
<text text-anchor="start" x="614" y="-511.23" font-family="arial" font-size="14.00" fill="#a4cce4">8</text>
<polygon fill="snow" stroke="transparent" points="576,-492.43 576,-507.43 660,-507.43 660,-492.43 576,-492.43"/>
<text text-anchor="start" x="576" y="-496.23" font-family="arial" font-size="14.00" fill="#fd9f56">03d 12h 10m </text>
</g>
<!-- A9&#45;&gt;A9 -->
<g id="edge29" class="edge">
<title>A9&#45;&gt;A9</title>
<path fill="none" stroke="black" stroke-width="1.02" d="M800.36,-373.35C810.97,-371.66 818,-368.35 818,-363.43 818,-360.27 815.11,-357.78 810.25,-355.96"/>
<polygon fill="black" stroke="black" stroke-width="1.02" points="810.91,-352.51 800.36,-353.51 809.22,-359.31 810.91,-352.51"/>
<polygon fill="snow" stroke="transparent" points="818,-363.43 818,-378.43 902,-378.43 902,-363.43 818,-363.43"/>
<text text-anchor="start" x="852" y="-367.23" font-family="arial" font-size="14.00" fill="#a4cce4">15</text>
<polygon fill="snow" stroke="transparent" points="818,-348.43 818,-363.43 902,-363.43 902,-348.43 818,-348.43"/>
<text text-anchor="start" x="818" y="-352.23" font-family="arial" font-size="14.00" fill="#fb8b3b">06d 23h 51m </text>
</g>
</g>
</svg>
