<?xml version="1.0" encoding="UTF-8" standalone="no"?>
<svg
   version="1.1"
   viewBox="0 0 1245.4147 735.80029"
   width="1245.4147pt"
   height="735.80029pt"
   id="svg55"
   sodipodi:docname="logo_tsfast_v3.svg"
   inkscape:version="1.4 (e7c3feb1, 2024-10-09)"
   inkscape:export-filename="logo_tsfast_v3.webp"
   inkscape:export-xdpi="96"
   inkscape:export-ydpi="96"
   xmlns:inkscape="http://www.inkscape.org/namespaces/inkscape"
   xmlns:sodipodi="http://sodipodi.sourceforge.net/DTD/sodipodi-0.dtd"
   xmlns="http://www.w3.org/2000/svg"
   xmlns:svg="http://www.w3.org/2000/svg">
  <defs
     id="defs55">
    <inkscape:path-effect
       effect="powerclip"
       message=""
       id="path-effect78"
       is_visible="true"
       lpeversion="1"
       inverse="true"
       flatten="false"
       hide_clip="false" />
    <inkscape:path-effect
       effect="powerclip"
       message=""
       id="path-effect77"
       is_visible="true"
       lpeversion="1"
       inverse="true"
       flatten="false"
       hide_clip="false" />
    <inkscape:path-effect
       effect="powerclip"
       message=""
       id="path-effect76"
       is_visible="true"
       lpeversion="1"
       inverse="true"
       flatten="false"
       hide_clip="false" />
    <inkscape:path-effect
       effect="powerclip"
       message=""
       id="path-effect75"
       is_visible="true"
       lpeversion="1"
       inverse="true"
       flatten="false"
       hide_clip="false" />
    <inkscape:path-effect
       effect="powerclip"
       message=""
       id="path-effect74"
       is_visible="true"
       lpeversion="1"
       inverse="true"
       flatten="false"
       hide_clip="false" />
    <inkscape:path-effect
       effect="powerclip"
       message=""
       id="path-effect73"
       is_visible="true"
       lpeversion="1"
       inverse="true"
       flatten="false"
       hide_clip="false" />
    <inkscape:path-effect
       effect="powerclip"
       message=""
       id="path-effect72"
       is_visible="true"
       lpeversion="1"
       inverse="true"
       flatten="false"
       hide_clip="false" />
    <inkscape:path-effect
       effect="powerclip"
       message=""
       id="path-effect71"
       is_visible="true"
       lpeversion="1"
       inverse="true"
       flatten="false"
       hide_clip="false" />
    <inkscape:path-effect
       effect="powerclip"
       message=""
       id="path-effect64"
       is_visible="true"
       lpeversion="1"
       inverse="true"
       flatten="false"
       hide_clip="false" />
    <inkscape:path-effect
       effect="powerclip"
       message=""
       id="path-effect63"
       is_visible="true"
       lpeversion="1"
       inverse="true"
       flatten="false"
       hide_clip="false" />
    <inkscape:path-effect
       effect="powerclip"
       message=""
       id="path-effect62"
       is_visible="true"
       lpeversion="1"
       inverse="true"
       flatten="false"
       hide_clip="false" />
    <filter
       id="mask-powermask-path-effect58_inverse"
       inkscape:label="filtermask-powermask-path-effect58"
       style="color-interpolation-filters:sRGB"
       height="100"
       width="100"
       x="-50"
       y="-50">
      <feColorMatrix
         id="mask-powermask-path-effect58_primitive1"
         values="1"
         type="saturate"
         result="fbSourceGraphic" />
      <feColorMatrix
         id="mask-powermask-path-effect58_primitive2"
         values="-1 0 0 0 1 0 -1 0 0 1 0 0 -1 0 1 0 0 0 1 0 "
         in="fbSourceGraphic" />
    </filter>
    <filter
       id="mask-powermask-path-effect59_inverse"
       inkscape:label="filtermask-powermask-path-effect59"
       style="color-interpolation-filters:sRGB"
       height="100"
       width="100"
       x="-50"
       y="-50">
      <feColorMatrix
         id="mask-powermask-path-effect59_primitive1"
         values="1"
         type="saturate"
         result="fbSourceGraphic" />
      <feColorMatrix
         id="mask-powermask-path-effect59_primitive2"
         values="-1 0 0 0 1 0 -1 0 0 1 0 0 -1 0 1 0 0 0 1 0 "
         in="fbSourceGraphic" />
    </filter>
    <filter
       id="mask-powermask-path-effect60_inverse"
       inkscape:label="filtermask-powermask-path-effect60"
       style="color-interpolation-filters:sRGB"
       height="100"
       width="100"
       x="-50"
       y="-50">
      <feColorMatrix
         id="mask-powermask-path-effect60_primitive1"
         values="1"
         type="saturate"
         result="fbSourceGraphic" />
      <feColorMatrix
         id="mask-powermask-path-effect60_primitive2"
         values="-1 0 0 0 1 0 -1 0 0 1 0 0 -1 0 1 0 0 0 1 0 "
         in="fbSourceGraphic" />
    </filter>
    <clipPath
       clipPathUnits="userSpaceOnUse"
       id="clipPath60">
      <path
         d="m 895.38,662.31 c 1.56998,0.01 1.55003,2.78 2.34,3.77 1.97002,6.27 5.19,15.15 6.81998,20.46 -5.25,0.36 -10.86,0.39 -16.09996,0.03 l 0.0203,-1.12 c 2.94,-8.41 4.19999,-14.65 6.92002,-23.14 z"
         fill="#fdfdfd"
         id="path60"
         style="display:block;stroke-width:0.999998" />
    </clipPath>
    <clipPath
       clipPathUnits="userSpaceOnUse"
       id="clipPath61">
      <path
         d="m 895.38,662.31 c 1.56998,0.01 1.55003,2.78 2.34,3.77 1.97002,6.27 5.19,15.15 6.81998,20.46 -5.25,0.36 -10.86,0.39 -16.09996,0.03 l 0.0203,-1.12 c 2.94,-8.41 4.19999,-14.65 6.92002,-23.14 z"
         fill="#fdfdfd"
         id="path61"
         style="display:block;stroke-width:0.999998" />
    </clipPath>
    <clipPath
       clipPathUnits="userSpaceOnUse"
       id="clipPath62">
      <path
         d="m 895.38,662.31 c 1.56998,0.01 1.55003,2.78 2.34,3.77 1.97002,6.27 5.19,15.15 6.81998,20.46 -5.25,0.36 -10.86,0.39 -16.09996,0.03 l 0.0203,-1.12 c 2.94,-8.41 4.19999,-14.65 6.92002,-23.14 z"
         fill="#fdfdfd"
         id="path62"
         style="display:block;stroke-width:0.999998" />
    </clipPath>
    <clipPath
       clipPathUnits="userSpaceOnUse"
       id="clipPath64">
      <path
         id="lpe_path-effect71"
         style="stroke-width:0.999998"
         class="powerclip"
         d="m 1065.43,254.32283 h 129.922 V 377.81 H 1065.43 Z m 0.94,101.26717 c -1.5,-1.08999 -2.24,0.7 -3.06,1.65 -6.99,10.79001 -19.32,19.11 -32.23,20.1 -4.05,1.03 -7.9,0.36 -11.76,-0.02 -1.52,2.76 -1.53,6.36 -2.86,9.13 -0.49,5.15 -2.56,10.44 -3.51,15.55 -3.13,12.43 -6.09,24.65 -9.22,36.95 -0.88,3.59 -1.46,5.32 -1.98,9.05 -0.48,1.44 -1.24,3.22 -0.48,4.7 9.34,5.1 17.81,14.29 20.19,24.84 1.83,0.53 2.44,-0.36 3.93,-1.11 36.2,-15.74 68.43,-37.48 99.9,-61.13 0.54,-0.5 0.65,-1.14 0.32,-1.92 -3.36,-8.19 -3.69,-17.44 -1.17,-25.96 0.94,-1.38 -0.31,-1.95 -1.44,-2.37 -19.2,-10.4 -37.09,-19.92 -56.63,-29.46 z" />
    </clipPath>
    <clipPath
       clipPathUnits="userSpaceOnUse"
       id="clipPath65">
      <path
         id="lpe_path-effect72"
         style="stroke-width:0.999998"
         class="powerclip"
         d="M 846.86335,192.1082 H 1014.9744 V 381.17227 H 846.86335 Z M 1066.37,355.59 c -1.5,-1.08999 -2.24,0.7 -3.06,1.65 -6.99,10.79001 -19.32,19.11 -32.23,20.1 -4.05,1.03 -7.9,0.36 -11.76,-0.02 -1.52,2.76 -1.53,6.36 -2.86,9.13 -0.49,5.15 -2.56,10.44 -3.51,15.55 -3.13,12.43 -6.09,24.65 -9.22,36.95 -0.88,3.59 -1.46,5.32 -1.98,9.05 -0.48,1.44 -1.24,3.22 -0.48,4.7 9.34,5.1 17.81,14.29 20.19,24.84 1.83,0.53 2.44,-0.36 3.93,-1.11 36.2,-15.74 68.43,-37.48 99.9,-61.13 0.54,-0.5 0.65,-1.14 0.32,-1.92 -3.36,-8.19 -3.69,-17.44 -1.17,-25.96 0.94,-1.38 -0.31,-1.95 -1.44,-2.37 -19.2,-10.4 -37.09,-19.92 -56.63,-29.46 z" />
    </clipPath>
    <clipPath
       clipPathUnits="userSpaceOnUse"
       id="clipPath66">
      <path
         id="lpe_path-effect73"
         style="stroke-width:0.999998"
         class="powerclip"
         d="m 1006.7087,188.10858 h 152.893 v 124.69061 h -152.893 z M 1066.37,355.59 c -1.5,-1.08999 -2.24,0.7 -3.06,1.65 -6.99,10.79001 -19.32,19.11 -32.23,20.1 -4.05,1.03 -7.9,0.36 -11.76,-0.02 -1.52,2.76 -1.53,6.36 -2.86,9.13 -0.49,5.15 -2.56,10.44 -3.51,15.55 -3.13,12.43 -6.09,24.65 -9.22,36.95 -0.88,3.59 -1.46,5.32 -1.98,9.05 -0.48,1.44 -1.24,3.22 -0.48,4.7 9.34,5.1 17.81,14.29 20.19,24.84 1.83,0.53 2.44,-0.36 3.93,-1.11 36.2,-15.74 68.43,-37.48 99.9,-61.13 0.54,-0.5 0.65,-1.14 0.32,-1.92 -3.36,-8.19 -3.69,-17.44 -1.17,-25.96 0.94,-1.38 -0.31,-1.95 -1.44,-2.37 -19.2,-10.4 -37.09,-19.92 -56.63,-29.46 z" />
    </clipPath>
    <clipPath
       clipPathUnits="userSpaceOnUse"
       id="clipPath67">
      <path
         id="lpe_path-effect74"
         style="stroke-width:0.999998"
         class="powerclip"
         d="M 1028.087,116.17762 H 1187.54 V 219.62064 H 1028.087 Z M 1066.37,355.59 c -1.5,-1.08999 -2.24,0.7 -3.06,1.65 -6.99,10.79001 -19.32,19.11 -32.23,20.1 -4.05,1.03 -7.9,0.36 -11.76,-0.02 -1.52,2.76 -1.53,6.36 -2.86,9.13 -0.49,5.15 -2.56,10.44 -3.51,15.55 -3.13,12.43 -6.09,24.65 -9.22,36.95 -0.88,3.59 -1.46,5.32 -1.98,9.05 -0.48,1.44 -1.24,3.22 -0.48,4.7 9.34,5.1 17.81,14.29 20.19,24.84 1.83,0.53 2.44,-0.36 3.93,-1.11 36.2,-15.74 68.43,-37.48 99.9,-61.13 0.54,-0.5 0.65,-1.14 0.32,-1.92 -3.36,-8.19 -3.69,-17.44 -1.17,-25.96 0.94,-1.38 -0.31,-1.95 -1.44,-2.37 -19.2,-10.4 -37.09,-19.92 -56.63,-29.46 z" />
    </clipPath>
    <clipPath
       clipPathUnits="userSpaceOnUse"
       id="clipPath68">
      <path
         id="lpe_path-effect75"
         style="stroke-width:0.999998"
         class="powerclip"
         d="M 848.39,95.922122 H 981.87 V 244.21 H 848.39 Z M 1066.37,355.59 c -1.5,-1.08999 -2.24,0.7 -3.06,1.65 -6.99,10.79001 -19.32,19.11 -32.23,20.1 -4.05,1.03 -7.9,0.36 -11.76,-0.02 -1.52,2.76 -1.53,6.36 -2.86,9.13 -0.49,5.15 -2.56,10.44 -3.51,15.55 -3.13,12.43 -6.09,24.65 -9.22,36.95 -0.88,3.59 -1.46,5.32 -1.98,9.05 -0.48,1.44 -1.24,3.22 -0.48,4.7 9.34,5.1 17.81,14.29 20.19,24.84 1.83,0.53 2.44,-0.36 3.93,-1.11 36.2,-15.74 68.43,-37.48 99.9,-61.13 0.54,-0.5 0.65,-1.14 0.32,-1.92 -3.36,-8.19 -3.69,-17.44 -1.17,-25.96 0.94,-1.38 -0.31,-1.95 -1.44,-2.37 -19.2,-10.4 -37.09,-19.92 -56.63,-29.46 z" />
    </clipPath>
    <clipPath
       clipPathUnits="userSpaceOnUse"
       id="clipPath69">
      <path
         id="lpe_path-effect76"
         style="stroke-width:0.999998"
         class="powerclip"
         d="M 808.37064,65.279579 H 913.54891 V 232.80586 H 808.37064 Z M 1066.37,355.59 c -1.5,-1.08999 -2.24,0.7 -3.06,1.65 -6.99,10.79001 -19.32,19.11 -32.23,20.1 -4.05,1.03 -7.9,0.36 -11.76,-0.02 -1.52,2.76 -1.53,6.36 -2.86,9.13 -0.49,5.15 -2.56,10.44 -3.51,15.55 -3.13,12.43 -6.09,24.65 -9.22,36.95 -0.88,3.59 -1.46,5.32 -1.98,9.05 -0.48,1.44 -1.24,3.22 -0.48,4.7 9.34,5.1 17.81,14.29 20.19,24.84 1.83,0.53 2.44,-0.36 3.93,-1.11 36.2,-15.74 68.43,-37.48 99.9,-61.13 0.54,-0.5 0.65,-1.14 0.32,-1.92 -3.36,-8.19 -3.69,-17.44 -1.17,-25.96 0.94,-1.38 -0.31,-1.95 -1.44,-2.37 -19.2,-10.4 -37.09,-19.92 -56.63,-29.46 z" />
    </clipPath>
    <clipPath
       clipPathUnits="userSpaceOnUse"
       id="clipPath70">
      <path
         id="lpe_path-effect77"
         style="stroke-width:0.999998"
         class="powerclip"
         d="M 961.82124,57.403484 H 1079.68 V 152.58 H 961.82124 Z M 1066.37,355.59 c -1.5,-1.08999 -2.24,0.7 -3.06,1.65 -6.99,10.79001 -19.32,19.11 -32.23,20.1 -4.05,1.03 -7.9,0.36 -11.76,-0.02 -1.52,2.76 -1.53,6.36 -2.86,9.13 -0.49,5.15 -2.56,10.44 -3.51,15.55 -3.13,12.43 -6.09,24.65 -9.22,36.95 -0.88,3.59 -1.46,5.32 -1.98,9.05 -0.48,1.44 -1.24,3.22 -0.48,4.7 9.34,5.1 17.81,14.29 20.19,24.84 1.83,0.53 2.44,-0.36 3.93,-1.11 36.2,-15.74 68.43,-37.48 99.9,-61.13 0.54,-0.5 0.65,-1.14 0.32,-1.92 -3.36,-8.19 -3.69,-17.44 -1.17,-25.96 0.94,-1.38 -0.31,-1.95 -1.44,-2.37 -19.2,-10.4 -37.09,-19.92 -56.63,-29.46 z" />
    </clipPath>
    <clipPath
       clipPathUnits="userSpaceOnUse"
       id="clipPath71">
      <path
         id="lpe_path-effect78"
         style="stroke-width:0.999998"
         class="powerclip"
         d="M 86.931994,4.8520382 H 1251.991 V 612.31468 H 86.931994 Z M 1066.37,355.59 c -1.5,-1.08999 -2.24,0.7 -3.06,1.65 -6.99,10.79001 -19.32,19.11 -32.23,20.1 -4.05,1.03 -7.9,0.36 -11.76,-0.02 -1.52,2.76 -1.53,6.36 -2.86,9.13 -0.49,5.15 -2.56,10.44 -3.51,15.55 -3.13,12.43 -6.09,24.65 -9.22,36.95 -0.88,3.59 -1.46,5.32 -1.98,9.05 -0.48,1.44 -1.24,3.22 -0.48,4.7 9.34,5.1 17.81,14.29 20.19,24.84 1.83,0.53 2.44,-0.36 3.93,-1.11 36.2,-15.74 68.43,-37.48 99.9,-61.13 0.54,-0.5 0.65,-1.14 0.32,-1.92 -3.36,-8.19 -3.69,-17.44 -1.17,-25.96 0.94,-1.38 -0.31,-1.95 -1.44,-2.37 -19.2,-10.4 -37.09,-19.92 -56.63,-29.46 z" />
    </clipPath>
  </defs>
  <sodipodi:namedview
     id="namedview55"
     pagecolor="#ffffff"
     bordercolor="#000000"
     borderopacity="0.25"
     inkscape:showpageshadow="2"
     inkscape:pageopacity="0.0"
     inkscape:pagecheckerboard="true"
     inkscape:deskcolor="#d1d1d1"
     inkscape:document-units="pt"
     inkscape:zoom="0.63157895"
     inkscape:cx="847.875"
     inkscape:cy="661.04166"
     inkscape:window-width="1712"
     inkscape:window-height="1412"
     inkscape:window-x="854"
     inkscape:window-y="0"
     inkscape:window-maximized="0"
     inkscape:current-layer="svg55"
     showgrid="false" />
  <path
     id="path2"
     clip-path="url(#clipPath71)"
     d="M 938.86816,9.8789063 C 932.70973,10.080469 926.5425,11.437266 921,14.009766 c -10.78,4.79 -19.80934,13.990117 -24.31934,24.870117 -2.33,5.34 -3.13009,11.139531 -4.04003,16.769531 -8.97,3.85 -17.55108,8.980488 -25.60108,14.500488 -18.08,12.18 -34.25918,26.839701 -48.65918,43.199708 -0.82,1.09 -1.62986,2.07078 -3.10986,1.30078 -15.02,-9.64 -35.77065,-7.32978 -48.66065,4.97022 -4.92,4.4 -8.77996,9.86009 -10.95996,16.10009 -0.98,1.72 -1.11994,4.03926 -2.18994,5.73926 -0.73,8.52 -1.60955,16.82025 2.21045,24.76025 1.92,5.35 5.00994,10.05944 8.93994,14.16944 0.31,0.74 0.20016,1.3408 -0.33984,1.8208 -11.77,19.65 -23.95022,40.67951 -36.47022,59.74951 l -0.7998,0.45996 c -6.12,-2.11 -12.66049,-1.61972 -19.00049,-0.21972 -9.57,3.04 -17.55,10.31029 -21,19.80029 -1.05,4.8 -3.05014,10.06 -1.39014,15 0.04,3.05 1.22057,5.01951 1.58057,7.99951 -3.64,9.41 -9.30057,17.64033 -15.83057,25.34033 -8.77,10.7 -20.27931,19.40971 -32.79931,25.19971 -3.64,1.32 -7.63055,3.55037 -11.56055,3.88037 -11.54,4.19 -24.21957,4.71914 -36.55957,4.11914 -2.64,-1.16 -5.68043,-0.10976 -8.44043,-1.25976 -15.39,-1.92 -28.71049,-6.56997 -43.00049,-12.45997 -17.83,-8.22 -35.19992,-19.06052 -51.16992,-30.54052 -19.94,-14.18 -39.17992,-29.32961 -57.91992,-45.09961 -25.65,-21.22 -52.32985,-43.93981 -80.58985,-61.54981 -15.19,-9.66 -31.84043,-18.37955 -48.94043,-24.03955 -4.79,-1.93 -11.41988,-4.12004 -16.37988,-5.54004 -2.75,-1.22 -6.25,-0.88982 -9,-2.06982 -6.16,-1.04 -13.76951,-2.71 -19.99951,-3 -7.62,-0.72 -15.34951,-0.29016 -22.99951,-0.41016 -10.43,-0.17 -19.78115,1.11977 -29.93115,2.75977 -5.72,1.73 -10.08916,1.34035 -15.13916,3.36035 -23.35,6.03 -45.37002,16.75971 -64.27002,31.94971 -1.92,1.32 -3.86963,2.9492 -5.11963,4.9292 -1.11,2.31 -1.0399,5.22115 0.3501,7.43115 11.38,15.33 22.62958,32.02892 33.32958,47.89892 2.44,3.54 5.77987,7.57028 10.60987,5.78028 11.99,-5.73 23.36992,-10.09 36.16992,-13.5 7.19,-1.63 18.53951,-3.18004 25.99951,-4.04004 6.66,-0.1 13.35098,-0.19969 20.00098,0.0703 5.09,1.11 9.55922,0.52057 14.44922,2.33057 6.18,0.49 12.76078,2.18976 18.55078,4.25976 4.8,0.78 10.24,3.66981 15,5.29981 10.56,4.86 20.3998,10.14922 30.0498,16.69922 19.95,12.78 39.0893,26.82138 57.7793,41.42138 33.46,25.99 66.18096,51.38885 104.98096,69.06885 12.23,6.22 24.33945,10.01031 37.18945,14.32031 9.94,2.07 19.67,5.21996 30,5.70996 1.44,-0.08 2.58049,0.63969 4.00049,0.67969 10.93,0.55 22.07,0.70026 33,0.0103 6.13,-1.17 12.21887,-1.34971 18.58887,-3.44971 5.23,-1.63 10.85011,-2.69059 15.87011,-5.10059 8.96,-2.2 17.631,-6.88988 25.771,-11.12988 18.69,-10.37 35.31955,-24.7291 48.78955,-41.3291 10.14,-11.97 18.83953,-24.80069 26.51953,-38.45069 4.19,-1.85 8.34065,-2.88986 11.91065,-6.10986 14.39,-10.68 16.06947,-33.8801 3.95947,-46.8501 -1.55,-1.71 0.54103,-3.23953 1.31103,-4.76953 11.18,-17.36 22.85885,-36.63099 33.81885,-54.27099 0.68,-1 1.25094,-2.54899 2.46094,-2.95899 4.4,1.12 8.36902,2.69914 12.99902,2.61914 2.69,0.77 6.08043,-0.75965 8.44043,0.36035 2.55,5.32 4.25016,11.78018 6.41016,17.43018 1.7,5.83 4.36984,12.64049 6.33984,19.00049 0.38,1.21 1.38983,2.43898 0.56983,3.70898 -7.62,4.9 -13.80002,13.48008 -15.52002,22.33008 -2.11,6.76 -1.23983,13.18996 0.18017,19.95996 1.57,3.66 2.56037,5.53 4.63037,9 l -0.15966,0.96094 c -16.8,19.14 -34.40073,38.78996 -50.74073,58.20996 -0.9,1.26 -2.9799,0.17918 -4.1499,-0.0908 -6.25,-0.57 -12.31,-0.0895 -18,2.73047 -6.1,2.85 -11.26018,7.85004 -14.43018,13.79004 -2.07,3.48 -2.3799,6.81039 -3.3999,10.40039 -0.42,2.3 0.14942,4.74902 -0.31054,6.99902 -14.12,14.88 -32.15922,28.11994 -50.44922,37.43994 -14.48,6.93 -29.69016,12.09067 -45.41016,14.68067 -4.39,0.3 -8.81049,1.89052 -13.00049,2.04052 -3.09,1.17 -6.37894,0.31989 -9.41894,1.37989 -10.37,0.47 -20.82067,0.56 -31.18067,0 -2.68,-1.02 -5.90023,-0.17067 -8.49023,-1.18067 -6.63,-0.93 -10.84899,-2.04935 -17.95899,-3.08935 -13.93,-3.33 -25.08099,-6.39047 -38.52099,-11.73047 -17.17,-6.28 -34.20973,-15.51945 -49.71973,-25.18945 -25.32,-15.41 -48.52051,-33.98049 -72.02051,-52.00049 -20.9,-16.02 -41.88896,-33.29992 -64.68896,-47.41992 -14.88,-8.99 -30.91008,-17.03954 -47.83008,-21.26954 -5.6,-2.16 -14.2709,-2.23058 -20.1709,-3.60058 -11.81,-0.15 -22.46933,-0.61938 -34.06933,1.64062 -11.75,2.85 -22.39086,5.50864 -33.38086,10.84864 -14.45,6.43 -27.47004,15.21093 -39.29004,25.71093 -12.38,11.57 -24.13998,24.40926 -33.22998,38.73926 -3.500021,5.42 -6.549183,10.71033 -9.659183,16.34033 -1.2,3.23 0.150508,6.49 3.020508,8.25 15.179995,9.16 30.459375,18.17086 45.609375,27.38086 3.46,2.35 6.93059,1.77942 9.60059,-1.35058 7.74,-11.05 16.97933,-22.15071 28.06933,-29.97071 8.29,-6.5 17.54004,-11.04962 27.29004,-14.86962 6.63,-1.82 10.12072,-2.87004 16.99072,-4.04004 15.91,-2.25 29.95981,-0.33032 45.04981,4.42968 15.5,4.98 29.95967,13.41118 43.65967,22.20118 20.89,13.62 40.59994,27.49902 60.68994,42.24902 33.16,24.45 68.6799,46.66984 107.6499,60.33984 3.47,1.08 7.39951,2.92996 10.99951,3.45996 10.28,3.66 18.06115,4.76061 28.43115,7.12061 4.49,0.87 10.60942,1.85041 15.14942,1.92041 3.89,1.27 8.45041,0.24988 12.42041,1.37988 9.27,0.27 18.72902,0.31899 27.99902,-0.041 2.82,-0.74 6.1,-0.57924 9,-0.71924 4.62,-1.17 10.43,-0.67983 15,-2.06983 5.77,-0.8 11.75029,-2.87021 17.55029,-3.47021 3.69,-1.73 8.35065,-2.16959 11.91065,-4.07959 3.88,-0.33 7.85004,-2.44982 11.54004,-3.56982 37.8,-14.29001 70.33898,-39.78022 98.20898,-68.72022 2.13,-1.05 5.50035,0.0292 7.86035,-0.84082 8.59,-1.15 16.93993,-6.16008 21.91993,-13.33008 5.3,-7.08 6.18048,-16.46922 4.75048,-24.94922 -0.95,-5.25 -3.11011,-10.0099 -6.87011,-13.8999 -0.78,-0.96 -2.35991,-1.71088 -1.89991,-3.15088 16.03,-18.75 31.62946,-36.03888 47.68946,-54.35888 1.04,-1.06 2.13012,0.32923 3.12012,0.71923 2.51,1.29 5.25017,2.05018 7.68017,3.18018 4.88,0.55 9.63004,1.10959 14.54004,0.32959 2.3,0.24 1.71996,2.64066 2.70996,4.18066 5.77,18.61 12.64016,41.00041 17.66016,59.67041 0.62,0.9 0.96939,2.87883 -0.37061,3.29883 -10.41,5.31 -18.73894,15.18061 -21.41894,26.62061 -1.89,5.1 -1.54104,10.95937 -1.31104,16.35937 -0.27,1.49 -2.10953,2.1607 -3.26953,2.9707 -19.19,12.21 -38.44949,24.2701 -57.72949,36.3501 -1.24,0.87 -2.17006,1.96022 -3.81006,1.22022 -2.46,-2.45 -5.96074,-3.96112 -9.26074,-4.89112 -6.77,-2.79 -13.83948,-1.57906 -20.45948,0.96094 -9.42,3.86 -16.34089,12.75901 -17.17089,22.97901 -16.75,12.34 -36.63881,21.55117 -56.02881,28.95117 -16.39,5.45 -32.35102,10.36951 -49.54102,12.49951 -5.58,1.32 -12.28,1.82012 -18,2.37012 -2.11,0.13 -4.03,-0.33043 -6,0.55957 -11.02,0.54 -21.02892,1.4097 -32.14892,0.4497 -3.2,-0.54 -6.67102,0.10127 -9.79102,-0.69873 -1.1,-0.62 -2.80908,-0.15004 -4.05908,-0.29004 -9.58,-0.51 -17.6502,-1.83045 -26.9502,-3.71045 -5.22,-0.97 -12.04078,-1.89962 -17.05078,-3.61962 -26.52,-6.61 -50.99986,-15.83106 -75.10986,-28.83106 -21.68,-11.53 -41.67969,-25.17949 -61.42969,-39.72949 -23.26,-17.2 -45.74045,-34.44961 -70.46045,-49.59961 -14.03,-8.37 -30.28892,-15.85047 -46.39892,-18.48047 -2.33,-0.88 -4.86125,-4.9e-4 -7.03125,-1.00049 -13.02,-0.94 -26.64934,1.33008 -38.56934,6.58008 -11.59,5.37 -21.93957,12.91988 -30.55957,22.37988 -13.55,14.51 -23.2998,32.10112 -27.7998,51.39112 -1.82,4.89 -1.50086,10.04896 -2.63086,15.18896 -0.16,6.71 -0.84038,13.29098 -0.13038,20.00098 -0.2,5.9 1.13127,11.57 1.55127,18 3.17,14.38 7.31879,28.04019 14.25879,41.20019 11.92,22.98 30.03051,42.01922 50.27051,57.94922 2.61,1.78 5.16053,4.34996 8.04053,5.70996 3.01,1.27 6.24015,-0.25937 7.91015,-2.85937 4.48,-8.14 8.26981,-15.86012 12.79981,-24.12012 3.75,-7.06 8.43949,-15.16029 11.97949,-22.05029 0.94,-2.95 -0.38047,-5.87998 -2.73047,-7.72998 -13.84,-10.42 -26.96951,-24.53059 -32.74951,-41.10059 -5.14,-13.64 -6.55953,-30.59986 1.23047,-43.60986 4.58,-9.54 13.48908,-16.38963 23.55908,-19.36963 8.59,-2.9 18.49061,-3.11045 27.37061,-1.46045 10.8,2.11 19.69961,6.77078 29.34961,11.80078 19.47,10.79 36.25978,23.9594 54.27978,35.6294 23.15,14.99 45.91096,29.42966 71.23096,40.65966 26.61,12.32 55.04002,20.86067 83.77002,25.93067 12.18,1.72 26.97,4.00971 39,4.19971 13.05,0.97 25.97,0.10078 39,-0.19922 5.71,-1.1 13.18902,-1.13024 18.99902,-2.49024 4.03,-0.13 8.82049,-1.56025 13.00049,-1.51025 20.41,-4.31 38.42947,-8.86985 57.95947,-16.83985 22.94,-9.07 44.96022,-21.41013 64.97022,-35.89013 2.39,-2.28 4.3108,-0.35041 7.0708,-0.42041 12.73,3.07 27.44914,-3.15936 33.36914,-15.08936 5.15,-8.82 4.44068,-18.82099 0.95068,-28.02099 9.44,-6.11 19.95979,-12.59983 29.52979,-18.56983 9.9,-6.49 19.20019,-12.28906 29.20019,-18.53906 1.89,-0.88 1.88022,0.69984 2.72022,1.83984 6.14,9.95 16.609,16.96914 28.229,18.36914 16.39,2.97 34.46069,-4.83943 42.95069,-19.41943 2.86,-4.81 4.33939,-9.65 5.62939,-15 0.5,-5.67 0.82027,-12.28971 -0.96973,-17.69971 -0.62,-1.14 -0.69015,-2.57986 -1.16015,-3.85986 22.03,-12.72 44.80992,-24.94088 67.66992,-36.15088 1.85,-0.96 2.56043,-0.2493 3.19043,1.4707 4.07,7.37 9.98037,13.57959 17.44044,17.57959 1.59,0.82 1.3902,2.08034 0.9302,3.59034 -2.25,6.7 -2.751,12.30933 -4.71097,19.06933 -1.83,6.56 -3.2795,14.71045 -5.2295,20.96045 -1.98,10.7 -4.76984,18.88008 -7.08984,29.83008 -0.33,0.68 -0.63062,1.38963 -0.89062,2.11963 -3.58,0.66 -8.04977,-0.56983 -11.75977,0.93017 -19.17,2.85 -34.25941,20.81016 -33.89941,40.16016 -0.35,8.06 2.31013,16.41943 6.64013,23.16943 9.51,14.48 28.90887,22.25096 45.58887,17.23096 11.30001,-2.87 20.74071,-10.80068 25.99071,-21.20068 2.89,-5.12 3.5393,-10.34032 5.0493,-15.82032 16.79,-7.6 34.1397,-15.54908 49.8897,-25.05908 22.16,-12.46 40.0108,-26.1699 60.3208,-40.8999 4.98,4.62 10.9199,7.74932 17.4199,9.54932 8.24,2.16 17.1099,0.9607 24.9199,-2.2793 11.02,-5.31 19.9208,-15.49025 21.7808,-27.76025 0.9,-3.45 0.479,-7.37067 0.539,-10.93067 -0.09,-6.53 -2.6298,-11.78006 -5.8798,-17.31006 -2.34,-4 -5.7305,-6.87959 -8.9605,-10.07959 0.53,-4.13 2.0305,-6.59982 2.9605,-10.31982 2.48,-6 3.3298,-11.71004 5.5898,-18.29004 1.71,-7.92 4.7297,-16.01 5.4697,-24 2.9,-10.67 4.3508,-21.8099 6.0308,-32.6499 1.17,-1.88 -0.3596,-6.10074 1.6904,-7.01074 18.68,-2.13 35.1589,-17.75899 39.2989,-35.95899 5.45,-19.6 -3.8795,-41.92066 -21.4395,-52.18066 -4.96,-3.15 -11.2207,-5.37028 -16.9307,-6.53028 -3.3,-1.03 -7.4994,0.0302 -10.6494,-1.08984 -2.63,-7.4 -6.8697,-14.54939 -10.7197,-21.37939 -10.1,-16.73 -22.0798,-33.10032 -36.3398,-46.57032 -1.04,-1.84 1.45,-4.66988 1.79,-6.62988 6.12,-15.09 1.3896,-32.710449 -10.6904,-43.460449 -7.57,-6.97 -18.1505,-11.180098 -28.4605,-10.850098 -12.77,-0.12 -24.97,6.570996 -32.54,16.770996 -1.12,1.59 -3.1901,0.459824 -4.5601,-0.180176 -14.29,-4.87 -28.2493,-8.180546 -42.8393,-11.560546 -11.89,-1.83 -24.9496,-5.679356 -38.05961,-6.839356 -2.41,-0.95 -5.26006,-0.339824 -7.56006,-1.319824 -3.93,-17.66 -17.82043,-32.16041 -35.44043,-36.42041 -1.91,-1.2100021 -3.88,-0.42959 -6,-1.07959 -2.0275,-0.1875007 -4.07902,-0.2488287 -6.13184,-0.1816407 z m 48.5918,52.5249027 c 2.39586,0.03309 5.1858,1.117187 7.53955,1.335937 6.61999,0.82 14.15099,2.79002 20.00099,3.52002 5.52,1.89 9.48,1.369941 15,2.939941 9.56,2.68 18.3702,3.770332 28.4502,7.340332 3.21,0.48 5.5688,1.02 8.5488,2.25 1.48,0.45 4.6499,0.880449 5.4199,2.210449 -1.04,6.04 -0.8189,11.949994 -0.1889,18.000002 0.66,3.14 1.7492,5.829 2.4492,8.729 -18.35,13.66 -33.6896,25.70059 -51.0996,38.85059 -3.85,-2.28 -7.1096,-4.59022 -11.5796,-5.72022 -6.74,-2.75 -15.09993,-2.03043 -21.91993,-0.19043 -1.14,-0.52 -1.45127,-2.63988 -2.30127,-3.62988 -6.88,-13.35 -12.8593,-24.38906 -19.5293,-38.03906 -0.34,-1.520008 -2.23004,-3.250236 -1.04004,-4.740236 10.56,-7.42 17.84951,-20.090781 19.24951,-32.800781 0.32375,-0.04375 0.65823,-0.06039 1.00049,-0.05566 z m -92.84912,7.892578 c 0.33219,-0.04312 0.65146,-0.0062 0.93896,0.153808 2.61,7.83 6.23075,14.97002 12.26075,20.77002 1.61,1.34 0.18877,2.529726 -0.51123,3.969726 -13.44,26.579999 -27.01887,53.260549 -40.33887,79.810549 -8.94,18.11 -17.71,34.4398 -26.25,51.7998 -0.88,1.25 -2.00106,1.12 -3.33106,0.75 -3.39,-1.38 -7.739,0.21957 -10.979,-0.94043 -5.03,-13.84 -7.88019,-23.79019 -12.70019,-37.45019 -0.91,-1.1 0.26015,-1.89992 1.16015,-2.41992 9.01,-5.35 15.45031,-13.92926 18.82031,-23.73926 1.61,-4.27 1.65942,-9.43098 1.64942,-14.00098 -0.41,-2.04 0.23988,-4.67971 -0.87012,-6.44971 -0.16,-6.22 -4.20965,-12.30955 -7.13965,-17.28955 8.98,-10.84 19.31981,-20.75988 30.04981,-29.879879 10.76,-9.06 22.02963,-16.969707 34.36963,-23.699707 0.7575,-0.405 1.87453,-1.254902 2.87109,-1.384277 z m 26.81982,30.626953 c 1.16719,-0.0291 2.51233,0.86666 3.56983,1.07666 8.19,2.85 17.58945,2.9202 25.93945,0.7002 0.85,-0.53 2.37977,-0.87965 2.75977,0.36035 4.3,7.65 7.96056,15.23945 12.08056,22.93945 3.25,6.89 8.24034,15.19049 11.09034,22.00049 -1.67,2.68 -5.15006,5.00951 -6.81006,7.99951 -3.81,5.01 -5.20059,10.48994 -6.60059,16.43994 -0.37,3.52 -0.44006,7.03006 -0.0601,10.56006 -0.49,1.42 -2.61974,1.73061 -3.73974,2.62061 -31.81,15.35 -59.88065,31.25996 -90.66065,48.45996 -3.11,1.6 -6.66902,4.43988 -9.99902,5.12988 -1.7,-1.46 -4.39035,-3.71979 -5.61035,-5.52979 4.7,-9.76 11.97047,-22.83035 16.98047,-33.36035 17.76,-34.55 32.40875,-65.23 49.96875,-99 0.3325,-0.275 0.70224,-0.38728 1.0913,-0.39697 z m 162.12014,20.26172 c 0.2775,0.0269 0.5771,0.13449 0.9096,0.35449 7.28,7.04 17.3791,11.11004 27.5391,10.79004 2.67,-0.19 6.0104,0.29988 8.4404,-0.87012 6.93,-0.44 13.6704,-5.04 19.1104,-9 6.1,5.02 11.4294,11.37004 16.3594,17.54004 10.17,13.06 19.5108,27.64104 26.6308,42.56104 -0.93,1.54 -2.3702,1.17007 -3.7602,2.08008 -12.48,5.68999 -22.25,16.83949 -26.19,29.97949 -3.71,0.05 -7.8198,-2.8602 -11.5898,-3.7002 -13.9,-5.05 -29.731,-9.48002 -44.001,-14.02002 -12.25,-3.68 -24.4492,-7.62031 -36.6592,-11.32031 -7.4,-2.36 -15.6708,-4.29004 -22.8808,-7.04004 -0.12,-6.61 -0.849,-12.85892 -4.229,-18.64892 -0.59,-1.72 0.7691,-1.84118 1.8091,-2.70118 14.42,-11.07 31.6607,-24.02959 46.3007,-34.82959 0.7425,-0.6 1.378,-1.25543 2.2105,-1.1748 z m -48.4072,71.94873 c 0.2215,0.0361 0.464,0.11059 0.7265,0.22559 11.7,3.55 23.4299,6.97056 35.1299,10.58056 3,0.61 6.4405,2.46953 9.5405,2.51953 9.21,3.75 21.6588,7.20028 31.5088,10.28028 11.82,3.71 27.1208,8.49039 38.5708,12.65039 0.92,5.92 1.58,11.20914 3.98,16.86914 0.06,0.89 -1.5001,1.75019 -2.1401,2.20019 -29.75,20.68 -55.9505,38.7403 -86.2705,58.8003 -1.2,1.11 -1.9594,0.33994 -2.6294,-0.81006 -6,-9.11 -14.9598,-15.60012 -25.2598,-18.87012 -4.13,-1.9 -9.4902,-1.6092 -13.9702,-1.9292 -1.54,-2.81 -1.0306,-5.7599 -2.1006,-8.6499 -1.3,-6.85 -1.4502,-11.85029 -2.9502,-19.05029 -1.57,-8.66 -3.1399,-17.20971 -4.3799,-25.94971 -0.97,-4.73 -2.0398,-9.75055 -2.3598,-14.56055 -0.59,-1.32 -1.5695,-3.97939 0.081,-4.87939 9.05,-3.17 16.7003,-10.20116 21.0703,-18.68116 0.3075,-0.6075 0.7885,-0.85388 1.4532,-0.7456 z m -66.85844,3.98437 c 0.14705,0.0181 0.29255,0.0606 0.43505,0.13184 4.41,7.85 12.33993,14.19959 21.16993,16.07959 2.15,1.41 6.12992,8e-5 7.66992,2.08008 1.06,9.11 3.34924,18.13033 4.69924,27.59033 0.24,5.42 2.5105,12.51 3.0205,18 1.73,6.26 1.6796,12.78049 3.5596,19.00049 -0.15,3.09 1.7599,5.94021 0.9199,8.72021 -19.33002,6.59 -31.46885,27.2693 -29.54885,47.2793 0.25,1.04 -0.0404,1.83062 -0.88037,2.39063 -23.65,11.52 -47.35008,24.7189 -70.33008,37.6289 -1.74,0.63 -2.16049,-0.83928 -3.25049,-1.75928 -8.32,-8.51 -21.00951,-12.92039 -32.74951,-11.90039 -2.48,0.14 -1.50004,-1.42982 -2.54004,-2.81982 -0.29,-2.67 -1.23992,-4.74955 -1.66992,-7.53955 -3.86,-11.66 -7.40018,-25.51049 -11.43018,-37.00049 -0.86,-4.46 -2.84021,-10.65 -4.22021,-15 -0.64,-1.54 -1.70985,-4.36988 -1.08985,-5.87988 7.28,-5.11 13.33082,-12.24012 15.09083,-21.12012 1.75,-4.86 1.37943,-10.93049 0.66943,-16.00049 -0.51,-1.43 -1.67024,-4.32922 -0.24024,-5.44922 31.57,-17.94 65.26987,-37.2507 97.60987,-53.2207 0.95375,-0.2975 2.07611,-1.33789 3.10547,-1.21143 z m 193.97164,62.21485 c 0.1435,-0.0149 0.2886,-0.0127 0.4336,0.007 3.95,4.19 8.1596,7.92961 13.3096,10.59961 3.72,1.91 8.3005,4.29051 12.5405,4.52051 2.86,0.72 1.6599,4.07975 0.9199,5.98975 -0.48,8.12 -2.25,16.66931 -4.04,24.54931 -0.54,6.55 -1.8103,10.71098 -3.3603,17.00098 -1.26,5.97 -2.3206,10.17902 -4.0606,15.99902 -1.9,6.81 -3.2197,12.34049 -5.6997,19.00049 -0.39,1.17 -0.6698,4.07061 -2.2998,4.12061 -3.79,-0.47 -7.0695,-1.52055 -10.9995,-1.06055 -6.61,0.89 -12.3899,2.04945 -18.1099,5.68945 -3.41,1.83 -5.9901,4.98055 -8.8901,7.06055 -7.15,-2.96 -15.821,-8.16022 -23.001,-11.72022 -9.16,-4.89 -18.4299,-9.69017 -27.6899,-14.43017 -3.48,-2.2 -7.6494,-3.5091 -10.8794,-6.0791 1.37,-5.92 0.4299,-12.62008 0.3999,-18.58008 3.01,-2.63 7.3995,-5.0009 10.7695,-7.4209 28.04,-18.76 52.2704,-35.84893 79.4004,-54.64893 0.405,-0.3525 0.8265,-0.55312 1.2568,-0.59765 z"
     style="fill:#003a59;fill-opacity:1"
     transform="translate(-1.5758585,-9.8525799)" />
  <path
     d="m 948.42414,16.04742 c 8.23,2.56 16.06,9.9 19.28,17.91 2.75,6.03 3.54,13.73 1.8,20.19 -2.44,10.85 -10.58,20.13 -21.08,23.97 -4.93,1.64 -10.88,2.9 -16,1.28 -9.87,-1.26 -18.63,-8.43 -22.95,-17.25 -6.99,-14.16 -2.99,-32.61 10.11,-41.79 8.28,-6.03 19.14,-7.78 28.84,-4.31 z"
     fill="#23afc6"
     id="path3" />
  <path
     d="m 1120.6441,56.83742 c 10.96,4.07 18.23,15.64 16.88,27.31 -0.4,9.94 -7.22,18.14 -16.1,22.1 -6.67,3 -15.38,2.77 -22,-0.31 -8.76,-4.14 -15.13,-12.97 -15.1,-22.79 -0.26,-4.91 0.53,-9.66 2.89,-14 5.99,-12.03 21.1,-17.59 33.43,-12.31 z"
     fill="#23afc6"
     id="path5" />
  <path
     d="m 798.42414,114.09742 c 8.36,1.67 15.19,7.95 18.34,15.78 2.57,5.56 3.53,12.35 1.54,18.27 -2.87,7.36 -7.42,13.87 -14.88,17.17 -4.93,2.35 -10.65,2.3 -16,1.86 -10.83,-1.34 -19.65,-10.28 -21.16,-21.03 -1.8,-8.38 1.1,-18.04 6.85,-24.3 6.12,-6.69 16.51,-10.29 25.31,-7.75 z"
     fill="#23afc6"
     id="path9" />
  <path
     d="m 999.42414,143.90742 c 11.29996,-0.25 21.17996,9.09 21.99996,20.24 -0.12,3.52 0.59,6.83 -0.95,10 -2.43,10.74 -13.88,17.5 -24.40996,16.46 -8.24,-0.76 -16.06,-6.41 -18.93,-14.27 -2.93,-6 -2.13,-13.88 0.67,-19.85 3.82,-7.72 13.25,-12.57 21.62,-12.58 z"
     fill="#23afc6"
     id="path10" />
  <path
     d="m 246.98414,161.60742 c 2.47,0.95 5.49,0.35 8.09,1 19.15,2.5 38.88,8.44 56.3,16.81 44.57,21.03 81.35,54.63 119.51,85.27 18.29,14.94 37.28,29.88 56.77,43.17 21.39,14.83 44.06,26.69 69.07,33.9 18.72,5.34 39.88,8.53 59.27,4.93 14.06,-2.72 27.61,-7.35 39.7,-15.22 15.19,-9.17 27.42,-23.43 36.44,-38.52 2.7,-5.26 5.57,-10.51 8.05,-15.8 0.76,-2.53 -0.16,-4.27 -1.32,-6.42 -3.03,-8.22 0.4,-19.57 8.56,-23.54 7.12,-3.03 17.02,-1.25 21.62,5.35 1.7,2.73 2.29,5.57 3.14,8.61 0.71,8.12 -3.51,16.69 -11.76,19.06 -2.97,1.02 -5.64,0.5 -7.43,3.53 -2.16,4.18 -4.74,8.75 -7.22,12.74 -6.64,12.04 -14.98,22.63 -24.15,32.85 -7.56,7.98 -15.04,15.63 -23.95,22.12 -13.78,10.41 -28.93,17.52 -45.25,22.86 -18.89,6.12 -38.85,7.43 -58.62,5.38 -16.44,-2.16 -31.76,-6.15 -47.38,-11.62 -16.35,-6.52 -32.3,-14.19 -47.22,-23.62 -39.66,-23.83 -72.64,-53.37 -110.24,-79.84 -5.24,-3.12 -10.31,-7.18 -15.54,-10.38 -23.39,-15.51 -49.05,-28.09 -76.93,-32.41 -12.77,-2.44 -27.06,-2.26 -40.07,-1.43 -3,1.03 -6.18,0.34 -9.08,1.42 -15.84,2.17 -30.35,7.18 -44.92,13.55 -1.19,0.57 -2.3,1.48 -3.24,-0.07 -7.23,-10.39 -15.71,-22.65 -22.59,-33.14 -1.38,-2.42 -4.03,-4.98 -4.77,-7.6 10.65,-8.1 21.87,-15.02 34.38,-19.76 12.58,-5.26 26.58,-9.03 40.08,-11.03 2.73,-1.07 5.54,-0.18 8.31,-1.2 11.22,-1.47 21.12,-1.23 32.39,-0.95 z"
     fill="#23afc6"
     id="path11" />
  <path
     d="m 1213.4241,188.34742 c 7.85,4.31 14.01,11.91 16.36,20.56 2.07,6.87 1.62,13.99 -0.9,20.69 -3.81,10.98 -13.83,19.74 -25.27,21.9 -16.75,3.85 -35.04,-8.11 -38.65,-24.92 -2.1,-8.6 -1.19,-17.76 3.39,-25.43 4.16,-7.36 11.6,-13.34 19.81,-15.36 8.49,-2.99 17.39,-1.39 25.26,2.56 z"
     fill="#23afc6"
     id="path13" />
  <path
     d="m 97.714141,203.49742 c 2.959999,-1.23 6.209999,1.22 7.699999,3.65 10.94,15.47 20.19,30.18 31.78,46.21 2.13,2.76 4.44,6.37 2.55,9.88 -1.03,2.63 -3.22,3.25 -5.1,5.16 -16.32,13.2 -31.38,28.47 -43.349999,45.75 -1.76,2.71 -3.19,6.51 -6.87,6.93 -3.89,0.53 -6.74,-2.31 -10,-3.96 -9.2,-5.51 -18.58,-10.29 -27.33,-15.63 -4.16,-2 -8.29,-4.67 -12.43,-6.68 -2.67,-1.36 -4.87,-3.55 -5.14,-6.66 0.39,-3.16 2.43,-6.24 4.12,-8.9 14.59,-24.55 32.67,-46.79 53.47,-66.41 3.33,-3.21 6.68,-6.92 10.6,-9.34 z"
     fill="#003a59"
     id="path15" />
  <path
     d="m 98.104141,221.48742 c 7.959999,12.5 16.159999,25.02 25.389999,36.66 0.03,1.71 -1.2,1.8 -2.2,2.81 -14.92,12.53 -28.159999,26.74 -39.449999,42.62 -1.35,1.13 -2.91,-0.2 -4.2,-0.75 -9.37,-5.24 -17.54,-10.39 -27.22,-15.52 -1.09,-0.52 -3.04,-0.87 -3.41,-2.16 1,-2.8 3.2,-5.3 4.66,-7.91 12.48,-19.26 27.33,-37.06 43.36,-53.48 0.87,-0.64 1.89,-2.46 3.07,-2.27 z"
     fill="#0b78a6"
     id="path16" />
  <path
     d="m 837.42414,232.12742 c 9.21,2.85 15.74,12.43 15.08,22.02 0.34,8.09 -4.42,14.84 -11.08,18.98 -5.88,3.35 -14.17,4.31 -20.37,1.41 -3.18,-1.07 -5.83,-3.53 -7.98,-6.03 -6.12,-7.01 -6.15,-18.61 -1.53,-26.36 5.19,-8.73 16.14,-13.1 25.88,-10.02 z"
     fill="#23afc6"
     id="path17" />
  <path
     d="m 268.42414,277.98742 c 20.74,7.63 40.07,20.36 57.8,33.44 25.06,18.79 49,37.36 73.33,55.49 10.93,7.91 21.26,16.1 32.87,23.06 8.26,5.49 15.96,9.9 24.7,14.53 7.98,4.11 16.6,8.75 24.89,12.07 33.76,14.96 70.33,22.21 107.41,20.27 3.64,-0.72 7.23,-0.64 10.87,-1.1 8.29,-1.51 18.16,-2.43 26.13,-4.57 12.23,-2.81 24.7,-7.48 36.04,-12.8 12.22,-6.29 23.75,-12.93 34.2,-21.96 9.45,-7.18 17.69,-15.56 26.01,-24.02 2.08,-1.74 2.21,-5.05 1,-7.29 -0.9,-3.16 0.33,-5.03 0.79,-7.96 1.59,-4.35 4.99,-6.91 8.96,-8.98 3.38,-1.39 7.4,-1.28 10.96,-0.77 7.3,1.67 13.43,8.01 13.17,15.75 -0.12,2.34 0.26,4.96 -0.92,7 -1.52,3.75 -4.39,6.25 -7.45,8.74 -3.37,1 -6.11,2.63 -9.76,2.26 -2.08,-0.73 -4.95,-1.55 -6.75,0.25 -6.47,6.34 -12.97,13.35 -19.79,19.21 -11.47,11.01 -24.86,21.01 -37.85,30.15 -12.19,7.89 -26.02,15.32 -39.61,20.44 -37.96,15.12 -80.7,18.35 -120.68,9.53 -25.58,-5.71 -51.34,-14.88 -74.32,-27.68 -38.56,-20.64 -74.25,-50.14 -110.32,-74.56 -20.88,-13.93 -43.13,-27.94 -67.76,-33.98 -18.98,-5.11 -38.56,-4.02 -57.34,1.18 -9.16,2.51 -18.74,6.16 -26.9,11.11 -13.79,7.76 -24.36,18.69 -33.98,31.1 -1.04,1.04 -1.69,3.26 -3.54,2.01 -10.93,-6.79 -21.32,-13.03 -32.57,-19.33 -0.87,-0.66 -0.98,-1.38 -0.31,-2.18 9.72,-15.02 21.23,-29.39 34.46,-41.51 20.52,-19.88 48.09,-31.47 76.26,-34.71 16.55,-2.34 34.33,0.37 50,5.81 z"
     fill="#0b78a6"
     id="path19" />
  <path
     d="m 1037.4241,293.25742 c 6.77,3.34 12.7,9.59 15.3,16.69 3.65,8.38 3.07,18.32 -0.98,26.45 -3.74,8.01 -12.63,15.26 -21.32,16.87 -11.5,3.02 -23.72,-2.04 -31.01996,-11.12 -5.84,-7.23 -8.05,-16.56 -6.54,-25.72 1.34,-6.92 4.9,-13.87 10.26996,-18.57 8.98,-8.71 23.33,-10.49 34.29,-4.6 z"
     fill="#23afc6"
     id="path20" />
  <path
     d="m 26.964141,305.60742 c 13.64,7.5 29.05,16.4 42.55,24.26 2.88,1.67 6.26,2.57 6.95,6.28 0.57,3.71 -1.76,5.85 -3.12,9 -6.17,11.29 -11.89,24.12 -16.89,36 -0.99,2.2 -1.23,4.23 -3.61,5.43 -3.22,2.04 -7.29,-0.17 -10.42,-1.35 -7.06,-2.32 -12.72,-4.62 -20,-7.05 -6.42,-2.67 -13.5999995,-4.53 -19.8399995,-7.29 -2.86,-1.82 -2.91,-4.72 -2.21,-7.74 1.33,-4.82 2.69,-9.85 4.59,-14.45 1.43,-6.64 4.34,-13.08 6.4999995,-19.55 2.44,-5.91 4.66,-12.78 7.68,-19.15 1.29,-3.06 4.44,-5.27 7.82,-4.39 z"
     fill="#003a59"
     id="path21" />
  <path
     d="m 30.864141,323.70742 c 8.48,4.27 17.99,9.9 26.17,14.86 1.28,0.87 2.55,0.58 2.28,2.58 -3.89,7.81 -8.28,15.72 -11.18,23.92 -1.19,1.93 -1.3,5.28 -3.14,6.63 -9.54,-2.79 -19.69,-7.19 -29.16,-9.97 -0.54,-0.97 -0.5,-1.97 0.13,-3.03 3.1,-11.04 7.87,-22.87 12.24,-33.55 0.32,-1.78 0.91,-2.59 2.66,-1.44 z"
     fill="#23afc6"
     id="path22" />
  <path
     d="m 1155.4241,364.40742 c 10.09,-1.49 20.91,2.92 25.29,12.51 3.26,6.09 3.78,14.23 1.15,20.65 -3.17,8.56 -11.47,14.64 -20.44,15.57 -7.81,0.6 -16.24,-2.66 -21.23,-8.8 -8.89,-10.85 -6,-28.07 5.43,-35.94 3.01,-2.15 6.31,-3.04 9.8,-3.99 z"
     fill="#23afc6"
     id="path24" />
  <path
     d="m 888.70414,369.80742 c 6.61,4.01 11.39,10.63 13.1,18.14 2.93,11.77 -2.74,24.43 -13.14,30.52 -6.16,3.85 -14.73,5.27 -21.69,3.14 -9.16,-2.56 -16.64,-9.33 -19.51,-18.46 -2.29,-7.35 -1.46,-15.19 2.2,-21.96 3.53,-6.64 9.58,-11.79 16.76,-14.04 7.34,-2.26 15.75,-1.45 22.28,2.66 z"
     fill="#23afc6"
     id="path25" />
  <path
     d="m 84.804141,367.60742 c 4.91,0.75 9.28,5.07 13.62,7.39 11.819999,7.58 22.759999,14.3 34.999999,21.19 3.09,1.53 4.49,4.58 3.89,7.96 -5.85,13.7 -11.04,29.29 -12.55,44.08 -1.57,10.54 -1.7,22.24 -0.92,32.92 1.62,9.02 1.44,16.26 4.2,25.32 2.92,12.6 7.8,27 15.12,37.84 2.03,2.89 2.61,7.77 -0.6,10.06 -13.45,8.63 -28.9,19.69 -42.32,28.53 -2.119999,1.62 -4.919999,1.85 -7.359999,0.79 -2.84,-1.83 -4.31,-5.34 -5.77,-8.3 -9.23,-16.69 -16.32,-33.02 -21.37,-51.42 -0.84,-4.3 -2.72,-9.03 -2.78,-13.37 -1.3,-1.58 -0.46,-3.95 -1.3,-5.49 -0.8,-4.01 -1.47,-7.93 -2.06,-11.96 -2.39,-21.88 -2.58,-45.43 2.06,-66.96 3.66,-19.68 9.75,-36.63 18.04,-54.91 1.27,-2.55 2.38,-3.04 5.1,-3.67 z"
     fill="#003a59"
     id="path26" />
  <path
     d="m 242.03414,372.60742 c 13.36,1.87 25.48,6.35 37.39,12.59 21.19,11.45 41.16,27.39 60.46,41.49 18.84,14.01 37.03,27.71 57.21,39.81 24.06,15.15 49.08,27.08 75.99,36.06 24.25,8.36 48.67,13.47 74.34,15.37 19.19,0.75 38.16,0.99 57.26,-1.33 21.71,-2.39 43.18,-7.05 63.74,-14.38 19.08,-7.1 36.72,-16.22 53.77,-27.35 3.54,-2.66 7.9,-4.68 11.03,-7.88 2,-2.04 0.57,-4.78 1.84,-7.05 0.96,-3.87 3.43,-7.22 6.82,-9.33 4.09,-1.8 9.11,-2.38 13.43,-1.14 8.95,2.92 12.77,14.42 9.41,22.73 -2.04,5.25 -6.75,9.08 -12.3,10.01 -4.66,0.48 -9.31,-0.04 -13,-3.14 -1.98,-1.52 -3.28,-0.1 -5.07,0.87 -9.17,6.36 -17.78,13 -27.5,18.66 -34.71,20.87 -73.31,33.59 -113.43,38.56 -21.23,2.81 -43.63,2.69 -65,1.01 -3.47,0.23 -6.56,-1.2 -10,-1.02 -35.14,-4.08 -68.19,-14.71 -100,-30.08 -25.42,-12.28 -50.32,-28.31 -73.71,-44.24 -18.45,-12.28 -37.77,-27.18 -58.29,-35.71 -15.89,-6.86 -33.14,-9.73 -50.13,-5.3 -15.56,3.75 -29.46,14.34 -36.15,29.07 -2.02,0.27 -4.67,-1.3 -6.72,-1.83 -10.17,-3.91 -20.48,-7.49 -30.7,-11.31 -1.12,-0.73 -3.2,-0.44 -2.9,-2.31 5.61,-18.19 16.6,-35.43 31.6,-47.38 14.13,-11.23 32.5,-17.78 50.61,-15.45 z"
     fill="#23afc6"
     id="path27" />
  <path
     d="m 90.284141,386.35742 c 9.7,6.29 19.949999,12.26 30.139999,17.76 1.59,0.49 1,2.2 0.36,3.24 -3.74,10.06 -6.84,21.41 -8.97,31.91 -2.01,10.94 -3.8,22.74 -2.81,33.88 0.53,16.49 3.91,32.79 8.98,48.41 2.67,8.22 5.37,15.92 9.7,23.5 0.5,0.92 1.38,1.48 1.28,2.63 -8.62,5.78 -19.35,12.33 -28.29,17.75 -1.049999,1.14 -2.709999,1.45 -3.309999,-0.29 -4,-7.6 -8,-14.14 -10.53,-22.36 -2.59,-7.81 -5.65,-14.53 -7.41,-22.64 -6.76,-26.77 -9.02,-55.56 -5.08,-83 2.17,-16.56 6.96,-33.5 13.1,-49 0.26,-1.36 1.36,-2.99 2.84,-1.79 z"
     fill="#0b78a6"
     id="path28" />
  <path
     d="m 157.42414,450.10742 c 9.73,3.54 21.27,8.17 30.87,11.34 1.82,1.31 6.56,1.45 7.24,3.7 -2.59,13.42 -0.7,27.34 4.18,39.95 0.46,1.07 1.47,2.82 0.6,3.84 -9.92,6.4 -18.74,12.21 -28.8,18.46 -1.18,0.95 -1.91,-0.14 -2.3,-1.25 -0.68,-1.59 -1.63,-3.11 -2.12,-4.73 -3.48,-7.52 -6.21,-15.91 -8.03,-24.03 -4.1,-14.62 -4.52,-29.07 -3.4,-44.24 0.41,-1.16 -0.01,-3.08 1.76,-3.04 z"
     fill="#23afc6"
     id="path29" />
  <path
     d="m 1003.4241,464.14742 c 4.14,5.95 6.27,14.15 4.41,21.25 -1.75,9.15 -8.34996,16.96 -17.13996,20.1 -13.34,5.79 -30.22,-1.82 -35.57,-15.22 -3.63,-8.03 -2.4,-17.73 2.09,-25.17 3.74,-5.66 9.51,-10.53 16.21,-12.05 11.21,-3.36 23.56,1.35 29.99996,11.09 z"
     fill="#23afc6"
     id="path30" />
  <path
     d="m 206.57414,521.37742 c 0.92,-0.33 1.56,-0.08 1.93,0.77 5.34,7.18 11.35,13.99 17.84,20.17 1.68,1.69 4.54,3.38 5.63,5.41 -5.7,9.47 -10.42,19.11 -15.28,28.58 -0.5,1.08 -1.32,3.95 -2.97,2.55 -9.89,-8.87 -20.31,-18.01 -28.56,-28.47 -2.73,-2.91 -4.82,-6.5 -7.41,-9.54 -0.41,-1.77 0.96,-1.4 1.93,-2.39 9.38,-5.81 17.51,-11.22 26.89,-17.08 z"
     fill="#23afc6"
     id="path31" />
  <path
     d="m 266.64414,553.81742 c 15.66,7.87 31.06,14.33 47.78,19.47 2.45,1.05 4.74,0.92 6.71,3.12 2.3,3.18 0.78,8.37 -0.29,11.74 -0.98,8.1 -3.37,18.15 -4.49,26 -0.34,3.61 -1.63,8.8 -2.47,12.46 -0.12,1.53 -0.45,2.99 -0.43,4.54 -1.17,2.42 -0.1,4.69 -3.03,6.14 -5.27,1.24 -11.73,-2.33 -17,-3.18 -17.49,-5.04 -36.27,-11.51 -52,-20.8 -3.44,-2.1 -8.55,-3.89 -10.64,-7.47 -1.56,-4.2 0.44,-7.27 2.37,-10.83 6.89,-12.59 13.88,-25.08 20.38,-37.86 0.96,-1.89 1.86,-4.23 3.89,-5.21 2.67,-1.77 6.81,0.43 9.22,1.88 z"
     fill="#003a59"
     id="path32" />
  <path
     d="m 152.34414,561.46742 c 3.38,1.51 4.53,4.55 6.76,7.01 4.98,6.57 10.8,12.55 16.66,18.32 18.54,18.7 40.75,32.66 64.66,43.31 2.73,1.33 5.14,2.55 5.09,6.04 -0.5,3.76 -2.61,7.41 -3.79,11 -1.16,3.5 -2.54,6.94 -3.95,10.31 -2.97,8.41 -6.43,17.27 -9.62,25.63 -1.5,3.56 -2.75,7.58 -5.09,10.71 -2.43,2.38 -5.91,1.92 -8.64,0.32 -4.41,-2.7 -9.49,-5.11 -14.12,-7.67 -25.12,-13.73 -48.57,-31.07 -68.68,-51.51 -10.7,-10.34 -19.78,-22.36 -28.83,-34.13 -2.79,-3.66 -1.13,-8.47 2.75,-10.45 13.84,-9.42 26.47,-18.22 40.12,-27.94 2.05,-1.39 4.3,-1.98 6.68,-0.95 z"
     fill="#003a59"
     id="path33" />
  <path
     d="m 264.79414,567.54742 0.23,0.01 c 2.08,1.2 4.59,2.08 6.75,3.19 11.12,4.44 20.61,9.88 32.42,12.78 1.79,1.01 3.57,0.09 4.83,1.99 -2.74,12.67 -5.5,23.32 -7.95,36.28 -1.37,0.56 -2.12,-0.69 -3.65,-0.62 -10.21,-2.3 -21.58,-6.7 -31.32,-10.62 -6.24,-2.61 -12.88,-6.79 -18.68,-9.44 -0.87,-0.23 -1.13,-0.83 -0.78,-1.8 4.56,-7.65 9.8,-18 14.58,-26.17 1.23,-1.69 1.75,-4.49 3.57,-5.6 z"
     fill="#0b78a6"
     id="path34" />
  <path
     d="m 148.33414,578.30742 c 5.45,5.59 10.4,11.45 16.13,16.8 9.19,9.41 19.09,17.58 29.96,24.93 11.26,7.55 22.29,14 34.75,19.44 1.08,1.06 0.16,2.73 -0.45,3.81 -4.51,10.45 -8.24,20.52 -13.03,30.91 -0.6,0.99 -0.77,3.05 -2.27,2.98 -16.24,-8.46 -31.47,-17.76 -46.1,-28.82 -13.72,-10.24 -25.79,-22.21 -37.17,-34.96 -3.84,-4.6 -8.56,-9.53 -11.82,-14.25 0.02,-1.67 2.46,-2.58 3.63,-3.45 7.55,-5.52 15.33,-10.63 22.9,-16.11 1.19,-0.58 2.01,-2.1 3.47,-1.28 z"
     fill="#0b78a6"
     id="path35" />
  <path
     d="m 336.42414,579.72742 c 5.95,0.42 12.05,2.83 18,3.37 13.93,2.19 26.73,4.17 41,4.47 2.78,0.34 4.33,2.89 4.09,5.58 -0.08,16.36 0,32.66 -0.03,49 0.14,3.09 -2.11,5.23 -5.06,5.58 -6.95,0.49 -14.06,0.29 -21,-0.25 -4.13,-0.37 -8.22,0.16 -12,-0.91 -4.39,0.17 -8.63,-0.66 -13,-0.84 -6.68,-1.33 -13.4,-1.57 -20,-3.17 -1.91,-0.07 -3.9,-0.97 -5.54,-1.87 -2.73,-2.72 -1.51,-6.3 -0.61,-9.54 0.13,-2.46 1.05,-4.55 1.4,-6.96 0.82,-1.57 0.18,-3.9 1.29,-5.49 0.74,-8.08 3.54,-17.41 4.56,-25.55 0.37,-1.78 0.09,-3.35 0.95,-5 0.78,-3.38 1.37,-8.51 5.95,-8.42 z"
     fill="#003a59"
     id="path36" />
  <path
     d="m 342.67414,594.32742 c 1.81,-0.95 3.95,0.44 5.75,0.65 2.9,0.18 4.94,1.35 8,1.21 2.63,1.14 5.38,0.61 8,1.53 2.12,0.67 4.5,0.02 6.45,0.97 4.53,0.86 8.9,0.24 13.55,0.54 1.25,0.07 1.92,0.71 2,1.92 0.02,11 -0.03,22.01 0.03,33 l -0.25,0.75 c -4.98,0.54 -10.69,0.16 -15.78,0.2 -4.09,-1.39 -8.98,-0.32 -13,-1.52 -6.64,-0.35 -14.55,-1.03 -20.9,-2.64 -0.49,-1.46 0.01,-3.4 0.57,-4.79 0.55,-1.78 -0.06,-3.89 0.87,-5.46 0.79,-3.84 1.3,-9.15 2.38,-12.54 -0.19,-2.6 1.31,-4.36 1.08,-7 0.96,-2.24 0.7,-4.56 1.25,-6.82 z"
     fill="#0b78a6"
     id="path43" />
  <path
     d="m 259.42414,638.26742 c 10.62,4.03 23,8.03 34,10.8 5.7,1.25 11.38,2.28 17,3.67 2.39,0.38 4.72,0.21 7,1.08 3.03,0.16 5.42,2.11 5.07,5.33 0.3,2.91 -1.03,5.07 -0.92,8 -1.22,3.95 -0.78,9.12 -2.1,13 0.13,2.87 -1.29,5.12 -1.1,8 -2.09,9.12 -1.61,14.89 -3.77,24 -0.27,3.23 -0.42,6.75 -3.57,8.59 -2.59,0.94 -6,0.15 -8.61,-0.46 -7.02,-0.96 -13.33,-2.73 -19.54,-3.59 -4.14,-1.82 -9.71,-1.93 -13.91,-4.08 -2.01,-0.1 -3.71,-0.73 -5.55,-1.41 -6.2,-2.02 -11.08,-3.31 -17,-5.78 -4.07,-1.23 -8.01,-2.46 -11.72,-4.57 -1.89,-1.77 -1.97,-4.32 -1.43,-6.7 6.33,-16.82 12.53,-33.72 18.52,-50.69 1.22,-3.46 3.68,-5.91 7.63,-5.19 z"
     fill="#003a59"
     id="path51" />
  <path
     d="m 264.35414,654.46742 c 12.36,4.08 24.07,7.68 36.97,10.06 2.13,0.84 5.13,0.29 6.64,2.06 -2.5,11.88 -4.46,27.04 -6.91,39.19 -8.14,-0.87 -18.46,-4.13 -26.49,-5.98 -7.7,-2.04 -14.52,-4.44 -22.14,-6.89 -1.45,-0.89 -3.77,-0.37 -3.13,-2.76 4.58,-11.26 7.86,-22.48 12.59,-33.57 0.71,-1.38 0.39,-2.76 2.47,-2.11 z"
     fill="#0b78a6"
     id="path53" />
  <path
     d="m 334.42414,657.24742 c 1.93,-0.17 4.02,-0.23 5.91,0.27 2.68,0.93 5.95,0.03 8.52,1.17 4.56,-0.03 9.03,0.71 13.57,0.84 2.46,0.23 4.67,-0.35 7,0.51 8.32,0.33 16.68,0.18 25,0.5 3.16,0.47 5.06,2.32 5.06,5.61 -0.1,19.32 0.03,38.68 -0.08,58 -0.12,3.11 -2.9,5.37 -5.98,5.08 -8.2,-0.09 -16.38,-0.01 -24.56,-0.54 -3,-1.22 -6.89,0.17 -9.88,-1.08 -4.4,-0.35 -9.37,0.04 -13.56,-1.04 -4.54,0.05 -9.04,-0.71 -13.59,-0.88 -2.89,-1.06 -5.4,0.28 -7.83,-2.12 -3.43,-3.64 -0.46,-9.17 -0.53,-13.42 1.05,-2.37 0.34,-5.17 1.49,-7.44 0.14,-6.07 1.91,-13.55 2.75,-19.51 1.45,-6.31 1.62,-13.55 2.76,-19.05 -0.03,-2.53 1.19,-6.19 3.95,-6.9 z"
     fill="#003a59"
     id="path54" />
  <path
     d="m 353.42414,672.78742 c 10.68,0.71 21.28,1.63 32,1.33 l 0.77,0.26 0.25,0.77 c -0.05,12 -0.04,24 -0.03,36 -0.12,1.45 0.25,3.27 -0.43,4.56 -15.02,0.5 -31.83,-1.76 -46.56,-2.59 -1.43,-0.34 -2.93,0.02 -2.86,-1.97 2.41,-11.79 4.36,-27.78 6.44,-39.41 2.98,-0.2 7.16,0.86 10.42,1.05 z"
     fill="#0b78a6"
     id="path55" />
  <text
     xml:space="preserve"
     style="font-style:normal;font-variant:normal;font-weight:normal;font-stretch:normal;font-size:210px;line-height:0;font-family:Geneva;-inkscape-font-specification:Geneva;text-align:start;letter-spacing:4.5px;writing-mode:lr-tb;direction:ltr;text-anchor:start;display:inline;fill:#23afc6;fill-opacity:1;stroke:#003a59;stroke-width:7.818;stroke-dasharray:none;stroke-opacity:1"
     x="430.28775"
     y="724.63025"
     id="text1-9-6"><tspan
       sodipodi:role="line"
       id="tspan1-0-0"
       style="font-style:normal;font-variant:normal;font-weight:800;font-stretch:normal;font-size:210px;font-family:Lato;-inkscape-font-specification:'Lato Ultra-Bold';letter-spacing:4.5px;fill:#23afc6;fill-opacity:1;stroke:#003a59;stroke-width:7.818;stroke-linecap:butt;stroke-linejoin:round;stroke-dasharray:none;stroke-opacity:1"
       x="430.28775"
       y="724.63025">TSFast</tspan></text>
</svg>
