<svg xmlns="http://www.w3.org/2000/svg" width="24" height="25" viewBox="0 0 24 25">
<path d="M12 2.5C6.47 2.5 2 6.97 2 12.5C2 18.03 6.47 22.5 12 22.5C17.53 22.5 22 18.03 22 12.5C22 6.97 17.53 2.5 12 2.5ZM16.3 16.8C15.91 17.19 15.28 17.19 14.89 16.8L12 13.91L9.11 16.8C8.72 17.19 8.09 17.19 7.7 16.8C7.31 16.41 7.31 15.78 7.7 15.39L10.59 12.5L7.7 9.61C7.31 9.22 7.31 8.59 7.7 8.2C8.09 7.81 8.72 7.81 9.11 8.2L12 11.09L14.89 8.2C15.28 7.81 15.91 7.81 16.3 8.2C16.69 8.59 16.69 9.22 16.3 9.61L13.41 12.5L16.3 15.39C16.68 15.77 16.68 16.41 16.3 16.8Z" fill="white"/>
</svg>