<svg width="21" height="20" viewBox="0 0 21 20" fill="none" xmlns="http://www.w3.org/2000/svg">
<path d="M9.66732 15.0002C9.66732 15.9168 8.91732 16.6668 8.00065 16.6668C7.08398 16.6668 6.33398 15.9168 6.33398 15.0002C6.33398 14.0835 7.08398 13.3335 8.00065 13.3335C8.91732 13.3335 9.66732 14.0835 9.66732 15.0002ZM8.00065 8.3335C7.08398 8.3335 6.33398 9.0835 6.33398 10.0002C6.33398 10.9168 7.08398 11.6668 8.00065 11.6668C8.91732 11.6668 9.66732 10.9168 9.66732 10.0002C9.66732 9.0835 8.91732 8.3335 8.00065 8.3335ZM8.00065 3.3335C7.08398 3.3335 6.33398 4.0835 6.33398 5.00016C6.33398 5.91683 7.08398 6.66683 8.00065 6.66683C8.91732 6.66683 9.66732 5.91683 9.66732 5.00016C9.66732 4.0835 8.91732 3.3335 8.00065 3.3335ZM13.0007 6.66683C13.9173 6.66683 14.6673 5.91683 14.6673 5.00016C14.6673 4.0835 13.9173 3.3335 13.0007 3.3335C12.084 3.3335 11.334 4.0835 11.334 5.00016C11.334 5.91683 12.084 6.66683 13.0007 6.66683ZM13.0007 8.3335C12.084 8.3335 11.334 9.0835 11.334 10.0002C11.334 10.9168 12.084 11.6668 13.0007 11.6668C13.9173 11.6668 14.6673 10.9168 14.6673 10.0002C14.6673 9.0835 13.9173 8.3335 13.0007 8.3335ZM13.0007 13.3335C12.084 13.3335 11.334 14.0835 11.334 15.0002C11.334 15.9168 12.084 16.6668 13.0007 16.6668C13.9173 16.6668 14.6673 15.9168 14.6673 15.0002C14.6673 14.0835 13.9173 13.3335 13.0007 13.3335Z" fill="#929292"/>
</svg>
