<svg xmlns="http://www.w3.org/2000/svg" width="25" height="25" viewBox="0 0 25 25">
<path d="M9.14612 3.8549L6.35612 6.6449C6.03612 6.9549 6.25612 7.4949 6.70612 7.4949H8.49612V13.5049C8.49612 14.0549 8.94612 14.5049 9.49612 14.5049C10.0461 14.5049 10.4961 14.0549 10.4961 13.5049V7.4949H12.2861C12.7361 7.4949 12.9561 6.9549 12.6361 6.6449L9.84612 3.8549C9.65612 3.6649 9.33612 3.6649 9.14612 3.8549ZM16.4961 17.5149V11.5049C16.4961 10.9549 16.0461 10.5049 15.4961 10.5049C14.9461 10.5049 14.4961 10.9549 14.4961 11.5049V17.5149H12.7061C12.2561 17.5149 12.0361 18.0549 12.3561 18.3649L15.1461 21.1449C15.3461 21.3349 15.6561 21.3349 15.8561 21.1449L18.6461 18.3649C18.9661 18.0549 18.7361 17.5149 18.2961 17.5149H16.4961Z"/>
</svg>