<svg width="32" height="32" viewBox="0 0 32 32" fill="none" xmlns="http://www.w3.org/2000/svg">
<path d="M16 2.66699C8.63996 2.66699 2.66663 8.64033 2.66663 16.0003C2.66663 23.3603 8.63996 29.3337 16 29.3337C23.36 29.3337 29.3333 23.3603 29.3333 16.0003C29.3333 8.64033 23.36 2.66699 16 2.66699ZM16 26.667C10.12 26.667 5.33329 21.8803 5.33329 16.0003C5.33329 10.1203 10.12 5.33366 16 5.33366C21.88 5.33366 26.6666 10.1203 26.6666 16.0003C26.6666 21.8803 21.88 26.667 16 26.667ZM12.6666 22.0003L22 16.0003L12.6666 10.0003V22.0003Z" fill="#181818"/>
</svg>
