<svg width="32" height="32" viewBox="0 0 32 32" fill="none" xmlns="http://www.w3.org/2000/svg">
<path d="M4 24C4 24.7333 4.6 25.3333 5.33333 25.3333H12V22.6667H5.33333C4.6 22.6667 4 23.2667 4 24ZM4 8C4 8.73333 4.6 9.33333 5.33333 9.33333L17.3333 9.33333V6.66667L5.33333 6.66667C4.6 6.66667 4 7.26667 4 8ZM17.3333 26.6667L17.3333 25.3333L26.6667 25.3333C27.4 25.3333 28 24.7333 28 24C28 23.2667 27.4 22.6667 26.6667 22.6667L17.3333 22.6667V21.3333C17.3333 20.6 16.7333 20 16 20C15.2667 20 14.6667 20.6 14.6667 21.3333L14.6667 26.6667C14.6667 27.4 15.2667 28 16 28C16.7333 28 17.3333 27.4 17.3333 26.6667ZM9.33333 13.3333V14.6667H5.33333C4.6 14.6667 4 15.2667 4 16C4 16.7333 4.6 17.3333 5.33333 17.3333H9.33333V18.6667C9.33333 19.4 9.93333 20 10.6667 20C11.4 20 12 19.4 12 18.6667V13.3333C12 12.6 11.4 12 10.6667 12C9.93333 12 9.33333 12.6 9.33333 13.3333ZM28 16C28 15.2667 27.4 14.6667 26.6667 14.6667L14.6667 14.6667V17.3333L26.6667 17.3333C27.4 17.3333 28 16.7333 28 16ZM21.3333 12C22.0667 12 22.6667 11.4 22.6667 10.6667V9.33333H26.6667C27.4 9.33333 28 8.73333 28 8C28 7.26667 27.4 6.66667 26.6667 6.66667L22.6667 6.66667V5.33333C22.6667 4.6 22.0667 4 21.3333 4C20.6 4 20 4.6 20 5.33333V10.6667C20 11.4 20.6 12 21.3333 12Z" fill="#181818"/>
</svg>
