<svg width="17" height="16" viewBox="0 0 17 16" fill="none" xmlns="http://www.w3.org/2000/svg">
<path d="M1.87111 6.6935C2.21111 7.0335 2.75111 7.06683 3.11778 6.76016C6.23111 4.20016 10.7511 4.20016 13.8711 6.7535C14.2444 7.06016 14.7911 7.0335 15.1311 6.6935C15.5244 6.30016 15.4978 5.64683 15.0644 5.2935C11.2578 2.18016 5.75111 2.18016 1.93778 5.2935C1.50444 5.64016 1.47111 6.2935 1.87111 6.6935ZM7.04444 11.8668L8.02444 12.8468C8.28444 13.1068 8.70444 13.1068 8.96444 12.8468L9.94444 11.8668C10.2578 11.5535 10.1911 11.0135 9.79111 10.8068C8.97778 10.3868 8.00444 10.3868 7.18444 10.8068C6.80444 11.0135 6.73111 11.5535 7.04444 11.8668ZM4.55778 9.38016C4.88444 9.70683 5.39778 9.74016 5.77778 9.46683C7.40444 8.3135 9.59111 8.3135 11.2178 9.46683C11.5978 9.7335 12.1111 9.70683 12.4378 9.38016L12.4444 9.3735C12.8444 8.9735 12.8178 8.2935 12.3578 7.96683C10.0644 6.30683 6.93778 6.30683 4.63778 7.96683C4.17778 8.30016 4.15111 8.9735 4.55778 9.38016Z" fill="#181818"/>
</svg>
