<?xml version="1.0" encoding="UTF-8" standalone="no"?>
<!DOCTYPE svg PUBLIC "-//W3C//DTD SVG 1.1//EN"
 "http://www.w3.org/Graphics/SVG/1.1/DTD/svg11.dtd">
<!-- Generated by graphviz version 2.43.0 (0)
 -->
<!-- Title: mpdfg Pages: 1 -->
<svg width="1028pt" height="975pt"
 viewBox="0.00 0.00 1027.88 974.85" xmlns="http://www.w3.org/2000/svg" xmlns:xlink="http://www.w3.org/1999/xlink">
<g id="graph0" class="graph" transform="scale(1 1) rotate(0) translate(4 970.85)">
<title>mpdfg</title>
<polygon fill="white" stroke="transparent" points="-4,4 -4,-970.85 1023.88,-970.85 1023.88,4 -4,4"/>
<!-- start -->
<g id="node1" class="node">
<title>start</title>
<ellipse fill="green" stroke="black" cx="476.88" cy="-945.64" rx="21.43" ry="21.43"/>
<text text-anchor="middle" x="476.88" y="-940.64" font-family="Times,serif" font-size="20.00">▲</text>
</g>
<!-- A6 -->
<g id="node9" class="node">
<title>A6</title>
<polygon fill="#08306b" stroke="transparent" points="404.88,-843.43 404.88,-866.43 549.88,-866.43 549.88,-843.43 404.88,-843.43"/>
<polygon fill="none" stroke="black" points="404.88,-843.43 404.88,-866.43 549.88,-866.43 549.88,-843.43 404.88,-843.43"/>
<text text-anchor="start" x="408.88" y="-851.23" font-family="arial" font-size="14.00" fill="white">Turning &amp; Milling (511)</text>
<polygon fill="#fdad6a" stroke="transparent" points="404.88,-820.43 404.88,-843.43 549.88,-843.43 549.88,-820.43 404.88,-820.43"/>
<polygon fill="none" stroke="black" points="404.88,-820.43 404.88,-843.43 549.88,-843.43 549.88,-820.43 404.88,-820.43"/>
<text text-anchor="start" x="435.88" y="-828.23" font-family="arial" font-size="14.00" fill="white">04h 42m 32s </text>
</g>
<!-- start&#45;&gt;A6 -->
<g id="edge1" class="edge">
<title>start&#45;&gt;A6</title>
<path fill="none" stroke="#bfbfbf" stroke-width="2.03" stroke-dasharray="5,2" d="M476.88,-924.36C476.88,-908.92 476.88,-887.53 476.88,-870.77"/>
<polygon fill="white" stroke="transparent" points="477.38,-888.43 477.38,-906.43 496.38,-906.43 496.38,-888.43 477.38,-888.43"/>
<text text-anchor="start" x="477.38" y="-893.63" font-family="arial" font-size="16.00" fill="#81badb">77</text>
</g>
<!-- complete -->
<g id="node2" class="node">
<title>complete</title>
<ellipse fill="red" stroke="black" cx="674.88" cy="-21.21" rx="21.43" ry="21.43"/>
<text text-anchor="middle" x="674.88" y="-16.21" font-family="Times,serif" font-size="20.00">■</text>
</g>
<!-- A0 -->
<g id="node3" class="node">
<title>A0</title>
<polygon fill="#70b0d6" stroke="transparent" points="46.88,-603.43 46.88,-626.43 176.88,-626.43 176.88,-603.43 46.88,-603.43"/>
<polygon fill="none" stroke="black" points="46.88,-603.43 46.88,-626.43 176.88,-626.43 176.88,-603.43 46.88,-603.43"/>
<text text-anchor="start" x="50.88" y="-611.23" font-family="arial" font-size="14.00" fill="white">Laser Marking (110)</text>
<polygon fill="#fdb374" stroke="transparent" points="46.88,-580.43 46.88,-603.43 176.88,-603.43 176.88,-580.43 46.88,-580.43"/>
<polygon fill="none" stroke="black" points="46.88,-580.43 46.88,-603.43 176.88,-603.43 176.88,-580.43 46.88,-580.43"/>
<text text-anchor="start" x="85.38" y="-588.23" font-family="arial" font-size="14.00" fill="white">52m 16s</text>
</g>
<!-- A2 -->
<g id="node5" class="node">
<title>A2</title>
<polygon fill="#5aa2cf" stroke="transparent" points="346.88,-483.43 346.88,-506.43 438.88,-506.43 438.88,-483.43 346.88,-483.43"/>
<polygon fill="none" stroke="black" points="346.88,-483.43 346.88,-506.43 438.88,-506.43 438.88,-483.43 346.88,-483.43"/>
<text text-anchor="start" x="350.88" y="-491.23" font-family="arial" font-size="14.00" fill="white">Lapping (158)</text>
<polygon fill="#fdb272" stroke="transparent" points="346.88,-460.43 346.88,-483.43 438.88,-483.43 438.88,-460.43 346.88,-460.43"/>
<polygon fill="none" stroke="black" points="346.88,-460.43 346.88,-483.43 438.88,-483.43 438.88,-460.43 346.88,-460.43"/>
<text text-anchor="start" x="351.38" y="-468.23" font-family="arial" font-size="14.00" fill="white">01h 47m 09s </text>
</g>
<!-- A0&#45;&gt;A2 -->
<g id="edge9" class="edge">
<title>A0&#45;&gt;A2</title>
<path fill="none" stroke="black" stroke-width="1.58" d="M173.9,-576.38C220.01,-557.02 282.74,-530.68 329.24,-511.15"/>
<polygon fill="black" stroke="black" stroke-width="1.58" points="330.75,-514.31 338.61,-507.21 328.04,-507.86 330.75,-514.31"/>
<polygon fill="snow" stroke="transparent" points="284.88,-543.43 284.88,-558.43 368.88,-558.43 368.88,-543.43 284.88,-543.43"/>
<text text-anchor="start" x="318.88" y="-547.23" font-family="arial" font-size="14.00" fill="#90c2de">44</text>
<polygon fill="snow" stroke="transparent" points="284.88,-528.43 284.88,-543.43 368.88,-543.43 368.88,-528.43 284.88,-528.43"/>
<text text-anchor="start" x="284.88" y="-532.23" font-family="arial" font-size="14.00" fill="#7f2704">04d 21h 41m </text>
</g>
<!-- A5 -->
<g id="node8" class="node">
<title>A5</title>
<polygon fill="#1058a0" stroke="transparent" points="357.88,-243.43 357.88,-266.43 453.88,-266.43 453.88,-243.43 357.88,-243.43"/>
<polygon fill="none" stroke="black" points="357.88,-243.43 357.88,-266.43 453.88,-266.43 453.88,-243.43 357.88,-243.43"/>
<text text-anchor="start" x="361.88" y="-251.23" font-family="arial" font-size="14.00" fill="white">Grinding (391)</text>
<polygon fill="#fdb06f" stroke="transparent" points="357.88,-220.43 357.88,-243.43 453.88,-243.43 453.88,-220.43 357.88,-220.43"/>
<polygon fill="none" stroke="black" points="357.88,-220.43 357.88,-243.43 453.88,-243.43 453.88,-220.43 357.88,-220.43"/>
<text text-anchor="start" x="364.38" y="-228.23" font-family="arial" font-size="14.00" fill="white">03h 14m 33s </text>
</g>
<!-- A0&#45;&gt;A5 -->
<g id="edge25" class="edge">
<title>A0&#45;&gt;A5</title>
<path fill="none" stroke="black" stroke-width="1.29" d="M87.93,-576.16C61.89,-545.65 21.85,-492.57 5.88,-438.43 -16.25,-363.42 30.38,-327.92 97.88,-288.43 137.7,-265.13 261.53,-253.33 339.51,-248.06"/>
<polygon fill="black" stroke="black" stroke-width="1.29" points="339.98,-251.54 349.73,-247.39 339.52,-244.55 339.98,-251.54"/>
<polygon fill="snow" stroke="transparent" points="5.88,-423.43 5.88,-438.43 89.88,-438.43 89.88,-423.43 5.88,-423.43"/>
<text text-anchor="start" x="39.88" y="-427.23" font-family="arial" font-size="14.00" fill="#9ac7e1">23</text>
<polygon fill="snow" stroke="transparent" points="5.88,-408.43 5.88,-423.43 89.88,-423.43 89.88,-408.43 5.88,-408.43"/>
<text text-anchor="start" x="5.88" y="-412.23" font-family="arial" font-size="14.00" fill="#fb8b3b">01d 03h 49m </text>
</g>
<!-- A1 -->
<g id="node4" class="node">
<title>A1</title>
<polygon fill="#6caed5" stroke="transparent" points="694.88,-123.43 694.88,-146.43 786.88,-146.43 786.88,-123.43 694.88,-123.43"/>
<polygon fill="none" stroke="black" points="694.88,-123.43 694.88,-146.43 786.88,-146.43 786.88,-123.43 694.88,-123.43"/>
<text text-anchor="start" x="698.88" y="-131.23" font-family="arial" font-size="14.00" fill="white">Packing (119)</text>
<polygon fill="#fdb374" stroke="transparent" points="694.88,-100.43 694.88,-123.43 786.88,-123.43 786.88,-100.43 694.88,-100.43"/>
<polygon fill="none" stroke="black" points="694.88,-100.43 694.88,-123.43 786.88,-123.43 786.88,-100.43 694.88,-100.43"/>
<text text-anchor="start" x="699.38" y="-108.23" font-family="arial" font-size="14.00" fill="white">01h 00m 00s </text>
</g>
<!-- A1&#45;&gt;complete -->
<g id="edge3" class="edge">
<title>A1&#45;&gt;complete</title>
<path fill="none" stroke="#bfbfbf" stroke-width="1.39" stroke-dasharray="5,2" d="M723.71,-96.36C711.87,-78.38 696.47,-54.99 686.16,-39.33"/>
<polygon fill="white" stroke="transparent" points="711.38,-60.43 711.38,-78.43 730.38,-78.43 730.38,-60.43 711.38,-60.43"/>
<text text-anchor="start" x="711.38" y="-65.63" font-family="arial" font-size="16.00" fill="#97c6e0">30</text>
</g>
<!-- A1&#45;&gt;A1 -->
<g id="edge29" class="edge">
<title>A1&#45;&gt;A1</title>
<path fill="none" stroke="black" stroke-width="1.17" d="M794.89,-133.1C805.41,-131.98 812.88,-128.75 812.88,-123.43 812.88,-120.01 809.81,-117.46 804.84,-115.78"/>
<polygon fill="black" stroke="black" stroke-width="1.17" points="805.39,-112.32 794.89,-113.75 803.99,-119.18 805.39,-112.32"/>
<polygon fill="snow" stroke="transparent" points="813.38,-123.43 813.38,-138.43 896.38,-138.43 896.38,-123.43 813.38,-123.43"/>
<text text-anchor="start" x="846.88" y="-127.23" font-family="arial" font-size="14.00" fill="#9ec9e2">14</text>
<polygon fill="snow" stroke="transparent" points="813.38,-108.43 813.38,-123.43 896.38,-123.43 896.38,-108.43 813.38,-108.43"/>
<text text-anchor="start" x="813.38" y="-112.23" font-family="arial" font-size="14.00" fill="#fd9e55">15h 17m 08s </text>
</g>
<!-- A4 -->
<g id="node7" class="node">
<title>A4</title>
<polygon fill="#3e8dc3" stroke="transparent" points="600.88,-363.43 600.88,-386.43 738.88,-386.43 738.88,-363.43 600.88,-363.43"/>
<polygon fill="none" stroke="black" points="600.88,-363.43 600.88,-386.43 738.88,-386.43 738.88,-363.43 600.88,-363.43"/>
<text text-anchor="start" x="604.88" y="-371.23" font-family="arial" font-size="14.00" fill="white">Final Inspection (230)</text>
<polygon fill="#fdb171" stroke="transparent" points="600.88,-340.43 600.88,-363.43 738.88,-363.43 738.88,-340.43 600.88,-340.43"/>
<polygon fill="none" stroke="black" points="600.88,-340.43 600.88,-363.43 738.88,-363.43 738.88,-340.43 600.88,-340.43"/>
<text text-anchor="start" x="628.38" y="-348.23" font-family="arial" font-size="14.00" fill="white">01h 56m 02s </text>
</g>
<!-- A1&#45;&gt;A4 -->
<g id="edge11" class="edge">
<title>A1&#45;&gt;A4</title>
<path fill="none" stroke="black" stroke-width="1.77" d="M733.41,-150.53C722.69,-187.83 702.21,-258.51 683.88,-318.43 683.05,-321.16 682.17,-323.98 681.29,-326.82"/>
<polygon fill="black" stroke="black" stroke-width="1.77" points="677.93,-325.81 678.27,-336.4 684.61,-327.91 677.93,-325.81"/>
<polygon fill="snow" stroke="transparent" points="713.38,-243.43 713.38,-258.43 796.38,-258.43 796.38,-243.43 713.38,-243.43"/>
<text text-anchor="start" x="746.88" y="-247.23" font-family="arial" font-size="14.00" fill="#8abfdd">58</text>
<polygon fill="snow" stroke="transparent" points="713.38,-228.43 713.38,-243.43 796.38,-243.43 796.38,-228.43 713.38,-228.43"/>
<text text-anchor="start" x="713.38" y="-232.23" font-family="arial" font-size="14.00" fill="#fda55f">09h 43m 26s </text>
</g>
<!-- A2&#45;&gt;A2 -->
<g id="edge21" class="edge">
<title>A2&#45;&gt;A2</title>
<path fill="none" stroke="black" stroke-width="1.55" d="M446.89,-494.18C457.41,-492.93 464.88,-489.34 464.88,-483.43 464.88,-479.64 461.81,-476.8 456.84,-474.93"/>
<polygon fill="black" stroke="black" stroke-width="1.55" points="457.41,-471.47 446.89,-472.68 455.87,-478.3 457.41,-471.47"/>
<polygon fill="snow" stroke="transparent" points="465.38,-483.43 465.38,-498.43 548.38,-498.43 548.38,-483.43 465.38,-483.43"/>
<text text-anchor="start" x="498.88" y="-487.23" font-family="arial" font-size="14.00" fill="#91c3df">42</text>
<polygon fill="snow" stroke="transparent" points="465.38,-468.43 465.38,-483.43 548.38,-483.43 548.38,-468.43 465.38,-468.43"/>
<text text-anchor="start" x="465.38" y="-472.23" font-family="arial" font-size="14.00" fill="#fc9548">21h 12m 47s </text>
</g>
<!-- A2&#45;&gt;A4 -->
<g id="edge26" class="edge">
<title>A2&#45;&gt;A4</title>
<path fill="none" stroke="black" stroke-width="1.26" d="M446.95,-459.39C490.49,-440.85 552.04,-414.63 599.44,-394.44"/>
<polygon fill="black" stroke="black" stroke-width="1.26" points="600.89,-397.62 608.72,-390.48 598.15,-391.18 600.89,-397.62"/>
<polygon fill="snow" stroke="transparent" points="563.88,-423.43 563.88,-438.43 647.88,-438.43 647.88,-423.43 563.88,-423.43"/>
<text text-anchor="start" x="597.88" y="-427.23" font-family="arial" font-size="14.00" fill="#9cc8e1">21</text>
<polygon fill="snow" stroke="transparent" points="563.88,-408.43 563.88,-423.43 647.88,-423.43 647.88,-408.43 563.88,-408.43"/>
<text text-anchor="start" x="563.88" y="-412.23" font-family="arial" font-size="14.00" fill="#f8812f">01d 10h 01m </text>
</g>
<!-- A2&#45;&gt;A5 -->
<g id="edge14" class="edge">
<title>A2&#45;&gt;A5</title>
<path fill="none" stroke="black" stroke-width="1.89" d="M394.32,-456.05C396.66,-413.31 401.27,-328.88 403.91,-280.58"/>
<polygon fill="black" stroke="black" stroke-width="1.89" points="407.4,-280.74 404.45,-270.56 400.41,-280.36 407.4,-280.74"/>
<polygon fill="snow" stroke="transparent" points="400.38,-363.43 400.38,-378.43 483.38,-378.43 483.38,-363.43 400.38,-363.43"/>
<text text-anchor="start" x="433.88" y="-367.23" font-family="arial" font-size="14.00" fill="#85bcdc">67</text>
<polygon fill="snow" stroke="transparent" points="400.38,-348.43 400.38,-363.43 483.38,-363.43 483.38,-348.43 400.38,-348.43"/>
<text text-anchor="start" x="400.38" y="-352.23" font-family="arial" font-size="14.00" fill="#fd9b50">17h 21m 35s </text>
</g>
<!-- A3 -->
<g id="node6" class="node">
<title>A3</title>
<polygon fill="#4d99ca" stroke="transparent" points="161.88,-723.43 161.88,-746.43 338.88,-746.43 338.88,-723.43 161.88,-723.43"/>
<polygon fill="none" stroke="black" points="161.88,-723.43 161.88,-746.43 338.88,-746.43 338.88,-723.43 161.88,-723.43"/>
<text text-anchor="start" x="165.88" y="-731.23" font-family="arial" font-size="14.00" fill="white">Turning &amp; Milling Q.C. (191)</text>
<polygon fill="#fdb272" stroke="transparent" points="161.88,-700.43 161.88,-723.43 338.88,-723.43 338.88,-700.43 161.88,-700.43"/>
<polygon fill="none" stroke="black" points="161.88,-700.43 161.88,-723.43 338.88,-723.43 338.88,-700.43 161.88,-700.43"/>
<text text-anchor="start" x="208.88" y="-708.23" font-family="arial" font-size="14.00" fill="white">01h 20m 53s </text>
</g>
<!-- A3&#45;&gt;A0 -->
<g id="edge19" class="edge">
<title>A3&#45;&gt;A0</title>
<path fill="none" stroke="black" stroke-width="1.66" d="M170.43,-696.36C161.5,-691.32 153.06,-685.39 145.88,-678.43 135.1,-667.97 127.41,-653.45 122.11,-640.04"/>
<polygon fill="black" stroke="black" stroke-width="1.66" points="125.36,-638.75 118.66,-630.55 118.78,-641.14 125.36,-638.75"/>
<polygon fill="snow" stroke="transparent" points="145.88,-663.43 145.88,-678.43 229.88,-678.43 229.88,-663.43 145.88,-663.43"/>
<text text-anchor="start" x="179.88" y="-667.23" font-family="arial" font-size="14.00" fill="#8dc0de">50</text>
<polygon fill="snow" stroke="transparent" points="145.88,-648.43 145.88,-663.43 229.88,-663.43 229.88,-648.43 145.88,-648.43"/>
<text text-anchor="start" x="145.88" y="-652.23" font-family="arial" font-size="14.00" fill="#df5308">02d 16h 38m </text>
</g>
<!-- A3&#45;&gt;A3 -->
<g id="edge22" class="edge">
<title>A3&#45;&gt;A3</title>
<path fill="none" stroke="black" stroke-width="1.51" d="M346.78,-732.89C357.48,-731.09 364.38,-727.94 364.38,-723.43 364.38,-720.54 361.55,-718.2 356.7,-716.43"/>
<polygon fill="black" stroke="black" stroke-width="1.51" points="357.33,-712.98 346.78,-713.96 355.64,-719.77 357.33,-712.98"/>
<polygon fill="snow" stroke="transparent" points="364.38,-723.43 364.38,-738.43 448.38,-738.43 448.38,-723.43 364.38,-723.43"/>
<text text-anchor="start" x="398.38" y="-727.23" font-family="arial" font-size="14.00" fill="#93c3df">39</text>
<polygon fill="snow" stroke="transparent" points="364.38,-708.43 364.38,-723.43 448.38,-723.43 448.38,-708.43 364.38,-708.43"/>
<text text-anchor="start" x="364.38" y="-712.23" font-family="arial" font-size="14.00" fill="#f98332">01d 08h 36m </text>
</g>
<!-- A3&#45;&gt;A5 -->
<g id="edge27" class="edge">
<title>A3&#45;&gt;A5</title>
<path fill="none" stroke="black" stroke-width="1.22" d="M245.85,-696.41C239.21,-648.4 228.36,-542.88 245.88,-456.43 261.98,-376.98 261.29,-347.42 316.88,-288.43 323.71,-281.18 331.98,-274.97 340.71,-269.69"/>
<polygon fill="black" stroke="black" stroke-width="1.22" points="342.55,-272.67 349.54,-264.71 339.11,-266.57 342.55,-272.67"/>
<polygon fill="snow" stroke="transparent" points="245.88,-483.43 245.88,-498.43 329.88,-498.43 329.88,-483.43 245.88,-483.43"/>
<text text-anchor="start" x="279.88" y="-487.23" font-family="arial" font-size="14.00" fill="#9dc9e2">18</text>
<polygon fill="snow" stroke="transparent" points="245.88,-468.43 245.88,-483.43 329.88,-483.43 329.88,-468.43 245.88,-468.43"/>
<text text-anchor="start" x="245.88" y="-472.23" font-family="arial" font-size="14.00" fill="#f67926">01d 14h 55m </text>
</g>
<!-- A3&#45;&gt;A6 -->
<g id="edge13" class="edge">
<title>A3&#45;&gt;A6</title>
<path fill="none" stroke="black" stroke-width="1.89" d="M249.61,-750.78C250.89,-766.69 255.25,-786.19 267.88,-798.43 285.07,-815.09 338.08,-826.13 386.4,-832.99"/>
<polygon fill="black" stroke="black" stroke-width="1.89" points="385.93,-836.46 396.31,-834.35 386.88,-829.52 385.93,-836.46"/>
<polygon fill="snow" stroke="transparent" points="268.38,-783.43 268.38,-798.43 351.38,-798.43 351.38,-783.43 268.38,-783.43"/>
<text text-anchor="start" x="301.88" y="-787.23" font-family="arial" font-size="14.00" fill="#85bcdc">67</text>
<polygon fill="snow" stroke="transparent" points="268.38,-768.43 268.38,-783.43 351.38,-783.43 351.38,-768.43 268.38,-768.43"/>
<text text-anchor="start" x="268.38" y="-772.23" font-family="arial" font-size="14.00" fill="#fda964">07h 33m 01s </text>
</g>
<!-- A4&#45;&gt;complete -->
<g id="edge2" class="edge">
<title>A4&#45;&gt;complete</title>
<path fill="none" stroke="#bfbfbf" stroke-width="1.62" stroke-dasharray="5,2" d="M670.26,-336.3C671.23,-270.95 673.72,-101.46 674.58,-42.66"/>
<polygon fill="white" stroke="transparent" points="672.38,-174.43 672.38,-192.43 691.38,-192.43 691.38,-174.43 672.38,-174.43"/>
<text text-anchor="start" x="672.38" y="-179.63" font-family="arial" font-size="16.00" fill="#8ec1de">47</text>
</g>
<!-- A4&#45;&gt;A1 -->
<g id="edge12" class="edge">
<title>A4&#45;&gt;A1</title>
<path fill="none" stroke="black" stroke-width="1.84" d="M729.41,-336.31C756.1,-321.21 784.89,-299.4 799.88,-270.43 819,-233.47 794.53,-188.86 771.55,-158.75"/>
<polygon fill="black" stroke="black" stroke-width="1.84" points="774.1,-156.33 765.14,-150.66 768.61,-160.67 774.1,-156.33"/>
<polygon fill="snow" stroke="transparent" points="805.88,-243.43 805.88,-258.43 889.88,-258.43 889.88,-243.43 805.88,-243.43"/>
<text text-anchor="start" x="839.88" y="-247.23" font-family="arial" font-size="14.00" fill="#87bddc">63</text>
<polygon fill="snow" stroke="transparent" points="805.88,-228.43 805.88,-243.43 889.88,-243.43 889.88,-228.43 805.88,-228.43"/>
<text text-anchor="start" x="805.88" y="-232.23" font-family="arial" font-size="14.00" fill="#fb8f40">01d 01h 17m </text>
</g>
<!-- A4&#45;&gt;A4 -->
<g id="edge18" class="edge">
<title>A4&#45;&gt;A4</title>
<path fill="none" stroke="black" stroke-width="2.07" d="M747.04,-373.47C757.73,-371.81 764.88,-368.47 764.88,-363.43 764.88,-360.2 761.95,-357.66 757.03,-355.83"/>
<polygon fill="black" stroke="black" stroke-width="2.07" points="757.59,-352.36 747.04,-353.39 755.92,-359.16 757.59,-352.36"/>
<polygon fill="snow" stroke="transparent" points="764.88,-363.43 764.88,-378.43 848.88,-378.43 848.88,-363.43 764.88,-363.43"/>
<text text-anchor="start" x="798.88" y="-367.23" font-family="arial" font-size="14.00" fill="#7fb9da">80</text>
<polygon fill="snow" stroke="transparent" points="764.88,-348.43 764.88,-363.43 848.88,-363.43 848.88,-348.43 764.88,-348.43"/>
<text text-anchor="start" x="764.88" y="-352.23" font-family="arial" font-size="14.00" fill="#fa8a3a">01d 04h 53m </text>
</g>
<!-- A4&#45;&gt;A5 -->
<g id="edge23" class="edge">
<title>A4&#45;&gt;A5</title>
<path fill="none" stroke="black" stroke-width="1.34" d="M592.63,-344.59C580.03,-341.79 567.1,-338.98 554.88,-336.43 513.24,-327.74 496.04,-342.36 460.88,-318.43 447.83,-309.54 451.12,-301.22 441.88,-288.43 439.54,-285.19 437.05,-281.87 434.5,-278.59"/>
<polygon fill="black" stroke="black" stroke-width="1.34" points="437.07,-276.2 428.11,-270.54 431.59,-280.55 437.07,-276.2"/>
<polygon fill="snow" stroke="transparent" points="460.88,-303.43 460.88,-318.43 544.88,-318.43 544.88,-303.43 460.88,-303.43"/>
<text text-anchor="start" x="494.88" y="-307.23" font-family="arial" font-size="14.00" fill="#99c6e1">27</text>
<polygon fill="snow" stroke="transparent" points="460.88,-288.43 460.88,-303.43 544.88,-303.43 544.88,-288.43 460.88,-288.43"/>
<text text-anchor="start" x="460.88" y="-292.23" font-family="arial" font-size="14.00" fill="#fa8736">01d 06h 38m </text>
</g>
<!-- A5&#45;&gt;A0 -->
<g id="edge28" class="edge">
<title>A5&#45;&gt;A0</title>
<path fill="none" stroke="black" stroke-width="1.22" d="M349.67,-247.57C311.14,-252.08 260.42,-262.85 222.88,-288.43 169.08,-325.08 162.7,-347.84 138.88,-408.43 118.33,-460.72 113.06,-526.33 111.9,-566.28"/>
<polygon fill="black" stroke="black" stroke-width="1.22" points="108.4,-566.27 111.69,-576.35 115.4,-566.42 108.4,-566.27"/>
<polygon fill="snow" stroke="transparent" points="138.88,-423.43 138.88,-438.43 222.88,-438.43 222.88,-423.43 138.88,-423.43"/>
<text text-anchor="start" x="172.88" y="-427.23" font-family="arial" font-size="14.00" fill="#9dc9e2">18</text>
<polygon fill="snow" stroke="transparent" points="138.88,-408.43 138.88,-423.43 222.88,-423.43 222.88,-408.43 138.88,-408.43"/>
<text text-anchor="start" x="138.88" y="-412.23" font-family="arial" font-size="14.00" fill="#f87f2c">01d 11h 41m </text>
</g>
<!-- A5&#45;&gt;A1 -->
<g id="edge24" class="edge">
<title>A5&#45;&gt;A1</title>
<path fill="none" stroke="black" stroke-width="1.3" d="M450.66,-216.39C479.17,-200.71 517.29,-181.34 552.88,-168.43 593.06,-153.84 639.86,-142.87 676.71,-135.53"/>
<polygon fill="black" stroke="black" stroke-width="1.3" points="677.68,-138.91 686.82,-133.56 676.34,-132.04 677.68,-138.91"/>
<polygon fill="snow" stroke="transparent" points="552.88,-183.43 552.88,-198.43 636.88,-198.43 636.88,-183.43 552.88,-183.43"/>
<text text-anchor="start" x="586.88" y="-187.23" font-family="arial" font-size="14.00" fill="#9ac7e1">24</text>
<polygon fill="snow" stroke="transparent" points="552.88,-168.43 552.88,-183.43 636.88,-183.43 636.88,-168.43 552.88,-168.43"/>
<text text-anchor="start" x="552.88" y="-172.23" font-family="arial" font-size="14.00" fill="#f8812f">01d 10h 28m </text>
</g>
<!-- A5&#45;&gt;A2 -->
<g id="edge20" class="edge">
<title>A5&#45;&gt;A2</title>
<path fill="none" stroke="black" stroke-width="1.58" d="M366.49,-270.51C345.72,-286.73 322.26,-309.58 310.88,-336.43 301.52,-358.53 302.34,-368 310.88,-390.43 319.47,-412.97 336.39,-433.5 352.65,-449.41"/>
<polygon fill="black" stroke="black" stroke-width="1.58" points="350.37,-452.07 360.04,-456.39 355.17,-446.98 350.37,-452.07"/>
<polygon fill="snow" stroke="transparent" points="311.38,-363.43 311.38,-378.43 394.38,-378.43 394.38,-363.43 311.38,-363.43"/>
<text text-anchor="start" x="344.88" y="-367.23" font-family="arial" font-size="14.00" fill="#90c2de">44</text>
<polygon fill="snow" stroke="transparent" points="311.38,-348.43 311.38,-363.43 394.38,-363.43 394.38,-348.43 311.38,-348.43"/>
<text text-anchor="start" x="311.38" y="-352.23" font-family="arial" font-size="14.00" fill="#fc974a">20h 09m 05s </text>
</g>
<!-- A5&#45;&gt;A4 -->
<g id="edge10" class="edge">
<title>A5&#45;&gt;A4</title>
<path fill="none" stroke="black" stroke-width="1.66" d="M462.06,-253.34C489.99,-259.76 523.18,-270.56 548.88,-288.43 562.67,-298.02 558.71,-308 571.88,-318.43 577.9,-323.19 584.51,-327.55 591.37,-331.53"/>
<polygon fill="black" stroke="black" stroke-width="1.66" points="589.72,-334.62 600.17,-336.36 593.09,-328.48 589.72,-334.62"/>
<polygon fill="snow" stroke="transparent" points="571.88,-303.43 571.88,-318.43 655.88,-318.43 655.88,-303.43 571.88,-303.43"/>
<text text-anchor="start" x="605.88" y="-307.23" font-family="arial" font-size="14.00" fill="#8dc0de">50</text>
<polygon fill="snow" stroke="transparent" points="571.88,-288.43 571.88,-303.43 655.88,-303.43 655.88,-288.43 571.88,-288.43"/>
<text text-anchor="start" x="571.88" y="-292.23" font-family="arial" font-size="14.00" fill="#f77d2a">01d 12h 50m </text>
</g>
<!-- A5&#45;&gt;A5 -->
<g id="edge17" class="edge">
<title>A5&#45;&gt;A5</title>
<path fill="none" stroke="black" stroke-width="4.3" d="M462.03,-254.1C472.5,-252.78 479.88,-249.23 479.88,-243.43 479.88,-239.71 476.85,-236.91 471.92,-235.04"/>
<polygon fill="black" stroke="black" stroke-width="4.3" points="472.62,-231.34 462.03,-232.75 470.92,-238.67 472.62,-231.34"/>
<polygon fill="snow" stroke="transparent" points="480.38,-243.43 480.38,-258.43 563.38,-258.43 563.38,-243.43 480.38,-243.43"/>
<text text-anchor="start" x="510.38" y="-247.23" font-family="arial" font-size="14.00" fill="#3a89c1">242</text>
<polygon fill="snow" stroke="transparent" points="480.38,-228.43 480.38,-243.43 563.38,-243.43 563.38,-228.43 480.38,-228.43"/>
<text text-anchor="start" x="480.38" y="-232.23" font-family="arial" font-size="14.00" fill="#fda55f">10h 15m 48s </text>
</g>
<!-- A6&#45;&gt;A0 -->
<g id="edge8" class="edge">
<title>A6&#45;&gt;A0</title>
<path fill="none" stroke="black" stroke-width="1.1" d="M396.17,-835.18C293.95,-824.08 126.74,-798.88 90.88,-750.43 67.34,-718.62 79.87,-672.02 93.5,-640.07"/>
<polygon fill="black" stroke="black" stroke-width="1.1" points="96.82,-641.22 97.73,-630.66 90.44,-638.35 96.82,-641.22"/>
<polygon fill="snow" stroke="transparent" points="91.38,-723.43 91.38,-738.43 144.38,-738.43 144.38,-723.43 91.38,-723.43"/>
<text text-anchor="start" x="113.88" y="-727.23" font-family="arial" font-size="14.00" fill="#a1cbe3">9</text>
<polygon fill="snow" stroke="transparent" points="91.38,-708.43 91.38,-723.43 144.38,-723.43 144.38,-708.43 91.38,-708.43"/>
<text text-anchor="start" x="91.38" y="-712.23" font-family="arial" font-size="14.00" fill="#fdb475">03m 26s</text>
</g>
<!-- A6&#45;&gt;A1 -->
<g id="edge5" class="edge">
<title>A6&#45;&gt;A1</title>
<path fill="none" stroke="black" stroke-width="1.04" d="M557.62,-838.19C689.33,-829.04 935.88,-801.61 935.88,-724.43 935.88,-724.43 935.88,-724.43 935.88,-242.43 935.88,-179.99 861.81,-149.7 804.97,-135.64"/>
<polygon fill="black" stroke="black" stroke-width="1.04" points="805.48,-132.16 794.94,-133.28 803.87,-138.97 805.48,-132.16"/>
<polygon fill="snow" stroke="transparent" points="935.88,-483.43 935.88,-498.43 1019.88,-498.43 1019.88,-483.43 935.88,-483.43"/>
<text text-anchor="start" x="973.88" y="-487.23" font-family="arial" font-size="14.00" fill="#a3cbe3">5</text>
<polygon fill="snow" stroke="transparent" points="935.88,-468.43 935.88,-483.43 1019.88,-483.43 1019.88,-468.43 935.88,-468.43"/>
<text text-anchor="start" x="935.88" y="-472.23" font-family="arial" font-size="14.00" fill="#e4590b">02d 12h 40m </text>
</g>
<!-- A6&#45;&gt;A2 -->
<g id="edge7" class="edge">
<title>A6&#45;&gt;A2</title>
<path fill="none" stroke="black" stroke-width="1.07" d="M474.82,-816.36C472.19,-786.97 466.87,-737.89 457.88,-696.43 444.18,-633.21 420.46,-561.65 405.78,-519.93"/>
<polygon fill="black" stroke="black" stroke-width="1.07" points="409.07,-518.74 402.43,-510.49 402.47,-521.08 409.07,-518.74"/>
<polygon fill="snow" stroke="transparent" points="452.88,-663.43 452.88,-678.43 536.88,-678.43 536.88,-663.43 452.88,-663.43"/>
<text text-anchor="start" x="490.88" y="-667.23" font-family="arial" font-size="14.00" fill="#a1cbe3">7</text>
<polygon fill="snow" stroke="transparent" points="452.88,-648.43 452.88,-663.43 536.88,-663.43 536.88,-648.43 452.88,-648.43"/>
<text text-anchor="start" x="452.88" y="-652.23" font-family="arial" font-size="14.00" fill="#c24102">03d 10h 00m </text>
</g>
<!-- A6&#45;&gt;A3 -->
<g id="edge15" class="edge">
<title>A6&#45;&gt;A3</title>
<path fill="none" stroke="black" stroke-width="2.68" d="M410.34,-816.3C399.77,-811.02 389.25,-805.03 379.88,-798.43 364.72,-787.74 366.12,-779 350.88,-768.43 343.99,-763.65 336.5,-759.21 328.81,-755.15"/>
<polygon fill="black" stroke="black" stroke-width="2.68" points="330.23,-751.94 319.72,-750.55 327.07,-758.19 330.23,-751.94"/>
<polygon fill="snow" stroke="transparent" points="380.38,-783.43 380.38,-798.43 463.38,-798.43 463.38,-783.43 380.38,-783.43"/>
<text text-anchor="start" x="410.38" y="-787.23" font-family="arial" font-size="14.00" fill="#69acd4">124</text>
<polygon fill="snow" stroke="transparent" points="380.38,-768.43 380.38,-783.43 463.38,-783.43 463.38,-768.43 380.38,-768.43"/>
<text text-anchor="start" x="380.38" y="-772.23" font-family="arial" font-size="14.00" fill="#fda159">12h 47m 09s </text>
</g>
<!-- A6&#45;&gt;A4 -->
<g id="edge4" class="edge">
<title>A6&#45;&gt;A4</title>
<path fill="none" stroke="black" d="M557.58,-827.24C611.98,-811.79 673.88,-781.64 673.88,-724.43 673.88,-724.43 673.88,-724.43 673.88,-482.43 673.88,-455.05 672.79,-424.13 671.75,-400.8"/>
<polygon fill="black" stroke="black" points="675.24,-400.49 671.28,-390.66 668.25,-400.81 675.24,-400.49"/>
<polygon fill="snow" stroke="transparent" points="674.38,-603.43 674.38,-618.43 757.38,-618.43 757.38,-603.43 674.38,-603.43"/>
<text text-anchor="start" x="711.88" y="-607.23" font-family="arial" font-size="14.00" fill="#a4cce4">2</text>
<polygon fill="snow" stroke="transparent" points="674.38,-588.43 674.38,-603.43 757.38,-603.43 757.38,-588.43 674.38,-588.43"/>
<text text-anchor="start" x="674.38" y="-592.23" font-family="arial" font-size="14.00" fill="#fdaf6d">03h 53m 30s </text>
</g>
<!-- A6&#45;&gt;A5 -->
<g id="edge6" class="edge">
<title>A6&#45;&gt;A5</title>
<path fill="none" stroke="black" stroke-width="1.07" d="M517.43,-816.32C544.77,-795.23 575.88,-762.8 575.88,-724.43 575.88,-724.43 575.88,-724.43 575.88,-542.43 575.88,-481.3 572.1,-463.16 544.88,-408.43 526.58,-371.63 519.62,-361.25 486.88,-336.43 470.7,-324.16 459.81,-332.2 444.88,-318.43 433.55,-307.96 424.9,-293.44 418.67,-280.04"/>
<polygon fill="black" stroke="black" stroke-width="1.07" points="421.74,-278.32 414.55,-270.54 415.32,-281.11 421.74,-278.32"/>
<polygon fill="snow" stroke="transparent" points="576.38,-543.43 576.38,-558.43 659.38,-558.43 659.38,-543.43 576.38,-543.43"/>
<text text-anchor="start" x="613.88" y="-547.23" font-family="arial" font-size="14.00" fill="#a1cbe3">7</text>
<polygon fill="snow" stroke="transparent" points="576.38,-528.43 576.38,-543.43 659.38,-543.43 659.38,-528.43 576.38,-528.43"/>
<text text-anchor="start" x="576.38" y="-532.23" font-family="arial" font-size="14.00" fill="#fda058">13h 43m 25s </text>
</g>
<!-- A6&#45;&gt;A6 -->
<g id="edge16" class="edge">
<title>A6&#45;&gt;A6</title>
<path fill="none" stroke="black" stroke-width="5.76" d="M557.65,-852.35C568.31,-850.83 575.38,-847.86 575.38,-843.43 575.38,-840.59 572.48,-838.35 567.59,-836.7"/>
<polygon fill="black" stroke="black" stroke-width="5.76" points="568.5,-831.74 557.65,-834.5 566.32,-841.58 568.5,-831.74"/>
<polygon fill="snow" stroke="transparent" points="575.88,-843.43 575.88,-858.43 658.88,-858.43 658.88,-843.43 575.88,-843.43"/>
<text text-anchor="start" x="605.88" y="-847.23" font-family="arial" font-size="14.00" fill="#1966ac">348</text>
<polygon fill="snow" stroke="transparent" points="575.88,-828.43 575.88,-843.43 658.88,-843.43 658.88,-828.43 575.88,-828.43"/>
<text text-anchor="start" x="575.88" y="-832.23" font-family="arial" font-size="14.00" fill="#fdaa65">07h 05m 32s </text>
</g>
</g>
</svg>
