<svg width="32" height="32" viewBox="0 0 32 32" fill="none" xmlns="http://www.w3.org/2000/svg">
<path d="M28.64 18.3563L18 12.0897V4.75635C18 3.64968 17.1066 2.75635 16 2.75635C14.8933 2.75635 14 3.64968 14 4.75635L14 12.0897L3.35996 18.3563C2.93329 18.5963 2.66663 19.063 2.66663 19.5563C2.66663 20.4897 3.55996 21.1563 4.45329 20.903L14 18.103L14 25.423L10.9866 27.223C10.7866 27.343 10.6666 27.5697 10.6666 27.7963V28.5697C10.6666 29.0097 11.08 29.3297 11.4933 29.223L15.3866 28.2497L16 28.0897L16.5066 28.2097L17.0666 28.3563L19.6 28.9963L20.4933 29.223C20.92 29.3297 21.32 29.0097 21.32 28.5697V27.7963C21.32 27.5563 21.2 27.343 21 27.223L18 25.423L18 18.0897L27.5466 20.8897C28.44 21.1563 29.3333 20.4897 29.3333 19.5563C29.3333 19.063 29.0666 18.5963 28.64 18.3563Z" fill="#181818"/>
</svg>
