<svg width="14" height="14" viewBox="0 0 14 14" fill="none" xmlns="http://www.w3.org/2000/svg">
<path d="M8.16699 3.20833C8.16699 2.56667 7.64199 2.04167 7.00033 2.04167H6.41699V1.45833C6.41699 1.1375 6.15449 0.875 5.83366 0.875L3.50033 0.875C3.17949 0.875 2.91699 1.1375 2.91699 1.45833V2.04167H2.33366C1.69199 2.04167 1.16699 2.56667 1.16699 3.20833L1.16699 11.9583C1.16699 12.6 1.69199 13.125 2.33366 13.125H7.00033C7.64199 13.125 8.16699 12.6 8.16699 11.9583L11.667 11.9583C12.3087 11.9583 12.8337 11.4333 12.8337 10.7917L12.8337 4.375C12.8337 3.73333 12.3087 3.20833 11.667 3.20833L8.16699 3.20833ZM7.00033 10.7917H5.83366V9.625H7.00033V10.7917ZM7.00033 5.54167H5.83366L5.83366 4.375L7.00033 4.375L7.00033 5.54167ZM9.33366 10.7917L8.16699 10.7917V9.625L9.33366 9.625V10.7917ZM9.33366 5.54167H8.16699V4.375H9.33366V5.54167ZM11.667 10.7917H10.5003V9.625H11.667V10.7917ZM11.667 5.54167H10.5003V4.375H11.667V5.54167Z" fill="#4C4C4C"/>
</svg>
