<svg width="151" height="151" viewBox="0 0 151 151" fill="none" xmlns="http://www.w3.org/2000/svg">
<path d="M75.5 150.5C116.921 150.5 150.5 116.921 150.5 75.5C150.5 34.0786 116.921 0.5 75.5 0.5C34.0786 0.5 0.5 34.0786 0.5 75.5C0.5 116.921 34.0786 150.5 75.5 150.5Z" fill="#2C76D1" fill-opacity="0.1"/>
<path d="M120.5 150.5H30.5V53.5C34.742 53.4952 38.8089 51.808 41.8084 48.8085C44.808 45.8089 46.4952 41.742 46.5 37.5H104.5C104.496 39.6014 104.908 41.6828 105.713 43.6238C106.518 45.5648 107.7 47.3268 109.191 48.808C110.672 50.2991 112.434 51.4816 114.375 52.287C116.317 53.0924 118.398 53.5047 120.5 53.5V150.5Z" fill="#FEFEFE"/>
<path d="M75.5 99.5C88.7548 99.5 99.5 88.7548 99.5 75.5C99.5 62.2452 88.7548 51.5 75.5 51.5C62.2452 51.5 51.5 62.2452 51.5 75.5C51.5 88.7548 62.2452 99.5 75.5 99.5Z" fill="#181818"/>
<path d="M77.3095 66.3549C77.4795 66.0549 77.3095 65.6549 76.9595 65.6149C74.3395 65.2449 71.6595 65.8949 69.5195 67.4749C69.3295 67.6249 69.2695 67.9049 69.3995 68.1249L72.4095 73.3449C72.5995 73.6749 73.0795 73.6749 73.2795 73.3449L77.3095 66.3549ZM84.7995 71.8249C83.8195 69.3549 81.8795 67.3649 79.4495 66.3249C79.2195 66.2249 78.9495 66.3249 78.8195 66.5449L75.8095 71.7549C75.6195 72.0749 75.8595 72.4949 76.2495 72.4949H84.3295C84.6795 72.4949 84.9295 72.1449 84.7995 71.8249ZM84.8695 73.4949H78.6695C78.2895 73.4949 78.0395 73.9149 78.2395 74.2449L82.4995 81.6349C82.6695 81.9349 83.0995 81.9849 83.3195 81.7149C85.0595 79.5349 85.7995 76.6849 85.3695 73.9249C85.3395 73.6749 85.1195 73.4949 84.8695 73.4949ZM67.6795 69.2849C65.9495 71.4749 65.1995 74.3049 65.6295 77.0749C65.6595 77.3149 65.8795 77.4949 66.1295 77.4949H72.3295C72.7095 77.4949 72.9595 77.0749 72.7595 76.7449L68.4995 69.3649C68.3195 69.0649 67.8895 69.0149 67.6795 69.2849ZM66.1995 79.1649C67.1795 81.6349 69.1195 83.6249 71.5495 84.6649C71.7795 84.7649 72.0495 84.6649 72.1795 84.4449L75.1895 79.2349C75.3795 78.9049 75.1395 78.4849 74.7595 78.4849H66.6695C66.3195 78.4949 66.0695 78.8449 66.1995 79.1649ZM74.0295 85.3849C76.6495 85.7549 79.3295 85.1049 81.4695 83.5249C81.6695 83.3749 81.7295 83.0849 81.5995 82.8649L78.5895 77.6449C78.3995 77.3149 77.9195 77.3149 77.7195 77.6449L73.6795 84.6349C73.5095 84.9349 73.6895 85.3349 74.0295 85.3849Z" fill="#FEFEFE"/>
<path d="M88.5 108.5H62.5C60.8431 108.5 59.5 109.843 59.5 111.5C59.5 113.157 60.8431 114.5 62.5 114.5H88.5C90.1569 114.5 91.5 113.157 91.5 111.5C91.5 109.843 90.1569 108.5 88.5 108.5Z" fill="#D1D1D1"/>
<path d="M97.5 120.5H53.5C51.8431 120.5 50.5 121.843 50.5 123.5C50.5 125.157 51.8431 126.5 53.5 126.5H97.5C99.1569 126.5 100.5 125.157 100.5 123.5C100.5 121.843 99.1569 120.5 97.5 120.5Z" fill="#D1D1D1"/>
</svg>