<svg width="32" height="32" viewBox="0 0 32 32" fill="none" xmlns="http://www.w3.org/2000/svg">
<path d="M15.9997 7.0544V4.66774C15.9997 4.06774 15.2797 3.7744 14.8663 4.20107L11.133 7.92107C10.8663 8.18774 10.8663 8.60107 11.133 8.86774L14.853 12.5877C15.2797 13.0011 15.9997 12.7077 15.9997 12.1077V9.72107C20.413 9.72107 23.9997 13.3077 23.9997 17.7211C23.9997 21.3477 21.5597 24.4144 18.253 25.3877C17.693 25.5477 17.333 26.0811 17.333 26.6544C17.333 27.5211 18.1597 28.2011 18.9997 27.9477C23.4263 26.6544 26.6663 22.5744 26.6663 17.7211C26.6663 11.8277 21.893 7.0544 15.9997 7.0544Z" fill="#181818"/>
<path d="M7.99967 17.7211C7.99967 15.9344 8.58634 14.2811 9.58634 12.9344C9.98634 12.4011 9.93301 11.6677 9.46634 11.1877C8.90634 10.6277 7.94634 10.6811 7.46634 11.3211C6.13301 13.1077 5.33301 15.3211 5.33301 17.7211C5.33301 22.5744 8.57301 26.6544 12.9997 27.9477C13.8397 28.2011 14.6663 27.5211 14.6663 26.6544C14.6663 26.0811 14.3063 25.5477 13.7463 25.3877C10.4397 24.4144 7.99967 21.3477 7.99967 17.7211Z" fill="#181818"/>
</svg>
