<svg width="25" height="24" viewBox="0 0 25 24" fill="none" xmlns="http://www.w3.org/2000/svg">
<path d="M18.166 16.12C17.406 16.12 16.726 16.42 16.206 16.89L9.07602 12.74C9.12602 12.51 9.16602 12.28 9.16602 12.04C9.16602 11.8 9.12602 11.57 9.07602 11.34L16.126 7.23004C16.666 7.73004 17.376 8.04004 18.166 8.04004C19.826 8.04004 21.166 6.70004 21.166 5.04004C21.166 3.38004 19.826 2.04004 18.166 2.04004C16.506 2.04004 15.166 3.38004 15.166 5.04004C15.166 5.28004 15.206 5.51004 15.256 5.74004L8.20602 9.85004C7.66602 9.35004 6.95602 9.04004 6.16602 9.04004C4.50602 9.04004 3.16602 10.38 3.16602 12.04C3.16602 13.7 4.50602 15.04 6.16602 15.04C6.95602 15.04 7.66602 14.73 8.20602 14.23L15.326 18.39C15.276 18.6 15.246 18.82 15.246 19.04C15.246 20.65 16.556 21.96 18.166 21.96C19.776 21.96 21.086 20.65 21.086 19.04C21.086 17.43 19.776 16.12 18.166 16.12Z" fill="#4C4C4C"/>
</svg>
