<?xml version="1.0" encoding="UTF-8" standalone="no"?>
<!-- Created with Inkscape (http://www.inkscape.org/) -->

<svg
   width="245mm"
   height="245mm"
   viewBox="0 0 245 245"
   version="1.1"
   id="svg5"
   xml:space="preserve"
   inkscape:version="1.3.2 (091e20e, 2023-11-25, custom)"
   sodipodi:docname="logo_dark.svg"
   xmlns:inkscape="http://www.inkscape.org/namespaces/inkscape"
   xmlns:sodipodi="http://sodipodi.sourceforge.net/DTD/sodipodi-0.dtd"
   xmlns="http://www.w3.org/2000/svg"
   xmlns:svg="http://www.w3.org/2000/svg"><sodipodi:namedview
     id="namedview7"
     pagecolor="#ffffff"
     bordercolor="#000000"
     borderopacity="0.25"
     inkscape:showpageshadow="2"
     inkscape:pageopacity="0.0"
     inkscape:pagecheckerboard="0"
     inkscape:deskcolor="#d1d1d1"
     inkscape:document-units="mm"
     showgrid="false"
     inkscape:zoom="0.76351725"
     inkscape:cx="188.60085"
     inkscape:cy="423.04218"
     inkscape:window-width="2560"
     inkscape:window-height="1361"
     inkscape:window-x="2551"
     inkscape:window-y="-9"
     inkscape:window-maximized="1"
     inkscape:current-layer="layer1" /><defs
     id="defs2"><linearGradient
       id="linearGradient49404"
       inkscape:swatch="solid"><stop
         style="stop-color:#000000;stop-opacity:1;"
         offset="0"
         id="stop49402" /></linearGradient><inkscape:path-effect
       effect="bspline"
       id="path-effect21508"
       is_visible="true"
       lpeversion="1"
       weight="33.333333"
       steps="2"
       helper_size="0"
       apply_no_weight="true"
       apply_with_weight="true"
       only_selected="false" /><inkscape:path-effect
       effect="bspline"
       id="path-effect20910"
       is_visible="true"
       lpeversion="1"
       weight="33.333333"
       steps="2"
       helper_size="0"
       apply_no_weight="true"
       apply_with_weight="true"
       only_selected="false" /><inkscape:path-effect
       effect="bspline"
       id="path-effect10356"
       is_visible="true"
       lpeversion="1"
       weight="33.333333"
       steps="2"
       helper_size="0"
       apply_no_weight="true"
       apply_with_weight="true"
       only_selected="false" /><inkscape:path-effect
       effect="bspline"
       id="path-effect10352"
       is_visible="true"
       lpeversion="1"
       weight="33.333333"
       steps="2"
       helper_size="0"
       apply_no_weight="true"
       apply_with_weight="true"
       only_selected="false" /><inkscape:path-effect
       effect="bspline"
       id="path-effect10348"
       is_visible="true"
       lpeversion="1"
       weight="33.333333"
       steps="2"
       helper_size="0"
       apply_no_weight="true"
       apply_with_weight="true"
       only_selected="false" /><inkscape:path-effect
       effect="bspline"
       id="path-effect10344"
       is_visible="true"
       lpeversion="1"
       weight="33.333333"
       steps="2"
       helper_size="0"
       apply_no_weight="true"
       apply_with_weight="true"
       only_selected="false" /><inkscape:path-effect
       effect="bspline"
       id="path-effect10340"
       is_visible="true"
       lpeversion="1"
       weight="33.333333"
       steps="2"
       helper_size="0"
       apply_no_weight="true"
       apply_with_weight="true"
       only_selected="false" /><inkscape:path-effect
       effect="bspline"
       id="path-effect10336"
       is_visible="true"
       lpeversion="1"
       weight="33.333333"
       steps="2"
       helper_size="0"
       apply_no_weight="true"
       apply_with_weight="true"
       only_selected="false" /><inkscape:path-effect
       effect="bspline"
       id="path-effect10332"
       is_visible="true"
       lpeversion="1"
       weight="33.333333"
       steps="2"
       helper_size="0"
       apply_no_weight="true"
       apply_with_weight="true"
       only_selected="false" /><inkscape:path-effect
       effect="bspline"
       id="path-effect10328"
       is_visible="true"
       lpeversion="1"
       weight="33.333333"
       steps="2"
       helper_size="0"
       apply_no_weight="true"
       apply_with_weight="true"
       only_selected="false" /><inkscape:path-effect
       effect="bspline"
       id="path-effect10108"
       is_visible="true"
       lpeversion="1"
       weight="33.333333"
       steps="2"
       helper_size="0"
       apply_no_weight="true"
       apply_with_weight="true"
       only_selected="false" /><inkscape:path-effect
       effect="bspline"
       id="path-effect1091"
       is_visible="true"
       lpeversion="1"
       weight="33.333333"
       steps="2"
       helper_size="0"
       apply_no_weight="true"
       apply_with_weight="true"
       only_selected="false" /><inkscape:path-effect
       effect="bspline"
       id="path-effect1087"
       is_visible="true"
       lpeversion="1"
       weight="33.333333"
       steps="2"
       helper_size="0"
       apply_no_weight="true"
       apply_with_weight="true"
       only_selected="false" /><inkscape:path-effect
       effect="bspline"
       id="path-effect1083"
       is_visible="true"
       lpeversion="1"
       weight="33.333333"
       steps="2"
       helper_size="0"
       apply_no_weight="true"
       apply_with_weight="true"
       only_selected="false" /><inkscape:path-effect
       effect="bspline"
       id="path-effect1079"
       is_visible="true"
       lpeversion="1"
       weight="33.333333"
       steps="2"
       helper_size="0"
       apply_no_weight="true"
       apply_with_weight="true"
       only_selected="false" /><inkscape:path-effect
       effect="bspline"
       id="path-effect1075"
       is_visible="true"
       lpeversion="1"
       weight="33.333333"
       steps="2"
       helper_size="0"
       apply_no_weight="true"
       apply_with_weight="true"
       only_selected="false" /><inkscape:path-effect
       effect="bspline"
       id="path-effect1071"
       is_visible="true"
       lpeversion="1"
       weight="33.333333"
       steps="2"
       helper_size="0"
       apply_no_weight="true"
       apply_with_weight="true"
       only_selected="false" /><inkscape:path-effect
       effect="bspline"
       id="path-effect1067"
       is_visible="true"
       lpeversion="1"
       weight="33.333333"
       steps="2"
       helper_size="0"
       apply_no_weight="true"
       apply_with_weight="true"
       only_selected="false" /><inkscape:path-effect
       effect="bspline"
       id="path-effect1063"
       is_visible="true"
       lpeversion="1"
       weight="33.333333"
       steps="2"
       helper_size="0"
       apply_no_weight="true"
       apply_with_weight="true"
       only_selected="false" /><inkscape:path-effect
       effect="bspline"
       id="path-effect281"
       is_visible="true"
       lpeversion="1"
       weight="33.333333"
       steps="2"
       helper_size="0"
       apply_no_weight="true"
       apply_with_weight="true"
       only_selected="false" /></defs><g
     inkscape:label="Layer 1"
     inkscape:groupmode="layer"
     id="layer1"
     transform="translate(23.208092,-3.073143)"><g
       id="g45712"
       style="fill:none;stroke:#000000"><circle
         style="fill:none;fill-opacity:0;stroke:#000000;stroke-width:5;stroke-dasharray:none;stroke-opacity:1"
         id="path1145"
         cx="99.291908"
         cy="125.57314"
         r="120" /><path
         style="fill:none;fill-opacity:0;stroke:#000000;stroke-width:5;stroke-linecap:round;stroke-dasharray:none;stroke-opacity:1"
         d="m 138.21765,69.301414 c 1.49782,0.440966 2.99551,0.881894 4.77666,1.314452 1.78115,0.432557 3.84567,0.856735 5.85161,1.253543 2.00593,0.396808 3.95318,0.766224 5.71551,0.952758 1.76233,0.186534 3.33967,0.190201 4.91377,0.0813 1.57409,-0.108905 3.14487,-0.330361 4.48419,-0.440252 1.33932,-0.10989 2.44708,-0.108224 3.99968,0.118913 1.5526,0.227136 3.5499,0.679696 5.24562,1.290124 1.69572,0.610428 3.08978,1.378656 4.30455,1.837884 1.21478,0.459228 2.25022,0.609491 3.92464,0.513309 1.67442,-0.09618 3.98773,-0.438773 5.1537,-0.992462 1.16596,-0.553688 1.18463,-1.318537 0.49957,-3.124998 -0.68506,-1.806461 -2.07386,-4.654409 -3.22934,-6.669177 -1.15548,-2.014769 -2.07762,-3.196237 -2.83812,-3.900256 -0.76051,-0.704018 -1.35939,-0.930482 -2.84129,-1.127556 -1.4819,-0.197073 -3.84673,-0.36471 -6.14926,-0.610484 -2.30253,-0.245774 -4.54263,-0.569677 -6.4653,-1.03353 -1.92267,-0.463852 -3.5278,-1.06765 -4.76652,-1.842276 -1.23872,-0.774626 -2.11094,-1.720087 -2.93743,-3.431547 -0.8265,-1.71146 -1.60714,-4.188801 -2.78936,-6.854432 -1.18222,-2.66563 -2.76597,-5.519389 -4.32157,-7.731034 -1.5556,-2.211646 -3.083,-3.781052 -4.72466,-4.99219 -1.64166,-1.211138 -3.3975,-2.063899 -5.16776,-2.427558 -1.77027,-0.363658 -3.55484,-0.238136 -5.65365,0.09799 -2.09882,0.336121 -4.51173,0.882826 -6.59398,1.676597 -2.08226,0.793772 -3.83369,1.834553 -5.11907,2.860068 -1.28538,1.025516 -2.10458,2.035664 -2.95641,3.59023 -0.85183,1.554566 -1.73622,3.653405 -2.33526,5.848897 -0.59904,2.195492 -0.91272,4.48748 -1.19287,6.798072 -0.28016,2.310592 -0.52679,4.639633 -0.482,8.334622 0.0448,3.694988 0.38099,8.755658 0.51128,13.209899 0.13029,4.454241 0.0547,8.301831 0.0671,11.838264 0.0124,3.536432 0.11276,6.761512 0.17298,9.062792 0.0602,2.301279 0.0803,3.678628 -0.12683,4.96279 -0.20711,1.284163 -0.64137,2.475103 -1.31364,3.355323 -0.67227,0.88022 -1.58255,1.44974 -2.49288,2.01929"
         id="path279"
         inkscape:path-effect="#path-effect281"
         inkscape:original-d="m 138.21765,69.301414 c 1.4978,0.44103 2.99549,0.88196 4.49309,1.32279 2.0647,0.4243 4.12922,0.84848 6.19368,1.27256 1.94742,0.36953 3.89466,0.73895 5.84184,1.10827 1.5775,0.004 3.15484,0.007 4.73211,0.011 1.57094,-0.22136 3.14172,-0.44282 4.71243,-0.66438 1.10791,0.002 2.21567,0.003 3.32336,0.005 1.99749,0.45268 3.99479,0.90524 5.99204,1.35771 1.39419,0.76835 2.78825,1.53657 4.18222,2.30471 1.03559,0.15037 2.07103,0.30063 3.1064,0.4508 2.3135,-0.34251 4.62681,-0.6851 6.94006,-1.02779 0.0188,-0.76479 0.0374,-1.52964 0.056,-2.29462 -1.38876,-2.84796 -2.77755,-5.69591 -4.16647,-8.54402 -0.92207,-1.18142 -1.8442,-2.36289 -2.76646,-3.54449 -0.59879,-0.22637 -1.19767,-0.45283 -1.79665,-0.6794 -2.36481,-0.16754 -4.72964,-0.33518 -7.09461,-0.50292 -2.24009,-0.32381 -4.48019,-0.64772 -6.72044,-0.97173 -1.6051,-0.60372 -3.21023,-1.20752 -4.81549,-1.81143 -0.87216,-0.9454 -1.74438,-1.89086 -2.61672,-2.83645 -0.78058,-2.47735 -1.56123,-4.95469 -2.342,-7.43219 -1.5837,-2.85376 -3.16744,-5.70752 -4.75131,-8.56142 -1.52737,-1.56937 -3.05477,-3.13878 -4.58231,-4.70832 -1.7558,-0.85269 -3.51164,-1.70545 -5.26761,-2.55833 -1.78453,0.12562 -3.5691,0.25114 -5.35379,0.37657 -2.41292,0.54683 -4.82583,1.09354 -7.23889,1.64015 -1.75141,1.04093 -3.50284,2.08171 -5.25442,3.12242 -0.81914,1.01029 -1.63834,2.02044 -2.45766,3.03051 -0.88434,2.09902 -1.76873,4.19786 -2.65323,6.29663 -0.31359,2.29218 -0.62725,4.58417 -0.94103,6.8761 -0.24654,2.32925 -0.49318,4.65829 -0.73991,6.98729 0.33631,5.06096 0.6725,10.12163 1.0086,15.18229 -0.0755,3.84783 -0.15111,7.69542 -0.22682,11.54298 0.10048,3.2253 0.20085,6.45038 0.30112,9.67542 0.0202,1.37752 0.0402,2.75487 0.0602,4.13216 -0.43418,1.191076 -0.86843,2.382026 -1.3028,3.572886 -0.91022,0.56964 -1.8205,1.13917 -2.7309,1.7086" /><path
         style="fill:none;fill-opacity:0;stroke:#000000;stroke-width:5;stroke-linecap:round;stroke-dasharray:none;stroke-opacity:1"
         d="m 130.114,123.00927 c -0.58444,-1.75381 -1.16891,-3.50774 -2.06646,-5.31312 -0.89754,-1.80538 -2.10815,-3.66213 -3.63224,-5.41039 -1.52409,-1.74825 -3.36161,-3.3879 -4.95457,-4.47621 -1.59296,-1.0883 -2.94127,-1.62517 -4.24398,-1.99554 -1.30271,-0.37036 -2.55973,-0.57417 -4.43063,-0.71828 -1.87091,-0.1441 -4.35557,-0.22847 -6.40905,-0.27509 -2.05349,-0.0466 -3.67568,-0.0555 -5.351421,0.0745 -1.675743,0.13002 -3.404913,0.39892 -5.181514,0.68092 -1.776601,0.282 -3.600522,0.57709 -6.424451,1.29443 -2.823929,0.71735 -6.647656,1.85691 -9.979241,2.70322 -3.331586,0.84631 -6.170852,1.39931 -9.285287,1.95188 -3.114435,0.55257 -6.503853,1.10467 -9.146746,1.37863 -2.642893,0.27396 -4.539132,0.26976 -6.899001,0.21126 -2.359868,-0.0585 -5.183228,-0.17131 -7.598246,-0.46723 -2.415019,-0.29591 -4.42159,-0.77495 -6.321663,-1.26969 -1.900074,-0.49475 -3.693544,-1.00518 -4.992544,-1.30975 -1.299001,-0.30457 -2.103458,-0.40325 -2.713938,-0.27479 -0.61048,0.12846 -1.026851,0.48405 -1.186849,1.09008 -0.159998,0.60602 -0.06362,1.46231 0.394763,2.23419 0.458383,0.77188 1.27864,1.45932 2.119416,2.36629 0.840775,0.90697 1.702046,2.03339 2.648269,3.28475 0.946222,1.25135 1.977341,2.62757 3.275712,3.88047 1.29837,1.25289 2.863891,2.38243 4.636862,3.54111 1.772971,1.15868 3.753282,2.34645 5.87648,3.42187 2.123197,1.07542 4.389149,2.03845 5.988505,2.81365 1.599355,0.77521 2.532039,1.36253 3.313147,1.97847 0.781108,0.61595 1.410613,1.26044 1.861387,1.78887 0.450774,0.52844 0.722813,0.94076 0.588468,1.16621 -0.134345,0.22546 -0.675079,0.26416 -1.83916,0.16932 -1.16408,-0.0948 -2.951441,-0.32323 -4.923369,-0.28691 -1.971929,0.0363 -4.128267,0.33739 -6.455498,0.77603 -2.32723,0.43865 -4.825192,1.01485 -7.321631,1.79722 -2.49644,0.78237 -4.991202,1.77087 -6.80383,2.5609 -1.812629,0.79002 -2.943036,1.38155 -3.894798,2.18978 -0.951762,0.80823 -1.724785,1.83309 -2.096355,2.42804 -0.37157,0.59496 -0.341706,0.75987 0.52699,1.03193 0.868697,0.27205 2.576057,0.65132 4.360186,1.04631 1.78413,0.395 3.644921,0.8057 5.317903,1.2748 1.672982,0.4691 3.158051,0.99654 5.403534,1.38092 2.245484,0.38437 5.251244,0.62569 8.154833,1.05483 2.903589,0.42913 5.704831,1.04604 8.555379,1.54034 2.850549,0.49431 5.750231,0.86598 8.649861,1.23765"
         id="path1061"
         inkscape:path-effect="#path-effect1063"
         inkscape:original-d="m 130.114,123.00927 c -0.58437,-1.75383 -1.16885,-3.50776 -1.75343,-5.2618 -1.21055,-1.85672 -2.42116,-3.71346 -3.63188,-5.57035 -1.83749,-1.6396 -3.67501,-3.27925 -5.51266,-4.91903 -1.34828,-0.53679 -2.69659,-1.07366 -4.04504,-1.61064 -1.25696,-0.20372 -2.51398,-0.40753 -3.77112,-0.61145 -2.48466,-0.0843 -4.96932,-0.16864 -7.45413,-0.25311 -1.62216,-0.009 -3.24435,-0.0176 -4.866665,-0.0266 -1.72915,0.26902 -3.45832,0.53792 -5.187628,0.80672 -1.823894,0.2952 -3.647816,0.59028 -5.471873,0.88527 -3.823783,1.13971 -7.647511,2.27927 -11.471417,3.41876 -2.839278,0.55312 -5.678543,1.10613 -8.517965,1.65904 -3.389453,0.55222 -6.778871,1.10432 -10.168455,1.65633 -1.89622,-0.004 -3.79246,-0.008 -5.68884,-0.0126 -2.82336,-0.11271 -5.64672,-0.22551 -8.47023,-0.33842 -2.00654,-0.47895 -4.01311,-0.95799 -6.01982,-1.43713 -1.79344,-0.51035 -3.58691,-1.02078 -5.38051,-1.53132 -0.80439,-0.0986 -1.60885,-0.19726 -2.41342,-0.29604 -0.41629,0.35571 -0.83266,0.71131 -1.24914,1.06682 0.0965,0.85642 0.19286,1.71271 0.28914,2.56892 0.82039,0.68757 1.64065,1.37501 2.46082,2.06237 0.8614,1.12656 1.72267,2.25298 2.58386,3.37932 1.03126,1.37637 2.06238,2.75259 3.09341,4.12873 1.56568,1.12968 3.1312,2.25922 4.69665,3.38868 1.98049,1.18791 3.9608,2.37568 5.94104,3.56337 2.26615,0.96317 4.5321,1.9262 6.798,2.88914 0.93282,0.58744 1.8655,1.17477 2.7981,1.762 0.62964,0.64462 1.25914,1.28912 1.88856,1.93353 0.272152,0.41244 0.544193,0.82476 0.816139,1.237 -0.540655,0.0388 -1.081389,0.0775 -1.622239,0.11609 -1.78733,-0.2283 -3.57469,-0.45669 -5.36219,-0.68518 -2.15633,0.30118 -4.31267,0.60223 -6.46916,0.9032 -2.49796,0.57632 -4.99592,1.15253 -7.49403,1.72864 -2.49475,0.98863 -4.98951,1.97713 -7.48441,2.96554 -1.13034,0.59165 -2.26075,1.18317 -3.39127,1.7746 -0.77295,1.025 -1.54598,2.04985 -2.31912,3.07463 0.03,0.16503 0.0598,0.32995 0.0896,0.49477 1.70753,0.37938 3.41489,0.75864 5.12219,1.13781 1.86096,0.41082 3.72175,0.82153 5.58247,1.23214 1.48524,0.52757 2.97031,1.05501 4.45532,1.58237 3.00597,0.24142 6.01173,0.48274 9.01744,0.72396 2.80146,0.61703 5.6027,1.23395 8.4039,1.85077 2.899903,0.37179 5.799585,0.74347 8.699226,1.11505" /><path
         style="fill:none;fill-opacity:0;stroke:#000000;stroke-width:5;stroke-linecap:round;stroke-dasharray:none;stroke-opacity:1"
         d="m 60.816711,154.81712 c 0.973761,0.75064 1.947417,1.50119 3.202449,2.18075 1.255032,0.67955 2.791372,1.28813 4.491494,1.95384 1.700121,0.66572 3.56392,1.38853 5.478216,2.31559 1.914296,0.92705 3.87898,2.05826 6.255741,3.34693 2.376761,1.28867 5.165443,2.73472 7.505846,3.9741 2.340404,1.23939 4.2324,2.27203 6.8098,3.53887 2.5774,1.26683 5.840013,2.76777 8.257023,3.83446 2.41701,1.06668 3.98828,1.69907 6.25422,2.72914 2.26595,1.03008 5.22643,2.45778 8.72387,3.78981 3.49743,1.33202 7.53161,2.56832 11.26101,3.42794 3.7294,0.85963 7.15382,1.34256 10.55748,1.41671 3.40366,0.0742 6.78639,-0.26046 10.49744,-1.07885 3.71106,-0.81839 7.75025,-2.12048 10.76182,-3.35476 3.01157,-1.23427 4.99539,-2.40065 6.45211,-3.65278 1.45672,-1.25214 2.3863,-2.58999 3.42412,-4.74006 1.03783,-2.15008 2.18384,-5.11225 3.06144,-8.39689 0.87759,-3.28465 1.48671,-6.89159 1.64971,-10.16908 0.163,-3.27749 -0.12015,-6.22536 -0.80367,-9.20324 -0.68352,-2.97788 -1.7674,-5.9856 -3.35377,-9.35538 -1.58637,-3.36978 -3.67514,-7.1014 -5.49519,-10.8174 -1.82005,-3.71599 -3.37127,-7.41613 -4.52241,-10.91857 -1.15114,-3.50243 -1.90211,-6.80695 -2.51363,-9.6523 -0.61152,-2.84535 -1.08354,-5.23137 -1.4261,-7.526386 -0.34257,-2.295012 -0.55565,-4.498861 -0.53901,-7.613844 0.0166,-3.114983 0.263,-7.140863 0.52037,-9.93313 0.25736,-2.792267 0.52571,-4.350767 0.77907,-5.481947 0.25337,-1.13118 0.49174,-1.834969 0.73014,-2.538829"
         id="path1065"
         inkscape:path-effect="#path-effect1067"
         inkscape:original-d="m 60.816711,154.81712 c 0.973752,0.75065 1.947405,1.50121 2.920956,2.25166 1.536503,0.6087 3.072843,1.21727 4.609114,1.82575 1.863973,0.72295 3.727771,1.44577 5.591505,2.1685 1.964864,1.13135 3.929549,2.26256 5.894172,3.3937 2.788893,1.44621 5.577574,2.89226 8.36621,4.33823 1.892174,1.03279 3.78417,2.06544 5.676106,3.09801 3.262861,1.50111 6.525476,3.00204 9.788076,4.50292 1.57142,0.63251 3.14269,1.26488 4.71388,1.89718 2.9607,1.42786 5.92118,2.85555 8.88162,4.28318 4.03443,1.23645 8.06861,2.47274 12.10276,3.70896 3.42466,0.48306 6.84908,0.96599 10.27346,1.44883 3.38296,-0.33452 6.76569,-0.66913 10.14839,-1.00385 4.03944,-1.30204 8.07863,-2.60414 12.1178,-3.90637 1.984,-1.16632 3.96782,-2.3327 5.95159,-3.49921 0.92971,-1.3378 1.85929,-2.67565 2.78879,-4.01363 1.14616,-2.9622 2.29217,-5.92437 3.43811,-8.88671 0.60924,-3.60698 1.21837,-7.21392 1.8274,-10.82104 -0.28306,-2.94789 -0.56621,-5.89576 -0.84946,-8.84379 -1.08383,-3.00774 -2.16771,-6.01546 -3.25171,-9.02334 -2.08875,-3.73168 -4.17753,-7.4633 -6.26644,-11.19511 -1.55118,-3.70018 -3.10239,-7.40032 -4.65374,-11.10064 -0.75091,-3.30455 -1.50188,-6.60907 -2.25297,-9.91375 -0.47194,-2.38602 -0.94396,-4.77204 -1.41609,-7.158206 -0.21299,-2.20385 -0.42606,-4.4077 -0.63925,-6.61171 0.24648,-4.02594 0.49285,-8.05182 0.73911,-12.07788 0.26847,-1.55846 0.53682,-3.11696 0.80507,-4.67559 0.23848,-0.70371 0.47685,-1.4075 0.71513,-2.1114" /><path
         style="fill:none;fill-opacity:0;stroke:#000000;stroke-width:5;stroke-linecap:round;stroke-dasharray:none;stroke-opacity:1"
         d="m 139.91375,187.46117 c 0.0656,1.21685 0.13117,2.43357 0.0998,4.12651 -0.0314,1.69294 -0.15967,3.862 -0.41551,6.17273 -0.25585,2.31073 -0.63921,4.76299 -0.8689,6.44719 -0.22968,1.68419 -0.30569,2.60023 -0.13237,3.45966 0.17332,0.85944 0.5959,1.6622 1.11155,2.50937 0.51565,0.84718 1.12432,1.73872 1.91392,2.61223 0.78961,0.8735 1.76006,1.72894 3.06397,3.04732 1.30392,1.31839 2.94122,3.09962 4.14352,4.51909 1.2023,1.41946 1.96955,2.47706 2.03481,2.93864 0.0653,0.46158 -0.5715,0.32722 -1.40686,0.21505 -0.83536,-0.11217 -1.86923,-0.20213 -2.71083,-0.11932 -0.8416,0.0828 -1.49083,0.33842 -2.12839,0.79977 -0.63757,0.46136 -1.26338,1.12839 -1.71772,1.6291 -0.45434,0.50072 -0.73716,0.83507 -1.13832,0.66498 -0.40116,-0.17009 -0.92071,-0.84471 -1.60398,-1.39773 -0.68326,-0.55303 -1.53022,-0.98437 -2.40138,-1.17301 -0.87116,-0.18864 -1.76646,-0.13451 -2.499,0.0521 -0.73254,0.18661 -1.30223,0.5057 -1.98577,1.1415 -0.68354,0.63581 -1.48085,1.58824 -1.9078,1.75595 -0.42695,0.16771 -0.48354,-0.44941 -0.0683,-1.92834 0.41525,-1.47893 1.30232,-3.81951 2.22326,-6.08834 0.92095,-2.26884 1.87571,-4.4658 2.74388,-6.18702 0.86816,-1.72123 1.64968,-2.96661 2.43123,-4.21205"
         id="path1069"
         inkscape:path-effect="#path-effect1071"
         inkscape:original-d="m 139.91375,187.46117 c 0.0657,1.21684 0.13126,2.43357 0.19675,3.65021 -0.12821,2.16925 -0.25651,4.33831 -0.38492,6.50731 -0.38327,2.45247 -0.76663,4.90473 -1.1501,7.35693 -0.0759,0.91618 -0.15193,1.83222 -0.22804,2.74817 0.42269,0.80289 0.84526,1.60565 1.26775,2.40832 0.60879,0.89169 1.21746,1.78323 1.82605,2.67468 0.9706,0.85558 1.94105,1.71102 2.91143,2.56637 1.63746,1.78141 3.27476,3.56264 4.91199,5.34381 0.76739,1.05774 1.53464,2.11535 2.30181,3.17287 -0.63669,-0.13426 -1.27345,-0.26863 -1.91032,-0.4031 -1.03383,-0.0899 -2.06771,-0.17982 -3.10171,-0.26988 -0.64915,0.25571 -1.29837,0.51132 -1.94771,0.76684 -0.62574,0.66716 -1.25155,1.33419 -1.87748,2.00115 -0.28274,0.33447 -0.56556,0.66883 -0.8485,1.00309 -0.51947,-0.67455 -1.03903,-1.34917 -1.5587,-2.02391 -0.84689,-0.43125 -1.69385,-0.8626 -2.54092,-1.29405 -0.89523,0.0542 -1.79052,0.10836 -2.68593,0.1624 -0.56961,0.3192 -1.1393,0.63829 -1.7091,0.95729 -0.79724,0.95258 -1.59455,1.90501 -2.39198,2.85736 -0.0565,-0.61703 -0.11308,-1.23415 -0.16977,-1.85137 0.88721,-2.34058 1.77428,-4.68116 2.66127,-7.02189 0.9549,-2.19694 1.90966,-4.3939 2.86434,-6.59099 0.78165,-1.24533 1.56317,-2.49072 2.3446,-3.73623" /><path
         style="fill:none;fill-opacity:0;stroke:#000000;stroke-width:5;stroke-linecap:round;stroke-dasharray:none;stroke-opacity:1"
         d="m 104.29172,176.57525 c 0.019,0.97797 0.038,1.95584 0.097,4.62872 0.059,2.67288 0.15813,7.04059 0.0943,10.63068 -0.0638,3.59009 -0.29053,6.40239 -0.39177,9.06042 -0.10124,2.65803 -0.077,5.16163 0.21976,6.83195 0.29676,1.67033 0.86594,2.50728 1.92509,4.20122 1.05915,1.69395 2.60821,4.24477 3.97432,6.73508 1.36611,2.49031 2.54919,4.91996 3.48617,6.98895 0.93698,2.06899 1.62781,3.7772 1.66625,4.32885 0.0384,0.55165 -0.57556,-0.0533 -1.26613,-0.45083 -0.69057,-0.39756 -1.45769,-0.58768 -2.30989,-0.53126 -0.85219,0.0564 -1.78934,0.35942 -2.7229,0.99141 -0.93356,0.632 -1.86341,1.59291 -2.47301,2.2575 -0.6096,0.66459 -0.89889,1.0328 -1.40803,0.68959 -0.50914,-0.34322 -1.23817,-1.39794 -2.09381,-2.2305 -0.85564,-0.83256 -1.83786,-1.44287 -2.88716,-1.7889 -1.049299,-0.34604 -2.165609,-0.42772 -3.122023,-0.2288 -0.956415,0.19892 -1.752803,0.67845 -2.210598,0.76261 -0.457794,0.0842 -0.576999,-0.2272 -0.05519,-1.75975 0.521811,-1.53256 1.684659,-4.28613 3.039559,-7.32889 1.3549,-3.04276 2.901771,-6.37453 3.999441,-8.43718 1.09767,-2.06266 1.74607,-2.85608 2.3945,-3.64952"
         id="path1073"
         inkscape:path-effect="#path-effect1075"
         inkscape:original-d="m 104.29172,176.57525 c 0.0191,0.97797 0.0381,1.95584 0.057,2.93362 0.0992,4.36798 0.19827,8.73569 0.29726,13.10337 -0.22662,2.81251 -0.45333,5.62481 -0.68015,8.43706 0.0243,2.5038 0.0486,5.0074 0.0727,7.51094 0.56931,0.83709 1.13849,1.67404 1.70758,2.51091 1.54922,2.55102 3.09828,5.10184 4.64727,7.6526 1.18324,2.42986 2.36632,4.85951 3.54933,7.28912 0.69096,1.70837 1.38179,3.41658 2.07254,5.12473 -0.61392,-0.60483 -1.22792,-1.20975 -1.84203,-1.81477 -0.76705,-0.19003 -1.53417,-0.38015 -2.30141,-0.57038 -0.93709,0.30312 -1.87424,0.60612 -2.8115,0.90903 -0.9298,0.96105 -1.85966,1.92196 -2.78963,2.8828 -0.28921,0.36834 -0.5785,0.73655 -0.8679,1.10468 -0.72897,-1.05466 -1.458,-2.10938 -2.18716,-3.16424 -0.98215,-0.61023 -1.96438,-1.22053 -2.94672,-1.83095 -1.116245,-0.0816 -2.232555,-0.16327 -3.348995,-0.24505 -0.79631,0.47965 -1.5927,0.95918 -2.389201,1.43862 -0.119107,-0.31126 -0.23831,-0.62262 -0.357616,-0.93408 1.162987,-2.75358 2.325837,-5.50715 3.488607,-8.26086 1.54703,-3.33181 3.093905,-6.66357 4.640705,-9.99551 0.64853,-0.79334 1.29694,-1.58675 1.94525,-2.38029" /><path
         style="fill:none;fill-opacity:0;stroke:#000000;stroke-width:5;stroke-linecap:round;stroke-dasharray:none;stroke-opacity:1"
         d="m 117.20717,81.759834 c -2.68766,-0.52675 -5.37546,-1.053525 -8.53309,-1.734955 -3.15764,-0.681429 -6.78499,-1.517486 -10.159563,-2.116118 -3.374569,-0.598631 -6.496162,-0.959794 -9.694356,-1.279455 -3.198194,-0.319662 -6.472793,-0.5978 -8.806854,-0.61061 -2.334061,-0.01281 -3.727434,0.239724 -5.083576,0.730807 -1.356142,0.491083 -2.674927,1.220685 -3.743533,2.196914 -1.068605,0.97623 -1.88692,2.198981 -2.440606,3.310772 -0.553687,1.111791 -0.842713,2.112521 -0.922348,3.133213 -0.07963,1.020693 0.05009,2.061233 0.198241,2.981725 0.148152,0.920493 0.314715,1.720893 0.611451,2.462498 0.296735,0.741606 0.723575,1.424387 1.150353,2.107069"
         id="path1077"
         inkscape:path-effect="#path-effect1079"
         inkscape:original-d="m 117.20717,81.759834 c -2.68768,-0.52667 -5.37547,-1.05345 -8.06335,-1.58032 -3.6274,-0.83599 -7.25475,-1.67205 -10.882265,-2.50822 -3.121617,-0.36108 -6.24321,-0.72224 -9.364967,-1.08351 -3.274629,-0.27805 -6.549227,-0.55619 -9.82399,-0.83443 -1.39333,0.25265 -2.786704,0.50518 -4.180206,0.75762 -1.318738,0.72973 -2.637524,1.45933 -3.956436,2.18885 -0.818248,1.2229 -1.636564,2.44565 -2.454996,3.66833 -0.288937,1.00086 -0.577963,2.00159 -0.867095,3.00224 0.12983,1.04069 0.259553,2.08123 0.38918,3.12169 0.166668,0.80052 0.33323,1.60092 0.499695,2.40122 0.426958,0.68291 0.853799,1.36569 1.280549,2.04839" /><path
         style="fill:none;fill-opacity:0;stroke:#000000;stroke-width:5;stroke-linecap:round;stroke-dasharray:none;stroke-opacity:1"
         d="M 74.674367,76.962744 C 73.993939,76.409959 73.313398,75.857081 72.445375,74.653461 71.577353,73.449842 70.521934,71.595522 69.270884,68.159173 68.019834,64.722823 66.573269,59.704693 65.19465,55.499684 63.81603,51.294676 62.505432,47.903044 60.880479,44.908207 59.255525,41.91337 57.316287,39.315519 55.532078,37.26659 53.74787,35.217661 52.118771,33.71778 50.4464,32.556779 c -1.672371,-1.161001 -3.387931,-1.983021 -5.042049,-2.451842 -1.654118,-0.468821 -3.246698,-0.584372 -4.718427,-0.404758 -1.471729,0.179614 -2.822489,0.654406 -3.998889,1.552793 -1.176399,0.898388 -2.178302,2.220266 -2.933649,3.545561 -0.755348,1.325295 -1.264083,2.653874 -1.636166,4.046898 -0.372084,1.393025 -0.607503,2.850384 -0.554128,4.55612 0.05337,1.705737 0.395502,3.659726 0.730309,5.259988 0.334807,1.600263 0.662265,2.846714 0.989696,4.093065"
         id="path1081"
         inkscape:path-effect="#path-effect1083"
         inkscape:original-d="m 74.674367,76.962744 c -0.68044,-0.55277 -1.36098,-1.10565 -2.041621,-1.65863 -1.055362,-1.85429 -2.110781,-3.70861 -3.166322,-5.56307 -1.446524,-5.01824 -2.89309,-10.03637 -4.339785,-15.05471 -1.310553,-3.39168 -2.621154,-6.78331 -3.931882,-10.17512 -1.93921,-2.59786 -3.87845,-5.19571 -5.81783,-7.79371 -1.62906,-1.49984 -3.25816,-2.99972 -4.88739,-4.49973 -1.71553,-0.82195 -3.43109,-1.64397 -5.14678,-2.46611 -1.59253,-0.11546 -3.18511,-0.23101 -4.77781,-0.34666 -1.35071,0.47491 -2.70147,0.9497 -4.05235,1.4244 -1.00185,1.32204 -2.00375,2.64392 -3.00578,3.96573 -0.50866,1.32874 -1.01739,2.65732 -1.52624,3.98583 -0.23533,1.45751 -0.47074,2.91487 -0.70627,4.37215 0.34224,1.95416 0.68436,3.90815 1.0264,5.86207 0.32757,1.2466 0.65503,2.49305 0.98239,3.73942" /><path
         style="fill:none;fill-opacity:0;stroke:#000000;stroke-width:5;stroke-linecap:round;stroke-dasharray:none;stroke-opacity:1"
         d="m 33.598366,63.869522 c 0.177321,0.694845 0.354598,1.389522 0.489946,2.552626 0.135347,1.163104 0.228798,2.794632 0.155274,4.845018 -0.07352,2.050387 -0.313998,4.519507 -0.512843,6.211183 -0.198846,1.691676 -0.356046,2.605836 -0.403439,3.579383 -0.04739,0.973548 0.015,2.006397 0.162807,3.229446 0.147805,1.223049 0.380997,2.636209 0.656127,4.263204 0.27513,1.626996 0.592182,3.467737 0.978252,5.361558 0.386071,1.893822 0.841128,3.840612 1.469768,5.797046 0.628639,1.956434 1.430795,3.922384 2.178744,5.482164 0.74795,1.55978 1.441627,2.71332 2.096062,3.6804 0.654434,0.96709 1.269576,1.74769 1.815656,2.3663 0.546081,0.61861 1.023052,1.0752 1.499937,1.53172"
         id="path1085"
         inkscape:path-effect="#path-effect1087"
         inkscape:original-d="m 33.598366,63.869522 c 0.177506,0.694798 0.354784,1.389475 0.531831,2.084022 0.0936,1.6317 0.18701,3.26323 0.28036,4.89469 -0.24038,2.46933 -0.48086,4.93845 -0.72144,7.40752 -0.15711,0.91429 -0.31431,1.82845 -0.47161,2.74253 0.0625,1.03299 0.12489,2.06584 0.18719,3.09862 0.2333,1.41331 0.46649,2.82647 0.69959,4.23956 0.31716,1.8409 0.63422,3.68164 0.95117,5.52231 0.45518,1.94697 0.91024,3.89376 1.3652,5.84049 0.80229,1.966136 1.60444,3.932086 2.40652,5.897976 0.6938,1.15368 1.38748,2.30721 2.08107,3.46066 0.61526,0.78073 1.2304,1.56133 1.84546,2.34184 0.47709,0.45672 0.95406,0.91332 1.43095,1.36983"
         sodipodi:nodetypes="ccccccccccccc" /><path
         style="fill:none;fill-opacity:0;stroke:#000000;stroke-width:5;stroke-linecap:round;stroke-dasharray:none;stroke-opacity:1"
         d="m 37.491757,51.076444 c -0.681926,0.377741 -1.363874,0.755495 -2.431332,1.188838 -1.067458,0.433342 -2.520388,0.922252 -3.987699,1.361751 -1.467311,0.439499 -2.948909,0.829555 -4.100928,1.231145 -1.152019,0.40159 -1.974359,0.81469 -2.577239,1.178455 -0.602879,0.363765 -0.98624,0.678164 -1.29573,1.194388 -0.30949,0.516224 -0.54506,1.234171 -0.728704,1.946726 -0.183645,0.712555 -0.315364,1.419675 -0.403677,2.178798 -0.08831,0.759122 -0.13323,1.570211 -0.02243,1.919349 0.110798,0.349137 0.377248,0.236438 0.818927,0.01772 0.441679,-0.218715 1.058569,-0.543434 1.704993,-0.669348 0.646423,-0.125915 1.322249,-0.05305 2.080334,0.211474 0.758086,0.264525 1.598372,0.720641 2.488515,1.01151 0.890142,0.290869 1.830092,0.416526 3.548898,0.0035 1.718807,-0.413043 4.216397,-1.364713 6.763878,-2.322916 2.547481,-0.958203 5.14471,-1.922887 7.741925,-2.887565"
         id="path1089"
         inkscape:path-effect="#path-effect1091"
         inkscape:original-d="m 37.491757,51.076444 c -0.68186,0.37786 -1.36381,0.75561 -2.04586,1.13327 -1.45289,0.48903 -2.90582,0.97794 -4.35888,1.46676 -1.48157,0.39018 -2.96317,0.78023 -4.44491,1.1702 -0.82227,0.41321 -1.64461,0.82631 -2.46706,1.23932 -0.38328,0.31451 -0.76664,0.62891 -1.15011,0.94322 -0.23548,0.71807 -0.47104,1.43602 -0.70672,2.15387 -0.13162,0.70724 -0.26334,1.41436 -0.39516,2.12138 -0.0448,0.81121 -0.0897,1.6223 -0.13475,2.43329 0.26656,-0.1126 0.53301,-0.2253 0.79936,-0.3381 0.61702,-0.32463 1.23391,-0.64935 1.85072,-0.97418 0.67596,0.073 1.35179,0.14583 2.02754,0.2186 0.84041,0.45623 1.6807,0.91234 2.5209,1.36837 0.94009,0.12576 1.88004,0.25142 2.81991,0.37698 2.4978,-0.95161 4.99539,-1.90328 7.49293,-2.85507 2.59742,-0.96462 5.19465,-1.9293 7.79182,-2.8941" /><path
         style="fill:none;fill-opacity:0;stroke:#000000;stroke-width:5;stroke-linecap:round;stroke-dasharray:none;stroke-opacity:1"
         d="m -11.213106,169.14065 c 5.6910655,-3.75462 11.38193885,-7.50911 19.7413636,-10.36943 8.3594244,-2.86031 19.3865644,-4.82621 30.4137094,-6.79212"
         id="path20908"
         inkscape:path-effect="#path-effect20910"
         inkscape:original-d="m -11.213106,169.14065 c 5.6912688,-3.75431 11.38214312,-7.5088 17.0729925,-11.26372 11.0278495,-1.96572 22.0549895,-3.93162 33.0820805,-5.89783"
         sodipodi:nodetypes="ccc" /><path
         style="fill:none;fill-opacity:0;stroke:#000000;stroke-width:5;stroke-linecap:round;stroke-dasharray:none;stroke-opacity:1"
         d="m 172.72021,171.6725 c 5.9535,2.04211 11.9067,4.08411 17.94179,4.19432 6.03509,0.11022 12.15198,-1.71116 18.26887,-3.53253"
         id="path21506"
         inkscape:path-effect="#path-effect21508"
         inkscape:original-d="m 172.72021,171.6725 c 5.95343,2.0423 11.90663,4.08431 17.85962,6.12602 6.11736,-1.82115 12.23425,-3.64253 18.35104,-5.46423" /></g></g></svg>
