<?xml version="1.0" encoding="UTF-8" standalone="no"?>
<!-- Created with Inkscape (http://www.inkscape.org/) -->

<svg
   width="90.858604mm"
   height="97.2108mm"
   viewBox="0 0 90.858605 97.210801"
   version="1.1"
   id="svg5"
   sodipodi:docname="custom.svg"
   inkscape:version="1.1.2 (b8e25be8, 2022-02-05)"
   xmlns:inkscape="http://www.inkscape.org/namespaces/inkscape"
   xmlns:sodipodi="http://sodipodi.sourceforge.net/DTD/sodipodi-0.dtd"
   xmlns="http://www.w3.org/2000/svg"
   xmlns:svg="http://www.w3.org/2000/svg">
  <sodipodi:namedview
     id="namedview836"
     pagecolor="#ffffff"
     bordercolor="#666666"
     borderopacity="1.0"
     inkscape:pageshadow="2"
     inkscape:pageopacity="0.0"
     inkscape:pagecheckerboard="0"
     inkscape:document-units="mm"
     showgrid="false"
     inkscape:zoom="0.80654303"
     inkscape:cx="264.70999"
     inkscape:cy="278.34845"
     inkscape:window-width="1920"
     inkscape:window-height="1027"
     inkscape:window-x="1728"
     inkscape:window-y="25"
     inkscape:window-maximized="0"
     inkscape:current-layer="svg5"
     fit-margin-top="10"
     fit-margin-left="10"
     fit-margin-right="10"
     fit-margin-bottom="10" />
  <defs
     id="defs2" />
  <path
     d="M 76.884302,33.048018 A 33.192549,33.192549 0 0 0 67.223523,20.854124 l 0.349396,7.197541 0.384334,0.506624 a 24.684774,24.684774 0 0 1 4.41985,19.845649 25.296216,25.296216 0 0 1 -31.270874,19.688423 C 28.562939,64.947804 20.177454,52.090059 22.553341,39.372072 24.422606,29.326959 30.362325,22.63604 40.005634,19.246906 l 0.349395,-0.139758 0.279516,-0.209638 3.511423,-5.066231 a 33.349776,33.349776 0 0 0 -30.95642,30.240159 33.454595,33.454595 0 0 0 26.623918,36.00518 33.402186,33.402186 0 0 0 38.782872,-23.060086 c 2.498177,-8.158379 1.921675,-16.21194 -1.694566,-23.985984 z M 35.655663,43.826861 A 12.176424,12.176424 0 0 0 49.369426,54.727993 12.228834,12.228834 0 0 0 59.903693,40.525076 C 58.907917,35.249208 57.789852,29.990809 56.724196,24.732411 l -1.362641,-6.655979 -0.349395,0.296986 -7.022845,6.900555 -8.560183,8.385486 a 11.896908,11.896908 0 0 0 -3.755999,10.167402 z"
     id="path919"
     style="stroke-width:0.174697" />
</svg>
