<svg width="20" height="20" viewBox="0 0 20 20" fill="none" xmlns="http://www.w3.org/2000/svg">
<path d="M16.5573 5.13544L10.9375 1.89065C10.6823 1.7396 10.3385 1.66669 10 1.66669C9.66146 1.66669 9.32292 1.7396 9.0625 1.89065L3.44271 5.13544C2.92709 5.43231 2.50521 6.16148 2.50521 6.75523V13.2448C2.50521 13.8386 2.92709 14.5677 3.44271 14.8646L9.0625 18.1094C9.31771 18.2604 9.66146 18.3334 10 18.3334C10.3385 18.3334 10.6771 18.2604 10.9375 18.1094L16.5573 14.8646C17.0729 14.5677 17.4948 13.8386 17.4948 13.2448V6.75523C17.4948 6.16148 17.0729 5.43231 16.5573 5.13544ZM10.151 16.7656C10.151 16.7656 10.0781 16.7813 10.0052 16.7813C9.93229 16.7813 9.88021 16.7709 9.85938 16.7656L4.22396 13.5104C4.16667 13.4584 4.09375 13.3281 4.07813 13.2552V6.74481C4.09375 6.6719 4.17188 6.54169 4.22396 6.4896L9.85938 3.2344C9.85938 3.2344 9.93229 3.21877 10.0052 3.21877C10.0781 3.21877 10.1302 3.22919 10.151 3.2344L15.7865 6.4896C15.8438 6.54169 15.9167 6.6719 15.9323 6.74481V12.5209L11.5677 10V9.31252C11.5677 9.1771 11.4948 9.05731 11.3802 8.9896L10.1927 8.3021C10.1354 8.27085 10.0677 8.25002 10.0052 8.25002C9.94271 8.25002 9.875 8.26565 9.81771 8.3021L8.63021 8.9896C8.51563 9.05731 8.44271 9.18231 8.44271 9.31252V10.6823C8.44271 10.8177 8.51563 10.9375 8.63021 11.0052L9.81771 11.6927C9.875 11.724 9.94271 11.7448 10.0052 11.7448C10.0677 11.7448 10.1354 11.7292 10.1927 11.6927L10.7865 11.349L15.151 13.8698L10.151 16.7552V16.7656Z" fill="var(--jp-brand-color1)"/>
</svg>
