<svg width="16" height="16" viewBox="0 0 16 16" fill="none" xmlns="http://www.w3.org/2000/svg">
    <path class="jp-icon3 jp-icon-selectable"  d="M3.54174 11.7007C3.01586 11.6481 2.48998 11.5487 1.97579 11.4085L1.92905 11.3968L1.94073 11.3501C2.09265 10.8534 2.28548 10.3684 2.51336 9.90684L2.53673 9.8601L2.57763 9.88347C2.92237 10.0763 3.29048 10.2516 3.6586 10.4035L3.69366 10.4152L3.68781 10.4503C3.62938 10.8417 3.60017 11.2449 3.58848 11.6481V11.7007H3.54174ZM4.67529 4.62471V4.61302C4.37145 4.61886 4.06761 4.63639 3.76962 4.67145C3.80467 4.98113 3.86311 5.28497 3.92738 5.58297C4.13773 5.23239 4.38898 4.91102 4.67529 4.62471ZM3.59432 12.0571V12.0162L3.55342 12.0104C3.10935 11.9694 2.65943 11.8935 2.21536 11.7883L2.0985 11.7591L2.16277 11.8643C2.56594 12.472 3.05676 13.0095 3.62354 13.4653L3.71703 13.5412L3.6995 13.4244C3.63523 12.9569 3.60017 12.4953 3.59432 12.0571ZM5.7621 1.39349C5.2187 1.58047 4.70451 1.83172 4.23122 2.1414C4.58765 2.20567 4.94407 2.28748 5.28881 2.39265C5.42905 2.04791 5.58681 1.7207 5.7621 1.39349ZM8.02337 1.01953C7.75459 1.01953 7.49165 1.03706 7.22871 1.06628C7.59683 1.32337 7.95326 1.60384 8.28631 1.91352L8.56678 2.17062L8.29215 2.43355C8.06427 2.64975 7.84808 2.88347 7.63773 3.13472L7.62604 3.14641C7.62604 3.14641 7.58514 3.19315 7.52087 3.26911C7.68447 3.25158 7.85392 3.2399 8.02337 3.2399C10.6469 3.2399 12.7796 5.36678 12.7796 7.99616C12.7796 10.6197 10.6528 12.7524 8.02337 12.7524C7.11185 12.7524 6.25876 12.4953 5.54007 12.0513C5.18364 12.0922 4.82721 12.1097 4.46494 12.1097C4.29549 12.1097 4.13189 12.1038 3.96244 12.098C3.97412 12.6414 4.02671 13.1965 4.11436 13.7808C5.23038 14.5346 6.57429 14.9786 8.02337 14.9786C11.8798 14.9786 15 11.8526 15 8.002C15 4.14558 11.8798 1.01953 8.02337 1.01953ZM7.10017 2.66728C7.2404 2.50367 7.38063 2.34591 7.52671 2.18815C7.1995 1.90768 6.85476 1.65643 6.49249 1.42855C6.27045 1.8025 6.07763 2.19399 5.91402 2.59132C6.22955 2.70818 6.53339 2.84257 6.83723 2.98865C6.97162 2.80751 7.07095 2.70234 7.10017 2.66728ZM2.36144 6.65225L2.39065 6.69315L2.43155 6.66394C2.75292 6.43022 3.09182 6.21402 3.4424 6.0212L3.47746 6.00952L3.46578 5.96861C3.3606 5.57713 3.2788 5.16811 3.22621 4.75325L3.22037 4.70651L3.17362 4.7182C2.65943 4.81169 2.14524 4.95192 1.65442 5.12721L1.60768 5.14474L1.62521 5.19148C1.82972 5.69399 2.07513 6.18481 2.36144 6.65225ZM2.27963 7.32421L2.23873 7.35342C1.86477 7.65726 1.50835 7.99616 1.18114 8.35843L1.14608 8.39349L1.18114 8.4227C1.54341 8.73823 1.93489 9.03038 2.34391 9.28748L2.38481 9.31669L2.40818 9.27579C2.58932 8.94858 2.79967 8.62721 3.0217 8.31753L3.04508 8.28831L3.0217 8.2591C2.76461 7.97279 2.52504 7.67479 2.30301 7.35926L2.27963 7.32421ZM5.02003 11.724L5.14274 11.7182L5.04925 11.6422C4.67529 11.3384 4.35392 10.982 4.09099 10.573V10.5613L4.01502 10.5262L4.00334 10.5905C3.95659 10.9411 3.92738 11.3033 3.92154 11.6773V11.724H3.96828C4.13189 11.7357 4.30134 11.7357 4.46494 11.7357C4.64608 11.7416 4.83306 11.7357 5.02003 11.724ZM4.78631 4.01703C4.86227 3.67229 4.95576 3.33339 5.06678 3.00033C4.62855 2.87763 4.17863 2.78414 3.72871 2.71987C3.68781 3.17562 3.68197 3.63138 3.71119 4.0813C4.06761 4.0404 4.42988 4.02287 4.78631 4.01703ZM5.45826 3.99366C5.7621 3.80083 6.08932 3.63723 6.43406 3.51452C6.18865 3.4035 5.94324 3.29833 5.68614 3.20484C5.5985 3.46194 5.52254 3.73072 5.45826 3.99366ZM2.21536 9.66144L2.1803 9.63806C1.81803 9.41018 1.47329 9.15893 1.14608 8.89015L1.05259 8.81419L1.07012 8.93689C1.15776 9.60885 1.34474 10.2574 1.61937 10.8768L1.66611 10.9878L1.70701 10.8768C1.8414 10.4795 2.01085 10.088 2.19783 9.71402L2.21536 9.66144ZM3.10935 3.04123C2.69449 3.45609 2.32638 3.9177 2.02838 4.42604C2.39065 4.32087 2.75292 4.23322 3.12104 4.16895C3.09766 3.79499 3.09182 3.42103 3.10935 3.04123ZM3.3197 7.93773L3.32554 7.81502C3.34307 7.38848 3.41319 6.97362 3.54174 6.57045L3.57679 6.45359L3.47162 6.51202C3.197 6.66978 2.92821 6.84507 2.67112 7.03205L2.63022 7.06127L2.65943 7.10217C2.84057 7.35926 3.03339 7.61052 3.2379 7.85008L3.3197 7.93773ZM3.36644 8.65058L3.34891 8.53372L3.2788 8.6389C3.08598 8.91352 2.90484 9.19399 2.74124 9.48614L2.71786 9.52704L2.75876 9.55042C3.05092 9.71402 3.3606 9.86594 3.67028 10.0003L3.7813 10.0471L3.72871 9.93606C3.54758 9.52704 3.42488 9.09466 3.36644 8.65058ZM2.00501 6.98531L2.04007 6.95609L2.01669 6.92103C1.8005 6.57045 1.60184 6.20234 1.42654 5.82838L1.37396 5.7232L1.3389 5.84007C1.13439 6.47112 1.02337 7.13138 1.00584 7.7975L1 7.9202L1.08765 7.83255C1.37396 7.52871 1.68364 7.23656 2.00501 6.98531Z" fill="white"/>
</svg>
