<svg width="20" height="20" viewBox="0 0 20 20" fill="none" xmlns="http://www.w3.org/2000/svg">
<g clip-path="url(#clip0_34_1123)">
<path d="M10 18.3333C5.39751 18.3333 1.66667 14.6025 1.66667 9.99996C1.66667 5.39746 5.39751 1.66663 10 1.66663C14.6025 1.66663 18.3333 5.39746 18.3333 9.99996C18.3333 14.6025 14.6025 18.3333 10 18.3333ZM10 16.6666C11.7681 16.6666 13.4638 15.9642 14.7141 14.714C15.9643 13.4638 16.6667 11.7681 16.6667 9.99996C16.6667 8.23185 15.9643 6.53616 14.7141 5.28591C13.4638 4.03567 11.7681 3.33329 10 3.33329C8.2319 3.33329 6.5362 4.03567 5.28596 5.28591C4.03572 6.53616 3.33334 8.23185 3.33334 9.99996C3.33334 11.7681 4.03572 13.4638 5.28596 14.714C6.5362 15.9642 8.2319 16.6666 10 16.6666V16.6666ZM9.16667 12.5H10.8333V14.1666H9.16667V12.5ZM9.16667 5.83329H10.8333V10.8333H9.16667V5.83329Z" fill="#FF5757"/>
</g>
<defs>
<clipPath id="clip0_34_1123">
<rect width="20" height="20" fill="white"/>
</clipPath>
</defs>
</svg>
