<svg width="16" height="16" viewBox="0 0 16 16" fill="none" xmlns="http://www.w3.org/2000/svg">
    <path class="jp-icon3 jp-icon-selectable" d="M5.04782 9.18708C4.91253 9.55079 4.79769 9.88726 4.69496 10.227C5.25451 9.82064 5.92067 9.56269 6.68863 9.46667C8.1547 9.28345 9.45693 8.31541 10.1163 7.09927L9.26706 6.25063L10.0911 5.42538C10.2858 5.23047 10.4804 5.03569 10.675 4.84106C10.9255 4.5906 11.2083 4.12707 11.5075 3.45997C8.24482 3.96567 6.24699 5.96339 5.04782 9.18708ZM10.9167 6.24976L11.5 6.83268C10.9167 8.58269 9.16667 10.3327 6.83333 10.6244C5.27668 10.819 4.30412 11.8884 3.91564 13.8327H2.75C3.33333 10.3327 4.5 2.16602 13.25 2.16602C12.6672 3.91446 12.0844 5.08061 11.5016 5.66446C11.3053 5.86073 11.111 6.05518 10.9167 6.24976Z" fill="white"/>
</svg>
