<svg width="16" height="16" viewBox="0 0 16 16" fill="none" xmlns="http://www.w3.org/2000/svg">
    <path class="jp-icon3 jp-icon-selectable" d="M3.625 10.041V6.24935C3.625 4.7996 4.80025 3.62435 6.25 3.62435C7.69976 3.62435 8.875 4.7996 8.875 6.24935V10.3327C8.875 11.1381 9.52792 11.791 10.3333 11.791C11.1387 11.791 11.7917 11.1381 11.7917 10.3327V6.44143C11.112 6.2012 10.625 5.55298 10.625 4.79102C10.625 3.82452 11.4085 3.04102 12.375 3.04102C13.3415 3.04102 14.125 3.82452 14.125 4.79102C14.125 5.55298 13.638 6.2012 12.9583 6.44143V10.3327C12.9583 11.7824 11.7831 12.9577 10.3333 12.9577C8.88357 12.9577 7.70833 11.7824 7.70833 10.3327V6.24935C7.70833 5.44393 7.05541 4.79102 6.25 4.79102C5.44459 4.79102 4.79167 5.44393 4.79167 6.24935V10.041H6.54167L4.20833 12.9577L1.875 10.041H3.625ZM12.375 5.37435C12.6972 5.37435 12.9583 5.11318 12.9583 4.79102C12.9583 4.46885 12.6972 4.20768 12.375 4.20768C12.0528 4.20768 11.7917 4.46885 11.7917 4.79102C11.7917 5.11318 12.0528 5.37435 12.375 5.37435Z" fill="white"/>
</svg>
