<svg width="16" height="16" viewBox="0 0 16 16" fill="none" xmlns="http://www.w3.org/2000/svg">
    <path class="jp-icon3 jp-icon-selectable" d="M6.83333 1C5.54475 1 4.5 2.04475 4.5 3.33333V3.91667H7.41667C7.73867 3.91667 8 4.178 8 4.5C8 4.822 7.73867 5.08333 7.41667 5.08333H4.5H3.91667H3.33333C2.04475 5.08333 1 6.12808 1 7.41667V9.75C1 11.0386 2.04475 12.0833 3.33333 12.0833H3.91667V9.16667C3.91667 8.20183 4.70183 7.41667 5.66667 7.41667H10.3333C10.6553 7.41667 10.9167 7.15533 10.9167 6.83333V3.33333C10.9167 2.04475 9.87192 1 8.58333 1H6.83333ZM6.25 2.16667C6.572 2.16667 6.83333 2.428 6.83333 2.75C6.83333 3.072 6.572 3.33333 6.25 3.33333C5.928 3.33333 5.66667 3.072 5.66667 2.75C5.66667 2.428 5.928 2.16667 6.25 2.16667ZM12.0833 3.91667V6.83333C12.0833 7.79817 11.2982 8.58333 10.3333 8.58333H5.66667C5.34467 8.58333 5.08333 8.84467 5.08333 9.16667V12.6667C5.08333 13.9552 6.12808 15 7.41667 15H9.16667C10.4552 15 11.5 13.9552 11.5 12.6667V12.0833H8.58333C8.26133 12.0833 8 11.822 8 11.5C8 11.178 8.26133 10.9167 8.58333 10.9167H11.5H12.0833H12.6667C13.9552 10.9167 15 9.87192 15 8.58333V6.25C15 4.96142 13.9552 3.91667 12.6667 3.91667H12.0833ZM9.75 12.6667C10.072 12.6667 10.3333 12.928 10.3333 13.25C10.3333 13.572 10.072 13.8333 9.75 13.8333C9.428 13.8333 9.16667 13.572 9.16667 13.25C9.16667 12.928 9.428 12.6667 9.75 12.6667Z" fill="white"/>
</svg>
