<?xml version="1.0" standalone="no"?><!DOCTYPE svg PUBLIC "-//W3C//DTD SVG 1.1//EN" "http://www.w3.org/Graphics/SVG/1.1/DTD/svg11.dtd"><svg t="1754989152299" class="icon" viewBox="0 0 1024 1024" version="1.1" xmlns="http://www.w3.org/2000/svg" p-id="21231" xmlns:xlink="http://www.w3.org/1999/xlink" width="200" height="200"><path d="M447.146667 537.6c-8.533333 0-17.066667-5.12-22.186667-13.653333-6.826667-11.946667-1.706667-27.306667 10.24-34.133334l378.88-213.333333c11.946667-6.826667 27.306667-1.706667 34.133333 10.24s1.706667 27.306667-10.24 34.133333L460.8 534.186667c-5.12 1.706667-8.533333 3.413333-13.653333 3.413333z" fill="#333333" p-id="21232"></path><path d="M802.133333 341.333333v170.666667c0 13.653333 11.946667 25.6 25.6 25.6S853.333333 525.653333 853.333333 512V298.666667c0-8.533333-5.12-17.066667-13.653333-22.186667L460.8 63.146667c-8.533333-5.12-17.066667-5.12-25.6 0L56.32 276.48h-1.706667c-1.706667 0-1.706667 1.706667-3.413333 3.413333 0 0-1.706667 0-1.706667 1.706667l-3.413333 3.413333c-1.706667 1.706667-1.706667 3.413333-1.706667 5.12v435.2c0 8.533333 5.12 17.066667 13.653334 22.186667l378.88 213.333333h1.706666c1.706667 0 3.413333 1.706667 3.413334 1.706667h15.36c1.706667 0 3.413333-1.706667 3.413333-1.706667h1.706667c1.706667-1.706667 3.413333-1.706667 5.12-3.413333 1.706667-1.706667 3.413333-3.413333 3.413333-5.12v-1.706667s0-1.706667 1.706667-1.706666v-1.706667-1.706667-3.413333-414.72L802.133333 341.333333z" fill="#333333" p-id="21233"></path><path d="M921.6 822.613333H590.506667c-13.653333 0-25.6-11.946667-25.6-25.6s11.946667-25.6 25.6-25.6H921.6c13.653333 0 25.6 11.946667 25.6 25.6s-11.946667 25.6-25.6 25.6z" fill="#333333" p-id="21234"></path><path d="M732.16 964.266667c-6.826667 0-13.653333-1.706667-18.773333-6.826667l-141.653334-141.653333c-10.24-10.24-10.24-25.6 0-35.84l141.653334-141.653334c10.24-10.24 25.6-10.24 35.84 0s10.24 25.6 0 35.84l-124.586667 124.586667 124.586667 124.586667c10.24 10.24 10.24 25.6 0 35.84-3.413333 3.413333-10.24 5.12-17.066667 5.12z" fill="#333333" p-id="21235"></path></svg>