<svg xmlns="http://www.w3.org/2000/svg" xmlns:xlink="http://www.w3.org/1999/xlink" version="1.1" class="marks" width="649" height="473" viewBox="0 0 649 473"><rect width="649" height="473" fill="white"/><g fill="none" stroke-miterlimit="10" transform="translate(44,36)"><g class="mark-group role-frame root" role="graphics-object" aria-roledescription="group mark container"><g transform="translate(0,0)"><path class="background" aria-hidden="true" d="M0.5,0.5h600v400h-600Z" stroke="#ddd"/><g><g class="mark-group role-axis" aria-hidden="true"><g transform="translate(0.5,0.5)"><path class="background" aria-hidden="true" d="M0,0h0v0h0Z" pointer-events="none"/><g><g class="mark-rule role-axis-grid" pointer-events="none"><line transform="translate(0,400)" x2="600" y2="0" stroke="#ddd" stroke-width="1" opacity="1"/><line transform="translate(0,363)" x2="600" y2="0" stroke="#ddd" stroke-width="1" opacity="1"/><line transform="translate(0,326)" x2="600" y2="0" stroke="#ddd" stroke-width="1" opacity="1"/><line transform="translate(0,289)" x2="600" y2="0" stroke="#ddd" stroke-width="1" opacity="1"/><line transform="translate(0,252)" x2="600" y2="0" stroke="#ddd" stroke-width="1" opacity="1"/><line transform="translate(0,215)" x2="600" y2="0" stroke="#ddd" stroke-width="1" opacity="1"/><line transform="translate(0,178)" x2="600" y2="0" stroke="#ddd" stroke-width="1" opacity="1"/><line transform="translate(0,141)" x2="600" y2="0" stroke="#ddd" stroke-width="1" opacity="1"/><line transform="translate(0,104)" x2="600" y2="0" stroke="#ddd" stroke-width="1" opacity="1"/><line transform="translate(0,67)" x2="600" y2="0" stroke="#ddd" stroke-width="1" opacity="1"/><line transform="translate(0,30)" x2="600" y2="0" stroke="#ddd" stroke-width="1" opacity="1"/></g></g><path class="foreground" aria-hidden="true" d="" pointer-events="none" display="none"/></g></g><g class="mark-group role-axis" role="graphics-symbol" aria-roledescription="axis" aria-label="X-axis titled 'Libraries' for a discrete scale with 7 values: toml_rs, pytomlpp, rtoml, tomllib, toml, qtoml, tomlkit"><g transform="translate(0.5,400.5)"><path class="background" aria-hidden="true" d="M0,0h0v0h0Z" pointer-events="none"/><g><g class="mark-rule role-axis-tick" pointer-events="none"><line transform="translate(42,0)" x2="0" y2="5" stroke="#888" stroke-width="1" opacity="1"/><line transform="translate(128,0)" x2="0" y2="5" stroke="#888" stroke-width="1" opacity="1"/><line transform="translate(214,0)" x2="0" y2="5" stroke="#888" stroke-width="1" opacity="1"/><line transform="translate(299,0)" x2="0" y2="5" stroke="#888" stroke-width="1" opacity="1"/><line transform="translate(385,0)" x2="0" y2="5" stroke="#888" stroke-width="1" opacity="1"/><line transform="translate(471,0)" x2="0" y2="5" stroke="#888" stroke-width="1" opacity="1"/><line transform="translate(557,0)" x2="0" y2="5" stroke="#888" stroke-width="1" opacity="1"/></g><g class="mark-text role-axis-label" pointer-events="none"><text text-anchor="middle" transform="translate(42.35714285714285,15)" font-family="sans-serif" font-size="10px" fill="#000" opacity="1">toml_rs</text><text text-anchor="middle" transform="translate(128.07142857142856,15)" font-family="sans-serif" font-size="10px" fill="#000" opacity="1">pytomlpp</text><text text-anchor="middle" transform="translate(213.78571428571428,15)" font-family="sans-serif" font-size="10px" fill="#000" opacity="1">rtoml</text><text text-anchor="middle" transform="translate(299.49999999999994,15)" font-family="sans-serif" font-size="10px" fill="#000" opacity="1">tomllib</text><text text-anchor="middle" transform="translate(385.21428571428567,15)" font-family="sans-serif" font-size="10px" fill="#000" opacity="1">toml</text><text text-anchor="middle" transform="translate(470.9285714285714,15)" font-family="sans-serif" font-size="10px" fill="#000" opacity="1">qtoml</text><text text-anchor="middle" transform="translate(556.642857142857,15)" font-family="sans-serif" font-size="10px" fill="#000" opacity="1">tomlkit</text></g><g class="mark-rule role-axis-domain" pointer-events="none"><line transform="translate(0,0)" x2="600" y2="0" stroke="#888" stroke-width="1" opacity="1"/></g><g class="mark-text role-axis-title" pointer-events="none"><text text-anchor="middle" transform="translate(300,30)" font-family="sans-serif" font-size="11px" font-weight="bold" fill="#000" opacity="1">Libraries</text></g></g><path class="foreground" aria-hidden="true" d="" pointer-events="none" display="none"/></g></g><g class="mark-group role-axis" role="graphics-symbol" aria-roledescription="axis" aria-label="Y-axis titled 'Execution Time (seconds, lower=better)' for a linear scale with values from 0 to 108"><g transform="translate(0.5,0.5)"><path class="background" aria-hidden="true" d="M0,0h0v0h0Z" pointer-events="none"/><g><g class="mark-rule role-axis-tick" pointer-events="none"><line transform="translate(0,400)" x2="-5" y2="0" stroke="#888" stroke-width="1" opacity="1"/><line transform="translate(0,363)" x2="-5" y2="0" stroke="#888" stroke-width="1" opacity="1"/><line transform="translate(0,326)" x2="-5" y2="0" stroke="#888" stroke-width="1" opacity="1"/><line transform="translate(0,289)" x2="-5" y2="0" stroke="#888" stroke-width="1" opacity="1"/><line transform="translate(0,252)" x2="-5" y2="0" stroke="#888" stroke-width="1" opacity="1"/><line transform="translate(0,215)" x2="-5" y2="0" stroke="#888" stroke-width="1" opacity="1"/><line transform="translate(0,178)" x2="-5" y2="0" stroke="#888" stroke-width="1" opacity="1"/><line transform="translate(0,141)" x2="-5" y2="0" stroke="#888" stroke-width="1" opacity="1"/><line transform="translate(0,104)" x2="-5" y2="0" stroke="#888" stroke-width="1" opacity="1"/><line transform="translate(0,67)" x2="-5" y2="0" stroke="#888" stroke-width="1" opacity="1"/><line transform="translate(0,30)" x2="-5" y2="0" stroke="#888" stroke-width="1" opacity="1"/></g><g class="mark-text role-axis-label" pointer-events="none"><text text-anchor="end" transform="translate(-7,403)" font-family="sans-serif" font-size="10px" fill="#000" opacity="1">0</text><text text-anchor="end" transform="translate(-7,365.9755386469397)" font-family="sans-serif" font-size="10px" fill="#000" opacity="1">10</text><text text-anchor="end" transform="translate(-7,328.95107729387945)" font-family="sans-serif" font-size="10px" fill="#000" opacity="1">20</text><text text-anchor="end" transform="translate(-7,291.92661594081915)" font-family="sans-serif" font-size="10px" fill="#000" opacity="1">30</text><text text-anchor="end" transform="translate(-7,254.90215458775884)" font-family="sans-serif" font-size="10px" fill="#000" opacity="1">40</text><text text-anchor="end" transform="translate(-7,217.87769323469857)" font-family="sans-serif" font-size="10px" fill="#000" opacity="1">50</text><text text-anchor="end" transform="translate(-7,180.8532318816383)" font-family="sans-serif" font-size="10px" fill="#000" opacity="1">60</text><text text-anchor="end" transform="translate(-7,143.82877052857796)" font-family="sans-serif" font-size="10px" fill="#000" opacity="1">70</text><text text-anchor="end" transform="translate(-7,106.80430917551769)" font-family="sans-serif" font-size="10px" fill="#000" opacity="1">80</text><text text-anchor="end" transform="translate(-7,69.77984782245741)" font-family="sans-serif" font-size="10px" fill="#000" opacity="1">90</text><text text-anchor="end" transform="translate(-7,32.75538646939712)" font-family="sans-serif" font-size="10px" fill="#000" opacity="1">100</text></g><g class="mark-rule role-axis-domain" pointer-events="none"><line transform="translate(0,400)" x2="0" y2="-400" stroke="#888" stroke-width="1" opacity="1"/></g><g class="mark-text role-axis-title" pointer-events="none"><text text-anchor="middle" transform="translate(-27.6845703125,200) rotate(-90) translate(0,-2)" font-family="sans-serif" font-size="11px" font-weight="bold" fill="#000" opacity="1">Execution Time (seconds, lower=better)</text></g></g><path class="foreground" aria-hidden="true" d="" pointer-events="none" display="none"/></g></g><g class="mark-group role-scope" role="graphics-object" aria-roledescription="group mark container"><g transform="translate(4.285714285714278,397.3761078947008)"><path class="background" aria-hidden="true" d="M1.3119460526496027,0L75.83091109020754,0C76.55499382799044,0,77.14285714285714,0.5878633148666906,77.14285714285714,1.3119460526496027L77.14285714285714,2.6238921052992055C77.14285714285714,2.6238921052992055,77.14285714285714,2.6238921052992055,77.14285714285714,2.6238921052992055L0,2.6238921052992055C0,2.6238921052992055,0,2.6238921052992055,0,2.6238921052992055L0,1.3119460526496027C0,0.5878633148666906,0.5878633148666906,0,1.3119460526496027,0Z"/><g clip-path="url(#clip1)"><g class="mark-group role-scope" role="graphics-object" aria-roledescription="group mark container"><g transform="translate(0,-397.3761078947008)"><path class="background" aria-hidden="true" d="M0,0h77.14285714285714v0h-77.14285714285714Z"/><g><g class="mark-rect role-mark layer_0_marks" role="graphics-object" aria-roledescription="rect mark container"><path aria-label="Libraries: toml_rs; Execution Time (seconds, lower=better): 0.7086915; parser: toml_rs; Execution Time (s): 0.7087" role="graphics-symbol" aria-roledescription="bar" d="M0,397.3761078947008h77.14285714285714v2.6238921052992055h-77.14285714285714Z" fill="rgb(40, 174, 128)"/></g></g><path class="foreground" aria-hidden="true" d="" display="none"/></g></g></g><path class="foreground" aria-hidden="true" d="" display="none"/></g><g transform="translate(89.99999999999999,394.3473499723036)"><path class="background" aria-hidden="true" d="M2.826325013848191,0L74.31653212900895,0C75.87642336825498,0,77.14285714285714,1.2664337746021617,77.14285714285714,2.826325013848191L77.14285714285714,5.652650027696382C77.14285714285714,5.652650027696382,77.14285714285714,5.652650027696382,77.14285714285714,5.652650027696382L0,5.652650027696382C0,5.652650027696382,0,5.652650027696382,0,5.652650027696382L0,2.826325013848191C0,1.2664337746021617,1.2664337746021617,0,2.826325013848191,0Z"/><g clip-path="url(#clip2)"><g class="mark-group role-scope" role="graphics-object" aria-roledescription="group mark container"><g transform="translate(0,-394.3473499723036)"><path class="background" aria-hidden="true" d="M0,0h77.14285714285714v0h-77.14285714285714Z"/><g><g class="mark-rect role-mark layer_0_marks" role="graphics-object" aria-roledescription="rect mark container"><path aria-label="Libraries: pytomlpp; Execution Time (seconds, lower=better): 1.5267339; parser: pytomlpp; Execution Time (s): 1.5267" role="graphics-symbol" aria-roledescription="bar" d="M0,394.3473499723036h77.14285714285714v5.652650027696382h-77.14285714285714Z" fill="rgb(71, 45, 123)"/></g></g><path class="foreground" aria-hidden="true" d="" display="none"/></g></g></g><path class="foreground" aria-hidden="true" d="" display="none"/></g><g transform="translate(175.7142857142857,391.84047034490794)"><path class="background" aria-hidden="true" d="M4.079764827546029,0L73.06309231531111,0C75.31477582003593,0,77.14285714285714,1.8280813228212027,77.14285714285714,4.079764827546029L77.14285714285714,8.159529655092058C77.14285714285714,8.159529655092058,77.14285714285714,8.159529655092058,77.14285714285714,8.159529655092058L0,8.159529655092058C0,8.159529655092058,0,8.159529655092058,0,8.159529655092058L0,4.079764827546029C0,1.8280813228212027,1.8280813228212027,0,4.079764827546029,0Z"/><g clip-path="url(#clip3)"><g class="mark-group role-scope" role="graphics-object" aria-roledescription="group mark container"><g transform="translate(0,-391.84047034490794)"><path class="background" aria-hidden="true" d="M0,0h77.14285714285714v0h-77.14285714285714Z"/><g><g class="mark-rect role-mark layer_0_marks" role="graphics-object" aria-roledescription="rect mark container"><path aria-label="Libraries: rtoml; Execution Time (seconds, lower=better): 2.2038213; parser: rtoml; Execution Time (s): 2.2038" role="graphics-symbol" aria-roledescription="bar" d="M0,391.84047034490794h77.14285714285714v8.159529655092058h-77.14285714285714Z" fill="rgb(44, 114, 142)"/></g></g><path class="foreground" aria-hidden="true" d="" display="none"/></g></g></g><path class="foreground" aria-hidden="true" d="" display="none"/></g><g transform="translate(261.4285714285714,378.5063919745114)"><path class="background" aria-hidden="true" d="M6,0L71.14285714285714,0C74.45434728982114,0,77.14285714285714,2.688509853036,77.14285714285714,6L77.14285714285714,21.493608025488584C77.14285714285714,21.493608025488584,77.14285714285714,21.493608025488584,77.14285714285714,21.493608025488584L0,21.493608025488584C0,21.493608025488584,0,21.493608025488584,0,21.493608025488584L0,6C0,2.688509853036,2.688509853036,0,6,0Z"/><g clip-path="url(#clip4)"><g class="mark-group role-scope" role="graphics-object" aria-roledescription="group mark container"><g transform="translate(0,-378.5063919745114)"><path class="background" aria-hidden="true" d="M0,0h77.14285714285714v0h-77.14285714285714Z"/><g><g class="mark-rect role-mark layer_0_marks" role="graphics-object" aria-roledescription="rect mark container"><path aria-label="Libraries: tomllib; Execution Time (seconds, lower=better): 5.8052453; parser: tomllib; Execution Time (s): 5.8052" role="graphics-symbol" aria-roledescription="bar" d="M0,378.5063919745114h77.14285714285714v21.493608025488584h-77.14285714285714Z" fill="rgb(171, 220, 50)"/></g></g><path class="foreground" aria-hidden="true" d="" display="none"/></g></g></g><path class="foreground" aria-hidden="true" d="" display="none"/></g><g transform="translate(347.1428571428571,346.7215990701212)"><path class="background" aria-hidden="true" d="M6,0L71.14285714285714,0C74.45434728982114,0,77.14285714285714,2.688509853036,77.14285714285714,6L77.14285714285714,53.278400929878785C77.14285714285714,53.278400929878785,77.14285714285714,53.278400929878785,77.14285714285714,53.278400929878785L0,53.278400929878785C0,53.278400929878785,0,53.278400929878785,0,53.278400929878785L0,6C0,2.688509853036,2.688509853036,0,6,0Z"/><g clip-path="url(#clip5)"><g class="mark-group role-scope" role="graphics-object" aria-roledescription="group mark container"><g transform="translate(0,-346.7215990701212)"><path class="background" aria-hidden="true" d="M0,0h77.14285714285714v0h-77.14285714285714Z"/><g><g class="mark-rect role-mark layer_0_marks" role="graphics-object" aria-roledescription="rect mark container"><path aria-label="Libraries: toml; Execution Time (seconds, lower=better): 14.3900543; parser: toml; Execution Time (s): 14.3901" role="graphics-symbol" aria-roledescription="bar" d="M0,346.7215990701212h77.14285714285714v53.278400929878785h-77.14285714285714Z" fill="rgb(33, 145, 141)"/></g></g><path class="foreground" aria-hidden="true" d="" display="none"/></g></g></g><path class="foreground" aria-hidden="true" d="" display="none"/></g><g transform="translate(432.85714285714283,345.14468357223)"><path class="background" aria-hidden="true" d="M6,0L71.14285714285714,0C74.45434728982114,0,77.14285714285714,2.688509853036,77.14285714285714,6L77.14285714285714,54.85531642776999C77.14285714285714,54.85531642776999,77.14285714285714,54.85531642776999,77.14285714285714,54.85531642776999L0,54.85531642776999C0,54.85531642776999,0,54.85531642776999,0,54.85531642776999L0,6C0,2.688509853036,2.688509853036,0,6,0Z"/><g clip-path="url(#clip6)"><g class="mark-group role-scope" role="graphics-object" aria-roledescription="group mark container"><g transform="translate(0,-345.14468357223)"><path class="background" aria-hidden="true" d="M0,0h77.14285714285714v0h-77.14285714285714Z"/><g><g class="mark-rect role-mark layer_0_marks" role="graphics-object" aria-roledescription="rect mark container"><path aria-label="Libraries: qtoml; Execution Time (seconds, lower=better): 14.8159661; parser: qtoml; Execution Time (s): 14.8160" role="graphics-symbol" aria-roledescription="bar" d="M0,345.14468357223h77.14285714285714v54.85531642776999h-77.14285714285714Z" fill="rgb(59, 82, 139)"/></g></g><path class="foreground" aria-hidden="true" d="" display="none"/></g></g></g><path class="foreground" aria-hidden="true" d="" display="none"/></g><g transform="translate(518.5714285714284,36.363636363636374)"><path class="background" aria-hidden="true" d="M6,0L71.14285714285714,0C74.45434728982114,0,77.14285714285714,2.688509853036,77.14285714285714,6L77.14285714285714,363.6363636363636C77.14285714285714,363.6363636363636,77.14285714285714,363.6363636363636,77.14285714285714,363.6363636363636L0,363.6363636363636C0,363.6363636363636,0,363.6363636363636,0,363.6363636363636L0,6C0,2.688509853036,2.688509853036,0,6,0Z"/><g clip-path="url(#clip7)"><g class="mark-group role-scope" role="graphics-object" aria-roledescription="group mark container"><g transform="translate(0,-36.363636363636374)"><path class="background" aria-hidden="true" d="M0,0h77.14285714285714v0h-77.14285714285714Z"/><g><g class="mark-rect role-mark layer_0_marks" role="graphics-object" aria-roledescription="rect mark container"><path aria-label="Libraries: tomlkit; Execution Time (seconds, lower=better): 98.2151665; parser: tomlkit; Execution Time (s): 98.2152" role="graphics-symbol" aria-roledescription="bar" d="M0,36.363636363636374h77.14285714285714v363.6363636363636h-77.14285714285714Z" fill="rgb(93, 201, 99)"/></g></g><path class="foreground" aria-hidden="true" d="" display="none"/></g></g></g><path class="foreground" aria-hidden="true" d="" display="none"/></g></g><g class="mark-text role-mark layer_1_marks" role="graphics-object" aria-roledescription="text mark container"><text aria-label="Libraries: toml_rs; Execution Time (seconds, lower=better): 0.7086915; parser: toml_rs; label: 0.7087 s; Execution Time (s): 0.7087" role="graphics-symbol" aria-roledescription="text mark" text-anchor="middle" transform="translate(42.85714285714285,389.3761078947008)" font-family="sans-serif" font-size="14px" fill="rgb(40, 174, 128)">0.7087 s</text><text aria-label="Libraries: pytomlpp; Execution Time (seconds, lower=better): 1.5267339; parser: pytomlpp; label: 1.5267 s; Execution Time (s): 1.5267" role="graphics-symbol" aria-roledescription="text mark" text-anchor="middle" transform="translate(128.57142857142856,386.3473499723036)" font-family="sans-serif" font-size="14px" fill="rgb(71, 45, 123)">1.5267 s</text><text aria-label="Libraries: rtoml; Execution Time (seconds, lower=better): 2.2038213; parser: rtoml; label: 2.2038 s; Execution Time (s): 2.2038" role="graphics-symbol" aria-roledescription="text mark" text-anchor="middle" transform="translate(214.28571428571428,383.84047034490794)" font-family="sans-serif" font-size="14px" fill="rgb(44, 114, 142)">2.2038 s</text><text aria-label="Libraries: tomllib; Execution Time (seconds, lower=better): 5.8052453; parser: tomllib; label: 5.8052 s; Execution Time (s): 5.8052" role="graphics-symbol" aria-roledescription="text mark" text-anchor="middle" transform="translate(299.99999999999994,370.5063919745114)" font-family="sans-serif" font-size="14px" fill="rgb(171, 220, 50)">5.8052 s</text><text aria-label="Libraries: toml; Execution Time (seconds, lower=better): 14.3900543; parser: toml; label: 14.3901 s; Execution Time (s): 14.3901" role="graphics-symbol" aria-roledescription="text mark" text-anchor="middle" transform="translate(385.71428571428567,338.7215990701212)" font-family="sans-serif" font-size="14px" fill="rgb(33, 145, 141)">14.3901 s</text><text aria-label="Libraries: qtoml; Execution Time (seconds, lower=better): 14.8159661; parser: qtoml; label: 14.8160 s; Execution Time (s): 14.8160" role="graphics-symbol" aria-roledescription="text mark" text-anchor="middle" transform="translate(471.4285714285714,337.14468357223)" font-family="sans-serif" font-size="14px" fill="rgb(59, 82, 139)">14.8160 s</text><text aria-label="Libraries: tomlkit; Execution Time (seconds, lower=better): 98.2151665; parser: tomlkit; label: 98.2152 s; Execution Time (s): 98.2152" role="graphics-symbol" aria-roledescription="text mark" text-anchor="middle" transform="translate(557.142857142857,28.363636363636374)" font-family="sans-serif" font-size="14px" fill="rgb(93, 201, 99)">98.2152 s</text></g><g class="mark-group role-title"><g transform="translate(300,-31)"><path class="background" aria-hidden="true" d="M0,0h0v0h0Z" pointer-events="none"/><g><g class="mark-text role-title-text" role="graphics-symbol" aria-roledescription="title" aria-label="Title text 'TOML parsers benchmark'" pointer-events="none"><text text-anchor="middle" transform="translate(0,10)" font-family="sans-serif" font-size="13px" font-weight="bold" fill="#000" opacity="1">TOML parsers benchmark</text></g><g class="mark-text role-title-subtitle" role="graphics-symbol" aria-roledescription="subtitle" aria-label="Subtitle text 'Python: 3.13.8 (Windows 10) | CPU: 11th Gen Intel(R) Core(TM) i5-11300H @ 3.10GHz'" pointer-events="none"><text text-anchor="middle" transform="translate(0,25)" font-family="sans-serif" font-size="12px" fill="#000" opacity="1">Python: 3.13.8 (Windows 10) | CPU: 11th Gen Intel(R) Core(TM) i5-11300H @ 3.10GHz</text></g></g><path class="foreground" aria-hidden="true" d="" pointer-events="none" display="none"/></g></g></g><path class="foreground" aria-hidden="true" d="" display="none"/></g></g></g><defs><clipPath id="clip1"><path d="M1.3119460526496027,0L75.83091109020754,0C76.55499382799044,0,77.14285714285714,0.5878633148666906,77.14285714285714,1.3119460526496027L77.14285714285714,2.6238921052992055C77.14285714285714,2.6238921052992055,77.14285714285714,2.6238921052992055,77.14285714285714,2.6238921052992055L0,2.6238921052992055C0,2.6238921052992055,0,2.6238921052992055,0,2.6238921052992055L0,1.3119460526496027C0,0.5878633148666906,0.5878633148666906,0,1.3119460526496027,0Z"/></clipPath><clipPath id="clip2"><path d="M2.826325013848191,0L74.31653212900895,0C75.87642336825498,0,77.14285714285714,1.2664337746021617,77.14285714285714,2.826325013848191L77.14285714285714,5.652650027696382C77.14285714285714,5.652650027696382,77.14285714285714,5.652650027696382,77.14285714285714,5.652650027696382L0,5.652650027696382C0,5.652650027696382,0,5.652650027696382,0,5.652650027696382L0,2.826325013848191C0,1.2664337746021617,1.2664337746021617,0,2.826325013848191,0Z"/></clipPath><clipPath id="clip3"><path d="M4.079764827546029,0L73.06309231531111,0C75.31477582003593,0,77.14285714285714,1.8280813228212027,77.14285714285714,4.079764827546029L77.14285714285714,8.159529655092058C77.14285714285714,8.159529655092058,77.14285714285714,8.159529655092058,77.14285714285714,8.159529655092058L0,8.159529655092058C0,8.159529655092058,0,8.159529655092058,0,8.159529655092058L0,4.079764827546029C0,1.8280813228212027,1.8280813228212027,0,4.079764827546029,0Z"/></clipPath><clipPath id="clip4"><path d="M6,0L71.14285714285714,0C74.45434728982114,0,77.14285714285714,2.688509853036,77.14285714285714,6L77.14285714285714,21.493608025488584C77.14285714285714,21.493608025488584,77.14285714285714,21.493608025488584,77.14285714285714,21.493608025488584L0,21.493608025488584C0,21.493608025488584,0,21.493608025488584,0,21.493608025488584L0,6C0,2.688509853036,2.688509853036,0,6,0Z"/></clipPath><clipPath id="clip5"><path d="M6,0L71.14285714285714,0C74.45434728982114,0,77.14285714285714,2.688509853036,77.14285714285714,6L77.14285714285714,53.278400929878785C77.14285714285714,53.278400929878785,77.14285714285714,53.278400929878785,77.14285714285714,53.278400929878785L0,53.278400929878785C0,53.278400929878785,0,53.278400929878785,0,53.278400929878785L0,6C0,2.688509853036,2.688509853036,0,6,0Z"/></clipPath><clipPath id="clip6"><path d="M6,0L71.14285714285714,0C74.45434728982114,0,77.14285714285714,2.688509853036,77.14285714285714,6L77.14285714285714,54.85531642776999C77.14285714285714,54.85531642776999,77.14285714285714,54.85531642776999,77.14285714285714,54.85531642776999L0,54.85531642776999C0,54.85531642776999,0,54.85531642776999,0,54.85531642776999L0,6C0,2.688509853036,2.688509853036,0,6,0Z"/></clipPath><clipPath id="clip7"><path d="M6,0L71.14285714285714,0C74.45434728982114,0,77.14285714285714,2.688509853036,77.14285714285714,6L77.14285714285714,363.6363636363636C77.14285714285714,363.6363636363636,77.14285714285714,363.6363636363636,77.14285714285714,363.6363636363636L0,363.6363636363636C0,363.6363636363636,0,363.6363636363636,0,363.6363636363636L0,6C0,2.688509853036,2.688509853036,0,6,0Z"/></clipPath></defs></svg>