<?xml version="1.0" encoding="utf-8" standalone="no"?>
<!DOCTYPE svg PUBLIC "-//W3C//DTD SVG 1.1//EN"
  "http://www.w3.org/Graphics/SVG/1.1/DTD/svg11.dtd">
<svg xmlns:xlink="http://www.w3.org/1999/xlink" width="447.59952pt" height="278.39952pt" viewBox="0 0 447.59952 278.39952" xmlns="http://www.w3.org/2000/svg" version="1.1">
 <metadata>
  <rdf:RDF xmlns:dc="http://purl.org/dc/elements/1.1/" xmlns:cc="http://creativecommons.org/ns#" xmlns:rdf="http://www.w3.org/1999/02/22-rdf-syntax-ns#">
   <cc:Work>
    <dc:type rdf:resource="http://purl.org/dc/dcmitype/StillImage"/>
    <dc:date>2025-09-17T10:16:34.492434</dc:date>
    <dc:format>image/svg+xml</dc:format>
    <dc:creator>
     <cc:Agent>
      <dc:title>Matplotlib v3.9.4, https://matplotlib.org/</dc:title>
     </cc:Agent>
    </dc:creator>
   </cc:Work>
  </rdf:RDF>
 </metadata>
 <defs>
  <style type="text/css">*{stroke-linejoin: round; stroke-linecap: butt}</style>
 </defs>
 <g id="figure_1">
  <g id="patch_1">
   <path d="M 0 278.39952 
L 447.59952 278.39952 
L 447.59952 0 
L 0 0 
z
" style="fill: #ffffff"/>
  </g>
  <g id="axes_1">
   <g id="patch_2">
    <path d="M 37.003125 244.221395 
L 443.99952 244.221395 
L 443.99952 3.6 
L 37.003125 3.6 
z
" style="fill: #ffffff"/>
   </g>
   <g id="matplotlib.axis_1">
    <g id="xtick_1">
     <g id="line2d_1">
      <path d="M 74.590273 244.221395 
L 74.590273 3.6 
" clip-path="url(#p19b547569c)" style="fill: none; stroke-dasharray: 1.85,0.8; stroke-dashoffset: 0; stroke: #b0b0b0; stroke-opacity: 0.7; stroke-width: 0.5"/>
     </g>
     <g id="line2d_2">
      <defs>
       <path id="m9e9b5097f6" d="M 0 0 
L 0 3.5 
" style="stroke: #000000; stroke-width: 0.8"/>
      </defs>
      <g>
       <use xlink:href="#m9e9b5097f6" x="74.590273" y="244.221395" style="stroke: #000000; stroke-width: 0.8"/>
      </g>
     </g>
     <g id="text_1">
      <!-- −100 -->
      <g transform="translate(60.856679 258.819832) scale(0.1 -0.1)">
       <defs>
        <path id="DejaVuSerif-2212" d="M 678 2259 
L 4684 2259 
L 4684 1753 
L 678 1753 
L 678 2259 
z
" transform="scale(0.015625)"/>
        <path id="DejaVuSerif-31" d="M 909 0 
L 909 331 
L 1722 331 
L 1722 4213 
L 781 3603 
L 781 4013 
L 1919 4750 
L 2350 4750 
L 2350 331 
L 3163 331 
L 3163 0 
L 909 0 
z
" transform="scale(0.015625)"/>
        <path id="DejaVuSerif-30" d="M 2034 219 
Q 2513 219 2750 744 
Q 2988 1269 2988 2328 
Q 2988 3391 2750 3916 
Q 2513 4441 2034 4441 
Q 1556 4441 1318 3916 
Q 1081 3391 1081 2328 
Q 1081 1269 1318 744 
Q 1556 219 2034 219 
z
M 2034 -91 
Q 1275 -91 848 546 
Q 422 1184 422 2328 
Q 422 3475 848 4112 
Q 1275 4750 2034 4750 
Q 2797 4750 3222 4112 
Q 3647 3475 3647 2328 
Q 3647 1184 3222 546 
Q 2797 -91 2034 -91 
z
" transform="scale(0.015625)"/>
       </defs>
       <use xlink:href="#DejaVuSerif-2212"/>
       <use xlink:href="#DejaVuSerif-31" x="83.789062"/>
       <use xlink:href="#DejaVuSerif-30" x="147.412109"/>
       <use xlink:href="#DejaVuSerif-30" x="211.035156"/>
      </g>
     </g>
    </g>
    <g id="xtick_2">
     <g id="line2d_3">
      <path d="M 157.545798 244.221395 
L 157.545798 3.6 
" clip-path="url(#p19b547569c)" style="fill: none; stroke-dasharray: 1.85,0.8; stroke-dashoffset: 0; stroke: #b0b0b0; stroke-opacity: 0.7; stroke-width: 0.5"/>
     </g>
     <g id="line2d_4">
      <g>
       <use xlink:href="#m9e9b5097f6" x="157.545798" y="244.221395" style="stroke: #000000; stroke-width: 0.8"/>
      </g>
     </g>
     <g id="text_2">
      <!-- −50 -->
      <g transform="translate(146.993454 258.819832) scale(0.1 -0.1)">
       <defs>
        <path id="DejaVuSerif-35" d="M 3219 4666 
L 3219 4153 
L 1081 4153 
L 1081 2816 
Q 1244 2928 1461 2984 
Q 1678 3041 1947 3041 
Q 2703 3041 3140 2622 
Q 3578 2203 3578 1478 
Q 3578 738 3136 323 
Q 2694 -91 1894 -91 
Q 1572 -91 1234 -12 
Q 897 66 544 225 
L 544 1131 
L 897 1131 
Q 925 688 1179 453 
Q 1434 219 1894 219 
Q 2388 219 2653 544 
Q 2919 869 2919 1478 
Q 2919 2084 2655 2407 
Q 2391 2731 1894 2731 
Q 1613 2731 1398 2631 
Q 1184 2531 1019 2322 
L 750 2322 
L 750 4666 
L 3219 4666 
z
" transform="scale(0.015625)"/>
       </defs>
       <use xlink:href="#DejaVuSerif-2212"/>
       <use xlink:href="#DejaVuSerif-35" x="83.789062"/>
       <use xlink:href="#DejaVuSerif-30" x="147.412109"/>
      </g>
     </g>
    </g>
    <g id="xtick_3">
     <g id="line2d_5">
      <path d="M 240.501322 244.221395 
L 240.501322 3.6 
" clip-path="url(#p19b547569c)" style="fill: none; stroke-dasharray: 1.85,0.8; stroke-dashoffset: 0; stroke: #b0b0b0; stroke-opacity: 0.7; stroke-width: 0.5"/>
     </g>
     <g id="line2d_6">
      <g>
       <use xlink:href="#m9e9b5097f6" x="240.501322" y="244.221395" style="stroke: #000000; stroke-width: 0.8"/>
      </g>
     </g>
     <g id="text_3">
      <!-- 0 -->
      <g transform="translate(237.320072 258.819832) scale(0.1 -0.1)">
       <use xlink:href="#DejaVuSerif-30"/>
      </g>
     </g>
    </g>
    <g id="xtick_4">
     <g id="line2d_7">
      <path d="M 323.456847 244.221395 
L 323.456847 3.6 
" clip-path="url(#p19b547569c)" style="fill: none; stroke-dasharray: 1.85,0.8; stroke-dashoffset: 0; stroke: #b0b0b0; stroke-opacity: 0.7; stroke-width: 0.5"/>
     </g>
     <g id="line2d_8">
      <g>
       <use xlink:href="#m9e9b5097f6" x="323.456847" y="244.221395" style="stroke: #000000; stroke-width: 0.8"/>
      </g>
     </g>
     <g id="text_4">
      <!-- 50 -->
      <g transform="translate(317.094347 258.819832) scale(0.1 -0.1)">
       <use xlink:href="#DejaVuSerif-35"/>
       <use xlink:href="#DejaVuSerif-30" x="63.623047"/>
      </g>
     </g>
    </g>
    <g id="xtick_5">
     <g id="line2d_9">
      <path d="M 406.412372 244.221395 
L 406.412372 3.6 
" clip-path="url(#p19b547569c)" style="fill: none; stroke-dasharray: 1.85,0.8; stroke-dashoffset: 0; stroke: #b0b0b0; stroke-opacity: 0.7; stroke-width: 0.5"/>
     </g>
     <g id="line2d_10">
      <g>
       <use xlink:href="#m9e9b5097f6" x="406.412372" y="244.221395" style="stroke: #000000; stroke-width: 0.8"/>
      </g>
     </g>
     <g id="text_5">
      <!-- 100 -->
      <g transform="translate(396.868622 258.819832) scale(0.1 -0.1)">
       <use xlink:href="#DejaVuSerif-31"/>
       <use xlink:href="#DejaVuSerif-30" x="63.623047"/>
       <use xlink:href="#DejaVuSerif-30" x="127.246094"/>
      </g>
     </g>
    </g>
    <g id="text_6">
     <!-- Velocity $v$ (m/s) -->
     <g transform="translate(201.051322 272.49952) scale(0.1 -0.1)">
      <defs>
       <path id="DejaVuSerif-56" d="M 1119 4331 
L 2497 750 
L 3872 4331 
L 3347 4331 
L 3347 4666 
L 4716 4666 
L 4716 4331 
L 4263 4331 
L 2597 0 
L 2059 0 
L 403 4331 
L -63 4331 
L -63 4666 
L 1638 4666 
L 1638 4331 
L 1119 4331 
z
" transform="scale(0.015625)"/>
       <path id="DejaVuSerif-65" d="M 3469 1600 
L 991 1600 
L 991 1575 
Q 991 903 1244 561 
Q 1497 219 1991 219 
Q 2369 219 2611 417 
Q 2853 616 2950 1006 
L 3413 1006 
Q 3275 459 2904 184 
Q 2534 -91 1931 -91 
Q 1203 -91 761 389 
Q 319 869 319 1663 
Q 319 2450 753 2931 
Q 1188 3413 1894 3413 
Q 2647 3413 3050 2948 
Q 3453 2484 3469 1600 
z
M 2791 1931 
Q 2772 2513 2545 2808 
Q 2319 3103 1894 3103 
Q 1497 3103 1269 2806 
Q 1041 2509 991 1931 
L 2791 1931 
z
" transform="scale(0.015625)"/>
       <path id="DejaVuSerif-6c" d="M 1313 331 
L 1856 331 
L 1856 0 
L 184 0 
L 184 331 
L 738 331 
L 738 4531 
L 184 4531 
L 184 4863 
L 1313 4863 
L 1313 331 
z
" transform="scale(0.015625)"/>
       <path id="DejaVuSerif-6f" d="M 1925 219 
Q 2388 219 2623 584 
Q 2859 950 2859 1663 
Q 2859 2375 2623 2739 
Q 2388 3103 1925 3103 
Q 1463 3103 1227 2739 
Q 991 2375 991 1663 
Q 991 950 1228 584 
Q 1466 219 1925 219 
z
M 1925 -91 
Q 1200 -91 759 389 
Q 319 869 319 1663 
Q 319 2456 758 2934 
Q 1197 3413 1925 3413 
Q 2653 3413 3092 2934 
Q 3531 2456 3531 1663 
Q 3531 869 3092 389 
Q 2653 -91 1925 -91 
z
" transform="scale(0.015625)"/>
       <path id="DejaVuSerif-63" d="M 3291 997 
Q 3169 466 2822 187 
Q 2475 -91 1925 -91 
Q 1200 -91 759 389 
Q 319 869 319 1663 
Q 319 2459 759 2936 
Q 1200 3413 1925 3413 
Q 2241 3413 2553 3339 
Q 2866 3266 3181 3116 
L 3181 2266 
L 2847 2266 
Q 2781 2703 2561 2903 
Q 2341 3103 1931 3103 
Q 1466 3103 1228 2742 
Q 991 2381 991 1663 
Q 991 944 1227 581 
Q 1463 219 1931 219 
Q 2303 219 2525 412 
Q 2747 606 2828 997 
L 3291 997 
z
" transform="scale(0.015625)"/>
       <path id="DejaVuSerif-69" d="M 622 4353 
Q 622 4497 726 4603 
Q 831 4709 978 4709 
Q 1122 4709 1226 4603 
Q 1331 4497 1331 4353 
Q 1331 4206 1228 4103 
Q 1125 4000 978 4000 
Q 831 4000 726 4103 
Q 622 4206 622 4353 
z
M 1356 331 
L 1900 331 
L 1900 0 
L 231 0 
L 231 331 
L 781 331 
L 781 2988 
L 231 2988 
L 231 3322 
L 1356 3322 
L 1356 331 
z
" transform="scale(0.015625)"/>
       <path id="DejaVuSerif-74" d="M 691 2988 
L 184 2988 
L 184 3322 
L 691 3322 
L 691 4353 
L 1269 4353 
L 1269 3322 
L 2350 3322 
L 2350 2988 
L 1269 2988 
L 1269 878 
Q 1269 456 1350 337 
Q 1431 219 1650 219 
Q 1875 219 1978 351 
Q 2081 484 2088 781 
L 2522 781 
Q 2497 328 2275 118 
Q 2053 -91 1600 -91 
Q 1103 -91 897 129 
Q 691 350 691 878 
L 691 2988 
z
" transform="scale(0.015625)"/>
       <path id="DejaVuSerif-79" d="M 1381 -609 
L 1600 -56 
L 359 2988 
L -19 2988 
L -19 3322 
L 1509 3322 
L 1509 2988 
L 978 2988 
L 1913 703 
L 2847 2988 
L 2350 2988 
L 2350 3322 
L 3597 3322 
L 3597 2988 
L 3225 2988 
L 1703 -750 
Q 1547 -1138 1356 -1280 
Q 1166 -1422 819 -1422 
Q 672 -1422 517 -1397 
Q 363 -1372 206 -1325 
L 206 -691 
L 500 -691 
Q 519 -903 608 -995 
Q 697 -1088 884 -1088 
Q 1056 -1088 1161 -992 
Q 1266 -897 1381 -609 
z
" transform="scale(0.015625)"/>
       <path id="DejaVuSerif-20" transform="scale(0.015625)"/>
       <path id="DejaVuSans-Oblique-76" d="M 459 3500 
L 1069 3500 
L 1581 525 
L 3256 3500 
L 3866 3500 
L 1875 0 
L 1100 0 
L 459 3500 
z
" transform="scale(0.015625)"/>
       <path id="DejaVuSerif-28" d="M 2041 -997 
Q 1281 -656 893 83 
Q 506 822 506 1931 
Q 506 3044 893 3783 
Q 1281 4522 2041 4863 
L 2041 4556 
Q 1559 4225 1350 3623 
Q 1141 3022 1141 1931 
Q 1141 844 1350 242 
Q 1559 -359 2041 -691 
L 2041 -997 
z
" transform="scale(0.015625)"/>
       <path id="DejaVuSerif-6d" d="M 3316 2675 
Q 3481 3041 3739 3227 
Q 3997 3413 4341 3413 
Q 4863 3413 5119 3089 
Q 5375 2766 5375 2113 
L 5375 331 
L 5894 331 
L 5894 0 
L 4300 0 
L 4300 331 
L 4800 331 
L 4800 2047 
Q 4800 2556 4650 2772 
Q 4500 2988 4153 2988 
Q 3769 2988 3567 2697 
Q 3366 2406 3366 1850 
L 3366 331 
L 3866 331 
L 3866 0 
L 2291 0 
L 2291 331 
L 2791 331 
L 2791 2069 
Q 2791 2566 2641 2777 
Q 2491 2988 2144 2988 
Q 1759 2988 1557 2697 
Q 1356 2406 1356 1850 
L 1356 331 
L 1856 331 
L 1856 0 
L 263 0 
L 263 331 
L 781 331 
L 781 2994 
L 231 2994 
L 231 3322 
L 1356 3322 
L 1356 2731 
Q 1516 3063 1762 3238 
Q 2009 3413 2322 3413 
Q 2709 3413 2968 3220 
Q 3228 3028 3316 2675 
z
" transform="scale(0.015625)"/>
       <path id="DejaVuSerif-2f" d="M 1656 4666 
L 2156 4666 
L 500 -594 
L 0 -594 
L 1656 4666 
z
" transform="scale(0.015625)"/>
       <path id="DejaVuSerif-73" d="M 359 184 
L 359 959 
L 691 959 
Q 703 588 923 403 
Q 1144 219 1575 219 
Q 1963 219 2166 364 
Q 2369 509 2369 788 
Q 2369 1006 2220 1140 
Q 2072 1275 1594 1428 
L 1178 1569 
Q 750 1706 558 1912 
Q 366 2119 366 2438 
Q 366 2894 700 3153 
Q 1034 3413 1625 3413 
Q 1888 3413 2178 3344 
Q 2469 3275 2778 3144 
L 2778 2419 
L 2447 2419 
Q 2434 2741 2221 2922 
Q 2009 3103 1644 3103 
Q 1281 3103 1095 2975 
Q 909 2847 909 2591 
Q 909 2381 1050 2254 
Q 1191 2128 1613 1997 
L 2069 1856 
Q 2541 1709 2748 1489 
Q 2956 1269 2956 922 
Q 2956 450 2595 179 
Q 2234 -91 1600 -91 
Q 1278 -91 972 -22 
Q 666 47 359 184 
z
" transform="scale(0.015625)"/>
       <path id="DejaVuSerif-29" d="M 453 -997 
L 453 -691 
Q 934 -359 1145 242 
Q 1356 844 1356 1931 
Q 1356 3022 1145 3623 
Q 934 4225 453 4556 
L 453 4863 
Q 1216 4522 1603 3783 
Q 1991 3044 1991 1931 
Q 1991 822 1603 83 
Q 1216 -656 453 -997 
z
" transform="scale(0.015625)"/>
      </defs>
      <use xlink:href="#DejaVuSerif-56" transform="translate(0 0.015625)"/>
      <use xlink:href="#DejaVuSerif-65" transform="translate(72.216797 0.015625)"/>
      <use xlink:href="#DejaVuSerif-6c" transform="translate(131.396484 0.015625)"/>
      <use xlink:href="#DejaVuSerif-6f" transform="translate(163.378906 0.015625)"/>
      <use xlink:href="#DejaVuSerif-63" transform="translate(223.583984 0.015625)"/>
      <use xlink:href="#DejaVuSerif-69" transform="translate(279.589844 0.015625)"/>
      <use xlink:href="#DejaVuSerif-74" transform="translate(311.572266 0.015625)"/>
      <use xlink:href="#DejaVuSerif-79" transform="translate(351.757812 0.015625)"/>
      <use xlink:href="#DejaVuSerif-20" transform="translate(408.251953 0.015625)"/>
      <use xlink:href="#DejaVuSans-Oblique-76" transform="translate(440.039062 0.015625)"/>
      <use xlink:href="#DejaVuSerif-20" transform="translate(499.21875 0.015625)"/>
      <use xlink:href="#DejaVuSerif-28" transform="translate(531.005859 0.015625)"/>
      <use xlink:href="#DejaVuSerif-6d" transform="translate(570.019531 0.015625)"/>
      <use xlink:href="#DejaVuSerif-2f" transform="translate(664.84375 0.015625)"/>
      <use xlink:href="#DejaVuSerif-73" transform="translate(698.535156 0.015625)"/>
      <use xlink:href="#DejaVuSerif-29" transform="translate(749.853516 0.015625)"/>
     </g>
    </g>
   </g>
   <g id="matplotlib.axis_2">
    <g id="ytick_1">
     <g id="line2d_11">
      <path d="M 37.003125 229.270818 
L 443.99952 229.270818 
" clip-path="url(#p19b547569c)" style="fill: none; stroke-dasharray: 1.85,0.8; stroke-dashoffset: 0; stroke: #b0b0b0; stroke-opacity: 0.7; stroke-width: 0.5"/>
     </g>
     <g id="line2d_12">
      <defs>
       <path id="mce41d7dd07" d="M 0 0 
L -3.5 0 
" style="stroke: #000000; stroke-width: 0.8"/>
      </defs>
      <g>
       <use xlink:href="#mce41d7dd07" x="37.003125" y="229.270818" style="stroke: #000000; stroke-width: 0.8"/>
      </g>
     </g>
     <g id="text_7">
      <!-- 0 -->
      <g transform="translate(23.640625 233.070036) scale(0.1 -0.1)">
       <use xlink:href="#DejaVuSerif-30"/>
      </g>
     </g>
    </g>
    <g id="ytick_2">
     <g id="line2d_13">
      <path d="M 37.003125 196.243784 
L 443.99952 196.243784 
" clip-path="url(#p19b547569c)" style="fill: none; stroke-dasharray: 1.85,0.8; stroke-dashoffset: 0; stroke: #b0b0b0; stroke-opacity: 0.7; stroke-width: 0.5"/>
     </g>
     <g id="line2d_14">
      <g>
       <use xlink:href="#mce41d7dd07" x="37.003125" y="196.243784" style="stroke: #000000; stroke-width: 0.8"/>
      </g>
     </g>
     <g id="text_8">
      <!-- 2 -->
      <g transform="translate(23.640625 200.043003) scale(0.1 -0.1)">
       <defs>
        <path id="DejaVuSerif-32" d="M 819 3553 
L 469 3553 
L 469 4384 
Q 803 4563 1142 4656 
Q 1481 4750 1806 4750 
Q 2534 4750 2956 4397 
Q 3378 4044 3378 3438 
Q 3378 2753 2422 1800 
Q 2347 1728 2309 1691 
L 1131 513 
L 3078 513 
L 3078 1088 
L 3444 1088 
L 3444 0 
L 434 0 
L 434 341 
L 1850 1753 
Q 2319 2222 2519 2614 
Q 2719 3006 2719 3438 
Q 2719 3909 2473 4175 
Q 2228 4441 1797 4441 
Q 1350 4441 1106 4219 
Q 863 3997 819 3553 
z
" transform="scale(0.015625)"/>
       </defs>
       <use xlink:href="#DejaVuSerif-32"/>
      </g>
     </g>
    </g>
    <g id="ytick_3">
     <g id="line2d_15">
      <path d="M 37.003125 163.21675 
L 443.99952 163.21675 
" clip-path="url(#p19b547569c)" style="fill: none; stroke-dasharray: 1.85,0.8; stroke-dashoffset: 0; stroke: #b0b0b0; stroke-opacity: 0.7; stroke-width: 0.5"/>
     </g>
     <g id="line2d_16">
      <g>
       <use xlink:href="#mce41d7dd07" x="37.003125" y="163.21675" style="stroke: #000000; stroke-width: 0.8"/>
      </g>
     </g>
     <g id="text_9">
      <!-- 4 -->
      <g transform="translate(23.640625 167.015969) scale(0.1 -0.1)">
       <defs>
        <path id="DejaVuSerif-34" d="M 2234 1581 
L 2234 4063 
L 641 1581 
L 2234 1581 
z
M 3609 0 
L 1484 0 
L 1484 331 
L 2234 331 
L 2234 1247 
L 197 1247 
L 197 1588 
L 2241 4750 
L 2859 4750 
L 2859 1581 
L 3750 1581 
L 3750 1247 
L 2859 1247 
L 2859 331 
L 3609 331 
L 3609 0 
z
" transform="scale(0.015625)"/>
       </defs>
       <use xlink:href="#DejaVuSerif-34"/>
      </g>
     </g>
    </g>
    <g id="ytick_4">
     <g id="line2d_17">
      <path d="M 37.003125 130.189717 
L 443.99952 130.189717 
" clip-path="url(#p19b547569c)" style="fill: none; stroke-dasharray: 1.85,0.8; stroke-dashoffset: 0; stroke: #b0b0b0; stroke-opacity: 0.7; stroke-width: 0.5"/>
     </g>
     <g id="line2d_18">
      <g>
       <use xlink:href="#mce41d7dd07" x="37.003125" y="130.189717" style="stroke: #000000; stroke-width: 0.8"/>
      </g>
     </g>
     <g id="text_10">
      <!-- 6 -->
      <g transform="translate(23.640625 133.988935) scale(0.1 -0.1)">
       <defs>
        <path id="DejaVuSerif-36" d="M 2094 219 
Q 2534 219 2771 542 
Q 3009 866 3009 1472 
Q 3009 2078 2771 2401 
Q 2534 2725 2094 2725 
Q 1647 2725 1412 2412 
Q 1178 2100 1178 1509 
Q 1178 888 1415 553 
Q 1653 219 2094 219 
z
M 1075 2569 
Q 1288 2803 1556 2918 
Q 1825 3034 2163 3034 
Q 2859 3034 3264 2615 
Q 3669 2197 3669 1472 
Q 3669 763 3233 336 
Q 2797 -91 2069 -91 
Q 1278 -91 853 498 
Q 428 1088 428 2181 
Q 428 3406 931 4078 
Q 1434 4750 2350 4750 
Q 2597 4750 2869 4703 
Q 3141 4656 3425 4563 
L 3425 3794 
L 3072 3794 
Q 3034 4109 2831 4275 
Q 2628 4441 2284 4441 
Q 1678 4441 1381 3981 
Q 1084 3522 1075 2569 
z
" transform="scale(0.015625)"/>
       </defs>
       <use xlink:href="#DejaVuSerif-36"/>
      </g>
     </g>
    </g>
    <g id="ytick_5">
     <g id="line2d_19">
      <path d="M 37.003125 97.162683 
L 443.99952 97.162683 
" clip-path="url(#p19b547569c)" style="fill: none; stroke-dasharray: 1.85,0.8; stroke-dashoffset: 0; stroke: #b0b0b0; stroke-opacity: 0.7; stroke-width: 0.5"/>
     </g>
     <g id="line2d_20">
      <g>
       <use xlink:href="#mce41d7dd07" x="37.003125" y="97.162683" style="stroke: #000000; stroke-width: 0.8"/>
      </g>
     </g>
     <g id="text_11">
      <!-- 8 -->
      <g transform="translate(23.640625 100.961902) scale(0.1 -0.1)">
       <defs>
        <path id="DejaVuSerif-38" d="M 2981 1275 
Q 2981 1775 2732 2051 
Q 2484 2328 2034 2328 
Q 1584 2328 1336 2051 
Q 1088 1775 1088 1275 
Q 1088 772 1336 495 
Q 1584 219 2034 219 
Q 2484 219 2732 495 
Q 2981 772 2981 1275 
z
M 2853 3541 
Q 2853 3966 2637 4203 
Q 2422 4441 2034 4441 
Q 1650 4441 1433 4203 
Q 1216 3966 1216 3541 
Q 1216 3113 1433 2875 
Q 1650 2638 2034 2638 
Q 2422 2638 2637 2875 
Q 2853 3113 2853 3541 
z
M 2516 2484 
Q 3047 2413 3344 2092 
Q 3641 1772 3641 1275 
Q 3641 619 3225 264 
Q 2809 -91 2034 -91 
Q 1263 -91 845 264 
Q 428 619 428 1275 
Q 428 1772 725 2092 
Q 1022 2413 1556 2484 
Q 1084 2569 832 2842 
Q 581 3116 581 3541 
Q 581 4103 968 4426 
Q 1356 4750 2034 4750 
Q 2713 4750 3100 4426 
Q 3488 4103 3488 3541 
Q 3488 3116 3236 2842 
Q 2984 2569 2516 2484 
z
" transform="scale(0.015625)"/>
       </defs>
       <use xlink:href="#DejaVuSerif-38"/>
      </g>
     </g>
    </g>
    <g id="ytick_6">
     <g id="line2d_21">
      <path d="M 37.003125 64.135649 
L 443.99952 64.135649 
" clip-path="url(#p19b547569c)" style="fill: none; stroke-dasharray: 1.85,0.8; stroke-dashoffset: 0; stroke: #b0b0b0; stroke-opacity: 0.7; stroke-width: 0.5"/>
     </g>
     <g id="line2d_22">
      <g>
       <use xlink:href="#mce41d7dd07" x="37.003125" y="64.135649" style="stroke: #000000; stroke-width: 0.8"/>
      </g>
     </g>
     <g id="text_12">
      <!-- 10 -->
      <g transform="translate(17.278125 67.934868) scale(0.1 -0.1)">
       <use xlink:href="#DejaVuSerif-31"/>
       <use xlink:href="#DejaVuSerif-30" x="63.623047"/>
      </g>
     </g>
    </g>
    <g id="ytick_7">
     <g id="line2d_23">
      <path d="M 37.003125 31.108615 
L 443.99952 31.108615 
" clip-path="url(#p19b547569c)" style="fill: none; stroke-dasharray: 1.85,0.8; stroke-dashoffset: 0; stroke: #b0b0b0; stroke-opacity: 0.7; stroke-width: 0.5"/>
     </g>
     <g id="line2d_24">
      <g>
       <use xlink:href="#mce41d7dd07" x="37.003125" y="31.108615" style="stroke: #000000; stroke-width: 0.8"/>
      </g>
     </g>
     <g id="text_13">
      <!-- 12 -->
      <g transform="translate(17.278125 34.907834) scale(0.1 -0.1)">
       <use xlink:href="#DejaVuSerif-31"/>
       <use xlink:href="#DejaVuSerif-32" x="63.623047"/>
      </g>
     </g>
    </g>
    <g id="text_14">
     <!-- Bichromatic force $F_{BCF}$ ($\hbar k \Gamma/2$) -->
     <g transform="translate(11.198438 200.160697) rotate(-90) scale(0.1 -0.1)">
      <defs>
       <path id="DejaVuSerif-42" d="M 1581 331 
L 2516 331 
Q 3078 331 3337 575 
Q 3597 819 3597 1350 
Q 3597 1878 3339 2120 
Q 3081 2363 2516 2363 
L 1581 2363 
L 1581 331 
z
M 1581 2694 
L 2375 2694 
Q 2888 2694 3123 2891 
Q 3359 3088 3359 3513 
Q 3359 3941 3123 4136 
Q 2888 4331 2375 4331 
L 1581 4331 
L 1581 2694 
z
M 353 0 
L 353 331 
L 947 331 
L 947 4331 
L 353 4331 
L 353 4666 
L 2656 4666 
Q 3363 4666 3720 4377 
Q 4078 4088 4078 3513 
Q 4078 3097 3829 2850 
Q 3581 2603 3103 2547 
Q 3697 2472 4005 2167 
Q 4313 1863 4313 1350 
Q 4313 656 3875 328 
Q 3438 0 2509 0 
L 353 0 
z
" transform="scale(0.015625)"/>
       <path id="DejaVuSerif-68" d="M 263 0 
L 263 331 
L 781 331 
L 781 4531 
L 231 4531 
L 231 4863 
L 1356 4863 
L 1356 2731 
Q 1516 3069 1770 3241 
Q 2025 3413 2363 3413 
Q 2913 3413 3172 3097 
Q 3431 2781 3431 2113 
L 3431 331 
L 3944 331 
L 3944 0 
L 2356 0 
L 2356 331 
L 2853 331 
L 2853 1931 
Q 2853 2541 2704 2764 
Q 2556 2988 2175 2988 
Q 1775 2988 1565 2697 
Q 1356 2406 1356 1850 
L 1356 331 
L 1856 331 
L 1856 0 
L 263 0 
z
" transform="scale(0.015625)"/>
       <path id="DejaVuSerif-72" d="M 3059 3328 
L 3059 2497 
L 2728 2497 
Q 2713 2744 2591 2866 
Q 2469 2988 2234 2988 
Q 1809 2988 1582 2694 
Q 1356 2400 1356 1850 
L 1356 331 
L 2022 331 
L 2022 0 
L 263 0 
L 263 331 
L 781 331 
L 781 2994 
L 231 2994 
L 231 3322 
L 1356 3322 
L 1356 2731 
Q 1525 3078 1790 3245 
Q 2056 3413 2438 3413 
Q 2578 3413 2733 3391 
Q 2888 3369 3059 3328 
z
" transform="scale(0.015625)"/>
       <path id="DejaVuSerif-61" d="M 2547 1044 
L 2547 1747 
L 1806 1747 
Q 1378 1747 1168 1562 
Q 959 1378 959 997 
Q 959 650 1171 447 
Q 1384 244 1747 244 
Q 2106 244 2326 466 
Q 2547 688 2547 1044 
z
M 3122 2075 
L 3122 331 
L 3634 331 
L 3634 0 
L 2547 0 
L 2547 359 
Q 2356 128 2106 18 
Q 1856 -91 1522 -91 
Q 969 -91 644 203 
Q 319 497 319 997 
Q 319 1513 691 1797 
Q 1063 2081 1741 2081 
L 2547 2081 
L 2547 2309 
Q 2547 2688 2317 2895 
Q 2088 3103 1672 3103 
Q 1328 3103 1125 2947 
Q 922 2791 872 2484 
L 575 2484 
L 575 3156 
Q 875 3284 1158 3348 
Q 1441 3413 1709 3413 
Q 2400 3413 2761 3070 
Q 3122 2728 3122 2075 
z
" transform="scale(0.015625)"/>
       <path id="DejaVuSerif-66" d="M 2753 4078 
L 2450 4078 
Q 2447 4313 2317 4434 
Q 2188 4556 1941 4556 
Q 1619 4556 1487 4379 
Q 1356 4203 1356 3750 
L 1356 3322 
L 2284 3322 
L 2284 2988 
L 1356 2988 
L 1356 331 
L 2094 331 
L 2094 0 
L 231 0 
L 231 331 
L 781 331 
L 781 2988 
L 231 2988 
L 231 3322 
L 781 3322 
L 781 3738 
Q 781 4294 1070 4578 
Q 1359 4863 1919 4863 
Q 2128 4863 2337 4825 
Q 2547 4788 2753 4709 
L 2753 4078 
z
" transform="scale(0.015625)"/>
       <path id="DejaVuSans-Oblique-46" d="M 1081 4666 
L 3756 4666 
L 3653 4134 
L 1606 4134 
L 1338 2759 
L 3188 2759 
L 3084 2228 
L 1234 2228 
L 800 0 
L 172 0 
L 1081 4666 
z
" transform="scale(0.015625)"/>
       <path id="DejaVuSans-Oblique-42" d="M 1081 4666 
L 2694 4666 
Q 3350 4666 3675 4422 
Q 4000 4178 4000 3688 
Q 4000 3238 3720 2911 
Q 3441 2584 2988 2516 
Q 3375 2428 3569 2181 
Q 3763 1934 3763 1522 
Q 3763 819 3242 409 
Q 2722 0 1819 0 
L 172 0 
L 1081 4666 
z
M 1234 2228 
L 903 519 
L 1919 519 
Q 2491 519 2800 781 
Q 3109 1044 3109 1522 
Q 3109 1891 2904 2059 
Q 2700 2228 2247 2228 
L 1234 2228 
z
M 1606 4147 
L 1331 2741 
L 2272 2741 
Q 2775 2741 3058 2959 
Q 3341 3178 3341 3566 
Q 3341 3869 3150 4008 
Q 2959 4147 2541 4147 
L 1606 4147 
z
" transform="scale(0.015625)"/>
       <path id="DejaVuSans-Oblique-43" d="M 4447 4306 
L 4319 3641 
Q 4019 3944 3683 4091 
Q 3347 4238 2956 4238 
Q 2422 4238 2017 3981 
Q 1613 3725 1319 3200 
Q 1131 2863 1032 2486 
Q 934 2109 934 1728 
Q 934 1091 1264 756 
Q 1594 422 2222 422 
Q 2656 422 3056 561 
Q 3456 700 3834 978 
L 3688 231 
Q 3316 72 2936 -9 
Q 2556 -91 2175 -91 
Q 1278 -91 773 396 
Q 269 884 269 1753 
Q 269 2309 461 2846 
Q 653 3384 1013 3828 
Q 1394 4300 1883 4525 
Q 2372 4750 3022 4750 
Q 3422 4750 3780 4639 
Q 4138 4528 4447 4306 
z
" transform="scale(0.015625)"/>
       <path id="DejaVuSans-Oblique-127" d="M 3634 2113 
L 3225 0 
L 2650 0 
L 3056 2094 
Q 3094 2291 3094 2450 
Q 3094 2688 3006 2838 
Q 2863 3084 2475 3084 
Q 2009 3084 1681 2788 
Q 1356 2491 1256 1978 
L 872 0 
L 294 0 
L 1066 3969 
L 675 3969 
L 775 4481 
L 1166 4481 
L 1238 4863 
L 1816 4863 
L 1744 4481 
L 2844 4481 
L 2744 3969 
L 1644 3969 
L 1447 2956 
Q 1713 3272 2025 3428 
Q 2331 3584 2700 3584 
Q 3300 3584 3538 3213 
Q 3688 2975 3688 2606 
Q 3688 2381 3634 2113 
z
" transform="scale(0.015625)"/>
       <path id="DejaVuSans-Oblique-6b" d="M 1172 4863 
L 1747 4863 
L 1197 2028 
L 3169 3500 
L 3916 3500 
L 1716 1825 
L 3322 0 
L 2625 0 
L 1131 1709 
L 800 0 
L 225 0 
L 1172 4863 
z
" transform="scale(0.015625)"/>
       <path id="DejaVuSans-393" d="M 628 0 
L 628 4666 
L 3531 4666 
L 3531 4134 
L 1259 4134 
L 1259 0 
L 628 0 
z
" transform="scale(0.015625)"/>
       <path id="DejaVuSans-2f" d="M 1625 4666 
L 2156 4666 
L 531 -594 
L 0 -594 
L 1625 4666 
z
" transform="scale(0.015625)"/>
       <path id="DejaVuSans-32" d="M 1228 531 
L 3431 531 
L 3431 0 
L 469 0 
L 469 531 
Q 828 903 1448 1529 
Q 2069 2156 2228 2338 
Q 2531 2678 2651 2914 
Q 2772 3150 2772 3378 
Q 2772 3750 2511 3984 
Q 2250 4219 1831 4219 
Q 1534 4219 1204 4116 
Q 875 4013 500 3803 
L 500 4441 
Q 881 4594 1212 4672 
Q 1544 4750 1819 4750 
Q 2544 4750 2975 4387 
Q 3406 4025 3406 3419 
Q 3406 3131 3298 2873 
Q 3191 2616 2906 2266 
Q 2828 2175 2409 1742 
Q 1991 1309 1228 531 
z
" transform="scale(0.015625)"/>
      </defs>
      <use xlink:href="#DejaVuSerif-42" transform="translate(0 0.015625)"/>
      <use xlink:href="#DejaVuSerif-69" transform="translate(73.486328 0.015625)"/>
      <use xlink:href="#DejaVuSerif-63" transform="translate(105.46875 0.015625)"/>
      <use xlink:href="#DejaVuSerif-68" transform="translate(161.474609 0.015625)"/>
      <use xlink:href="#DejaVuSerif-72" transform="translate(225.878906 0.015625)"/>
      <use xlink:href="#DejaVuSerif-6f" transform="translate(273.681641 0.015625)"/>
      <use xlink:href="#DejaVuSerif-6d" transform="translate(333.886719 0.015625)"/>
      <use xlink:href="#DejaVuSerif-61" transform="translate(428.710938 0.015625)"/>
      <use xlink:href="#DejaVuSerif-74" transform="translate(488.330078 0.015625)"/>
      <use xlink:href="#DejaVuSerif-69" transform="translate(528.515625 0.015625)"/>
      <use xlink:href="#DejaVuSerif-63" transform="translate(560.498047 0.015625)"/>
      <use xlink:href="#DejaVuSerif-20" transform="translate(616.503906 0.015625)"/>
      <use xlink:href="#DejaVuSerif-66" transform="translate(648.291016 0.015625)"/>
      <use xlink:href="#DejaVuSerif-6f" transform="translate(685.302734 0.015625)"/>
      <use xlink:href="#DejaVuSerif-72" transform="translate(745.507812 0.015625)"/>
      <use xlink:href="#DejaVuSerif-63" transform="translate(793.310547 0.015625)"/>
      <use xlink:href="#DejaVuSerif-65" transform="translate(849.316406 0.015625)"/>
      <use xlink:href="#DejaVuSerif-20" transform="translate(908.496094 0.015625)"/>
      <use xlink:href="#DejaVuSans-Oblique-46" transform="translate(940.283203 0.015625)"/>
      <use xlink:href="#DejaVuSans-Oblique-42" transform="translate(997.802734 -16.390625) scale(0.7)"/>
      <use xlink:href="#DejaVuSans-Oblique-43" transform="translate(1045.825195 -16.390625) scale(0.7)"/>
      <use xlink:href="#DejaVuSans-Oblique-46" transform="translate(1094.702148 -16.390625) scale(0.7)"/>
      <use xlink:href="#DejaVuSerif-20" transform="translate(1137.700195 0.015625)"/>
      <use xlink:href="#DejaVuSerif-28" transform="translate(1169.487305 0.015625)"/>
      <use xlink:href="#DejaVuSans-Oblique-127" transform="translate(1208.500977 0.015625)"/>
      <use xlink:href="#DejaVuSans-Oblique-6b" transform="translate(1277.983398 0.015625)"/>
      <use xlink:href="#DejaVuSans-393" transform="translate(1335.893555 0.015625)"/>
      <use xlink:href="#DejaVuSans-2f" transform="translate(1391.606445 0.015625)"/>
      <use xlink:href="#DejaVuSans-32" transform="translate(1421.672852 0.015625)"/>
      <use xlink:href="#DejaVuSerif-29" transform="translate(1485.295898 0.015625)"/>
     </g>
    </g>
   </g>
   <g id="line2d_25">
    <path d="M 40.993286 230.722048 
L 41.822841 230.830289 
L 42.652396 229.396016 
L 43.481951 231.210088 
L 44.311507 224.673565 
L 45.970617 231.522724 
L 46.800172 228.454818 
L 48.459283 231.654492 
L 49.288838 231.714352 
L 50.118393 231.356733 
L 50.947949 226.408641 
L 51.777504 224.531861 
L 52.607059 229.152852 
L 53.436614 226.243445 
L 54.26617 226.832366 
L 55.095725 225.750881 
L 55.92528 221.290798 
L 56.754835 221.978445 
L 57.584391 225.973912 
L 58.413946 236.728031 
L 59.243501 236.373014 
L 60.073056 239.479258 
L 60.902612 230.659922 
L 61.732167 229.193468 
L 62.561722 230.687451 
L 64.220833 233.036397 
L 65.050388 234.76339 
L 65.879943 235.219846 
L 66.709498 227.302402 
L 67.539054 229.715291 
L 68.368609 225.864395 
L 69.198164 222.995485 
L 70.027719 227.066086 
L 70.857275 228.082679 
L 71.68683 225.915565 
L 72.516385 228.123254 
L 73.34594 232.248936 
L 74.175496 231.004222 
L 75.005051 224.515084 
L 75.834606 220.447669 
L 76.664161 226.144749 
L 77.493717 233.771335 
L 78.323272 210.958343 
L 79.152827 223.307601 
L 79.982382 220.838872 
L 80.811938 226.019958 
L 81.641493 223.603203 
L 82.471048 224.022501 
L 83.300603 228.00222 
L 84.130159 223.638442 
L 84.959714 224.426668 
L 85.789269 225.811403 
L 87.44838 221.147372 
L 88.277935 190.410035 
L 89.10749 205.420649 
L 89.937045 231.100537 
L 90.766601 233.123221 
L 91.596156 235.685499 
L 92.425711 235.809528 
L 93.255266 240.490831 
L 94.084822 234.738435 
L 95.743932 237.595039 
L 96.573487 238.283602 
L 97.403042 237.178455 
L 98.232598 233.486288 
L 99.062153 235.445889 
L 99.891708 234.525654 
L 100.721263 231.294383 
L 101.550819 228.869575 
L 102.380374 224.585122 
L 103.209929 232.023312 
L 104.039484 229.656283 
L 104.86904 225.949008 
L 105.698595 231.00068 
L 106.52815 230.870687 
L 107.357705 230.998144 
L 108.187261 227.906261 
L 109.016816 223.420874 
L 109.846371 223.538749 
L 110.675926 216.570197 
L 111.505482 223.990706 
L 112.335037 225.52124 
L 113.164592 224.14345 
L 113.994147 219.758627 
L 114.823703 217.523876 
L 115.653258 221.336042 
L 117.312368 226.541401 
L 118.141924 222.006003 
L 118.971479 178.105598 
L 119.801034 228.45502 
L 120.630589 227.183641 
L 121.460145 223.497661 
L 122.2897 213.587911 
L 123.119255 222.497904 
L 123.94881 225.794072 
L 124.778366 217.297932 
L 125.607921 222.160402 
L 126.437476 200.577254 
L 127.267031 228.017803 
L 128.096587 217.748163 
L 128.926142 219.324115 
L 129.755697 224.684912 
L 130.585252 222.449405 
L 131.414808 230.663452 
L 132.244363 219.785361 
L 133.073918 219.099961 
L 133.903473 220.03496 
L 134.733029 232.510948 
L 135.562584 226.617424 
L 136.392139 227.731836 
L 137.221694 218.138181 
L 138.05125 210.48445 
L 138.880805 160.329236 
L 139.71036 152.642199 
L 140.539915 178.674512 
L 141.369471 190.980448 
L 142.199026 192.654211 
L 143.028581 201.010845 
L 143.858136 195.26999 
L 144.687692 198.353683 
L 145.517247 188.721083 
L 146.346802 196.127624 
L 147.176357 180.282946 
L 148.005913 184.400354 
L 148.835468 193.110979 
L 149.665023 163.829615 
L 150.494578 172.985777 
L 151.324134 176.153259 
L 152.153689 172.890741 
L 152.983244 177.706783 
L 153.812799 160.714856 
L 154.642354 178.054187 
L 155.47191 169.486651 
L 156.301465 170.229749 
L 157.13102 160.778517 
L 157.960575 162.875221 
L 158.790131 165.764516 
L 159.619686 191.557421 
L 160.449241 186.170147 
L 161.278796 186.279388 
L 162.108352 176.259828 
L 162.937907 183.219741 
L 163.767462 165.671342 
L 164.597017 103.014427 
L 165.426573 166.189557 
L 166.256128 164.85512 
L 167.085683 174.394841 
L 167.915238 178.798891 
L 168.744794 185.700213 
L 169.574349 177.480134 
L 170.403904 179.252164 
L 171.233459 188.585121 
L 172.063015 187.621546 
L 172.89257 137.717348 
L 173.722125 179.188271 
L 174.55168 191.605138 
L 175.381236 181.980133 
L 176.210791 192.327382 
L 177.040346 201.042109 
L 177.869901 207.099146 
L 178.699457 202.866075 
L 179.529012 176.204841 
L 180.358567 180.780691 
L 181.188122 191.802906 
L 182.017678 198.333241 
L 182.847233 193.131582 
L 183.676788 193.34037 
L 184.506343 190.506993 
L 185.335899 170.690574 
L 186.165454 189.549462 
L 186.995009 184.073203 
L 187.824564 194.556212 
L 188.65412 183.873644 
L 189.483675 180.02493 
L 190.31323 169.719212 
L 191.142785 174.740571 
L 191.972341 176.320012 
L 192.801896 168.596813 
L 193.631451 162.922593 
L 194.461006 158.261416 
L 195.290562 148.778597 
L 196.120117 153.092451 
L 196.949672 117.863821 
L 197.779227 149.412669 
L 198.608783 145.76009 
L 199.438338 153.543628 
L 200.267893 127.79074 
L 201.097448 133.501923 
L 201.927004 135.688998 
L 202.756559 142.064922 
L 203.586114 155.701776 
L 204.415669 137.066277 
L 205.245225 141.293652 
L 206.07478 136.451393 
L 206.904335 126.939032 
L 207.73389 154.385092 
L 209.393001 147.383077 
L 210.222556 135.414346 
L 211.052111 145.332958 
L 211.881666 145.511747 
L 212.711222 129.126522 
L 213.540777 140.723566 
L 214.370332 147.164014 
L 215.199887 130.037651 
L 216.029443 145.366157 
L 216.858998 152.907167 
L 217.688553 133.722599 
L 218.518108 164.360901 
L 219.347664 142.101227 
L 220.177219 126.282465 
L 221.006774 148.297269 
L 221.836329 156.127661 
L 222.665885 135.153969 
L 223.49544 145.634459 
L 224.324995 135.320714 
L 225.15455 134.51459 
L 225.984106 121.52211 
L 226.813661 135.307595 
L 227.643216 137.965106 
L 228.472771 136.026783 
L 229.302327 133.466667 
L 230.131882 141.831691 
L 230.961437 132.762954 
L 231.790992 140.767859 
L 232.620548 141.112792 
L 233.450103 148.609836 
L 234.279658 151.483997 
L 235.109213 151.099949 
L 235.938769 146.102974 
L 236.768324 131.870706 
L 237.597879 149.222065 
L 238.427434 153.640953 
L 239.25699 154.465311 
L 240.086545 122.452741 
L 240.9161 67.809863 
L 241.745655 165.380289 
L 242.575211 193.837979 
L 243.404766 209.335753 
L 244.234321 213.063098 
L 245.063876 217.391454 
L 245.893432 225.354863 
L 246.722987 218.986449 
L 247.552542 213.859501 
L 248.382097 199.294731 
L 249.211653 187.870844 
L 250.041208 190.40499 
L 250.870763 175.134677 
L 251.700318 180.487253 
L 252.529874 184.190854 
L 253.359429 184.065664 
L 254.188984 179.146659 
L 255.018539 175.592838 
L 255.848095 177.410327 
L 256.67765 176.483462 
L 257.507205 182.837103 
L 258.33676 160.69672 
L 259.166316 171.360854 
L 259.995871 175.842714 
L 260.825426 159.123541 
L 261.654981 169.293619 
L 262.484537 158.063767 
L 263.314092 156.735487 
L 264.143647 152.991415 
L 264.973202 157.395722 
L 265.802758 144.362429 
L 266.632313 156.306105 
L 267.461868 158.284765 
L 268.291423 152.829484 
L 269.120979 154.749394 
L 269.950534 176.960848 
L 270.780089 156.779604 
L 271.609644 171.46901 
L 272.439199 156.779001 
L 273.268755 160.584539 
L 274.09831 144.990798 
L 274.927865 158.764732 
L 275.75742 156.485762 
L 276.586976 149.418361 
L 277.416531 155.819706 
L 278.246086 151.988776 
L 279.075641 160.643648 
L 279.905197 140.097244 
L 280.734752 160.528995 
L 281.564307 155.743098 
L 282.393862 152.988055 
L 283.223418 162.570629 
L 284.052973 119.399497 
L 284.882528 161.470913 
L 285.712083 156.964704 
L 286.541639 178.62442 
L 287.371194 167.431667 
L 288.200749 179.513609 
L 289.030304 193.285905 
L 289.85986 187.384886 
L 290.689415 185.408716 
L 291.51897 171.070232 
L 292.348525 183.671925 
L 293.178081 192.865662 
L 296.496302 175.633785 
L 297.325857 190.44109 
L 298.155412 186.796244 
L 298.984967 188.198391 
L 299.814523 202.172745 
L 300.644078 202.170824 
L 301.473633 143.720991 
L 302.303188 193.783642 
L 303.132744 197.481209 
L 303.962299 180.450515 
L 304.791854 191.38408 
L 305.621409 185.076168 
L 306.450965 194.965211 
L 307.28052 198.933562 
L 308.110075 142.986055 
L 308.93963 199.549239 
L 309.769186 200.141756 
L 310.598741 183.994017 
L 311.428296 182.754206 
L 312.257851 183.920068 
L 313.087407 180.171272 
L 314.746517 191.692964 
L 315.576072 178.647594 
L 316.405628 126.049617 
L 317.235183 175.310922 
L 318.064738 180.824369 
L 318.894293 178.042613 
L 319.723849 171.650829 
L 320.553404 173.920866 
L 321.382959 175.302353 
L 322.212514 183.587553 
L 323.04207 181.804795 
L 323.871625 151.736228 
L 324.70118 184.779665 
L 325.530735 181.043642 
L 326.360291 186.188146 
L 327.189846 175.289108 
L 328.019401 180.751838 
L 328.848956 180.501011 
L 329.678511 189.014373 
L 330.508067 195.060809 
L 331.337622 194.338041 
L 332.167177 189.191607 
L 332.996732 190.963465 
L 333.826288 200.895805 
L 335.485398 198.949134 
L 336.314953 208.227833 
L 337.144509 211.292418 
L 337.974064 205.088303 
L 338.803619 218.829253 
L 339.633174 212.647165 
L 340.46273 209.220896 
L 341.292285 184.063481 
L 342.12184 109.90152 
L 342.951395 164.917388 
L 343.780951 170.27912 
L 344.610506 192.526884 
L 345.440061 195.552048 
L 347.099172 206.605112 
L 347.928727 205.045675 
L 348.758282 213.710463 
L 349.587837 202.545267 
L 350.417393 209.547182 
L 351.246948 213.868308 
L 352.076503 207.752447 
L 352.906058 209.917341 
L 353.735614 210.629465 
L 354.565169 170.046166 
L 355.394724 209.176621 
L 356.224279 211.136449 
L 357.053835 214.731633 
L 357.88339 203.515682 
L 358.712945 194.912222 
L 359.5425 209.485597 
L 361.201611 211.399657 
L 362.031166 181.049274 
L 362.860721 213.466146 
L 363.690277 214.157836 
L 364.519832 213.590278 
L 365.349387 211.238166 
L 366.178942 207.640526 
L 367.008498 207.563859 
L 367.838053 201.255761 
L 368.667608 211.563266 
L 369.497163 213.363739 
L 370.326719 212.06682 
L 371.156274 200.734526 
L 371.985829 212.134579 
L 372.815384 215.056834 
L 373.64494 212.7026 
L 374.474495 211.505301 
L 375.30405 208.103037 
L 376.133605 215.872325 
L 377.792716 212.040933 
L 378.622271 199.376338 
L 379.451826 217.345859 
L 380.281382 215.126063 
L 381.110937 210.231886 
L 381.940492 207.797045 
L 382.770047 214.045408 
L 383.599603 207.07965 
L 384.429158 209.938393 
L 385.258713 209.436712 
L 386.088268 207.756145 
L 386.917823 210.397212 
L 387.747379 206.169889 
L 388.576934 211.144099 
L 389.406489 209.289245 
L 390.236044 209.915534 
L 391.0656 207.05964 
L 391.895155 208.828204 
L 392.72471 149.86328 
L 393.554265 213.129644 
L 394.383821 220.661571 
L 395.213376 223.646419 
L 396.042931 225.517689 
L 396.872486 225.065551 
L 397.702042 219.577925 
L 398.531597 226.477889 
L 399.361152 225.940995 
L 400.190707 220.109084 
L 401.020263 229.990629 
L 401.849818 225.433448 
L 402.679373 227.501706 
L 403.508928 217.795033 
L 404.338484 228.32054 
L 405.168039 226.289263 
L 405.997594 226.570489 
L 406.827149 220.344157 
L 407.656705 218.772688 
L 408.48626 227.47013 
L 409.315815 222.957515 
L 410.974926 229.674116 
L 411.804481 235.229356 
L 412.634036 234.385198 
L 413.463591 226.157323 
L 414.293147 221.411304 
L 415.122702 221.893945 
L 415.952257 223.049622 
L 416.781812 223.04223 
L 417.611368 226.129069 
L 418.440923 226.687347 
L 419.270478 228.472963 
L 420.100033 228.523232 
L 420.929589 217.30463 
L 421.759144 221.148579 
L 422.588699 222.813265 
L 423.418254 230.985288 
L 424.24781 236.672042 
L 425.077365 236.67286 
L 425.90692 233.931672 
L 426.736475 231.796248 
L 427.566031 233.366155 
L 428.395586 229.344159 
L 429.225141 233.696626 
L 430.054696 232.884048 
L 430.884252 228.490647 
L 431.713807 228.539373 
L 432.543362 228.336426 
L 433.372917 228.016825 
L 434.202473 230.439896 
L 435.032028 227.161978 
L 435.861583 230.400087 
L 436.691138 234.625942 
L 437.520694 228.47201 
L 438.350249 229.48446 
L 439.179804 227.569037 
L 440.009359 228.034693 
L 440.009359 228.034693 
" clip-path="url(#p19b547569c)" style="fill: none; stroke: #1f77b4; stroke-width: 0.7; stroke-linecap: square"/>
   </g>
   <g id="line2d_26">
    <path d="M 40.993286 220.674688 
L 41.822841 225.826599 
L 42.652396 219.792224 
L 43.481951 227.239132 
L 44.311507 236.244526 
L 45.141062 199.842767 
L 45.970617 216.078851 
L 46.800172 228.249274 
L 47.629728 231.454092 
L 48.459283 233.466107 
L 49.288838 233.552862 
L 50.118393 212.626971 
L 50.947949 207.547918 
L 51.777504 218.740732 
L 52.607059 226.094888 
L 53.436614 230.814035 
L 54.26617 211.806788 
L 55.095725 225.037515 
L 55.92528 226.646168 
L 56.754835 229.595597 
L 57.584391 228.238126 
L 58.413946 229.245942 
L 59.243501 223.072201 
L 60.073056 215.252425 
L 60.902612 169.077024 
L 61.732167 213.511436 
L 62.561722 219.813712 
L 63.391277 224.987466 
L 64.220833 222.965504 
L 65.050388 229.021703 
L 65.879943 216.348907 
L 66.709498 220.40802 
L 67.539054 222.826322 
L 68.368609 219.558413 
L 69.198164 226.135607 
L 70.027719 224.692769 
L 70.857275 221.328673 
L 71.68683 226.718049 
L 72.516385 222.820399 
L 73.34594 177.980696 
L 74.175496 218.702643 
L 75.005051 223.352506 
L 75.834606 225.579498 
L 76.664161 222.850477 
L 77.493717 226.661521 
L 78.323272 227.795975 
L 79.152827 201.751466 
L 79.982382 205.006338 
L 80.811938 217.587355 
L 81.641493 221.950072 
L 82.471048 223.559652 
L 83.300603 186.811086 
L 84.130159 218.845035 
L 84.959714 217.474674 
L 85.789269 217.435641 
L 86.618824 212.878812 
L 87.44838 222.737474 
L 88.277935 199.311571 
L 89.10749 226.276036 
L 89.937045 222.162645 
L 90.766601 227.920962 
L 91.596156 220.844706 
L 92.425711 219.714828 
L 93.255266 210.38655 
L 94.084822 219.793853 
L 94.914377 222.271719 
L 95.743932 218.407919 
L 96.573487 203.469994 
L 97.403042 203.893824 
L 98.232598 194.187598 
L 99.062153 175.804554 
L 99.891708 123.895047 
L 100.721263 92.223134 
L 101.550819 146.678514 
L 102.380374 182.443478 
L 103.209929 195.321894 
L 104.039484 199.988582 
L 104.86904 216.932654 
L 105.698595 218.151995 
L 106.52815 205.14428 
L 107.357705 208.138339 
L 108.187261 204.418987 
L 109.016816 202.036154 
L 109.846371 177.688001 
L 110.675926 196.346582 
L 111.505482 202.448442 
L 112.335037 193.278799 
L 113.164592 148.379464 
L 113.994147 200.118641 
L 114.823703 145.22293 
L 115.653258 194.954265 
L 116.482813 189.473589 
L 117.312368 150.723669 
L 118.141924 201.94834 
L 118.971479 167.552887 
L 119.801034 191.855184 
L 120.630589 141.266033 
L 121.460145 129.718143 
L 122.2897 158.111041 
L 123.119255 150.566229 
L 123.94881 139.994609 
L 124.778366 136.702893 
L 125.607921 184.465902 
L 126.437476 138.34439 
L 127.267031 169.621936 
L 128.096587 160.858418 
L 128.926142 102.153972 
L 129.755697 143.256002 
L 130.585252 131.21002 
L 131.414808 163.194188 
L 132.244363 119.175314 
L 133.073918 159.429892 
L 133.903473 176.956932 
L 134.733029 131.832175 
L 135.562584 99.480601 
L 136.392139 162.631353 
L 137.221694 174.906985 
L 138.05125 178.720303 
L 138.880805 168.220878 
L 139.71036 152.946915 
L 140.539915 179.294804 
L 141.369471 167.211269 
L 142.199026 147.509332 
L 143.028581 173.12545 
L 143.858136 127.784392 
L 144.687692 145.114898 
L 145.517247 150.228923 
L 146.346802 168.997869 
L 147.176357 183.790644 
L 148.005913 155.690829 
L 148.835468 186.870366 
L 149.665023 168.773934 
L 150.494578 189.106261 
L 151.324134 168.97633 
L 152.153689 144.855207 
L 152.983244 142.278065 
L 153.812799 173.826252 
L 154.642354 145.519502 
L 155.47191 148.639023 
L 156.301465 142.090504 
L 157.13102 177.924196 
L 157.960575 163.484363 
L 158.790131 135.204161 
L 159.619686 140.661866 
L 160.449241 175.078071 
L 161.278796 131.752713 
L 162.108352 116.436812 
L 162.937907 166.862548 
L 163.767462 136.817739 
L 164.597017 133.087315 
L 165.426573 159.830371 
L 166.256128 150.026458 
L 167.085683 129.879137 
L 167.915238 133.473988 
L 168.744794 136.171277 
L 169.574349 136.969853 
L 170.403904 94.782064 
L 171.233459 128.55744 
L 172.063015 119.786244 
L 172.89257 119.794388 
L 173.722125 114.400109 
L 174.55168 85.325737 
L 175.381236 115.635524 
L 176.210791 81.594627 
L 177.040346 111.986349 
L 177.869901 73.897555 
L 178.699457 126.238913 
L 179.529012 66.74249 
L 180.358567 54.79782 
L 181.188122 71.043267 
L 182.017678 58.051382 
L 182.847233 53.244305 
L 183.676788 35.386015 
L 184.506343 48.122135 
L 185.335899 44.583415 
L 186.165454 25.560499 
L 186.995009 32.531418 
L 187.824564 31.633694 
L 188.65412 47.377904 
L 189.483675 32.995535 
L 190.31323 63.774128 
L 191.142785 46.130232 
L 191.972341 63.466267 
L 192.801896 52.168636 
L 193.631451 73.002681 
L 194.461006 51.881433 
L 195.290562 54.546158 
L 196.120117 71.189871 
L 196.949672 68.138882 
L 197.779227 45.445763 
L 198.608783 150.215815 
L 199.438338 74.015579 
L 200.267893 28.209224 
L 201.097448 47.804984 
L 201.927004 59.174929 
L 202.756559 54.653295 
L 203.586114 67.292066 
L 204.415669 34.703224 
L 205.245225 39.961276 
L 206.07478 57.768495 
L 206.904335 33.904829 
L 207.73389 51.908363 
L 208.563446 55.975802 
L 209.393001 50.082856 
L 210.222556 65.092341 
L 211.052111 32.539131 
L 211.881666 67.132504 
L 212.711222 20.153946 
L 213.540777 45.990496 
L 214.370332 36.243781 
L 215.199887 51.273399 
L 216.029443 45.831172 
L 216.858998 18.827834 
L 217.688553 50.41322 
L 218.518108 48.060094 
L 219.347664 51.948832 
L 220.177219 46.624084 
L 221.006774 73.536041 
L 221.836329 35.12565 
L 222.665885 52.844781 
L 223.49544 54.165116 
L 224.324995 22.099945 
L 225.984106 37.30541 
L 226.813661 36.443268 
L 227.643216 27.760632 
L 228.472771 37.525508 
L 229.302327 20.583958 
L 230.131882 21.732312 
L 230.961437 36.161884 
L 231.790992 36.308289 
L 232.620548 37.342838 
L 233.450103 47.668128 
L 234.279658 51.218748 
L 235.109213 67.248492 
L 235.938769 59.98581 
L 236.768324 58.63827 
L 237.597879 31.727837 
L 238.427434 40.962624 
L 239.25699 21.442534 
L 240.086545 73.544757 
L 240.9161 78.157253 
L 241.745655 41.835039 
L 242.575211 26.851919 
L 243.404766 32.17674 
L 244.234321 34.508716 
L 245.063876 44.809042 
L 245.893432 39.415221 
L 246.722987 45.633404 
L 247.552542 29.449446 
L 248.382097 37.0576 
L 249.211653 7.330564 
L 250.041208 17.353839 
L 250.870763 37.054831 
L 251.700318 47.462784 
L 252.529874 31.426342 
L 253.359429 44.176469 
L 254.188984 32.363491 
L 255.018539 27.071845 
L 255.848095 54.180868 
L 256.67765 56.321072 
L 257.507205 21.773559 
L 258.33676 38.045393 
L 259.166316 26.790333 
L 259.995871 43.866244 
L 260.825426 39.396479 
L 261.654981 38.330335 
L 262.484537 27.284541 
L 263.314092 34.38699 
L 264.143647 43.160903 
L 264.973202 8.075779 
L 265.802758 48.021299 
L 266.632313 47.301614 
L 267.461868 44.678723 
L 268.291423 27.250895 
L 269.120979 30.236098 
L 269.950534 38.569949 
L 270.780089 31.78891 
L 271.609644 43.937488 
L 272.439199 35.892763 
L 273.268755 40.636424 
L 274.09831 53.077741 
L 274.927865 40.609083 
L 275.75742 31.559226 
L 276.586976 49.960555 
L 277.416531 62.198034 
L 278.246086 24.895772 
L 279.075641 43.337466 
L 279.905197 74.532497 
L 280.734752 55.559701 
L 281.564307 60.448028 
L 282.393862 113.951715 
L 283.223418 48.586404 
L 284.052973 37.229089 
L 284.882528 40.76225 
L 285.712083 72.269164 
L 286.541639 65.761304 
L 287.371194 30.654023 
L 288.200749 61.521076 
L 289.030304 62.076535 
L 289.85986 39.531431 
L 290.689415 44.963117 
L 291.51897 40.594599 
L 292.348525 30.908614 
L 293.178081 50.647665 
L 294.007636 34.371703 
L 294.837191 52.019568 
L 295.666746 39.464728 
L 296.496302 18.100249 
L 297.325857 48.821192 
L 298.155412 35.141589 
L 298.984967 39.852143 
L 299.814523 38.648882 
L 300.644078 43.581301 
L 301.473633 54.731024 
L 302.303188 27.246996 
L 303.962299 105.66175 
L 304.791854 41.561886 
L 305.621409 49.838246 
L 306.450965 76.280501 
L 307.28052 75.065317 
L 308.110075 83.416646 
L 308.93963 70.577222 
L 309.769186 52.027834 
L 310.598741 105.20339 
L 311.428296 107.376388 
L 312.257851 96.080993 
L 313.087407 99.282304 
L 313.916962 108.533486 
L 314.746517 101.599487 
L 315.576072 112.885516 
L 317.235183 140.829524 
L 318.064738 139.849611 
L 318.894293 150.648095 
L 319.723849 146.504451 
L 320.553404 126.825981 
L 321.382959 165.004148 
L 322.212514 160.526961 
L 323.04207 157.830606 
L 323.871625 123.907013 
L 324.70118 154.814492 
L 325.530735 178.377601 
L 326.360291 165.517373 
L 327.189846 156.019408 
L 328.019401 190.531978 
L 328.848956 189.558113 
L 329.678511 148.873292 
L 330.508067 121.105493 
L 331.337622 159.804878 
L 332.996732 174.598719 
L 333.826288 148.437866 
L 334.655843 166.972541 
L 335.485398 198.364353 
L 336.314953 194.484091 
L 337.144509 142.002427 
L 337.974064 158.27593 
L 338.803619 178.698246 
L 339.633174 185.885569 
L 340.46273 156.09134 
L 341.292285 201.334093 
L 342.12184 188.45648 
L 342.951395 152.600218 
L 343.780951 171.181055 
L 344.610506 177.637299 
L 345.440061 125.208319 
L 346.269616 187.610654 
L 347.099172 172.081544 
L 347.928727 176.005077 
L 348.758282 202.415426 
L 349.587837 183.742807 
L 350.417393 197.44046 
L 351.246948 186.430599 
L 352.076503 202.323607 
L 352.906058 187.68557 
L 353.735614 187.55066 
L 354.565169 168.464262 
L 355.394724 178.30131 
L 356.224279 202.474737 
L 357.053835 215.041338 
L 357.88339 208.071714 
L 358.712945 211.15673 
L 359.5425 208.029555 
L 360.372056 151.253354 
L 361.201611 200.093169 
L 362.031166 206.771868 
L 362.860721 207.109013 
L 363.690277 168.239548 
L 364.519832 204.43105 
L 365.349387 204.737807 
L 366.178942 186.622762 
L 367.008498 208.309397 
L 367.838053 209.004169 
L 368.667608 211.288814 
L 369.497163 214.604066 
L 370.326719 211.18062 
L 371.156274 221.077232 
L 371.985829 222.906591 
L 372.815384 206.51027 
L 373.64494 209.519956 
L 374.474495 213.421197 
L 375.30405 204.505763 
L 376.133605 200.159997 
L 376.963161 204.72402 
L 377.792716 192.250395 
L 378.622271 163.409522 
L 379.451826 110.332468 
L 380.281382 107.110077 
L 381.110937 166.098615 
L 381.940492 197.940284 
L 382.770047 209.383158 
L 384.429158 224.275054 
L 385.258713 219.352975 
L 386.088268 216.390321 
L 386.917823 219.068068 
L 387.747379 225.094998 
L 389.406489 225.741706 
L 390.236044 216.484374 
L 391.0656 219.77444 
L 391.895155 215.517137 
L 392.72471 183.830041 
L 393.554265 222.001616 
L 394.383821 224.135454 
L 395.213376 219.374184 
L 396.042931 218.813254 
L 396.872486 224.254859 
L 397.702042 197.710695 
L 398.531597 219.31947 
L 399.361152 219.532556 
L 400.190707 224.912973 
L 401.020263 228.439006 
L 401.849818 177.20051 
L 402.679373 218.24615 
L 403.508928 216.318524 
L 404.338484 198.1549 
L 405.168039 224.469901 
L 405.997594 224.683394 
L 406.827149 225.64808 
L 407.656705 211.588216 
L 408.48626 171.34109 
L 409.315815 217.166337 
L 410.14537 228.041472 
L 410.974926 228.39869 
L 411.804481 220.758517 
L 413.463591 216.550654 
L 414.293147 224.190801 
L 415.122702 210.424143 
L 415.952257 216.251429 
L 416.781812 225.31941 
L 417.611368 223.887341 
L 418.440923 223.066205 
L 420.100033 169.380786 
L 420.929589 213.50602 
L 421.759144 231.378656 
L 422.588699 227.265136 
L 423.418254 221.741452 
L 424.24781 222.410421 
L 425.077365 218.046026 
L 425.90692 220.391776 
L 426.736475 201.549319 
L 427.566031 215.472843 
L 428.395586 220.082427 
L 429.225141 229.524544 
L 430.054696 232.346967 
L 430.884252 179.291544 
L 431.713807 205.534667 
L 432.543362 208.203397 
L 433.372917 213.902987 
L 434.202473 218.661746 
L 435.032028 232.315668 
L 436.691138 207.935923 
L 437.520694 212.885899 
L 438.350249 234.370398 
L 439.179804 208.403839 
L 440.009359 225.061572 
L 440.009359 225.061572 
" clip-path="url(#p19b547569c)" style="fill: none; stroke: #ff7f0e; stroke-width: 0.7; stroke-linecap: square"/>
   </g>
   <g id="patch_3">
    <path d="M 37.003125 244.221395 
L 37.003125 3.6 
" style="fill: none; stroke: #000000; stroke-width: 0.8; stroke-linejoin: miter; stroke-linecap: square"/>
   </g>
   <g id="patch_4">
    <path d="M 443.99952 244.221395 
L 443.99952 3.6 
" style="fill: none; stroke: #000000; stroke-width: 0.8; stroke-linejoin: miter; stroke-linecap: square"/>
   </g>
   <g id="patch_5">
    <path d="M 37.003125 244.221395 
L 443.99952 244.221395 
" style="fill: none; stroke: #000000; stroke-width: 0.8; stroke-linejoin: miter; stroke-linecap: square"/>
   </g>
   <g id="patch_6">
    <path d="M 37.003125 3.6 
L 443.99952 3.6 
" style="fill: none; stroke: #000000; stroke-width: 0.8; stroke-linejoin: miter; stroke-linecap: square"/>
   </g>
   <g id="legend_1">
    <g id="patch_7">
     <path d="M 365.66202 40.95625 
L 436.99952 40.95625 
Q 438.99952 40.95625 438.99952 38.95625 
L 438.99952 10.6 
Q 438.99952 8.6 436.99952 8.6 
L 365.66202 8.6 
Q 363.66202 8.6 363.66202 10.6 
L 363.66202 38.95625 
Q 363.66202 40.95625 365.66202 40.95625 
z
" style="fill: #ffffff; opacity: 0.8; stroke: #cccccc; stroke-linejoin: miter"/>
    </g>
    <g id="line2d_27">
     <path d="M 367.66202 16.698437 
L 377.66202 16.698437 
L 387.66202 16.698437 
" style="fill: none; stroke: #1f77b4; stroke-width: 0.7; stroke-linecap: square"/>
    </g>
    <g id="text_15">
     <!-- 138BaF -->
     <g transform="translate(395.66202 20.198437) scale(0.1 -0.1)">
      <defs>
       <path id="DejaVuSerif-33" d="M 622 4469 
Q 988 4606 1323 4678 
Q 1659 4750 1953 4750 
Q 2638 4750 3022 4454 
Q 3406 4159 3406 3634 
Q 3406 3213 3140 2930 
Q 2875 2647 2388 2547 
Q 2963 2466 3280 2130 
Q 3597 1794 3597 1259 
Q 3597 606 3158 257 
Q 2719 -91 1894 -91 
Q 1528 -91 1179 -12 
Q 831 66 488 225 
L 488 1131 
L 838 1131 
Q 869 681 1141 450 
Q 1413 219 1906 219 
Q 2384 219 2661 495 
Q 2938 772 2938 1253 
Q 2938 1803 2653 2086 
Q 2369 2369 1819 2369 
L 1522 2369 
L 1522 2688 
L 1678 2688 
Q 2225 2688 2498 2914 
Q 2772 3141 2772 3597 
Q 2772 4006 2547 4223 
Q 2322 4441 1900 4441 
Q 1478 4441 1245 4241 
Q 1013 4041 972 3647 
L 622 3647 
L 622 4469 
z
" transform="scale(0.015625)"/>
       <path id="DejaVuSerif-46" d="M 353 0 
L 353 331 
L 947 331 
L 947 4331 
L 353 4331 
L 353 4666 
L 4172 4666 
L 4172 3628 
L 3788 3628 
L 3788 4281 
L 1581 4281 
L 1581 2719 
L 3175 2719 
L 3175 3303 
L 3559 3303 
L 3559 1753 
L 3175 1753 
L 3175 2338 
L 1581 2338 
L 1581 331 
L 2328 331 
L 2328 0 
L 353 0 
z
" transform="scale(0.015625)"/>
      </defs>
      <use xlink:href="#DejaVuSerif-31"/>
      <use xlink:href="#DejaVuSerif-33" x="63.623047"/>
      <use xlink:href="#DejaVuSerif-38" x="127.246094"/>
      <use xlink:href="#DejaVuSerif-42" x="190.869141"/>
      <use xlink:href="#DejaVuSerif-61" x="264.355469"/>
      <use xlink:href="#DejaVuSerif-46" x="323.974609"/>
     </g>
    </g>
    <g id="line2d_28">
     <path d="M 367.66202 31.376562 
L 377.66202 31.376562 
L 387.66202 31.376562 
" style="fill: none; stroke: #ff7f0e; stroke-width: 0.7; stroke-linecap: square"/>
    </g>
    <g id="text_16">
     <!-- CaF -->
     <g transform="translate(395.66202 34.876562) scale(0.1 -0.1)">
      <defs>
       <path id="DejaVuSerif-43" d="M 4513 1234 
Q 4306 581 3820 245 
Q 3334 -91 2591 -91 
Q 2134 -91 1743 65 
Q 1353 222 1050 525 
Q 700 875 529 1320 
Q 359 1766 359 2328 
Q 359 3416 987 4083 
Q 1616 4750 2644 4750 
Q 3025 4750 3456 4650 
Q 3888 4550 4384 4347 
L 4384 3272 
L 4031 3272 
Q 3916 3859 3567 4137 
Q 3219 4416 2591 4416 
Q 1844 4416 1459 3886 
Q 1075 3356 1075 2328 
Q 1075 1303 1459 773 
Q 1844 244 2591 244 
Q 3113 244 3450 492 
Q 3788 741 3938 1234 
L 4513 1234 
z
" transform="scale(0.015625)"/>
      </defs>
      <use xlink:href="#DejaVuSerif-43"/>
      <use xlink:href="#DejaVuSerif-61" x="76.513672"/>
      <use xlink:href="#DejaVuSerif-46" x="136.132812"/>
     </g>
    </g>
   </g>
  </g>
 </g>
 <defs>
  <clipPath id="p19b547569c">
   <rect x="37.003125" y="3.6" width="406.996395" height="240.621395"/>
  </clipPath>
 </defs>
</svg>
