<?xml version="1.0" encoding="utf-8" standalone="no"?>
<!DOCTYPE svg PUBLIC "-//W3C//DTD SVG 1.1//EN"
  "http://www.w3.org/Graphics/SVG/1.1/DTD/svg11.dtd">
<svg xmlns:xlink="http://www.w3.org/1999/xlink" width="447.59952pt" height="278.39952pt" viewBox="0 0 447.59952 278.39952" xmlns="http://www.w3.org/2000/svg" version="1.1">
 <metadata>
  <rdf:RDF xmlns:dc="http://purl.org/dc/elements/1.1/" xmlns:cc="http://creativecommons.org/ns#" xmlns:rdf="http://www.w3.org/1999/02/22-rdf-syntax-ns#">
   <cc:Work>
    <dc:type rdf:resource="http://purl.org/dc/dcmitype/StillImage"/>
    <dc:date>2025-09-16T11:37:14.445462</dc:date>
    <dc:format>image/svg+xml</dc:format>
    <dc:creator>
     <cc:Agent>
      <dc:title>Matplotlib v3.9.4, https://matplotlib.org/</dc:title>
     </cc:Agent>
    </dc:creator>
   </cc:Work>
  </rdf:RDF>
 </metadata>
 <defs>
  <style type="text/css">*{stroke-linejoin: round; stroke-linecap: butt}</style>
 </defs>
 <g id="figure_1">
  <g id="patch_1">
   <path d="M 0 278.39952 
L 447.59952 278.39952 
L 447.59952 0 
L 0 0 
z
" style="fill: #ffffff"/>
  </g>
  <g id="axes_1">
   <g id="patch_2">
    <path d="M 40.403125 244.301082 
L 371.09952 244.301082 
L 371.09952 3.6 
L 40.403125 3.6 
z
" style="fill: #ffffff"/>
   </g>
   <g id="matplotlib.axis_1">
    <g id="xtick_1">
     <g id="line2d_1">
      <path d="M 43.645247 244.301082 
L 43.645247 3.6 
" clip-path="url(#p108396f5ae)" style="fill: none; stroke-dasharray: 1.85,0.8; stroke-dashoffset: 0; stroke: #b0b0b0; stroke-opacity: 0.7; stroke-width: 0.5"/>
     </g>
     <g id="line2d_2">
      <defs>
       <path id="mb4212f89cb" d="M 0 0 
L 0 3.5 
" style="stroke: #000000; stroke-width: 0.8"/>
      </defs>
      <g>
       <use xlink:href="#mb4212f89cb" x="43.645247" y="244.301082" style="stroke: #000000; stroke-width: 0.8"/>
      </g>
     </g>
     <g id="text_1">
      <!-- 0 -->
      <g transform="translate(40.463997 258.89952) scale(0.1 -0.1)">
       <defs>
        <path id="DejaVuSerif-30" d="M 2034 219 
Q 2513 219 2750 744 
Q 2988 1269 2988 2328 
Q 2988 3391 2750 3916 
Q 2513 4441 2034 4441 
Q 1556 4441 1318 3916 
Q 1081 3391 1081 2328 
Q 1081 1269 1318 744 
Q 1556 219 2034 219 
z
M 2034 -91 
Q 1275 -91 848 546 
Q 422 1184 422 2328 
Q 422 3475 848 4112 
Q 1275 4750 2034 4750 
Q 2797 4750 3222 4112 
Q 3647 3475 3647 2328 
Q 3647 1184 3222 546 
Q 2797 -91 2034 -91 
z
" transform="scale(0.015625)"/>
       </defs>
       <use xlink:href="#DejaVuSerif-30"/>
      </g>
     </g>
    </g>
    <g id="xtick_2">
     <g id="line2d_3">
      <path d="M 108.487677 244.301082 
L 108.487677 3.6 
" clip-path="url(#p108396f5ae)" style="fill: none; stroke-dasharray: 1.85,0.8; stroke-dashoffset: 0; stroke: #b0b0b0; stroke-opacity: 0.7; stroke-width: 0.5"/>
     </g>
     <g id="line2d_4">
      <g>
       <use xlink:href="#mb4212f89cb" x="108.487677" y="244.301082" style="stroke: #000000; stroke-width: 0.8"/>
      </g>
     </g>
     <g id="text_2">
      <!-- 2 -->
      <g transform="translate(105.306427 258.89952) scale(0.1 -0.1)">
       <defs>
        <path id="DejaVuSerif-32" d="M 819 3553 
L 469 3553 
L 469 4384 
Q 803 4563 1142 4656 
Q 1481 4750 1806 4750 
Q 2534 4750 2956 4397 
Q 3378 4044 3378 3438 
Q 3378 2753 2422 1800 
Q 2347 1728 2309 1691 
L 1131 513 
L 3078 513 
L 3078 1088 
L 3444 1088 
L 3444 0 
L 434 0 
L 434 341 
L 1850 1753 
Q 2319 2222 2519 2614 
Q 2719 3006 2719 3438 
Q 2719 3909 2473 4175 
Q 2228 4441 1797 4441 
Q 1350 4441 1106 4219 
Q 863 3997 819 3553 
z
" transform="scale(0.015625)"/>
       </defs>
       <use xlink:href="#DejaVuSerif-32"/>
      </g>
     </g>
    </g>
    <g id="xtick_3">
     <g id="line2d_5">
      <path d="M 173.330107 244.301082 
L 173.330107 3.6 
" clip-path="url(#p108396f5ae)" style="fill: none; stroke-dasharray: 1.85,0.8; stroke-dashoffset: 0; stroke: #b0b0b0; stroke-opacity: 0.7; stroke-width: 0.5"/>
     </g>
     <g id="line2d_6">
      <g>
       <use xlink:href="#mb4212f89cb" x="173.330107" y="244.301082" style="stroke: #000000; stroke-width: 0.8"/>
      </g>
     </g>
     <g id="text_3">
      <!-- 4 -->
      <g transform="translate(170.148857 258.89952) scale(0.1 -0.1)">
       <defs>
        <path id="DejaVuSerif-34" d="M 2234 1581 
L 2234 4063 
L 641 1581 
L 2234 1581 
z
M 3609 0 
L 1484 0 
L 1484 331 
L 2234 331 
L 2234 1247 
L 197 1247 
L 197 1588 
L 2241 4750 
L 2859 4750 
L 2859 1581 
L 3750 1581 
L 3750 1247 
L 2859 1247 
L 2859 331 
L 3609 331 
L 3609 0 
z
" transform="scale(0.015625)"/>
       </defs>
       <use xlink:href="#DejaVuSerif-34"/>
      </g>
     </g>
    </g>
    <g id="xtick_4">
     <g id="line2d_7">
      <path d="M 238.172538 244.301082 
L 238.172538 3.6 
" clip-path="url(#p108396f5ae)" style="fill: none; stroke-dasharray: 1.85,0.8; stroke-dashoffset: 0; stroke: #b0b0b0; stroke-opacity: 0.7; stroke-width: 0.5"/>
     </g>
     <g id="line2d_8">
      <g>
       <use xlink:href="#mb4212f89cb" x="238.172538" y="244.301082" style="stroke: #000000; stroke-width: 0.8"/>
      </g>
     </g>
     <g id="text_4">
      <!-- 6 -->
      <g transform="translate(234.991288 258.89952) scale(0.1 -0.1)">
       <defs>
        <path id="DejaVuSerif-36" d="M 2094 219 
Q 2534 219 2771 542 
Q 3009 866 3009 1472 
Q 3009 2078 2771 2401 
Q 2534 2725 2094 2725 
Q 1647 2725 1412 2412 
Q 1178 2100 1178 1509 
Q 1178 888 1415 553 
Q 1653 219 2094 219 
z
M 1075 2569 
Q 1288 2803 1556 2918 
Q 1825 3034 2163 3034 
Q 2859 3034 3264 2615 
Q 3669 2197 3669 1472 
Q 3669 763 3233 336 
Q 2797 -91 2069 -91 
Q 1278 -91 853 498 
Q 428 1088 428 2181 
Q 428 3406 931 4078 
Q 1434 4750 2350 4750 
Q 2597 4750 2869 4703 
Q 3141 4656 3425 4563 
L 3425 3794 
L 3072 3794 
Q 3034 4109 2831 4275 
Q 2628 4441 2284 4441 
Q 1678 4441 1381 3981 
Q 1084 3522 1075 2569 
z
" transform="scale(0.015625)"/>
       </defs>
       <use xlink:href="#DejaVuSerif-36"/>
      </g>
     </g>
    </g>
    <g id="xtick_5">
     <g id="line2d_9">
      <path d="M 303.014968 244.301082 
L 303.014968 3.6 
" clip-path="url(#p108396f5ae)" style="fill: none; stroke-dasharray: 1.85,0.8; stroke-dashoffset: 0; stroke: #b0b0b0; stroke-opacity: 0.7; stroke-width: 0.5"/>
     </g>
     <g id="line2d_10">
      <g>
       <use xlink:href="#mb4212f89cb" x="303.014968" y="244.301082" style="stroke: #000000; stroke-width: 0.8"/>
      </g>
     </g>
     <g id="text_5">
      <!-- 8 -->
      <g transform="translate(299.833718 258.89952) scale(0.1 -0.1)">
       <defs>
        <path id="DejaVuSerif-38" d="M 2981 1275 
Q 2981 1775 2732 2051 
Q 2484 2328 2034 2328 
Q 1584 2328 1336 2051 
Q 1088 1775 1088 1275 
Q 1088 772 1336 495 
Q 1584 219 2034 219 
Q 2484 219 2732 495 
Q 2981 772 2981 1275 
z
M 2853 3541 
Q 2853 3966 2637 4203 
Q 2422 4441 2034 4441 
Q 1650 4441 1433 4203 
Q 1216 3966 1216 3541 
Q 1216 3113 1433 2875 
Q 1650 2638 2034 2638 
Q 2422 2638 2637 2875 
Q 2853 3113 2853 3541 
z
M 2516 2484 
Q 3047 2413 3344 2092 
Q 3641 1772 3641 1275 
Q 3641 619 3225 264 
Q 2809 -91 2034 -91 
Q 1263 -91 845 264 
Q 428 619 428 1275 
Q 428 1772 725 2092 
Q 1022 2413 1556 2484 
Q 1084 2569 832 2842 
Q 581 3116 581 3541 
Q 581 4103 968 4426 
Q 1356 4750 2034 4750 
Q 2713 4750 3100 4426 
Q 3488 4103 3488 3541 
Q 3488 3116 3236 2842 
Q 2984 2569 2516 2484 
z
" transform="scale(0.015625)"/>
       </defs>
       <use xlink:href="#DejaVuSerif-38"/>
      </g>
     </g>
    </g>
    <g id="xtick_6">
     <g id="line2d_11">
      <path d="M 367.857398 244.301082 
L 367.857398 3.6 
" clip-path="url(#p108396f5ae)" style="fill: none; stroke-dasharray: 1.85,0.8; stroke-dashoffset: 0; stroke: #b0b0b0; stroke-opacity: 0.7; stroke-width: 0.5"/>
     </g>
     <g id="line2d_12">
      <g>
       <use xlink:href="#mb4212f89cb" x="367.857398" y="244.301082" style="stroke: #000000; stroke-width: 0.8"/>
      </g>
     </g>
     <g id="text_6">
      <!-- 10 -->
      <g transform="translate(361.494898 258.89952) scale(0.1 -0.1)">
       <defs>
        <path id="DejaVuSerif-31" d="M 909 0 
L 909 331 
L 1722 331 
L 1722 4213 
L 781 3603 
L 781 4013 
L 1919 4750 
L 2350 4750 
L 2350 331 
L 3163 331 
L 3163 0 
L 909 0 
z
" transform="scale(0.015625)"/>
       </defs>
       <use xlink:href="#DejaVuSerif-31"/>
       <use xlink:href="#DejaVuSerif-30" x="63.623047"/>
      </g>
     </g>
    </g>
    <g id="text_7">
     <!-- Magnetic field strength (G) -->
     <g transform="translate(136.413823 272.577645) scale(0.1 -0.1)">
      <defs>
       <path id="DejaVuSerif-4d" d="M 353 0 
L 353 331 
L 947 331 
L 947 4331 
L 319 4331 
L 319 4666 
L 1678 4666 
L 3316 1344 
L 4953 4666 
L 6228 4666 
L 6228 4331 
L 5606 4331 
L 5606 331 
L 6203 331 
L 6203 0 
L 4378 0 
L 4378 331 
L 4972 331 
L 4972 3938 
L 3372 684 
L 2931 684 
L 1331 3938 
L 1331 331 
L 1925 331 
L 1925 0 
L 353 0 
z
" transform="scale(0.015625)"/>
       <path id="DejaVuSerif-61" d="M 2547 1044 
L 2547 1747 
L 1806 1747 
Q 1378 1747 1168 1562 
Q 959 1378 959 997 
Q 959 650 1171 447 
Q 1384 244 1747 244 
Q 2106 244 2326 466 
Q 2547 688 2547 1044 
z
M 3122 2075 
L 3122 331 
L 3634 331 
L 3634 0 
L 2547 0 
L 2547 359 
Q 2356 128 2106 18 
Q 1856 -91 1522 -91 
Q 969 -91 644 203 
Q 319 497 319 997 
Q 319 1513 691 1797 
Q 1063 2081 1741 2081 
L 2547 2081 
L 2547 2309 
Q 2547 2688 2317 2895 
Q 2088 3103 1672 3103 
Q 1328 3103 1125 2947 
Q 922 2791 872 2484 
L 575 2484 
L 575 3156 
Q 875 3284 1158 3348 
Q 1441 3413 1709 3413 
Q 2400 3413 2761 3070 
Q 3122 2728 3122 2075 
z
" transform="scale(0.015625)"/>
       <path id="DejaVuSerif-67" d="M 3359 2988 
L 3359 72 
Q 3359 -644 2965 -1033 
Q 2572 -1422 1844 -1422 
Q 1516 -1422 1216 -1362 
Q 916 -1303 641 -1184 
L 641 -488 
L 941 -488 
Q 997 -813 1206 -963 
Q 1416 -1113 1806 -1113 
Q 2313 -1113 2548 -827 
Q 2784 -541 2784 72 
L 2784 519 
Q 2616 206 2355 57 
Q 2094 -91 1709 -91 
Q 1097 -91 708 395 
Q 319 881 319 1663 
Q 319 2444 706 2928 
Q 1094 3413 1709 3413 
Q 2094 3413 2355 3264 
Q 2616 3116 2784 2803 
L 2784 3322 
L 3909 3322 
L 3909 2988 
L 3359 2988 
z
M 2784 1825 
Q 2784 2422 2554 2737 
Q 2325 3053 1888 3053 
Q 1444 3053 1217 2703 
Q 991 2353 991 1663 
Q 991 975 1217 622 
Q 1444 269 1888 269 
Q 2325 269 2554 583 
Q 2784 897 2784 1497 
L 2784 1825 
z
" transform="scale(0.015625)"/>
       <path id="DejaVuSerif-6e" d="M 263 0 
L 263 331 
L 781 331 
L 781 2988 
L 231 2988 
L 231 3322 
L 1356 3322 
L 1356 2731 
Q 1516 3069 1770 3241 
Q 2025 3413 2363 3413 
Q 2913 3413 3172 3097 
Q 3431 2781 3431 2113 
L 3431 331 
L 3944 331 
L 3944 0 
L 2356 0 
L 2356 331 
L 2853 331 
L 2853 1931 
Q 2853 2541 2703 2767 
Q 2553 2994 2175 2994 
Q 1775 2994 1565 2701 
Q 1356 2409 1356 1850 
L 1356 331 
L 1856 331 
L 1856 0 
L 263 0 
z
" transform="scale(0.015625)"/>
       <path id="DejaVuSerif-65" d="M 3469 1600 
L 991 1600 
L 991 1575 
Q 991 903 1244 561 
Q 1497 219 1991 219 
Q 2369 219 2611 417 
Q 2853 616 2950 1006 
L 3413 1006 
Q 3275 459 2904 184 
Q 2534 -91 1931 -91 
Q 1203 -91 761 389 
Q 319 869 319 1663 
Q 319 2450 753 2931 
Q 1188 3413 1894 3413 
Q 2647 3413 3050 2948 
Q 3453 2484 3469 1600 
z
M 2791 1931 
Q 2772 2513 2545 2808 
Q 2319 3103 1894 3103 
Q 1497 3103 1269 2806 
Q 1041 2509 991 1931 
L 2791 1931 
z
" transform="scale(0.015625)"/>
       <path id="DejaVuSerif-74" d="M 691 2988 
L 184 2988 
L 184 3322 
L 691 3322 
L 691 4353 
L 1269 4353 
L 1269 3322 
L 2350 3322 
L 2350 2988 
L 1269 2988 
L 1269 878 
Q 1269 456 1350 337 
Q 1431 219 1650 219 
Q 1875 219 1978 351 
Q 2081 484 2088 781 
L 2522 781 
Q 2497 328 2275 118 
Q 2053 -91 1600 -91 
Q 1103 -91 897 129 
Q 691 350 691 878 
L 691 2988 
z
" transform="scale(0.015625)"/>
       <path id="DejaVuSerif-69" d="M 622 4353 
Q 622 4497 726 4603 
Q 831 4709 978 4709 
Q 1122 4709 1226 4603 
Q 1331 4497 1331 4353 
Q 1331 4206 1228 4103 
Q 1125 4000 978 4000 
Q 831 4000 726 4103 
Q 622 4206 622 4353 
z
M 1356 331 
L 1900 331 
L 1900 0 
L 231 0 
L 231 331 
L 781 331 
L 781 2988 
L 231 2988 
L 231 3322 
L 1356 3322 
L 1356 331 
z
" transform="scale(0.015625)"/>
       <path id="DejaVuSerif-63" d="M 3291 997 
Q 3169 466 2822 187 
Q 2475 -91 1925 -91 
Q 1200 -91 759 389 
Q 319 869 319 1663 
Q 319 2459 759 2936 
Q 1200 3413 1925 3413 
Q 2241 3413 2553 3339 
Q 2866 3266 3181 3116 
L 3181 2266 
L 2847 2266 
Q 2781 2703 2561 2903 
Q 2341 3103 1931 3103 
Q 1466 3103 1228 2742 
Q 991 2381 991 1663 
Q 991 944 1227 581 
Q 1463 219 1931 219 
Q 2303 219 2525 412 
Q 2747 606 2828 997 
L 3291 997 
z
" transform="scale(0.015625)"/>
       <path id="DejaVuSerif-20" transform="scale(0.015625)"/>
       <path id="DejaVuSerif-66" d="M 2753 4078 
L 2450 4078 
Q 2447 4313 2317 4434 
Q 2188 4556 1941 4556 
Q 1619 4556 1487 4379 
Q 1356 4203 1356 3750 
L 1356 3322 
L 2284 3322 
L 2284 2988 
L 1356 2988 
L 1356 331 
L 2094 331 
L 2094 0 
L 231 0 
L 231 331 
L 781 331 
L 781 2988 
L 231 2988 
L 231 3322 
L 781 3322 
L 781 3738 
Q 781 4294 1070 4578 
Q 1359 4863 1919 4863 
Q 2128 4863 2337 4825 
Q 2547 4788 2753 4709 
L 2753 4078 
z
" transform="scale(0.015625)"/>
       <path id="DejaVuSerif-6c" d="M 1313 331 
L 1856 331 
L 1856 0 
L 184 0 
L 184 331 
L 738 331 
L 738 4531 
L 184 4531 
L 184 4863 
L 1313 4863 
L 1313 331 
z
" transform="scale(0.015625)"/>
       <path id="DejaVuSerif-64" d="M 3359 331 
L 3909 331 
L 3909 0 
L 2784 0 
L 2784 519 
Q 2616 206 2355 57 
Q 2094 -91 1709 -91 
Q 1097 -91 708 395 
Q 319 881 319 1663 
Q 319 2444 706 2928 
Q 1094 3413 1709 3413 
Q 2094 3413 2355 3264 
Q 2616 3116 2784 2803 
L 2784 4531 
L 2241 4531 
L 2241 4863 
L 3359 4863 
L 3359 331 
z
M 2784 1497 
L 2784 1825 
Q 2784 2422 2554 2737 
Q 2325 3053 1888 3053 
Q 1444 3053 1217 2703 
Q 991 2353 991 1663 
Q 991 975 1217 622 
Q 1444 269 1888 269 
Q 2325 269 2554 583 
Q 2784 897 2784 1497 
z
" transform="scale(0.015625)"/>
       <path id="DejaVuSerif-73" d="M 359 184 
L 359 959 
L 691 959 
Q 703 588 923 403 
Q 1144 219 1575 219 
Q 1963 219 2166 364 
Q 2369 509 2369 788 
Q 2369 1006 2220 1140 
Q 2072 1275 1594 1428 
L 1178 1569 
Q 750 1706 558 1912 
Q 366 2119 366 2438 
Q 366 2894 700 3153 
Q 1034 3413 1625 3413 
Q 1888 3413 2178 3344 
Q 2469 3275 2778 3144 
L 2778 2419 
L 2447 2419 
Q 2434 2741 2221 2922 
Q 2009 3103 1644 3103 
Q 1281 3103 1095 2975 
Q 909 2847 909 2591 
Q 909 2381 1050 2254 
Q 1191 2128 1613 1997 
L 2069 1856 
Q 2541 1709 2748 1489 
Q 2956 1269 2956 922 
Q 2956 450 2595 179 
Q 2234 -91 1600 -91 
Q 1278 -91 972 -22 
Q 666 47 359 184 
z
" transform="scale(0.015625)"/>
       <path id="DejaVuSerif-72" d="M 3059 3328 
L 3059 2497 
L 2728 2497 
Q 2713 2744 2591 2866 
Q 2469 2988 2234 2988 
Q 1809 2988 1582 2694 
Q 1356 2400 1356 1850 
L 1356 331 
L 2022 331 
L 2022 0 
L 263 0 
L 263 331 
L 781 331 
L 781 2994 
L 231 2994 
L 231 3322 
L 1356 3322 
L 1356 2731 
Q 1525 3078 1790 3245 
Q 2056 3413 2438 3413 
Q 2578 3413 2733 3391 
Q 2888 3369 3059 3328 
z
" transform="scale(0.015625)"/>
       <path id="DejaVuSerif-68" d="M 263 0 
L 263 331 
L 781 331 
L 781 4531 
L 231 4531 
L 231 4863 
L 1356 4863 
L 1356 2731 
Q 1516 3069 1770 3241 
Q 2025 3413 2363 3413 
Q 2913 3413 3172 3097 
Q 3431 2781 3431 2113 
L 3431 331 
L 3944 331 
L 3944 0 
L 2356 0 
L 2356 331 
L 2853 331 
L 2853 1931 
Q 2853 2541 2704 2764 
Q 2556 2988 2175 2988 
Q 1775 2988 1565 2697 
Q 1356 2406 1356 1850 
L 1356 331 
L 1856 331 
L 1856 0 
L 263 0 
z
" transform="scale(0.015625)"/>
       <path id="DejaVuSerif-28" d="M 2041 -997 
Q 1281 -656 893 83 
Q 506 822 506 1931 
Q 506 3044 893 3783 
Q 1281 4522 2041 4863 
L 2041 4556 
Q 1559 4225 1350 3623 
Q 1141 3022 1141 1931 
Q 1141 844 1350 242 
Q 1559 -359 2041 -691 
L 2041 -997 
z
" transform="scale(0.015625)"/>
       <path id="DejaVuSerif-47" d="M 4097 3272 
Q 3988 3856 3641 4136 
Q 3294 4416 2675 4416 
Q 1869 4416 1472 3897 
Q 1075 3378 1075 2328 
Q 1075 1300 1484 772 
Q 1894 244 2688 244 
Q 3041 244 3362 331 
Q 3684 419 3975 594 
L 3975 1797 
L 3097 1797 
L 3097 2131 
L 4609 2131 
L 4609 391 
Q 4194 150 3714 29 
Q 3234 -91 2688 -91 
Q 1631 -91 995 570 
Q 359 1231 359 2328 
Q 359 3434 996 4092 
Q 1634 4750 2713 4750 
Q 3113 4750 3539 4658 
Q 3966 4566 4447 4378 
L 4447 3272 
L 4097 3272 
z
" transform="scale(0.015625)"/>
       <path id="DejaVuSerif-29" d="M 453 -997 
L 453 -691 
Q 934 -359 1145 242 
Q 1356 844 1356 1931 
Q 1356 3022 1145 3623 
Q 934 4225 453 4556 
L 453 4863 
Q 1216 4522 1603 3783 
Q 1991 3044 1991 1931 
Q 1991 822 1603 83 
Q 1216 -656 453 -997 
z
" transform="scale(0.015625)"/>
      </defs>
      <use xlink:href="#DejaVuSerif-4d"/>
      <use xlink:href="#DejaVuSerif-61" x="102.392578"/>
      <use xlink:href="#DejaVuSerif-67" x="162.011719"/>
      <use xlink:href="#DejaVuSerif-6e" x="226.025391"/>
      <use xlink:href="#DejaVuSerif-65" x="290.429688"/>
      <use xlink:href="#DejaVuSerif-74" x="349.609375"/>
      <use xlink:href="#DejaVuSerif-69" x="389.794922"/>
      <use xlink:href="#DejaVuSerif-63" x="421.777344"/>
      <use xlink:href="#DejaVuSerif-20" x="477.783203"/>
      <use xlink:href="#DejaVuSerif-66" x="509.570312"/>
      <use xlink:href="#DejaVuSerif-69" x="546.582031"/>
      <use xlink:href="#DejaVuSerif-65" x="578.564453"/>
      <use xlink:href="#DejaVuSerif-6c" x="637.744141"/>
      <use xlink:href="#DejaVuSerif-64" x="669.726562"/>
      <use xlink:href="#DejaVuSerif-20" x="733.740234"/>
      <use xlink:href="#DejaVuSerif-73" x="765.527344"/>
      <use xlink:href="#DejaVuSerif-74" x="816.845703"/>
      <use xlink:href="#DejaVuSerif-72" x="857.03125"/>
      <use xlink:href="#DejaVuSerif-65" x="904.833984"/>
      <use xlink:href="#DejaVuSerif-6e" x="964.013672"/>
      <use xlink:href="#DejaVuSerif-67" x="1028.417969"/>
      <use xlink:href="#DejaVuSerif-74" x="1092.431641"/>
      <use xlink:href="#DejaVuSerif-68" x="1132.617188"/>
      <use xlink:href="#DejaVuSerif-20" x="1197.021484"/>
      <use xlink:href="#DejaVuSerif-28" x="1228.808594"/>
      <use xlink:href="#DejaVuSerif-47" x="1267.822266"/>
      <use xlink:href="#DejaVuSerif-29" x="1347.705078"/>
     </g>
    </g>
   </g>
   <g id="matplotlib.axis_2">
    <g id="ytick_1">
     <g id="line2d_13">
      <path d="M 40.403125 240.567928 
L 371.09952 240.567928 
" clip-path="url(#p108396f5ae)" style="fill: none; stroke-dasharray: 1.85,0.8; stroke-dashoffset: 0; stroke: #b0b0b0; stroke-opacity: 0.7; stroke-width: 0.5"/>
     </g>
     <g id="line2d_14">
      <defs>
       <path id="m6a6b172fd0" d="M 0 0 
L -3.5 0 
" style="stroke: #000000; stroke-width: 0.8"/>
      </defs>
      <g>
       <use xlink:href="#m6a6b172fd0" x="40.403125" y="240.567928" style="stroke: #000000; stroke-width: 0.8"/>
      </g>
     </g>
     <g id="text_8">
      <!-- 0.0 -->
      <g transform="translate(17.5 244.367147) scale(0.1 -0.1)">
       <defs>
        <path id="DejaVuSerif-2e" d="M 603 325 
Q 603 500 722 622 
Q 841 744 1019 744 
Q 1191 744 1312 622 
Q 1434 500 1434 325 
Q 1434 153 1312 31 
Q 1191 -91 1019 -91 
Q 841 -91 722 29 
Q 603 150 603 325 
z
" transform="scale(0.015625)"/>
       </defs>
       <use xlink:href="#DejaVuSerif-30"/>
       <use xlink:href="#DejaVuSerif-2e" x="63.623047"/>
       <use xlink:href="#DejaVuSerif-30" x="95.410156"/>
      </g>
     </g>
    </g>
    <g id="ytick_2">
     <g id="line2d_15">
      <path d="M 40.403125 188.345179 
L 371.09952 188.345179 
" clip-path="url(#p108396f5ae)" style="fill: none; stroke-dasharray: 1.85,0.8; stroke-dashoffset: 0; stroke: #b0b0b0; stroke-opacity: 0.7; stroke-width: 0.5"/>
     </g>
     <g id="line2d_16">
      <g>
       <use xlink:href="#m6a6b172fd0" x="40.403125" y="188.345179" style="stroke: #000000; stroke-width: 0.8"/>
      </g>
     </g>
     <g id="text_9">
      <!-- 0.1 -->
      <g transform="translate(17.5 192.144398) scale(0.1 -0.1)">
       <use xlink:href="#DejaVuSerif-30"/>
       <use xlink:href="#DejaVuSerif-2e" x="63.623047"/>
       <use xlink:href="#DejaVuSerif-31" x="95.410156"/>
      </g>
     </g>
    </g>
    <g id="ytick_3">
     <g id="line2d_17">
      <path d="M 40.403125 136.122431 
L 371.09952 136.122431 
" clip-path="url(#p108396f5ae)" style="fill: none; stroke-dasharray: 1.85,0.8; stroke-dashoffset: 0; stroke: #b0b0b0; stroke-opacity: 0.7; stroke-width: 0.5"/>
     </g>
     <g id="line2d_18">
      <g>
       <use xlink:href="#m6a6b172fd0" x="40.403125" y="136.122431" style="stroke: #000000; stroke-width: 0.8"/>
      </g>
     </g>
     <g id="text_10">
      <!-- 0.2 -->
      <g transform="translate(17.5 139.921649) scale(0.1 -0.1)">
       <use xlink:href="#DejaVuSerif-30"/>
       <use xlink:href="#DejaVuSerif-2e" x="63.623047"/>
       <use xlink:href="#DejaVuSerif-32" x="95.410156"/>
      </g>
     </g>
    </g>
    <g id="ytick_4">
     <g id="line2d_19">
      <path d="M 40.403125 83.899682 
L 371.09952 83.899682 
" clip-path="url(#p108396f5ae)" style="fill: none; stroke-dasharray: 1.85,0.8; stroke-dashoffset: 0; stroke: #b0b0b0; stroke-opacity: 0.7; stroke-width: 0.5"/>
     </g>
     <g id="line2d_20">
      <g>
       <use xlink:href="#m6a6b172fd0" x="40.403125" y="83.899682" style="stroke: #000000; stroke-width: 0.8"/>
      </g>
     </g>
     <g id="text_11">
      <!-- 0.3 -->
      <g transform="translate(17.5 87.698901) scale(0.1 -0.1)">
       <defs>
        <path id="DejaVuSerif-33" d="M 622 4469 
Q 988 4606 1323 4678 
Q 1659 4750 1953 4750 
Q 2638 4750 3022 4454 
Q 3406 4159 3406 3634 
Q 3406 3213 3140 2930 
Q 2875 2647 2388 2547 
Q 2963 2466 3280 2130 
Q 3597 1794 3597 1259 
Q 3597 606 3158 257 
Q 2719 -91 1894 -91 
Q 1528 -91 1179 -12 
Q 831 66 488 225 
L 488 1131 
L 838 1131 
Q 869 681 1141 450 
Q 1413 219 1906 219 
Q 2384 219 2661 495 
Q 2938 772 2938 1253 
Q 2938 1803 2653 2086 
Q 2369 2369 1819 2369 
L 1522 2369 
L 1522 2688 
L 1678 2688 
Q 2225 2688 2498 2914 
Q 2772 3141 2772 3597 
Q 2772 4006 2547 4223 
Q 2322 4441 1900 4441 
Q 1478 4441 1245 4241 
Q 1013 4041 972 3647 
L 622 3647 
L 622 4469 
z
" transform="scale(0.015625)"/>
       </defs>
       <use xlink:href="#DejaVuSerif-30"/>
       <use xlink:href="#DejaVuSerif-2e" x="63.623047"/>
       <use xlink:href="#DejaVuSerif-33" x="95.410156"/>
      </g>
     </g>
    </g>
    <g id="ytick_5">
     <g id="line2d_21">
      <path d="M 40.403125 31.676934 
L 371.09952 31.676934 
" clip-path="url(#p108396f5ae)" style="fill: none; stroke-dasharray: 1.85,0.8; stroke-dashoffset: 0; stroke: #b0b0b0; stroke-opacity: 0.7; stroke-width: 0.5"/>
     </g>
     <g id="line2d_22">
      <g>
       <use xlink:href="#m6a6b172fd0" x="40.403125" y="31.676934" style="stroke: #000000; stroke-width: 0.8"/>
      </g>
     </g>
     <g id="text_12">
      <!-- 0.4 -->
      <g transform="translate(17.5 35.476152) scale(0.1 -0.1)">
       <use xlink:href="#DejaVuSerif-30"/>
       <use xlink:href="#DejaVuSerif-2e" x="63.623047"/>
       <use xlink:href="#DejaVuSerif-34" x="95.410156"/>
      </g>
     </g>
    </g>
    <g id="text_13">
     <!-- Scattering rate $R_{sc}$ ($\Gamma/2$) -->
     <g transform="translate(11.2 184.400541) rotate(-90) scale(0.1 -0.1)">
      <defs>
       <path id="DejaVuSerif-53" d="M 594 225 
L 594 1288 
L 953 1284 
Q 969 753 1261 498 
Q 1553 244 2150 244 
Q 2706 244 2998 464 
Q 3291 684 3291 1106 
Q 3291 1444 3114 1625 
Q 2938 1806 2369 1978 
L 1753 2163 
Q 1084 2366 811 2669 
Q 538 2972 538 3500 
Q 538 4094 959 4422 
Q 1381 4750 2144 4750 
Q 2469 4750 2856 4679 
Q 3244 4609 3681 4475 
L 3681 3481 
L 3328 3481 
Q 3275 3975 2998 4195 
Q 2722 4416 2156 4416 
Q 1663 4416 1405 4214 
Q 1147 4013 1147 3628 
Q 1147 3294 1340 3103 
Q 1534 2913 2163 2725 
L 2741 2553 
Q 3375 2363 3645 2067 
Q 3916 1772 3916 1275 
Q 3916 597 3481 253 
Q 3047 -91 2188 -91 
Q 1803 -91 1404 -12 
Q 1006 66 594 225 
z
" transform="scale(0.015625)"/>
       <path id="DejaVuSans-Oblique-52" d="M 1613 4147 
L 1294 2491 
L 2106 2491 
Q 2584 2491 2879 2755 
Q 3175 3019 3175 3444 
Q 3175 3784 2976 3965 
Q 2778 4147 2406 4147 
L 1613 4147 
z
M 2772 2241 
Q 2972 2194 3105 2009 
Q 3238 1825 3413 1275 
L 3809 0 
L 3144 0 
L 2778 1197 
Q 2638 1659 2453 1815 
Q 2269 1972 1888 1972 
L 1191 1972 
L 806 0 
L 172 0 
L 1081 4666 
L 2503 4666 
Q 3150 4666 3495 4373 
Q 3841 4081 3841 3531 
Q 3841 3044 3547 2687 
Q 3253 2331 2772 2241 
z
" transform="scale(0.015625)"/>
       <path id="DejaVuSans-Oblique-73" d="M 3200 3397 
L 3091 2853 
Q 2863 2978 2609 3040 
Q 2356 3103 2088 3103 
Q 1634 3103 1373 2948 
Q 1113 2794 1113 2528 
Q 1113 2219 1719 2053 
Q 1766 2041 1788 2034 
L 1972 1978 
Q 2547 1819 2739 1644 
Q 2931 1469 2931 1166 
Q 2931 609 2489 259 
Q 2047 -91 1331 -91 
Q 1053 -91 747 -37 
Q 441 16 72 128 
L 184 722 
Q 500 559 806 475 
Q 1113 391 1394 391 
Q 1816 391 2080 572 
Q 2344 753 2344 1031 
Q 2344 1331 1650 1516 
L 1591 1531 
L 1394 1581 
Q 956 1697 753 1886 
Q 550 2075 550 2369 
Q 550 2928 970 3256 
Q 1391 3584 2113 3584 
Q 2397 3584 2667 3537 
Q 2938 3491 3200 3397 
z
" transform="scale(0.015625)"/>
       <path id="DejaVuSans-Oblique-63" d="M 3431 3366 
L 3316 2797 
Q 3109 2947 2876 3022 
Q 2644 3097 2394 3097 
Q 2119 3097 1870 3000 
Q 1622 2903 1453 2725 
Q 1184 2453 1037 2087 
Q 891 1722 891 1331 
Q 891 859 1127 628 
Q 1363 397 1844 397 
Q 2081 397 2348 469 
Q 2616 541 2906 684 
L 2797 116 
Q 2547 13 2283 -39 
Q 2019 -91 1741 -91 
Q 1044 -91 669 257 
Q 294 606 294 1253 
Q 294 1797 489 2255 
Q 684 2713 1069 3078 
Q 1331 3328 1684 3456 
Q 2038 3584 2456 3584 
Q 2700 3584 2940 3529 
Q 3181 3475 3431 3366 
z
" transform="scale(0.015625)"/>
       <path id="DejaVuSans-393" d="M 628 0 
L 628 4666 
L 3531 4666 
L 3531 4134 
L 1259 4134 
L 1259 0 
L 628 0 
z
" transform="scale(0.015625)"/>
       <path id="DejaVuSans-2f" d="M 1625 4666 
L 2156 4666 
L 531 -594 
L 0 -594 
L 1625 4666 
z
" transform="scale(0.015625)"/>
       <path id="DejaVuSans-32" d="M 1228 531 
L 3431 531 
L 3431 0 
L 469 0 
L 469 531 
Q 828 903 1448 1529 
Q 2069 2156 2228 2338 
Q 2531 2678 2651 2914 
Q 2772 3150 2772 3378 
Q 2772 3750 2511 3984 
Q 2250 4219 1831 4219 
Q 1534 4219 1204 4116 
Q 875 4013 500 3803 
L 500 4441 
Q 881 4594 1212 4672 
Q 1544 4750 1819 4750 
Q 2544 4750 2975 4387 
Q 3406 4025 3406 3419 
Q 3406 3131 3298 2873 
Q 3191 2616 2906 2266 
Q 2828 2175 2409 1742 
Q 1991 1309 1228 531 
z
" transform="scale(0.015625)"/>
      </defs>
      <use xlink:href="#DejaVuSerif-53" transform="translate(0 0.015625)"/>
      <use xlink:href="#DejaVuSerif-63" transform="translate(68.505859 0.015625)"/>
      <use xlink:href="#DejaVuSerif-61" transform="translate(124.511719 0.015625)"/>
      <use xlink:href="#DejaVuSerif-74" transform="translate(184.130859 0.015625)"/>
      <use xlink:href="#DejaVuSerif-74" transform="translate(224.316406 0.015625)"/>
      <use xlink:href="#DejaVuSerif-65" transform="translate(264.501953 0.015625)"/>
      <use xlink:href="#DejaVuSerif-72" transform="translate(323.681641 0.015625)"/>
      <use xlink:href="#DejaVuSerif-69" transform="translate(371.484375 0.015625)"/>
      <use xlink:href="#DejaVuSerif-6e" transform="translate(403.466797 0.015625)"/>
      <use xlink:href="#DejaVuSerif-67" transform="translate(467.871094 0.015625)"/>
      <use xlink:href="#DejaVuSerif-20" transform="translate(531.884766 0.015625)"/>
      <use xlink:href="#DejaVuSerif-72" transform="translate(563.671875 0.015625)"/>
      <use xlink:href="#DejaVuSerif-61" transform="translate(611.474609 0.015625)"/>
      <use xlink:href="#DejaVuSerif-74" transform="translate(671.09375 0.015625)"/>
      <use xlink:href="#DejaVuSerif-65" transform="translate(711.279297 0.015625)"/>
      <use xlink:href="#DejaVuSerif-20" transform="translate(770.458984 0.015625)"/>
      <use xlink:href="#DejaVuSans-Oblique-52" transform="translate(802.246094 0.015625)"/>
      <use xlink:href="#DejaVuSans-Oblique-73" transform="translate(871.728516 -16.390625) scale(0.7)"/>
      <use xlink:href="#DejaVuSans-Oblique-63" transform="translate(908.198242 -16.390625) scale(0.7)"/>
      <use xlink:href="#DejaVuSerif-20" transform="translate(949.418945 0.015625)"/>
      <use xlink:href="#DejaVuSerif-28" transform="translate(981.206055 0.015625)"/>
      <use xlink:href="#DejaVuSans-393" transform="translate(1020.219727 0.015625)"/>
      <use xlink:href="#DejaVuSans-2f" transform="translate(1075.932617 0.015625)"/>
      <use xlink:href="#DejaVuSans-32" transform="translate(1105.999023 0.015625)"/>
      <use xlink:href="#DejaVuSerif-29" transform="translate(1169.62207 0.015625)"/>
     </g>
    </g>
   </g>
   <g id="line2d_23">
    <path d="M 43.645247 240.569283 
L 46.887368 236.998261 
L 50.12949 226.87471 
L 53.371611 211.926936 
L 56.613733 194.492183 
L 59.855854 176.90002 
L 63.097976 160.943961 
L 66.340097 147.649681 
L 69.582219 137.314818 
L 72.82434 129.74657 
L 76.066462 124.4634 
L 79.308583 120.887089 
L 82.550705 118.463744 
L 85.792826 116.724972 
L 89.034948 115.31014 
L 92.277069 113.959734 
L 95.519191 112.507737 
L 98.761312 110.854518 
L 102.003434 108.951487 
L 105.245555 106.790949 
L 108.487677 104.399401 
L 111.729798 101.821276 
L 114.97192 99.095702 
L 118.214041 96.242289 
L 121.456163 93.270655 
L 124.698285 90.202697 
L 127.940406 87.083769 
L 131.182528 83.978023 
L 134.424649 80.946422 
L 137.666771 78.024373 
L 140.908892 75.210087 
L 144.151014 72.482505 
L 147.393135 69.809287 
L 150.635257 67.136442 
L 153.877378 64.385749 
L 157.1195 61.473287 
L 160.361621 58.425204 
L 163.603743 55.377262 
L 166.845864 52.399371 
L 170.087986 49.546829 
L 173.330107 46.893859 
L 176.572229 44.47109 
L 179.81435 42.270429 
L 183.056472 40.265963 
L 186.298593 38.425304 
L 189.540715 36.719581 
L 192.782836 35.126025 
L 196.024958 33.627453 
L 199.267079 32.213221 
L 202.509201 30.879685 
L 205.751323 29.628279 
L 208.993444 28.462271 
L 212.235566 27.384616 
L 215.477687 26.395924 
L 218.719809 25.494247 
L 221.96193 24.675415 
L 225.204052 23.932985 
L 228.446173 23.258444 
L 231.688295 22.64197 
L 234.930416 22.072498 
L 238.172538 21.538947 
L 241.414659 21.030406 
L 244.656781 20.537149 
L 247.898902 20.050787 
L 251.141024 19.56455 
L 254.383145 19.073363 
L 257.625267 18.573351 
L 260.867388 18.061387 
L 264.10951 17.534979 
L 267.351631 16.991934 
L 270.593753 16.431085 
L 273.835874 15.85187 
L 277.077996 15.256003 
L 280.320117 14.646159 
L 283.562239 14.026059 
L 286.80436 13.400854 
L 290.046482 12.776224 
L 293.288604 12.158085 
L 296.530725 11.552412 
L 299.772847 10.965245 
L 303.014968 10.403352 
L 306.25709 9.873179 
L 309.499211 9.381836 
L 312.741333 8.936048 
L 315.983454 8.541387 
L 319.225576 8.2014 
L 322.467697 7.917255 
L 325.709819 7.688751 
L 328.95194 7.515575 
L 332.194062 7.398334 
L 335.436183 7.337403 
L 338.678305 7.3318 
L 341.920426 7.377074 
L 345.162548 7.465009 
L 348.404669 7.584739 
L 351.646791 7.724282 
L 354.888912 7.872712 
L 358.131034 8.021002 
L 361.373155 8.164499 
L 364.615277 8.304586 
L 367.857398 8.447647 
" clip-path="url(#p108396f5ae)" style="fill: none; stroke: #0d0887; stroke-width: 0.7; stroke-linecap: square"/>
   </g>
   <g id="line2d_24">
    <path d="M 43.645247 240.55757 
L 46.887368 230.941078 
L 50.12949 227.73504 
L 53.371611 223.695667 
L 56.613733 218.849597 
L 59.855854 213.443807 
L 63.097976 207.663199 
L 66.340097 201.804199 
L 69.582219 196.242838 
L 72.82434 191.273904 
L 76.066462 186.811752 
L 79.308583 182.499058 
L 82.550705 178.134953 
L 85.792826 173.722371 
L 89.034948 169.308956 
L 92.277069 164.922716 
L 95.519191 160.572202 
L 98.761312 156.267865 
L 102.003434 152.017557 
L 105.245555 147.837907 
L 108.487677 143.748714 
L 111.729798 139.772582 
L 114.97192 135.935744 
L 118.214041 132.261476 
L 121.456163 128.75959 
L 124.698285 125.419892 
L 127.940406 122.215029 
L 131.182528 119.111836 
L 134.424649 116.081239 
L 137.666771 113.104367 
L 140.908892 110.173517 
L 144.151014 107.291085 
L 147.393135 104.473126 
L 150.635257 101.747116 
L 153.877378 99.154844 
L 157.1195 96.734379 
L 160.361621 94.495805 
L 163.603743 92.428773 
L 166.845864 90.511292 
L 170.087986 88.702912 
L 173.330107 86.909083 
L 176.572229 84.874003 
L 179.81435 82.247071 
L 183.056472 79.281803 
L 186.298593 76.651104 
L 189.540715 74.454443 
L 192.782836 72.507858 
L 196.024958 70.699618 
L 199.267079 69.008058 
L 202.509201 67.419653 
L 205.751323 65.810876 
L 208.993444 64.016207 
L 212.235566 62.026962 
L 215.477687 59.960771 
L 218.719809 57.965611 
L 221.96193 56.20207 
L 225.204052 54.829485 
L 228.446173 53.936587 
L 231.688295 53.435781 
L 234.930416 53.073118 
L 238.172538 52.624638 
L 241.414659 52.053548 
L 244.656781 51.47136 
L 247.898902 51.024063 
L 251.141024 50.815931 
L 254.383145 50.877049 
L 257.625267 51.166532 
L 260.867388 51.603433 
L 264.10951 52.100285 
L 267.351631 52.532657 
L 270.593753 52.810047 
L 273.835874 52.891912 
L 277.077996 52.753956 
L 280.320117 52.366563 
L 283.562239 51.70234 
L 286.80436 50.783154 
L 290.046482 49.69834 
L 293.288604 48.539833 
L 296.530725 47.354432 
L 299.772847 46.1523 
L 303.014968 44.942636 
L 306.25709 43.776145 
L 309.499211 42.740574 
L 312.741333 41.925774 
L 315.983454 41.406572 
L 319.225576 41.209833 
L 322.467697 41.290234 
L 325.709819 41.557383 
L 328.95194 41.908934 
L 332.194062 42.227832 
L 335.436183 42.336715 
L 338.678305 42.21991 
L 341.920426 42.490763 
L 345.162548 43.36041 
L 348.404669 44.608423 
L 351.646791 46.101423 
L 354.888912 47.780781 
L 358.131034 49.627604 
L 361.373155 51.674107 
L 364.615277 53.951154 
L 367.857398 56.413626 
" clip-path="url(#p108396f5ae)" style="fill: none; stroke: #5302a3; stroke-width: 0.7; stroke-linecap: square"/>
   </g>
   <g id="line2d_25">
    <path d="M 43.645247 240.422591 
L 46.887368 235.289832 
L 50.12949 228.672393 
L 53.371611 222.649012 
L 56.613733 217.544525 
L 59.855854 212.876782 
L 63.097976 208.361141 
L 66.340097 203.862831 
L 69.582219 199.329538 
L 72.82434 194.737465 
L 76.066462 190.062045 
L 79.308583 185.290166 
L 82.550705 180.414641 
L 85.792826 175.432335 
L 89.034948 170.346939 
L 92.277069 165.165212 
L 95.519191 159.899357 
L 98.761312 154.563161 
L 102.003434 149.176073 
L 105.245555 143.758488 
L 108.487677 138.33344 
L 111.729798 132.924609 
L 114.97192 127.557613 
L 118.214041 122.259611 
L 121.456163 117.071348 
L 124.698285 112.071435 
L 127.940406 107.348141 
L 131.182528 102.871072 
L 134.424649 98.570743 
L 137.666771 94.467121 
L 140.908892 90.610619 
L 144.151014 87.044409 
L 147.393135 83.796474 
L 150.635257 80.872168 
L 153.877378 78.267601 
L 157.1195 76.000313 
L 160.361621 74.044794 
L 163.603743 72.232445 
L 166.845864 70.296536 
L 170.087986 68.129197 
L 173.330107 65.959555 
L 176.572229 64.114755 
L 179.81435 62.756692 
L 183.056472 61.912383 
L 186.298593 61.587057 
L 189.540715 61.824293 
L 192.782836 62.661318 
L 196.024958 63.710133 
L 199.267079 63.916304 
L 202.509201 63.777259 
L 205.751323 64.242657 
L 208.993444 65.238509 
L 212.235566 66.612167 
L 215.477687 68.361546 
L 218.719809 70.593256 
L 221.96193 73.484287 
L 225.204052 77.291235 
L 228.446173 82.303412 
L 231.688295 88.055575 
L 234.930416 90.797024 
L 238.172538 84.538624 
L 241.414659 75.805363 
L 244.656781 72.043363 
L 247.898902 71.765537 
L 251.141024 72.959296 
L 254.383145 74.612305 
L 257.625267 76.377885 
L 260.867388 78.386616 
L 264.10951 80.897646 
L 267.351631 84.00308 
L 270.593753 87.688461 
L 273.835874 91.901479 
L 277.077996 96.472117 
L 280.320117 101.219168 
L 283.562239 106.059196 
L 286.80436 111.102609 
L 290.046482 116.65713 
L 293.288604 122.774081 
L 296.530725 127.629517 
L 299.772847 126.672162 
L 303.014968 119.695626 
L 306.25709 112.114538 
L 309.499211 106.959052 
L 312.741333 104.022513 
L 315.983454 102.474714 
L 319.225576 101.75854 
L 322.467697 101.848808 
L 325.709819 103.199324 
L 328.95194 105.72061 
L 332.194062 108.76681 
L 335.436183 111.888212 
L 338.678305 114.938505 
L 341.920426 117.886499 
L 345.162548 120.721313 
L 348.404669 123.451448 
L 351.646791 126.201542 
L 354.888912 129.081818 
L 358.131034 131.537317 
L 361.373155 133.615205 
L 364.615277 135.50822 
L 367.857398 137.224619 
" clip-path="url(#p108396f5ae)" style="fill: none; stroke: #8b0aa5; stroke-width: 0.7; stroke-linecap: square"/>
   </g>
   <g id="line2d_26">
    <path d="M 43.645247 240.492276 
L 46.887368 233.491169 
L 50.12949 228.994439 
L 53.371611 224.357167 
L 56.613733 219.153079 
L 59.855854 213.358882 
L 63.097976 206.869857 
L 66.340097 199.665805 
L 69.582219 191.804809 
L 72.82434 183.39603 
L 76.066462 174.582524 
L 79.308583 165.5294 
L 82.550705 156.413875 
L 85.792826 147.416134 
L 89.034948 138.710032 
L 92.277069 130.454115 
L 95.519191 122.78433 
L 98.761312 115.808315 
L 102.003434 109.60315 
L 105.245555 104.216389 
L 108.487677 99.668505 
L 111.729798 95.952573 
L 114.97192 93.039411 
L 118.214041 90.885814 
L 121.456163 89.45054 
L 124.698285 88.701589 
L 127.940406 88.623895 
L 131.182528 89.249692 
L 134.424649 90.47327 
L 137.666771 91.795179 
L 140.908892 93.401778 
L 144.151014 95.419317 
L 147.393135 97.780532 
L 150.635257 100.42032 
L 153.877378 103.290106 
L 157.1195 106.348834 
L 160.361621 109.544647 
L 163.603743 112.802721 
L 166.845864 116.050368 
L 170.087986 119.238103 
L 173.330107 122.361724 
L 176.572229 125.43586 
L 179.81435 128.475725 
L 183.056472 131.487148 
L 186.298593 134.471381 
L 189.540715 137.426611 
L 192.782836 140.329214 
L 196.024958 143.044757 
L 199.267079 145.196781 
L 202.509201 146.92469 
L 205.751323 149.269392 
L 208.993444 153.155582 
L 212.235566 153.437127 
L 215.477687 155.184896 
L 218.719809 157.150017 
L 221.96193 159.123963 
L 225.204052 161.092103 
L 228.446173 163.099659 
L 231.688295 165.28976 
L 234.930416 168.13673 
L 238.172538 172.94132 
L 241.414659 169.389475 
L 244.656781 168.44878 
L 247.898902 169.820205 
L 251.141024 171.261098 
L 254.383145 172.632118 
L 257.625267 173.924114 
L 260.867388 175.133802 
L 264.10951 176.248307 
L 267.351631 177.239474 
L 270.593753 178.074694 
L 273.835874 178.805191 
L 277.077996 179.672604 
L 280.320117 180.816275 
L 283.562239 182.152877 
L 286.80436 183.672856 
L 290.046482 185.419597 
L 293.288604 187.600005 
L 296.530725 190.618066 
L 299.772847 194.331702 
L 303.014968 199.551622 
L 306.25709 193.291806 
L 309.499211 188.596924 
L 312.741333 188.72442 
L 315.983454 189.559434 
L 319.225576 190.361722 
L 322.467697 191.399269 
L 325.709819 192.485059 
L 328.95194 193.577327 
L 332.194062 194.631562 
L 335.436183 195.536585 
L 338.678305 196.148795 
L 341.920426 196.488703 
L 345.162548 196.817465 
L 348.404669 197.371035 
L 351.646791 198.195138 
L 354.888912 199.211457 
L 358.131034 200.305577 
L 361.373155 201.378998 
L 364.615277 202.352528 
L 367.857398 203.195137 
" clip-path="url(#p108396f5ae)" style="fill: none; stroke: #b83289; stroke-width: 0.7; stroke-linecap: square"/>
   </g>
   <g id="line2d_27">
    <path d="M 43.645247 240.556046 
L 46.887368 234.110415 
L 50.12949 229.200571 
L 53.371611 221.515333 
L 56.613733 211.86363 
L 59.855854 200.544681 
L 63.097976 188.578473 
L 66.340097 176.920109 
L 69.582219 166.301183 
L 72.82434 157.194583 
L 76.066462 149.831751 
L 79.308583 144.251939 
L 82.550705 140.361633 
L 85.792826 137.989617 
L 89.034948 136.927487 
L 92.277069 136.959462 
L 95.519191 137.878648 
L 98.761312 139.497347 
L 102.003434 141.651395 
L 105.245555 144.196541 
L 108.487677 147.022056 
L 111.729798 150.030016 
L 114.97192 153.144649 
L 118.214041 156.306937 
L 121.456163 159.475645 
L 124.698285 162.630121 
L 127.940406 165.754325 
L 131.182528 168.699642 
L 134.424649 171.579459 
L 137.666771 174.256723 
L 140.908892 176.819428 
L 144.151014 179.30402 
L 147.393135 181.692673 
L 150.635257 183.969595 
L 153.877378 186.135444 
L 157.1195 188.19313 
L 160.361621 190.146618 
L 163.603743 192.001132 
L 166.845864 193.763056 
L 170.087986 195.439667 
L 173.330107 197.030764 
L 176.572229 198.525849 
L 179.81435 199.937436 
L 183.056472 201.277986 
L 186.298593 202.531692 
L 189.540715 203.736135 
L 192.782836 204.86792 
L 196.024958 205.941376 
L 199.267079 206.971067 
L 202.509201 207.969133 
L 205.751323 208.96285 
L 208.993444 209.867227 
L 212.235566 211.403943 
L 215.477687 211.155286 
L 218.719809 211.895786 
L 221.96193 212.621092 
L 225.204052 213.301955 
L 228.446173 213.969656 
L 231.688295 214.626619 
L 234.930416 215.315208 
L 238.172538 216.283555 
L 241.414659 216.274247 
L 244.656781 216.3393 
L 247.898902 216.909936 
L 251.141024 217.410395 
L 254.383145 217.871904 
L 257.625267 218.305496 
L 260.867388 218.718919 
L 264.10951 219.115005 
L 267.351631 219.49519 
L 270.593753 219.860511 
L 273.835874 220.21115 
L 277.077996 220.545482 
L 280.320117 220.856808 
L 283.562239 221.121586 
L 286.80436 221.278107 
L 290.046482 221.476128 
L 293.288604 221.816846 
L 296.530725 222.139026 
L 299.772847 222.786695 
L 303.014968 224.433789 
L 306.25709 224.695185 
L 309.499211 223.235401 
L 312.741333 223.549323 
L 315.983454 223.843016 
L 319.225576 224.160906 
L 322.467697 224.521888 
L 325.709819 224.988649 
L 328.95194 225.333158 
L 332.194062 225.220863 
L 335.436183 225.808763 
L 338.678305 226.35242 
L 341.920426 226.581091 
L 345.162548 226.732033 
L 348.404669 226.890209 
L 351.646791 227.105682 
L 354.888912 227.296851 
L 358.131034 227.496985 
L 361.373155 227.702789 
L 364.615277 227.912287 
L 367.857398 228.122446 
" clip-path="url(#p108396f5ae)" style="fill: none; stroke: #db5c68; stroke-width: 0.7; stroke-linecap: square"/>
   </g>
   <g id="line2d_28">
    <path d="M 43.645247 240.566677 
L 46.887368 232.916321 
L 50.12949 225.029804 
L 53.371611 216.215731 
L 56.613733 204.607638 
L 59.855854 195.522959 
L 63.097976 189.933902 
L 66.340097 186.9915 
L 69.582219 185.836942 
L 72.82434 185.864762 
L 76.066462 186.66731 
L 79.308583 187.98038 
L 82.550705 189.618938 
L 85.792826 191.455119 
L 89.034948 193.4004 
L 92.277069 195.394513 
L 95.519191 197.380085 
L 98.761312 199.343269 
L 102.003434 201.257299 
L 105.245555 203.106767 
L 108.487677 204.883207 
L 111.729798 206.565985 
L 114.97192 208.179183 
L 118.214041 209.710302 
L 121.456163 211.160317 
L 124.698285 212.531631 
L 127.940406 213.812281 
L 131.182528 215.05282 
L 134.424649 216.224272 
L 137.666771 217.268857 
L 140.908892 218.278269 
L 144.151014 219.234163 
L 147.393135 220.118419 
L 150.635257 220.965051 
L 153.877378 221.762269 
L 157.1195 222.512554 
L 160.361621 223.219081 
L 163.603743 223.884522 
L 166.845864 224.511247 
L 170.087986 225.087129 
L 173.330107 225.643302 
L 176.572229 226.168817 
L 179.81435 226.669598 
L 183.056472 227.131211 
L 186.298593 227.582504 
L 189.540715 227.987228 
L 192.782836 228.380897 
L 196.024958 228.753829 
L 199.267079 229.106587 
L 202.509201 229.440375 
L 205.751323 229.759677 
L 208.993444 230.06288 
L 212.235566 230.396625 
L 215.477687 230.555645 
L 218.719809 230.825201 
L 221.96193 231.074145 
L 225.204052 231.308847 
L 228.446173 231.532193 
L 231.688295 231.74669 
L 234.930416 231.957359 
L 238.172538 232.185661 
L 241.414659 232.125915 
L 244.656781 232.416641 
L 247.898902 232.602828 
L 251.141024 232.768329 
L 254.383145 232.923059 
L 257.625267 233.06989 
L 260.867388 233.210233 
L 264.10951 233.344985 
L 267.351631 233.47474 
L 270.593753 233.602797 
L 273.835874 233.724728 
L 277.077996 233.84292 
L 280.320117 233.957711 
L 283.562239 234.069081 
L 286.80436 234.175807 
L 290.046482 234.266502 
L 293.288604 234.253855 
L 296.530725 234.416916 
L 299.772847 234.530591 
L 303.014968 234.78666 
L 306.25709 235.05738 
L 309.499211 234.845887 
L 312.741333 234.943595 
L 315.983454 235.031542 
L 319.225576 235.122126 
L 322.467697 235.235247 
L 325.709819 235.482044 
L 328.95194 235.61791 
L 332.194062 235.624989 
L 335.436183 235.65014 
L 338.678305 235.729649 
L 341.920426 235.798423 
L 345.162548 235.871313 
L 348.404669 235.945696 
L 351.646791 236.020384 
L 354.888912 236.094776 
L 358.131034 236.168539 
L 361.373155 236.241486 
L 364.615277 236.313506 
L 367.857398 236.38451 
" clip-path="url(#p108396f5ae)" style="fill: none; stroke: #f48849; stroke-width: 0.7; stroke-linecap: square"/>
   </g>
   <g id="line2d_29">
    <path d="M 43.645247 240.551542 
L 46.887368 229.42398 
L 50.12949 227.34431 
L 53.371611 222.348397 
L 56.613733 217.686693 
L 59.855854 216.768375 
L 63.097976 216.863721 
L 66.340097 217.354556 
L 69.582219 218.047082 
L 72.82434 218.852922 
L 76.066462 219.714499 
L 79.308583 220.617415 
L 82.550705 221.532394 
L 85.792826 222.431935 
L 89.034948 223.325552 
L 92.277069 224.183964 
L 95.519191 225.021971 
L 98.761312 225.825936 
L 102.003434 226.581345 
L 105.245555 227.309515 
L 108.487677 227.999291 
L 111.729798 228.638618 
L 114.97192 229.251949 
L 118.214041 229.829302 
L 121.456163 230.359928 
L 124.698285 230.868182 
L 127.940406 231.344815 
L 131.182528 231.791478 
L 134.424649 232.231519 
L 137.666771 232.592771 
L 140.908892 232.958808 
L 144.151014 233.292698 
L 147.393135 233.614193 
L 150.635257 233.915377 
L 153.877378 234.18967 
L 157.1195 234.45423 
L 160.361621 234.702213 
L 163.603743 234.933735 
L 166.845864 235.141675 
L 170.087986 235.3446 
L 173.330107 235.535954 
L 176.572229 235.715847 
L 179.81435 235.883809 
L 183.056472 236.046078 
L 186.298593 236.193481 
L 189.540715 236.335405 
L 192.782836 236.4691 
L 196.024958 236.595169 
L 199.267079 236.714166 
L 202.509201 236.826426 
L 205.751323 236.932733 
L 208.993444 237.033489 
L 212.235566 237.133264 
L 215.477687 237.205297 
L 218.719809 237.294666 
L 221.96193 237.375233 
L 225.204052 237.450462 
L 228.446173 237.521898 
L 231.688295 237.588946 
L 234.930416 237.654382 
L 238.172538 237.71838 
L 241.414659 237.723841 
L 244.656781 237.817353 
L 247.898902 237.871143 
L 251.141024 237.921548 
L 254.383145 237.968757 
L 257.625267 238.016572 
L 260.867388 238.059545 
L 264.10951 238.100789 
L 267.351631 238.14069 
L 270.593753 238.183067 
L 273.835874 238.220648 
L 277.077996 238.257325 
L 280.320117 238.293332 
L 283.562239 238.328887 
L 286.80436 238.369584 
L 290.046482 238.405057 
L 293.288604 238.422192 
L 296.530725 238.474347 
L 299.772847 238.51263 
L 303.014968 238.547554 
L 306.25709 238.63463 
L 309.499211 238.623908 
L 312.741333 238.666872 
L 315.983454 238.704973 
L 319.225576 238.75103 
L 322.467697 238.790153 
L 325.709819 238.839685 
L 328.95194 238.87152 
L 332.194062 238.897473 
L 335.436183 238.926373 
L 338.678305 238.953762 
L 341.920426 238.979093 
L 345.162548 239.002515 
L 348.404669 239.024378 
L 351.646791 239.045071 
L 354.888912 239.06495 
L 358.131034 239.075603 
L 361.373155 239.094473 
L 364.615277 239.113174 
L 367.857398 239.131806 
" clip-path="url(#p108396f5ae)" style="fill: none; stroke: #febd2a; stroke-width: 0.7; stroke-linecap: square"/>
   </g>
   <g id="line2d_30">
    <path d="M 43.645247 240.518521 
L 46.887368 233.201417 
L 50.12949 232.985952 
L 53.371611 232.336272 
L 56.613733 232.031301 
L 59.855854 232.182124 
L 63.097976 232.417527 
L 66.340097 232.695483 
L 69.582219 232.992712 
L 72.82434 233.31133 
L 76.066462 233.634753 
L 79.308583 233.965464 
L 82.550705 234.288647 
L 85.792826 234.611898 
L 89.034948 234.920402 
L 92.277069 235.223727 
L 95.519191 235.514528 
L 98.761312 235.791804 
L 102.003434 236.054845 
L 105.245555 236.296794 
L 108.487677 236.530701 
L 111.729798 236.744592 
L 114.97192 236.950593 
L 118.214041 237.138245 
L 121.456163 237.318499 
L 124.698285 237.482373 
L 127.940406 237.639418 
L 131.182528 237.78574 
L 134.424649 237.927553 
L 137.666771 238.046218 
L 140.908892 238.163786 
L 144.151014 238.270338 
L 147.393135 238.370793 
L 150.635257 238.465377 
L 153.877378 238.553977 
L 157.1195 238.636806 
L 160.361621 238.714206 
L 163.603743 238.787102 
L 166.845864 238.854443 
L 170.087986 238.917129 
L 173.330107 238.975736 
L 176.572229 239.030527 
L 179.81435 239.08137 
L 183.056472 239.128684 
L 186.298593 239.173647 
L 189.540715 239.215811 
L 192.782836 239.255452 
L 196.024958 239.292748 
L 199.267079 239.330406 
L 202.509201 239.363552 
L 205.751323 239.394809 
L 208.993444 239.424288 
L 212.235566 239.454989 
L 215.477687 239.479572 
L 218.719809 239.504904 
L 221.96193 239.530797 
L 225.204052 239.553049 
L 228.446173 239.573607 
L 231.688295 239.595837 
L 234.930416 239.614487 
L 238.172538 239.631986 
L 241.414659 239.651721 
L 244.656781 239.665385 
L 247.898902 239.680401 
L 251.141024 239.696875 
L 254.383145 239.710055 
L 257.625267 239.722474 
L 260.867388 239.736229 
L 264.10951 239.747324 
L 267.351631 239.757711 
L 270.593753 239.769736 
L 273.835874 239.778971 
L 277.077996 239.787652 
L 280.320117 239.79591 
L 283.562239 239.80608 
L 286.80436 239.813535 
L 290.046482 239.820578 
L 293.288604 239.827155 
L 296.530725 239.836398 
L 299.772847 239.842919 
L 303.014968 239.848621 
L 306.25709 239.864141 
L 309.499211 239.862976 
L 312.741333 239.87165 
L 315.983454 239.882761 
L 319.225576 239.897071 
L 322.467697 239.919738 
L 325.709819 239.937493 
L 328.95194 239.955498 
L 332.194062 239.964335 
L 335.436183 239.971134 
L 338.678305 239.976628 
L 341.920426 239.973068 
L 345.162548 239.980166 
L 348.404669 239.978422 
L 351.646791 239.982389 
L 354.888912 239.986889 
L 358.131034 239.991903 
L 361.373155 239.997156 
L 364.615277 240.007616 
L 367.857398 240.013289 
" clip-path="url(#p108396f5ae)" style="fill: none; stroke: #f0f921; stroke-width: 0.7; stroke-linecap: square"/>
   </g>
   <g id="patch_3">
    <path d="M 40.403125 244.301082 
L 40.403125 3.6 
" style="fill: none; stroke: #000000; stroke-width: 0.8; stroke-linejoin: miter; stroke-linecap: square"/>
   </g>
   <g id="patch_4">
    <path d="M 371.09952 244.301082 
L 371.09952 3.6 
" style="fill: none; stroke: #000000; stroke-width: 0.8; stroke-linejoin: miter; stroke-linecap: square"/>
   </g>
   <g id="patch_5">
    <path d="M 40.403125 244.301082 
L 371.09952 244.301082 
" style="fill: none; stroke: #000000; stroke-width: 0.8; stroke-linejoin: miter; stroke-linecap: square"/>
   </g>
   <g id="patch_6">
    <path d="M 40.403125 3.6 
L 371.09952 3.6 
" style="fill: none; stroke: #000000; stroke-width: 0.8; stroke-linejoin: miter; stroke-linecap: square"/>
   </g>
   <g id="legend_1">
    <g id="patch_7">
     <path d="M 378.09952 144.925 
L 441.99952 144.925 
Q 443.99952 144.925 443.99952 142.925 
L 443.99952 10.6 
Q 443.99952 8.6 441.99952 8.6 
L 378.09952 8.6 
Q 376.09952 8.6 376.09952 10.6 
L 376.09952 142.925 
Q 376.09952 144.925 378.09952 144.925 
z
" style="fill: #ffffff; opacity: 0.8; stroke: #cccccc; stroke-linejoin: miter"/>
    </g>
    <g id="text_14">
     <!-- $I_\mathrm{tot}$ (W/m$^2$) -->
     <g transform="translate(384.04952 21.420312) scale(0.1 -0.1)">
      <defs>
       <path id="DejaVuSans-Oblique-49" d="M 1081 4666 
L 1716 4666 
L 806 0 
L 172 0 
L 1081 4666 
z
" transform="scale(0.015625)"/>
       <path id="DejaVuSans-74" d="M 1172 4494 
L 1172 3500 
L 2356 3500 
L 2356 3053 
L 1172 3053 
L 1172 1153 
Q 1172 725 1289 603 
Q 1406 481 1766 481 
L 2356 481 
L 2356 0 
L 1766 0 
Q 1100 0 847 248 
Q 594 497 594 1153 
L 594 3053 
L 172 3053 
L 172 3500 
L 594 3500 
L 594 4494 
L 1172 4494 
z
" transform="scale(0.015625)"/>
       <path id="DejaVuSans-6f" d="M 1959 3097 
Q 1497 3097 1228 2736 
Q 959 2375 959 1747 
Q 959 1119 1226 758 
Q 1494 397 1959 397 
Q 2419 397 2687 759 
Q 2956 1122 2956 1747 
Q 2956 2369 2687 2733 
Q 2419 3097 1959 3097 
z
M 1959 3584 
Q 2709 3584 3137 3096 
Q 3566 2609 3566 1747 
Q 3566 888 3137 398 
Q 2709 -91 1959 -91 
Q 1206 -91 779 398 
Q 353 888 353 1747 
Q 353 2609 779 3096 
Q 1206 3584 1959 3584 
z
" transform="scale(0.015625)"/>
       <path id="DejaVuSerif-57" d="M 4878 0 
L 4366 0 
L 3297 3794 
L 2228 0 
L 1716 0 
L 494 4331 
L 31 4331 
L 31 4666 
L 1734 4666 
L 1734 4331 
L 1153 4331 
L 2125 884 
L 3188 4666 
L 3694 4666 
L 4775 844 
L 5753 4331 
L 5216 4331 
L 5216 4666 
L 6559 4666 
L 6559 4331 
L 6100 4331 
L 4878 0 
z
" transform="scale(0.015625)"/>
       <path id="DejaVuSerif-2f" d="M 1656 4666 
L 2156 4666 
L 500 -594 
L 0 -594 
L 1656 4666 
z
" transform="scale(0.015625)"/>
       <path id="DejaVuSerif-6d" d="M 3316 2675 
Q 3481 3041 3739 3227 
Q 3997 3413 4341 3413 
Q 4863 3413 5119 3089 
Q 5375 2766 5375 2113 
L 5375 331 
L 5894 331 
L 5894 0 
L 4300 0 
L 4300 331 
L 4800 331 
L 4800 2047 
Q 4800 2556 4650 2772 
Q 4500 2988 4153 2988 
Q 3769 2988 3567 2697 
Q 3366 2406 3366 1850 
L 3366 331 
L 3866 331 
L 3866 0 
L 2291 0 
L 2291 331 
L 2791 331 
L 2791 2069 
Q 2791 2566 2641 2777 
Q 2491 2988 2144 2988 
Q 1759 2988 1557 2697 
Q 1356 2406 1356 1850 
L 1356 331 
L 1856 331 
L 1856 0 
L 263 0 
L 263 331 
L 781 331 
L 781 2994 
L 231 2994 
L 231 3322 
L 1356 3322 
L 1356 2731 
Q 1516 3063 1762 3238 
Q 2009 3413 2322 3413 
Q 2709 3413 2968 3220 
Q 3228 3028 3316 2675 
z
" transform="scale(0.015625)"/>
      </defs>
      <use xlink:href="#DejaVuSans-Oblique-49" transform="translate(0 0.765625)"/>
      <use xlink:href="#DejaVuSans-74" transform="translate(29.492188 -15.640625) scale(0.7)"/>
      <use xlink:href="#DejaVuSans-6f" transform="translate(56.938477 -15.640625) scale(0.7)"/>
      <use xlink:href="#DejaVuSans-74" transform="translate(99.765625 -15.640625) scale(0.7)"/>
      <use xlink:href="#DejaVuSerif-20" transform="translate(129.946289 0.765625)"/>
      <use xlink:href="#DejaVuSerif-28" transform="translate(161.733398 0.765625)"/>
      <use xlink:href="#DejaVuSerif-57" transform="translate(200.74707 0.765625)"/>
      <use xlink:href="#DejaVuSerif-2f" transform="translate(303.530273 0.765625)"/>
      <use xlink:href="#DejaVuSerif-6d" transform="translate(337.22168 0.765625)"/>
      <use xlink:href="#DejaVuSans-32" transform="translate(433.00293 39.046875) scale(0.7)"/>
      <use xlink:href="#DejaVuSerif-29" transform="translate(480.273438 0.765625)"/>
     </g>
    </g>
    <g id="line2d_31">
     <path d="M 380.09952 32.598437 
L 390.09952 32.598437 
L 400.09952 32.598437 
" style="fill: none; stroke: #0d0887; stroke-width: 0.7; stroke-linecap: square"/>
    </g>
    <g id="text_15">
     <!-- $10000$ -->
     <g transform="translate(408.09952 36.098437) scale(0.1 -0.1)">
      <defs>
       <path id="DejaVuSans-31" d="M 794 531 
L 1825 531 
L 1825 4091 
L 703 3866 
L 703 4441 
L 1819 4666 
L 2450 4666 
L 2450 531 
L 3481 531 
L 3481 0 
L 794 0 
L 794 531 
z
" transform="scale(0.015625)"/>
       <path id="DejaVuSans-30" d="M 2034 4250 
Q 1547 4250 1301 3770 
Q 1056 3291 1056 2328 
Q 1056 1369 1301 889 
Q 1547 409 2034 409 
Q 2525 409 2770 889 
Q 3016 1369 3016 2328 
Q 3016 3291 2770 3770 
Q 2525 4250 2034 4250 
z
M 2034 4750 
Q 2819 4750 3233 4129 
Q 3647 3509 3647 2328 
Q 3647 1150 3233 529 
Q 2819 -91 2034 -91 
Q 1250 -91 836 529 
Q 422 1150 422 2328 
Q 422 3509 836 4129 
Q 1250 4750 2034 4750 
z
" transform="scale(0.015625)"/>
      </defs>
      <use xlink:href="#DejaVuSans-31" transform="translate(0 0.78125)"/>
      <use xlink:href="#DejaVuSans-30" transform="translate(63.623047 0.78125)"/>
      <use xlink:href="#DejaVuSans-30" transform="translate(127.246094 0.78125)"/>
      <use xlink:href="#DejaVuSans-30" transform="translate(190.869141 0.78125)"/>
      <use xlink:href="#DejaVuSans-30" transform="translate(254.492188 0.78125)"/>
     </g>
    </g>
    <g id="line2d_32">
     <path d="M 380.09952 47.276562 
L 390.09952 47.276562 
L 400.09952 47.276562 
" style="fill: none; stroke: #5302a3; stroke-width: 0.7; stroke-linecap: square"/>
    </g>
    <g id="text_16">
     <!-- $3162$ -->
     <g transform="translate(408.09952 50.776562) scale(0.1 -0.1)">
      <defs>
       <path id="DejaVuSans-33" d="M 2597 2516 
Q 3050 2419 3304 2112 
Q 3559 1806 3559 1356 
Q 3559 666 3084 287 
Q 2609 -91 1734 -91 
Q 1441 -91 1130 -33 
Q 819 25 488 141 
L 488 750 
Q 750 597 1062 519 
Q 1375 441 1716 441 
Q 2309 441 2620 675 
Q 2931 909 2931 1356 
Q 2931 1769 2642 2001 
Q 2353 2234 1838 2234 
L 1294 2234 
L 1294 2753 
L 1863 2753 
Q 2328 2753 2575 2939 
Q 2822 3125 2822 3475 
Q 2822 3834 2567 4026 
Q 2313 4219 1838 4219 
Q 1578 4219 1281 4162 
Q 984 4106 628 3988 
L 628 4550 
Q 988 4650 1302 4700 
Q 1616 4750 1894 4750 
Q 2613 4750 3031 4423 
Q 3450 4097 3450 3541 
Q 3450 3153 3228 2886 
Q 3006 2619 2597 2516 
z
" transform="scale(0.015625)"/>
       <path id="DejaVuSans-36" d="M 2113 2584 
Q 1688 2584 1439 2293 
Q 1191 2003 1191 1497 
Q 1191 994 1439 701 
Q 1688 409 2113 409 
Q 2538 409 2786 701 
Q 3034 994 3034 1497 
Q 3034 2003 2786 2293 
Q 2538 2584 2113 2584 
z
M 3366 4563 
L 3366 3988 
Q 3128 4100 2886 4159 
Q 2644 4219 2406 4219 
Q 1781 4219 1451 3797 
Q 1122 3375 1075 2522 
Q 1259 2794 1537 2939 
Q 1816 3084 2150 3084 
Q 2853 3084 3261 2657 
Q 3669 2231 3669 1497 
Q 3669 778 3244 343 
Q 2819 -91 2113 -91 
Q 1303 -91 875 529 
Q 447 1150 447 2328 
Q 447 3434 972 4092 
Q 1497 4750 2381 4750 
Q 2619 4750 2861 4703 
Q 3103 4656 3366 4563 
z
" transform="scale(0.015625)"/>
      </defs>
      <use xlink:href="#DejaVuSans-33" transform="translate(0 0.78125)"/>
      <use xlink:href="#DejaVuSans-31" transform="translate(63.623047 0.78125)"/>
      <use xlink:href="#DejaVuSans-36" transform="translate(127.246094 0.78125)"/>
      <use xlink:href="#DejaVuSans-32" transform="translate(190.869141 0.78125)"/>
     </g>
    </g>
    <g id="line2d_33">
     <path d="M 380.09952 61.954687 
L 390.09952 61.954687 
L 400.09952 61.954687 
" style="fill: none; stroke: #8b0aa5; stroke-width: 0.7; stroke-linecap: square"/>
    </g>
    <g id="text_17">
     <!-- $1000$ -->
     <g transform="translate(408.09952 65.454687) scale(0.1 -0.1)">
      <use xlink:href="#DejaVuSans-31" transform="translate(0 0.78125)"/>
      <use xlink:href="#DejaVuSans-30" transform="translate(63.623047 0.78125)"/>
      <use xlink:href="#DejaVuSans-30" transform="translate(127.246094 0.78125)"/>
      <use xlink:href="#DejaVuSans-30" transform="translate(190.869141 0.78125)"/>
     </g>
    </g>
    <g id="line2d_34">
     <path d="M 380.09952 76.632812 
L 390.09952 76.632812 
L 400.09952 76.632812 
" style="fill: none; stroke: #b83289; stroke-width: 0.7; stroke-linecap: square"/>
    </g>
    <g id="text_18">
     <!-- $316$ -->
     <g transform="translate(408.09952 80.132812) scale(0.1 -0.1)">
      <use xlink:href="#DejaVuSans-33" transform="translate(0 0.78125)"/>
      <use xlink:href="#DejaVuSans-31" transform="translate(63.623047 0.78125)"/>
      <use xlink:href="#DejaVuSans-36" transform="translate(127.246094 0.78125)"/>
     </g>
    </g>
    <g id="line2d_35">
     <path d="M 380.09952 91.310937 
L 390.09952 91.310937 
L 400.09952 91.310937 
" style="fill: none; stroke: #db5c68; stroke-width: 0.7; stroke-linecap: square"/>
    </g>
    <g id="text_19">
     <!-- $100$ -->
     <g transform="translate(408.09952 94.810937) scale(0.1 -0.1)">
      <use xlink:href="#DejaVuSans-31" transform="translate(0 0.78125)"/>
      <use xlink:href="#DejaVuSans-30" transform="translate(63.623047 0.78125)"/>
      <use xlink:href="#DejaVuSans-30" transform="translate(127.246094 0.78125)"/>
     </g>
    </g>
    <g id="line2d_36">
     <path d="M 380.09952 105.989062 
L 390.09952 105.989062 
L 400.09952 105.989062 
" style="fill: none; stroke: #f48849; stroke-width: 0.7; stroke-linecap: square"/>
    </g>
    <g id="text_20">
     <!-- $32$ -->
     <g transform="translate(408.09952 109.489062) scale(0.1 -0.1)">
      <use xlink:href="#DejaVuSans-33" transform="translate(0 0.78125)"/>
      <use xlink:href="#DejaVuSans-32" transform="translate(63.623047 0.78125)"/>
     </g>
    </g>
    <g id="line2d_37">
     <path d="M 380.09952 120.667187 
L 390.09952 120.667187 
L 400.09952 120.667187 
" style="fill: none; stroke: #febd2a; stroke-width: 0.7; stroke-linecap: square"/>
    </g>
    <g id="text_21">
     <!-- $10$ -->
     <g transform="translate(408.09952 124.167187) scale(0.1 -0.1)">
      <use xlink:href="#DejaVuSans-31" transform="translate(0 0.78125)"/>
      <use xlink:href="#DejaVuSans-30" transform="translate(63.623047 0.78125)"/>
     </g>
    </g>
    <g id="line2d_38">
     <path d="M 380.09952 135.345312 
L 390.09952 135.345312 
L 400.09952 135.345312 
" style="fill: none; stroke: #f0f921; stroke-width: 0.7; stroke-linecap: square"/>
    </g>
    <g id="text_22">
     <!-- $3$ -->
     <g transform="translate(408.09952 138.845312) scale(0.1 -0.1)">
      <use xlink:href="#DejaVuSans-33" transform="translate(0 0.78125)"/>
     </g>
    </g>
   </g>
  </g>
 </g>
 <defs>
  <clipPath id="p108396f5ae">
   <rect x="40.403125" y="3.6" width="330.696395" height="240.701082"/>
  </clipPath>
 </defs>
</svg>
