<?xml version="1.0" encoding="utf-8" standalone="no"?>
<!DOCTYPE svg PUBLIC "-//W3C//DTD SVG 1.1//EN"
  "http://www.w3.org/Graphics/SVG/1.1/DTD/svg11.dtd">
<svg xmlns:xlink="http://www.w3.org/1999/xlink" width="447.599743pt" height="278.39952pt" viewBox="0 0 447.599743 278.39952" xmlns="http://www.w3.org/2000/svg" version="1.1">
 <metadata>
  <rdf:RDF xmlns:dc="http://purl.org/dc/elements/1.1/" xmlns:cc="http://creativecommons.org/ns#" xmlns:rdf="http://www.w3.org/1999/02/22-rdf-syntax-ns#">
   <cc:Work>
    <dc:type rdf:resource="http://purl.org/dc/dcmitype/StillImage"/>
    <dc:date>2025-09-16T12:13:02.947910</dc:date>
    <dc:format>image/svg+xml</dc:format>
    <dc:creator>
     <cc:Agent>
      <dc:title>Matplotlib v3.9.4, https://matplotlib.org/</dc:title>
     </cc:Agent>
    </dc:creator>
   </cc:Work>
  </rdf:RDF>
 </metadata>
 <defs>
  <style type="text/css">*{stroke-linejoin: round; stroke-linecap: butt}</style>
 </defs>
 <g id="figure_1">
  <g id="patch_1">
   <path d="M 0 278.39952 
L 447.599743 278.39952 
L 447.599743 0 
L 0 0 
z
" style="fill: #ffffff"/>
  </g>
  <g id="axes_1">
   <g id="patch_2">
    <path d="M 43.507813 244.44327 
L 439.289974 244.44327 
L 439.289974 3.6 
L 43.507813 3.6 
z
" style="fill: #ffffff"/>
   </g>
   <g id="patch_3">
    <path d="M 43.507813 200.999768 
L 439.289974 200.999768 
L 439.289974 209.17944 
L 43.507813 209.17944 
z
" clip-path="url(#p30ea274259)" style="fill: #1f77b4; opacity: 0.25; stroke: #1f77b4; stroke-linejoin: miter"/>
   </g>
   <g id="patch_4">
    <path d="M 43.507813 7.334004 
L 439.289974 7.334004 
L 439.289974 69.884437 
L 43.507813 69.884437 
z
" clip-path="url(#p30ea274259)" style="fill: #ff7f0e; opacity: 0.25; stroke: #ff7f0e; stroke-linejoin: miter"/>
   </g>
   <g id="matplotlib.axis_1">
    <g id="xtick_1">
     <g id="line2d_1">
      <path d="M 47.737546 244.44327 
L 47.737546 3.6 
" clip-path="url(#p30ea274259)" style="fill: none; stroke-dasharray: 1.85,0.8; stroke-dashoffset: 0; stroke: #b0b0b0; stroke-opacity: 0.7; stroke-width: 0.5"/>
     </g>
     <g id="line2d_2">
      <defs>
       <path id="ma8c3bf24cf" d="M 0 0 
L 0 3.5 
" style="stroke: #000000; stroke-width: 0.8"/>
      </defs>
      <g>
       <use xlink:href="#ma8c3bf24cf" x="47.737546" y="244.44327" style="stroke: #000000; stroke-width: 0.8"/>
      </g>
     </g>
     <g id="text_1">
      <!-- 40 -->
      <g transform="translate(41.375046 259.041707) scale(0.1 -0.1)">
       <defs>
        <path id="DejaVuSerif-34" d="M 2234 1581 
L 2234 4063 
L 641 1581 
L 2234 1581 
z
M 3609 0 
L 1484 0 
L 1484 331 
L 2234 331 
L 2234 1247 
L 197 1247 
L 197 1588 
L 2241 4750 
L 2859 4750 
L 2859 1581 
L 3750 1581 
L 3750 1247 
L 2859 1247 
L 2859 331 
L 3609 331 
L 3609 0 
z
" transform="scale(0.015625)"/>
        <path id="DejaVuSerif-30" d="M 2034 219 
Q 2513 219 2750 744 
Q 2988 1269 2988 2328 
Q 2988 3391 2750 3916 
Q 2513 4441 2034 4441 
Q 1556 4441 1318 3916 
Q 1081 3391 1081 2328 
Q 1081 1269 1318 744 
Q 1556 219 2034 219 
z
M 2034 -91 
Q 1275 -91 848 546 
Q 422 1184 422 2328 
Q 422 3475 848 4112 
Q 1275 4750 2034 4750 
Q 2797 4750 3222 4112 
Q 3647 3475 3647 2328 
Q 3647 1184 3222 546 
Q 2797 -91 2034 -91 
z
" transform="scale(0.015625)"/>
       </defs>
       <use xlink:href="#DejaVuSerif-34"/>
       <use xlink:href="#DejaVuSerif-30" x="63.623047"/>
      </g>
     </g>
    </g>
    <g id="xtick_2">
     <g id="line2d_3">
      <path d="M 96.077351 244.44327 
L 96.077351 3.6 
" clip-path="url(#p30ea274259)" style="fill: none; stroke-dasharray: 1.85,0.8; stroke-dashoffset: 0; stroke: #b0b0b0; stroke-opacity: 0.7; stroke-width: 0.5"/>
     </g>
     <g id="line2d_4">
      <g>
       <use xlink:href="#ma8c3bf24cf" x="96.077351" y="244.44327" style="stroke: #000000; stroke-width: 0.8"/>
      </g>
     </g>
     <g id="text_2">
      <!-- 60 -->
      <g transform="translate(89.714851 259.041707) scale(0.1 -0.1)">
       <defs>
        <path id="DejaVuSerif-36" d="M 2094 219 
Q 2534 219 2771 542 
Q 3009 866 3009 1472 
Q 3009 2078 2771 2401 
Q 2534 2725 2094 2725 
Q 1647 2725 1412 2412 
Q 1178 2100 1178 1509 
Q 1178 888 1415 553 
Q 1653 219 2094 219 
z
M 1075 2569 
Q 1288 2803 1556 2918 
Q 1825 3034 2163 3034 
Q 2859 3034 3264 2615 
Q 3669 2197 3669 1472 
Q 3669 763 3233 336 
Q 2797 -91 2069 -91 
Q 1278 -91 853 498 
Q 428 1088 428 2181 
Q 428 3406 931 4078 
Q 1434 4750 2350 4750 
Q 2597 4750 2869 4703 
Q 3141 4656 3425 4563 
L 3425 3794 
L 3072 3794 
Q 3034 4109 2831 4275 
Q 2628 4441 2284 4441 
Q 1678 4441 1381 3981 
Q 1084 3522 1075 2569 
z
" transform="scale(0.015625)"/>
       </defs>
       <use xlink:href="#DejaVuSerif-36"/>
       <use xlink:href="#DejaVuSerif-30" x="63.623047"/>
      </g>
     </g>
    </g>
    <g id="xtick_3">
     <g id="line2d_5">
      <path d="M 144.417157 244.44327 
L 144.417157 3.6 
" clip-path="url(#p30ea274259)" style="fill: none; stroke-dasharray: 1.85,0.8; stroke-dashoffset: 0; stroke: #b0b0b0; stroke-opacity: 0.7; stroke-width: 0.5"/>
     </g>
     <g id="line2d_6">
      <g>
       <use xlink:href="#ma8c3bf24cf" x="144.417157" y="244.44327" style="stroke: #000000; stroke-width: 0.8"/>
      </g>
     </g>
     <g id="text_3">
      <!-- 80 -->
      <g transform="translate(138.054657 259.041707) scale(0.1 -0.1)">
       <defs>
        <path id="DejaVuSerif-38" d="M 2981 1275 
Q 2981 1775 2732 2051 
Q 2484 2328 2034 2328 
Q 1584 2328 1336 2051 
Q 1088 1775 1088 1275 
Q 1088 772 1336 495 
Q 1584 219 2034 219 
Q 2484 219 2732 495 
Q 2981 772 2981 1275 
z
M 2853 3541 
Q 2853 3966 2637 4203 
Q 2422 4441 2034 4441 
Q 1650 4441 1433 4203 
Q 1216 3966 1216 3541 
Q 1216 3113 1433 2875 
Q 1650 2638 2034 2638 
Q 2422 2638 2637 2875 
Q 2853 3113 2853 3541 
z
M 2516 2484 
Q 3047 2413 3344 2092 
Q 3641 1772 3641 1275 
Q 3641 619 3225 264 
Q 2809 -91 2034 -91 
Q 1263 -91 845 264 
Q 428 619 428 1275 
Q 428 1772 725 2092 
Q 1022 2413 1556 2484 
Q 1084 2569 832 2842 
Q 581 3116 581 3541 
Q 581 4103 968 4426 
Q 1356 4750 2034 4750 
Q 2713 4750 3100 4426 
Q 3488 4103 3488 3541 
Q 3488 3116 3236 2842 
Q 2984 2569 2516 2484 
z
" transform="scale(0.015625)"/>
       </defs>
       <use xlink:href="#DejaVuSerif-38"/>
       <use xlink:href="#DejaVuSerif-30" x="63.623047"/>
      </g>
     </g>
    </g>
    <g id="xtick_4">
     <g id="line2d_7">
      <path d="M 192.756963 244.44327 
L 192.756963 3.6 
" clip-path="url(#p30ea274259)" style="fill: none; stroke-dasharray: 1.85,0.8; stroke-dashoffset: 0; stroke: #b0b0b0; stroke-opacity: 0.7; stroke-width: 0.5"/>
     </g>
     <g id="line2d_8">
      <g>
       <use xlink:href="#ma8c3bf24cf" x="192.756963" y="244.44327" style="stroke: #000000; stroke-width: 0.8"/>
      </g>
     </g>
     <g id="text_4">
      <!-- 100 -->
      <g transform="translate(183.213213 259.041707) scale(0.1 -0.1)">
       <defs>
        <path id="DejaVuSerif-31" d="M 909 0 
L 909 331 
L 1722 331 
L 1722 4213 
L 781 3603 
L 781 4013 
L 1919 4750 
L 2350 4750 
L 2350 331 
L 3163 331 
L 3163 0 
L 909 0 
z
" transform="scale(0.015625)"/>
       </defs>
       <use xlink:href="#DejaVuSerif-31"/>
       <use xlink:href="#DejaVuSerif-30" x="63.623047"/>
       <use xlink:href="#DejaVuSerif-30" x="127.246094"/>
      </g>
     </g>
    </g>
    <g id="xtick_5">
     <g id="line2d_9">
      <path d="M 241.096769 244.44327 
L 241.096769 3.6 
" clip-path="url(#p30ea274259)" style="fill: none; stroke-dasharray: 1.85,0.8; stroke-dashoffset: 0; stroke: #b0b0b0; stroke-opacity: 0.7; stroke-width: 0.5"/>
     </g>
     <g id="line2d_10">
      <g>
       <use xlink:href="#ma8c3bf24cf" x="241.096769" y="244.44327" style="stroke: #000000; stroke-width: 0.8"/>
      </g>
     </g>
     <g id="text_5">
      <!-- 120 -->
      <g transform="translate(231.553019 259.041707) scale(0.1 -0.1)">
       <defs>
        <path id="DejaVuSerif-32" d="M 819 3553 
L 469 3553 
L 469 4384 
Q 803 4563 1142 4656 
Q 1481 4750 1806 4750 
Q 2534 4750 2956 4397 
Q 3378 4044 3378 3438 
Q 3378 2753 2422 1800 
Q 2347 1728 2309 1691 
L 1131 513 
L 3078 513 
L 3078 1088 
L 3444 1088 
L 3444 0 
L 434 0 
L 434 341 
L 1850 1753 
Q 2319 2222 2519 2614 
Q 2719 3006 2719 3438 
Q 2719 3909 2473 4175 
Q 2228 4441 1797 4441 
Q 1350 4441 1106 4219 
Q 863 3997 819 3553 
z
" transform="scale(0.015625)"/>
       </defs>
       <use xlink:href="#DejaVuSerif-31"/>
       <use xlink:href="#DejaVuSerif-32" x="63.623047"/>
       <use xlink:href="#DejaVuSerif-30" x="127.246094"/>
      </g>
     </g>
    </g>
    <g id="xtick_6">
     <g id="line2d_11">
      <path d="M 289.436575 244.44327 
L 289.436575 3.6 
" clip-path="url(#p30ea274259)" style="fill: none; stroke-dasharray: 1.85,0.8; stroke-dashoffset: 0; stroke: #b0b0b0; stroke-opacity: 0.7; stroke-width: 0.5"/>
     </g>
     <g id="line2d_12">
      <g>
       <use xlink:href="#ma8c3bf24cf" x="289.436575" y="244.44327" style="stroke: #000000; stroke-width: 0.8"/>
      </g>
     </g>
     <g id="text_6">
      <!-- 140 -->
      <g transform="translate(279.892825 259.041707) scale(0.1 -0.1)">
       <use xlink:href="#DejaVuSerif-31"/>
       <use xlink:href="#DejaVuSerif-34" x="63.623047"/>
       <use xlink:href="#DejaVuSerif-30" x="127.246094"/>
      </g>
     </g>
    </g>
    <g id="xtick_7">
     <g id="line2d_13">
      <path d="M 337.776381 244.44327 
L 337.776381 3.6 
" clip-path="url(#p30ea274259)" style="fill: none; stroke-dasharray: 1.85,0.8; stroke-dashoffset: 0; stroke: #b0b0b0; stroke-opacity: 0.7; stroke-width: 0.5"/>
     </g>
     <g id="line2d_14">
      <g>
       <use xlink:href="#ma8c3bf24cf" x="337.776381" y="244.44327" style="stroke: #000000; stroke-width: 0.8"/>
      </g>
     </g>
     <g id="text_7">
      <!-- 160 -->
      <g transform="translate(328.232631 259.041707) scale(0.1 -0.1)">
       <use xlink:href="#DejaVuSerif-31"/>
       <use xlink:href="#DejaVuSerif-36" x="63.623047"/>
       <use xlink:href="#DejaVuSerif-30" x="127.246094"/>
      </g>
     </g>
    </g>
    <g id="xtick_8">
     <g id="line2d_15">
      <path d="M 386.116187 244.44327 
L 386.116187 3.6 
" clip-path="url(#p30ea274259)" style="fill: none; stroke-dasharray: 1.85,0.8; stroke-dashoffset: 0; stroke: #b0b0b0; stroke-opacity: 0.7; stroke-width: 0.5"/>
     </g>
     <g id="line2d_16">
      <g>
       <use xlink:href="#ma8c3bf24cf" x="386.116187" y="244.44327" style="stroke: #000000; stroke-width: 0.8"/>
      </g>
     </g>
     <g id="text_8">
      <!-- 180 -->
      <g transform="translate(376.572437 259.041707) scale(0.1 -0.1)">
       <use xlink:href="#DejaVuSerif-31"/>
       <use xlink:href="#DejaVuSerif-38" x="63.623047"/>
       <use xlink:href="#DejaVuSerif-30" x="127.246094"/>
      </g>
     </g>
    </g>
    <g id="xtick_9">
     <g id="line2d_17">
      <path d="M 434.455993 244.44327 
L 434.455993 3.6 
" clip-path="url(#p30ea274259)" style="fill: none; stroke-dasharray: 1.85,0.8; stroke-dashoffset: 0; stroke: #b0b0b0; stroke-opacity: 0.7; stroke-width: 0.5"/>
     </g>
     <g id="line2d_18">
      <g>
       <use xlink:href="#ma8c3bf24cf" x="434.455993" y="244.44327" style="stroke: #000000; stroke-width: 0.8"/>
      </g>
     </g>
     <g id="text_9">
      <!-- 200 -->
      <g transform="translate(424.912243 259.041707) scale(0.1 -0.1)">
       <use xlink:href="#DejaVuSerif-32"/>
       <use xlink:href="#DejaVuSerif-30" x="63.623047"/>
       <use xlink:href="#DejaVuSerif-30" x="127.246094"/>
      </g>
     </g>
    </g>
    <g id="text_10">
     <!-- Time (us) -->
     <g transform="translate(217.487174 272.719832) scale(0.1 -0.1)">
      <defs>
       <path id="DejaVuSerif-54" d="M 1222 0 
L 1222 331 
L 1819 331 
L 1819 4294 
L 447 4294 
L 447 3566 
L 63 3566 
L 63 4666 
L 4206 4666 
L 4206 3566 
L 3822 3566 
L 3822 4294 
L 2450 4294 
L 2450 331 
L 3047 331 
L 3047 0 
L 1222 0 
z
" transform="scale(0.015625)"/>
       <path id="DejaVuSerif-69" d="M 622 4353 
Q 622 4497 726 4603 
Q 831 4709 978 4709 
Q 1122 4709 1226 4603 
Q 1331 4497 1331 4353 
Q 1331 4206 1228 4103 
Q 1125 4000 978 4000 
Q 831 4000 726 4103 
Q 622 4206 622 4353 
z
M 1356 331 
L 1900 331 
L 1900 0 
L 231 0 
L 231 331 
L 781 331 
L 781 2988 
L 231 2988 
L 231 3322 
L 1356 3322 
L 1356 331 
z
" transform="scale(0.015625)"/>
       <path id="DejaVuSerif-6d" d="M 3316 2675 
Q 3481 3041 3739 3227 
Q 3997 3413 4341 3413 
Q 4863 3413 5119 3089 
Q 5375 2766 5375 2113 
L 5375 331 
L 5894 331 
L 5894 0 
L 4300 0 
L 4300 331 
L 4800 331 
L 4800 2047 
Q 4800 2556 4650 2772 
Q 4500 2988 4153 2988 
Q 3769 2988 3567 2697 
Q 3366 2406 3366 1850 
L 3366 331 
L 3866 331 
L 3866 0 
L 2291 0 
L 2291 331 
L 2791 331 
L 2791 2069 
Q 2791 2566 2641 2777 
Q 2491 2988 2144 2988 
Q 1759 2988 1557 2697 
Q 1356 2406 1356 1850 
L 1356 331 
L 1856 331 
L 1856 0 
L 263 0 
L 263 331 
L 781 331 
L 781 2994 
L 231 2994 
L 231 3322 
L 1356 3322 
L 1356 2731 
Q 1516 3063 1762 3238 
Q 2009 3413 2322 3413 
Q 2709 3413 2968 3220 
Q 3228 3028 3316 2675 
z
" transform="scale(0.015625)"/>
       <path id="DejaVuSerif-65" d="M 3469 1600 
L 991 1600 
L 991 1575 
Q 991 903 1244 561 
Q 1497 219 1991 219 
Q 2369 219 2611 417 
Q 2853 616 2950 1006 
L 3413 1006 
Q 3275 459 2904 184 
Q 2534 -91 1931 -91 
Q 1203 -91 761 389 
Q 319 869 319 1663 
Q 319 2450 753 2931 
Q 1188 3413 1894 3413 
Q 2647 3413 3050 2948 
Q 3453 2484 3469 1600 
z
M 2791 1931 
Q 2772 2513 2545 2808 
Q 2319 3103 1894 3103 
Q 1497 3103 1269 2806 
Q 1041 2509 991 1931 
L 2791 1931 
z
" transform="scale(0.015625)"/>
       <path id="DejaVuSerif-20" transform="scale(0.015625)"/>
       <path id="DejaVuSerif-28" d="M 2041 -997 
Q 1281 -656 893 83 
Q 506 822 506 1931 
Q 506 3044 893 3783 
Q 1281 4522 2041 4863 
L 2041 4556 
Q 1559 4225 1350 3623 
Q 1141 3022 1141 1931 
Q 1141 844 1350 242 
Q 1559 -359 2041 -691 
L 2041 -997 
z
" transform="scale(0.015625)"/>
       <path id="DejaVuSerif-75" d="M 2266 3322 
L 3341 3322 
L 3341 331 
L 3884 331 
L 3884 0 
L 2766 0 
L 2766 588 
Q 2606 256 2353 82 
Q 2100 -91 1766 -91 
Q 1213 -91 952 223 
Q 691 538 691 1209 
L 691 2988 
L 172 2988 
L 172 3322 
L 1269 3322 
L 1269 1388 
Q 1269 781 1417 556 
Q 1566 331 1947 331 
Q 2347 331 2556 625 
Q 2766 919 2766 1478 
L 2766 2988 
L 2266 2988 
L 2266 3322 
z
" transform="scale(0.015625)"/>
       <path id="DejaVuSerif-73" d="M 359 184 
L 359 959 
L 691 959 
Q 703 588 923 403 
Q 1144 219 1575 219 
Q 1963 219 2166 364 
Q 2369 509 2369 788 
Q 2369 1006 2220 1140 
Q 2072 1275 1594 1428 
L 1178 1569 
Q 750 1706 558 1912 
Q 366 2119 366 2438 
Q 366 2894 700 3153 
Q 1034 3413 1625 3413 
Q 1888 3413 2178 3344 
Q 2469 3275 2778 3144 
L 2778 2419 
L 2447 2419 
Q 2434 2741 2221 2922 
Q 2009 3103 1644 3103 
Q 1281 3103 1095 2975 
Q 909 2847 909 2591 
Q 909 2381 1050 2254 
Q 1191 2128 1613 1997 
L 2069 1856 
Q 2541 1709 2748 1489 
Q 2956 1269 2956 922 
Q 2956 450 2595 179 
Q 2234 -91 1600 -91 
Q 1278 -91 972 -22 
Q 666 47 359 184 
z
" transform="scale(0.015625)"/>
       <path id="DejaVuSerif-29" d="M 453 -997 
L 453 -691 
Q 934 -359 1145 242 
Q 1356 844 1356 1931 
Q 1356 3022 1145 3623 
Q 934 4225 453 4556 
L 453 4863 
Q 1216 4522 1603 3783 
Q 1991 3044 1991 1931 
Q 1991 822 1603 83 
Q 1216 -656 453 -997 
z
" transform="scale(0.015625)"/>
      </defs>
      <use xlink:href="#DejaVuSerif-54"/>
      <use xlink:href="#DejaVuSerif-69" x="66.699219"/>
      <use xlink:href="#DejaVuSerif-6d" x="98.681641"/>
      <use xlink:href="#DejaVuSerif-65" x="193.505859"/>
      <use xlink:href="#DejaVuSerif-20" x="252.685547"/>
      <use xlink:href="#DejaVuSerif-28" x="284.472656"/>
      <use xlink:href="#DejaVuSerif-75" x="323.486328"/>
      <use xlink:href="#DejaVuSerif-73" x="387.890625"/>
      <use xlink:href="#DejaVuSerif-29" x="439.208984"/>
     </g>
    </g>
   </g>
   <g id="matplotlib.axis_2">
    <g id="ytick_1">
     <g id="line2d_19">
      <path d="M 43.507813 240.695236 
L 439.289974 240.695236 
" clip-path="url(#p30ea274259)" style="fill: none; stroke-dasharray: 1.85,0.8; stroke-dashoffset: 0; stroke: #b0b0b0; stroke-opacity: 0.7; stroke-width: 0.5"/>
     </g>
     <g id="line2d_20">
      <defs>
       <path id="m11e3e5756e" d="M 0 0 
L -3.5 0 
" style="stroke: #000000; stroke-width: 0.8"/>
      </defs>
      <g>
       <use xlink:href="#m11e3e5756e" x="43.507813" y="240.695236" style="stroke: #000000; stroke-width: 0.8"/>
      </g>
     </g>
     <g id="text_11">
      <!-- 0 -->
      <g transform="translate(30.145313 244.494454) scale(0.1 -0.1)">
       <use xlink:href="#DejaVuSerif-30"/>
      </g>
     </g>
    </g>
    <g id="ytick_2">
     <g id="line2d_21">
      <path d="M 43.507813 208.942853 
L 439.289974 208.942853 
" clip-path="url(#p30ea274259)" style="fill: none; stroke-dasharray: 1.85,0.8; stroke-dashoffset: 0; stroke: #b0b0b0; stroke-opacity: 0.7; stroke-width: 0.5"/>
     </g>
     <g id="line2d_22">
      <g>
       <use xlink:href="#m11e3e5756e" x="43.507813" y="208.942853" style="stroke: #000000; stroke-width: 0.8"/>
      </g>
     </g>
     <g id="text_12">
      <!-- 20 -->
      <g transform="translate(23.782813 212.742072) scale(0.1 -0.1)">
       <use xlink:href="#DejaVuSerif-32"/>
       <use xlink:href="#DejaVuSerif-30" x="63.623047"/>
      </g>
     </g>
    </g>
    <g id="ytick_3">
     <g id="line2d_23">
      <path d="M 43.507813 177.190471 
L 439.289974 177.190471 
" clip-path="url(#p30ea274259)" style="fill: none; stroke-dasharray: 1.85,0.8; stroke-dashoffset: 0; stroke: #b0b0b0; stroke-opacity: 0.7; stroke-width: 0.5"/>
     </g>
     <g id="line2d_24">
      <g>
       <use xlink:href="#m11e3e5756e" x="43.507813" y="177.190471" style="stroke: #000000; stroke-width: 0.8"/>
      </g>
     </g>
     <g id="text_13">
      <!-- 40 -->
      <g transform="translate(23.782813 180.98969) scale(0.1 -0.1)">
       <use xlink:href="#DejaVuSerif-34"/>
       <use xlink:href="#DejaVuSerif-30" x="63.623047"/>
      </g>
     </g>
    </g>
    <g id="ytick_4">
     <g id="line2d_25">
      <path d="M 43.507813 145.438089 
L 439.289974 145.438089 
" clip-path="url(#p30ea274259)" style="fill: none; stroke-dasharray: 1.85,0.8; stroke-dashoffset: 0; stroke: #b0b0b0; stroke-opacity: 0.7; stroke-width: 0.5"/>
     </g>
     <g id="line2d_26">
      <g>
       <use xlink:href="#m11e3e5756e" x="43.507813" y="145.438089" style="stroke: #000000; stroke-width: 0.8"/>
      </g>
     </g>
     <g id="text_14">
      <!-- 60 -->
      <g transform="translate(23.782813 149.237308) scale(0.1 -0.1)">
       <use xlink:href="#DejaVuSerif-36"/>
       <use xlink:href="#DejaVuSerif-30" x="63.623047"/>
      </g>
     </g>
    </g>
    <g id="ytick_5">
     <g id="line2d_27">
      <path d="M 43.507813 113.685707 
L 439.289974 113.685707 
" clip-path="url(#p30ea274259)" style="fill: none; stroke-dasharray: 1.85,0.8; stroke-dashoffset: 0; stroke: #b0b0b0; stroke-opacity: 0.7; stroke-width: 0.5"/>
     </g>
     <g id="line2d_28">
      <g>
       <use xlink:href="#m11e3e5756e" x="43.507813" y="113.685707" style="stroke: #000000; stroke-width: 0.8"/>
      </g>
     </g>
     <g id="text_15">
      <!-- 80 -->
      <g transform="translate(23.782813 117.484926) scale(0.1 -0.1)">
       <use xlink:href="#DejaVuSerif-38"/>
       <use xlink:href="#DejaVuSerif-30" x="63.623047"/>
      </g>
     </g>
    </g>
    <g id="ytick_6">
     <g id="line2d_29">
      <path d="M 43.507813 81.933325 
L 439.289974 81.933325 
" clip-path="url(#p30ea274259)" style="fill: none; stroke-dasharray: 1.85,0.8; stroke-dashoffset: 0; stroke: #b0b0b0; stroke-opacity: 0.7; stroke-width: 0.5"/>
     </g>
     <g id="line2d_30">
      <g>
       <use xlink:href="#m11e3e5756e" x="43.507813" y="81.933325" style="stroke: #000000; stroke-width: 0.8"/>
      </g>
     </g>
     <g id="text_16">
      <!-- 100 -->
      <g transform="translate(17.420313 85.732544) scale(0.1 -0.1)">
       <use xlink:href="#DejaVuSerif-31"/>
       <use xlink:href="#DejaVuSerif-30" x="63.623047"/>
       <use xlink:href="#DejaVuSerif-30" x="127.246094"/>
      </g>
     </g>
    </g>
    <g id="ytick_7">
     <g id="line2d_31">
      <path d="M 43.507813 50.180943 
L 439.289974 50.180943 
" clip-path="url(#p30ea274259)" style="fill: none; stroke-dasharray: 1.85,0.8; stroke-dashoffset: 0; stroke: #b0b0b0; stroke-opacity: 0.7; stroke-width: 0.5"/>
     </g>
     <g id="line2d_32">
      <g>
       <use xlink:href="#m11e3e5756e" x="43.507813" y="50.180943" style="stroke: #000000; stroke-width: 0.8"/>
      </g>
     </g>
     <g id="text_17">
      <!-- 120 -->
      <g transform="translate(17.420313 53.980162) scale(0.1 -0.1)">
       <use xlink:href="#DejaVuSerif-31"/>
       <use xlink:href="#DejaVuSerif-32" x="63.623047"/>
       <use xlink:href="#DejaVuSerif-30" x="127.246094"/>
      </g>
     </g>
    </g>
    <g id="ytick_8">
     <g id="line2d_33">
      <path d="M 43.507813 18.428561 
L 439.289974 18.428561 
" clip-path="url(#p30ea274259)" style="fill: none; stroke-dasharray: 1.85,0.8; stroke-dashoffset: 0; stroke: #b0b0b0; stroke-opacity: 0.7; stroke-width: 0.5"/>
     </g>
     <g id="line2d_34">
      <g>
       <use xlink:href="#m11e3e5756e" x="43.507813" y="18.428561" style="stroke: #000000; stroke-width: 0.8"/>
      </g>
     </g>
     <g id="text_18">
      <!-- 140 -->
      <g transform="translate(17.420313 22.22778) scale(0.1 -0.1)">
       <use xlink:href="#DejaVuSerif-31"/>
       <use xlink:href="#DejaVuSerif-34" x="63.623047"/>
       <use xlink:href="#DejaVuSerif-30" x="127.246094"/>
      </g>
     </g>
    </g>
    <g id="text_19">
     <!-- Photon scattering rate (kHz) -->
     <g transform="translate(11.198437 196.623979) rotate(-90) scale(0.1 -0.1)">
      <defs>
       <path id="DejaVuSerif-50" d="M 1581 2375 
L 2406 2375 
Q 2872 2375 3115 2626 
Q 3359 2878 3359 3353 
Q 3359 3831 3115 4081 
Q 2872 4331 2406 4331 
L 1581 4331 
L 1581 2375 
z
M 353 0 
L 353 331 
L 947 331 
L 947 4331 
L 353 4331 
L 353 4666 
L 2559 4666 
Q 3259 4666 3668 4311 
Q 4078 3956 4078 3353 
Q 4078 2753 3668 2397 
Q 3259 2041 2559 2041 
L 1581 2041 
L 1581 331 
L 2303 331 
L 2303 0 
L 353 0 
z
" transform="scale(0.015625)"/>
       <path id="DejaVuSerif-68" d="M 263 0 
L 263 331 
L 781 331 
L 781 4531 
L 231 4531 
L 231 4863 
L 1356 4863 
L 1356 2731 
Q 1516 3069 1770 3241 
Q 2025 3413 2363 3413 
Q 2913 3413 3172 3097 
Q 3431 2781 3431 2113 
L 3431 331 
L 3944 331 
L 3944 0 
L 2356 0 
L 2356 331 
L 2853 331 
L 2853 1931 
Q 2853 2541 2704 2764 
Q 2556 2988 2175 2988 
Q 1775 2988 1565 2697 
Q 1356 2406 1356 1850 
L 1356 331 
L 1856 331 
L 1856 0 
L 263 0 
z
" transform="scale(0.015625)"/>
       <path id="DejaVuSerif-6f" d="M 1925 219 
Q 2388 219 2623 584 
Q 2859 950 2859 1663 
Q 2859 2375 2623 2739 
Q 2388 3103 1925 3103 
Q 1463 3103 1227 2739 
Q 991 2375 991 1663 
Q 991 950 1228 584 
Q 1466 219 1925 219 
z
M 1925 -91 
Q 1200 -91 759 389 
Q 319 869 319 1663 
Q 319 2456 758 2934 
Q 1197 3413 1925 3413 
Q 2653 3413 3092 2934 
Q 3531 2456 3531 1663 
Q 3531 869 3092 389 
Q 2653 -91 1925 -91 
z
" transform="scale(0.015625)"/>
       <path id="DejaVuSerif-74" d="M 691 2988 
L 184 2988 
L 184 3322 
L 691 3322 
L 691 4353 
L 1269 4353 
L 1269 3322 
L 2350 3322 
L 2350 2988 
L 1269 2988 
L 1269 878 
Q 1269 456 1350 337 
Q 1431 219 1650 219 
Q 1875 219 1978 351 
Q 2081 484 2088 781 
L 2522 781 
Q 2497 328 2275 118 
Q 2053 -91 1600 -91 
Q 1103 -91 897 129 
Q 691 350 691 878 
L 691 2988 
z
" transform="scale(0.015625)"/>
       <path id="DejaVuSerif-6e" d="M 263 0 
L 263 331 
L 781 331 
L 781 2988 
L 231 2988 
L 231 3322 
L 1356 3322 
L 1356 2731 
Q 1516 3069 1770 3241 
Q 2025 3413 2363 3413 
Q 2913 3413 3172 3097 
Q 3431 2781 3431 2113 
L 3431 331 
L 3944 331 
L 3944 0 
L 2356 0 
L 2356 331 
L 2853 331 
L 2853 1931 
Q 2853 2541 2703 2767 
Q 2553 2994 2175 2994 
Q 1775 2994 1565 2701 
Q 1356 2409 1356 1850 
L 1356 331 
L 1856 331 
L 1856 0 
L 263 0 
z
" transform="scale(0.015625)"/>
       <path id="DejaVuSerif-63" d="M 3291 997 
Q 3169 466 2822 187 
Q 2475 -91 1925 -91 
Q 1200 -91 759 389 
Q 319 869 319 1663 
Q 319 2459 759 2936 
Q 1200 3413 1925 3413 
Q 2241 3413 2553 3339 
Q 2866 3266 3181 3116 
L 3181 2266 
L 2847 2266 
Q 2781 2703 2561 2903 
Q 2341 3103 1931 3103 
Q 1466 3103 1228 2742 
Q 991 2381 991 1663 
Q 991 944 1227 581 
Q 1463 219 1931 219 
Q 2303 219 2525 412 
Q 2747 606 2828 997 
L 3291 997 
z
" transform="scale(0.015625)"/>
       <path id="DejaVuSerif-61" d="M 2547 1044 
L 2547 1747 
L 1806 1747 
Q 1378 1747 1168 1562 
Q 959 1378 959 997 
Q 959 650 1171 447 
Q 1384 244 1747 244 
Q 2106 244 2326 466 
Q 2547 688 2547 1044 
z
M 3122 2075 
L 3122 331 
L 3634 331 
L 3634 0 
L 2547 0 
L 2547 359 
Q 2356 128 2106 18 
Q 1856 -91 1522 -91 
Q 969 -91 644 203 
Q 319 497 319 997 
Q 319 1513 691 1797 
Q 1063 2081 1741 2081 
L 2547 2081 
L 2547 2309 
Q 2547 2688 2317 2895 
Q 2088 3103 1672 3103 
Q 1328 3103 1125 2947 
Q 922 2791 872 2484 
L 575 2484 
L 575 3156 
Q 875 3284 1158 3348 
Q 1441 3413 1709 3413 
Q 2400 3413 2761 3070 
Q 3122 2728 3122 2075 
z
" transform="scale(0.015625)"/>
       <path id="DejaVuSerif-72" d="M 3059 3328 
L 3059 2497 
L 2728 2497 
Q 2713 2744 2591 2866 
Q 2469 2988 2234 2988 
Q 1809 2988 1582 2694 
Q 1356 2400 1356 1850 
L 1356 331 
L 2022 331 
L 2022 0 
L 263 0 
L 263 331 
L 781 331 
L 781 2994 
L 231 2994 
L 231 3322 
L 1356 3322 
L 1356 2731 
Q 1525 3078 1790 3245 
Q 2056 3413 2438 3413 
Q 2578 3413 2733 3391 
Q 2888 3369 3059 3328 
z
" transform="scale(0.015625)"/>
       <path id="DejaVuSerif-67" d="M 3359 2988 
L 3359 72 
Q 3359 -644 2965 -1033 
Q 2572 -1422 1844 -1422 
Q 1516 -1422 1216 -1362 
Q 916 -1303 641 -1184 
L 641 -488 
L 941 -488 
Q 997 -813 1206 -963 
Q 1416 -1113 1806 -1113 
Q 2313 -1113 2548 -827 
Q 2784 -541 2784 72 
L 2784 519 
Q 2616 206 2355 57 
Q 2094 -91 1709 -91 
Q 1097 -91 708 395 
Q 319 881 319 1663 
Q 319 2444 706 2928 
Q 1094 3413 1709 3413 
Q 2094 3413 2355 3264 
Q 2616 3116 2784 2803 
L 2784 3322 
L 3909 3322 
L 3909 2988 
L 3359 2988 
z
M 2784 1825 
Q 2784 2422 2554 2737 
Q 2325 3053 1888 3053 
Q 1444 3053 1217 2703 
Q 991 2353 991 1663 
Q 991 975 1217 622 
Q 1444 269 1888 269 
Q 2325 269 2554 583 
Q 2784 897 2784 1497 
L 2784 1825 
z
" transform="scale(0.015625)"/>
       <path id="DejaVuSerif-6b" d="M 1831 0 
L 219 0 
L 219 331 
L 738 331 
L 738 4531 
L 184 4531 
L 184 4863 
L 1313 4863 
L 1313 1697 
L 2713 2988 
L 2234 2988 
L 2234 3322 
L 3738 3322 
L 3738 2988 
L 3169 2988 
L 2181 2075 
L 3444 331 
L 3922 331 
L 3922 0 
L 2284 0 
L 2284 331 
L 2759 331 
L 1766 1697 
L 1313 1275 
L 1313 331 
L 1831 331 
L 1831 0 
z
" transform="scale(0.015625)"/>
       <path id="DejaVuSerif-48" d="M 353 0 
L 353 331 
L 947 331 
L 947 4331 
L 353 4331 
L 353 4666 
L 2175 4666 
L 2175 4331 
L 1581 4331 
L 1581 2719 
L 4000 2719 
L 4000 4331 
L 3406 4331 
L 3406 4666 
L 5228 4666 
L 5228 4331 
L 4634 4331 
L 4634 331 
L 5228 331 
L 5228 0 
L 3406 0 
L 3406 331 
L 4000 331 
L 4000 2338 
L 1581 2338 
L 1581 331 
L 2175 331 
L 2175 0 
L 353 0 
z
" transform="scale(0.015625)"/>
       <path id="DejaVuSerif-7a" d="M 256 0 
L 256 269 
L 2338 2988 
L 691 2988 
L 691 2413 
L 359 2413 
L 359 3322 
L 3078 3322 
L 3078 3053 
L 997 331 
L 2803 331 
L 2803 934 
L 3138 934 
L 3138 0 
L 256 0 
z
" transform="scale(0.015625)"/>
      </defs>
      <use xlink:href="#DejaVuSerif-50"/>
      <use xlink:href="#DejaVuSerif-68" x="67.285156"/>
      <use xlink:href="#DejaVuSerif-6f" x="131.689453"/>
      <use xlink:href="#DejaVuSerif-74" x="191.894531"/>
      <use xlink:href="#DejaVuSerif-6f" x="232.080078"/>
      <use xlink:href="#DejaVuSerif-6e" x="292.285156"/>
      <use xlink:href="#DejaVuSerif-20" x="356.689453"/>
      <use xlink:href="#DejaVuSerif-73" x="388.476562"/>
      <use xlink:href="#DejaVuSerif-63" x="439.794922"/>
      <use xlink:href="#DejaVuSerif-61" x="495.800781"/>
      <use xlink:href="#DejaVuSerif-74" x="555.419922"/>
      <use xlink:href="#DejaVuSerif-74" x="595.605469"/>
      <use xlink:href="#DejaVuSerif-65" x="635.791016"/>
      <use xlink:href="#DejaVuSerif-72" x="694.970703"/>
      <use xlink:href="#DejaVuSerif-69" x="742.773438"/>
      <use xlink:href="#DejaVuSerif-6e" x="774.755859"/>
      <use xlink:href="#DejaVuSerif-67" x="839.160156"/>
      <use xlink:href="#DejaVuSerif-20" x="903.173828"/>
      <use xlink:href="#DejaVuSerif-72" x="934.960938"/>
      <use xlink:href="#DejaVuSerif-61" x="982.763672"/>
      <use xlink:href="#DejaVuSerif-74" x="1042.382812"/>
      <use xlink:href="#DejaVuSerif-65" x="1082.568359"/>
      <use xlink:href="#DejaVuSerif-20" x="1141.748047"/>
      <use xlink:href="#DejaVuSerif-28" x="1173.535156"/>
      <use xlink:href="#DejaVuSerif-6b" x="1212.548828"/>
      <use xlink:href="#DejaVuSerif-48" x="1273.144531"/>
      <use xlink:href="#DejaVuSerif-7a" x="1360.351562"/>
      <use xlink:href="#DejaVuSerif-29" x="1413.037109"/>
     </g>
    </g>
   </g>
   <g id="line2d_35">
    <path d="M -1 240.695236 
L 76.293726 240.58802 
L 82.948768 240.324243 
L 87.788799 239.914575 
L 92.023826 239.329809 
L 95.653849 238.623832 
L 99.283872 237.707565 
L 103.518899 236.348563 
L 106.543918 235.214435 
L 110.173941 233.695187 
L 115.013971 231.404405 
L 118.03899 229.879281 
L 120.459006 228.641841 
L 123.484025 227.108011 
L 126.509044 225.54709 
L 128.324056 224.710925 
L 129.534063 224.13855 
L 131.954079 223.014611 
L 138.004117 220.611769 
L 140.424132 219.824331 
L 142.239144 219.21551 
L 142.844147 219.106251 
L 143.449151 218.878528 
L 145.264163 218.461629 
L 147.684178 217.879848 
L 149.49919 217.593405 
L 150.709197 217.384917 
L 152.524209 217.196108 
L 153.129213 216.999331 
L 153.734216 217.019743 
L 154.944224 216.892917 
L 155.549228 216.922487 
L 156.154232 216.764927 
L 156.759236 216.842789 
L 157.969243 216.730862 
L 161.599266 216.726779 
L 166.439297 216.872938 
L 167.044301 217.06052 
L 168.254308 217.126035 
L 170.06932 217.392696 
L 171.279327 217.445142 
L 171.884331 217.561022 
L 172.489335 217.538723 
L 173.699343 217.750404 
L 174.304347 217.843987 
L 174.90935 218.056269 
L 175.514354 218.04318 
L 176.724362 218.316953 
L 179.144377 218.702291 
L 190.63945 221.227808 
L 191.244454 221.415104 
L 191.849458 221.476774 
L 194.269473 222.081552 
L 196.084484 222.526225 
L 199.109504 223.282879 
L 200.319511 223.547423 
L 208.789565 225.605347 
L 209.999572 225.82212 
L 211.20958 226.099712 
L 214.839603 226.94407 
L 226.334676 229.404655 
L 232.384714 230.546414 
L 234.199726 230.868104 
L 240.854768 232.044342 
L 243.879787 232.501072 
L 247.50981 233.028413 
L 257.189871 234.319161 
L 259.609886 234.617248 
L 261.424898 234.83078 
L 274.734982 236.158605 
L 278.970009 236.487227 
L 303.775166 238.083808 
L 315.875243 238.623077 
L 326.765312 238.988841 
L 355.805495 239.678668 
L 388.475702 240.10811 
L 434.455993 240.407042 
L 434.455993 240.407042 
" clip-path="url(#p30ea274259)" style="fill: none; stroke-dasharray: 2.59,1.12; stroke-dashoffset: 0; stroke: #000000; stroke-width: 0.7"/>
   </g>
   <g id="line2d_36">
    <path d="M -1 240.695236 
L 74.478715 240.589724 
L 80.528753 240.337025 
L 84.76378 239.963381 
L 88.393803 239.44283 
L 92.023826 238.682938 
L 95.653849 237.629763 
L 98.678868 236.51137 
L 101.703887 235.15338 
L 104.728906 233.577003 
L 108.963933 231.004959 
L 112.593956 228.514595 
L 114.408967 227.178907 
L 119.248998 223.487045 
L 125.299036 218.741257 
L 131.349075 214.240923 
L 135.584102 211.475737 
L 139.214124 209.394994 
L 139.819128 208.954905 
L 140.424132 208.686327 
L 141.029136 208.252152 
L 141.63414 208.084492 
L 143.449151 207.250872 
L 147.079174 205.782 
L 147.684178 205.672397 
L 148.289182 205.368436 
L 148.894186 205.253393 
L 150.709197 204.665894 
L 157.364239 203.560352 
L 159.179251 203.463594 
L 160.994262 203.4069 
L 165.834293 203.652844 
L 171.279327 204.324611 
L 175.514354 205.230439 
L 176.724362 205.62688 
L 179.749381 206.286668 
L 180.354385 206.584135 
L 182.7744 207.232499 
L 183.984408 207.644687 
L 186.404423 208.458347 
L 187.614431 208.837466 
L 197.899496 212.524198 
L 198.5045 212.82696 
L 199.109504 212.962939 
L 202.739527 214.407177 
L 220.284638 220.583092 
L 221.494645 220.955776 
L 222.099649 221.059522 
L 225.124668 222.147994 
L 228.149687 223.057115 
L 230.569703 223.831067 
L 248.719818 228.543637 
L 252.954844 229.398225 
L 255.979864 230.034115 
L 258.399879 230.473003 
L 269.289948 232.363693 
L 274.129978 233.082726 
L 278.365005 233.682612 
L 281.995028 234.111453 
L 284.415043 234.404086 
L 287.440063 234.767834 
L 289.860078 234.967944 
L 292.280093 235.346222 
L 297.120124 235.733704 
L 300.145143 236.008455 
L 315.270239 237.13988 
L 324.345296 237.694874 
L 335.840369 238.196909 
L 367.300568 239.249725 
L 389.080706 239.683401 
L 434.455993 240.183185 
L 434.455993 240.183185 
" clip-path="url(#p30ea274259)" style="fill: none; stroke: #1f77b4; stroke-width: 0.7; stroke-linecap: square"/>
   </g>
   <g id="line2d_37">
    <path d="M -1 240.695236 
L 418.12089 240.593754 
L 424.170928 240.378759 
L 428.405955 240.063422 
L 432.640982 239.560696 
L 434.455993 239.287365 
L 434.455993 239.287365 
" clip-path="url(#p30ea274259)" style="fill: none; stroke: #808080; stroke-opacity: 0.3; stroke-width: 0.7; stroke-linecap: square"/>
   </g>
   <g id="line2d_38">
    <path d="M -1 240.695236 
L 350.360461 240.589263 
L 355.805495 240.30552 
L 359.435518 239.86704 
L 361.855534 239.397975 
L 364.880553 238.544664 
L 367.905572 237.373345 
L 370.930591 235.972297 
L 375.165618 234.030217 
L 376.980629 233.412175 
L 378.795641 233.020593 
L 380.610652 232.897633 
L 382.425664 233.061951 
L 384.845679 233.715446 
L 387.265694 234.662515 
L 395.130744 238.049386 
L 398.155763 238.929961 
L 400.575779 239.446037 
L 404.810805 240.021594 
L 410.25584 240.397813 
L 418.725894 240.619231 
L 434.455993 240.694069 
L 434.455993 240.694069 
" clip-path="url(#p30ea274259)" style="fill: none; stroke: #808080; stroke-opacity: 0.3; stroke-width: 0.7; stroke-linecap: square"/>
   </g>
   <g id="line2d_39">
    <path d="M -1 240.695236 
L 298.935135 240.60408 
L 303.170162 240.374751 
L 306.195181 239.986084 
L 308.615197 239.418717 
L 310.430208 238.792242 
L 312.850223 237.552754 
L 314.060231 236.754735 
L 315.875243 235.313026 
L 317.08525 234.194275 
L 319.505266 231.651885 
L 323.740292 227.160929 
L 324.9503 226.107895 
L 326.765312 224.861312 
L 328.580323 224.527093 
L 329.790331 224.664584 
L 331.000338 225.091651 
L 332.210346 225.797974 
L 333.420354 226.744824 
L 335.235365 228.452743 
L 340.6804 233.915523 
L 342.495411 235.37968 
L 344.310423 236.607296 
L 346.730438 237.835572 
L 348.545449 238.53077 
L 350.965465 239.228832 
L 354.595488 239.87717 
L 359.435518 240.325905 
L 362.460537 240.492638 
L 369.720583 240.651522 
L 387.265694 240.694983 
L 434.455993 240.695236 
L 434.455993 240.695236 
" clip-path="url(#p30ea274259)" style="fill: none; stroke: #808080; stroke-opacity: 0.3; stroke-width: 0.7; stroke-linecap: square"/>
   </g>
   <g id="line2d_40">
    <path d="M -1 240.695236 
L 259.609886 240.599515 
L 263.239909 240.362596 
L 265.054921 240.109528 
L 266.869932 239.693818 
L 268.684944 239.013065 
L 269.894952 238.380944 
L 271.104959 237.561047 
L 272.314967 236.507213 
L 273.524975 235.212235 
L 274.734982 233.64344 
L 276.549994 230.698377 
L 277.760001 228.39849 
L 279.575013 224.510594 
L 283.205036 216.571315 
L 284.415043 214.276017 
L 286.230055 211.688191 
L 287.440063 210.971515 
L 288.045066 210.851915 
L 288.65007 210.895332 
L 289.255074 211.103086 
L 289.860078 211.522106 
L 291.070086 212.763944 
L 292.280093 214.528933 
L 293.490101 216.695138 
L 295.910116 221.599546 
L 298.935135 227.548114 
L 300.750147 230.521028 
L 302.565158 232.981903 
L 304.38017 234.858136 
L 306.195181 236.424992 
L 308.010193 237.52969 
L 309.825204 238.389631 
L 312.24522 239.211943 
L 315.270239 239.854293 
L 317.690254 240.188214 
L 321.925281 240.501246 
L 327.975319 240.659552 
L 338.865388 240.694425 
L 434.455993 240.695236 
L 434.455993 240.695236 
" clip-path="url(#p30ea274259)" style="fill: none; stroke: #808080; stroke-opacity: 0.3; stroke-width: 0.7; stroke-linecap: square"/>
   </g>
   <g id="line2d_41">
    <path d="M -1 240.695236 
L 228.149687 240.606508 
L 231.174707 240.38734 
L 232.989718 240.106957 
L 234.804729 239.602152 
L 236.014737 239.075391 
L 237.224745 238.321239 
L 238.434752 237.278899 
L 239.64476 235.888408 
L 240.854768 234.071646 
L 242.064775 231.775524 
L 243.274783 228.907632 
L 244.484791 225.454147 
L 246.299802 219.271518 
L 248.114814 212.133077 
L 251.139833 200.232999 
L 252.349841 196.374436 
L 253.559848 193.55359 
L 254.164852 192.518783 
L 255.37486 191.485282 
L 256.584867 191.871306 
L 257.794875 193.666819 
L 259.004883 196.542365 
L 260.21489 200.306007 
L 261.424898 204.430537 
L 264.449917 215.245009 
L 266.264929 221.000131 
L 267.474936 224.338364 
L 268.684944 227.246017 
L 269.894952 229.715348 
L 271.104959 231.783213 
L 272.919971 234.267311 
L 274.734982 236.099339 
L 276.549994 237.461743 
L 278.970009 238.705982 
L 280.785021 239.359051 
L 282.600032 239.82015 
L 285.020047 240.214653 
L 287.440063 240.460451 
L 291.070086 240.629704 
L 297.120124 240.686543 
L 340.6804 240.695236 
L 434.455993 240.695236 
L 434.455993 240.695236 
" clip-path="url(#p30ea274259)" style="fill: none; stroke: #808080; stroke-opacity: 0.3; stroke-width: 0.7; stroke-linecap: square"/>
   </g>
   <g id="line2d_42">
    <path d="M -1 240.695236 
L 202.739527 240.604088 
L 205.764546 240.342465 
L 207.579557 239.935464 
L 208.789565 239.490873 
L 209.999572 238.815887 
L 211.20958 237.804295 
L 211.814584 237.192064 
L 213.024592 235.488615 
L 214.234599 233.166137 
L 214.839603 231.799832 
L 216.049611 228.302389 
L 217.259618 223.847186 
L 219.07463 215.145936 
L 220.284638 208.262216 
L 222.099649 196.763938 
L 224.519664 181.673207 
L 225.729672 175.413874 
L 226.93968 170.884151 
L 227.544684 169.125741 
L 228.149687 168.465295 
L 228.754691 168.127574 
L 229.359695 168.441872 
L 229.964699 169.290706 
L 230.569703 170.709003 
L 231.77971 174.937279 
L 232.989718 180.64011 
L 234.804729 190.601484 
L 237.224745 204.077201 
L 239.039756 212.990064 
L 240.854768 220.217631 
L 242.669779 225.853261 
L 243.879787 228.988696 
L 245.694798 232.496457 
L 247.50981 235.064546 
L 249.324821 236.90654 
L 251.744837 238.550918 
L 253.559848 239.452442 
L 257.189871 240.204174 
L 259.609886 240.54779 
L 271.104959 240.6933 
L 366.695564 240.695236 
L 434.455993 240.695236 
L 434.455993 240.695236 
" clip-path="url(#p30ea274259)" style="fill: none; stroke: #808080; stroke-opacity: 0.3; stroke-width: 0.7; stroke-linecap: square"/>
   </g>
   <g id="line2d_43">
    <path d="M -1 240.695236 
L 181.564393 240.604403 
L 183.984408 240.390801 
L 185.799419 240.001551 
L 187.009427 239.526091 
L 188.219435 238.785926 
L 189.429442 237.616341 
L 190.63945 235.92207 
L 191.849458 233.391688 
L 192.454461 231.80516 
L 193.664469 227.707219 
L 194.874477 222.239504 
L 196.084484 215.272914 
L 197.294492 206.774132 
L 198.5045 196.899245 
L 200.924515 174.937301 
L 202.739527 159.698315 
L 203.949534 151.437929 
L 204.554538 148.482433 
L 205.159542 146.397005 
L 205.764546 145.176344 
L 206.36955 144.829174 
L 206.974553 145.408834 
L 207.579557 146.894091 
L 208.789565 152.029145 
L 209.999572 159.618147 
L 211.20958 168.590931 
L 215.444607 200.780532 
L 216.654615 208.268621 
L 217.864622 214.712644 
L 219.07463 220.141388 
L 220.284638 224.637836 
L 221.494645 228.270869 
L 223.309657 232.408291 
L 225.124668 235.302042 
L 226.93968 237.306244 
L 228.754691 238.636431 
L 230.569703 239.529295 
L 232.989718 240.208534 
L 235.409733 240.534736 
L 237.829749 240.632617 
L 250.534829 240.695248 
L 434.455993 240.695236 
L 434.455993 240.695236 
" clip-path="url(#p30ea274259)" style="fill: none; stroke: #808080; stroke-opacity: 0.3; stroke-width: 0.7; stroke-linecap: square"/>
   </g>
   <g id="line2d_44">
    <path d="M -1 240.695236 
L 164.019281 240.594411 
L 166.439297 240.328607 
L 167.649304 240.045994 
L 168.859312 239.521883 
L 170.06932 238.672531 
L 171.279327 237.312936 
L 171.884331 236.390453 
L 172.489335 235.209026 
L 173.699343 232.09921 
L 174.304347 230.029542 
L 175.514354 224.705905 
L 176.724362 217.467704 
L 177.93437 208.194477 
L 179.144377 196.893658 
L 180.959389 176.902082 
L 183.379404 149.343 
L 184.589412 138.511368 
L 185.194415 133.959775 
L 186.404423 128.39452 
L 187.009427 127.977431 
L 187.614431 128.074593 
L 188.219435 129.180873 
L 189.429442 134.787364 
L 191.244454 149.42256 
L 195.479481 189.995711 
L 196.689488 199.872536 
L 197.899496 208.579475 
L 199.714507 218.608627 
L 201.529519 225.939574 
L 202.739527 229.840868 
L 203.949534 232.723926 
L 205.159542 234.960516 
L 206.36955 236.655018 
L 207.579557 237.856395 
L 208.184561 238.402751 
L 209.999572 239.453052 
L 211.814584 240.057289 
L 213.024592 240.299058 
L 216.049611 240.584673 
L 220.284638 240.68377 
L 249.324821 240.695236 
L 434.455993 240.695236 
L 434.455993 240.695236 
" clip-path="url(#p30ea274259)" style="fill: none; stroke: #808080; stroke-opacity: 0.3; stroke-width: 0.7; stroke-linecap: square"/>
   </g>
   <g id="line2d_45">
    <path d="M -1 240.695236 
L 148.894186 240.599828 
L 150.709197 240.422207 
L 151.919205 240.167121 
L 153.129213 239.690016 
L 154.33922 238.904173 
L 154.944224 238.317859 
L 155.549228 237.560611 
L 156.154232 236.595774 
L 157.364239 233.910107 
L 157.969243 232.037505 
L 159.179251 227.016262 
L 159.784255 223.876155 
L 160.994262 215.579999 
L 162.20427 204.810374 
L 163.414278 191.712096 
L 165.229289 168.646 
L 167.044301 145.244934 
L 168.254308 132.510108 
L 168.859312 127.661252 
L 169.464316 123.911761 
L 170.06932 121.471968 
L 170.674324 120.897361 
L 171.884331 122.468404 
L 173.094339 130.356832 
L 173.699343 135.030357 
L 175.514354 153.736344 
L 177.93437 180.297674 
L 179.749381 197.551801 
L 181.564393 211.125976 
L 183.379404 221.132253 
L 184.589412 226.358143 
L 186.404423 231.937291 
L 187.614431 234.554716 
L 188.824438 236.317222 
L 190.034446 237.889474 
L 191.244454 238.790322 
L 192.454461 239.565179 
L 194.269473 240.129594 
L 195.479481 240.383943 
L 198.5045 240.622084 
L 203.34453 240.687933 
L 249.929825 240.695236 
L 434.455993 240.695236 
L 434.455993 240.695236 
" clip-path="url(#p30ea274259)" style="fill: none; stroke: #808080; stroke-opacity: 0.3; stroke-width: 0.7; stroke-linecap: square"/>
   </g>
   <g id="line2d_46">
    <path d="M -1 240.695236 
L 135.584102 240.62127 
L 138.004117 240.36386 
L 139.214124 240.054657 
L 140.424132 239.42977 
L 141.029136 238.99205 
L 141.63414 238.385415 
L 142.239144 237.593421 
L 142.844147 236.567433 
L 143.449151 235.236093 
L 144.054155 233.596288 
L 144.659159 231.603601 
L 145.264163 229.153213 
L 145.869167 226.076713 
L 147.079174 218.350176 
L 148.289182 207.706337 
L 149.49919 194.535817 
L 151.314201 171.225335 
L 153.129213 147.940995 
L 154.33922 135.827611 
L 154.944224 130.940925 
L 156.154232 125.935412 
L 157.364239 127.398858 
L 157.969243 130.470263 
L 158.574247 134.213954 
L 159.784255 144.844025 
L 160.994262 157.696901 
L 163.414278 184.042626 
L 165.229289 201.123647 
L 166.439297 210.427649 
L 167.649304 218.167309 
L 168.859312 224.426063 
L 170.06932 228.977428 
L 171.279327 232.355884 
L 172.489335 235.018971 
L 173.094339 236.214943 
L 174.304347 238.031888 
L 175.514354 238.947454 
L 177.329366 239.866535 
L 178.539373 240.224221 
L 180.959389 240.54945 
L 184.589412 240.676655 
L 200.924515 240.695235 
L 434.455993 240.695236 
L 434.455993 240.695236 
" clip-path="url(#p30ea274259)" style="fill: none; stroke: #808080; stroke-opacity: 0.3; stroke-width: 0.7; stroke-linecap: square"/>
   </g>
   <g id="line2d_47">
    <path d="M -1 240.695236 
L 124.694033 240.609635 
L 126.509044 240.410952 
L 127.719052 240.124802 
L 128.929059 239.523648 
L 129.534063 239.079868 
L 130.139067 238.465518 
L 130.744071 237.66703 
L 131.349075 236.625658 
L 131.954079 235.316408 
L 132.559082 233.588691 
L 133.164086 231.453168 
L 133.76909 228.857794 
L 134.374094 225.73485 
L 134.979098 221.987514 
L 136.189105 212.551455 
L 137.399113 200.511642 
L 139.214124 179.287573 
L 141.029136 158.576901 
L 142.239144 148.52348 
L 142.844147 145.199853 
L 143.449151 143.380062 
L 144.054155 142.564952 
L 144.659159 143.699357 
L 145.264163 145.396448 
L 146.47417 153.038411 
L 148.289182 169.929211 
L 150.709197 193.803625 
L 151.919205 204.237264 
L 153.129213 213.115329 
L 154.33922 220.386196 
L 155.549228 226.146751 
L 156.759236 230.576656 
L 157.969243 233.866895 
L 159.784255 237.131235 
L 161.599266 238.978212 
L 163.414278 239.939572 
L 165.229289 240.391584 
L 168.254308 240.638198 
L 173.094339 240.692864 
L 241.459772 240.695236 
L 434.455993 240.695236 
L 434.455993 240.695236 
" clip-path="url(#p30ea274259)" style="fill: none; stroke: #808080; stroke-opacity: 0.3; stroke-width: 0.7; stroke-linecap: square"/>
   </g>
   <g id="line2d_48">
    <path d="M -1 240.695236 
L 115.013971 240.605393 
L 116.828983 240.391492 
L 118.03899 240.058084 
L 119.248998 239.410996 
L 119.854002 238.905902 
L 120.459006 238.225346 
L 121.06401 237.31729 
L 121.669013 236.161161 
L 122.274017 234.688372 
L 122.879021 232.826642 
L 123.484025 230.493027 
L 124.694033 224.305335 
L 125.299036 220.506967 
L 126.509044 210.929664 
L 127.719052 199.794632 
L 129.534063 182.227627 
L 130.744071 172.448413 
L 131.349075 169.136231 
L 131.954079 166.624639 
L 132.559082 165.118165 
L 133.164086 165.476439 
L 133.76909 166.161646 
L 134.374094 168.556055 
L 134.979098 171.609119 
L 136.189105 179.884541 
L 138.004117 194.187236 
L 139.819128 208.448172 
L 141.029136 216.331203 
L 142.239144 222.852379 
L 143.449151 227.945441 
L 144.659159 231.889863 
L 145.869167 234.823382 
L 146.47417 236.032131 
L 147.684178 237.79455 
L 148.894186 238.960969 
L 151.314201 240.148809 
L 154.33922 240.584215 
L 158.574247 240.692649 
L 229.359695 240.695236 
L 434.455993 240.695236 
L 434.455993 240.695236 
" clip-path="url(#p30ea274259)" style="fill: none; stroke: #808080; stroke-opacity: 0.3; stroke-width: 0.7; stroke-linecap: square"/>
   </g>
   <g id="line2d_49">
    <path d="M -1 240.695236 
L 106.543918 240.608384 
L 108.358929 240.387002 
L 109.568937 240.021883 
L 110.778945 239.341513 
L 111.383948 238.800484 
L 111.988952 238.070567 
L 112.593956 237.126046 
L 113.19896 235.912223 
L 113.803964 234.390353 
L 114.408967 232.517335 
L 115.013971 230.2283 
L 116.223979 224.330711 
L 117.433987 216.905754 
L 120.459006 196.317019 
L 121.06401 193.066254 
L 121.669013 190.784829 
L 122.274017 189.118025 
L 122.879021 188.30672 
L 123.484025 188.848822 
L 124.089029 189.646918 
L 125.299036 194.036473 
L 127.114048 204.001503 
L 129.534063 217.805605 
L 130.744071 223.600139 
L 131.954079 228.369259 
L 132.559082 230.454153 
L 133.76909 233.717484 
L 134.979098 236.126524 
L 136.189105 237.812288 
L 138.004117 239.394116 
L 139.819128 240.173811 
L 142.239144 240.552891 
L 145.264163 240.679157 
L 156.759236 240.695416 
L 434.455993 240.695236 
L 434.455993 240.695236 
" clip-path="url(#p30ea274259)" style="fill: none; stroke: #808080; stroke-opacity: 0.3; stroke-width: 0.7; stroke-linecap: square"/>
   </g>
   <g id="line2d_50">
    <path d="M -1 240.695236 
L 99.283872 240.596727 
L 101.098883 240.343233 
L 102.308891 239.949807 
L 103.518899 239.178777 
L 104.123902 238.595241 
L 104.728906 237.830282 
L 105.33391 236.854867 
L 105.938914 235.64176 
L 106.543918 234.134753 
L 107.753925 230.23871 
L 108.963933 225.330579 
L 111.383948 214.365878 
L 112.593956 210.294857 
L 113.19896 208.950213 
L 113.803964 208.325563 
L 114.408967 208.246076 
L 115.013971 208.80113 
L 115.618975 209.87083 
L 116.223979 211.369978 
L 117.433987 215.385457 
L 120.459006 226.680087 
L 121.669013 230.413296 
L 122.274017 232.096524 
L 123.484025 234.787764 
L 124.694033 236.784134 
L 125.90404 238.254547 
L 127.114048 239.210943 
L 128.324056 239.884906 
L 129.534063 240.255558 
L 131.349075 240.531374 
L 133.76909 240.662182 
L 140.424132 240.695152 
L 434.455993 240.695236 
L 434.455993 240.695236 
" clip-path="url(#p30ea274259)" style="fill: none; stroke: #808080; stroke-opacity: 0.3; stroke-width: 0.7; stroke-linecap: square"/>
   </g>
   <g id="line2d_51">
    <path d="M -1 240.695236 
L 92.62883 240.60541 
L 94.443841 240.372525 
L 95.653849 240.007478 
L 96.863856 239.321719 
L 98.073864 238.158227 
L 99.283872 236.366247 
L 100.493879 233.85211 
L 102.308891 229.133845 
L 103.518899 226.021808 
L 104.123902 224.681249 
L 104.728906 223.666993 
L 105.33391 222.904164 
L 105.938914 222.47712 
L 106.543918 222.50632 
L 107.148922 222.914081 
L 107.753925 223.622833 
L 108.358929 224.603812 
L 109.568937 227.096695 
L 112.593956 233.631967 
L 113.803964 235.690103 
L 115.013971 237.326613 
L 116.223979 238.516679 
L 117.433987 239.356863 
L 118.643994 239.920828 
L 119.854002 240.272689 
L 121.669013 240.523816 
L 123.484025 240.640034 
L 128.324056 240.69452 
L 247.50981 240.695236 
L 434.455993 240.695236 
L 434.455993 240.695236 
" clip-path="url(#p30ea274259)" style="fill: none; stroke: #808080; stroke-opacity: 0.3; stroke-width: 0.7; stroke-linecap: square"/>
   </g>
   <g id="line2d_52">
    <path d="M -1 240.695236 
L 87.183795 240.584165 
L 88.998807 240.317142 
L 90.208814 239.927858 
L 91.418822 239.26207 
L 92.62883 238.222455 
L 93.838837 236.819276 
L 96.863856 232.778032 
L 97.46886 232.164262 
L 98.073864 231.809546 
L 98.678868 231.588417 
L 99.283872 231.598227 
L 99.888876 231.803805 
L 100.493879 232.155796 
L 101.703887 233.285316 
L 105.33391 237.386926 
L 107.148922 238.837646 
L 108.358929 239.528921 
L 110.173941 240.160298 
L 111.988952 240.477735 
L 113.803964 240.627167 
L 118.03899 240.692351 
L 180.959389 240.695236 
L 434.455993 240.695236 
L 434.455993 240.695236 
" clip-path="url(#p30ea274259)" style="fill: none; stroke: #808080; stroke-opacity: 0.3; stroke-width: 0.7; stroke-linecap: square"/>
   </g>
   <g id="line2d_53">
    <path d="M -1 240.695236 
L 81.738761 240.613154 
L 83.553772 240.422864 
L 84.76378 240.156811 
L 85.973788 239.722026 
L 87.183795 239.104535 
L 90.813818 236.893619 
L 91.418822 236.66963 
L 92.62883 236.544072 
L 93.838837 236.817567 
L 95.048845 237.361991 
L 99.283872 239.529816 
L 101.098883 240.102293 
L 102.913895 240.434295 
L 105.938914 240.646237 
L 110.778945 240.693035 
L 210.604576 240.695236 
L 434.455993 240.695236 
L 434.455993 240.695236 
" clip-path="url(#p30ea274259)" style="fill: none; stroke: #808080; stroke-opacity: 0.3; stroke-width: 0.7; stroke-linecap: square"/>
   </g>
   <g id="line2d_54">
    <path d="M -1 240.695236 
L 77.503734 240.60873 
L 79.923749 240.346221 
L 81.738761 239.947744 
L 84.76378 239.158909 
L 86.578791 239.012791 
L 87.788799 239.120613 
L 90.208814 239.640275 
L 93.233833 240.262437 
L 95.653849 240.538426 
L 99.283872 240.67596 
L 113.19896 240.695239 
L 434.455993 240.695236 
L 434.455993 240.695236 
" clip-path="url(#p30ea274259)" style="fill: none; stroke: #808080; stroke-opacity: 0.3; stroke-width: 0.7; stroke-linecap: square"/>
   </g>
   <g id="line2d_55">
    <path d="M -1 240.695236 
L 73.873711 240.610109 
L 77.503734 240.300966 
L 80.528753 240.080711 
L 82.948768 240.170418 
L 89.60381 240.633767 
L 95.653849 240.694224 
L 281.995028 240.695236 
L 434.455993 240.695236 
L 434.455993 240.695236 
" clip-path="url(#p30ea274259)" style="fill: none; stroke: #808080; stroke-opacity: 0.3; stroke-width: 0.7; stroke-linecap: square"/>
   </g>
   <g id="line2d_56">
    <path d="M -1 240.695236 
L 71.453696 240.604296 
L 76.89873 240.501746 
L 90.813818 240.695059 
L 434.455993 240.695236 
L 434.455993 240.695236 
" clip-path="url(#p30ea274259)" style="fill: none; stroke: #808080; stroke-opacity: 0.3; stroke-width: 0.7; stroke-linecap: square"/>
   </g>
   <g id="line2d_57">
    <path d="M -1 240.695236 
L 434.455993 240.695236 
L 434.455993 240.695236 
" clip-path="url(#p30ea274259)" style="fill: none; stroke: #808080; stroke-opacity: 0.3; stroke-width: 0.7; stroke-linecap: square"/>
   </g>
   <g id="line2d_58">
    <path d="M -1 240.695236 
L 434.455993 240.695236 
L 434.455993 240.695236 
" clip-path="url(#p30ea274259)" style="fill: none; stroke: #808080; stroke-opacity: 0.3; stroke-width: 0.7; stroke-linecap: square"/>
   </g>
   <g id="line2d_59">
    <path d="M -1 240.695236 
L 434.455993 240.695236 
L 434.455993 240.695236 
" clip-path="url(#p30ea274259)" style="fill: none; stroke: #808080; stroke-opacity: 0.3; stroke-width: 0.7; stroke-linecap: square"/>
   </g>
   <g id="line2d_60">
    <path d="M -1 240.695236 
L 434.455993 240.695236 
L 434.455993 240.695236 
" clip-path="url(#p30ea274259)" style="fill: none; stroke: #808080; stroke-opacity: 0.3; stroke-width: 0.7; stroke-linecap: square"/>
   </g>
   <g id="line2d_61">
    <path d="M -1 240.695236 
L 434.455993 240.695236 
L 434.455993 240.695236 
" clip-path="url(#p30ea274259)" style="fill: none; stroke: #808080; stroke-opacity: 0.3; stroke-width: 0.7; stroke-linecap: square"/>
   </g>
   <g id="line2d_62">
    <path d="M -1 240.695236 
L 67.218669 240.591468 
L 71.453696 240.375706 
L 74.478715 240.046142 
L 76.89873 239.606001 
L 79.318745 238.939307 
L 81.133757 238.249112 
L 82.948768 237.353829 
L 84.76378 236.213084 
L 86.578791 234.799399 
L 88.393803 233.040918 
L 90.208814 230.930324 
L 92.023826 228.413079 
L 93.838837 225.470256 
L 95.653849 222.08063 
L 98.073864 216.782374 
L 100.493879 210.577898 
L 102.308891 205.370029 
L 104.728906 197.673622 
L 107.753925 186.880184 
L 110.778945 174.940957 
L 113.803964 162.120392 
L 118.643994 140.239006 
L 123.484025 117.974226 
L 125.299036 109.691433 
L 128.324056 96.469802 
L 128.929059 93.546093 
L 130.744071 86.031268 
L 134.374094 71.762162 
L 134.979098 69.710258 
L 135.584102 67.208434 
L 136.189105 65.305198 
L 136.794109 62.779818 
L 139.214124 55.091665 
L 140.424132 51.429988 
L 141.029136 49.655703 
L 141.63414 48.239463 
L 142.239144 46.144528 
L 142.844147 44.83266 
L 143.449151 43.021122 
L 144.659159 40.382328 
L 145.264163 38.717513 
L 145.869167 37.587274 
L 146.47417 35.833875 
L 147.079174 35.379057 
L 147.684178 33.930456 
L 149.49919 30.737318 
L 150.104193 30.081869 
L 150.709197 29.053725 
L 151.314201 28.39975 
L 151.919205 27.19356 
L 152.524209 26.791141 
L 153.129213 26.081854 
L 153.734216 25.816738 
L 154.33922 25.10629 
L 154.944224 24.699074 
L 155.549228 24.460304 
L 156.154232 23.728569 
L 156.759236 23.888053 
L 157.364239 23.213177 
L 157.969243 23.295852 
L 158.574247 22.709149 
L 159.784255 22.80581 
L 160.389259 22.512625 
L 160.994262 22.918046 
L 161.599266 22.465547 
L 162.20427 22.848622 
L 162.809274 22.843587 
L 163.414278 23.252726 
L 164.019281 23.2555 
L 164.624285 23.931912 
L 165.229289 23.869752 
L 166.439297 24.843902 
L 167.044301 25.263859 
L 167.649304 25.890509 
L 168.254308 26.277928 
L 171.884331 29.890178 
L 174.90935 34.276787 
L 175.514354 34.858747 
L 176.119358 36.089895 
L 176.724362 36.766794 
L 177.329366 37.913941 
L 177.93437 38.64981 
L 180.354385 43.031542 
L 180.959389 43.815057 
L 181.564393 45.224915 
L 182.169396 45.785955 
L 182.7744 47.252364 
L 183.379404 48.109696 
L 184.589412 50.845874 
L 186.404423 54.118292 
L 187.614431 56.847807 
L 189.429442 60.301851 
L 190.63945 63.218427 
L 191.244454 64.161213 
L 191.849458 65.908738 
L 192.454461 66.812889 
L 193.059465 68.622959 
L 193.664469 69.508036 
L 194.874477 71.871153 
L 195.479481 73.057053 
L 198.5045 80.299588 
L 199.109504 81.392025 
L 199.714507 82.848997 
L 200.319511 83.942823 
L 201.529519 86.765107 
L 202.134523 88.105712 
L 202.739527 89.88899 
L 203.34453 91.227991 
L 204.554538 93.530183 
L 205.159542 94.665642 
L 208.789565 102.831511 
L 209.999572 105.390588 
L 211.20958 107.748448 
L 213.024592 111.829186 
L 216.654615 118.953865 
L 217.259618 120.36184 
L 218.469626 122.695976 
L 219.07463 124.078365 
L 220.889641 127.34588 
L 223.914661 133.103997 
L 225.124668 135.605378 
L 225.729672 136.520831 
L 226.334676 137.733452 
L 227.544684 139.696625 
L 228.754691 141.969314 
L 229.359695 142.875152 
L 231.174707 146.268321 
L 232.384714 148.17105 
L 233.594722 150.250857 
L 234.199726 151.123969 
L 235.409733 153.153377 
L 240.249764 160.495411 
L 240.854768 161.303053 
L 242.064775 163.15339 
L 242.669779 163.885134 
L 243.879787 165.732654 
L 245.089795 167.368917 
L 245.694798 168.247563 
L 246.299802 168.836772 
L 248.719818 172.083687 
L 250.534829 174.390049 
L 251.139833 175.021416 
L 252.349841 176.623256 
L 254.769856 179.548846 
L 262.634906 188.021572 
L 266.264929 191.566758 
L 266.869932 192.055829 
L 268.07994 193.313173 
L 268.684944 193.684973 
L 269.289948 194.37996 
L 272.314967 196.879494 
L 272.919971 197.519713 
L 274.129978 198.412668 
L 275.94499 199.927648 
L 276.549994 200.332351 
L 277.760001 201.294942 
L 278.365005 201.649865 
L 279.575013 202.617355 
L 280.180017 202.971328 
L 281.390024 203.938867 
L 282.600032 204.700261 
L 283.81004 205.602166 
L 284.415043 205.892917 
L 285.625051 206.751271 
L 286.230055 207.042741 
L 287.440063 207.855071 
L 295.305112 212.472511 
L 303.775166 216.657574 
L 310.430208 219.473861 
L 311.640216 219.908724 
L 312.850223 220.401754 
L 314.060231 220.831146 
L 316.480246 221.707927 
L 319.505266 222.667627 
L 320.715273 223.123335 
L 329.790331 225.75015 
L 336.445373 227.460554 
L 350.360461 230.36847 
L 352.780476 230.750168 
L 363.670545 232.47127 
L 366.695564 232.856669 
L 377.585633 234.173366 
L 384.240675 234.835922 
L 388.475702 235.25058 
L 406.625817 236.614083 
L 434.455993 238.004093 
L 434.455993 238.004093 
" clip-path="url(#p30ea274259)" style="fill: none; stroke: #ff7f0e; stroke-width: 0.7; stroke-linecap: square"/>
   </g>
   <g id="patch_5">
    <path d="M 43.507813 244.44327 
L 43.507813 3.6 
" style="fill: none; stroke: #000000; stroke-width: 0.8; stroke-linejoin: miter; stroke-linecap: square"/>
   </g>
   <g id="patch_6">
    <path d="M 439.289974 244.44327 
L 439.289974 3.6 
" style="fill: none; stroke: #000000; stroke-width: 0.8; stroke-linejoin: miter; stroke-linecap: square"/>
   </g>
   <g id="patch_7">
    <path d="M 43.507813 244.44327 
L 439.289974 244.44327 
" style="fill: none; stroke: #000000; stroke-width: 0.8; stroke-linejoin: miter; stroke-linecap: square"/>
   </g>
   <g id="patch_8">
    <path d="M 43.507813 3.6 
L 439.289974 3.6 
" style="fill: none; stroke: #000000; stroke-width: 0.8; stroke-linejoin: miter; stroke-linecap: square"/>
   </g>
   <g id="legend_1">
    <g id="patch_9">
     <path d="M 339.883724 147.752104 
L 432.289974 147.752104 
Q 434.289974 147.752104 434.289974 145.752104 
L 434.289974 102.291166 
Q 434.289974 100.291166 432.289974 100.291166 
L 339.883724 100.291166 
Q 337.883724 100.291166 337.883724 102.291166 
L 337.883724 145.752104 
Q 337.883724 147.752104 339.883724 147.752104 
z
" style="fill: #ffffff; opacity: 0.8; stroke: #cccccc; stroke-linejoin: miter"/>
    </g>
    <g id="line2d_63">
     <path d="M 341.883724 108.389604 
L 351.883724 108.389604 
L 361.883724 108.389604 
" style="fill: none; stroke-dasharray: 2.59,1.12; stroke-dashoffset: 0; stroke: #000000; stroke-width: 0.7"/>
    </g>
    <g id="text_20">
     <!-- no pumping -->
     <g transform="translate(369.883724 111.889604) scale(0.1 -0.1)">
      <defs>
       <path id="DejaVuSerif-70" d="M 1313 1825 
L 1313 1497 
Q 1313 897 1542 583 
Q 1772 269 2209 269 
Q 2650 269 2876 622 
Q 3103 975 3103 1663 
Q 3103 2353 2876 2703 
Q 2650 3053 2209 3053 
Q 1772 3053 1542 2737 
Q 1313 2422 1313 1825 
z
M 738 2988 
L 184 2988 
L 184 3322 
L 1313 3322 
L 1313 2803 
Q 1481 3116 1742 3264 
Q 2003 3413 2388 3413 
Q 3000 3413 3387 2928 
Q 3775 2444 3775 1663 
Q 3775 881 3387 395 
Q 3000 -91 2388 -91 
Q 2003 -91 1742 57 
Q 1481 206 1313 519 
L 1313 -997 
L 1856 -997 
L 1856 -1331 
L 184 -1331 
L 184 -997 
L 738 -997 
L 738 2988 
z
" transform="scale(0.015625)"/>
      </defs>
      <use xlink:href="#DejaVuSerif-6e"/>
      <use xlink:href="#DejaVuSerif-6f" x="64.404297"/>
      <use xlink:href="#DejaVuSerif-20" x="124.609375"/>
      <use xlink:href="#DejaVuSerif-70" x="156.396484"/>
      <use xlink:href="#DejaVuSerif-75" x="220.410156"/>
      <use xlink:href="#DejaVuSerif-6d" x="284.814453"/>
      <use xlink:href="#DejaVuSerif-70" x="379.638672"/>
      <use xlink:href="#DejaVuSerif-69" x="443.652344"/>
      <use xlink:href="#DejaVuSerif-6e" x="475.634766"/>
      <use xlink:href="#DejaVuSerif-67" x="540.039062"/>
     </g>
    </g>
    <g id="line2d_64">
     <path d="M 341.883724 123.209916 
L 351.883724 123.209916 
L 361.883724 123.209916 
" style="fill: none; stroke: #1f77b4; stroke-width: 0.7; stroke-linecap: square"/>
    </g>
    <g id="text_21">
     <!-- ro pumping -->
     <g transform="translate(369.883724 126.709916) scale(0.1 -0.1)">
      <use xlink:href="#DejaVuSerif-72"/>
      <use xlink:href="#DejaVuSerif-6f" x="47.802734"/>
      <use xlink:href="#DejaVuSerif-20" x="108.007812"/>
      <use xlink:href="#DejaVuSerif-70" x="139.794922"/>
      <use xlink:href="#DejaVuSerif-75" x="203.808594"/>
      <use xlink:href="#DejaVuSerif-6d" x="268.212891"/>
      <use xlink:href="#DejaVuSerif-70" x="363.037109"/>
      <use xlink:href="#DejaVuSerif-69" x="427.050781"/>
      <use xlink:href="#DejaVuSerif-6e" x="459.033203"/>
      <use xlink:href="#DejaVuSerif-67" x="523.4375"/>
     </g>
    </g>
    <g id="line2d_65">
     <path d="M 341.883724 138.030229 
L 351.883724 138.030229 
L 361.883724 138.030229 
" style="fill: none; stroke: #ff7f0e; stroke-width: 0.7; stroke-linecap: square"/>
    </g>
    <g id="text_22">
     <!-- rc pumping -->
     <g transform="translate(369.883724 141.530229) scale(0.1 -0.1)">
      <use xlink:href="#DejaVuSerif-72"/>
      <use xlink:href="#DejaVuSerif-63" x="47.802734"/>
      <use xlink:href="#DejaVuSerif-20" x="103.808594"/>
      <use xlink:href="#DejaVuSerif-70" x="135.595703"/>
      <use xlink:href="#DejaVuSerif-75" x="199.609375"/>
      <use xlink:href="#DejaVuSerif-6d" x="264.013672"/>
      <use xlink:href="#DejaVuSerif-70" x="358.837891"/>
      <use xlink:href="#DejaVuSerif-69" x="422.851562"/>
      <use xlink:href="#DejaVuSerif-6e" x="454.833984"/>
      <use xlink:href="#DejaVuSerif-67" x="519.238281"/>
     </g>
    </g>
   </g>
  </g>
 </g>
 <defs>
  <clipPath id="p30ea274259">
   <rect x="43.507813" y="3.6" width="395.782161" height="240.84327"/>
  </clipPath>
 </defs>
</svg>
