<svg width="146" height="36" viewBox="0 0 146 36" fill="none" xmlns="http://www.w3.org/2000/svg">
<path d="M0 12C0 5.37258 5.37258 0 12 0H134C140.627 0 146 5.37258 146 12V24C146 30.6274 140.627 36 134 36H12C5.37258 36 0 30.6274 0 24V12Z" fill="#181818"/>
<path d="M17.278 27L12.572 8.8H16.342L19.514 23.256L23.258 8.8H27.158L30.824 23.256L34.022 8.8H37.766L32.982 27H28.666L25.156 13.61L21.568 27H17.278ZM39.9421 27V8.332H43.4521V16.08H43.4781C43.8941 15.3693 44.4661 14.8147 45.1941 14.416C45.9221 14 46.7714 13.792 47.7421 13.792C48.8167 13.792 49.7181 14.026 50.4461 14.494C51.1914 14.9447 51.7547 15.612 52.1361 16.496C52.5347 17.38 52.7341 18.472 52.7341 19.772V27H49.2501V20.084C49.2501 19.0093 49.0334 18.186 48.6001 17.614C48.1841 17.042 47.5081 16.756 46.5721 16.756C45.9827 16.756 45.4454 16.9033 44.9601 17.198C44.4921 17.4753 44.1194 17.8827 43.8421 18.42C43.5821 18.94 43.4521 19.5813 43.4521 20.344V27H39.9421ZM55.8904 27V14.104H59.4004V27H55.8904ZM57.6584 12.258C57.0171 12.258 56.4971 12.076 56.0984 11.712C55.6998 11.3307 55.5004 10.854 55.5004 10.282C55.5004 9.71 55.6998 9.242 56.0984 8.878C56.4971 8.49667 57.0171 8.306 57.6584 8.306C58.2998 8.306 58.8198 8.49667 59.2184 8.878C59.6344 9.242 59.8424 9.71 59.8424 10.282C59.8424 10.854 59.6344 11.3307 59.2184 11.712C58.8198 12.076 58.2998 12.258 57.6584 12.258ZM68.5929 27C67.6742 27 66.8682 26.8613 66.1749 26.584C65.4989 26.2893 64.9702 25.8127 64.5889 25.154C64.2075 24.478 64.0169 23.5593 64.0169 22.398V17.016H61.8069V14.104H64.0169L64.4069 10.594H67.5269V14.104H70.9589V17.016H67.5269V22.45C67.5269 23.0393 67.6569 23.4553 67.9169 23.698C68.1769 23.9233 68.6189 24.036 69.2429 24.036H70.8809V27H68.5929ZM79.598 27.312C78.2806 27.312 77.1106 27.0347 76.088 26.48C75.0826 25.9253 74.294 25.1453 73.722 24.14C73.15 23.1347 72.864 21.982 72.864 20.682C72.864 19.33 73.1413 18.1427 73.696 17.12C74.268 16.08 75.0566 15.2653 76.062 14.676C77.0846 14.0867 78.272 13.792 79.624 13.792C80.9066 13.792 82.0333 14.0693 83.004 14.624C83.992 15.1787 84.7546 15.9413 85.292 16.912C85.8466 17.8653 86.124 18.9487 86.124 20.162C86.124 20.3353 86.124 20.5347 86.124 20.76C86.124 20.968 86.1066 21.1847 86.072 21.41H75.386V19.252H82.562C82.51 18.4547 82.2066 17.822 81.652 17.354C81.1146 16.8687 80.4386 16.626 79.624 16.626C79.0173 16.626 78.4626 16.7647 77.96 17.042C77.4573 17.302 77.0586 17.7007 76.764 18.238C76.4693 18.7753 76.322 19.4513 76.322 20.266V21.02C76.322 21.7133 76.4606 22.32 76.738 22.84C77.0153 23.36 77.3966 23.7587 77.882 24.036C78.3846 24.3133 78.948 24.452 79.572 24.452C80.2133 24.452 80.7506 24.3133 81.184 24.036C81.6173 23.7413 81.9466 23.3687 82.172 22.918H85.76C85.5 23.7327 85.084 24.478 84.512 25.154C83.94 25.8127 83.238 26.3413 82.406 26.74C81.574 27.1213 80.638 27.312 79.598 27.312ZM96.5423 27.312C95.9009 27.312 95.3116 27.2253 94.7743 27.052C94.2369 26.896 93.7516 26.662 93.3183 26.35C92.9023 26.038 92.5469 25.6653 92.2523 25.232L91.8883 27H88.7683V8.332H92.2783V15.898C92.6943 15.326 93.2403 14.832 93.9163 14.416C94.6096 14 95.4849 13.792 96.5423 13.792C97.7729 13.792 98.8563 14.0867 99.7923 14.676C100.746 15.2653 101.491 16.0713 102.028 17.094C102.583 18.1167 102.86 19.278 102.86 20.578C102.86 21.8607 102.583 23.0133 102.028 24.036C101.491 25.0587 100.746 25.8647 99.7923 26.454C98.8563 27.026 97.7729 27.312 96.5423 27.312ZM95.7363 24.27C96.4296 24.27 97.0449 24.114 97.5823 23.802C98.1196 23.4727 98.5356 23.0307 98.8303 22.476C99.1423 21.9213 99.2983 21.28 99.2983 20.552C99.2983 19.8413 99.1423 19.2087 98.8303 18.654C98.5356 18.082 98.1196 17.64 97.5823 17.328C97.0449 16.9987 96.4296 16.834 95.7363 16.834C95.0429 16.834 94.4276 16.9987 93.8903 17.328C93.3529 17.64 92.9369 18.0733 92.6423 18.628C92.3476 19.1827 92.2003 19.824 92.2003 20.552C92.2003 21.28 92.3476 21.93 92.6423 22.502C92.9369 23.0567 93.3529 23.49 93.8903 23.802C94.4276 24.114 95.0429 24.27 95.7363 24.27ZM111.866 27.312C110.636 27.312 109.518 27.026 108.512 26.454C107.507 25.882 106.71 25.0847 106.12 24.062C105.548 23.0393 105.262 21.8693 105.262 20.552C105.262 19.2173 105.557 18.0473 106.146 17.042C106.736 16.0193 107.533 15.222 108.538 14.65C109.544 14.078 110.662 13.792 111.892 13.792C113.14 13.792 114.267 14.078 115.272 14.65C116.278 15.222 117.066 16.0193 117.638 17.042C118.228 18.0473 118.522 19.2173 118.522 20.552C118.522 21.8867 118.228 23.0653 117.638 24.088C117.049 25.0933 116.252 25.882 115.246 26.454C114.258 27.026 113.132 27.312 111.866 27.312ZM111.892 24.296C112.447 24.296 112.95 24.1573 113.4 23.88C113.868 23.6027 114.241 23.1867 114.518 22.632C114.813 22.06 114.96 21.3667 114.96 20.552C114.96 19.72 114.822 19.0267 114.544 18.472C114.267 17.9173 113.894 17.5013 113.426 17.224C112.976 16.9467 112.473 16.808 111.918 16.808C111.364 16.808 110.852 16.9467 110.384 17.224C109.916 17.5013 109.544 17.9173 109.266 18.472C108.989 19.0267 108.85 19.72 108.85 20.552C108.85 21.3667 108.989 22.06 109.266 22.632C109.544 23.1867 109.908 23.6027 110.358 23.88C110.826 24.1573 111.338 24.296 111.892 24.296ZM119.463 27L124.195 20.552L119.463 14.104H123.233L126.431 18.576H126.457L129.629 14.104H133.425L128.693 20.552L133.425 27H129.629L126.457 22.528H126.431L123.233 27H119.463Z" fill="#FEFEFE"/>
</svg>
