<?xml version="1.0" encoding="UTF-8" standalone="no"?>
<!DOCTYPE svg PUBLIC "-//W3C//DTD SVG 1.1//EN"
 "http://www.w3.org/Graphics/SVG/1.1/DTD/svg11.dtd">
<!-- Generated by graphviz version 2.43.0 (0)
 -->
<!-- Title: mpdfg Pages: 1 -->
<svg width="1210pt" height="735pt"
 viewBox="0.00 0.00 1209.52 734.85" xmlns="http://www.w3.org/2000/svg" xmlns:xlink="http://www.w3.org/1999/xlink">
<g id="graph0" class="graph" transform="scale(1 1) rotate(0) translate(4 730.85)">
<title>mpdfg</title>
<polygon fill="white" stroke="transparent" points="-4,4 -4,-730.85 1205.52,-730.85 1205.52,4 -4,4"/>
<!-- start -->
<g id="node1" class="node">
<title>start</title>
<ellipse fill="green" stroke="black" cx="41.02" cy="-705.64" rx="21.43" ry="21.43"/>
<text text-anchor="middle" x="41.02" y="-700.64" font-family="Times,serif" font-size="20.00">▲</text>
</g>
<!-- A0 -->
<g id="node3" class="node">
<title>A0</title>
<polygon fill="#08306b" stroke="transparent" points="511.02,-603.43 511.02,-626.43 710.02,-626.43 710.02,-603.43 511.02,-603.43"/>
<polygon fill="none" stroke="black" points="511.02,-603.43 511.02,-626.43 710.02,-626.43 710.02,-603.43 511.02,-603.43"/>
<text text-anchor="start" x="515.02" y="-611.23" font-family="arial" font-size="14.00" fill="white">Accepted | In Progress (29,973)</text>
<polygon fill="#fdb475" stroke="transparent" points="511.02,-580.43 511.02,-603.43 710.02,-603.43 710.02,-580.43 511.02,-580.43"/>
<polygon fill="none" stroke="black" points="511.02,-580.43 511.02,-603.43 710.02,-603.43 710.02,-580.43 511.02,-580.43"/>
<text text-anchor="start" x="590.02" y="-588.23" font-family="arial" font-size="14.00" fill="white">Instant</text>
</g>
<!-- start&#45;&gt;A0 -->
<g id="edge1" class="edge">
<title>start&#45;&gt;A0</title>
<path fill="none" stroke="#bfbfbf" stroke-width="2.47" stroke-dasharray="5,2" d="M61.95,-700.95C132.32,-688.56 363.79,-647.79 502.4,-623.38"/>
<polygon fill="white" stroke="transparent" points="359.52,-648.43 359.52,-666.43 396.52,-666.43 396.52,-648.43 359.52,-648.43"/>
<text text-anchor="start" x="359.52" y="-653.63" font-family="arial" font-size="16.00" fill="#70b0d6">6308</text>
</g>
<!-- A1 -->
<g id="node4" class="node">
<title>A1</title>
<polygon fill="#4b97c9" stroke="transparent" points="111.02,-363.43 111.02,-386.43 358.02,-386.43 358.02,-363.43 111.02,-363.43"/>
<polygon fill="none" stroke="black" points="111.02,-363.43 111.02,-386.43 358.02,-386.43 358.02,-363.43 111.02,-363.43"/>
<text text-anchor="start" x="115.02" y="-371.23" font-family="arial" font-size="14.00" fill="white">Queued | Awaiting Assignment (11,418)</text>
<polygon fill="#fdb475" stroke="transparent" points="111.02,-340.43 111.02,-363.43 358.02,-363.43 358.02,-340.43 111.02,-340.43"/>
<polygon fill="none" stroke="black" points="111.02,-340.43 111.02,-363.43 358.02,-363.43 358.02,-340.43 111.02,-340.43"/>
<text text-anchor="start" x="214.02" y="-348.23" font-family="arial" font-size="14.00" fill="white">Instant</text>
</g>
<!-- start&#45;&gt;A1 -->
<g id="edge2" class="edge">
<title>start&#45;&gt;A1</title>
<path fill="none" stroke="#bfbfbf" stroke-width="1.26" stroke-dasharray="5,2" d="M44.62,-684.36C54.65,-632.84 87.17,-494.94 161.02,-408.43 166.79,-401.67 173.86,-395.67 181.31,-390.43"/>
<polygon fill="white" stroke="transparent" points="91.52,-534.43 91.52,-552.43 128.52,-552.43 128.52,-534.43 91.52,-534.43"/>
<text text-anchor="start" x="91.52" y="-539.63" font-family="arial" font-size="16.00" fill="#9cc8e1">1132</text>
</g>
<!-- complete -->
<g id="node2" class="node">
<title>complete</title>
<ellipse fill="red" stroke="black" cx="585.02" cy="-21.21" rx="21.43" ry="21.43"/>
<text text-anchor="middle" x="585.02" y="-16.21" font-family="Times,serif" font-size="20.00">■</text>
</g>
<!-- A0&#45;&gt;A0 -->
<g id="edge5" class="edge">
<title>A0&#45;&gt;A0</title>
<path fill="none" stroke="black" stroke-width="2.69" d="M717.58,-611.75C728.53,-610.1 735.52,-607.33 735.52,-603.43 735.52,-600.93 732.65,-598.89 727.71,-597.32"/>
<polygon fill="black" stroke="black" stroke-width="2.69" points="728.1,-593.82 717.58,-595.1 726.6,-600.66 728.1,-593.82"/>
<polygon fill="snow" stroke="transparent" points="736.02,-603.43 736.02,-618.43 819.02,-618.43 819.02,-603.43 736.02,-603.43"/>
<text text-anchor="start" x="760.52" y="-607.23" font-family="arial" font-size="14.00" fill="#69acd4">7,221</text>
<polygon fill="snow" stroke="transparent" points="736.02,-588.43 736.02,-603.43 819.02,-603.43 819.02,-588.43 736.02,-588.43"/>
<text text-anchor="start" x="736.02" y="-592.23" font-family="arial" font-size="14.00" fill="#fdb06f">06h 23m 38s </text>
</g>
<!-- A0&#45;&gt;A1 -->
<g id="edge6" class="edge">
<title>A0&#45;&gt;A1</title>
<path fill="none" stroke="black" stroke-width="2.96" d="M502.36,-597.94C380.14,-590.06 193.1,-568.59 158.02,-510.43 135.37,-472.87 167.2,-427.86 196.33,-397.84"/>
<polygon fill="black" stroke="black" stroke-width="2.96" points="199.03,-400.09 203.64,-390.54 194.09,-395.13 199.03,-400.09"/>
<polygon fill="snow" stroke="transparent" points="158.52,-483.43 158.52,-498.43 241.52,-498.43 241.52,-483.43 158.52,-483.43"/>
<text text-anchor="start" x="183.02" y="-487.23" font-family="arial" font-size="14.00" fill="#61a7d1">8,401</text>
<polygon fill="snow" stroke="transparent" points="158.52,-468.43 158.52,-483.43 241.52,-483.43 241.52,-468.43 158.52,-468.43"/>
<text text-anchor="start" x="158.52" y="-472.23" font-family="arial" font-size="14.00" fill="#fdaf6d">07h 37m 06s </text>
</g>
<!-- A2 -->
<g id="node5" class="node">
<title>A2</title>
<polygon fill="#73b2d7" stroke="transparent" points="352.02,-243.43 352.02,-266.43 541.02,-266.43 541.02,-243.43 352.02,-243.43"/>
<polygon fill="none" stroke="black" points="352.02,-243.43 352.02,-266.43 541.02,-266.43 541.02,-243.43 352.02,-243.43"/>
<text text-anchor="start" x="356.02" y="-251.23" font-family="arial" font-size="14.00" fill="white">Completed | Resolved (5,995)</text>
<polygon fill="#fdb475" stroke="transparent" points="352.02,-220.43 352.02,-243.43 541.02,-243.43 541.02,-220.43 352.02,-220.43"/>
<polygon fill="none" stroke="black" points="352.02,-220.43 352.02,-243.43 541.02,-243.43 541.02,-220.43 352.02,-220.43"/>
<text text-anchor="start" x="426.02" y="-228.23" font-family="arial" font-size="14.00" fill="white">Instant</text>
</g>
<!-- A0&#45;&gt;A2 -->
<g id="edge8" class="edge">
<title>A0&#45;&gt;A2</title>
<path fill="none" stroke="black" stroke-width="1.94" d="M636.82,-576.41C641,-570.9 644.7,-564.8 647.02,-558.43 651.59,-545.9 647.49,-541.75 647.02,-528.43 645.91,-496.37 656.43,-485.09 642.02,-456.43 636.5,-445.44 627.97,-448.57 621.02,-438.43 593.85,-398.77 614.6,-374.32 585.02,-336.43 565.43,-311.32 536.99,-290.79 510.93,-275.55"/>
<polygon fill="black" stroke="black" stroke-width="1.94" points="512.63,-272.49 502.21,-270.59 509.17,-278.58 512.63,-272.49"/>
<polygon fill="snow" stroke="transparent" points="621.52,-423.43 621.52,-438.43 704.52,-438.43 704.52,-423.43 621.52,-423.43"/>
<text text-anchor="start" x="646.02" y="-427.23" font-family="arial" font-size="14.00" fill="#84bbdb">4,005</text>
<polygon fill="snow" stroke="transparent" points="621.52,-408.43 621.52,-423.43 704.52,-423.43 704.52,-408.43 621.52,-408.43"/>
<text text-anchor="start" x="621.52" y="-412.23" font-family="arial" font-size="14.00" fill="#fda762">19h 21m 55s </text>
</g>
<!-- A3 -->
<g id="node6" class="node">
<title>A3</title>
<polygon fill="#8abfdd" stroke="transparent" points="560.02,-123.43 560.02,-146.43 737.02,-146.43 737.02,-123.43 560.02,-123.43"/>
<polygon fill="none" stroke="black" points="560.02,-123.43 560.02,-146.43 737.02,-146.43 737.02,-123.43 560.02,-123.43"/>
<text text-anchor="start" x="564.02" y="-131.23" font-family="arial" font-size="14.00" fill="white">Accepted | Assigned (3,183)</text>
<polygon fill="#fdb475" stroke="transparent" points="560.02,-100.43 560.02,-123.43 737.02,-123.43 737.02,-100.43 560.02,-100.43"/>
<polygon fill="none" stroke="black" points="560.02,-100.43 560.02,-123.43 737.02,-123.43 737.02,-100.43 560.02,-100.43"/>
<text text-anchor="start" x="628.02" y="-108.23" font-family="arial" font-size="14.00" fill="white">Instant</text>
</g>
<!-- A0&#45;&gt;A3 -->
<g id="edge10" class="edge">
<title>A0&#45;&gt;A3</title>
<path fill="none" stroke="black" stroke-width="1.64" d="M662.14,-576.35C709.44,-549.29 775.68,-502.01 802.02,-438.43 807.13,-426.11 806.76,-420.89 802.02,-408.43 798.22,-398.42 791.54,-399.6 786.02,-390.43 761.08,-348.97 769.16,-331.94 748.02,-288.43 725.45,-241.95 693.57,-191.66 671.92,-159.2"/>
<polygon fill="black" stroke="black" stroke-width="1.64" points="674.58,-156.88 666.1,-150.53 668.77,-160.78 674.58,-156.88"/>
<polygon fill="snow" stroke="transparent" points="786.52,-363.43 786.52,-378.43 869.52,-378.43 869.52,-363.43 786.52,-363.43"/>
<text text-anchor="start" x="811.02" y="-367.23" font-family="arial" font-size="14.00" fill="#8ec1de">2,733</text>
<polygon fill="snow" stroke="transparent" points="786.52,-348.43 786.52,-363.43 869.52,-363.43 869.52,-348.43 786.52,-348.43"/>
<text text-anchor="start" x="786.52" y="-352.23" font-family="arial" font-size="14.00" fill="#fdb374">01h 57m 26s </text>
</g>
<!-- A5 -->
<g id="node8" class="node">
<title>A5</title>
<polygon fill="#6fafd6" stroke="transparent" points="373.02,-483.43 373.02,-506.43 523.02,-506.43 523.02,-483.43 373.02,-483.43"/>
<polygon fill="none" stroke="black" points="373.02,-483.43 373.02,-506.43 523.02,-506.43 523.02,-483.43 373.02,-483.43"/>
<text text-anchor="start" x="377.02" y="-491.23" font-family="arial" font-size="14.00" fill="white">Accepted | Wait (6,503)</text>
<polygon fill="#fdb475" stroke="transparent" points="373.02,-460.43 373.02,-483.43 523.02,-483.43 523.02,-460.43 373.02,-460.43"/>
<polygon fill="none" stroke="black" points="373.02,-460.43 373.02,-483.43 523.02,-483.43 523.02,-460.43 373.02,-460.43"/>
<text text-anchor="start" x="427.52" y="-468.23" font-family="arial" font-size="14.00" fill="white">Instant</text>
</g>
<!-- A0&#45;&gt;A5 -->
<g id="edge13" class="edge">
<title>A0&#45;&gt;A5</title>
<path fill="none" stroke="black" stroke-width="2.31" d="M502.5,-590.04C484.32,-583.29 467.37,-573.26 455.02,-558.43 446.42,-548.1 443.66,-533.92 443.41,-520.74"/>
<polygon fill="black" stroke="black" stroke-width="2.31" points="446.92,-520.57 443.69,-510.48 439.92,-520.38 446.92,-520.57"/>
<polygon fill="snow" stroke="transparent" points="455.52,-543.43 455.52,-558.43 538.52,-558.43 538.52,-543.43 455.52,-543.43"/>
<text text-anchor="start" x="480.02" y="-547.23" font-family="arial" font-size="14.00" fill="#76b4d8">5,597</text>
<polygon fill="snow" stroke="transparent" points="455.52,-528.43 455.52,-543.43 538.52,-543.43 538.52,-528.43 455.52,-528.43"/>
<text text-anchor="start" x="455.52" y="-532.23" font-family="arial" font-size="14.00" fill="#fda661">22h 08m 49s </text>
</g>
<!-- A6 -->
<g id="node9" class="node">
<title>A6</title>
<polygon fill="#94c4df" stroke="transparent" points="921.02,-483.43 921.02,-506.43 1092.02,-506.43 1092.02,-483.43 921.02,-483.43"/>
<polygon fill="none" stroke="black" points="921.02,-483.43 921.02,-506.43 1092.02,-506.43 1092.02,-483.43 921.02,-483.43"/>
<text text-anchor="start" x="925.02" y="-491.23" font-family="arial" font-size="14.00" fill="white">Completed | In Call (2,033)</text>
<polygon fill="#fdb475" stroke="transparent" points="921.02,-460.43 921.02,-483.43 1092.02,-483.43 1092.02,-460.43 921.02,-460.43"/>
<polygon fill="none" stroke="black" points="921.02,-460.43 921.02,-483.43 1092.02,-483.43 1092.02,-460.43 921.02,-460.43"/>
<text text-anchor="start" x="986.02" y="-468.23" font-family="arial" font-size="14.00" fill="white">Instant</text>
</g>
<!-- A0&#45;&gt;A6 -->
<g id="edge23" class="edge">
<title>A0&#45;&gt;A6</title>
<path fill="none" stroke="black" stroke-width="1.47" d="M717.79,-593.24C786.36,-586.03 867.91,-574.5 899.02,-558.43 915.5,-549.92 913.35,-539.77 928.02,-528.43 933.69,-524.05 939.84,-519.82 946.12,-515.83"/>
<polygon fill="black" stroke="black" stroke-width="1.47" points="948.04,-518.76 954.73,-510.55 944.38,-512.79 948.04,-518.76"/>
<polygon fill="snow" stroke="transparent" points="928.52,-543.43 928.52,-558.43 981.52,-558.43 981.52,-543.43 928.52,-543.43"/>
<text text-anchor="start" x="938.02" y="-547.23" font-family="arial" font-size="14.00" fill="#94c4df">2,016</text>
<polygon fill="snow" stroke="transparent" points="928.52,-528.43 928.52,-543.43 981.52,-543.43 981.52,-528.43 928.52,-528.43"/>
<text text-anchor="start" x="928.52" y="-532.23" font-family="arial" font-size="14.00" fill="#fdb475">45m 07s</text>
</g>
<!-- A1&#45;&gt;A0 -->
<g id="edge7" class="edge">
<title>A1&#45;&gt;A0</title>
<path fill="none" stroke="black" stroke-width="3.48" d="M233.45,-390.57C234.19,-423.03 240.48,-478.08 272.02,-510.43 302.86,-542.05 407.51,-567.4 492.29,-583.42"/>
<polygon fill="black" stroke="black" stroke-width="3.48" points="491.79,-586.89 502.26,-585.28 493.07,-580.01 491.79,-586.89"/>
<polygon fill="snow" stroke="transparent" points="272.02,-483.43 272.02,-498.43 356.02,-498.43 356.02,-483.43 272.02,-483.43"/>
<text text-anchor="start" x="293.02" y="-487.23" font-family="arial" font-size="14.00" fill="#519ccc">10,627</text>
<polygon fill="snow" stroke="transparent" points="272.02,-468.43 272.02,-483.43 356.02,-483.43 356.02,-468.43 272.02,-468.43"/>
<text text-anchor="start" x="272.02" y="-472.23" font-family="arial" font-size="14.00" fill="#fda35c">01d 03h 25m </text>
</g>
<!-- A1&#45;&gt;A1 -->
<g id="edge21" class="edge">
<title>A1&#45;&gt;A1</title>
<path fill="none" stroke="black" stroke-width="1.18" d="M365.72,-372.12C376.7,-370.25 383.52,-367.35 383.52,-363.43 383.52,-360.85 380.58,-358.72 375.46,-357.02"/>
<polygon fill="black" stroke="black" stroke-width="1.18" points="376.26,-353.62 365.72,-354.73 374.65,-360.43 376.26,-353.62"/>
<polygon fill="snow" stroke="transparent" points="384.02,-363.43 384.02,-378.43 467.02,-378.43 467.02,-363.43 384.02,-363.43"/>
<text text-anchor="start" x="414.02" y="-367.23" font-family="arial" font-size="14.00" fill="#9ec9e2">760</text>
<polygon fill="snow" stroke="transparent" points="384.02,-348.43 384.02,-363.43 467.02,-363.43 467.02,-348.43 384.02,-348.43"/>
<text text-anchor="start" x="384.02" y="-352.23" font-family="arial" font-size="14.00" fill="#fdb272">04h 08m 04s </text>
</g>
<!-- A1&#45;&gt;A2 -->
<g id="edge30" class="edge">
<title>A1&#45;&gt;A2</title>
<path fill="none" stroke="black" stroke-width="1.01" d="M260,-336.13C265.18,-330.46 270.43,-324.38 275.02,-318.43 284.67,-305.93 281.4,-297.9 294.02,-288.43 306.01,-279.43 319.79,-272.27 334.05,-266.57"/>
<polygon fill="black" stroke="black" stroke-width="1.01" points="335.35,-269.82 343.48,-263.03 332.89,-263.27 335.35,-269.82"/>
<polygon fill="snow" stroke="transparent" points="294.02,-303.43 294.02,-318.43 378.02,-318.43 378.02,-303.43 294.02,-303.43"/>
<text text-anchor="start" x="328.02" y="-307.23" font-family="arial" font-size="14.00" fill="#a4cce4">30</text>
<polygon fill="snow" stroke="transparent" points="294.02,-288.43 294.02,-303.43 378.02,-303.43 378.02,-288.43 294.02,-288.43"/>
<text text-anchor="start" x="294.02" y="-292.23" font-family="arial" font-size="14.00" fill="#f47522">04d 02h 53m </text>
</g>
<!-- A1&#45;&gt;A3 -->
<g id="edge28" class="edge">
<title>A1&#45;&gt;A3</title>
<path fill="none" stroke="black" d="M241.15,-336.4C251.5,-303.54 273.87,-247.53 313.02,-216.43 377.95,-164.84 469.76,-142.13 540.86,-132.15"/>
<polygon fill="black" stroke="black" points="541.74,-135.57 551.19,-130.77 540.81,-128.63 541.74,-135.57"/>
<polygon fill="snow" stroke="transparent" points="313.02,-243.43 313.02,-258.43 335.02,-258.43 335.02,-243.43 313.02,-243.43"/>
<text text-anchor="start" x="320.02" y="-247.23" font-family="arial" font-size="14.00" fill="#a4cce4">1</text>
<polygon fill="snow" stroke="transparent" points="313.02,-228.43 313.02,-243.43 335.02,-243.43 335.02,-228.43 313.02,-228.43"/>
<text text-anchor="start" x="313.02" y="-232.23" font-family="arial" font-size="14.00" fill="#fdb475">37s</text>
</g>
<!-- A2&#45;&gt;A0 -->
<g id="edge20" class="edge">
<title>A2&#45;&gt;A0</title>
<path fill="none" stroke="black" stroke-width="1.04" d="M548.81,-246.49C621.22,-250.37 709.34,-260.84 733.02,-288.43 753.23,-311.96 679.6,-532.87 662.02,-558.43 659.47,-562.14 656.52,-565.73 653.35,-569.14"/>
<polygon fill="black" stroke="black" stroke-width="1.04" points="650.75,-566.79 646.13,-576.32 655.69,-571.75 650.75,-566.79"/>
<polygon fill="snow" stroke="transparent" points="715.52,-423.43 715.52,-438.43 798.52,-438.43 798.52,-423.43 715.52,-423.43"/>
<text text-anchor="start" x="745.52" y="-427.23" font-family="arial" font-size="14.00" fill="#a3cbe3">191</text>
<polygon fill="snow" stroke="transparent" points="715.52,-408.43 715.52,-423.43 798.52,-423.43 798.52,-408.43 715.52,-408.43"/>
<text text-anchor="start" x="715.52" y="-412.23" font-family="arial" font-size="14.00" fill="#fda661">22h 27m 05s </text>
</g>
<!-- A2&#45;&gt;A1 -->
<g id="edge9" class="edge">
<title>A2&#45;&gt;A1</title>
<path fill="none" stroke="black" stroke-width="1.02" d="M420.89,-270.58C415.54,-276.36 410.01,-282.53 405.02,-288.43 394.17,-301.25 395.86,-308.9 382.02,-318.43 374.56,-323.56 366.5,-328.11 358.11,-332.13"/>
<polygon fill="black" stroke="black" stroke-width="1.02" points="356.57,-328.98 348.9,-336.29 359.45,-335.36 356.57,-328.98"/>
<polygon fill="snow" stroke="transparent" points="405.02,-303.43 405.02,-318.43 489.02,-318.43 489.02,-303.43 405.02,-303.43"/>
<text text-anchor="start" x="439.02" y="-307.23" font-family="arial" font-size="14.00" fill="#a3cbe3">92</text>
<polygon fill="snow" stroke="transparent" points="405.02,-288.43 405.02,-303.43 489.02,-303.43 489.02,-288.43 405.02,-288.43"/>
<text text-anchor="start" x="405.02" y="-292.23" font-family="arial" font-size="14.00" fill="#fda058">01d 07h 02m </text>
</g>
<!-- A2&#45;&gt;A2 -->
<g id="edge31" class="edge">
<title>A2&#45;&gt;A2</title>
<path fill="none" stroke="black" d="M548.87,-252.75C559.63,-250.93 566.52,-247.82 566.52,-243.43 566.52,-240.61 563.69,-238.32 558.83,-236.57"/>
<polygon fill="black" stroke="black" points="559.42,-233.11 548.87,-234.11 557.74,-239.9 559.42,-233.11"/>
<polygon fill="snow" stroke="transparent" points="567.02,-243.43 567.02,-258.43 620.02,-258.43 620.02,-243.43 567.02,-243.43"/>
<text text-anchor="start" x="589.52" y="-247.23" font-family="arial" font-size="14.00" fill="#a4cce4">5</text>
<polygon fill="snow" stroke="transparent" points="567.02,-228.43 567.02,-243.43 620.02,-243.43 620.02,-228.43 567.02,-228.43"/>
<text text-anchor="start" x="567.02" y="-232.23" font-family="arial" font-size="14.00" fill="#fdb475">01m 43s</text>
</g>
<!-- A2&#45;&gt;A3 -->
<g id="edge19" class="edge">
<title>A2&#45;&gt;A3</title>
<path fill="none" stroke="black" d="M479.1,-216.35C499,-201.31 525.22,-182.64 550.02,-168.43 558.25,-163.71 567.07,-159.14 575.94,-154.83"/>
<polygon fill="black" stroke="black" points="577.63,-157.9 585.16,-150.44 574.62,-151.58 577.63,-157.9"/>
<polygon fill="snow" stroke="transparent" points="550.02,-183.43 550.02,-198.43 634.02,-198.43 634.02,-183.43 550.02,-183.43"/>
<text text-anchor="start" x="584.02" y="-187.23" font-family="arial" font-size="14.00" fill="#a4cce4">19</text>
<polygon fill="snow" stroke="transparent" points="550.02,-168.43 550.02,-183.43 634.02,-183.43 634.02,-168.43 550.02,-168.43"/>
<text text-anchor="start" x="550.02" y="-172.23" font-family="arial" font-size="14.00" fill="#fc9143">02d 07h 26m </text>
</g>
<!-- A4 -->
<g id="node7" class="node">
<title>A4</title>
<polygon fill="#76b4d8" stroke="transparent" points="62.02,-123.43 62.02,-146.43 236.02,-146.43 236.02,-123.43 62.02,-123.43"/>
<polygon fill="none" stroke="black" points="62.02,-123.43 62.02,-146.43 236.02,-146.43 236.02,-123.43 62.02,-123.43"/>
<text text-anchor="start" x="66.02" y="-131.23" font-family="arial" font-size="14.00" fill="white">Completed | Closed (5,700)</text>
<polygon fill="#fdb475" stroke="transparent" points="62.02,-100.43 62.02,-123.43 236.02,-123.43 236.02,-100.43 62.02,-100.43"/>
<polygon fill="none" stroke="black" points="62.02,-100.43 62.02,-123.43 236.02,-123.43 236.02,-100.43 62.02,-100.43"/>
<text text-anchor="start" x="128.52" y="-108.23" font-family="arial" font-size="14.00" fill="white">Instant</text>
</g>
<!-- A2&#45;&gt;A4 -->
<g id="edge12" class="edge">
<title>A2&#45;&gt;A4</title>
<path fill="none" stroke="black" stroke-width="2.33" d="M380.48,-216.38C334.27,-198.03 272.3,-173.4 224.1,-154.26"/>
<polygon fill="black" stroke="black" stroke-width="2.33" points="225.24,-150.94 214.66,-150.5 222.66,-157.45 225.24,-150.94"/>
<polygon fill="snow" stroke="transparent" points="332.02,-183.43 332.02,-198.43 416.02,-198.43 416.02,-183.43 332.02,-183.43"/>
<text text-anchor="start" x="357.02" y="-187.23" font-family="arial" font-size="14.00" fill="#76b4d8">5,688</text>
<polygon fill="snow" stroke="transparent" points="332.02,-168.43 332.02,-183.43 416.02,-183.43 416.02,-168.43 332.02,-168.43"/>
<text text-anchor="start" x="332.02" y="-172.23" font-family="arial" font-size="14.00" fill="#ee6815">04d 22h 52m </text>
</g>
<!-- A3&#45;&gt;A0 -->
<g id="edge11" class="edge">
<title>A3&#45;&gt;A0</title>
<path fill="none" stroke="black" stroke-width="1.72" d="M698.14,-150.51C773.02,-193.44 901.98,-284.83 869.02,-390.43 839.72,-484.3 810.56,-509.9 725.02,-558.43 716.22,-563.42 706.73,-568.08 697.12,-572.34"/>
<polygon fill="black" stroke="black" stroke-width="1.72" points="695.69,-569.15 687.89,-576.31 698.46,-575.58 695.69,-569.15"/>
<polygon fill="snow" stroke="transparent" points="874.02,-363.43 874.02,-378.43 958.02,-378.43 958.02,-363.43 874.02,-363.43"/>
<text text-anchor="start" x="899.02" y="-367.23" font-family="arial" font-size="14.00" fill="#8bc0dd">3,085</text>
<polygon fill="snow" stroke="transparent" points="874.02,-348.43 874.02,-363.43 958.02,-363.43 958.02,-348.43 874.02,-348.43"/>
<text text-anchor="start" x="874.02" y="-352.23" font-family="arial" font-size="14.00" fill="#fd9d53">01d 13h 03m </text>
</g>
<!-- A3&#45;&gt;A3 -->
<g id="edge22" class="edge">
<title>A3&#45;&gt;A3</title>
<path fill="none" stroke="black" stroke-width="1.02" d="M744.92,-131.94C755.62,-130.33 762.52,-127.49 762.52,-123.43 762.52,-120.83 759.69,-118.73 754.84,-117.13"/>
<polygon fill="black" stroke="black" stroke-width="1.02" points="755.44,-113.68 744.92,-114.91 753.92,-120.51 755.44,-113.68"/>
<polygon fill="snow" stroke="transparent" points="763.02,-123.43 763.02,-138.43 846.02,-138.43 846.02,-123.43 763.02,-123.43"/>
<text text-anchor="start" x="796.52" y="-127.23" font-family="arial" font-size="14.00" fill="#a3cbe3">98</text>
<polygon fill="snow" stroke="transparent" points="763.02,-108.43 763.02,-123.43 846.02,-123.43 846.02,-108.43 763.02,-108.43"/>
<text text-anchor="start" x="763.02" y="-112.23" font-family="arial" font-size="14.00" fill="#fdad6a">12h 11m 11s </text>
</g>
<!-- A4&#45;&gt;complete -->
<g id="edge3" class="edge">
<title>A4&#45;&gt;complete</title>
<path fill="none" stroke="#bfbfbf" stroke-width="2.3" stroke-dasharray="5,2" d="M244.17,-100.56C348.4,-76.6 508.27,-39.85 564.56,-26.92"/>
<polygon fill="white" stroke="transparent" points="406.52,-60.43 406.52,-78.43 443.52,-78.43 443.52,-60.43 406.52,-60.43"/>
<text text-anchor="start" x="406.52" y="-65.63" font-family="arial" font-size="16.00" fill="#76b4d8">5558</text>
</g>
<!-- A4&#45;&gt;A0 -->
<g id="edge24" class="edge">
<title>A4&#45;&gt;A0</title>
<path fill="none" stroke="black" stroke-width="1.03" d="M117.63,-150.78C65.86,-197.62 -28.17,-299.08 9.02,-390.43 48.37,-487.07 79.02,-513.14 173.02,-558.43 227.52,-584.68 382.34,-595.29 492.19,-599.57"/>
<polygon fill="black" stroke="black" stroke-width="1.03" points="492.22,-603.07 502.34,-599.95 492.48,-596.08 492.22,-603.07"/>
<polygon fill="snow" stroke="transparent" points="9.02,-363.43 9.02,-378.43 93.02,-378.43 93.02,-363.43 9.02,-363.43"/>
<text text-anchor="start" x="39.52" y="-367.23" font-family="arial" font-size="14.00" fill="#a3cbe3">111</text>
<polygon fill="snow" stroke="transparent" points="9.02,-348.43 9.02,-363.43 93.02,-363.43 93.02,-348.43 9.02,-348.43"/>
<text text-anchor="start" x="9.02" y="-352.23" font-family="arial" font-size="14.00" fill="#e65b0c">05d 18h 40m </text>
</g>
<!-- A4&#45;&gt;A1 -->
<g id="edge27" class="edge">
<title>A4&#45;&gt;A1</title>
<path fill="none" stroke="black" d="M145.91,-150.52C143.37,-180.57 142.4,-230.86 158.02,-270.43 166.59,-292.12 182.32,-312.53 197.25,-328.58"/>
<polygon fill="black" stroke="black" points="195.03,-331.32 204.49,-336.1 200.08,-326.47 195.03,-331.32"/>
<polygon fill="snow" stroke="transparent" points="158.02,-243.43 158.02,-258.43 242.02,-258.43 242.02,-243.43 158.02,-243.43"/>
<text text-anchor="start" x="192.02" y="-247.23" font-family="arial" font-size="14.00" fill="#a4cce4">19</text>
<polygon fill="snow" stroke="transparent" points="158.02,-228.43 158.02,-243.43 242.02,-243.43 242.02,-228.43 158.02,-228.43"/>
<text text-anchor="start" x="158.02" y="-232.23" font-family="arial" font-size="14.00" fill="#f77e2b">03d 13h 35m </text>
</g>
<!-- A4&#45;&gt;A4 -->
<g id="edge26" class="edge">
<title>A4&#45;&gt;A4</title>
<path fill="none" stroke="black" d="M244.24,-132.01C255.03,-130.4 262.02,-127.54 262.02,-123.43 262.02,-120.79 259.15,-118.67 254.25,-117.06"/>
<polygon fill="black" stroke="black" points="254.76,-113.59 244.24,-114.85 253.25,-120.43 254.76,-113.59"/>
<polygon fill="snow" stroke="transparent" points="262.02,-123.43 262.02,-138.43 346.02,-138.43 346.02,-123.43 262.02,-123.43"/>
<text text-anchor="start" x="296.02" y="-127.23" font-family="arial" font-size="14.00" fill="#a4cce4">12</text>
<polygon fill="snow" stroke="transparent" points="262.02,-108.43 262.02,-123.43 346.02,-123.43 346.02,-108.43 262.02,-108.43"/>
<text text-anchor="start" x="262.02" y="-112.23" font-family="arial" font-size="14.00" fill="#7f2704">11d 11h 00m </text>
</g>
<!-- A5&#45;&gt;A0 -->
<g id="edge15" class="edge">
<title>A5&#45;&gt;A0</title>
<path fill="none" stroke="black" stroke-width="1.54" d="M510.13,-510.46C519.89,-515.76 529.54,-521.77 538.02,-528.43 551.68,-539.14 551.11,-545.8 563.02,-558.43 566.3,-561.9 569.8,-565.44 573.35,-568.93"/>
<polygon fill="black" stroke="black" stroke-width="1.54" points="571.02,-571.55 580.65,-575.98 575.88,-566.52 571.02,-571.55"/>
<polygon fill="snow" stroke="transparent" points="563.02,-543.43 563.02,-558.43 647.02,-558.43 647.02,-543.43 563.02,-543.43"/>
<text text-anchor="start" x="588.02" y="-547.23" font-family="arial" font-size="14.00" fill="#91c3df">2,296</text>
<polygon fill="snow" stroke="transparent" points="563.02,-528.43 563.02,-543.43 647.02,-543.43 647.02,-528.43 563.02,-528.43"/>
<text text-anchor="start" x="563.02" y="-532.23" font-family="arial" font-size="14.00" fill="#ee6815">04d 22h 25m </text>
</g>
<!-- A5&#45;&gt;A1 -->
<g id="edge14" class="edge">
<title>A5&#45;&gt;A1</title>
<path fill="none" stroke="black" stroke-width="1.24" d="M400.79,-456.38C368.25,-438.44 324.85,-414.51 290.48,-395.56"/>
<polygon fill="black" stroke="black" stroke-width="1.24" points="291.95,-392.37 281.5,-390.61 288.57,-398.5 291.95,-392.37"/>
<polygon fill="snow" stroke="transparent" points="366.02,-423.43 366.02,-438.43 450.02,-438.43 450.02,-423.43 366.02,-423.43"/>
<text text-anchor="start" x="391.02" y="-427.23" font-family="arial" font-size="14.00" fill="#9cc8e1">1,014</text>
<polygon fill="snow" stroke="transparent" points="366.02,-408.43 366.02,-423.43 450.02,-423.43 450.02,-408.43 366.02,-408.43"/>
<text text-anchor="start" x="366.02" y="-412.23" font-family="arial" font-size="14.00" fill="#fc984c">01d 21h 13m </text>
</g>
<!-- A5&#45;&gt;A2 -->
<g id="edge18" class="edge">
<title>A5&#45;&gt;A2</title>
<path fill="none" stroke="black" stroke-width="1.46" d="M463.07,-456.14C482.8,-418 512.34,-345.65 489.02,-288.43 487.69,-285.16 485.99,-282.01 484.04,-278.99"/>
<polygon fill="black" stroke="black" stroke-width="1.46" points="486.75,-276.77 477.95,-270.87 481.15,-280.97 486.75,-276.77"/>
<polygon fill="snow" stroke="transparent" points="497.02,-363.43 497.02,-378.43 581.02,-378.43 581.02,-363.43 497.02,-363.43"/>
<text text-anchor="start" x="522.02" y="-367.23" font-family="arial" font-size="14.00" fill="#94c4df">1,955</text>
<polygon fill="snow" stroke="transparent" points="497.02,-348.43 497.02,-363.43 581.02,-363.43 581.02,-348.43 497.02,-348.43"/>
<text text-anchor="start" x="497.02" y="-352.23" font-family="arial" font-size="14.00" fill="#dd5207">06d 11h 49m </text>
</g>
<!-- A5&#45;&gt;A3 -->
<g id="edge17" class="edge">
<title>A5&#45;&gt;A3</title>
<path fill="none" stroke="black" stroke-width="1.08" d="M531.22,-477.53C589.54,-472.16 660.28,-461.07 679.02,-438.43 687.78,-427.85 663.8,-241.23 653,-160.81"/>
<polygon fill="black" stroke="black" stroke-width="1.08" points="656.43,-160.09 651.63,-150.65 649.49,-161.03 656.43,-160.09"/>
<polygon fill="snow" stroke="transparent" points="672.02,-303.43 672.02,-318.43 756.02,-318.43 756.02,-303.43 672.02,-303.43"/>
<text text-anchor="start" x="702.52" y="-307.23" font-family="arial" font-size="14.00" fill="#a1cbe3">332</text>
<polygon fill="snow" stroke="transparent" points="672.02,-288.43 672.02,-303.43 756.02,-303.43 756.02,-288.43 672.02,-288.43"/>
<text text-anchor="start" x="672.02" y="-292.23" font-family="arial" font-size="14.00" fill="#f57724">03d 22h 10m </text>
</g>
<!-- A5&#45;&gt;A5 -->
<g id="edge16" class="edge">
<title>A5&#45;&gt;A5</title>
<path fill="none" stroke="black" stroke-width="1.21" d="M531.23,-493.29C541.95,-491.58 549.02,-488.29 549.02,-483.43 549.02,-480.31 546.12,-477.84 541.21,-476.02"/>
<polygon fill="black" stroke="black" stroke-width="1.21" points="541.78,-472.56 531.23,-473.57 540.11,-479.35 541.78,-472.56"/>
<polygon fill="snow" stroke="transparent" points="549.02,-483.43 549.02,-498.43 633.02,-498.43 633.02,-483.43 549.02,-483.43"/>
<text text-anchor="start" x="579.52" y="-487.23" font-family="arial" font-size="14.00" fill="#9dc9e2">906</text>
<polygon fill="snow" stroke="transparent" points="549.02,-468.43 549.02,-483.43 633.02,-483.43 633.02,-468.43 549.02,-468.43"/>
<text text-anchor="start" x="549.02" y="-472.23" font-family="arial" font-size="14.00" fill="#fa8837">02d 21h 36m </text>
</g>
<!-- A6&#45;&gt;complete -->
<g id="edge4" class="edge">
<title>A6&#45;&gt;complete</title>
<path fill="none" stroke="#bfbfbf" stroke-width="1.44" stroke-dasharray="5,2" d="M1005.32,-456.18C1004.75,-432.27 1004.02,-395.98 1004.02,-364.43 1004.02,-364.43 1004.02,-364.43 1004.02,-122.43 1004.02,-39.78 691.76,-25.14 606.38,-22.69"/>
<polygon fill="white" stroke="transparent" points="1004.52,-234.43 1004.52,-252.43 1041.52,-252.43 1041.52,-234.43 1004.52,-234.43"/>
<text text-anchor="start" x="1004.52" y="-239.63" font-family="arial" font-size="16.00" fill="#96c5e0">1882</text>
</g>
<!-- A6&#45;&gt;A0 -->
<g id="edge25" class="edge">
<title>A6&#45;&gt;A0</title>
<path fill="none" stroke="black" stroke-width="1.03" d="M1004.08,-510.66C1001.42,-526.95 995.24,-546.89 981.02,-558.43 943.11,-589.18 821.53,-598.98 727.77,-601.83"/>
<polygon fill="black" stroke="black" stroke-width="1.03" points="727.54,-598.34 717.64,-602.12 727.74,-605.34 727.54,-598.34"/>
<polygon fill="snow" stroke="transparent" points="999.02,-543.43 999.02,-558.43 1083.02,-558.43 1083.02,-543.43 999.02,-543.43"/>
<text text-anchor="start" x="1029.52" y="-547.23" font-family="arial" font-size="14.00" fill="#a3cbe3">134</text>
<polygon fill="snow" stroke="transparent" points="999.02,-528.43 999.02,-543.43 1083.02,-543.43 1083.02,-528.43 999.02,-528.43"/>
<text text-anchor="start" x="999.02" y="-532.23" font-family="arial" font-size="14.00" fill="#fa8736">02d 23h 56m </text>
</g>
<!-- A6&#45;&gt;A6 -->
<g id="edge29" class="edge">
<title>A6&#45;&gt;A6</title>
<path fill="none" stroke="black" d="M1099.56,-493.03C1110.44,-491.26 1117.52,-488.06 1117.52,-483.43 1117.52,-480.39 1114.47,-477.97 1109.3,-476.16"/>
<polygon fill="black" stroke="black" points="1110.1,-472.75 1099.56,-473.83 1108.47,-479.56 1110.1,-472.75"/>
<polygon fill="snow" stroke="transparent" points="1117.52,-483.43 1117.52,-498.43 1201.52,-498.43 1201.52,-483.43 1117.52,-483.43"/>
<text text-anchor="start" x="1151.52" y="-487.23" font-family="arial" font-size="14.00" fill="#a4cce4">17</text>
<polygon fill="snow" stroke="transparent" points="1117.52,-468.43 1117.52,-483.43 1201.52,-483.43 1201.52,-468.43 1117.52,-468.43"/>
<text text-anchor="start" x="1117.52" y="-472.23" font-family="arial" font-size="14.00" fill="#fa8938">02d 21h 09m </text>
</g>
</g>
</svg>
