<?xml version="1.0" encoding="utf-8" standalone="no"?>
<!DOCTYPE svg PUBLIC "-//W3C//DTD SVG 1.1//EN"
  "http://www.w3.org/Graphics/SVG/1.1/DTD/svg11.dtd">
<svg xmlns:xlink="http://www.w3.org/1999/xlink" width="447.59952pt" height="278.394587pt" viewBox="0 0 447.59952 278.394587" xmlns="http://www.w3.org/2000/svg" version="1.1">
 <metadata>
  <rdf:RDF xmlns:dc="http://purl.org/dc/elements/1.1/" xmlns:cc="http://creativecommons.org/ns#" xmlns:rdf="http://www.w3.org/1999/02/22-rdf-syntax-ns#">
   <cc:Work>
    <dc:type rdf:resource="http://purl.org/dc/dcmitype/StillImage"/>
    <dc:date>2025-09-26T12:13:31.267978</dc:date>
    <dc:format>image/svg+xml</dc:format>
    <dc:creator>
     <cc:Agent>
      <dc:title>Matplotlib v3.9.4, https://matplotlib.org/</dc:title>
     </cc:Agent>
    </dc:creator>
   </cc:Work>
  </rdf:RDF>
 </metadata>
 <defs>
  <style type="text/css">*{stroke-linejoin: round; stroke-linecap: butt}</style>
 </defs>
 <g id="figure_1">
  <g id="patch_1">
   <path d="M 0 278.394587 
L 447.59952 278.394587 
L 447.59952 0 
L 0 0 
z
" style="fill: #ffffff"/>
  </g>
  <g id="axes_1">
   <g id="patch_2">
    <path d="M 45.0875 244.29615 
L 400.913582 244.29615 
L 400.913582 4.114758 
L 45.0875 4.114758 
z
" style="fill: #ffffff"/>
   </g>
   <g id="PolyCollection_1">
    <defs>
     <path id="m25e3595d96" d="M 63.560485 -37.823049 
L 63.560485 -37.82218 
L 64.226216 -37.82218 
L 64.891946 -37.82218 
L 65.557676 -37.82218 
L 66.223407 -37.82218 
L 66.889137 -37.82218 
L 67.554867 -37.82218 
L 68.220598 -37.82218 
L 68.886328 -37.82218 
L 69.552058 -37.82218 
L 70.217788 -37.82218 
L 70.883519 -37.82218 
L 71.549249 -37.82218 
L 72.214979 -37.82218 
L 72.88071 -37.82218 
L 73.54644 -37.82218 
L 74.21217 -37.82218 
L 74.877901 -37.82218 
L 75.543631 -37.82218 
L 76.209361 -37.82218 
L 76.875092 -37.82218 
L 77.540822 -37.82218 
L 78.206552 -37.82218 
L 78.872283 -37.82218 
L 79.538013 -37.82218 
L 80.203743 -37.82218 
L 80.869474 -37.82218 
L 81.535204 -37.82218 
L 82.200934 -37.82218 
L 82.866665 -37.82218 
L 83.532395 -37.82218 
L 84.198125 -37.82218 
L 84.863856 -37.82218 
L 85.529586 -37.82218 
L 86.195316 -37.82218 
L 86.861047 -37.82218 
L 87.526777 -37.82218 
L 88.192507 -37.82218 
L 88.858238 -37.82218 
L 89.523968 -37.82218 
L 90.189698 -37.82218 
L 90.855429 -37.82218 
L 91.521159 -37.82218 
L 92.186889 -37.82218 
L 92.85262 -37.82218 
L 93.51835 -37.82218 
L 94.18408 -37.82218 
L 94.849811 -37.82218 
L 95.515541 -37.82218 
L 96.181271 -37.82218 
L 96.847002 -37.82218 
L 97.512732 -37.82218 
L 98.178462 -37.82218 
L 98.844193 -37.82218 
L 99.509923 -37.82218 
L 100.175653 -37.82218 
L 100.841383 -37.82218 
L 101.507114 -37.82218 
L 102.172844 -37.82218 
L 102.838574 -37.82218 
L 103.504305 -37.82218 
L 104.170035 -37.82218 
L 104.835765 -37.82218 
L 105.501496 -37.82218 
L 106.167226 -37.82218 
L 106.832956 -37.82218 
L 107.498687 -37.82218 
L 108.164417 -37.82218 
L 108.830147 -37.82218 
L 109.495878 -37.82218 
L 110.161608 -37.82218 
L 110.827338 -37.82218 
L 111.493069 -37.82218 
L 112.158799 -37.82218 
L 112.824529 -37.82218 
L 113.49026 -37.82218 
L 114.15599 -37.82218 
L 114.82172 -37.82218 
L 115.487451 -37.82218 
L 116.153181 -37.82218 
L 116.818911 -37.82218 
L 117.484642 -37.82218 
L 118.150372 -37.82218 
L 118.816102 -37.82218 
L 119.481833 -37.82218 
L 120.147563 -37.82218 
L 120.813293 -37.82218 
L 121.479024 -37.82218 
L 122.144754 -37.82218 
L 122.810484 -37.82218 
L 123.476215 -37.82218 
L 124.141945 -37.82218 
L 124.807675 -37.82218 
L 125.473406 -37.82218 
L 126.139136 -37.82218 
L 126.804866 -37.82218 
L 127.470597 -37.82218 
L 128.136327 -37.82218 
L 128.802057 -37.82218 
L 129.467788 -37.82218 
L 130.133518 -37.82218 
L 130.799248 -37.82218 
L 131.464978 -37.82218 
L 132.130709 -37.82218 
L 132.796439 -37.82218 
L 133.462169 -37.82218 
L 134.1279 -37.82218 
L 134.79363 -37.82218 
L 135.45936 -37.82218 
L 136.125091 -37.82218 
L 136.790821 -37.82218 
L 137.456551 -37.82218 
L 138.122282 -37.82218 
L 138.788012 -37.82218 
L 139.453742 -37.82218 
L 140.119473 -37.82218 
L 140.785203 -37.82218 
L 141.450933 -37.82218 
L 142.116664 -37.82218 
L 142.782394 -37.82218 
L 143.448124 -37.82218 
L 144.113855 -37.82218 
L 144.779585 -37.82218 
L 145.445315 -37.82218 
L 146.111046 -37.82218 
L 146.776776 -37.82218 
L 147.442506 -37.82218 
L 148.108237 -37.82218 
L 148.773967 -37.82218 
L 149.439697 -37.82218 
L 150.105428 -37.82218 
L 150.771158 -37.82218 
L 151.436888 -37.82218 
L 152.102619 -37.82218 
L 152.768349 -37.82218 
L 153.434079 -37.82218 
L 154.09981 -37.82218 
L 154.76554 -37.82218 
L 155.43127 -37.82218 
L 156.097001 -37.82218 
L 156.762731 -37.82218 
L 157.428461 -37.82218 
L 158.094191 -37.82218 
L 158.759922 -37.82218 
L 159.425652 -37.82218 
L 160.091383 -37.82218 
L 160.757113 -37.82218 
L 161.422843 -37.82218 
L 162.088573 -37.82218 
L 162.754304 -37.82218 
L 163.420034 -37.82218 
L 164.085764 -37.82218 
L 164.751495 -37.82218 
L 165.417225 -37.82218 
L 166.082955 -37.82218 
L 166.748686 -37.82218 
L 167.414416 -37.82218 
L 168.080146 -37.82218 
L 168.745877 -37.82218 
L 169.411607 -37.82218 
L 170.077337 -37.82218 
L 170.743068 -37.82218 
L 171.408798 -37.82218 
L 172.074528 -37.82218 
L 172.740259 -37.82218 
L 173.405989 -37.82218 
L 174.071719 -37.82218 
L 174.73745 -37.82218 
L 175.40318 -37.82218 
L 176.06891 -37.82218 
L 176.734641 -37.82218 
L 177.400371 -37.82218 
L 178.066101 -37.82218 
L 178.731832 -37.82218 
L 179.397562 -37.82218 
L 180.063292 -37.82218 
L 180.729023 -37.82218 
L 181.394753 -37.82218 
L 182.060483 -37.82218 
L 182.726214 -37.82218 
L 183.391944 -37.82218 
L 184.057674 -37.82218 
L 184.723405 -37.82218 
L 185.389135 -37.82218 
L 186.054865 -37.82218 
L 186.720596 -37.82218 
L 187.386326 -37.82218 
L 188.052056 -37.82218 
L 188.717786 -37.82218 
L 189.383517 -37.82218 
L 190.049247 -37.82218 
L 190.714977 -37.82218 
L 191.380708 -37.82218 
L 192.046438 -37.82218 
L 192.712168 -37.82218 
L 193.377899 -37.82218 
L 194.043629 -37.82218 
L 194.709359 -37.82218 
L 195.37509 -37.82218 
L 196.04082 -37.82218 
L 196.70655 -37.82218 
L 197.372281 -37.82218 
L 198.038011 -37.82218 
L 198.703741 -37.82218 
L 199.369472 -37.82218 
L 200.035202 -37.82218 
L 200.700932 -37.82218 
L 201.366663 -37.82218 
L 202.032393 -37.82218 
L 202.698123 -37.82218 
L 203.363854 -37.82218 
L 204.029584 -37.82218 
L 204.695314 -37.82218 
L 205.361045 -37.82218 
L 206.026775 -37.82218 
L 206.692505 -37.82218 
L 207.358236 -37.82218 
L 208.023966 -37.82218 
L 208.689696 -37.82218 
L 209.355427 -37.82218 
L 210.021157 -37.82218 
L 210.686887 -37.82218 
L 211.352618 -37.82218 
L 212.018348 -37.82218 
L 212.684078 -37.82218 
L 213.349809 -37.82218 
L 214.015539 -37.82218 
L 214.681269 -37.82218 
L 215.347 -37.82218 
L 216.01273 -37.82218 
L 216.67846 -37.82218 
L 217.34419 -37.82218 
L 218.009921 -37.82218 
L 218.675651 -37.82218 
L 219.341381 -37.82218 
L 220.007112 -37.82218 
L 220.672842 -37.82218 
L 221.338572 -37.82218 
L 222.004303 -37.82218 
L 222.670033 -37.82218 
L 223.335763 -37.82218 
L 224.001494 -37.82218 
L 224.667224 -37.82218 
L 225.332954 -37.82218 
L 225.998685 -37.82218 
L 226.664415 -37.82218 
L 227.330145 -37.82218 
L 227.995876 -37.82218 
L 228.661606 -37.82218 
L 229.327336 -37.82218 
L 229.993067 -37.82218 
L 230.658797 -37.82218 
L 231.324527 -37.82218 
L 231.990258 -37.82218 
L 232.655988 -37.82218 
L 233.321718 -37.82218 
L 233.987449 -37.82218 
L 234.653179 -37.82218 
L 235.318909 -37.82218 
L 235.98464 -37.82218 
L 236.65037 -37.82218 
L 237.3161 -37.82218 
L 237.981831 -37.82218 
L 238.647561 -37.82218 
L 239.313291 -37.82218 
L 239.979022 -37.82218 
L 240.644752 -37.82218 
L 241.310482 -37.82218 
L 241.976213 -37.82218 
L 242.641943 -37.82218 
L 243.307673 -37.82218 
L 243.973403 -37.82218 
L 244.639134 -37.82218 
L 245.304864 -37.82218 
L 245.970594 -37.82218 
L 246.636325 -37.82218 
L 247.302055 -37.82218 
L 247.967785 -37.82218 
L 248.633516 -37.82218 
L 249.299246 -37.82218 
L 249.964976 -37.82218 
L 250.630707 -37.82218 
L 251.296437 -37.82218 
L 251.962167 -37.82218 
L 252.627898 -37.82218 
L 253.293628 -37.82218 
L 253.959358 -37.82218 
L 254.625089 -37.82218 
L 255.290819 -37.82218 
L 255.956549 -37.82218 
L 256.62228 -37.82218 
L 257.28801 -37.82218 
L 257.95374 -37.82218 
L 258.619471 -37.82218 
L 259.285201 -37.82218 
L 259.950931 -37.82218 
L 260.616662 -37.82218 
L 261.282392 -37.82218 
L 261.948122 -37.82218 
L 262.613853 -37.82218 
L 263.279583 -37.82218 
L 263.945313 -37.82218 
L 264.611044 -37.82218 
L 265.276774 -37.82218 
L 265.942504 -37.82218 
L 266.608235 -37.82218 
L 267.273965 -37.82218 
L 267.939695 -37.82218 
L 268.605426 -37.82218 
L 269.271156 -37.82218 
L 269.936886 -37.82218 
L 270.602617 -37.82218 
L 271.268347 -37.82218 
L 271.934077 -37.82218 
L 272.599808 -37.82218 
L 273.265538 -37.82218 
L 273.931268 -37.82218 
L 274.596998 -37.82218 
L 275.262729 -37.82218 
L 275.928459 -37.82218 
L 276.594189 -37.82218 
L 277.25992 -37.82218 
L 277.92565 -37.82218 
L 278.59138 -37.82218 
L 279.257111 -37.82218 
L 279.922841 -37.82218 
L 280.588571 -37.82218 
L 281.254302 -37.82218 
L 281.920032 -37.82218 
L 282.585762 -37.82218 
L 283.251493 -37.82218 
L 283.917223 -37.82218 
L 284.582953 -37.82218 
L 285.248684 -37.82218 
L 285.914414 -37.82218 
L 286.580144 -37.82218 
L 287.245875 -37.82218 
L 287.911605 -37.82218 
L 288.577335 -37.82218 
L 289.243066 -37.82218 
L 289.908796 -37.82218 
L 290.574526 -37.82218 
L 291.240257 -37.82218 
L 291.905987 -37.82218 
L 292.571717 -37.82218 
L 293.237448 -37.82218 
L 293.903178 -37.82218 
L 294.568908 -37.82218 
L 295.234639 -37.82218 
L 295.900369 -37.82218 
L 296.566099 -37.82218 
L 297.23183 -37.82218 
L 297.89756 -37.82218 
L 298.56329 -37.82218 
L 299.229021 -37.82218 
L 299.894751 -37.82218 
L 300.560481 -37.82218 
L 301.226212 -37.82218 
L 301.891942 -37.82218 
L 302.557672 -37.82218 
L 303.223403 -37.82218 
L 303.889133 -37.82218 
L 304.554863 -37.82218 
L 305.220593 -37.82218 
L 305.886324 -37.82218 
L 306.552054 -37.82218 
L 307.217784 -37.82218 
L 307.883515 -37.82218 
L 308.549245 -37.82218 
L 309.214975 -37.82218 
L 309.880706 -37.82218 
L 310.546436 -37.82218 
L 311.212166 -37.82218 
L 311.877897 -37.82218 
L 312.543627 -37.82218 
L 313.209357 -37.82218 
L 313.875088 -37.82218 
L 314.540818 -37.82218 
L 315.206548 -37.82218 
L 315.872279 -37.82218 
L 316.538009 -37.82218 
L 317.203739 -37.82218 
L 317.86947 -37.82218 
L 318.5352 -37.82218 
L 319.20093 -37.82218 
L 319.866661 -37.82218 
L 320.532391 -37.82218 
L 321.198121 -37.82218 
L 321.863852 -37.82218 
L 322.529582 -37.82218 
L 323.195312 -37.82218 
L 323.861043 -37.82218 
L 324.526773 -37.82218 
L 325.192503 -37.82218 
L 325.858234 -37.82218 
L 326.523964 -37.82218 
L 327.189694 -37.82218 
L 327.855425 -37.82218 
L 328.521155 -37.82218 
L 329.186885 -37.82218 
L 329.852616 -37.82218 
L 330.518346 -37.82218 
L 331.184076 -37.82218 
L 331.849806 -37.82218 
L 332.515537 -37.82218 
L 333.181267 -37.82218 
L 333.846997 -37.82218 
L 334.512728 -37.82218 
L 335.178458 -37.82218 
L 335.844188 -37.82218 
L 336.509919 -37.82218 
L 337.175649 -37.82218 
L 337.841379 -37.82218 
L 338.50711 -37.82218 
L 339.17284 -37.82218 
L 339.83857 -37.82218 
L 340.504301 -37.82218 
L 341.170031 -37.82218 
L 341.835761 -37.82218 
L 342.501492 -37.82218 
L 343.167222 -37.82218 
L 343.832952 -37.82218 
L 344.498683 -37.82218 
L 345.164413 -37.82218 
L 345.830143 -37.82218 
L 346.495874 -37.82218 
L 347.161604 -37.82218 
L 347.827334 -37.82218 
L 348.493065 -37.82218 
L 349.158795 -37.82218 
L 349.824525 -37.82218 
L 350.490256 -37.82218 
L 351.155986 -37.82218 
L 351.821716 -37.82218 
L 352.487447 -37.82218 
L 353.153177 -37.82218 
L 353.818907 -37.82218 
L 354.484638 -37.82218 
L 355.150368 -37.82218 
L 355.816098 -37.82218 
L 356.481829 -37.82218 
L 357.147559 -37.82218 
L 357.813289 -37.82218 
L 358.47902 -37.82218 
L 359.14475 -37.82218 
L 359.81048 -37.82218 
L 360.476211 -37.82218 
L 361.141941 -37.82218 
L 361.807671 -37.82218 
L 362.473401 -37.82218 
L 363.139132 -37.82218 
L 363.804862 -37.82218 
L 364.470592 -37.82218 
L 365.136323 -37.82218 
L 365.802053 -37.82218 
L 366.467783 -37.82218 
L 367.133514 -37.82218 
L 367.799244 -37.82218 
L 368.464974 -37.82218 
L 369.130705 -37.82218 
L 369.796435 -37.82218 
L 370.462165 -37.82218 
L 371.127896 -37.82218 
L 371.793626 -37.82218 
L 372.459356 -37.82218 
L 373.125087 -37.82218 
L 373.790817 -37.82218 
L 374.456547 -37.82218 
L 375.122278 -37.82218 
L 375.788008 -37.82218 
L 376.453738 -37.82218 
L 377.119469 -37.82218 
L 377.785199 -37.82218 
L 378.450929 -37.82218 
L 379.11666 -37.82218 
L 379.78239 -37.82218 
L 380.44812 -37.82218 
L 381.113851 -37.82218 
L 381.779581 -37.82218 
L 382.445311 -37.82218 
L 383.111042 -37.82218 
L 383.776772 -37.82218 
L 384.442502 -37.82218 
L 385.108233 -37.82218 
L 385.773963 -37.82218 
L 386.439693 -37.82218 
L 387.105424 -37.82218 
L 387.771154 -37.82218 
L 388.436884 -37.82218 
L 389.102615 -37.82218 
L 389.768345 -37.82218 
L 390.434075 -37.82218 
L 391.099806 -37.82218 
L 391.765536 -37.82218 
L 392.431266 -37.82218 
L 393.096996 -37.82218 
L 393.762727 -37.82218 
L 394.428457 -37.82218 
L 395.094187 -37.82218 
L 395.759918 -37.82218 
L 395.759918 -37.823049 
L 395.759918 -37.823049 
L 395.094187 -37.828103 
L 394.428457 -37.856586 
L 393.762727 -37.992517 
L 393.096996 -38.540879 
L 392.431266 -40.406523 
L 391.765536 -45.742082 
L 391.099806 -58.507194 
L 390.434075 -83.864606 
L 389.768345 -125.164949 
L 389.102615 -179.031086 
L 388.436884 -232.386677 
L 387.771154 -266.293387 
L 387.105424 -266.469298 
L 386.439693 -232.836433 
L 385.773963 -179.575537 
L 385.108233 -125.636779 
L 384.442502 -84.18464 
L 383.776772 -58.683059 
L 383.111042 -45.821721 
L 382.445311 -40.436531 
L 381.779581 -38.550344 
L 381.113851 -37.995027 
L 380.44812 -37.857147 
L 379.78239 -37.828209 
L 379.11666 -37.823066 
L 378.450929 -37.822291 
L 377.785199 -37.822192 
L 377.119469 -37.822181 
L 376.453738 -37.82218 
L 375.788008 -37.82218 
L 375.122278 -37.82218 
L 374.456547 -37.82218 
L 373.790817 -37.82218 
L 373.125087 -37.82218 
L 372.459356 -37.82218 
L 371.793626 -37.82218 
L 371.127896 -37.82218 
L 370.462165 -37.82218 
L 369.796435 -37.82218 
L 369.130705 -37.82218 
L 368.464974 -37.82218 
L 367.799244 -37.82218 
L 367.133514 -37.82218 
L 366.467783 -37.82218 
L 365.802053 -37.82218 
L 365.136323 -37.82218 
L 364.470592 -37.82218 
L 363.804862 -37.82218 
L 363.139132 -37.822182 
L 362.473401 -37.822206 
L 361.807671 -37.82241 
L 361.141941 -37.823916 
L 360.476211 -37.83337 
L 359.81048 -37.883632 
L 359.14475 -38.1098 
L 358.47902 -38.969461 
L 357.813289 -41.722375 
L 357.147559 -49.121936 
L 356.481829 -65.72308 
L 355.816098 -96.535111 
L 355.150368 -143.119101 
L 354.484638 -198.762166 
L 353.818907 -247.464338 
L 353.153177 -270.556087 
L 352.487447 -258.016986 
L 351.821716 -215.372249 
L 351.155986 -159.833746 
L 350.490256 -109.279632 
L 349.824525 -73.488675 
L 349.158795 -52.994071 
L 348.493065 -43.322467 
L 347.827334 -39.521587 
L 347.161604 -38.269662 
L 346.495874 -37.9226 
L 345.830143 -37.841386 
L 345.164413 -37.82531 
L 344.498683 -37.822615 
L 343.832952 -37.822231 
L 343.167222 -37.822185 
L 342.501492 -37.82218 
L 341.835761 -37.82218 
L 341.170031 -37.82218 
L 340.504301 -37.82218 
L 339.83857 -37.82218 
L 339.17284 -37.82218 
L 338.50711 -37.82218 
L 337.841379 -37.82218 
L 337.175649 -37.82218 
L 336.509919 -37.82218 
L 335.844188 -37.82218 
L 335.178458 -37.82218 
L 334.512728 -37.82218 
L 333.846997 -37.82218 
L 333.181267 -37.82218 
L 332.515537 -37.82218 
L 331.849806 -37.82218 
L 331.184076 -37.82218 
L 330.518346 -37.82218 
L 329.852616 -37.82218 
L 329.186885 -37.82218 
L 328.521155 -37.82218 
L 327.855425 -37.82218 
L 327.189694 -37.82218 
L 326.523964 -37.82218 
L 325.858234 -37.82218 
L 325.192503 -37.82218 
L 324.526773 -37.82218 
L 323.861043 -37.82218 
L 323.195312 -37.82218 
L 322.529582 -37.82218 
L 321.863852 -37.82218 
L 321.198121 -37.82218 
L 320.532391 -37.82218 
L 319.866661 -37.82218 
L 319.20093 -37.82218 
L 318.5352 -37.82218 
L 317.86947 -37.82218 
L 317.203739 -37.82218 
L 316.538009 -37.82218 
L 315.872279 -37.82218 
L 315.206548 -37.82218 
L 314.540818 -37.82218 
L 313.875088 -37.82218 
L 313.209357 -37.82218 
L 312.543627 -37.82218 
L 311.877897 -37.82218 
L 311.212166 -37.82218 
L 310.546436 -37.82218 
L 309.880706 -37.82218 
L 309.214975 -37.82218 
L 308.549245 -37.82218 
L 307.883515 -37.82218 
L 307.217784 -37.82218 
L 306.552054 -37.82218 
L 305.886324 -37.82218 
L 305.220593 -37.82218 
L 304.554863 -37.82218 
L 303.889133 -37.82218 
L 303.223403 -37.82218 
L 302.557672 -37.82218 
L 301.891942 -37.82218 
L 301.226212 -37.82218 
L 300.560481 -37.82218 
L 299.894751 -37.82218 
L 299.229021 -37.82218 
L 298.56329 -37.82218 
L 297.89756 -37.82218 
L 297.23183 -37.82218 
L 296.566099 -37.82218 
L 295.900369 -37.82218 
L 295.234639 -37.82218 
L 294.568908 -37.82218 
L 293.903178 -37.82218 
L 293.237448 -37.82218 
L 292.571717 -37.82218 
L 291.905987 -37.82218 
L 291.240257 -37.82218 
L 290.574526 -37.82218 
L 289.908796 -37.82218 
L 289.243066 -37.82218 
L 288.577335 -37.82218 
L 287.911605 -37.82218 
L 287.245875 -37.82218 
L 286.580144 -37.82218 
L 285.914414 -37.82218 
L 285.248684 -37.82218 
L 284.582953 -37.82218 
L 283.917223 -37.82218 
L 283.251493 -37.82218 
L 282.585762 -37.82218 
L 281.920032 -37.82218 
L 281.254302 -37.82218 
L 280.588571 -37.82218 
L 279.922841 -37.82218 
L 279.257111 -37.82218 
L 278.59138 -37.82218 
L 277.92565 -37.82218 
L 277.25992 -37.82218 
L 276.594189 -37.82218 
L 275.928459 -37.82218 
L 275.262729 -37.82218 
L 274.596998 -37.82218 
L 273.931268 -37.82218 
L 273.265538 -37.82218 
L 272.599808 -37.82218 
L 271.934077 -37.82218 
L 271.268347 -37.82218 
L 270.602617 -37.82218 
L 269.936886 -37.82218 
L 269.271156 -37.82218 
L 268.605426 -37.82218 
L 267.939695 -37.82218 
L 267.273965 -37.82218 
L 266.608235 -37.82218 
L 265.942504 -37.82218 
L 265.276774 -37.82218 
L 264.611044 -37.82218 
L 263.945313 -37.82218 
L 263.279583 -37.82218 
L 262.613853 -37.82218 
L 261.948122 -37.82218 
L 261.282392 -37.82218 
L 260.616662 -37.82218 
L 259.950931 -37.82218 
L 259.285201 -37.82218 
L 258.619471 -37.82218 
L 257.95374 -37.82218 
L 257.28801 -37.82218 
L 256.62228 -37.82218 
L 255.956549 -37.82218 
L 255.290819 -37.82218 
L 254.625089 -37.82218 
L 253.959358 -37.82218 
L 253.293628 -37.82218 
L 252.627898 -37.82218 
L 251.962167 -37.82218 
L 251.296437 -37.82218 
L 250.630707 -37.82218 
L 249.964976 -37.82218 
L 249.299246 -37.82218 
L 248.633516 -37.82218 
L 247.967785 -37.82218 
L 247.302055 -37.82218 
L 246.636325 -37.82218 
L 245.970594 -37.82218 
L 245.304864 -37.82218 
L 244.639134 -37.82218 
L 243.973403 -37.82218 
L 243.307673 -37.82218 
L 242.641943 -37.82218 
L 241.976213 -37.82218 
L 241.310482 -37.82218 
L 240.644752 -37.82218 
L 239.979022 -37.82218 
L 239.313291 -37.82218 
L 238.647561 -37.82218 
L 237.981831 -37.82218 
L 237.3161 -37.82218 
L 236.65037 -37.82218 
L 235.98464 -37.82218 
L 235.318909 -37.82218 
L 234.653179 -37.82218 
L 233.987449 -37.82218 
L 233.321718 -37.82218 
L 232.655988 -37.82218 
L 231.990258 -37.82218 
L 231.324527 -37.82218 
L 230.658797 -37.82218 
L 229.993067 -37.82218 
L 229.327336 -37.82218 
L 228.661606 -37.82218 
L 227.995876 -37.82218 
L 227.330145 -37.82218 
L 226.664415 -37.82218 
L 225.998685 -37.82218 
L 225.332954 -37.82218 
L 224.667224 -37.82218 
L 224.001494 -37.82218 
L 223.335763 -37.82218 
L 222.670033 -37.82218 
L 222.004303 -37.82218 
L 221.338572 -37.82218 
L 220.672842 -37.82218 
L 220.007112 -37.82218 
L 219.341381 -37.82218 
L 218.675651 -37.82218 
L 218.009921 -37.82218 
L 217.34419 -37.82218 
L 216.67846 -37.82218 
L 216.01273 -37.82218 
L 215.347 -37.82218 
L 214.681269 -37.82218 
L 214.015539 -37.82218 
L 213.349809 -37.82218 
L 212.684078 -37.82218 
L 212.018348 -37.82218 
L 211.352618 -37.82218 
L 210.686887 -37.82218 
L 210.021157 -37.82218 
L 209.355427 -37.82218 
L 208.689696 -37.82218 
L 208.023966 -37.82218 
L 207.358236 -37.82218 
L 206.692505 -37.82218 
L 206.026775 -37.82218 
L 205.361045 -37.82218 
L 204.695314 -37.82218 
L 204.029584 -37.82218 
L 203.363854 -37.82218 
L 202.698123 -37.82218 
L 202.032393 -37.82218 
L 201.366663 -37.82218 
L 200.700932 -37.82218 
L 200.035202 -37.82218 
L 199.369472 -37.82218 
L 198.703741 -37.82218 
L 198.038011 -37.82218 
L 197.372281 -37.82218 
L 196.70655 -37.82218 
L 196.04082 -37.82218 
L 195.37509 -37.82218 
L 194.709359 -37.82218 
L 194.043629 -37.82218 
L 193.377899 -37.82218 
L 192.712168 -37.82218 
L 192.046438 -37.82218 
L 191.380708 -37.82218 
L 190.714977 -37.82218 
L 190.049247 -37.82218 
L 189.383517 -37.82218 
L 188.717786 -37.82218 
L 188.052056 -37.82218 
L 187.386326 -37.82218 
L 186.720596 -37.82218 
L 186.054865 -37.82218 
L 185.389135 -37.82218 
L 184.723405 -37.82218 
L 184.057674 -37.82218 
L 183.391944 -37.82218 
L 182.726214 -37.82218 
L 182.060483 -37.82218 
L 181.394753 -37.82218 
L 180.729023 -37.82218 
L 180.063292 -37.82218 
L 179.397562 -37.82218 
L 178.731832 -37.82218 
L 178.066101 -37.82218 
L 177.400371 -37.82218 
L 176.734641 -37.82218 
L 176.06891 -37.82218 
L 175.40318 -37.82218 
L 174.73745 -37.82218 
L 174.071719 -37.82218 
L 173.405989 -37.82218 
L 172.740259 -37.82218 
L 172.074528 -37.82218 
L 171.408798 -37.82218 
L 170.743068 -37.82218 
L 170.077337 -37.82218 
L 169.411607 -37.82218 
L 168.745877 -37.82218 
L 168.080146 -37.82218 
L 167.414416 -37.82218 
L 166.748686 -37.82218 
L 166.082955 -37.82218 
L 165.417225 -37.82218 
L 164.751495 -37.82218 
L 164.085764 -37.82218 
L 163.420034 -37.82218 
L 162.754304 -37.82218 
L 162.088573 -37.82218 
L 161.422843 -37.82218 
L 160.757113 -37.82218 
L 160.091383 -37.82218 
L 159.425652 -37.82218 
L 158.759922 -37.82218 
L 158.094191 -37.82218 
L 157.428461 -37.82218 
L 156.762731 -37.82218 
L 156.097001 -37.82218 
L 155.43127 -37.82218 
L 154.76554 -37.82218 
L 154.09981 -37.82218 
L 153.434079 -37.82218 
L 152.768349 -37.82218 
L 152.102619 -37.82218 
L 151.436888 -37.82218 
L 150.771158 -37.82218 
L 150.105428 -37.82218 
L 149.439697 -37.82218 
L 148.773967 -37.82218 
L 148.108237 -37.82218 
L 147.442506 -37.82218 
L 146.776776 -37.82218 
L 146.111046 -37.82218 
L 145.445315 -37.82218 
L 144.779585 -37.82218 
L 144.113855 -37.82218 
L 143.448124 -37.82218 
L 142.782394 -37.82218 
L 142.116664 -37.82218 
L 141.450933 -37.82218 
L 140.785203 -37.82218 
L 140.119473 -37.82218 
L 139.453742 -37.82218 
L 138.788012 -37.82218 
L 138.122282 -37.822181 
L 137.456551 -37.822188 
L 136.790821 -37.822253 
L 136.125091 -37.822779 
L 135.45936 -37.826383 
L 134.79363 -37.847331 
L 134.1279 -37.950432 
L 133.462169 -38.379547 
L 132.796439 -39.886545 
L 132.130709 -44.338434 
L 131.464978 -55.351939 
L 130.799248 -78.012386 
L 130.133518 -116.351329 
L 129.467788 -168.592122 
L 128.802057 -223.410801 
L 128.136327 -262.29364 
L 127.470597 -269.208295 
L 126.804866 -241.095243 
L 126.139136 -190.0131 
L 125.473406 -134.932197 
L 124.807675 -90.630906 
L 124.141945 -62.296672 
L 123.476215 -47.489099 
L 122.810484 -41.076265 
L 122.144754 -38.755727 
L 121.479024 -38.050429 
L 120.813293 -37.869741 
L 120.147563 -37.830626 
L 119.481833 -37.823458 
L 118.816102 -37.822345 
L 118.150372 -37.822198 
L 117.484642 -37.822182 
L 116.818911 -37.82218 
L 116.153181 -37.82218 
L 115.487451 -37.82218 
L 114.82172 -37.82218 
L 114.15599 -37.82218 
L 113.49026 -37.82218 
L 112.824529 -37.82218 
L 112.158799 -37.82218 
L 111.493069 -37.82218 
L 110.827338 -37.82218 
L 110.161608 -37.82218 
L 109.495878 -37.82218 
L 108.830147 -37.82218 
L 108.164417 -37.82218 
L 107.498687 -37.82218 
L 106.832956 -37.82218 
L 106.167226 -37.82218 
L 105.501496 -37.82218 
L 104.835765 -37.82218 
L 104.170035 -37.82218 
L 103.504305 -37.82218 
L 102.838574 -37.82218 
L 102.172844 -37.82218 
L 101.507114 -37.82218 
L 100.841383 -37.82218 
L 100.175653 -37.82218 
L 99.509923 -37.82218 
L 98.844193 -37.82218 
L 98.178462 -37.82218 
L 97.512732 -37.82218 
L 96.847002 -37.82218 
L 96.181271 -37.82218 
L 95.515541 -37.82218 
L 94.849811 -37.82218 
L 94.18408 -37.82218 
L 93.51835 -37.82218 
L 92.85262 -37.82218 
L 92.186889 -37.82218 
L 91.521159 -37.82218 
L 90.855429 -37.82218 
L 90.189698 -37.82218 
L 89.523968 -37.82218 
L 88.858238 -37.82218 
L 88.192507 -37.82218 
L 87.526777 -37.82218 
L 86.861047 -37.82218 
L 86.195316 -37.82218 
L 85.529586 -37.82218 
L 84.863856 -37.82218 
L 84.198125 -37.82218 
L 83.532395 -37.82218 
L 82.866665 -37.82218 
L 82.200934 -37.822181 
L 81.535204 -37.822192 
L 80.869474 -37.822291 
L 80.203743 -37.823066 
L 79.538013 -37.828209 
L 78.872283 -37.857147 
L 78.206552 -37.995027 
L 77.540822 -38.550344 
L 76.875092 -40.436531 
L 76.209361 -45.821721 
L 75.543631 -58.683059 
L 74.877901 -84.18464 
L 74.21217 -125.636779 
L 73.54644 -179.575537 
L 72.88071 -232.836433 
L 72.214979 -266.469298 
L 71.549249 -266.293387 
L 70.883519 -232.386677 
L 70.217788 -179.031086 
L 69.552058 -125.164949 
L 68.886328 -83.864606 
L 68.220598 -58.507194 
L 67.554867 -45.742082 
L 66.889137 -40.406523 
L 66.223407 -38.540879 
L 65.557676 -37.992517 
L 64.891946 -37.856586 
L 64.226216 -37.828103 
L 63.560485 -37.823049 
z
" style="stroke: #808080; stroke-opacity: 0.2"/>
    </defs>
    <g clip-path="url(#p1c05efcef7)">
     <use xlink:href="#m25e3595d96" x="0" y="278.394587" style="fill: #808080; fill-opacity: 0.2; stroke: #808080; stroke-opacity: 0.2"/>
    </g>
   </g>
   <g id="matplotlib.axis_1">
    <g id="xtick_1">
     <g id="line2d_1">
      <path d="M 66.936579 244.29615 
L 66.936579 4.114758 
" clip-path="url(#p1c05efcef7)" style="fill: none; stroke-dasharray: 1.85,0.8; stroke-dashoffset: 0; stroke: #b0b0b0; stroke-opacity: 0.7; stroke-width: 0.5"/>
     </g>
     <g id="line2d_2">
      <defs>
       <path id="m3d9748130e" d="M 0 0 
L 0 3.5 
" style="stroke: #000000; stroke-width: 0.8"/>
      </defs>
      <g>
       <use xlink:href="#m3d9748130e" x="66.936579" y="244.29615" style="stroke: #000000; stroke-width: 0.8"/>
      </g>
     </g>
     <g id="text_1">
      <!-- −300 -->
      <g transform="translate(53.202985 258.894587) scale(0.1 -0.1)">
       <defs>
        <path id="DejaVuSerif-2212" d="M 678 2259 
L 4684 2259 
L 4684 1753 
L 678 1753 
L 678 2259 
z
" transform="scale(0.015625)"/>
        <path id="DejaVuSerif-33" d="M 622 4469 
Q 988 4606 1323 4678 
Q 1659 4750 1953 4750 
Q 2638 4750 3022 4454 
Q 3406 4159 3406 3634 
Q 3406 3213 3140 2930 
Q 2875 2647 2388 2547 
Q 2963 2466 3280 2130 
Q 3597 1794 3597 1259 
Q 3597 606 3158 257 
Q 2719 -91 1894 -91 
Q 1528 -91 1179 -12 
Q 831 66 488 225 
L 488 1131 
L 838 1131 
Q 869 681 1141 450 
Q 1413 219 1906 219 
Q 2384 219 2661 495 
Q 2938 772 2938 1253 
Q 2938 1803 2653 2086 
Q 2369 2369 1819 2369 
L 1522 2369 
L 1522 2688 
L 1678 2688 
Q 2225 2688 2498 2914 
Q 2772 3141 2772 3597 
Q 2772 4006 2547 4223 
Q 2322 4441 1900 4441 
Q 1478 4441 1245 4241 
Q 1013 4041 972 3647 
L 622 3647 
L 622 4469 
z
" transform="scale(0.015625)"/>
        <path id="DejaVuSerif-30" d="M 2034 219 
Q 2513 219 2750 744 
Q 2988 1269 2988 2328 
Q 2988 3391 2750 3916 
Q 2513 4441 2034 4441 
Q 1556 4441 1318 3916 
Q 1081 3391 1081 2328 
Q 1081 1269 1318 744 
Q 1556 219 2034 219 
z
M 2034 -91 
Q 1275 -91 848 546 
Q 422 1184 422 2328 
Q 422 3475 848 4112 
Q 1275 4750 2034 4750 
Q 2797 4750 3222 4112 
Q 3647 3475 3647 2328 
Q 3647 1184 3222 546 
Q 2797 -91 2034 -91 
z
" transform="scale(0.015625)"/>
       </defs>
       <use xlink:href="#DejaVuSerif-2212"/>
       <use xlink:href="#DejaVuSerif-33" x="83.789062"/>
       <use xlink:href="#DejaVuSerif-30" x="147.412109"/>
       <use xlink:href="#DejaVuSerif-30" x="211.035156"/>
      </g>
     </g>
    </g>
    <g id="xtick_2">
     <g id="line2d_3">
      <path d="M 119.243053 244.29615 
L 119.243053 4.114758 
" clip-path="url(#p1c05efcef7)" style="fill: none; stroke-dasharray: 1.85,0.8; stroke-dashoffset: 0; stroke: #b0b0b0; stroke-opacity: 0.7; stroke-width: 0.5"/>
     </g>
     <g id="line2d_4">
      <g>
       <use xlink:href="#m3d9748130e" x="119.243053" y="244.29615" style="stroke: #000000; stroke-width: 0.8"/>
      </g>
     </g>
     <g id="text_2">
      <!-- −250 -->
      <g transform="translate(105.509459 258.894587) scale(0.1 -0.1)">
       <defs>
        <path id="DejaVuSerif-32" d="M 819 3553 
L 469 3553 
L 469 4384 
Q 803 4563 1142 4656 
Q 1481 4750 1806 4750 
Q 2534 4750 2956 4397 
Q 3378 4044 3378 3438 
Q 3378 2753 2422 1800 
Q 2347 1728 2309 1691 
L 1131 513 
L 3078 513 
L 3078 1088 
L 3444 1088 
L 3444 0 
L 434 0 
L 434 341 
L 1850 1753 
Q 2319 2222 2519 2614 
Q 2719 3006 2719 3438 
Q 2719 3909 2473 4175 
Q 2228 4441 1797 4441 
Q 1350 4441 1106 4219 
Q 863 3997 819 3553 
z
" transform="scale(0.015625)"/>
        <path id="DejaVuSerif-35" d="M 3219 4666 
L 3219 4153 
L 1081 4153 
L 1081 2816 
Q 1244 2928 1461 2984 
Q 1678 3041 1947 3041 
Q 2703 3041 3140 2622 
Q 3578 2203 3578 1478 
Q 3578 738 3136 323 
Q 2694 -91 1894 -91 
Q 1572 -91 1234 -12 
Q 897 66 544 225 
L 544 1131 
L 897 1131 
Q 925 688 1179 453 
Q 1434 219 1894 219 
Q 2388 219 2653 544 
Q 2919 869 2919 1478 
Q 2919 2084 2655 2407 
Q 2391 2731 1894 2731 
Q 1613 2731 1398 2631 
Q 1184 2531 1019 2322 
L 750 2322 
L 750 4666 
L 3219 4666 
z
" transform="scale(0.015625)"/>
       </defs>
       <use xlink:href="#DejaVuSerif-2212"/>
       <use xlink:href="#DejaVuSerif-32" x="83.789062"/>
       <use xlink:href="#DejaVuSerif-35" x="147.412109"/>
       <use xlink:href="#DejaVuSerif-30" x="211.035156"/>
      </g>
     </g>
    </g>
    <g id="xtick_3">
     <g id="line2d_5">
      <path d="M 171.549527 244.29615 
L 171.549527 4.114758 
" clip-path="url(#p1c05efcef7)" style="fill: none; stroke-dasharray: 1.85,0.8; stroke-dashoffset: 0; stroke: #b0b0b0; stroke-opacity: 0.7; stroke-width: 0.5"/>
     </g>
     <g id="line2d_6">
      <g>
       <use xlink:href="#m3d9748130e" x="171.549527" y="244.29615" style="stroke: #000000; stroke-width: 0.8"/>
      </g>
     </g>
     <g id="text_3">
      <!-- −200 -->
      <g transform="translate(157.815933 258.894587) scale(0.1 -0.1)">
       <use xlink:href="#DejaVuSerif-2212"/>
       <use xlink:href="#DejaVuSerif-32" x="83.789062"/>
       <use xlink:href="#DejaVuSerif-30" x="147.412109"/>
       <use xlink:href="#DejaVuSerif-30" x="211.035156"/>
      </g>
     </g>
    </g>
    <g id="xtick_4">
     <g id="line2d_7">
      <path d="M 223.856001 244.29615 
L 223.856001 4.114758 
" clip-path="url(#p1c05efcef7)" style="fill: none; stroke-dasharray: 1.85,0.8; stroke-dashoffset: 0; stroke: #b0b0b0; stroke-opacity: 0.7; stroke-width: 0.5"/>
     </g>
     <g id="line2d_8">
      <g>
       <use xlink:href="#m3d9748130e" x="223.856001" y="244.29615" style="stroke: #000000; stroke-width: 0.8"/>
      </g>
     </g>
     <g id="text_4">
      <!-- −150 -->
      <g transform="translate(210.122407 258.894587) scale(0.1 -0.1)">
       <defs>
        <path id="DejaVuSerif-31" d="M 909 0 
L 909 331 
L 1722 331 
L 1722 4213 
L 781 3603 
L 781 4013 
L 1919 4750 
L 2350 4750 
L 2350 331 
L 3163 331 
L 3163 0 
L 909 0 
z
" transform="scale(0.015625)"/>
       </defs>
       <use xlink:href="#DejaVuSerif-2212"/>
       <use xlink:href="#DejaVuSerif-31" x="83.789062"/>
       <use xlink:href="#DejaVuSerif-35" x="147.412109"/>
       <use xlink:href="#DejaVuSerif-30" x="211.035156"/>
      </g>
     </g>
    </g>
    <g id="xtick_5">
     <g id="line2d_9">
      <path d="M 276.162475 244.29615 
L 276.162475 4.114758 
" clip-path="url(#p1c05efcef7)" style="fill: none; stroke-dasharray: 1.85,0.8; stroke-dashoffset: 0; stroke: #b0b0b0; stroke-opacity: 0.7; stroke-width: 0.5"/>
     </g>
     <g id="line2d_10">
      <g>
       <use xlink:href="#m3d9748130e" x="276.162475" y="244.29615" style="stroke: #000000; stroke-width: 0.8"/>
      </g>
     </g>
     <g id="text_5">
      <!-- −100 -->
      <g transform="translate(262.428881 258.894587) scale(0.1 -0.1)">
       <use xlink:href="#DejaVuSerif-2212"/>
       <use xlink:href="#DejaVuSerif-31" x="83.789062"/>
       <use xlink:href="#DejaVuSerif-30" x="147.412109"/>
       <use xlink:href="#DejaVuSerif-30" x="211.035156"/>
      </g>
     </g>
    </g>
    <g id="xtick_6">
     <g id="line2d_11">
      <path d="M 328.468949 244.29615 
L 328.468949 4.114758 
" clip-path="url(#p1c05efcef7)" style="fill: none; stroke-dasharray: 1.85,0.8; stroke-dashoffset: 0; stroke: #b0b0b0; stroke-opacity: 0.7; stroke-width: 0.5"/>
     </g>
     <g id="line2d_12">
      <g>
       <use xlink:href="#m3d9748130e" x="328.468949" y="244.29615" style="stroke: #000000; stroke-width: 0.8"/>
      </g>
     </g>
     <g id="text_6">
      <!-- −50 -->
      <g transform="translate(317.916606 258.894587) scale(0.1 -0.1)">
       <use xlink:href="#DejaVuSerif-2212"/>
       <use xlink:href="#DejaVuSerif-35" x="83.789062"/>
       <use xlink:href="#DejaVuSerif-30" x="147.412109"/>
      </g>
     </g>
    </g>
    <g id="xtick_7">
     <g id="line2d_13">
      <path d="M 380.775424 244.29615 
L 380.775424 4.114758 
" clip-path="url(#p1c05efcef7)" style="fill: none; stroke-dasharray: 1.85,0.8; stroke-dashoffset: 0; stroke: #b0b0b0; stroke-opacity: 0.7; stroke-width: 0.5"/>
     </g>
     <g id="line2d_14">
      <g>
       <use xlink:href="#m3d9748130e" x="380.775424" y="244.29615" style="stroke: #000000; stroke-width: 0.8"/>
      </g>
     </g>
     <g id="text_7">
      <!-- 0 -->
      <g transform="translate(377.594174 258.894587) scale(0.1 -0.1)">
       <use xlink:href="#DejaVuSerif-30"/>
      </g>
     </g>
    </g>
    <g id="text_8">
     <!-- Frequency (MHz) at 752.760000 nm -->
     <g transform="translate(130.411479 272.572712) scale(0.1 -0.1)">
      <defs>
       <path id="DejaVuSerif-46" d="M 353 0 
L 353 331 
L 947 331 
L 947 4331 
L 353 4331 
L 353 4666 
L 4172 4666 
L 4172 3628 
L 3788 3628 
L 3788 4281 
L 1581 4281 
L 1581 2719 
L 3175 2719 
L 3175 3303 
L 3559 3303 
L 3559 1753 
L 3175 1753 
L 3175 2338 
L 1581 2338 
L 1581 331 
L 2328 331 
L 2328 0 
L 353 0 
z
" transform="scale(0.015625)"/>
       <path id="DejaVuSerif-72" d="M 3059 3328 
L 3059 2497 
L 2728 2497 
Q 2713 2744 2591 2866 
Q 2469 2988 2234 2988 
Q 1809 2988 1582 2694 
Q 1356 2400 1356 1850 
L 1356 331 
L 2022 331 
L 2022 0 
L 263 0 
L 263 331 
L 781 331 
L 781 2994 
L 231 2994 
L 231 3322 
L 1356 3322 
L 1356 2731 
Q 1525 3078 1790 3245 
Q 2056 3413 2438 3413 
Q 2578 3413 2733 3391 
Q 2888 3369 3059 3328 
z
" transform="scale(0.015625)"/>
       <path id="DejaVuSerif-65" d="M 3469 1600 
L 991 1600 
L 991 1575 
Q 991 903 1244 561 
Q 1497 219 1991 219 
Q 2369 219 2611 417 
Q 2853 616 2950 1006 
L 3413 1006 
Q 3275 459 2904 184 
Q 2534 -91 1931 -91 
Q 1203 -91 761 389 
Q 319 869 319 1663 
Q 319 2450 753 2931 
Q 1188 3413 1894 3413 
Q 2647 3413 3050 2948 
Q 3453 2484 3469 1600 
z
M 2791 1931 
Q 2772 2513 2545 2808 
Q 2319 3103 1894 3103 
Q 1497 3103 1269 2806 
Q 1041 2509 991 1931 
L 2791 1931 
z
" transform="scale(0.015625)"/>
       <path id="DejaVuSerif-71" d="M 3359 2988 
L 3359 -997 
L 3909 -997 
L 3909 -1331 
L 2241 -1331 
L 2241 -997 
L 2784 -997 
L 2784 519 
Q 2616 206 2355 57 
Q 2094 -91 1709 -91 
Q 1097 -91 708 395 
Q 319 881 319 1663 
Q 319 2444 706 2928 
Q 1094 3413 1709 3413 
Q 2094 3413 2355 3264 
Q 2616 3116 2784 2803 
L 2784 3322 
L 3909 3322 
L 3909 2988 
L 3359 2988 
z
M 2784 1825 
Q 2784 2422 2554 2737 
Q 2325 3053 1888 3053 
Q 1444 3053 1217 2703 
Q 991 2353 991 1663 
Q 991 975 1217 622 
Q 1444 269 1888 269 
Q 2325 269 2554 583 
Q 2784 897 2784 1497 
L 2784 1825 
z
" transform="scale(0.015625)"/>
       <path id="DejaVuSerif-75" d="M 2266 3322 
L 3341 3322 
L 3341 331 
L 3884 331 
L 3884 0 
L 2766 0 
L 2766 588 
Q 2606 256 2353 82 
Q 2100 -91 1766 -91 
Q 1213 -91 952 223 
Q 691 538 691 1209 
L 691 2988 
L 172 2988 
L 172 3322 
L 1269 3322 
L 1269 1388 
Q 1269 781 1417 556 
Q 1566 331 1947 331 
Q 2347 331 2556 625 
Q 2766 919 2766 1478 
L 2766 2988 
L 2266 2988 
L 2266 3322 
z
" transform="scale(0.015625)"/>
       <path id="DejaVuSerif-6e" d="M 263 0 
L 263 331 
L 781 331 
L 781 2988 
L 231 2988 
L 231 3322 
L 1356 3322 
L 1356 2731 
Q 1516 3069 1770 3241 
Q 2025 3413 2363 3413 
Q 2913 3413 3172 3097 
Q 3431 2781 3431 2113 
L 3431 331 
L 3944 331 
L 3944 0 
L 2356 0 
L 2356 331 
L 2853 331 
L 2853 1931 
Q 2853 2541 2703 2767 
Q 2553 2994 2175 2994 
Q 1775 2994 1565 2701 
Q 1356 2409 1356 1850 
L 1356 331 
L 1856 331 
L 1856 0 
L 263 0 
z
" transform="scale(0.015625)"/>
       <path id="DejaVuSerif-63" d="M 3291 997 
Q 3169 466 2822 187 
Q 2475 -91 1925 -91 
Q 1200 -91 759 389 
Q 319 869 319 1663 
Q 319 2459 759 2936 
Q 1200 3413 1925 3413 
Q 2241 3413 2553 3339 
Q 2866 3266 3181 3116 
L 3181 2266 
L 2847 2266 
Q 2781 2703 2561 2903 
Q 2341 3103 1931 3103 
Q 1466 3103 1228 2742 
Q 991 2381 991 1663 
Q 991 944 1227 581 
Q 1463 219 1931 219 
Q 2303 219 2525 412 
Q 2747 606 2828 997 
L 3291 997 
z
" transform="scale(0.015625)"/>
       <path id="DejaVuSerif-79" d="M 1381 -609 
L 1600 -56 
L 359 2988 
L -19 2988 
L -19 3322 
L 1509 3322 
L 1509 2988 
L 978 2988 
L 1913 703 
L 2847 2988 
L 2350 2988 
L 2350 3322 
L 3597 3322 
L 3597 2988 
L 3225 2988 
L 1703 -750 
Q 1547 -1138 1356 -1280 
Q 1166 -1422 819 -1422 
Q 672 -1422 517 -1397 
Q 363 -1372 206 -1325 
L 206 -691 
L 500 -691 
Q 519 -903 608 -995 
Q 697 -1088 884 -1088 
Q 1056 -1088 1161 -992 
Q 1266 -897 1381 -609 
z
" transform="scale(0.015625)"/>
       <path id="DejaVuSerif-20" transform="scale(0.015625)"/>
       <path id="DejaVuSerif-28" d="M 2041 -997 
Q 1281 -656 893 83 
Q 506 822 506 1931 
Q 506 3044 893 3783 
Q 1281 4522 2041 4863 
L 2041 4556 
Q 1559 4225 1350 3623 
Q 1141 3022 1141 1931 
Q 1141 844 1350 242 
Q 1559 -359 2041 -691 
L 2041 -997 
z
" transform="scale(0.015625)"/>
       <path id="DejaVuSerif-4d" d="M 353 0 
L 353 331 
L 947 331 
L 947 4331 
L 319 4331 
L 319 4666 
L 1678 4666 
L 3316 1344 
L 4953 4666 
L 6228 4666 
L 6228 4331 
L 5606 4331 
L 5606 331 
L 6203 331 
L 6203 0 
L 4378 0 
L 4378 331 
L 4972 331 
L 4972 3938 
L 3372 684 
L 2931 684 
L 1331 3938 
L 1331 331 
L 1925 331 
L 1925 0 
L 353 0 
z
" transform="scale(0.015625)"/>
       <path id="DejaVuSerif-48" d="M 353 0 
L 353 331 
L 947 331 
L 947 4331 
L 353 4331 
L 353 4666 
L 2175 4666 
L 2175 4331 
L 1581 4331 
L 1581 2719 
L 4000 2719 
L 4000 4331 
L 3406 4331 
L 3406 4666 
L 5228 4666 
L 5228 4331 
L 4634 4331 
L 4634 331 
L 5228 331 
L 5228 0 
L 3406 0 
L 3406 331 
L 4000 331 
L 4000 2338 
L 1581 2338 
L 1581 331 
L 2175 331 
L 2175 0 
L 353 0 
z
" transform="scale(0.015625)"/>
       <path id="DejaVuSerif-7a" d="M 256 0 
L 256 269 
L 2338 2988 
L 691 2988 
L 691 2413 
L 359 2413 
L 359 3322 
L 3078 3322 
L 3078 3053 
L 997 331 
L 2803 331 
L 2803 934 
L 3138 934 
L 3138 0 
L 256 0 
z
" transform="scale(0.015625)"/>
       <path id="DejaVuSerif-29" d="M 453 -997 
L 453 -691 
Q 934 -359 1145 242 
Q 1356 844 1356 1931 
Q 1356 3022 1145 3623 
Q 934 4225 453 4556 
L 453 4863 
Q 1216 4522 1603 3783 
Q 1991 3044 1991 1931 
Q 1991 822 1603 83 
Q 1216 -656 453 -997 
z
" transform="scale(0.015625)"/>
       <path id="DejaVuSerif-61" d="M 2547 1044 
L 2547 1747 
L 1806 1747 
Q 1378 1747 1168 1562 
Q 959 1378 959 997 
Q 959 650 1171 447 
Q 1384 244 1747 244 
Q 2106 244 2326 466 
Q 2547 688 2547 1044 
z
M 3122 2075 
L 3122 331 
L 3634 331 
L 3634 0 
L 2547 0 
L 2547 359 
Q 2356 128 2106 18 
Q 1856 -91 1522 -91 
Q 969 -91 644 203 
Q 319 497 319 997 
Q 319 1513 691 1797 
Q 1063 2081 1741 2081 
L 2547 2081 
L 2547 2309 
Q 2547 2688 2317 2895 
Q 2088 3103 1672 3103 
Q 1328 3103 1125 2947 
Q 922 2791 872 2484 
L 575 2484 
L 575 3156 
Q 875 3284 1158 3348 
Q 1441 3413 1709 3413 
Q 2400 3413 2761 3070 
Q 3122 2728 3122 2075 
z
" transform="scale(0.015625)"/>
       <path id="DejaVuSerif-74" d="M 691 2988 
L 184 2988 
L 184 3322 
L 691 3322 
L 691 4353 
L 1269 4353 
L 1269 3322 
L 2350 3322 
L 2350 2988 
L 1269 2988 
L 1269 878 
Q 1269 456 1350 337 
Q 1431 219 1650 219 
Q 1875 219 1978 351 
Q 2081 484 2088 781 
L 2522 781 
Q 2497 328 2275 118 
Q 2053 -91 1600 -91 
Q 1103 -91 897 129 
Q 691 350 691 878 
L 691 2988 
z
" transform="scale(0.015625)"/>
       <path id="DejaVuSerif-37" d="M 3609 4347 
L 1784 0 
L 1319 0 
L 3059 4153 
L 903 4153 
L 903 3578 
L 538 3578 
L 538 4666 
L 3609 4666 
L 3609 4347 
z
" transform="scale(0.015625)"/>
       <path id="DejaVuSerif-2e" d="M 603 325 
Q 603 500 722 622 
Q 841 744 1019 744 
Q 1191 744 1312 622 
Q 1434 500 1434 325 
Q 1434 153 1312 31 
Q 1191 -91 1019 -91 
Q 841 -91 722 29 
Q 603 150 603 325 
z
" transform="scale(0.015625)"/>
       <path id="DejaVuSerif-36" d="M 2094 219 
Q 2534 219 2771 542 
Q 3009 866 3009 1472 
Q 3009 2078 2771 2401 
Q 2534 2725 2094 2725 
Q 1647 2725 1412 2412 
Q 1178 2100 1178 1509 
Q 1178 888 1415 553 
Q 1653 219 2094 219 
z
M 1075 2569 
Q 1288 2803 1556 2918 
Q 1825 3034 2163 3034 
Q 2859 3034 3264 2615 
Q 3669 2197 3669 1472 
Q 3669 763 3233 336 
Q 2797 -91 2069 -91 
Q 1278 -91 853 498 
Q 428 1088 428 2181 
Q 428 3406 931 4078 
Q 1434 4750 2350 4750 
Q 2597 4750 2869 4703 
Q 3141 4656 3425 4563 
L 3425 3794 
L 3072 3794 
Q 3034 4109 2831 4275 
Q 2628 4441 2284 4441 
Q 1678 4441 1381 3981 
Q 1084 3522 1075 2569 
z
" transform="scale(0.015625)"/>
       <path id="DejaVuSerif-6d" d="M 3316 2675 
Q 3481 3041 3739 3227 
Q 3997 3413 4341 3413 
Q 4863 3413 5119 3089 
Q 5375 2766 5375 2113 
L 5375 331 
L 5894 331 
L 5894 0 
L 4300 0 
L 4300 331 
L 4800 331 
L 4800 2047 
Q 4800 2556 4650 2772 
Q 4500 2988 4153 2988 
Q 3769 2988 3567 2697 
Q 3366 2406 3366 1850 
L 3366 331 
L 3866 331 
L 3866 0 
L 2291 0 
L 2291 331 
L 2791 331 
L 2791 2069 
Q 2791 2566 2641 2777 
Q 2491 2988 2144 2988 
Q 1759 2988 1557 2697 
Q 1356 2406 1356 1850 
L 1356 331 
L 1856 331 
L 1856 0 
L 263 0 
L 263 331 
L 781 331 
L 781 2994 
L 231 2994 
L 231 3322 
L 1356 3322 
L 1356 2731 
Q 1516 3063 1762 3238 
Q 2009 3413 2322 3413 
Q 2709 3413 2968 3220 
Q 3228 3028 3316 2675 
z
" transform="scale(0.015625)"/>
      </defs>
      <use xlink:href="#DejaVuSerif-46"/>
      <use xlink:href="#DejaVuSerif-72" x="69.384766"/>
      <use xlink:href="#DejaVuSerif-65" x="117.1875"/>
      <use xlink:href="#DejaVuSerif-71" x="176.367188"/>
      <use xlink:href="#DejaVuSerif-75" x="240.380859"/>
      <use xlink:href="#DejaVuSerif-65" x="304.785156"/>
      <use xlink:href="#DejaVuSerif-6e" x="363.964844"/>
      <use xlink:href="#DejaVuSerif-63" x="428.369141"/>
      <use xlink:href="#DejaVuSerif-79" x="484.375"/>
      <use xlink:href="#DejaVuSerif-20" x="540.869141"/>
      <use xlink:href="#DejaVuSerif-28" x="572.65625"/>
      <use xlink:href="#DejaVuSerif-4d" x="611.669922"/>
      <use xlink:href="#DejaVuSerif-48" x="714.0625"/>
      <use xlink:href="#DejaVuSerif-7a" x="801.269531"/>
      <use xlink:href="#DejaVuSerif-29" x="853.955078"/>
      <use xlink:href="#DejaVuSerif-20" x="892.96875"/>
      <use xlink:href="#DejaVuSerif-61" x="924.755859"/>
      <use xlink:href="#DejaVuSerif-74" x="984.375"/>
      <use xlink:href="#DejaVuSerif-20" x="1024.560547"/>
      <use xlink:href="#DejaVuSerif-37" x="1056.347656"/>
      <use xlink:href="#DejaVuSerif-35" x="1119.970703"/>
      <use xlink:href="#DejaVuSerif-32" x="1183.59375"/>
      <use xlink:href="#DejaVuSerif-2e" x="1247.216797"/>
      <use xlink:href="#DejaVuSerif-37" x="1279.003906"/>
      <use xlink:href="#DejaVuSerif-36" x="1342.626953"/>
      <use xlink:href="#DejaVuSerif-30" x="1406.25"/>
      <use xlink:href="#DejaVuSerif-30" x="1469.873047"/>
      <use xlink:href="#DejaVuSerif-30" x="1533.496094"/>
      <use xlink:href="#DejaVuSerif-30" x="1597.119141"/>
      <use xlink:href="#DejaVuSerif-20" x="1660.742188"/>
      <use xlink:href="#DejaVuSerif-6e" x="1692.529297"/>
      <use xlink:href="#DejaVuSerif-6d" x="1756.933594"/>
     </g>
    </g>
   </g>
   <g id="matplotlib.axis_2">
    <g id="ytick_1">
     <g id="line2d_15">
      <path d="M 45.0875 240.572407 
L 400.913582 240.572407 
" clip-path="url(#p1c05efcef7)" style="fill: none; stroke-dasharray: 1.85,0.8; stroke-dashoffset: 0; stroke: #b0b0b0; stroke-opacity: 0.7; stroke-width: 0.5"/>
     </g>
     <g id="line2d_16">
      <defs>
       <path id="m3827534814" d="M 0 0 
L -3.5 0 
" style="stroke: #000000; stroke-width: 0.8"/>
      </defs>
      <g>
       <use xlink:href="#m3827534814" x="45.0875" y="240.572407" style="stroke: #000000; stroke-width: 0.8"/>
      </g>
     </g>
     <g id="text_9">
      <!-- 0 -->
      <g style="fill: #808080" transform="translate(31.725 244.371626) scale(0.1 -0.1)">
       <use xlink:href="#DejaVuSerif-30"/>
      </g>
     </g>
    </g>
    <g id="ytick_2">
     <g id="line2d_17">
      <path d="M 45.0875 193.93777 
L 400.913582 193.93777 
" clip-path="url(#p1c05efcef7)" style="fill: none; stroke-dasharray: 1.85,0.8; stroke-dashoffset: 0; stroke: #b0b0b0; stroke-opacity: 0.7; stroke-width: 0.5"/>
     </g>
     <g id="line2d_18">
      <g>
       <use xlink:href="#m3827534814" x="45.0875" y="193.93777" style="stroke: #000000; stroke-width: 0.8"/>
      </g>
     </g>
     <g id="text_10">
      <!-- 100 -->
      <g style="fill: #808080" transform="translate(19 197.736988) scale(0.1 -0.1)">
       <use xlink:href="#DejaVuSerif-31"/>
       <use xlink:href="#DejaVuSerif-30" x="63.623047"/>
       <use xlink:href="#DejaVuSerif-30" x="127.246094"/>
      </g>
     </g>
    </g>
    <g id="ytick_3">
     <g id="line2d_19">
      <path d="M 45.0875 147.303132 
L 400.913582 147.303132 
" clip-path="url(#p1c05efcef7)" style="fill: none; stroke-dasharray: 1.85,0.8; stroke-dashoffset: 0; stroke: #b0b0b0; stroke-opacity: 0.7; stroke-width: 0.5"/>
     </g>
     <g id="line2d_20">
      <g>
       <use xlink:href="#m3827534814" x="45.0875" y="147.303132" style="stroke: #000000; stroke-width: 0.8"/>
      </g>
     </g>
     <g id="text_11">
      <!-- 200 -->
      <g style="fill: #808080" transform="translate(19 151.102351) scale(0.1 -0.1)">
       <use xlink:href="#DejaVuSerif-32"/>
       <use xlink:href="#DejaVuSerif-30" x="63.623047"/>
       <use xlink:href="#DejaVuSerif-30" x="127.246094"/>
      </g>
     </g>
    </g>
    <g id="ytick_4">
     <g id="line2d_21">
      <path d="M 45.0875 100.668494 
L 400.913582 100.668494 
" clip-path="url(#p1c05efcef7)" style="fill: none; stroke-dasharray: 1.85,0.8; stroke-dashoffset: 0; stroke: #b0b0b0; stroke-opacity: 0.7; stroke-width: 0.5"/>
     </g>
     <g id="line2d_22">
      <g>
       <use xlink:href="#m3827534814" x="45.0875" y="100.668494" style="stroke: #000000; stroke-width: 0.8"/>
      </g>
     </g>
     <g id="text_12">
      <!-- 300 -->
      <g style="fill: #808080" transform="translate(19 104.467713) scale(0.1 -0.1)">
       <use xlink:href="#DejaVuSerif-33"/>
       <use xlink:href="#DejaVuSerif-30" x="63.623047"/>
       <use xlink:href="#DejaVuSerif-30" x="127.246094"/>
      </g>
     </g>
    </g>
    <g id="ytick_5">
     <g id="line2d_23">
      <path d="M 45.0875 54.033856 
L 400.913582 54.033856 
" clip-path="url(#p1c05efcef7)" style="fill: none; stroke-dasharray: 1.85,0.8; stroke-dashoffset: 0; stroke: #b0b0b0; stroke-opacity: 0.7; stroke-width: 0.5"/>
     </g>
     <g id="line2d_24">
      <g>
       <use xlink:href="#m3827534814" x="45.0875" y="54.033856" style="stroke: #000000; stroke-width: 0.8"/>
      </g>
     </g>
     <g id="text_13">
      <!-- 400 -->
      <g style="fill: #808080" transform="translate(19 57.833075) scale(0.1 -0.1)">
       <defs>
        <path id="DejaVuSerif-34" d="M 2234 1581 
L 2234 4063 
L 641 1581 
L 2234 1581 
z
M 3609 0 
L 1484 0 
L 1484 331 
L 2234 331 
L 2234 1247 
L 197 1247 
L 197 1588 
L 2241 4750 
L 2859 4750 
L 2859 1581 
L 3750 1581 
L 3750 1247 
L 2859 1247 
L 2859 331 
L 3609 331 
L 3609 0 
z
" transform="scale(0.015625)"/>
       </defs>
       <use xlink:href="#DejaVuSerif-34"/>
       <use xlink:href="#DejaVuSerif-30" x="63.623047"/>
       <use xlink:href="#DejaVuSerif-30" x="127.246094"/>
      </g>
     </g>
    </g>
    <g id="ytick_6">
     <g id="line2d_25">
      <path d="M 45.0875 7.399219 
L 400.913582 7.399219 
" clip-path="url(#p1c05efcef7)" style="fill: none; stroke-dasharray: 1.85,0.8; stroke-dashoffset: 0; stroke: #b0b0b0; stroke-opacity: 0.7; stroke-width: 0.5"/>
     </g>
     <g id="line2d_26">
      <g>
       <use xlink:href="#m3827534814" x="45.0875" y="7.399219" style="stroke: #000000; stroke-width: 0.8"/>
      </g>
     </g>
     <g id="text_14">
      <!-- 500 -->
      <g style="fill: #808080" transform="translate(19 11.198438) scale(0.1 -0.1)">
       <use xlink:href="#DejaVuSerif-35"/>
       <use xlink:href="#DejaVuSerif-30" x="63.623047"/>
       <use xlink:href="#DejaVuSerif-30" x="127.246094"/>
      </g>
     </g>
    </g>
    <g id="text_15">
     <!-- Intensity (W/m$^2$) -->
     <g style="fill: #808080" transform="translate(12.7 166.055454) rotate(-90) scale(0.1 -0.1)">
      <defs>
       <path id="DejaVuSerif-49" d="M 1581 331 
L 2175 331 
L 2175 0 
L 353 0 
L 353 331 
L 947 331 
L 947 4331 
L 353 4331 
L 353 4666 
L 2175 4666 
L 2175 4331 
L 1581 4331 
L 1581 331 
z
" transform="scale(0.015625)"/>
       <path id="DejaVuSerif-73" d="M 359 184 
L 359 959 
L 691 959 
Q 703 588 923 403 
Q 1144 219 1575 219 
Q 1963 219 2166 364 
Q 2369 509 2369 788 
Q 2369 1006 2220 1140 
Q 2072 1275 1594 1428 
L 1178 1569 
Q 750 1706 558 1912 
Q 366 2119 366 2438 
Q 366 2894 700 3153 
Q 1034 3413 1625 3413 
Q 1888 3413 2178 3344 
Q 2469 3275 2778 3144 
L 2778 2419 
L 2447 2419 
Q 2434 2741 2221 2922 
Q 2009 3103 1644 3103 
Q 1281 3103 1095 2975 
Q 909 2847 909 2591 
Q 909 2381 1050 2254 
Q 1191 2128 1613 1997 
L 2069 1856 
Q 2541 1709 2748 1489 
Q 2956 1269 2956 922 
Q 2956 450 2595 179 
Q 2234 -91 1600 -91 
Q 1278 -91 972 -22 
Q 666 47 359 184 
z
" transform="scale(0.015625)"/>
       <path id="DejaVuSerif-69" d="M 622 4353 
Q 622 4497 726 4603 
Q 831 4709 978 4709 
Q 1122 4709 1226 4603 
Q 1331 4497 1331 4353 
Q 1331 4206 1228 4103 
Q 1125 4000 978 4000 
Q 831 4000 726 4103 
Q 622 4206 622 4353 
z
M 1356 331 
L 1900 331 
L 1900 0 
L 231 0 
L 231 331 
L 781 331 
L 781 2988 
L 231 2988 
L 231 3322 
L 1356 3322 
L 1356 331 
z
" transform="scale(0.015625)"/>
       <path id="DejaVuSerif-57" d="M 4878 0 
L 4366 0 
L 3297 3794 
L 2228 0 
L 1716 0 
L 494 4331 
L 31 4331 
L 31 4666 
L 1734 4666 
L 1734 4331 
L 1153 4331 
L 2125 884 
L 3188 4666 
L 3694 4666 
L 4775 844 
L 5753 4331 
L 5216 4331 
L 5216 4666 
L 6559 4666 
L 6559 4331 
L 6100 4331 
L 4878 0 
z
" transform="scale(0.015625)"/>
       <path id="DejaVuSerif-2f" d="M 1656 4666 
L 2156 4666 
L 500 -594 
L 0 -594 
L 1656 4666 
z
" transform="scale(0.015625)"/>
       <path id="DejaVuSans-32" d="M 1228 531 
L 3431 531 
L 3431 0 
L 469 0 
L 469 531 
Q 828 903 1448 1529 
Q 2069 2156 2228 2338 
Q 2531 2678 2651 2914 
Q 2772 3150 2772 3378 
Q 2772 3750 2511 3984 
Q 2250 4219 1831 4219 
Q 1534 4219 1204 4116 
Q 875 4013 500 3803 
L 500 4441 
Q 881 4594 1212 4672 
Q 1544 4750 1819 4750 
Q 2544 4750 2975 4387 
Q 3406 4025 3406 3419 
Q 3406 3131 3298 2873 
Q 3191 2616 2906 2266 
Q 2828 2175 2409 1742 
Q 1991 1309 1228 531 
z
" transform="scale(0.015625)"/>
      </defs>
      <use xlink:href="#DejaVuSerif-49" transform="translate(0 0.765625)"/>
      <use xlink:href="#DejaVuSerif-6e" transform="translate(39.501953 0.765625)"/>
      <use xlink:href="#DejaVuSerif-74" transform="translate(103.90625 0.765625)"/>
      <use xlink:href="#DejaVuSerif-65" transform="translate(144.091797 0.765625)"/>
      <use xlink:href="#DejaVuSerif-6e" transform="translate(203.271484 0.765625)"/>
      <use xlink:href="#DejaVuSerif-73" transform="translate(267.675781 0.765625)"/>
      <use xlink:href="#DejaVuSerif-69" transform="translate(318.994141 0.765625)"/>
      <use xlink:href="#DejaVuSerif-74" transform="translate(350.976562 0.765625)"/>
      <use xlink:href="#DejaVuSerif-79" transform="translate(391.162109 0.765625)"/>
      <use xlink:href="#DejaVuSerif-20" transform="translate(447.65625 0.765625)"/>
      <use xlink:href="#DejaVuSerif-28" transform="translate(479.443359 0.765625)"/>
      <use xlink:href="#DejaVuSerif-57" transform="translate(518.457031 0.765625)"/>
      <use xlink:href="#DejaVuSerif-2f" transform="translate(621.240234 0.765625)"/>
      <use xlink:href="#DejaVuSerif-6d" transform="translate(654.931641 0.765625)"/>
      <use xlink:href="#DejaVuSans-32" transform="translate(750.712891 39.046875) scale(0.7)"/>
      <use xlink:href="#DejaVuSerif-29" transform="translate(797.983398 0.765625)"/>
     </g>
    </g>
   </g>
   <g id="line2d_27">
    <path d="M 63.560485 240.571539 
L 64.891946 240.538001 
L 65.557676 240.40207 
L 66.223407 239.853709 
L 66.889137 237.988064 
L 67.554867 232.652505 
L 68.220598 219.887394 
L 68.886328 194.529981 
L 69.552058 153.229638 
L 70.883519 46.007911 
L 71.549249 12.1012 
L 72.214979 11.925289 
L 72.88071 45.558155 
L 74.21217 152.757808 
L 74.877901 194.209947 
L 75.543631 219.711529 
L 76.209361 232.572866 
L 76.875092 237.958056 
L 77.540822 239.844243 
L 78.206552 240.399561 
L 79.538013 240.566379 
L 94.18408 240.572407 
L 120.813293 240.524847 
L 121.479024 240.344158 
L 122.144754 239.638861 
L 122.810484 237.318323 
L 123.476215 230.905488 
L 124.141945 216.097915 
L 124.807675 187.763682 
L 125.473406 143.462391 
L 126.804866 37.299345 
L 127.470597 9.186293 
L 128.136327 16.100947 
L 128.802057 54.983787 
L 130.133518 162.043258 
L 130.799248 200.382202 
L 131.464978 223.042649 
L 132.130709 234.056153 
L 132.796439 238.508042 
L 133.462169 240.01504 
L 134.1279 240.444156 
L 135.45936 240.568204 
L 156.097001 240.572407 
L 346.495874 240.471987 
L 347.161604 240.124925 
L 347.827334 238.873001 
L 348.493065 235.07212 
L 349.158795 225.400517 
L 349.824525 204.905912 
L 350.490256 169.114955 
L 352.487447 20.377601 
L 353.153177 7.838501 
L 353.818907 30.930249 
L 355.816098 181.859477 
L 356.481829 212.671507 
L 357.147559 229.272652 
L 357.813289 236.672213 
L 358.47902 239.425126 
L 359.14475 240.284787 
L 359.81048 240.510955 
L 361.807671 240.572178 
L 380.44812 240.53744 
L 381.113851 240.399561 
L 381.779581 239.844243 
L 382.445311 237.958056 
L 383.111042 232.572866 
L 383.776772 219.711529 
L 384.442502 194.209947 
L 385.108233 152.757808 
L 386.439693 45.558155 
L 387.105424 11.925289 
L 387.771154 12.1012 
L 388.436884 46.007911 
L 389.768345 153.229638 
L 390.434075 194.529981 
L 391.099806 219.887394 
L 391.765536 232.652505 
L 392.431266 237.988064 
L 393.096996 239.853709 
L 393.762727 240.40207 
L 395.094187 240.566485 
L 395.759918 240.571539 
L 395.759918 240.571539 
" clip-path="url(#p1c05efcef7)" style="fill: none; stroke: #808080; stroke-width: 0.7; stroke-linecap: square"/>
   </g>
   <g id="patch_3">
    <path d="M 45.0875 244.29615 
L 45.0875 4.114758 
" style="fill: none; stroke: #000000; stroke-width: 0.8; stroke-linejoin: miter; stroke-linecap: square"/>
   </g>
   <g id="patch_4">
    <path d="M 400.913582 244.29615 
L 400.913582 4.114758 
" style="fill: none; stroke: #000000; stroke-width: 0.8; stroke-linejoin: miter; stroke-linecap: square"/>
   </g>
   <g id="patch_5">
    <path d="M 45.0875 244.29615 
L 400.913583 244.29615 
" style="fill: none; stroke: #000000; stroke-width: 0.8; stroke-linejoin: miter; stroke-linecap: square"/>
   </g>
   <g id="patch_6">
    <path d="M 45.0875 4.114758 
L 400.913583 4.114758 
" style="fill: none; stroke: #000000; stroke-width: 0.8; stroke-linejoin: miter; stroke-linecap: square"/>
   </g>
  </g>
  <g id="axes_2">
   <g id="matplotlib.axis_3">
    <g id="ytick_7">
     <g id="line2d_28">
      <path d="M 45.0875 240.572546 
L 400.913582 240.572546 
" clip-path="url(#p1c05efcef7)" style="fill: none; stroke-dasharray: 1.85,0.8; stroke-dashoffset: 0; stroke: #b0b0b0; stroke-opacity: 0.7; stroke-width: 0.5"/>
     </g>
     <g id="line2d_29">
      <defs>
       <path id="m3c13dec847" d="M 0 0 
L 3.5 0 
" style="stroke: #000000; stroke-width: 0.8"/>
      </defs>
      <g>
       <use xlink:href="#m3c13dec847" x="400.913582" y="240.572546" style="stroke: #000000; stroke-width: 0.8"/>
      </g>
     </g>
     <g id="text_16">
      <!-- 0.00 -->
      <g transform="translate(407.913582 244.371765) scale(0.1 -0.1)">
       <use xlink:href="#DejaVuSerif-30"/>
       <use xlink:href="#DejaVuSerif-2e" x="63.623047"/>
       <use xlink:href="#DejaVuSerif-30" x="95.410156"/>
       <use xlink:href="#DejaVuSerif-30" x="159.033203"/>
      </g>
     </g>
    </g>
    <g id="ytick_8">
     <g id="line2d_30">
      <path d="M 45.0875 210.496145 
L 400.913582 210.496145 
" clip-path="url(#p1c05efcef7)" style="fill: none; stroke-dasharray: 1.85,0.8; stroke-dashoffset: 0; stroke: #b0b0b0; stroke-opacity: 0.7; stroke-width: 0.5"/>
     </g>
     <g id="line2d_31">
      <g>
       <use xlink:href="#m3c13dec847" x="400.913582" y="210.496145" style="stroke: #000000; stroke-width: 0.8"/>
      </g>
     </g>
     <g id="text_17">
      <!-- 0.25 -->
      <g transform="translate(407.913582 214.295364) scale(0.1 -0.1)">
       <use xlink:href="#DejaVuSerif-30"/>
       <use xlink:href="#DejaVuSerif-2e" x="63.623047"/>
       <use xlink:href="#DejaVuSerif-32" x="95.410156"/>
       <use xlink:href="#DejaVuSerif-35" x="159.033203"/>
      </g>
     </g>
    </g>
    <g id="ytick_9">
     <g id="line2d_32">
      <path d="M 45.0875 180.419744 
L 400.913582 180.419744 
" clip-path="url(#p1c05efcef7)" style="fill: none; stroke-dasharray: 1.85,0.8; stroke-dashoffset: 0; stroke: #b0b0b0; stroke-opacity: 0.7; stroke-width: 0.5"/>
     </g>
     <g id="line2d_33">
      <g>
       <use xlink:href="#m3c13dec847" x="400.913582" y="180.419744" style="stroke: #000000; stroke-width: 0.8"/>
      </g>
     </g>
     <g id="text_18">
      <!-- 0.50 -->
      <g transform="translate(407.913582 184.218962) scale(0.1 -0.1)">
       <use xlink:href="#DejaVuSerif-30"/>
       <use xlink:href="#DejaVuSerif-2e" x="63.623047"/>
       <use xlink:href="#DejaVuSerif-35" x="95.410156"/>
       <use xlink:href="#DejaVuSerif-30" x="159.033203"/>
      </g>
     </g>
    </g>
    <g id="ytick_10">
     <g id="line2d_34">
      <path d="M 45.0875 150.343342 
L 400.913582 150.343342 
" clip-path="url(#p1c05efcef7)" style="fill: none; stroke-dasharray: 1.85,0.8; stroke-dashoffset: 0; stroke: #b0b0b0; stroke-opacity: 0.7; stroke-width: 0.5"/>
     </g>
     <g id="line2d_35">
      <g>
       <use xlink:href="#m3c13dec847" x="400.913582" y="150.343342" style="stroke: #000000; stroke-width: 0.8"/>
      </g>
     </g>
     <g id="text_19">
      <!-- 0.75 -->
      <g transform="translate(407.913582 154.142561) scale(0.1 -0.1)">
       <use xlink:href="#DejaVuSerif-30"/>
       <use xlink:href="#DejaVuSerif-2e" x="63.623047"/>
       <use xlink:href="#DejaVuSerif-37" x="95.410156"/>
       <use xlink:href="#DejaVuSerif-35" x="159.033203"/>
      </g>
     </g>
    </g>
    <g id="ytick_11">
     <g id="line2d_36">
      <path d="M 45.0875 120.266941 
L 400.913582 120.266941 
" clip-path="url(#p1c05efcef7)" style="fill: none; stroke-dasharray: 1.85,0.8; stroke-dashoffset: 0; stroke: #b0b0b0; stroke-opacity: 0.7; stroke-width: 0.5"/>
     </g>
     <g id="line2d_37">
      <g>
       <use xlink:href="#m3c13dec847" x="400.913582" y="120.266941" style="stroke: #000000; stroke-width: 0.8"/>
      </g>
     </g>
     <g id="text_20">
      <!-- 1.00 -->
      <g transform="translate(407.913582 124.066159) scale(0.1 -0.1)">
       <use xlink:href="#DejaVuSerif-31"/>
       <use xlink:href="#DejaVuSerif-2e" x="63.623047"/>
       <use xlink:href="#DejaVuSerif-30" x="95.410156"/>
       <use xlink:href="#DejaVuSerif-30" x="159.033203"/>
      </g>
     </g>
    </g>
    <g id="ytick_12">
     <g id="line2d_38">
      <path d="M 45.0875 90.190539 
L 400.913582 90.190539 
" clip-path="url(#p1c05efcef7)" style="fill: none; stroke-dasharray: 1.85,0.8; stroke-dashoffset: 0; stroke: #b0b0b0; stroke-opacity: 0.7; stroke-width: 0.5"/>
     </g>
     <g id="line2d_39">
      <g>
       <use xlink:href="#m3c13dec847" x="400.913582" y="90.190539" style="stroke: #000000; stroke-width: 0.8"/>
      </g>
     </g>
     <g id="text_21">
      <!-- 1.25 -->
      <g transform="translate(407.913582 93.989758) scale(0.1 -0.1)">
       <use xlink:href="#DejaVuSerif-31"/>
       <use xlink:href="#DejaVuSerif-2e" x="63.623047"/>
       <use xlink:href="#DejaVuSerif-32" x="95.410156"/>
       <use xlink:href="#DejaVuSerif-35" x="159.033203"/>
      </g>
     </g>
    </g>
    <g id="ytick_13">
     <g id="line2d_40">
      <path d="M 45.0875 60.114138 
L 400.913582 60.114138 
" clip-path="url(#p1c05efcef7)" style="fill: none; stroke-dasharray: 1.85,0.8; stroke-dashoffset: 0; stroke: #b0b0b0; stroke-opacity: 0.7; stroke-width: 0.5"/>
     </g>
     <g id="line2d_41">
      <g>
       <use xlink:href="#m3c13dec847" x="400.913582" y="60.114138" style="stroke: #000000; stroke-width: 0.8"/>
      </g>
     </g>
     <g id="text_22">
      <!-- 1.50 -->
      <g transform="translate(407.913582 63.913357) scale(0.1 -0.1)">
       <use xlink:href="#DejaVuSerif-31"/>
       <use xlink:href="#DejaVuSerif-2e" x="63.623047"/>
       <use xlink:href="#DejaVuSerif-35" x="95.410156"/>
       <use xlink:href="#DejaVuSerif-30" x="159.033203"/>
      </g>
     </g>
    </g>
    <g id="ytick_14">
     <g id="line2d_42">
      <path d="M 45.0875 30.037737 
L 400.913582 30.037737 
" clip-path="url(#p1c05efcef7)" style="fill: none; stroke-dasharray: 1.85,0.8; stroke-dashoffset: 0; stroke: #b0b0b0; stroke-opacity: 0.7; stroke-width: 0.5"/>
     </g>
     <g id="line2d_43">
      <g>
       <use xlink:href="#m3c13dec847" x="400.913582" y="30.037737" style="stroke: #000000; stroke-width: 0.8"/>
      </g>
     </g>
     <g id="text_23">
      <!-- 1.75 -->
      <g transform="translate(407.913582 33.836955) scale(0.1 -0.1)">
       <use xlink:href="#DejaVuSerif-31"/>
       <use xlink:href="#DejaVuSerif-2e" x="63.623047"/>
       <use xlink:href="#DejaVuSerif-37" x="95.410156"/>
       <use xlink:href="#DejaVuSerif-35" x="159.033203"/>
      </g>
     </g>
    </g>
    <g id="text_24">
     <!-- Line strength -->
     <g transform="translate(441.777645 158.468735) rotate(-90) scale(0.1 -0.1)">
      <defs>
       <path id="DejaVuSerif-4c" d="M 353 0 
L 353 331 
L 947 331 
L 947 4331 
L 353 4331 
L 353 4666 
L 2175 4666 
L 2175 4331 
L 1581 4331 
L 1581 384 
L 3713 384 
L 3713 1166 
L 4097 1166 
L 4097 0 
L 353 0 
z
" transform="scale(0.015625)"/>
       <path id="DejaVuSerif-67" d="M 3359 2988 
L 3359 72 
Q 3359 -644 2965 -1033 
Q 2572 -1422 1844 -1422 
Q 1516 -1422 1216 -1362 
Q 916 -1303 641 -1184 
L 641 -488 
L 941 -488 
Q 997 -813 1206 -963 
Q 1416 -1113 1806 -1113 
Q 2313 -1113 2548 -827 
Q 2784 -541 2784 72 
L 2784 519 
Q 2616 206 2355 57 
Q 2094 -91 1709 -91 
Q 1097 -91 708 395 
Q 319 881 319 1663 
Q 319 2444 706 2928 
Q 1094 3413 1709 3413 
Q 2094 3413 2355 3264 
Q 2616 3116 2784 2803 
L 2784 3322 
L 3909 3322 
L 3909 2988 
L 3359 2988 
z
M 2784 1825 
Q 2784 2422 2554 2737 
Q 2325 3053 1888 3053 
Q 1444 3053 1217 2703 
Q 991 2353 991 1663 
Q 991 975 1217 622 
Q 1444 269 1888 269 
Q 2325 269 2554 583 
Q 2784 897 2784 1497 
L 2784 1825 
z
" transform="scale(0.015625)"/>
       <path id="DejaVuSerif-68" d="M 263 0 
L 263 331 
L 781 331 
L 781 4531 
L 231 4531 
L 231 4863 
L 1356 4863 
L 1356 2731 
Q 1516 3069 1770 3241 
Q 2025 3413 2363 3413 
Q 2913 3413 3172 3097 
Q 3431 2781 3431 2113 
L 3431 331 
L 3944 331 
L 3944 0 
L 2356 0 
L 2356 331 
L 2853 331 
L 2853 1931 
Q 2853 2541 2704 2764 
Q 2556 2988 2175 2988 
Q 1775 2988 1565 2697 
Q 1356 2406 1356 1850 
L 1356 331 
L 1856 331 
L 1856 0 
L 263 0 
z
" transform="scale(0.015625)"/>
      </defs>
      <use xlink:href="#DejaVuSerif-4c"/>
      <use xlink:href="#DejaVuSerif-69" x="66.40625"/>
      <use xlink:href="#DejaVuSerif-6e" x="98.388672"/>
      <use xlink:href="#DejaVuSerif-65" x="162.792969"/>
      <use xlink:href="#DejaVuSerif-20" x="221.972656"/>
      <use xlink:href="#DejaVuSerif-73" x="253.759766"/>
      <use xlink:href="#DejaVuSerif-74" x="305.078125"/>
      <use xlink:href="#DejaVuSerif-72" x="345.263672"/>
      <use xlink:href="#DejaVuSerif-65" x="393.066406"/>
      <use xlink:href="#DejaVuSerif-6e" x="452.246094"/>
      <use xlink:href="#DejaVuSerif-67" x="516.650391"/>
      <use xlink:href="#DejaVuSerif-74" x="580.664062"/>
      <use xlink:href="#DejaVuSerif-68" x="620.849609"/>
     </g>
    </g>
   </g>
   <g id="line2d_44">
    <path d="M 48.575991 240.568109 
L 317.029006 240.452131 
L 341.49738 240.255729 
L 351.983826 239.983829 
L 358.275693 239.610575 
L 361.771175 239.2271 
L 364.567561 238.728049 
L 366.66485 238.147086 
L 368.063043 237.5937 
L 369.461236 236.828534 
L 370.859429 235.729248 
L 371.558525 234.99076 
L 372.257621 234.072015 
L 372.956718 232.910259 
L 373.655814 231.41347 
L 374.354911 229.442831 
L 375.054007 226.782117 
L 375.753103 223.082327 
L 376.4522 217.75807 
L 377.151296 209.789183 
L 377.850392 197.347235 
L 378.549489 177.202636 
L 379.248585 144.625186 
L 379.947682 98.942651 
L 380.646778 64.98562 
L 381.345874 82.493952 
L 382.044971 128.878181 
L 382.744067 166.914737 
L 383.443164 191.057389 
L 384.14226 205.864345 
L 384.841356 215.207083 
L 385.540453 221.3536 
L 386.239549 225.565766 
L 386.938646 228.55871 
L 387.637742 230.752684 
L 388.336838 232.404463 
L 389.035935 233.676818 
L 389.735031 234.676429 
L 391.133224 236.123427 
L 392.531417 237.099226 
L 393.92961 237.787337 
L 396.026899 238.492277 
L 397.425091 238.823683 
L 397.425091 238.823683 
" clip-path="url(#p1c05efcef7)" style="fill: none; stroke: #1f77b4; stroke-width: 0.7; stroke-linecap: square"/>
   </g>
   <g id="line2d_45">
    <path d="M 48.575991 240.571107 
L 343.594669 240.457889 
L 358.275693 240.260526 
L 364.567561 239.974274 
L 368.063043 239.606342 
L 370.160332 239.1969 
L 371.558525 238.762064 
L 372.956718 238.087243 
L 373.655814 237.601751 
L 374.354911 236.962564 
L 375.054007 236.099548 
L 375.753103 234.899501 
L 376.4522 233.17255 
L 377.151296 230.587799 
L 377.850392 226.552188 
L 378.549489 220.018181 
L 379.248585 209.451512 
L 379.947682 194.63414 
L 380.646778 183.619997 
L 381.345874 189.298917 
L 382.044971 204.343888 
L 382.744067 216.681246 
L 383.443164 224.512043 
L 384.14226 229.314757 
L 384.841356 232.345124 
L 385.540453 234.338779 
L 386.239549 235.705018 
L 386.938646 236.675795 
L 387.637742 237.387422 
L 389.035935 238.33588 
L 390.434128 238.919235 
L 392.531417 239.445957 
L 395.327802 239.832271 
L 397.425091 240.005293 
L 397.425091 240.005293 
" clip-path="url(#p1c05efcef7)" style="fill: none; stroke: #ff7f0e; stroke-width: 0.7; stroke-linecap: square"/>
   </g>
   <g id="line2d_46">
    <path d="M 48.575991 240.57004 
L 302.347982 240.458092 
L 319.825392 240.25874 
L 326.816356 239.996466 
L 331.010934 239.643533 
L 333.80732 239.192663 
L 335.904609 238.600456 
L 337.302802 237.968217 
L 338.700994 236.981382 
L 339.400091 236.267737 
L 340.099187 235.324078 
L 340.798284 234.043493 
L 341.49738 232.252226 
L 342.196476 229.656726 
L 342.895573 225.742122 
L 343.594669 219.583587 
L 344.293766 209.570154 
L 344.992862 193.543361 
L 345.691958 172.394812 
L 346.391055 160.367456 
L 347.090151 172.382355 
L 347.789248 193.531503 
L 348.488344 209.562424 
L 349.18744 219.578864 
L 349.886537 225.739175 
L 350.585633 229.654809 
L 351.284729 232.250927 
L 351.983826 234.042579 
L 352.682922 235.323413 
L 353.382019 236.26724 
L 354.081115 236.981001 
L 355.479308 237.96798 
L 356.877501 238.600299 
L 358.97479 239.192571 
L 361.771175 239.643482 
L 365.266657 239.953312 
L 370.859429 240.202885 
L 380.646778 240.383518 
L 397.425091 240.487269 
L 397.425091 240.487269 
" clip-path="url(#p1c05efcef7)" style="fill: none; stroke: #2ca02c; stroke-width: 0.7; stroke-linecap: square"/>
   </g>
   <g id="line2d_47">
    <path d="M 48.575991 240.570526 
L 111.494666 240.459057 
L 114.990148 240.301291 
L 117.087438 239.990336 
L 117.786534 239.769713 
L 118.48563 239.417471 
L 119.184727 238.842622 
L 120.58292 236.990495 
L 121.282016 236.840705 
L 123.379305 239.302394 
L 124.078402 239.698986 
L 125.476594 240.104401 
L 127.573884 240.340759 
L 131.768462 240.482933 
L 143.653101 240.551957 
L 219.155511 240.571445 
L 397.425091 240.572407 
L 397.425091 240.572407 
" clip-path="url(#p1c05efcef7)" style="fill: none; stroke: #d62728; stroke-width: 0.7; stroke-linecap: square"/>
   </g>
   <g id="line2d_48">
    <path d="M 48.575991 240.539276 
L 89.822678 240.393545 
L 100.309124 240.167816 
L 105.202799 239.881754 
L 107.999184 239.558399 
L 110.096474 239.141176 
L 111.494666 238.703378 
L 112.892859 238.032837 
L 113.591956 237.556078 
L 114.291052 236.934554 
L 114.990148 236.104986 
L 115.689245 234.966864 
L 116.388341 233.354447 
L 117.087438 230.983575 
L 117.786534 227.349924 
L 118.48563 221.548511 
L 119.184727 212.080759 
L 120.58292 181.576308 
L 121.282016 179.109284 
L 123.379305 219.653191 
L 124.078402 226.18505 
L 124.777498 230.242246 
L 125.476594 232.862211 
L 126.175691 234.626717 
L 126.874787 235.861561 
L 127.573884 236.755026 
L 128.27298 237.420221 
L 129.671173 238.323156 
L 131.069365 238.889856 
L 133.166655 239.410884 
L 135.96304 239.800091 
L 140.157619 240.099297 
L 147.148583 240.317758 
L 160.431414 240.460298 
L 194.687137 240.540376 
L 356.877501 240.569406 
L 397.425091 240.57026 
L 397.425091 240.57026 
" clip-path="url(#p1c05efcef7)" style="fill: none; stroke: #9467bd; stroke-width: 0.7; stroke-linecap: square"/>
   </g>
   <g id="line2d_49">
    <path d="M 48.575991 239.57991 
L 51.372377 239.145004 
L 53.469666 238.601126 
L 54.867859 238.047273 
L 56.266051 237.225972 
L 56.965148 236.658604 
L 57.664244 235.936428 
L 58.363341 234.998896 
L 59.062437 233.753619 
L 59.761533 232.054856 
L 60.46063 229.664075 
L 61.159726 226.175376 
L 61.858822 220.872536 
L 62.557919 212.468264 
L 63.257015 198.765149 
L 63.956112 177.175999 
L 64.655208 150.848799 
L 65.354304 140.911254 
L 66.053401 160.184907 
L 66.752497 186.113833 
L 67.451594 204.604452 
L 68.15069 216.038314 
L 68.849786 223.100233 
L 69.548883 227.62329 
L 70.247979 230.645282 
L 70.947076 232.745244 
L 71.646172 234.255437 
L 72.345268 235.373951 
L 73.044365 236.223512 
L 74.442558 237.404383 
L 75.84075 238.165302 
L 77.238943 238.683092 
L 79.336232 239.19588 
L 82.132618 239.609604 
L 86.327196 239.95225 
L 92.619064 240.203544 
L 103.804606 240.38616 
L 127.573884 240.501102 
L 201.678101 240.557622 
L 397.425091 240.570028 
L 397.425091 240.570028 
" clip-path="url(#p1c05efcef7)" style="fill: none; stroke: #8c564b; stroke-width: 0.7; stroke-linecap: square"/>
   </g>
   <g id="line2d_50">
    <path d="M 48.575991 239.536237 
L 51.372377 239.098294 
L 53.469666 238.551897 
L 54.867859 237.996234 
L 56.266051 237.173009 
L 56.965148 236.604632 
L 57.664244 235.881416 
L 58.363341 234.94281 
L 59.062437 233.696423 
L 59.761533 231.996513 
L 60.46063 229.604546 
L 61.159726 226.114621 
L 61.858822 220.810512 
L 62.557919 212.404926 
L 63.257015 198.700451 
L 63.956112 177.109892 
L 64.655208 150.781231 
L 65.354304 140.842172 
L 66.053401 160.114254 
L 66.752497 186.04155 
L 67.451594 204.530474 
L 68.15069 215.962577 
L 68.849786 223.022666 
L 69.548883 227.54382 
L 70.247979 230.563832 
L 70.947076 232.661732 
L 71.646172 234.169776 
L 72.345268 235.28605 
L 73.044365 236.133274 
L 74.442558 237.309157 
L 75.84075 238.064627 
L 77.238943 238.576446 
L 79.336232 239.079143 
L 82.132618 239.476829 
L 86.327196 239.787866 
L 91.919967 239.9547 
L 98.910931 239.939408 
L 104.503702 239.707809 
L 107.999184 239.332521 
L 110.096474 238.903589 
L 111.494666 238.447264 
L 112.892859 237.743353 
L 113.591956 237.241078 
L 114.291052 236.585097 
L 114.990148 235.708301 
L 115.689245 234.504083 
L 116.388341 232.796648 
L 117.087438 230.284587 
L 117.786534 226.432962 
L 118.48563 220.281849 
L 119.184727 210.241688 
L 120.58292 177.889707 
L 121.282016 175.275059 
L 123.379305 218.286668 
L 124.078402 225.216976 
L 124.777498 229.522298 
L 125.476594 232.303061 
L 126.175691 234.176362 
L 126.874787 235.487781 
L 127.573884 236.437038 
L 128.27298 237.14411 
L 129.671173 238.104691 
L 131.069365 238.708429 
L 133.166655 239.264713 
L 135.96304 239.681838 
L 140.157619 240.004662 
L 146.449486 240.22781 
L 158.334125 240.388311 
L 186.297981 240.48432 
L 263.198584 240.47728 
L 305.843464 240.311882 
L 319.825392 240.075335 
L 326.816356 239.76552 
L 331.010934 239.37384 
L 333.80732 238.891128 
L 335.904609 238.271012 
L 337.302802 237.617872 
L 338.700994 236.608012 
L 339.400091 235.881967 
L 340.099187 234.925262 
L 340.798284 233.63094 
L 341.49738 231.825195 
L 342.196476 229.214421 
L 342.895573 225.28369 
L 343.594669 219.108109 
L 344.293766 209.076641 
L 344.992862 193.030745 
L 345.691958 171.861941 
L 346.391055 159.813084 
L 347.090151 171.805129 
L 347.789248 192.929957 
L 348.488344 208.934965 
L 349.18744 218.923755 
L 349.886537 225.054522 
L 350.585633 228.938542 
L 351.284729 231.500777 
L 351.983826 233.256055 
L 352.682922 234.497776 
L 353.382019 235.399469 
L 354.081115 236.067757 
L 355.479308 236.952272 
L 356.877501 237.463724 
L 358.275693 237.748141 
L 360.372983 237.897125 
L 362.470272 237.795942 
L 364.567561 237.456171 
L 365.965754 237.070519 
L 367.363947 236.513569 
L 368.762139 235.71603 
L 370.160332 234.558136 
L 370.859429 233.782694 
L 371.558525 232.824866 
L 372.257621 231.626712 
L 372.956718 230.105284 
L 373.655814 228.138862 
L 374.354911 225.543727 
L 375.054007 222.033632 
L 375.753103 217.146474 
L 376.4522 210.107076 
L 377.151296 199.564457 
L 377.850392 183.097194 
L 378.549489 156.428226 
L 379.248585 113.293138 
L 379.947682 52.801708 
L 380.646778 7.838501 
L 381.345874 31.033248 
L 382.044971 92.469509 
L 382.744067 142.850085 
L 383.443164 174.829823 
L 384.14226 194.445439 
L 384.841356 206.82417 
L 385.540453 214.969672 
L 386.239549 220.55313 
L 386.938646 224.521647 
L 387.637742 227.431804 
L 388.336838 229.623677 
L 389.035935 231.312849 
L 389.735031 232.640614 
L 391.133224 234.564262 
L 392.531417 235.863228 
L 393.92961 236.780616 
L 395.327802 237.452225 
L 397.425091 238.166209 
L 397.425091 238.166209 
" clip-path="url(#p1c05efcef7)" style="fill: none; stroke-dasharray: 2.59,1.12; stroke-dashoffset: 0; stroke: #000000; stroke-opacity: 0.5; stroke-width: 0.7"/>
   </g>
   <g id="patch_7">
    <path d="M 45.0875 244.29615 
L 45.0875 4.114758 
" style="fill: none; stroke: #000000; stroke-width: 0.8; stroke-linejoin: miter; stroke-linecap: square"/>
   </g>
   <g id="patch_8">
    <path d="M 400.913582 244.29615 
L 400.913582 4.114758 
" style="fill: none; stroke: #000000; stroke-width: 0.8; stroke-linejoin: miter; stroke-linecap: square"/>
   </g>
   <g id="patch_9">
    <path d="M 45.0875 244.29615 
L 400.913583 244.29615 
" style="fill: none; stroke: #000000; stroke-width: 0.8; stroke-linejoin: miter; stroke-linecap: square"/>
   </g>
   <g id="patch_10">
    <path d="M 45.0875 4.114758 
L 400.913583 4.114758 
" style="fill: none; stroke: #000000; stroke-width: 0.8; stroke-linejoin: miter; stroke-linecap: square"/>
   </g>
   <g id="legend_1">
    <g id="patch_11">
     <path d="M 52.0875 114.881946 
L 131.3875 114.881946 
Q 133.3875 114.881946 133.3875 112.881946 
L 133.3875 11.114758 
Q 133.3875 9.114758 131.3875 9.114758 
L 52.0875 9.114758 
Q 50.0875 9.114758 50.0875 11.114758 
L 50.0875 112.881946 
Q 50.0875 114.881946 52.0875 114.881946 
z
" style="fill: #ffffff; opacity: 0.8; stroke: #cccccc; stroke-linejoin: miter"/>
    </g>
    <g id="text_25">
     <!-- J, F$\rightarrow$F' -->
     <g transform="translate(72.0875 20.713196) scale(0.1 -0.1)">
      <defs>
       <path id="DejaVuSerif-4a" d="M -538 -1119 
L -538 -384 
L -181 -384 
Q -172 -694 -34 -845 
Q 103 -997 378 -997 
Q 750 -997 897 -762 
Q 1044 -528 1044 153 
L 1044 4331 
L 319 4331 
L 319 4666 
L 2272 4666 
L 2272 4331 
L 1678 4331 
L 1678 128 
Q 1678 -644 1368 -987 
Q 1059 -1331 372 -1331 
Q 150 -1331 -79 -1278 
Q -309 -1225 -538 -1119 
z
" transform="scale(0.015625)"/>
       <path id="DejaVuSerif-2c" d="M 231 -622 
Q 525 -406 662 -114 
Q 800 178 800 594 
L 800 709 
L 1416 709 
Q 1391 175 1164 -208 
Q 938 -591 481 -872 
L 231 -622 
z
" transform="scale(0.015625)"/>
       <path id="DejaVuSans-2192" d="M 5050 2147 
L 5050 1866 
L 3822 638 
L 3447 1013 
L 4175 1741 
L 366 1741 
L 366 2272 
L 4175 2272 
L 3447 3000 
L 3822 3375 
L 5050 2147 
z
" transform="scale(0.015625)"/>
       <path id="DejaVuSerif-27" d="M 1125 4666 
L 1125 2931 
L 628 2931 
L 628 4666 
L 1125 4666 
z
" transform="scale(0.015625)"/>
      </defs>
      <use xlink:href="#DejaVuSerif-4a" transform="translate(0 0.09375)"/>
      <use xlink:href="#DejaVuSerif-2c" transform="translate(40.087891 0.09375)"/>
      <use xlink:href="#DejaVuSerif-20" transform="translate(71.875 0.09375)"/>
      <use xlink:href="#DejaVuSerif-46" transform="translate(103.662109 0.09375)"/>
      <use xlink:href="#DejaVuSans-2192" transform="translate(192.529297 0.09375)"/>
      <use xlink:href="#DejaVuSerif-46" transform="translate(295.800781 0.09375)"/>
      <use xlink:href="#DejaVuSerif-27" transform="translate(365.185547 0.09375)"/>
     </g>
    </g>
    <g id="line2d_51">
     <path d="M 54.0875 31.911633 
L 64.0875 31.911633 
L 74.0875 31.911633 
" style="fill: none; stroke: #1f77b4; stroke-width: 0.7; stroke-linecap: square"/>
    </g>
    <g id="text_26">
     <!-- 0.5, 1$\rightarrow$1 -->
     <g transform="translate(82.0875 35.411633) scale(0.1 -0.1)">
      <use xlink:href="#DejaVuSerif-30" transform="translate(0 0.78125)"/>
      <use xlink:href="#DejaVuSerif-2e" transform="translate(63.623047 0.78125)"/>
      <use xlink:href="#DejaVuSerif-35" transform="translate(95.410156 0.78125)"/>
      <use xlink:href="#DejaVuSerif-2c" transform="translate(159.033203 0.78125)"/>
      <use xlink:href="#DejaVuSerif-20" transform="translate(190.820312 0.78125)"/>
      <use xlink:href="#DejaVuSerif-31" transform="translate(222.607422 0.78125)"/>
      <use xlink:href="#DejaVuSans-2192" transform="translate(305.712891 0.78125)"/>
      <use xlink:href="#DejaVuSerif-31" transform="translate(408.984375 0.78125)"/>
     </g>
    </g>
    <g id="line2d_52">
     <path d="M 54.0875 46.589758 
L 64.0875 46.589758 
L 74.0875 46.589758 
" style="fill: none; stroke: #ff7f0e; stroke-width: 0.7; stroke-linecap: square"/>
    </g>
    <g id="text_27">
     <!-- 0.5, 1$\rightarrow$0 -->
     <g transform="translate(82.0875 50.089758) scale(0.1 -0.1)">
      <use xlink:href="#DejaVuSerif-30" transform="translate(0 0.78125)"/>
      <use xlink:href="#DejaVuSerif-2e" transform="translate(63.623047 0.78125)"/>
      <use xlink:href="#DejaVuSerif-35" transform="translate(95.410156 0.78125)"/>
      <use xlink:href="#DejaVuSerif-2c" transform="translate(159.033203 0.78125)"/>
      <use xlink:href="#DejaVuSerif-20" transform="translate(190.820312 0.78125)"/>
      <use xlink:href="#DejaVuSerif-31" transform="translate(222.607422 0.78125)"/>
      <use xlink:href="#DejaVuSans-2192" transform="translate(305.712891 0.78125)"/>
      <use xlink:href="#DejaVuSerif-30" transform="translate(408.984375 0.78125)"/>
     </g>
    </g>
    <g id="line2d_53">
     <path d="M 54.0875 61.267883 
L 64.0875 61.267883 
L 74.0875 61.267883 
" style="fill: none; stroke: #2ca02c; stroke-width: 0.7; stroke-linecap: square"/>
    </g>
    <g id="text_28">
     <!-- 0.5, 0$\rightarrow$1 -->
     <g transform="translate(82.0875 64.767883) scale(0.1 -0.1)">
      <use xlink:href="#DejaVuSerif-30" transform="translate(0 0.78125)"/>
      <use xlink:href="#DejaVuSerif-2e" transform="translate(63.623047 0.78125)"/>
      <use xlink:href="#DejaVuSerif-35" transform="translate(95.410156 0.78125)"/>
      <use xlink:href="#DejaVuSerif-2c" transform="translate(159.033203 0.78125)"/>
      <use xlink:href="#DejaVuSerif-20" transform="translate(190.820312 0.78125)"/>
      <use xlink:href="#DejaVuSerif-30" transform="translate(222.607422 0.78125)"/>
      <use xlink:href="#DejaVuSans-2192" transform="translate(305.712891 0.78125)"/>
      <use xlink:href="#DejaVuSerif-31" transform="translate(408.984375 0.78125)"/>
     </g>
    </g>
    <g id="line2d_54">
     <path d="M 54.0875 75.946008 
L 64.0875 75.946008 
L 74.0875 75.946008 
" style="fill: none; stroke: #d62728; stroke-width: 0.7; stroke-linecap: square"/>
    </g>
    <g id="text_29">
     <!-- 1.5, 1$\rightarrow$1 -->
     <g transform="translate(82.0875 79.446008) scale(0.1 -0.1)">
      <use xlink:href="#DejaVuSerif-31" transform="translate(0 0.78125)"/>
      <use xlink:href="#DejaVuSerif-2e" transform="translate(63.623047 0.78125)"/>
      <use xlink:href="#DejaVuSerif-35" transform="translate(95.410156 0.78125)"/>
      <use xlink:href="#DejaVuSerif-2c" transform="translate(159.033203 0.78125)"/>
      <use xlink:href="#DejaVuSerif-20" transform="translate(190.820312 0.78125)"/>
      <use xlink:href="#DejaVuSerif-31" transform="translate(222.607422 0.78125)"/>
      <use xlink:href="#DejaVuSans-2192" transform="translate(305.712891 0.78125)"/>
      <use xlink:href="#DejaVuSerif-31" transform="translate(408.984375 0.78125)"/>
     </g>
    </g>
    <g id="line2d_55">
     <path d="M 54.0875 90.624133 
L 64.0875 90.624133 
L 74.0875 90.624133 
" style="fill: none; stroke: #9467bd; stroke-width: 0.7; stroke-linecap: square"/>
    </g>
    <g id="text_30">
     <!-- 1.5, 1$\rightarrow$0 -->
     <g transform="translate(82.0875 94.124133) scale(0.1 -0.1)">
      <use xlink:href="#DejaVuSerif-31" transform="translate(0 0.78125)"/>
      <use xlink:href="#DejaVuSerif-2e" transform="translate(63.623047 0.78125)"/>
      <use xlink:href="#DejaVuSerif-35" transform="translate(95.410156 0.78125)"/>
      <use xlink:href="#DejaVuSerif-2c" transform="translate(159.033203 0.78125)"/>
      <use xlink:href="#DejaVuSerif-20" transform="translate(190.820312 0.78125)"/>
      <use xlink:href="#DejaVuSerif-31" transform="translate(222.607422 0.78125)"/>
      <use xlink:href="#DejaVuSans-2192" transform="translate(305.712891 0.78125)"/>
      <use xlink:href="#DejaVuSerif-30" transform="translate(408.984375 0.78125)"/>
     </g>
    </g>
    <g id="line2d_56">
     <path d="M 54.0875 105.302258 
L 64.0875 105.302258 
L 74.0875 105.302258 
" style="fill: none; stroke: #8c564b; stroke-width: 0.7; stroke-linecap: square"/>
    </g>
    <g id="text_31">
     <!-- 1.5, 2$\rightarrow$1 -->
     <g transform="translate(82.0875 108.802258) scale(0.1 -0.1)">
      <use xlink:href="#DejaVuSerif-31" transform="translate(0 0.78125)"/>
      <use xlink:href="#DejaVuSerif-2e" transform="translate(63.623047 0.78125)"/>
      <use xlink:href="#DejaVuSerif-35" transform="translate(95.410156 0.78125)"/>
      <use xlink:href="#DejaVuSerif-2c" transform="translate(159.033203 0.78125)"/>
      <use xlink:href="#DejaVuSerif-20" transform="translate(190.820312 0.78125)"/>
      <use xlink:href="#DejaVuSerif-32" transform="translate(222.607422 0.78125)"/>
      <use xlink:href="#DejaVuSans-2192" transform="translate(305.712891 0.78125)"/>
      <use xlink:href="#DejaVuSerif-31" transform="translate(408.984375 0.78125)"/>
     </g>
    </g>
   </g>
  </g>
 </g>
 <defs>
  <clipPath id="p1c05efcef7">
   <rect x="45.0875" y="4.114758" width="355.826082" height="240.181392"/>
  </clipPath>
 </defs>
</svg>
