<?xml version="1.0" encoding="UTF-8" standalone="no"?>
<!DOCTYPE svg PUBLIC "-//W3C//DTD SVG 1.1//EN"
 "http://www.w3.org/Graphics/SVG/1.1/DTD/svg11.dtd">
<!-- Generated by graphviz version 2.43.0 (0)
 -->
<!-- Title: mpdfg Pages: 1 -->
<svg width="1316pt" height="1095pt"
 viewBox="0.00 0.00 1316.00 1094.85" xmlns="http://www.w3.org/2000/svg" xmlns:xlink="http://www.w3.org/1999/xlink">
<g id="graph0" class="graph" transform="scale(1 1) rotate(0) translate(4 1090.85)">
<title>mpdfg</title>
<polygon fill="white" stroke="transparent" points="-4,4 -4,-1090.85 1312,-1090.85 1312,4 -4,4"/>
<!-- start -->
<g id="node1" class="node">
<title>start</title>
<ellipse fill="green" stroke="black" cx="857" cy="-1065.64" rx="21.43" ry="21.43"/>
<text text-anchor="middle" x="857" y="-1060.64" font-family="Times,serif" font-size="20.00">▲</text>
</g>
<!-- A0 -->
<g id="node3" class="node">
<title>A0</title>
<polygon fill="#08306b" stroke="transparent" points="800,-963.43 800,-986.43 914,-986.43 914,-963.43 800,-963.43"/>
<polygon fill="none" stroke="black" points="800,-963.43 800,-986.43 914,-986.43 914,-963.43 800,-963.43"/>
<text text-anchor="start" x="804" y="-971.23" font-family="arial" font-size="14.00" fill="white">Creation (19,524)</text>
<polygon fill="#fdb475" stroke="transparent" points="800,-940.43 800,-963.43 914,-963.43 914,-940.43 800,-940.43"/>
<polygon fill="none" stroke="black" points="800,-940.43 800,-963.43 914,-963.43 914,-940.43 800,-940.43"/>
<text text-anchor="start" x="836.5" y="-948.23" font-family="arial" font-size="14.00" fill="white">Instant</text>
</g>
<!-- start&#45;&gt;A0 -->
<g id="edge1" class="edge">
<title>start&#45;&gt;A0</title>
<path fill="none" stroke="#bfbfbf" stroke-width="8" stroke-dasharray="5,2" d="M857,-1044.36C857,-1028.92 857,-1007.53 857,-990.77"/>
<polygon fill="white" stroke="transparent" points="857,-1008.43 857,-1026.43 903,-1026.43 903,-1008.43 857,-1008.43"/>
<text text-anchor="start" x="857" y="-1013.63" font-family="arial" font-size="16.00" fill="#08306b">19523</text>
</g>
<!-- complete -->
<g id="node2" class="node">
<title>complete</title>
<ellipse fill="red" stroke="black" cx="255" cy="-21.21" rx="21.43" ry="21.43"/>
<text text-anchor="middle" x="255" y="-16.21" font-family="Times,serif" font-size="20.00">■</text>
</g>
<!-- A1 -->
<g id="node4" class="node">
<title>A1</title>
<polygon fill="#08306b" stroke="transparent" points="627,-843.43 627,-866.43 787,-866.43 787,-843.43 627,-843.43"/>
<polygon fill="none" stroke="black" points="627,-843.43 627,-866.43 787,-866.43 787,-843.43 627,-843.43"/>
<text text-anchor="start" x="631" y="-851.23" font-family="arial" font-size="14.00" fill="white">DeviceReceived (19,523)</text>
<polygon fill="#fdb475" stroke="transparent" points="627,-820.43 627,-843.43 787,-843.43 787,-820.43 627,-820.43"/>
<polygon fill="none" stroke="black" points="627,-820.43 627,-843.43 787,-843.43 787,-820.43 627,-820.43"/>
<text text-anchor="start" x="686.5" y="-828.23" font-family="arial" font-size="14.00" fill="white">Instant</text>
</g>
<!-- A0&#45;&gt;A1 -->
<g id="edge14" class="edge">
<title>A0&#45;&gt;A1</title>
<path fill="none" stroke="black" stroke-width="5.68" d="M791.89,-939.15C780.28,-933.39 768.78,-926.5 759,-918.43 745.99,-907.68 734.74,-892.92 726.06,-879.41"/>
<polygon fill="black" stroke="black" stroke-width="5.68" points="730.21,-876.67 720.74,-870.76 721.75,-881.88 730.21,-876.67"/>
<polygon fill="snow" stroke="transparent" points="759,-903.43 759,-918.43 843,-918.43 843,-903.43 759,-903.43"/>
<text text-anchor="start" x="780" y="-907.23" font-family="arial" font-size="14.00" fill="#1b68ae">13,049</text>
<polygon fill="snow" stroke="transparent" points="759,-888.43 759,-903.43 843,-903.43 843,-888.43 759,-888.43"/>
<text text-anchor="start" x="759" y="-892.23" font-family="arial" font-size="14.00" fill="#c44103">07d 07h 47m </text>
</g>
<!-- A2 -->
<g id="node5" class="node">
<title>A2</title>
<polygon fill="#08306b" stroke="transparent" points="424,-723.43 424,-746.43 547,-746.43 547,-723.43 424,-723.43"/>
<polygon fill="none" stroke="black" points="424,-723.43 424,-746.43 547,-746.43 547,-723.43 424,-723.43"/>
<text text-anchor="start" x="428" y="-731.23" font-family="arial" font-size="14.00" fill="white">InDelivery (19,523)</text>
<polygon fill="#fdb475" stroke="transparent" points="424,-700.43 424,-723.43 547,-723.43 547,-700.43 424,-700.43"/>
<polygon fill="none" stroke="black" points="424,-700.43 424,-723.43 547,-723.43 547,-700.43 424,-700.43"/>
<text text-anchor="start" x="465" y="-708.23" font-family="arial" font-size="14.00" fill="white">Instant</text>
</g>
<!-- A0&#45;&gt;A2 -->
<g id="edge7" class="edge">
<title>A0&#45;&gt;A2</title>
<path fill="none" stroke="black" stroke-width="1.29" d="M791.9,-958.54C720.17,-951.27 604.59,-930.39 526,-870.43 496.37,-847.82 492.91,-834.36 483,-798.43 479.7,-786.45 479.17,-772.96 479.8,-760.82"/>
<polygon fill="black" stroke="black" stroke-width="1.29" points="483.31,-760.81 480.61,-750.56 476.33,-760.26 483.31,-760.81"/>
<polygon fill="snow" stroke="transparent" points="526,-843.43 526,-858.43 610,-858.43 610,-843.43 526,-843.43"/>
<text text-anchor="start" x="556.5" y="-847.23" font-family="arial" font-size="14.00" fill="#9ac7e1">828</text>
<polygon fill="snow" stroke="transparent" points="526,-828.43 526,-843.43 610,-843.43 610,-828.43 526,-828.43"/>
<text text-anchor="start" x="526" y="-832.23" font-family="arial" font-size="14.00" fill="#e95f0f">05d 01h 15m </text>
</g>
<!-- A3 -->
<g id="node6" class="node">
<title>A3</title>
<polygon fill="#1c6aaf" stroke="transparent" points="772,-363.43 772,-386.43 869,-386.43 869,-363.43 772,-363.43"/>
<polygon fill="none" stroke="black" points="772,-363.43 772,-386.43 869,-386.43 869,-363.43 772,-363.43"/>
<text text-anchor="start" x="776" y="-371.23" font-family="arial" font-size="14.00" fill="white">Letter (12,811)</text>
<polygon fill="#fdb475" stroke="transparent" points="772,-340.43 772,-363.43 869,-363.43 869,-340.43 772,-340.43"/>
<polygon fill="none" stroke="black" points="772,-340.43 772,-363.43 869,-363.43 869,-340.43 772,-340.43"/>
<text text-anchor="start" x="800" y="-348.23" font-family="arial" font-size="14.00" fill="white">Instant</text>
</g>
<!-- A0&#45;&gt;A3 -->
<g id="edge12" class="edge">
<title>A0&#45;&gt;A3</title>
<path fill="none" stroke="black" stroke-width="2.88" d="M922.19,-955.02C1027.65,-941.21 1224,-907.09 1224,-844.43 1224,-844.43 1224,-844.43 1224,-482.43 1224,-413 1001.42,-381.63 886.68,-370.07"/>
<polygon fill="black" stroke="black" stroke-width="2.88" points="886.89,-366.57 876.6,-369.07 886.21,-373.54 886.89,-366.57"/>
<polygon fill="snow" stroke="transparent" points="1224,-663.43 1224,-678.43 1308,-678.43 1308,-663.43 1224,-663.43"/>
<text text-anchor="start" x="1249" y="-667.23" font-family="arial" font-size="14.00" fill="#63a8d2">5,256</text>
<polygon fill="snow" stroke="transparent" points="1224,-648.43 1224,-663.43 1308,-663.43 1308,-648.43 1224,-648.43"/>
<text text-anchor="start" x="1224" y="-652.23" font-family="arial" font-size="14.00" fill="#d74c05">06d 08h 14m </text>
</g>
<!-- A4 -->
<g id="node7" class="node">
<title>A4</title>
<polygon fill="#59a1cf" stroke="transparent" points="675,-483.43 675,-506.43 795,-506.43 795,-483.43 675,-483.43"/>
<polygon fill="none" stroke="black" points="675,-483.43 675,-506.43 795,-506.43 795,-483.43 675,-483.43"/>
<text text-anchor="start" x="679" y="-491.23" font-family="arial" font-size="14.00" fill="white">StockEntry (6,136)</text>
<polygon fill="#fdb475" stroke="transparent" points="675,-460.43 675,-483.43 795,-483.43 795,-460.43 675,-460.43"/>
<polygon fill="none" stroke="black" points="675,-460.43 675,-483.43 795,-483.43 795,-460.43 675,-460.43"/>
<text text-anchor="start" x="714.5" y="-468.23" font-family="arial" font-size="14.00" fill="white">Instant</text>
</g>
<!-- A0&#45;&gt;A4 -->
<g id="edge4" class="edge">
<title>A0&#45;&gt;A4</title>
<path fill="none" stroke="black" stroke-width="1.02" d="M869.19,-936.42C883.44,-904.64 906.43,-848.87 917,-798.43 929.33,-739.61 969.58,-575.32 932,-528.43 916.99,-509.69 861.62,-498.41 813.39,-491.97"/>
<polygon fill="black" stroke="black" stroke-width="1.02" points="813.59,-488.46 803.23,-490.66 812.7,-495.41 813.59,-488.46"/>
<polygon fill="snow" stroke="transparent" points="937,-723.43 937,-738.43 1021,-738.43 1021,-723.43 937,-723.43"/>
<text text-anchor="start" x="971" y="-727.23" font-family="arial" font-size="14.00" fill="#a4cce4">80</text>
<polygon fill="snow" stroke="transparent" points="937,-708.43 937,-723.43 1021,-723.43 1021,-708.43 937,-708.43"/>
<text text-anchor="start" x="937" y="-712.23" font-family="arial" font-size="14.00" fill="#cc4503">06d 23h 07m </text>
</g>
<!-- A7 -->
<g id="node10" class="node">
<title>A7</title>
<polygon fill="#4492c6" stroke="transparent" points="491,-603.43 491,-626.43 604,-626.43 604,-603.43 491,-603.43"/>
<polygon fill="none" stroke="black" points="491,-603.43 491,-626.43 604,-626.43 604,-603.43 491,-603.43"/>
<text text-anchor="start" x="495" y="-611.23" font-family="arial" font-size="14.00" fill="white">Approved (8,129)</text>
<polygon fill="#fdb475" stroke="transparent" points="491,-580.43 491,-603.43 604,-603.43 604,-580.43 491,-580.43"/>
<polygon fill="none" stroke="black" points="491,-580.43 491,-603.43 604,-603.43 604,-580.43 491,-580.43"/>
<text text-anchor="start" x="527" y="-588.23" font-family="arial" font-size="14.00" fill="white">Instant</text>
</g>
<!-- A0&#45;&gt;A7 -->
<g id="edge5" class="edge">
<title>A0&#45;&gt;A7</title>
<path fill="none" stroke="black" stroke-width="1.1" d="M856.15,-936.3C853.04,-883.78 838.7,-764.6 773,-696.43 751.15,-673.75 678.48,-646.39 621.37,-627.43"/>
<polygon fill="black" stroke="black" stroke-width="1.1" points="622.22,-624.03 611.62,-624.23 620.03,-630.68 622.22,-624.03"/>
<polygon fill="snow" stroke="transparent" points="830.5,-783.43 830.5,-798.43 913.5,-798.43 913.5,-783.43 830.5,-783.43"/>
<text text-anchor="start" x="860.5" y="-787.23" font-family="arial" font-size="14.00" fill="#a1cbe3">310</text>
<polygon fill="snow" stroke="transparent" points="830.5,-768.43 830.5,-783.43 913.5,-783.43 913.5,-768.43 830.5,-768.43"/>
<text text-anchor="start" x="830.5" y="-772.23" font-family="arial" font-size="14.00" fill="#fdab67">14h 13m 05s </text>
</g>
<!-- A1&#45;&gt;A2 -->
<g id="edge16" class="edge">
<title>A1&#45;&gt;A2</title>
<path fill="none" stroke="black" stroke-width="3.14" d="M618.94,-827.9C567.8,-818.68 511.74,-806.94 503,-798.43 492.96,-788.65 488.15,-774.28 485.96,-760.8"/>
<polygon fill="black" stroke="black" stroke-width="3.14" points="489.42,-760.27 484.75,-750.76 482.47,-761.11 489.42,-760.27"/>
<polygon fill="snow" stroke="transparent" points="503,-783.43 503,-798.43 587,-798.43 587,-783.43 503,-783.43"/>
<text text-anchor="start" x="528" y="-787.23" font-family="arial" font-size="14.00" fill="#5ba3d0">5,982</text>
<polygon fill="snow" stroke="transparent" points="503,-768.43 503,-783.43 587,-783.43 587,-768.43 503,-768.43"/>
<text text-anchor="start" x="503" y="-772.23" font-family="arial" font-size="14.00" fill="#7f2704">10d 14h 44m </text>
</g>
<!-- A1&#45;&gt;A3 -->
<g id="edge15" class="edge">
<title>A1&#45;&gt;A3</title>
<path fill="none" stroke="black" stroke-width="3.22" d="M795.28,-833.81C844.75,-827.13 899.87,-816 917,-798.43 959.44,-754.9 982.13,-585.43 961,-528.43 941.24,-475.14 895.55,-427.53 861.51,-397.52"/>
<polygon fill="black" stroke="black" stroke-width="3.22" points="863.42,-394.54 853.56,-390.64 858.84,-399.83 863.42,-394.54"/>
<polygon fill="snow" stroke="transparent" points="969,-603.43 969,-618.43 1053,-618.43 1053,-603.43 969,-603.43"/>
<text text-anchor="start" x="994" y="-607.23" font-family="arial" font-size="14.00" fill="#59a1cf">6,214</text>
<polygon fill="snow" stroke="transparent" points="969,-588.43 969,-603.43 1053,-603.43 1053,-588.43 969,-588.43"/>
<text text-anchor="start" x="969" y="-592.23" font-family="arial" font-size="14.00" fill="#c54203">07d 06h 03m </text>
</g>
<!-- A1&#45;&gt;A4 -->
<g id="edge25" class="edge">
<title>A1&#45;&gt;A4</title>
<path fill="none" stroke="black" stroke-width="1.62" d="M728.55,-816.25C742.49,-798.46 760.32,-773.96 773,-750.43 800.09,-700.14 808.6,-686.59 819,-630.43 823.37,-606.83 826.28,-599.3 819,-576.43 811.07,-551.51 802.49,-547.86 785,-528.43 781.74,-524.8 778.2,-521.18 774.55,-517.65"/>
<polygon fill="black" stroke="black" stroke-width="1.62" points="776.69,-514.86 766.99,-510.59 771.91,-519.97 776.69,-514.86"/>
<polygon fill="snow" stroke="transparent" points="815,-663.43 815,-678.43 899,-678.43 899,-663.43 815,-663.43"/>
<text text-anchor="start" x="840" y="-667.23" font-family="arial" font-size="14.00" fill="#8ec1de">1,757</text>
<polygon fill="snow" stroke="transparent" points="815,-648.43 815,-663.43 899,-663.43 899,-648.43 815,-648.43"/>
<text text-anchor="start" x="815" y="-652.23" font-family="arial" font-size="14.00" fill="#9f3303">09d 00h 08m </text>
</g>
<!-- A5 -->
<g id="node8" class="node">
<title>A5</title>
<polygon fill="#08306b" stroke="transparent" points="191,-123.43 191,-146.43 320,-146.43 320,-123.43 191,-123.43"/>
<polygon fill="none" stroke="black" points="191,-123.43 191,-146.43 320,-146.43 320,-123.43 191,-123.43"/>
<text text-anchor="start" x="195" y="-131.23" font-family="arial" font-size="14.00" fill="white">Completed (19,523)</text>
<polygon fill="#fdb475" stroke="transparent" points="191,-100.43 191,-123.43 320,-123.43 320,-100.43 191,-100.43"/>
<polygon fill="none" stroke="black" points="191,-100.43 191,-123.43 320,-123.43 320,-100.43 191,-100.43"/>
<text text-anchor="start" x="235" y="-108.23" font-family="arial" font-size="14.00" fill="white">Instant</text>
</g>
<!-- A1&#45;&gt;A5 -->
<g id="edge8" class="edge">
<title>A1&#45;&gt;A5</title>
<path fill="none" stroke="black" stroke-width="1.57" d="M618.99,-817.36C617.31,-817.03 615.65,-816.72 614,-816.43 478.16,-792.26 0,-862.39 0,-724.43 0,-724.43 0,-724.43 0,-242.43 0,-165.2 97.51,-138.36 171.93,-129.13"/>
<polygon fill="black" stroke="black" stroke-width="1.57" points="172.73,-132.56 182.27,-127.94 171.93,-125.6 172.73,-132.56"/>
<polygon fill="snow" stroke="transparent" points="0.5,-483.43 0.5,-498.43 83.5,-498.43 83.5,-483.43 0.5,-483.43"/>
<text text-anchor="start" x="25" y="-487.23" font-family="arial" font-size="14.00" fill="#91c3df">1,602</text>
<polygon fill="snow" stroke="transparent" points="0.5,-468.43 0.5,-483.43 83.5,-483.43 83.5,-468.43 0.5,-468.43"/>
<text text-anchor="start" x="0.5" y="-472.23" font-family="arial" font-size="14.00" fill="#fdb171">05h 06m 43s </text>
</g>
<!-- A6 -->
<g id="node9" class="node">
<title>A6</title>
<polygon fill="#4794c8" stroke="transparent" points="285,-243.43 285,-266.43 421,-266.43 421,-243.43 285,-243.43"/>
<polygon fill="none" stroke="black" points="285,-243.43 285,-266.43 421,-266.43 421,-243.43 285,-243.43"/>
<text text-anchor="start" x="289" y="-251.23" font-family="arial" font-size="14.00" fill="white">Transmission (7,883)</text>
<polygon fill="#fdb475" stroke="transparent" points="285,-220.43 285,-243.43 421,-243.43 421,-220.43 285,-220.43"/>
<polygon fill="none" stroke="black" points="285,-220.43 285,-243.43 421,-243.43 421,-220.43 285,-220.43"/>
<text text-anchor="start" x="332.5" y="-228.23" font-family="arial" font-size="14.00" fill="white">Instant</text>
</g>
<!-- A1&#45;&gt;A6 -->
<g id="edge11" class="edge">
<title>A1&#45;&gt;A6</title>
<path fill="none" stroke="black" stroke-width="2.37" d="M618.96,-817.49C617.3,-817.12 615.64,-816.77 614,-816.43 556.46,-804.49 538.86,-816.69 483,-798.43 314.37,-743.28 223.15,-725.7 164,-558.43 138.15,-485.32 239.31,-415.6 254,-390.43 267.62,-367.08 268.26,-359.71 282,-336.43 295.03,-314.35 298.35,-308.73 314,-288.43 316.59,-285.06 319.38,-281.63 322.21,-278.23"/>
<polygon fill="black" stroke="black" stroke-width="2.37" points="325.04,-280.32 328.88,-270.45 319.72,-275.77 325.04,-280.32"/>
<polygon fill="snow" stroke="transparent" points="164,-543.43 164,-558.43 248,-558.43 248,-543.43 164,-543.43"/>
<text text-anchor="start" x="189" y="-547.23" font-family="arial" font-size="14.00" fill="#75b3d7">3,836</text>
<polygon fill="snow" stroke="transparent" points="164,-528.43 164,-543.43 248,-543.43 248,-528.43 164,-528.43"/>
<text text-anchor="start" x="164" y="-532.23" font-family="arial" font-size="14.00" fill="#a13403">08d 20h 23m </text>
</g>
<!-- A2&#45;&gt;A1 -->
<g id="edge27" class="edge">
<title>A2&#45;&gt;A1</title>
<path fill="none" stroke="black" stroke-width="1.33" d="M554.63,-748.75C566.02,-754.3 577.26,-760.84 587,-768.43 600.25,-778.75 596.84,-787.98 610,-798.43 616.01,-803.2 622.61,-807.58 629.47,-811.57"/>
<polygon fill="black" stroke="black" stroke-width="1.33" points="627.81,-814.65 638.26,-816.42 631.19,-808.52 627.81,-814.65"/>
<polygon fill="snow" stroke="transparent" points="610.5,-783.43 610.5,-798.43 693.5,-798.43 693.5,-783.43 610.5,-783.43"/>
<text text-anchor="start" x="640.5" y="-787.23" font-family="arial" font-size="14.00" fill="#99c6e1">932</text>
<polygon fill="snow" stroke="transparent" points="610.5,-768.43 610.5,-783.43 693.5,-783.43 693.5,-768.43 610.5,-768.43"/>
<text text-anchor="start" x="610.5" y="-772.23" font-family="arial" font-size="14.00" fill="#fdad6a">10h 54m 39s </text>
</g>
<!-- A2&#45;&gt;A3 -->
<g id="edge28" class="edge">
<title>A2&#45;&gt;A3</title>
<path fill="none" stroke="black" stroke-width="1.3" d="M446.73,-696.28C441.57,-691 437.02,-685.02 434,-678.43 418.32,-644.18 414.55,-596.66 452,-528.43 491.11,-457.17 516.9,-443.95 590,-408.43 618.2,-394.72 695.91,-381.56 753.23,-373.26"/>
<polygon fill="black" stroke="black" stroke-width="1.3" points="753.92,-376.7 763.32,-371.82 752.93,-369.77 753.92,-376.7"/>
<polygon fill="snow" stroke="transparent" points="452.5,-543.43 452.5,-558.43 535.5,-558.43 535.5,-543.43 452.5,-543.43"/>
<text text-anchor="start" x="482.5" y="-547.23" font-family="arial" font-size="14.00" fill="#9ac7e1">863</text>
<polygon fill="snow" stroke="transparent" points="452.5,-528.43 452.5,-543.43 535.5,-543.43 535.5,-528.43 452.5,-528.43"/>
<text text-anchor="start" x="452.5" y="-532.23" font-family="arial" font-size="14.00" fill="#fdb374">01h 10m 04s </text>
</g>
<!-- A2&#45;&gt;A4 -->
<g id="edge21" class="edge">
<title>A2&#45;&gt;A4</title>
<path fill="none" stroke="black" stroke-width="2.09" d="M554.58,-713.6C579.42,-707.35 605.95,-696.66 625,-678.43 659.83,-645.08 625.47,-607.9 662,-576.43 692.57,-550.08 725.45,-589.66 751,-558.43 759.77,-547.7 758.61,-533.26 754.2,-519.99"/>
<polygon fill="black" stroke="black" stroke-width="2.09" points="757.43,-518.62 750.52,-510.59 750.91,-521.18 757.43,-518.62"/>
<polygon fill="snow" stroke="transparent" points="662.5,-603.43 662.5,-618.43 745.5,-618.43 745.5,-603.43 662.5,-603.43"/>
<text text-anchor="start" x="687" y="-607.23" font-family="arial" font-size="14.00" fill="#7eb8da">3,053</text>
<polygon fill="snow" stroke="transparent" points="662.5,-588.43 662.5,-603.43 745.5,-603.43 745.5,-588.43 662.5,-588.43"/>
<text text-anchor="start" x="662.5" y="-592.23" font-family="arial" font-size="14.00" fill="#fdaf6d">08h 04m 24s </text>
</g>
<!-- A2&#45;&gt;A5 -->
<g id="edge13" class="edge">
<title>A2&#45;&gt;A5</title>
<path fill="none" stroke="black" stroke-width="5.33" d="M415.07,-716.91C378.01,-711.4 333.04,-700.39 298,-678.43 262.47,-656.16 111,-495.28 111,-424.43 111,-424.43 111,-424.43 111,-242.43 111,-203.26 143.26,-174.74 177.24,-155.55"/>
<polygon fill="black" stroke="black" stroke-width="5.33" points="179.78,-159.48 186.37,-150.63 175.36,-151.27 179.78,-159.48"/>
<polygon fill="snow" stroke="transparent" points="113.5,-423.43 113.5,-438.43 196.5,-438.43 196.5,-423.43 113.5,-423.43"/>
<text text-anchor="start" x="134" y="-427.23" font-family="arial" font-size="14.00" fill="#2270b3">12,083</text>
<polygon fill="snow" stroke="transparent" points="113.5,-408.43 113.5,-423.43 196.5,-423.43 196.5,-408.43 113.5,-408.43"/>
<text text-anchor="start" x="113.5" y="-412.23" font-family="arial" font-size="14.00" fill="#fdac69">11h 57m 52s </text>
</g>
<!-- A2&#45;&gt;A6 -->
<g id="edge29" class="edge">
<title>A2&#45;&gt;A6</title>
<path fill="none" stroke="black" stroke-width="1.29" d="M437.38,-696.26C430.83,-691.04 424.74,-685.09 420,-678.43 331.87,-554.65 340.35,-360.55 348.44,-280.65"/>
<polygon fill="black" stroke="black" stroke-width="1.29" points="351.93,-280.91 349.51,-270.59 344.97,-280.16 351.93,-280.91"/>
<polygon fill="snow" stroke="transparent" points="354.5,-483.43 354.5,-498.43 437.5,-498.43 437.5,-483.43 354.5,-483.43"/>
<text text-anchor="start" x="384.5" y="-487.23" font-family="arial" font-size="14.00" fill="#9ac7e1">846</text>
<polygon fill="snow" stroke="transparent" points="354.5,-468.43 354.5,-483.43 437.5,-483.43 437.5,-468.43 354.5,-468.43"/>
<text text-anchor="start" x="354.5" y="-472.23" font-family="arial" font-size="14.00" fill="#fdad6a">10h 18m 16s </text>
</g>
<!-- A2&#45;&gt;A7 -->
<g id="edge26" class="edge">
<title>A2&#45;&gt;A7</title>
<path fill="none" stroke="black" stroke-width="1.62" d="M513.98,-696.21C518.86,-690.72 523.48,-684.68 527,-678.43 533.48,-666.92 537.94,-653.22 540.98,-640.75"/>
<polygon fill="black" stroke="black" stroke-width="1.62" points="544.47,-641.16 543.2,-630.64 537.63,-639.66 544.47,-641.16"/>
<polygon fill="snow" stroke="transparent" points="538.5,-663.43 538.5,-678.43 621.5,-678.43 621.5,-663.43 538.5,-663.43"/>
<text text-anchor="start" x="563" y="-667.23" font-family="arial" font-size="14.00" fill="#8ec1de">1,746</text>
<polygon fill="snow" stroke="transparent" points="538.5,-648.43 538.5,-663.43 621.5,-663.43 621.5,-648.43 538.5,-648.43"/>
<text text-anchor="start" x="538.5" y="-652.23" font-family="arial" font-size="14.00" fill="#fdae6c">09h 51m 40s </text>
</g>
<!-- A3&#45;&gt;A1 -->
<g id="edge18" class="edge">
<title>A3&#45;&gt;A1</title>
<path fill="none" stroke="black" stroke-width="2.87" d="M876.84,-375.28C962.05,-393.19 1113,-432.04 1113,-482.43 1113,-664.43 1113,-664.43 1113,-664.43 1113,-704.11 1116.5,-721.82 1089,-750.43 1050.32,-790.66 905.02,-817.05 805.2,-830.85"/>
<polygon fill="black" stroke="black" stroke-width="2.87" points="804.52,-827.41 795.09,-832.23 805.47,-834.35 804.52,-827.41"/>
<polygon fill="snow" stroke="transparent" points="1113.5,-603.43 1113.5,-618.43 1196.5,-618.43 1196.5,-603.43 1113.5,-603.43"/>
<text text-anchor="start" x="1138" y="-607.23" font-family="arial" font-size="14.00" fill="#63a8d2">5,228</text>
<polygon fill="snow" stroke="transparent" points="1113.5,-588.43 1113.5,-603.43 1196.5,-603.43 1196.5,-588.43 1113.5,-588.43"/>
<text text-anchor="start" x="1113.5" y="-592.23" font-family="arial" font-size="14.00" fill="#fdab67">13h 09m 45s </text>
</g>
<!-- A3&#45;&gt;A2 -->
<g id="edge20" class="edge">
<title>A3&#45;&gt;A2</title>
<path fill="none" stroke="black" stroke-width="2.27" d="M829.79,-390.63C831.54,-396.42 833.09,-402.56 834,-408.43 836.05,-421.6 834.52,-425.1 834,-438.43 830.66,-523.95 867.51,-559.91 819,-630.43 790.24,-672.24 654.27,-698.9 564.93,-712.22"/>
<polygon fill="black" stroke="black" stroke-width="2.27" points="564.2,-708.79 554.81,-713.7 565.22,-715.72 564.2,-708.79"/>
<polygon fill="snow" stroke="transparent" points="844,-543.43 844,-558.43 928,-558.43 928,-543.43 844,-543.43"/>
<text text-anchor="start" x="869" y="-547.23" font-family="arial" font-size="14.00" fill="#78b5d8">3,562</text>
<polygon fill="snow" stroke="transparent" points="844,-528.43 844,-543.43 928,-543.43 928,-528.43 844,-528.43"/>
<text text-anchor="start" x="844" y="-532.23" font-family="arial" font-size="14.00" fill="#c44103">07d 07h 26m </text>
</g>
<!-- A3&#45;&gt;A4 -->
<g id="edge30" class="edge">
<title>A3&#45;&gt;A4</title>
<path fill="none" stroke="black" stroke-width="1.19" d="M763.38,-367.96C735.29,-372.92 703.66,-384.03 686,-408.43 678.18,-419.23 680.57,-426.25 686,-438.43 687.56,-441.92 689.55,-445.25 691.83,-448.41"/>
<polygon fill="black" stroke="black" stroke-width="1.19" points="689.35,-450.9 698.45,-456.33 694.72,-446.41 689.35,-450.9"/>
<polygon fill="snow" stroke="transparent" points="686,-423.43 686,-438.43 770,-438.43 770,-423.43 686,-423.43"/>
<text text-anchor="start" x="716.5" y="-427.23" font-family="arial" font-size="14.00" fill="#9ec9e2">543</text>
<polygon fill="snow" stroke="transparent" points="686,-408.43 686,-423.43 770,-423.43 770,-408.43 686,-408.43"/>
<text text-anchor="start" x="686" y="-412.23" font-family="arial" font-size="14.00" fill="#ec6513">04d 18h 15m </text>
</g>
<!-- A3&#45;&gt;A5 -->
<g id="edge6" class="edge">
<title>A3&#45;&gt;A5</title>
<path fill="none" stroke="black" stroke-width="1.11" d="M837.91,-336.15C845.49,-321.56 850.94,-303.4 843,-288.43 798.48,-204.46 755.24,-201.12 666,-168.43 607.64,-147.04 440.06,-134.45 337.81,-128.54"/>
<polygon fill="black" stroke="black" stroke-width="1.11" points="338,-125.05 327.81,-127.98 337.6,-132.04 338,-125.05"/>
<polygon fill="snow" stroke="transparent" points="832.5,-243.43 832.5,-258.43 915.5,-258.43 915.5,-243.43 832.5,-243.43"/>
<text text-anchor="start" x="862.5" y="-247.23" font-family="arial" font-size="14.00" fill="#a0cae3">336</text>
<polygon fill="snow" stroke="transparent" points="832.5,-228.43 832.5,-243.43 915.5,-243.43 915.5,-228.43 832.5,-228.43"/>
<text text-anchor="start" x="832.5" y="-232.23" font-family="arial" font-size="14.00" fill="#fdab67">13h 45m 28s </text>
</g>
<!-- A3&#45;&gt;A6 -->
<g id="edge22" class="edge">
<title>A3&#45;&gt;A6</title>
<path fill="none" stroke="black" stroke-width="2.08" d="M780.25,-336.34C772.87,-330.79 765.46,-324.7 759,-318.43 746.95,-306.72 750.62,-296.71 736,-288.43 686.93,-260.62 536.47,-250.36 439.39,-246.59"/>
<polygon fill="black" stroke="black" stroke-width="2.08" points="439.41,-243.09 429.29,-246.21 439.15,-250.08 439.41,-243.09"/>
<polygon fill="snow" stroke="transparent" points="759,-303.43 759,-318.43 843,-318.43 843,-303.43 759,-303.43"/>
<text text-anchor="start" x="784" y="-307.23" font-family="arial" font-size="14.00" fill="#7fb9da">3,028</text>
<polygon fill="snow" stroke="transparent" points="759,-288.43 759,-303.43 843,-303.43 843,-288.43 759,-288.43"/>
<text text-anchor="start" x="759" y="-292.23" font-family="arial" font-size="14.00" fill="#f2701d">04d 01h 40m </text>
</g>
<!-- A4&#45;&gt;A2 -->
<g id="edge23" class="edge">
<title>A4&#45;&gt;A2</title>
<path fill="none" stroke="black" stroke-width="2.04" d="M758.93,-510.8C762.66,-516.27 765.95,-522.27 768,-528.43 782.7,-572.51 775.37,-595.25 745,-630.43 699.89,-682.67 623.13,-705.25 564.68,-715.01"/>
<polygon fill="black" stroke="black" stroke-width="2.04" points="564.06,-711.56 554.73,-716.57 565.15,-718.47 564.06,-711.56"/>
<polygon fill="snow" stroke="transparent" points="774.5,-603.43 774.5,-618.43 815.5,-618.43 815.5,-603.43 774.5,-603.43"/>
<text text-anchor="start" x="778" y="-607.23" font-family="arial" font-size="14.00" fill="#7fb9da">2,931</text>
<polygon fill="snow" stroke="transparent" points="774.5,-588.43 774.5,-603.43 815.5,-603.43 815.5,-588.43 774.5,-588.43"/>
<text text-anchor="start" x="774.5" y="-592.23" font-family="arial" font-size="14.00" fill="#fdb475">Instant</text>
</g>
<!-- A4&#45;&gt;A3 -->
<g id="edge33" class="edge">
<title>A4&#45;&gt;A3</title>
<path fill="none" stroke="black" stroke-width="1.08" d="M756.44,-456.16C761,-450.38 765.73,-444.25 770,-438.43 779.32,-425.73 789.11,-411.46 797.54,-398.87"/>
<polygon fill="black" stroke="black" stroke-width="1.08" points="800.51,-400.72 803.13,-390.45 794.68,-396.84 800.51,-400.72"/>
<polygon fill="snow" stroke="transparent" points="789.5,-423.43 789.5,-438.43 830.5,-438.43 830.5,-423.43 789.5,-423.43"/>
<text text-anchor="start" x="798.5" y="-427.23" font-family="arial" font-size="14.00" fill="#a1cbe3">251</text>
<polygon fill="snow" stroke="transparent" points="789.5,-408.43 789.5,-423.43 830.5,-423.43 830.5,-408.43 789.5,-408.43"/>
<text text-anchor="start" x="789.5" y="-412.23" font-family="arial" font-size="14.00" fill="#fdb475">Instant</text>
</g>
<!-- A4&#45;&gt;A5 -->
<g id="edge9" class="edge">
<title>A4&#45;&gt;A5</title>
<path fill="none" stroke="black" stroke-width="1.9" d="M693.5,-456.34C687.05,-450.99 680.91,-444.97 676,-438.43 646.98,-399.72 667.41,-374.84 638,-336.43 559.96,-234.48 518.34,-224.83 403,-168.43 382.44,-158.37 359.14,-150.13 337.2,-143.61"/>
<polygon fill="black" stroke="black" stroke-width="1.9" points="338.15,-140.24 327.57,-140.83 336.21,-146.97 338.15,-140.24"/>
<polygon fill="snow" stroke="transparent" points="622.5,-303.43 622.5,-318.43 705.5,-318.43 705.5,-303.43 622.5,-303.43"/>
<text text-anchor="start" x="647" y="-307.23" font-family="arial" font-size="14.00" fill="#85bcdc">2,530</text>
<polygon fill="snow" stroke="transparent" points="622.5,-288.43 622.5,-303.43 705.5,-303.43 705.5,-288.43 622.5,-288.43"/>
<text text-anchor="start" x="622.5" y="-292.23" font-family="arial" font-size="14.00" fill="#fdac69">11h 36m 38s </text>
</g>
<!-- A4&#45;&gt;A7 -->
<g id="edge34" class="edge">
<title>A4&#45;&gt;A7</title>
<path fill="none" stroke="black" stroke-width="1.08" d="M666.91,-502.62C656.57,-505.3 646.01,-507.97 636,-510.43 601.02,-519 581.3,-501.85 557,-528.43 547.82,-538.47 544.49,-552.71 543.75,-566.03"/>
<polygon fill="black" stroke="black" stroke-width="1.08" points="540.25,-566.37 543.65,-576.41 547.24,-566.44 540.25,-566.37"/>
<polygon fill="snow" stroke="transparent" points="557.5,-543.43 557.5,-558.43 640.5,-558.43 640.5,-543.43 557.5,-543.43"/>
<text text-anchor="start" x="587.5" y="-547.23" font-family="arial" font-size="14.00" fill="#a1cbe3">244</text>
<polygon fill="snow" stroke="transparent" points="557.5,-528.43 557.5,-543.43 640.5,-543.43 640.5,-528.43 557.5,-528.43"/>
<text text-anchor="start" x="557.5" y="-532.23" font-family="arial" font-size="14.00" fill="#fdad6a">10h 16m 41s </text>
</g>
<!-- A5&#45;&gt;complete -->
<g id="edge2" class="edge">
<title>A5&#45;&gt;complete</title>
<path fill="none" stroke="#bfbfbf" stroke-width="8" stroke-dasharray="5,2" d="M255,-96.36C255,-79.54 255,-57.99 255,-42.46"/>
<polygon fill="white" stroke="transparent" points="255,-60.43 255,-78.43 301,-78.43 301,-60.43 255,-60.43"/>
<text text-anchor="start" x="255" y="-65.63" font-family="arial" font-size="16.00" fill="#08306b">19523</text>
</g>
<!-- A6&#45;&gt;A2 -->
<g id="edge24" class="edge">
<title>A6&#45;&gt;A2</title>
<path fill="none" stroke="black" stroke-width="1.68" d="M340.58,-270.67C326.61,-300 303.13,-348.84 282,-390.43 266.96,-420.03 255.01,-424.21 247,-456.43 241.21,-479.72 241.43,-487.08 247,-510.43 266.42,-591.82 267.53,-625.08 332,-678.43 352.77,-695.61 379.93,-706.09 405.58,-712.48"/>
<polygon fill="black" stroke="black" stroke-width="1.68" points="404.8,-715.89 415.33,-714.73 406.37,-709.07 404.8,-715.89"/>
<polygon fill="snow" stroke="transparent" points="247,-483.43 247,-498.43 331,-498.43 331,-483.43 247,-483.43"/>
<text text-anchor="start" x="272" y="-487.23" font-family="arial" font-size="14.00" fill="#8dc0de">1,931</text>
<polygon fill="snow" stroke="transparent" points="247,-468.43 247,-483.43 331,-483.43 331,-468.43 247,-468.43"/>
<text text-anchor="start" x="247" y="-472.23" font-family="arial" font-size="14.00" fill="#ea6110">04d 22h 35m </text>
</g>
<!-- A6&#45;&gt;A4 -->
<g id="edge32" class="edge">
<title>A6&#45;&gt;A4</title>
<path fill="none" stroke="black" stroke-width="1.09" d="M394.35,-270.43C403.23,-276.22 412.5,-282.43 421,-288.43 481.88,-331.36 491.96,-349.19 554,-390.43 589.81,-414.23 599.71,-418.86 638,-438.43 647.05,-443.05 656.68,-447.72 666.23,-452.19"/>
<polygon fill="black" stroke="black" stroke-width="1.09" points="664.79,-455.38 675.33,-456.42 667.74,-449.03 664.79,-455.38"/>
<polygon fill="snow" stroke="transparent" points="554,-363.43 554,-378.43 638,-378.43 638,-363.43 554,-363.43"/>
<text text-anchor="start" x="584.5" y="-367.23" font-family="arial" font-size="14.00" fill="#a1cbe3">288</text>
<polygon fill="snow" stroke="transparent" points="554,-348.43 554,-363.43 638,-363.43 638,-348.43 554,-348.43"/>
<text text-anchor="start" x="554" y="-352.23" font-family="arial" font-size="14.00" fill="#cd4603">06d 20h 56m </text>
</g>
<!-- A6&#45;&gt;A5 -->
<g id="edge3" class="edge">
<title>A6&#45;&gt;A5</title>
<path fill="none" stroke="black" d="M331.25,-216.24C317.17,-199.28 298.68,-177.02 283.44,-158.67"/>
<polygon fill="black" stroke="black" points="285.77,-156 276.69,-150.54 280.39,-160.47 285.77,-156"/>
<polygon fill="snow" stroke="transparent" points="316.5,-183.43 316.5,-198.43 399.5,-198.43 399.5,-183.43 316.5,-183.43"/>
<text text-anchor="start" x="350" y="-187.23" font-family="arial" font-size="14.00" fill="#a4cce4">25</text>
<polygon fill="snow" stroke="transparent" points="316.5,-168.43 316.5,-183.43 399.5,-183.43 399.5,-168.43 316.5,-168.43"/>
<text text-anchor="start" x="316.5" y="-172.23" font-family="arial" font-size="14.00" fill="#fdaf6d">07h 20m 46s </text>
</g>
<!-- A6&#45;&gt;A7 -->
<g id="edge17" class="edge">
<title>A6&#45;&gt;A7</title>
<path fill="none" stroke="black" stroke-width="3" d="M367.32,-270.85C401.75,-334.38 489.18,-495.74 527.97,-567.31"/>
<polygon fill="black" stroke="black" stroke-width="3" points="525.05,-569.27 532.89,-576.39 531.2,-565.93 525.05,-569.27"/>
<polygon fill="snow" stroke="transparent" points="456,-423.43 456,-438.43 540,-438.43 540,-423.43 456,-423.43"/>
<text text-anchor="start" x="481" y="-427.23" font-family="arial" font-size="14.00" fill="#5fa6d1">5,583</text>
<polygon fill="snow" stroke="transparent" points="456,-408.43 456,-423.43 540,-423.43 540,-408.43 456,-408.43"/>
<text text-anchor="start" x="456" y="-412.23" font-family="arial" font-size="14.00" fill="#fc9346">02d 00h 00m </text>
</g>
<!-- A7&#45;&gt;A1 -->
<g id="edge35" class="edge">
<title>A7&#45;&gt;A1</title>
<path fill="none" stroke="black" stroke-width="1.07" d="M602.14,-630.46C610.34,-635.72 618.29,-641.73 625,-648.43 668.39,-691.73 671.91,-710.87 693,-768.43 697.39,-780.42 700.47,-794.03 702.6,-806.28"/>
<polygon fill="black" stroke="black" stroke-width="1.07" points="699.15,-806.85 704.17,-816.18 706.06,-805.76 699.15,-806.85"/>
<polygon fill="snow" stroke="transparent" points="685,-723.43 685,-738.43 769,-738.43 769,-723.43 685,-723.43"/>
<text text-anchor="start" x="715.5" y="-727.23" font-family="arial" font-size="14.00" fill="#a1cbe3">229</text>
<polygon fill="snow" stroke="transparent" points="685,-708.43 685,-723.43 769,-723.43 769,-708.43 685,-708.43"/>
<text text-anchor="start" x="685" y="-712.23" font-family="arial" font-size="14.00" fill="#f16d1a">04d 05h 52m </text>
</g>
<!-- A7&#45;&gt;A2 -->
<g id="edge19" class="edge">
<title>A7&#45;&gt;A2</title>
<path fill="none" stroke="black" stroke-width="2.53" d="M482.38,-618.39C466.94,-624.91 452.26,-634.45 443,-648.43 434.63,-661.05 439.71,-675.44 448.8,-688.14"/>
<polygon fill="black" stroke="black" stroke-width="2.53" points="446.27,-690.59 455.25,-696.22 451.74,-686.22 446.27,-690.59"/>
<polygon fill="snow" stroke="transparent" points="443,-663.43 443,-678.43 527,-678.43 527,-663.43 443,-663.43"/>
<text text-anchor="start" x="468" y="-667.23" font-family="arial" font-size="14.00" fill="#6fafd6">4,289</text>
<polygon fill="snow" stroke="transparent" points="443,-648.43 443,-663.43 527,-663.43 527,-648.43 443,-648.43"/>
<text text-anchor="start" x="443" y="-652.23" font-family="arial" font-size="14.00" fill="#f57623">03d 18h 05m </text>
</g>
<!-- A7&#45;&gt;A3 -->
<g id="edge36" class="edge">
<title>A7&#45;&gt;A3</title>
<path fill="none" stroke="black" stroke-width="1.05" d="M542.8,-575.96C542.05,-570.2 541.39,-564.12 541,-558.43 537.77,-510.89 540.48,-490.29 574,-456.43 622.17,-407.77 698.46,-384.54 753.32,-373.65"/>
<polygon fill="black" stroke="black" stroke-width="1.05" points="754.13,-377.06 763.3,-371.76 752.82,-370.18 754.13,-377.06"/>
<polygon fill="snow" stroke="transparent" points="574,-483.43 574,-498.43 658,-498.43 658,-483.43 574,-483.43"/>
<text text-anchor="start" x="604.5" y="-487.23" font-family="arial" font-size="14.00" fill="#a3cbe3">171</text>
<polygon fill="snow" stroke="transparent" points="574,-468.43 574,-483.43 658,-483.43 658,-468.43 574,-468.43"/>
<text text-anchor="start" x="574" y="-472.23" font-family="arial" font-size="14.00" fill="#df5308">05d 21h 11m </text>
</g>
<!-- A7&#45;&gt;A4 -->
<g id="edge31" class="edge">
<title>A7&#45;&gt;A4</title>
<path fill="none" stroke="black" stroke-width="1.14" d="M611.68,-578.49C623.03,-572.82 634.3,-566.13 644,-558.43 657.16,-547.98 654.66,-539.82 667,-528.43 671.54,-524.23 676.53,-520.18 681.68,-516.35"/>
<polygon fill="black" stroke="black" stroke-width="1.14" points="683.75,-519.17 689.85,-510.51 679.68,-513.47 683.75,-519.17"/>
<polygon fill="snow" stroke="transparent" points="667,-543.43 667,-558.43 751,-558.43 751,-543.43 667,-543.43"/>
<text text-anchor="start" x="697.5" y="-547.23" font-family="arial" font-size="14.00" fill="#a0cae3">415</text>
<polygon fill="snow" stroke="transparent" points="667,-528.43 667,-543.43 751,-543.43 751,-528.43 667,-528.43"/>
<text text-anchor="start" x="667" y="-532.23" font-family="arial" font-size="14.00" fill="#ea6110">04d 22h 08m </text>
</g>
<!-- A7&#45;&gt;A5 -->
<g id="edge10" class="edge">
<title>A7&#45;&gt;A5</title>
<path fill="none" stroke="black" stroke-width="2.05" d="M482.21,-578.72C466.29,-572.48 449.4,-565.5 434,-558.43 392.81,-539.5 378.18,-540.21 344,-510.43 319.17,-488.79 267.28,-421.72 257,-390.43 231.18,-311.82 240.52,-212.96 248.45,-160.69"/>
<polygon fill="black" stroke="black" stroke-width="2.05" points="251.95,-161 250.06,-150.57 245.03,-159.9 251.95,-161"/>
<polygon fill="snow" stroke="transparent" points="257.5,-363.43 257.5,-378.43 340.5,-378.43 340.5,-363.43 257.5,-363.43"/>
<text text-anchor="start" x="282" y="-367.23" font-family="arial" font-size="14.00" fill="#7fb9da">2,947</text>
<polygon fill="snow" stroke="transparent" points="257.5,-348.43 257.5,-363.43 340.5,-363.43 340.5,-348.43 257.5,-348.43"/>
<text text-anchor="start" x="257.5" y="-352.23" font-family="arial" font-size="14.00" fill="#fdb272">02h 55m 24s </text>
</g>
</g>
</svg>
