<svg class="rich-terminal" viewBox="0 0 1202 782.0" xmlns="http://www.w3.org/2000/svg">
    <!-- Generated with Rich https://www.textualize.io -->
    <style>

    @font-face {
        font-family: "Fira Code";
        src: local("FiraCode-Regular"),
                url("https://cdnjs.cloudflare.com/ajax/libs/firacode/6.2.0/woff2/FiraCode-Regular.woff2") format("woff2"),
                url("https://cdnjs.cloudflare.com/ajax/libs/firacode/6.2.0/woff/FiraCode-Regular.woff") format("woff");
        font-style: normal;
        font-weight: 400;
    }
    @font-face {
        font-family: "Fira Code";
        src: local("FiraCode-Bold"),
                url("https://cdnjs.cloudflare.com/ajax/libs/firacode/6.2.0/woff2/FiraCode-Bold.woff2") format("woff2"),
                url("https://cdnjs.cloudflare.com/ajax/libs/firacode/6.2.0/woff/FiraCode-Bold.woff") format("woff");
        font-style: bold;
        font-weight: 700;
    }

    .terminal-435956220-matrix {
        font-family: Fira Code, monospace;
        font-size: 20px;
        line-height: 24.4px;
        font-variant-east-asian: full-width;
    }

    .terminal-435956220-title {
        font-size: 18px;
        font-weight: bold;
        font-family: arial;
    }

    .terminal-435956220-r1 { fill: #c5c8c6 }
.terminal-435956220-r2 { fill: #e0e0e0 }
.terminal-435956220-r3 { fill: #ddedf9;font-weight: bold }
.terminal-435956220-r4 { fill: #454545 }
.terminal-435956220-r5 { fill: #797979 }
.terminal-435956220-r6 { fill: #4f4f4f }
.terminal-435956220-r7 { fill: #0178d4 }
.terminal-435956220-r8 { fill: #121212 }
.terminal-435956220-r9 { fill: #191919 }
.terminal-435956220-r10 { fill: #737373 }
.terminal-435956220-r11 { fill: #7f7f7f }
.terminal-435956220-r12 { fill: #1e1e1e }
.terminal-435956220-r13 { fill: #6a6a6a;font-weight: bold }
.terminal-435956220-r14 { fill: #0f0f0f }
.terminal-435956220-r15 { fill: #2d2d2d }
.terminal-435956220-r16 { fill: #6db2ff }
.terminal-435956220-r17 { fill: #7a3a47 }
.terminal-435956220-r18 { fill: #e0e0e0;font-weight: bold }
.terminal-435956220-r19 { fill: #8f7178;font-weight: bold }
.terminal-435956220-r20 { fill: #0d0d0d }
.terminal-435956220-r21 { fill: #004295 }
.terminal-435956220-r22 { fill: #43081c }
.terminal-435956220-r23 { fill: #495259 }
.terminal-435956220-r24 { fill: #ffa62b;font-weight: bold }
    </style>

    <defs>
    <clipPath id="terminal-435956220-clip-terminal">
      <rect x="0" y="0" width="1182.3999999999999" height="731.0" />
    </clipPath>
    <clipPath id="terminal-435956220-line-0">
    <rect x="0" y="1.5" width="1183.4" height="24.65"/>
            </clipPath>
<clipPath id="terminal-435956220-line-1">
    <rect x="0" y="25.9" width="1183.4" height="24.65"/>
            </clipPath>
<clipPath id="terminal-435956220-line-2">
    <rect x="0" y="50.3" width="1183.4" height="24.65"/>
            </clipPath>
<clipPath id="terminal-435956220-line-3">
    <rect x="0" y="74.7" width="1183.4" height="24.65"/>
            </clipPath>
<clipPath id="terminal-435956220-line-4">
    <rect x="0" y="99.1" width="1183.4" height="24.65"/>
            </clipPath>
<clipPath id="terminal-435956220-line-5">
    <rect x="0" y="123.5" width="1183.4" height="24.65"/>
            </clipPath>
<clipPath id="terminal-435956220-line-6">
    <rect x="0" y="147.9" width="1183.4" height="24.65"/>
            </clipPath>
<clipPath id="terminal-435956220-line-7">
    <rect x="0" y="172.3" width="1183.4" height="24.65"/>
            </clipPath>
<clipPath id="terminal-435956220-line-8">
    <rect x="0" y="196.7" width="1183.4" height="24.65"/>
            </clipPath>
<clipPath id="terminal-435956220-line-9">
    <rect x="0" y="221.1" width="1183.4" height="24.65"/>
            </clipPath>
<clipPath id="terminal-435956220-line-10">
    <rect x="0" y="245.5" width="1183.4" height="24.65"/>
            </clipPath>
<clipPath id="terminal-435956220-line-11">
    <rect x="0" y="269.9" width="1183.4" height="24.65"/>
            </clipPath>
<clipPath id="terminal-435956220-line-12">
    <rect x="0" y="294.3" width="1183.4" height="24.65"/>
            </clipPath>
<clipPath id="terminal-435956220-line-13">
    <rect x="0" y="318.7" width="1183.4" height="24.65"/>
            </clipPath>
<clipPath id="terminal-435956220-line-14">
    <rect x="0" y="343.1" width="1183.4" height="24.65"/>
            </clipPath>
<clipPath id="terminal-435956220-line-15">
    <rect x="0" y="367.5" width="1183.4" height="24.65"/>
            </clipPath>
<clipPath id="terminal-435956220-line-16">
    <rect x="0" y="391.9" width="1183.4" height="24.65"/>
            </clipPath>
<clipPath id="terminal-435956220-line-17">
    <rect x="0" y="416.3" width="1183.4" height="24.65"/>
            </clipPath>
<clipPath id="terminal-435956220-line-18">
    <rect x="0" y="440.7" width="1183.4" height="24.65"/>
            </clipPath>
<clipPath id="terminal-435956220-line-19">
    <rect x="0" y="465.1" width="1183.4" height="24.65"/>
            </clipPath>
<clipPath id="terminal-435956220-line-20">
    <rect x="0" y="489.5" width="1183.4" height="24.65"/>
            </clipPath>
<clipPath id="terminal-435956220-line-21">
    <rect x="0" y="513.9" width="1183.4" height="24.65"/>
            </clipPath>
<clipPath id="terminal-435956220-line-22">
    <rect x="0" y="538.3" width="1183.4" height="24.65"/>
            </clipPath>
<clipPath id="terminal-435956220-line-23">
    <rect x="0" y="562.7" width="1183.4" height="24.65"/>
            </clipPath>
<clipPath id="terminal-435956220-line-24">
    <rect x="0" y="587.1" width="1183.4" height="24.65"/>
            </clipPath>
<clipPath id="terminal-435956220-line-25">
    <rect x="0" y="611.5" width="1183.4" height="24.65"/>
            </clipPath>
<clipPath id="terminal-435956220-line-26">
    <rect x="0" y="635.9" width="1183.4" height="24.65"/>
            </clipPath>
<clipPath id="terminal-435956220-line-27">
    <rect x="0" y="660.3" width="1183.4" height="24.65"/>
            </clipPath>
<clipPath id="terminal-435956220-line-28">
    <rect x="0" y="684.7" width="1183.4" height="24.65"/>
            </clipPath>
    </defs>

    <rect fill="#292929" stroke="rgba(255,255,255,0.35)" stroke-width="1" x="1" y="1" width="1200" height="780" rx="8"/><text class="terminal-435956220-title" fill="#c5c8c6" text-anchor="middle" x="600" y="27">I-man&#160;Interactive&#160;Terminal</text>
            <g transform="translate(26,22)">
            <circle cx="0" cy="0" r="7" fill="#ff5f57"/>
            <circle cx="22" cy="0" r="7" fill="#febc2e"/>
            <circle cx="44" cy="0" r="7" fill="#28c840"/>
            </g>
        
    <g transform="translate(9, 41)" clip-path="url(#terminal-435956220-clip-terminal)">
    <rect fill="#242f38" x="0" y="1.5" width="12.2" height="24.65" shape-rendering="crispEdges"/><rect fill="#242f38" x="12.2" y="1.5" width="12.2" height="24.65" shape-rendering="crispEdges"/><rect fill="#242f38" x="24.4" y="1.5" width="61" height="24.65" shape-rendering="crispEdges"/><rect fill="#242f38" x="85.4" y="1.5" width="12.2" height="24.65" shape-rendering="crispEdges"/><rect fill="#242f38" x="97.6" y="1.5" width="317.2" height="24.65" shape-rendering="crispEdges"/><rect fill="#242f38" x="414.8" y="1.5" width="317.2" height="24.65" shape-rendering="crispEdges"/><rect fill="#242f38" x="732" y="1.5" width="329.4" height="24.65" shape-rendering="crispEdges"/><rect fill="#242f38" x="1061.4" y="1.5" width="12.2" height="24.65" shape-rendering="crispEdges"/><rect fill="#242f38" x="1073.6" y="1.5" width="0" height="24.65" shape-rendering="crispEdges"/><rect fill="#242f38" x="1073.6" y="1.5" width="97.6" height="24.65" shape-rendering="crispEdges"/><rect fill="#242f38" x="1171.2" y="1.5" width="12.2" height="24.65" shape-rendering="crispEdges"/><rect fill="#0178d4" x="0" y="25.9" width="12.2" height="24.65" shape-rendering="crispEdges"/><rect fill="#0178d4" x="12.2" y="25.9" width="122" height="24.65" shape-rendering="crispEdges"/><rect fill="#0178d4" x="134.2" y="25.9" width="12.2" height="24.65" shape-rendering="crispEdges"/><rect fill="#121212" x="146.4" y="25.9" width="12.2" height="24.65" shape-rendering="crispEdges"/><rect fill="#121212" x="158.6" y="25.9" width="97.6" height="24.65" shape-rendering="crispEdges"/><rect fill="#121212" x="256.2" y="25.9" width="12.2" height="24.65" shape-rendering="crispEdges"/><rect fill="#121212" x="268.4" y="25.9" width="12.2" height="24.65" shape-rendering="crispEdges"/><rect fill="#121212" x="280.6" y="25.9" width="48.8" height="24.65" shape-rendering="crispEdges"/><rect fill="#121212" x="329.4" y="25.9" width="12.2" height="24.65" shape-rendering="crispEdges"/><rect fill="#121212" x="341.6" y="25.9" width="841.8" height="24.65" shape-rendering="crispEdges"/><rect fill="#121212" x="0" y="50.3" width="12.2" height="24.65" shape-rendering="crispEdges"/><rect fill="#121212" x="12.2" y="50.3" width="122" height="24.65" shape-rendering="crispEdges"/><rect fill="#121212" x="134.2" y="50.3" width="12.2" height="24.65" shape-rendering="crispEdges"/><rect fill="#121212" x="146.4" y="50.3" width="1037" height="24.65" shape-rendering="crispEdges"/><rect fill="#121212" x="0" y="74.7" width="48.8" height="24.65" shape-rendering="crispEdges"/><rect fill="#121212" x="48.8" y="74.7" width="61" height="24.65" shape-rendering="crispEdges"/><rect fill="#191919" x="109.8" y="74.7" width="12.2" height="24.65" shape-rendering="crispEdges"/><rect fill="#1e1e1e" x="122" y="74.7" width="1049.2" height="24.65" shape-rendering="crispEdges"/><rect fill="#121212" x="1171.2" y="74.7" width="12.2" height="24.65" shape-rendering="crispEdges"/><rect fill="#121212" x="0" y="99.1" width="109.8" height="24.65" shape-rendering="crispEdges"/><rect fill="#191919" x="109.8" y="99.1" width="12.2" height="24.65" shape-rendering="crispEdges"/><rect fill="#1e1e1e" x="122" y="99.1" width="24.4" height="24.65" shape-rendering="crispEdges"/><rect fill="#1e1e1e" x="146.4" y="99.1" width="48.8" height="24.65" shape-rendering="crispEdges"/><rect fill="#1e1e1e" x="195.2" y="99.1" width="951.6" height="24.65" shape-rendering="crispEdges"/><rect fill="#1e1e1e" x="1146.8" y="99.1" width="24.4" height="24.65" shape-rendering="crispEdges"/><rect fill="#121212" x="1171.2" y="99.1" width="12.2" height="24.65" shape-rendering="crispEdges"/><rect fill="#121212" x="0" y="123.5" width="109.8" height="24.65" shape-rendering="crispEdges"/><rect fill="#191919" x="109.8" y="123.5" width="12.2" height="24.65" shape-rendering="crispEdges"/><rect fill="#1e1e1e" x="122" y="123.5" width="1049.2" height="24.65" shape-rendering="crispEdges"/><rect fill="#121212" x="1171.2" y="123.5" width="12.2" height="24.65" shape-rendering="crispEdges"/><rect fill="#121212" x="0" y="147.9" width="1183.4" height="24.65" shape-rendering="crispEdges"/><rect fill="#121212" x="0" y="172.3" width="97.6" height="24.65" shape-rendering="crispEdges"/><rect fill="#121212" x="97.6" y="172.3" width="12.2" height="24.65" shape-rendering="crispEdges"/><rect fill="#191919" x="109.8" y="172.3" width="12.2" height="24.65" shape-rendering="crispEdges"/><rect fill="#1e1e1e" x="122" y="172.3" width="1049.2" height="24.65" shape-rendering="crispEdges"/><rect fill="#121212" x="1171.2" y="172.3" width="12.2" height="24.65" shape-rendering="crispEdges"/><rect fill="#121212" x="0" y="196.7" width="109.8" height="24.65" shape-rendering="crispEdges"/><rect fill="#191919" x="109.8" y="196.7" width="12.2" height="24.65" shape-rendering="crispEdges"/><rect fill="#1e1e1e" x="122" y="196.7" width="24.4" height="24.65" shape-rendering="crispEdges"/><rect fill="#1e1e1e" x="146.4" y="196.7" width="73.2" height="24.65" shape-rendering="crispEdges"/><rect fill="#1e1e1e" x="219.6" y="196.7" width="902.8" height="24.65" shape-rendering="crispEdges"/><rect fill="#1e1e1e" x="1122.4" y="196.7" width="12.2" height="24.65" shape-rendering="crispEdges"/><rect fill="#1e1e1e" x="1134.6" y="196.7" width="12.2" height="24.65" shape-rendering="crispEdges"/><rect fill="#1e1e1e" x="1146.8" y="196.7" width="24.4" height="24.65" shape-rendering="crispEdges"/><rect fill="#121212" x="1171.2" y="196.7" width="12.2" height="24.65" shape-rendering="crispEdges"/><rect fill="#121212" x="0" y="221.1" width="109.8" height="24.65" shape-rendering="crispEdges"/><rect fill="#191919" x="109.8" y="221.1" width="12.2" height="24.65" shape-rendering="crispEdges"/><rect fill="#1e1e1e" x="122" y="221.1" width="1049.2" height="24.65" shape-rendering="crispEdges"/><rect fill="#121212" x="1171.2" y="221.1" width="12.2" height="24.65" shape-rendering="crispEdges"/><rect fill="#121212" x="0" y="245.5" width="1183.4" height="24.65" shape-rendering="crispEdges"/><rect fill="#121212" x="0" y="269.9" width="48.8" height="24.65" shape-rendering="crispEdges"/><rect fill="#121212" x="48.8" y="269.9" width="61" height="24.65" shape-rendering="crispEdges"/><rect fill="#191919" x="109.8" y="269.9" width="12.2" height="24.65" shape-rendering="crispEdges"/><rect fill="#1e1e1e" x="122" y="269.9" width="1049.2" height="24.65" shape-rendering="crispEdges"/><rect fill="#121212" x="1171.2" y="269.9" width="12.2" height="24.65" shape-rendering="crispEdges"/><rect fill="#121212" x="0" y="294.3" width="109.8" height="24.65" shape-rendering="crispEdges"/><rect fill="#191919" x="109.8" y="294.3" width="12.2" height="24.65" shape-rendering="crispEdges"/><rect fill="#1e1e1e" x="122" y="294.3" width="24.4" height="24.65" shape-rendering="crispEdges"/><rect fill="#1e1e1e" x="146.4" y="294.3" width="48.8" height="24.65" shape-rendering="crispEdges"/><rect fill="#1e1e1e" x="195.2" y="294.3" width="927.2" height="24.65" shape-rendering="crispEdges"/><rect fill="#1e1e1e" x="1122.4" y="294.3" width="12.2" height="24.65" shape-rendering="crispEdges"/><rect fill="#1e1e1e" x="1134.6" y="294.3" width="12.2" height="24.65" shape-rendering="crispEdges"/><rect fill="#1e1e1e" x="1146.8" y="294.3" width="24.4" height="24.65" shape-rendering="crispEdges"/><rect fill="#121212" x="1171.2" y="294.3" width="12.2" height="24.65" shape-rendering="crispEdges"/><rect fill="#121212" x="0" y="318.7" width="109.8" height="24.65" shape-rendering="crispEdges"/><rect fill="#191919" x="109.8" y="318.7" width="12.2" height="24.65" shape-rendering="crispEdges"/><rect fill="#1e1e1e" x="122" y="318.7" width="1049.2" height="24.65" shape-rendering="crispEdges"/><rect fill="#121212" x="1171.2" y="318.7" width="12.2" height="24.65" shape-rendering="crispEdges"/><rect fill="#121212" x="0" y="343.1" width="1183.4" height="24.65" shape-rendering="crispEdges"/><rect fill="#121212" x="0" y="367.5" width="85.4" height="24.65" shape-rendering="crispEdges"/><rect fill="#121212" x="85.4" y="367.5" width="24.4" height="24.65" shape-rendering="crispEdges"/><rect fill="#191919" x="109.8" y="367.5" width="12.2" height="24.65" shape-rendering="crispEdges"/><rect fill="#1e1e1e" x="122" y="367.5" width="841.8" height="24.65" shape-rendering="crispEdges"/><rect fill="#121212" x="963.8" y="367.5" width="12.2" height="24.65" shape-rendering="crispEdges"/><rect fill="#121212" x="976" y="367.5" width="12.2" height="24.65" shape-rendering="crispEdges"/><rect fill="#171717" x="988.2" y="367.5" width="195.2" height="24.65" shape-rendering="crispEdges"/><rect fill="#121212" x="0" y="391.9" width="109.8" height="24.65" shape-rendering="crispEdges"/><rect fill="#191919" x="109.8" y="391.9" width="12.2" height="24.65" shape-rendering="crispEdges"/><rect fill="#1e1e1e" x="122" y="391.9" width="24.4" height="24.65" shape-rendering="crispEdges"/><rect fill="#1e1e1e" x="146.4" y="391.9" width="24.4" height="24.65" shape-rendering="crispEdges"/><rect fill="#1e1e1e" x="170.8" y="391.9" width="768.6" height="24.65" shape-rendering="crispEdges"/><rect fill="#1e1e1e" x="939.4" y="391.9" width="24.4" height="24.65" shape-rendering="crispEdges"/><rect fill="#121212" x="963.8" y="391.9" width="12.2" height="24.65" shape-rendering="crispEdges"/><rect fill="#121212" x="976" y="391.9" width="12.2" height="24.65" shape-rendering="crispEdges"/><rect fill="#171717" x="988.2" y="391.9" width="48.8" height="24.65" shape-rendering="crispEdges"/><rect fill="#171717" x="1037" y="391.9" width="97.6" height="24.65" shape-rendering="crispEdges"/><rect fill="#171717" x="1134.6" y="391.9" width="48.8" height="24.65" shape-rendering="crispEdges"/><rect fill="#121212" x="0" y="416.3" width="109.8" height="24.65" shape-rendering="crispEdges"/><rect fill="#191919" x="109.8" y="416.3" width="12.2" height="24.65" shape-rendering="crispEdges"/><rect fill="#1e1e1e" x="122" y="416.3" width="841.8" height="24.65" shape-rendering="crispEdges"/><rect fill="#121212" x="963.8" y="416.3" width="12.2" height="24.65" shape-rendering="crispEdges"/><rect fill="#121212" x="976" y="416.3" width="12.2" height="24.65" shape-rendering="crispEdges"/><rect fill="#171717" x="988.2" y="416.3" width="195.2" height="24.65" shape-rendering="crispEdges"/><rect fill="#121212" x="0" y="440.7" width="1183.4" height="24.65" shape-rendering="crispEdges"/><rect fill="#121212" x="0" y="465.1" width="1183.4" height="24.65" shape-rendering="crispEdges"/><rect fill="#121212" x="0" y="489.5" width="1183.4" height="24.65" shape-rendering="crispEdges"/><rect fill="#121212" x="0" y="513.9" width="1183.4" height="24.65" shape-rendering="crispEdges"/><rect fill="#121212" x="0" y="538.3" width="1183.4" height="24.65" shape-rendering="crispEdges"/><rect fill="#121212" x="0" y="562.7" width="1183.4" height="24.65" shape-rendering="crispEdges"/><rect fill="#121212" x="0" y="587.1" width="1183.4" height="24.65" shape-rendering="crispEdges"/><rect fill="#121212" x="0" y="611.5" width="1183.4" height="24.65" shape-rendering="crispEdges"/><rect fill="#1e1e1e" x="0" y="635.9" width="207.4" height="24.65" shape-rendering="crispEdges"/><rect fill="#0178d4" x="207.4" y="635.9" width="195.2" height="24.65" shape-rendering="crispEdges"/><rect fill="#632635" x="402.6" y="635.9" width="195.2" height="24.65" shape-rendering="crispEdges"/><rect fill="#121212" x="597.8" y="635.9" width="585.6" height="24.65" shape-rendering="crispEdges"/><rect fill="#1e1e1e" x="0" y="660.3" width="207.4" height="24.65" shape-rendering="crispEdges"/><rect fill="#0178d4" x="207.4" y="660.3" width="36.6" height="24.65" shape-rendering="crispEdges"/><rect fill="#0178d4" x="244" y="660.3" width="109.8" height="24.65" shape-rendering="crispEdges"/><rect fill="#0178d4" x="353.8" y="660.3" width="48.8" height="24.65" shape-rendering="crispEdges"/><rect fill="#632635" x="402.6" y="660.3" width="24.4" height="24.65" shape-rendering="crispEdges"/><rect fill="#632635" x="427" y="660.3" width="146.4" height="24.65" shape-rendering="crispEdges"/><rect fill="#632635" x="573.4" y="660.3" width="24.4" height="24.65" shape-rendering="crispEdges"/><rect fill="#121212" x="597.8" y="660.3" width="585.6" height="24.65" shape-rendering="crispEdges"/><rect fill="#1e1e1e" x="0" y="684.7" width="207.4" height="24.65" shape-rendering="crispEdges"/><rect fill="#0178d4" x="207.4" y="684.7" width="195.2" height="24.65" shape-rendering="crispEdges"/><rect fill="#632635" x="402.6" y="684.7" width="195.2" height="24.65" shape-rendering="crispEdges"/><rect fill="#121212" x="597.8" y="684.7" width="585.6" height="24.65" shape-rendering="crispEdges"/><rect fill="#242f38" x="0" y="709.1" width="1037" height="24.65" shape-rendering="crispEdges"/><rect fill="#242f38" x="1037" y="709.1" width="12.2" height="24.65" shape-rendering="crispEdges"/><rect fill="#242f38" x="1049.2" y="709.1" width="24.4" height="24.65" shape-rendering="crispEdges"/><rect fill="#242f38" x="1073.6" y="709.1" width="97.6" height="24.65" shape-rendering="crispEdges"/><rect fill="#242f38" x="1171.2" y="709.1" width="12.2" height="24.65" shape-rendering="crispEdges"/>
    <g class="terminal-435956220-matrix">
    <text class="terminal-435956220-r2" x="12.2" y="20" textLength="12.2" clip-path="url(#terminal-435956220-line-0)">⭘</text><text class="terminal-435956220-r2" x="414.8" y="20" textLength="317.2" clip-path="url(#terminal-435956220-line-0)">I-man&#160;Interactive&#160;Terminal</text><text class="terminal-435956220-r1" x="1183.4" y="20" textLength="12.2" clip-path="url(#terminal-435956220-line-0)">
</text><text class="terminal-435956220-r3" x="12.2" y="44.4" textLength="122" clip-path="url(#terminal-435956220-line-1)">Connection</text><text class="terminal-435956220-r4" x="158.6" y="44.4" textLength="97.6" clip-path="url(#terminal-435956220-line-1)">Commands</text><text class="terminal-435956220-r5" x="280.6" y="44.4" textLength="48.8" clip-path="url(#terminal-435956220-line-1)">Logs</text><text class="terminal-435956220-r1" x="1183.4" y="44.4" textLength="12.2" clip-path="url(#terminal-435956220-line-1)">
</text><text class="terminal-435956220-r6" x="0" y="68.8" textLength="12.2" clip-path="url(#terminal-435956220-line-2)">╸</text><text class="terminal-435956220-r7" x="12.2" y="68.8" textLength="122" clip-path="url(#terminal-435956220-line-2)">━━━━━━━━━━</text><text class="terminal-435956220-r6" x="134.2" y="68.8" textLength="12.2" clip-path="url(#terminal-435956220-line-2)">╺</text><text class="terminal-435956220-r6" x="146.4" y="68.8" textLength="1037" clip-path="url(#terminal-435956220-line-2)">━━━━━━━━━━━━━━━━━━━━━━━━━━━━━━━━━━━━━━━━━━━━━━━━━━━━━━━━━━━━━━━━━━━━━━━━━━━━━━━━━━━━━</text><text class="terminal-435956220-r1" x="1183.4" y="68.8" textLength="12.2" clip-path="url(#terminal-435956220-line-2)">
</text><text class="terminal-435956220-r2" x="0" y="93.2" textLength="48.8" clip-path="url(#terminal-435956220-line-3)">Port</text><text class="terminal-435956220-r8" x="109.8" y="93.2" textLength="12.2" clip-path="url(#terminal-435956220-line-3)">▊</text><text class="terminal-435956220-r9" x="122" y="93.2" textLength="1049.2" clip-path="url(#terminal-435956220-line-3)">▔▔▔▔▔▔▔▔▔▔▔▔▔▔▔▔▔▔▔▔▔▔▔▔▔▔▔▔▔▔▔▔▔▔▔▔▔▔▔▔▔▔▔▔▔▔▔▔▔▔▔▔▔▔▔▔▔▔▔▔▔▔▔▔▔▔▔▔▔▔▔▔▔▔▔▔▔▔▔▔▔▔▔▔▔▔</text><text class="terminal-435956220-r9" x="1171.2" y="93.2" textLength="12.2" clip-path="url(#terminal-435956220-line-3)">▎</text><text class="terminal-435956220-r1" x="1183.4" y="93.2" textLength="12.2" clip-path="url(#terminal-435956220-line-3)">
</text><text class="terminal-435956220-r8" x="109.8" y="117.6" textLength="12.2" clip-path="url(#terminal-435956220-line-4)">▊</text><text class="terminal-435956220-r10" x="146.4" y="117.6" textLength="48.8" clip-path="url(#terminal-435956220-line-4)">COM1</text><text class="terminal-435956220-r9" x="1171.2" y="117.6" textLength="12.2" clip-path="url(#terminal-435956220-line-4)">▎</text><text class="terminal-435956220-r1" x="1183.4" y="117.6" textLength="12.2" clip-path="url(#terminal-435956220-line-4)">
</text><text class="terminal-435956220-r8" x="109.8" y="142" textLength="12.2" clip-path="url(#terminal-435956220-line-5)">▊</text><text class="terminal-435956220-r9" x="122" y="142" textLength="1049.2" clip-path="url(#terminal-435956220-line-5)">▁▁▁▁▁▁▁▁▁▁▁▁▁▁▁▁▁▁▁▁▁▁▁▁▁▁▁▁▁▁▁▁▁▁▁▁▁▁▁▁▁▁▁▁▁▁▁▁▁▁▁▁▁▁▁▁▁▁▁▁▁▁▁▁▁▁▁▁▁▁▁▁▁▁▁▁▁▁▁▁▁▁▁▁▁▁</text><text class="terminal-435956220-r9" x="1171.2" y="142" textLength="12.2" clip-path="url(#terminal-435956220-line-5)">▎</text><text class="terminal-435956220-r1" x="1183.4" y="142" textLength="12.2" clip-path="url(#terminal-435956220-line-5)">
</text><text class="terminal-435956220-r1" x="1183.4" y="166.4" textLength="12.2" clip-path="url(#terminal-435956220-line-6)">
</text><text class="terminal-435956220-r2" x="0" y="190.8" textLength="97.6" clip-path="url(#terminal-435956220-line-7)">Protocol</text><text class="terminal-435956220-r8" x="109.8" y="190.8" textLength="12.2" clip-path="url(#terminal-435956220-line-7)">▊</text><text class="terminal-435956220-r9" x="122" y="190.8" textLength="1049.2" clip-path="url(#terminal-435956220-line-7)">▔▔▔▔▔▔▔▔▔▔▔▔▔▔▔▔▔▔▔▔▔▔▔▔▔▔▔▔▔▔▔▔▔▔▔▔▔▔▔▔▔▔▔▔▔▔▔▔▔▔▔▔▔▔▔▔▔▔▔▔▔▔▔▔▔▔▔▔▔▔▔▔▔▔▔▔▔▔▔▔▔▔▔▔▔▔</text><text class="terminal-435956220-r9" x="1171.2" y="190.8" textLength="12.2" clip-path="url(#terminal-435956220-line-7)">▎</text><text class="terminal-435956220-r1" x="1183.4" y="190.8" textLength="12.2" clip-path="url(#terminal-435956220-line-7)">
</text><text class="terminal-435956220-r8" x="109.8" y="215.2" textLength="12.2" clip-path="url(#terminal-435956220-line-8)">▊</text><text class="terminal-435956220-r2" x="146.4" y="215.2" textLength="73.2" clip-path="url(#terminal-435956220-line-8)">GeoCOM</text><text class="terminal-435956220-r11" x="1134.6" y="215.2" textLength="12.2" clip-path="url(#terminal-435956220-line-8)">▼</text><text class="terminal-435956220-r9" x="1171.2" y="215.2" textLength="12.2" clip-path="url(#terminal-435956220-line-8)">▎</text><text class="terminal-435956220-r1" x="1183.4" y="215.2" textLength="12.2" clip-path="url(#terminal-435956220-line-8)">
</text><text class="terminal-435956220-r8" x="109.8" y="239.6" textLength="12.2" clip-path="url(#terminal-435956220-line-9)">▊</text><text class="terminal-435956220-r9" x="122" y="239.6" textLength="1049.2" clip-path="url(#terminal-435956220-line-9)">▁▁▁▁▁▁▁▁▁▁▁▁▁▁▁▁▁▁▁▁▁▁▁▁▁▁▁▁▁▁▁▁▁▁▁▁▁▁▁▁▁▁▁▁▁▁▁▁▁▁▁▁▁▁▁▁▁▁▁▁▁▁▁▁▁▁▁▁▁▁▁▁▁▁▁▁▁▁▁▁▁▁▁▁▁▁</text><text class="terminal-435956220-r9" x="1171.2" y="239.6" textLength="12.2" clip-path="url(#terminal-435956220-line-9)">▎</text><text class="terminal-435956220-r1" x="1183.4" y="239.6" textLength="12.2" clip-path="url(#terminal-435956220-line-9)">
</text><text class="terminal-435956220-r1" x="1183.4" y="264" textLength="12.2" clip-path="url(#terminal-435956220-line-10)">
</text><text class="terminal-435956220-r2" x="0" y="288.4" textLength="48.8" clip-path="url(#terminal-435956220-line-11)">Baud</text><text class="terminal-435956220-r8" x="109.8" y="288.4" textLength="12.2" clip-path="url(#terminal-435956220-line-11)">▊</text><text class="terminal-435956220-r9" x="122" y="288.4" textLength="1049.2" clip-path="url(#terminal-435956220-line-11)">▔▔▔▔▔▔▔▔▔▔▔▔▔▔▔▔▔▔▔▔▔▔▔▔▔▔▔▔▔▔▔▔▔▔▔▔▔▔▔▔▔▔▔▔▔▔▔▔▔▔▔▔▔▔▔▔▔▔▔▔▔▔▔▔▔▔▔▔▔▔▔▔▔▔▔▔▔▔▔▔▔▔▔▔▔▔</text><text class="terminal-435956220-r9" x="1171.2" y="288.4" textLength="12.2" clip-path="url(#terminal-435956220-line-11)">▎</text><text class="terminal-435956220-r1" x="1183.4" y="288.4" textLength="12.2" clip-path="url(#terminal-435956220-line-11)">
</text><text class="terminal-435956220-r8" x="109.8" y="312.8" textLength="12.2" clip-path="url(#terminal-435956220-line-12)">▊</text><text class="terminal-435956220-r2" x="146.4" y="312.8" textLength="48.8" clip-path="url(#terminal-435956220-line-12)">9600</text><text class="terminal-435956220-r11" x="1134.6" y="312.8" textLength="12.2" clip-path="url(#terminal-435956220-line-12)">▼</text><text class="terminal-435956220-r9" x="1171.2" y="312.8" textLength="12.2" clip-path="url(#terminal-435956220-line-12)">▎</text><text class="terminal-435956220-r1" x="1183.4" y="312.8" textLength="12.2" clip-path="url(#terminal-435956220-line-12)">
</text><text class="terminal-435956220-r8" x="109.8" y="337.2" textLength="12.2" clip-path="url(#terminal-435956220-line-13)">▊</text><text class="terminal-435956220-r9" x="122" y="337.2" textLength="1049.2" clip-path="url(#terminal-435956220-line-13)">▁▁▁▁▁▁▁▁▁▁▁▁▁▁▁▁▁▁▁▁▁▁▁▁▁▁▁▁▁▁▁▁▁▁▁▁▁▁▁▁▁▁▁▁▁▁▁▁▁▁▁▁▁▁▁▁▁▁▁▁▁▁▁▁▁▁▁▁▁▁▁▁▁▁▁▁▁▁▁▁▁▁▁▁▁▁</text><text class="terminal-435956220-r9" x="1171.2" y="337.2" textLength="12.2" clip-path="url(#terminal-435956220-line-13)">▎</text><text class="terminal-435956220-r1" x="1183.4" y="337.2" textLength="12.2" clip-path="url(#terminal-435956220-line-13)">
</text><text class="terminal-435956220-r1" x="1183.4" y="361.6" textLength="12.2" clip-path="url(#terminal-435956220-line-14)">
</text><text class="terminal-435956220-r2" x="0" y="386" textLength="85.4" clip-path="url(#terminal-435956220-line-15)">Timeout</text><text class="terminal-435956220-r8" x="109.8" y="386" textLength="12.2" clip-path="url(#terminal-435956220-line-15)">▊</text><text class="terminal-435956220-r9" x="122" y="386" textLength="841.8" clip-path="url(#terminal-435956220-line-15)">▔▔▔▔▔▔▔▔▔▔▔▔▔▔▔▔▔▔▔▔▔▔▔▔▔▔▔▔▔▔▔▔▔▔▔▔▔▔▔▔▔▔▔▔▔▔▔▔▔▔▔▔▔▔▔▔▔▔▔▔▔▔▔▔▔▔▔▔▔</text><text class="terminal-435956220-r9" x="963.8" y="386" textLength="12.2" clip-path="url(#terminal-435956220-line-15)">▎</text><text class="terminal-435956220-r12" x="988.2" y="386" textLength="195.2" clip-path="url(#terminal-435956220-line-15)">▔▔▔▔▔▔▔▔▔▔▔▔▔▔▔▔</text><text class="terminal-435956220-r1" x="1183.4" y="386" textLength="12.2" clip-path="url(#terminal-435956220-line-15)">
</text><text class="terminal-435956220-r8" x="109.8" y="410.4" textLength="12.2" clip-path="url(#terminal-435956220-line-16)">▊</text><text class="terminal-435956220-r2" x="146.4" y="410.4" textLength="24.4" clip-path="url(#terminal-435956220-line-16)">15</text><text class="terminal-435956220-r9" x="963.8" y="410.4" textLength="12.2" clip-path="url(#terminal-435956220-line-16)">▎</text><text class="terminal-435956220-r13" x="1037" y="410.4" textLength="97.6" clip-path="url(#terminal-435956220-line-16)">&#160;Update&#160;</text><text class="terminal-435956220-r1" x="1183.4" y="410.4" textLength="12.2" clip-path="url(#terminal-435956220-line-16)">
</text><text class="terminal-435956220-r8" x="109.8" y="434.8" textLength="12.2" clip-path="url(#terminal-435956220-line-17)">▊</text><text class="terminal-435956220-r9" x="122" y="434.8" textLength="841.8" clip-path="url(#terminal-435956220-line-17)">▁▁▁▁▁▁▁▁▁▁▁▁▁▁▁▁▁▁▁▁▁▁▁▁▁▁▁▁▁▁▁▁▁▁▁▁▁▁▁▁▁▁▁▁▁▁▁▁▁▁▁▁▁▁▁▁▁▁▁▁▁▁▁▁▁▁▁▁▁</text><text class="terminal-435956220-r9" x="963.8" y="434.8" textLength="12.2" clip-path="url(#terminal-435956220-line-17)">▎</text><text class="terminal-435956220-r14" x="988.2" y="434.8" textLength="195.2" clip-path="url(#terminal-435956220-line-17)">▁▁▁▁▁▁▁▁▁▁▁▁▁▁▁▁</text><text class="terminal-435956220-r1" x="1183.4" y="434.8" textLength="12.2" clip-path="url(#terminal-435956220-line-17)">
</text><text class="terminal-435956220-r1" x="1183.4" y="459.2" textLength="12.2" clip-path="url(#terminal-435956220-line-18)">
</text><text class="terminal-435956220-r1" x="1183.4" y="483.6" textLength="12.2" clip-path="url(#terminal-435956220-line-19)">
</text><text class="terminal-435956220-r1" x="1183.4" y="508" textLength="12.2" clip-path="url(#terminal-435956220-line-20)">
</text><text class="terminal-435956220-r1" x="1183.4" y="532.4" textLength="12.2" clip-path="url(#terminal-435956220-line-21)">
</text><text class="terminal-435956220-r1" x="1183.4" y="556.8" textLength="12.2" clip-path="url(#terminal-435956220-line-22)">
</text><text class="terminal-435956220-r1" x="1183.4" y="581.2" textLength="12.2" clip-path="url(#terminal-435956220-line-23)">
</text><text class="terminal-435956220-r1" x="1183.4" y="605.6" textLength="12.2" clip-path="url(#terminal-435956220-line-24)">
</text><text class="terminal-435956220-r1" x="1183.4" y="630" textLength="12.2" clip-path="url(#terminal-435956220-line-25)">
</text><text class="terminal-435956220-r15" x="0" y="654.4" textLength="207.4" clip-path="url(#terminal-435956220-line-26)">▔▔▔▔▔▔▔▔▔▔▔▔▔▔▔▔▔</text><text class="terminal-435956220-r16" x="207.4" y="654.4" textLength="195.2" clip-path="url(#terminal-435956220-line-26)">▔▔▔▔▔▔▔▔▔▔▔▔▔▔▔▔</text><text class="terminal-435956220-r17" x="402.6" y="654.4" textLength="195.2" clip-path="url(#terminal-435956220-line-26)">▔▔▔▔▔▔▔▔▔▔▔▔▔▔▔▔</text><text class="terminal-435956220-r1" x="1183.4" y="654.4" textLength="12.2" clip-path="url(#terminal-435956220-line-26)">
</text><text class="terminal-435956220-r18" x="0" y="678.8" textLength="207.4" clip-path="url(#terminal-435956220-line-27)">&#160;Test&#160;Connection&#160;</text><text class="terminal-435956220-r3" x="244" y="678.8" textLength="109.8" clip-path="url(#terminal-435956220-line-27)">&#160;Connect&#160;</text><text class="terminal-435956220-r19" x="427" y="678.8" textLength="146.4" clip-path="url(#terminal-435956220-line-27)">&#160;Disconnect&#160;</text><text class="terminal-435956220-r1" x="1183.4" y="678.8" textLength="12.2" clip-path="url(#terminal-435956220-line-27)">
</text><text class="terminal-435956220-r20" x="0" y="703.2" textLength="207.4" clip-path="url(#terminal-435956220-line-28)">▁▁▁▁▁▁▁▁▁▁▁▁▁▁▁▁▁</text><text class="terminal-435956220-r21" x="207.4" y="703.2" textLength="195.2" clip-path="url(#terminal-435956220-line-28)">▁▁▁▁▁▁▁▁▁▁▁▁▁▁▁▁</text><text class="terminal-435956220-r22" x="402.6" y="703.2" textLength="195.2" clip-path="url(#terminal-435956220-line-28)">▁▁▁▁▁▁▁▁▁▁▁▁▁▁▁▁</text><text class="terminal-435956220-r1" x="1183.4" y="703.2" textLength="12.2" clip-path="url(#terminal-435956220-line-28)">
</text><text class="terminal-435956220-r23" x="1037" y="727.6" textLength="12.2" clip-path="url(#terminal-435956220-line-29)">▏</text><text class="terminal-435956220-r24" x="1049.2" y="727.6" textLength="24.4" clip-path="url(#terminal-435956220-line-29)">^p</text><text class="terminal-435956220-r2" x="1073.6" y="727.6" textLength="97.6" clip-path="url(#terminal-435956220-line-29)">&#160;palette</text>
    </g>
    </g>
</svg>
