<?xml version="1.0" encoding="UTF-8" standalone="no"?>
<!DOCTYPE svg PUBLIC "-//W3C//DTD SVG 1.1//EN"
 "http://www.w3.org/Graphics/SVG/1.1/DTD/svg11.dtd">
<!-- Generated by graphviz version 2.43.0 (0)
 -->
<!-- Title: mpdfg Pages: 1 -->
<svg width="822pt" height="735pt"
 viewBox="0.00 0.00 822.00 734.85" xmlns="http://www.w3.org/2000/svg" xmlns:xlink="http://www.w3.org/1999/xlink">
<g id="graph0" class="graph" transform="scale(1 1) rotate(0) translate(4 730.85)">
<title>mpdfg</title>
<polygon fill="white" stroke="transparent" points="-4,4 -4,-730.85 818,-730.85 818,4 -4,4"/>
<!-- start -->
<g id="node1" class="node">
<title>start</title>
<ellipse fill="green" stroke="black" cx="479" cy="-705.64" rx="21.43" ry="21.43"/>
<text text-anchor="middle" x="479" y="-700.64" font-family="Times,serif" font-size="20.00">▲</text>
</g>
<!-- A0 -->
<g id="node3" class="node">
<title>A0</title>
<polygon fill="#08306b" stroke="transparent" points="434,-603.43 434,-626.43 524,-626.43 524,-603.43 434,-603.43"/>
<polygon fill="none" stroke="black" points="434,-603.43 434,-626.43 524,-626.43 524,-603.43 434,-603.43"/>
<text text-anchor="start" x="438" y="-611.23" font-family="arial" font-size="14.00" fill="white">New (36,404)</text>
<polygon fill="#fdb475" stroke="transparent" points="434,-580.43 434,-603.43 524,-603.43 524,-580.43 434,-580.43"/>
<polygon fill="none" stroke="black" points="434,-580.43 434,-603.43 524,-603.43 524,-580.43 434,-580.43"/>
<text text-anchor="start" x="458.5" y="-588.23" font-family="arial" font-size="14.00" fill="white">Instant</text>
</g>
<!-- start&#45;&gt;A0 -->
<g id="edge1" class="edge">
<title>start&#45;&gt;A0</title>
<path fill="none" stroke="#bfbfbf" stroke-width="4.15" stroke-dasharray="5,2" d="M479,-684.36C479,-668.92 479,-647.53 479,-630.77"/>
<polygon fill="white" stroke="transparent" points="479,-648.43 479,-666.43 525,-666.43 525,-648.43 479,-648.43"/>
<text text-anchor="start" x="479" y="-653.63" font-family="arial" font-size="16.00" fill="#3e8dc3">16395</text>
</g>
<!-- complete -->
<g id="node2" class="node">
<title>complete</title>
<ellipse fill="red" stroke="black" cx="303" cy="-21.21" rx="21.43" ry="21.43"/>
<text text-anchor="middle" x="303" y="-16.21" font-family="Times,serif" font-size="20.00">■</text>
</g>
<!-- A0&#45;&gt;A0 -->
<g id="edge11" class="edge">
<title>A0&#45;&gt;A0</title>
<path fill="none" stroke="black" stroke-width="4.85" d="M532.26,-613.1C542.63,-611.98 550,-608.75 550,-603.43 550,-600.01 546.98,-597.46 542.07,-595.78"/>
<polygon fill="black" stroke="black" stroke-width="4.85" points="542.91,-591.62 532.26,-593.75 541.19,-599.93 542.91,-591.62"/>
<polygon fill="snow" stroke="transparent" points="550,-603.43 550,-618.43 634,-618.43 634,-603.43 550,-603.43"/>
<text text-anchor="start" x="571" y="-607.23" font-family="arial" font-size="14.00" fill="#2c7cba">20,008</text>
<polygon fill="snow" stroke="transparent" points="550,-588.43 550,-603.43 634,-603.43 634,-588.43 550,-588.43"/>
<text text-anchor="start" x="550" y="-592.23" font-family="arial" font-size="14.00" fill="#fda964">01d 00h 39m </text>
</g>
<!-- A1 -->
<g id="node4" class="node">
<title>A1</title>
<polygon fill="#3b8ac2" stroke="transparent" points="213,-483.43 213,-506.43 332,-506.43 332,-483.43 213,-483.43"/>
<polygon fill="none" stroke="black" points="213,-483.43 213,-506.43 332,-506.43 332,-483.43 213,-483.43"/>
<text text-anchor="start" x="217" y="-491.23" font-family="arial" font-size="14.00" fill="white">Resolved (17,071)</text>
<polygon fill="#fdb475" stroke="transparent" points="213,-460.43 213,-483.43 332,-483.43 332,-460.43 213,-460.43"/>
<polygon fill="none" stroke="black" points="213,-460.43 213,-483.43 332,-483.43 332,-460.43 213,-460.43"/>
<text text-anchor="start" x="252" y="-468.23" font-family="arial" font-size="14.00" fill="white">Instant</text>
</g>
<!-- A0&#45;&gt;A1 -->
<g id="edge3" class="edge">
<title>A0&#45;&gt;A1</title>
<path fill="none" stroke="black" stroke-width="2.24" d="M425.97,-580.79C411.14,-574.16 395.2,-566.47 381,-558.43 360.73,-546.94 357.25,-541.56 338,-528.43 332.27,-524.52 326.23,-520.44 320.24,-516.42"/>
<polygon fill="black" stroke="black" stroke-width="2.24" points="321.78,-513.24 311.53,-510.58 317.89,-519.05 321.78,-513.24"/>
<polygon fill="snow" stroke="transparent" points="381,-543.43 381,-558.43 465,-558.43 465,-543.43 381,-543.43"/>
<text text-anchor="start" x="406" y="-547.23" font-family="arial" font-size="14.00" fill="#79b5d9">6,424</text>
<polygon fill="snow" stroke="transparent" points="381,-528.43 381,-543.43 465,-543.43 465,-528.43 381,-528.43"/>
<text text-anchor="start" x="381" y="-532.23" font-family="arial" font-size="14.00" fill="#fd9e55">01d 22h 07m </text>
</g>
<!-- A2 -->
<g id="node5" class="node">
<title>A2</title>
<polygon fill="#3d8cc3" stroke="transparent" points="251,-123.43 251,-146.43 356,-146.43 356,-123.43 251,-123.43"/>
<polygon fill="none" stroke="black" points="251,-123.43 251,-146.43 356,-146.43 356,-123.43 251,-123.43"/>
<text text-anchor="start" x="255" y="-131.23" font-family="arial" font-size="14.00" fill="white">Closed (16,449)</text>
<polygon fill="#fdb475" stroke="transparent" points="251,-100.43 251,-123.43 356,-123.43 356,-100.43 251,-100.43"/>
<polygon fill="none" stroke="black" points="251,-100.43 251,-123.43 356,-123.43 356,-100.43 251,-100.43"/>
<text text-anchor="start" x="283" y="-108.23" font-family="arial" font-size="14.00" fill="white">Instant</text>
</g>
<!-- A0&#45;&gt;A2 -->
<g id="edge18" class="edge">
<title>A0&#45;&gt;A2</title>
<path fill="none" stroke="black" d="M532.13,-600.42C606.07,-594.46 731,-571.5 731,-484.43 731,-484.43 731,-484.43 731,-242.43 731,-169.24 495.46,-139.7 373.84,-129.33"/>
<polygon fill="black" stroke="black" points="374.12,-125.84 363.87,-128.5 373.54,-132.81 374.12,-125.84"/>
<polygon fill="snow" stroke="transparent" points="731.5,-363.43 731.5,-378.43 814.5,-378.43 814.5,-363.43 731.5,-363.43"/>
<text text-anchor="start" x="765" y="-367.23" font-family="arial" font-size="14.00" fill="#a4cce4">12</text>
<polygon fill="snow" stroke="transparent" points="731.5,-348.43 731.5,-363.43 814.5,-363.43 814.5,-348.43 731.5,-348.43"/>
<text text-anchor="start" x="731.5" y="-352.23" font-family="arial" font-size="14.00" fill="#fdaf6d">10h 48m 25s </text>
</g>
<!-- A3 -->
<g id="node6" class="node">
<title>A3</title>
<polygon fill="#1c69ae" stroke="transparent" points="255,-243.43 255,-266.43 354,-266.43 354,-243.43 255,-243.43"/>
<polygon fill="none" stroke="black" points="255,-243.43 255,-266.43 354,-266.43 354,-243.43 255,-243.43"/>
<text text-anchor="start" x="259" y="-251.23" font-family="arial" font-size="14.00" fill="white">Active (24,122)</text>
<polygon fill="#fdb475" stroke="transparent" points="255,-220.43 255,-243.43 354,-243.43 354,-220.43 255,-220.43"/>
<polygon fill="none" stroke="black" points="255,-220.43 255,-243.43 354,-243.43 354,-220.43 255,-220.43"/>
<text text-anchor="start" x="284" y="-228.23" font-family="arial" font-size="14.00" fill="white">Instant</text>
</g>
<!-- A0&#45;&gt;A3 -->
<g id="edge6" class="edge">
<title>A0&#45;&gt;A3</title>
<path fill="none" stroke="black" stroke-width="2.5" d="M510.23,-576.37C565.08,-527.41 667.92,-419.14 613,-336.43 586.21,-296.08 454.47,-268.25 371.89,-254.44"/>
<polygon fill="black" stroke="black" stroke-width="2.5" points="372.26,-250.95 361.82,-252.79 371.12,-257.86 372.26,-250.95"/>
<polygon fill="snow" stroke="transparent" points="626,-423.43 626,-438.43 710,-438.43 710,-423.43 626,-423.43"/>
<text text-anchor="start" x="651" y="-427.23" font-family="arial" font-size="14.00" fill="#70b0d6">7,822</text>
<polygon fill="snow" stroke="transparent" points="626,-408.43 626,-423.43 710,-423.43 710,-408.43 626,-408.43"/>
<text text-anchor="start" x="626" y="-412.23" font-family="arial" font-size="14.00" fill="#fda661">01d 03h 56m </text>
</g>
<!-- A4 -->
<g id="node7" class="node">
<title>A4</title>
<polygon fill="#549ecd" stroke="transparent" points="380,-363.43 380,-386.43 494,-386.43 494,-363.43 380,-363.43"/>
<polygon fill="none" stroke="black" points="380,-363.43 380,-386.43 494,-386.43 494,-363.43 380,-363.43"/>
<text text-anchor="start" x="384" y="-371.23" font-family="arial" font-size="14.00" fill="white">Awaiting (12,423)</text>
<polygon fill="#fdb475" stroke="transparent" points="380,-340.43 380,-363.43 494,-363.43 494,-340.43 380,-340.43"/>
<polygon fill="none" stroke="black" points="380,-340.43 380,-363.43 494,-363.43 494,-340.43 380,-340.43"/>
<text text-anchor="start" x="416.5" y="-348.23" font-family="arial" font-size="14.00" fill="white">Instant</text>
</g>
<!-- A0&#45;&gt;A4 -->
<g id="edge14" class="edge">
<title>A0&#45;&gt;A4</title>
<path fill="none" stroke="black" stroke-width="1.41" d="M481.09,-576.23C483.26,-538.2 484.03,-465.97 465,-408.43 464.03,-405.51 462.84,-402.6 461.48,-399.73"/>
<polygon fill="black" stroke="black" stroke-width="1.41" points="464.52,-397.99 456.71,-390.83 458.34,-401.29 464.52,-397.99"/>
<polygon fill="snow" stroke="transparent" points="481,-483.43 481,-498.43 565,-498.43 565,-483.43 481,-483.43"/>
<text text-anchor="start" x="506" y="-487.23" font-family="arial" font-size="14.00" fill="#96c5e0">2,138</text>
<polygon fill="snow" stroke="transparent" points="481,-468.43 481,-483.43 565,-483.43 565,-468.43 481,-468.43"/>
<text text-anchor="start" x="481" y="-472.23" font-family="arial" font-size="14.00" fill="#fda35c">01d 10h 51m </text>
</g>
<!-- A1&#45;&gt;A0 -->
<g id="edge17" class="edge">
<title>A1&#45;&gt;A0</title>
<path fill="none" stroke="black" d="M268.23,-510.43C267.46,-526.2 269.44,-545.68 281,-558.43 298.91,-578.17 364.89,-589.95 415.82,-596.28"/>
<polygon fill="black" stroke="black" points="415.44,-599.76 425.79,-597.48 416.27,-592.81 415.44,-599.76"/>
<polygon fill="snow" stroke="transparent" points="281.5,-543.43 281.5,-558.43 334.5,-558.43 334.5,-543.43 281.5,-543.43"/>
<text text-anchor="start" x="304" y="-547.23" font-family="arial" font-size="14.00" fill="#a4cce4">1</text>
<polygon fill="snow" stroke="transparent" points="281.5,-528.43 281.5,-543.43 334.5,-543.43 334.5,-528.43 281.5,-528.43"/>
<text text-anchor="start" x="281.5" y="-532.23" font-family="arial" font-size="14.00" fill="#fdb475">07m 00s</text>
</g>
<!-- A1&#45;&gt;A1 -->
<g id="edge4" class="edge">
<title>A1&#45;&gt;A1</title>
<path fill="none" stroke="black" stroke-width="1.07" d="M339.73,-493.74C350.3,-492.2 357.5,-488.76 357.5,-483.43 357.5,-480.01 354.54,-477.37 349.64,-475.51"/>
<polygon fill="black" stroke="black" stroke-width="1.07" points="350.27,-472.06 339.73,-473.12 348.63,-478.87 350.27,-472.06"/>
<polygon fill="snow" stroke="transparent" points="357.5,-483.43 357.5,-498.43 441.5,-498.43 441.5,-483.43 357.5,-483.43"/>
<text text-anchor="start" x="388" y="-487.23" font-family="arial" font-size="14.00" fill="#a1cbe3">386</text>
<polygon fill="snow" stroke="transparent" points="357.5,-468.43 357.5,-483.43 441.5,-483.43 441.5,-468.43 357.5,-468.43"/>
<text text-anchor="start" x="357.5" y="-472.23" font-family="arial" font-size="14.00" fill="#fb8d3e">03d 09h 02m </text>
</g>
<!-- A1&#45;&gt;A2 -->
<g id="edge5" class="edge">
<title>A1&#45;&gt;A2</title>
<path fill="none" stroke="black" stroke-width="3.94" d="M204.34,-459.87C192.73,-454.07 181.4,-446.98 172,-438.43 117.98,-389.3 74.73,-354.87 105,-288.43 132.21,-228.71 193.47,-183.49 240.7,-155.82"/>
<polygon fill="black" stroke="black" stroke-width="3.94" points="242.71,-158.7 249.64,-150.68 239.23,-152.62 242.71,-158.7"/>
<polygon fill="snow" stroke="transparent" points="105,-303.43 105,-318.43 189,-318.43 189,-303.43 105,-303.43"/>
<text text-anchor="start" x="126" y="-307.23" font-family="arial" font-size="14.00" fill="#4492c6">15,300</text>
<polygon fill="snow" stroke="transparent" points="105,-288.43 105,-303.43 189,-303.43 189,-288.43 105,-288.43"/>
<text text-anchor="start" x="105" y="-292.23" font-family="arial" font-size="14.00" fill="#f16d1a">06d 00h 11m </text>
</g>
<!-- A1&#45;&gt;A3 -->
<g id="edge12" class="edge">
<title>A1&#45;&gt;A3</title>
<path fill="none" stroke="black" stroke-width="1.2" d="M272.25,-456.21C272.8,-426.9 274.55,-378.08 280,-336.43 282.83,-314.82 284.47,-309.5 290,-288.43 290.68,-285.83 291.43,-283.15 292.2,-280.47"/>
<polygon fill="black" stroke="black" stroke-width="1.2" points="295.58,-281.41 295.12,-270.82 288.87,-279.38 295.58,-281.41"/>
<polygon fill="snow" stroke="transparent" points="280.5,-363.43 280.5,-378.43 363.5,-378.43 363.5,-363.43 280.5,-363.43"/>
<text text-anchor="start" x="305" y="-367.23" font-family="arial" font-size="14.00" fill="#9dc9e2">1,040</text>
<polygon fill="snow" stroke="transparent" points="280.5,-348.43 280.5,-363.43 363.5,-363.43 363.5,-348.43 280.5,-348.43"/>
<text text-anchor="start" x="280.5" y="-352.23" font-family="arial" font-size="14.00" fill="#fdb272">04h 47m 53s </text>
</g>
<!-- A1&#45;&gt;A4 -->
<g id="edge19" class="edge">
<title>A1&#45;&gt;A4</title>
<path fill="none" stroke="black" stroke-width="1.07" d="M279.63,-456.22C285.47,-437.78 293.74,-415.21 301,-408.43 320.41,-390.29 332.71,-398.58 358,-390.43 359.42,-389.97 360.85,-389.51 362.29,-389.04"/>
<polygon fill="black" stroke="black" stroke-width="1.07" points="363.49,-392.33 371.92,-385.91 361.33,-385.67 363.49,-392.33"/>
<polygon fill="snow" stroke="transparent" points="301.5,-423.43 301.5,-438.43 354.5,-438.43 354.5,-423.43 301.5,-423.43"/>
<text text-anchor="start" x="316.5" y="-427.23" font-family="arial" font-size="14.00" fill="#a1cbe3">344</text>
<polygon fill="snow" stroke="transparent" points="301.5,-408.43 301.5,-423.43 354.5,-423.43 354.5,-408.43 301.5,-408.43"/>
<text text-anchor="start" x="301.5" y="-412.23" font-family="arial" font-size="14.00" fill="#fdb475">01m 04s</text>
</g>
<!-- A2&#45;&gt;complete -->
<g id="edge2" class="edge">
<title>A2&#45;&gt;complete</title>
<path fill="none" stroke="#bfbfbf" stroke-width="4.15" stroke-dasharray="5,2" d="M303,-96.36C303,-79.54 303,-57.99 303,-42.46"/>
<polygon fill="white" stroke="transparent" points="303,-60.43 303,-78.43 349,-78.43 349,-60.43 303,-60.43"/>
<text text-anchor="start" x="303" y="-65.63" font-family="arial" font-size="16.00" fill="#3e8dc3">16395</text>
</g>
<!-- A2&#45;&gt;A1 -->
<g id="edge23" class="edge">
<title>A2&#45;&gt;A1</title>
<path fill="none" stroke="black" d="M242.41,-137.27C170.55,-156.24 54.73,-199.56 9,-288.43 -36.2,-376.25 101.7,-434.34 194.57,-462.53"/>
<polygon fill="black" stroke="black" points="193.67,-465.91 204.25,-465.41 195.67,-459.2 193.67,-465.91"/>
<polygon fill="snow" stroke="transparent" points="9.5,-303.43 9.5,-318.43 92.5,-318.43 92.5,-303.43 9.5,-303.43"/>
<text text-anchor="start" x="47" y="-307.23" font-family="arial" font-size="14.00" fill="#a4cce4">1</text>
<polygon fill="snow" stroke="transparent" points="9.5,-288.43 9.5,-303.43 92.5,-303.43 92.5,-288.43 9.5,-288.43"/>
<text text-anchor="start" x="9.5" y="-292.23" font-family="arial" font-size="14.00" fill="#fdb06f">08h 39m 00s </text>
</g>
<!-- A2&#45;&gt;A2 -->
<g id="edge21" class="edge">
<title>A2&#45;&gt;A2</title>
<path fill="none" stroke="black" stroke-width="1.01" d="M363.56,-132.92C374.14,-131.65 381.5,-128.49 381.5,-123.43 381.5,-120.18 378.48,-117.72 373.53,-116.03"/>
<polygon fill="black" stroke="black" stroke-width="1.01" points="374.07,-112.57 363.56,-113.93 372.62,-119.42 374.07,-112.57"/>
<polygon fill="snow" stroke="transparent" points="381.5,-123.43 381.5,-138.43 465.5,-138.43 465.5,-123.43 381.5,-123.43"/>
<text text-anchor="start" x="415.5" y="-127.23" font-family="arial" font-size="14.00" fill="#a4cce4">42</text>
<polygon fill="snow" stroke="transparent" points="381.5,-108.43 381.5,-123.43 465.5,-123.43 465.5,-108.43 381.5,-108.43"/>
<text text-anchor="start" x="381.5" y="-112.23" font-family="arial" font-size="14.00" fill="#7f2704">15d 02h 55m </text>
</g>
<!-- A2&#45;&gt;A3 -->
<g id="edge22" class="edge">
<title>A2&#45;&gt;A3</title>
<path fill="none" stroke="black" d="M326.21,-150.88C329.82,-156.35 333.01,-162.32 335,-168.43 339.12,-181.11 339.03,-185.72 335,-198.43 334.01,-201.54 332.71,-204.63 331.21,-207.64"/>
<polygon fill="black" stroke="black" points="328.14,-205.96 326.18,-216.37 334.21,-209.45 328.14,-205.96"/>
<polygon fill="snow" stroke="transparent" points="339,-183.43 339,-198.43 423,-198.43 423,-183.43 339,-183.43"/>
<text text-anchor="start" x="373" y="-187.23" font-family="arial" font-size="14.00" fill="#a4cce4">11</text>
<polygon fill="snow" stroke="transparent" points="339,-168.43 339,-183.43 423,-183.43 423,-168.43 339,-168.43"/>
<text text-anchor="start" x="339" y="-172.23" font-family="arial" font-size="14.00" fill="#b73c02">11d 06h 39m </text>
</g>
<!-- A3&#45;&gt;A1 -->
<g id="edge10" class="edge">
<title>A3&#45;&gt;A1</title>
<path fill="none" stroke="black" stroke-width="2.25" d="M263.59,-270.52C223.05,-296.79 166.4,-333.81 165,-336.43 153.64,-357.57 154.99,-368.61 165,-390.43 176.19,-414.8 197.37,-435.15 217.96,-450.46"/>
<polygon fill="black" stroke="black" stroke-width="2.25" points="215.93,-453.32 226.1,-456.29 220.01,-447.62 215.93,-453.32"/>
<polygon fill="snow" stroke="transparent" points="165,-363.43 165,-378.43 249,-378.43 249,-363.43 165,-363.43"/>
<text text-anchor="start" x="190" y="-367.23" font-family="arial" font-size="14.00" fill="#79b5d9">6,491</text>
<polygon fill="snow" stroke="transparent" points="165,-348.43 165,-363.43 249,-363.43 249,-348.43 165,-348.43"/>
<text text-anchor="start" x="165" y="-352.23" font-family="arial" font-size="14.00" fill="#fd9e55">01d 23h 05m </text>
</g>
<!-- A3&#45;&gt;A2 -->
<g id="edge13" class="edge">
<title>A3&#45;&gt;A2</title>
<path fill="none" stroke="black" stroke-width="1.15" d="M263.99,-216.22C258.73,-210.98 254.1,-205.03 251,-198.43 245.33,-186.36 245.39,-180.52 251,-168.43 252.69,-164.79 254.84,-161.34 257.3,-158.1"/>
<polygon fill="black" stroke="black" stroke-width="1.15" points="260.03,-160.3 263.99,-150.47 254.76,-155.69 260.03,-160.3"/>
<polygon fill="snow" stroke="transparent" points="251,-183.43 251,-198.43 335,-198.43 335,-183.43 251,-183.43"/>
<text text-anchor="start" x="281.5" y="-187.23" font-family="arial" font-size="14.00" fill="#a0cae3">764</text>
<polygon fill="snow" stroke="transparent" points="251,-168.43 251,-183.43 335,-183.43 335,-168.43 251,-168.43"/>
<text text-anchor="start" x="251" y="-172.23" font-family="arial" font-size="14.00" fill="#f16e1b">05d 23h 12m </text>
</g>
<!-- A3&#45;&gt;A3 -->
<g id="edge7" class="edge">
<title>A3&#45;&gt;A3</title>
<path fill="none" stroke="black" stroke-width="3.65" d="M361.61,-254.06C372.12,-252.71 379.5,-249.17 379.5,-243.43 379.5,-239.75 376.47,-236.97 371.53,-235.1"/>
<polygon fill="black" stroke="black" stroke-width="3.65" points="372.14,-231.65 361.61,-232.79 370.56,-238.46 372.14,-231.65"/>
<polygon fill="snow" stroke="transparent" points="379.5,-243.43 379.5,-258.43 463.5,-258.43 463.5,-243.43 379.5,-243.43"/>
<text text-anchor="start" x="400.5" y="-247.23" font-family="arial" font-size="14.00" fill="#4b97c9">13,791</text>
<polygon fill="snow" stroke="transparent" points="379.5,-228.43 379.5,-243.43 463.5,-243.43 463.5,-228.43 379.5,-228.43"/>
<text text-anchor="start" x="379.5" y="-232.23" font-family="arial" font-size="14.00" fill="#fda159">01d 16h 37m </text>
</g>
<!-- A3&#45;&gt;A4 -->
<g id="edge8" class="edge">
<title>A3&#45;&gt;A4</title>
<path fill="none" stroke="black" stroke-width="1.59" d="M361.54,-268.99C371.29,-274.57 380.87,-281.06 389,-288.43 395.84,-294.63 406.9,-311.43 416.67,-327.45"/>
<polygon fill="black" stroke="black" stroke-width="1.59" points="413.78,-329.44 421.94,-336.2 419.78,-325.83 413.78,-329.44"/>
<polygon fill="snow" stroke="transparent" points="411,-303.43 411,-318.43 495,-318.43 495,-303.43 411,-303.43"/>
<text text-anchor="start" x="436" y="-307.23" font-family="arial" font-size="14.00" fill="#90c2de">3,076</text>
<polygon fill="snow" stroke="transparent" points="411,-288.43 411,-303.43 495,-303.43 495,-288.43 411,-288.43"/>
<text text-anchor="start" x="411" y="-292.23" font-family="arial" font-size="14.00" fill="#fda25b">01d 13h 41m </text>
</g>
<!-- A4&#45;&gt;A1 -->
<g id="edge15" class="edge">
<title>A4&#45;&gt;A1</title>
<path fill="none" stroke="black" stroke-width="1.72" d="M400.9,-390.61C394.03,-396.19 387.08,-402.27 381,-408.43 369.19,-420.38 370.9,-427.67 358,-438.43 352.51,-443 346.46,-447.28 340.19,-451.22"/>
<polygon fill="black" stroke="black" stroke-width="1.72" points="338.33,-448.25 331.55,-456.39 341.93,-454.26 338.33,-448.25"/>
<polygon fill="snow" stroke="transparent" points="381,-423.43 381,-438.43 465,-438.43 465,-423.43 381,-423.43"/>
<text text-anchor="start" x="406" y="-427.23" font-family="arial" font-size="14.00" fill="#8bc0dd">3,769</text>
<polygon fill="snow" stroke="transparent" points="381,-408.43 381,-423.43 465,-423.43 465,-408.43 381,-408.43"/>
<text text-anchor="start" x="381" y="-412.23" font-family="arial" font-size="14.00" fill="#f77e2b">04d 15h 32m </text>
</g>
<!-- A4&#45;&gt;A2 -->
<g id="edge20" class="edge">
<title>A4&#45;&gt;A2</title>
<path fill="none" stroke="black" stroke-width="1.06" d="M482.04,-336.33C487.66,-331.13 492.62,-325.16 496,-318.43 510.59,-289.34 475.04,-219.86 473,-216.43 457.89,-191.03 451.81,-184.47 427,-168.43 410.66,-157.87 391.47,-149.46 373.14,-142.95"/>
<polygon fill="black" stroke="black" stroke-width="1.06" points="374.24,-139.63 363.65,-139.72 371.98,-146.26 374.24,-139.63"/>
<polygon fill="snow" stroke="transparent" points="494,-243.43 494,-258.43 578,-258.43 578,-243.43 494,-243.43"/>
<text text-anchor="start" x="524.5" y="-247.23" font-family="arial" font-size="14.00" fill="#a3cbe3">331</text>
<polygon fill="snow" stroke="transparent" points="494,-228.43 494,-243.43 578,-243.43 578,-228.43 494,-228.43"/>
<text text-anchor="start" x="494" y="-232.23" font-family="arial" font-size="14.00" fill="#f16e1b">05d 23h 01m </text>
</g>
<!-- A4&#45;&gt;A3 -->
<g id="edge9" class="edge">
<title>A4&#45;&gt;A3</title>
<path fill="none" stroke="black" stroke-width="1.28" d="M371.92,-340.94C367.21,-339.41 362.53,-337.89 358,-336.43 332.71,-328.27 316.7,-339.85 301,-318.43 293.2,-307.79 292.14,-293.79 293.66,-280.84"/>
<polygon fill="black" stroke="black" stroke-width="1.28" points="297.15,-281.2 295.35,-270.76 290.24,-280.04 297.15,-281.2"/>
<polygon fill="snow" stroke="transparent" points="301,-303.43 301,-318.43 385,-318.43 385,-303.43 301,-303.43"/>
<text text-anchor="start" x="326" y="-307.23" font-family="arial" font-size="14.00" fill="#9ac7e1">1,458</text>
<polygon fill="snow" stroke="transparent" points="301,-288.43 301,-303.43 385,-303.43 385,-288.43 301,-288.43"/>
<text text-anchor="start" x="301" y="-292.23" font-family="arial" font-size="14.00" fill="#fd9c52">02d 02h 04m </text>
</g>
<!-- A4&#45;&gt;A4 -->
<g id="edge16" class="edge">
<title>A4&#45;&gt;A4</title>
<path fill="none" stroke="black" stroke-width="2.32" d="M502.07,-373.84C512.7,-372.35 520,-368.88 520,-363.43 520,-359.94 517,-357.26 512.05,-355.39"/>
<polygon fill="black" stroke="black" stroke-width="2.32" points="512.61,-351.93 502.07,-353.02 510.99,-358.74 512.61,-351.93"/>
<polygon fill="snow" stroke="transparent" points="520,-363.43 520,-378.43 604,-378.43 604,-363.43 520,-363.43"/>
<text text-anchor="start" x="545" y="-367.23" font-family="arial" font-size="14.00" fill="#76b4d8">6,865</text>
<polygon fill="snow" stroke="transparent" points="520,-348.43 520,-363.43 604,-363.43 604,-348.43 520,-348.43"/>
<text text-anchor="start" x="520" y="-352.23" font-family="arial" font-size="14.00" fill="#fb8d3e">03d 09h 46m </text>
</g>
</g>
</svg>
