<?xml version="1.0" encoding="UTF-8"?>
<svg xmlns="http://www.w3.org/2000/svg" xmlns:xlink="http://www.w3.org/1999/xlink" width="100px" height="100px" viewBox="0 0 100 100" version="1.1">
<g id="surface1">
<path style=" stroke:none;fill:currentColor;" d="M 50 35.085938 L 50 32.585938 L 27.5 32.585938 C 23.359375 32.585938 20 35.945312 20 40.085938 L 20 57.585938 L 47.5 57.585938 C 57.5 57.585938 57.5 72.585938 47.5 72.585938 L 20 72.585938 L 20 85.085938 C 20 89.230469 23.359375 92.585938 27.5 92.585938 L 72.5 92.585938 C 76.640625 92.585938 80 89.230469 80 85.085938 L 80 42.585938 L 57.5 42.585938 C 53.359375 42.585938 50 39.230469 50 35.085938 M 30 50.085938 C 30 48.707031 31.121094 47.585938 32.5 47.585938 L 67.5 47.585938 C 70.832031 47.585938 70.832031 52.585938 67.5 52.585938 L 32.5 52.585938 C 31.121094 52.585938 30 51.46875 30 50.085938 M 30 80.085938 C 30 78.707031 31.121094 77.585938 32.5 77.585938 L 67.5 77.585938 C 70.832031 77.585938 70.832031 82.585938 67.5 82.585938 L 32.5 82.585938 C 31.121094 82.585938 30 81.46875 30 80.085938 M 55 35.085938 L 55 13.835938 L 78.75 37.585938 L 57.5 37.585938 C 56.121094 37.585938 55 36.46875 55 35.085938 M 12.5 62.585938 C 9.167969 62.585938 9.167969 67.585938 12.5 67.585938 L 47.5 67.585938 C 50.832031 67.585938 50.832031 62.585938 47.5 62.585938 Z M 12.5 62.585938 "/>
<path style=" stroke:none;fill:currentColor;" d="M 21.296875 17.289062 C 21.296875 16.117188 20.480469 15.414062 19.042969 15.414062 C 18.453125 15.414062 18.058594 15.472656 17.847656 15.527344 L 17.847656 19.300781 C 18.097656 19.355469 18.398438 19.375 18.816406 19.375 C 20.351562 19.375 21.296875 18.597656 21.296875 17.289062 M 30.214844 15.449219 C 29.570312 15.449219 29.152344 15.507812 28.90625 15.566406 L 28.90625 23.929688 C 29.152344 23.984375 29.550781 23.984375 29.910156 23.984375 C 32.527344 24.003906 34.234375 22.5625 34.234375 19.511719 C 34.253906 16.855469 32.699219 15.449219 30.214844 15.449219 "/>
<path style=" stroke:none;fill:currentColor;" d="M 47.296875 10.539062 C 34.476562 10.539062 27.320312 10.433594 14.578125 10.539062 C 12.679688 10.394531 11.542969 11.09375 11.085938 12.984375 L 11.085938 25.707031 C 11.085938 27.058594 12.179688 28.152344 13.53125 28.152344 C 14.882812 28.152344 37.957031 28.152344 47.296875 28.152344 C 48.648438 28.152344 49.742188 27.058594 49.742188 25.707031 L 49.742188 12.984375 C 49.742188 11.632812 48.644531 10.539062 47.296875 10.539062 M 37.304688 19.414062 C 37.304688 21.859375 36.414062 23.550781 35.179688 24.589844 C 33.835938 25.710938 31.785156 26.242188 29.285156 26.242188 C 27.785156 26.242188 26.722656 26.144531 26.003906 26.050781 L 26.003906 13.496094 C 27.066406 13.328125 28.449219 13.234375 29.910156 13.234375 C 32.335938 13.234375 33.910156 13.667969 35.140625 14.597656 C 36.46875 15.582031 37.304688 17.15625 37.304688 19.414062 M 14.984375 26.109375 L 14.984375 13.496094 C 15.875 13.347656 17.125 13.234375 18.890625 13.234375 C 20.671875 13.234375 21.941406 13.574219 22.796875 14.257812 C 23.609375 14.902344 24.160156 15.964844 24.160156 17.214844 C 24.160156 18.46875 23.742188 19.527344 22.984375 20.25 C 21.996094 21.179688 20.539062 21.597656 18.832031 21.597656 C 18.453125 21.597656 18.109375 21.578125 17.84375 21.539062 L 17.84375 26.109375 Z M 47.015625 15.699219 L 42.105469 15.699219 L 42.105469 18.621094 L 46.691406 18.621094 L 46.691406 20.972656 L 42.105469 20.972656 L 42.105469 26.109375 L 39.203125 26.109375 L 39.203125 13.328125 L 47.015625 13.328125 Z M 47.015625 15.699219 "/>
</g>
</svg>
