<?xml version="1.0" encoding="UTF-8" standalone="no"?>
<!DOCTYPE svg PUBLIC "-//W3C//DTD SVG 1.1//EN"
 "http://www.w3.org/Graphics/SVG/1.1/DTD/svg11.dtd">
<!-- Generated by graphviz version 2.43.0 (0)
 -->
<!-- Title: mpdfg Pages: 1 -->
<svg width="819pt" height="759pt"
 viewBox="0.00 0.00 818.50 758.85" xmlns="http://www.w3.org/2000/svg" xmlns:xlink="http://www.w3.org/1999/xlink">
<g id="graph0" class="graph" transform="scale(1 1) rotate(0) translate(4 754.85)">
<title>mpdfg</title>
<polygon fill="white" stroke="transparent" points="-4,4 -4,-754.85 814.5,-754.85 814.5,4 -4,4"/>
<!-- start -->
<g id="node1" class="node">
<title>start</title>
<ellipse fill="green" stroke="black" cx="195.5" cy="-729.64" rx="21.43" ry="21.43"/>
<text text-anchor="middle" x="195.5" y="-724.64" font-family="Times,serif" font-size="20.00">▲</text>
</g>
<!-- A0 -->
<g id="node3" class="node">
<title>A0</title>
<polygon fill="#79b5d9" stroke="transparent" points="150.5,-627.43 150.5,-650.43 241.5,-650.43 241.5,-627.43 150.5,-627.43"/>
<polygon fill="none" stroke="black" points="150.5,-627.43 150.5,-650.43 241.5,-650.43 241.5,-627.43 150.5,-627.43"/>
<text text-anchor="start" x="154.5" y="-635.23" font-family="arial" font-size="14.00" fill="white">ENR (11,595)</text>
<polygon fill="#fdb475" stroke="transparent" points="150.5,-604.43 150.5,-627.43 241.5,-627.43 241.5,-604.43 150.5,-604.43"/>
<polygon fill="none" stroke="black" points="150.5,-604.43 150.5,-627.43 241.5,-627.43 241.5,-604.43 150.5,-604.43"/>
<text text-anchor="start" x="175.5" y="-612.23" font-family="arial" font-size="14.00" fill="white">Instant</text>
</g>
<!-- start&#45;&gt;A0 -->
<g id="edge1" class="edge">
<title>start&#45;&gt;A0</title>
<path fill="none" stroke="#bfbfbf" stroke-width="2.23" stroke-dasharray="5,2" d="M195.5,-708.36C195.5,-692.92 195.5,-671.53 195.5,-654.77"/>
<polygon fill="white" stroke="transparent" points="195.5,-672.43 195.5,-690.43 241.5,-690.43 241.5,-672.43 195.5,-672.43"/>
<text text-anchor="start" x="195.5" y="-677.63" font-family="arial" font-size="16.00" fill="#79b5d9">11595</text>
</g>
<!-- complete -->
<g id="node2" class="node">
<title>complete</title>
<ellipse fill="red" stroke="black" cx="547.5" cy="-21.21" rx="21.43" ry="21.43"/>
<text text-anchor="middle" x="547.5" y="-16.21" font-family="Times,serif" font-size="20.00">■</text>
</g>
<!-- A1 -->
<g id="node4" class="node">
<title>A1</title>
<polygon fill="#8abfdd" stroke="transparent" points="134.5,-507.43 134.5,-530.43 256.5,-530.43 256.5,-507.43 134.5,-507.43"/>
<polygon fill="none" stroke="black" points="134.5,-507.43 134.5,-530.43 256.5,-530.43 256.5,-507.43 134.5,-507.43"/>
<text text-anchor="start" x="138.5" y="-515.23" font-family="arial" font-size="14.00" fill="white">STOPOUT (7,406)</text>
<polygon fill="#7f2704" stroke="transparent" points="134.5,-484.43 134.5,-507.43 256.5,-507.43 256.5,-484.43 134.5,-484.43"/>
<polygon fill="none" stroke="black" points="134.5,-484.43 134.5,-507.43 256.5,-507.43 256.5,-484.43 134.5,-484.43"/>
<text text-anchor="start" x="153.5" y="-492.23" font-family="arial" font-size="14.00" fill="white">06m 02d 14h </text>
</g>
<!-- A0&#45;&gt;A1 -->
<g id="edge6" class="edge">
<title>A0&#45;&gt;A1</title>
<path fill="none" stroke="black" stroke-width="1.01" d="M195.5,-600.24C195.5,-583.89 195.5,-562.62 195.5,-544.67"/>
<polygon fill="black" stroke="black" stroke-width="1.01" points="199,-544.54 195.5,-534.54 192,-544.54 199,-544.54"/>
<polygon fill="snow" stroke="transparent" points="196,-567.43 196,-582.43 219,-582.43 219,-567.43 196,-567.43"/>
<text text-anchor="start" x="196" y="-571.23" font-family="arial" font-size="14.00" fill="#a4cce4">626</text>
<polygon fill="snow" stroke="transparent" points="196,-552.43 196,-567.43 219,-567.43 219,-552.43 196,-552.43"/>
<text text-anchor="start" x="196.5" y="-556.23" font-family="arial" font-size="14.00" fill="#fdb475">01s</text>
</g>
<!-- A2 -->
<g id="node5" class="node">
<title>A2</title>
<polygon fill="#08306b" stroke="transparent" points="254.5,-387.43 254.5,-410.43 467.5,-410.43 467.5,-387.43 254.5,-387.43"/>
<polygon fill="none" stroke="black" points="254.5,-387.43 254.5,-410.43 467.5,-410.43 467.5,-387.43 254.5,-387.43"/>
<text text-anchor="start" x="258.5" y="-395.23" font-family="arial" font-size="14.00" fill="white">NO&#45;RETAKE&#45;COURSES (63,270)</text>
<polygon fill="#7f2704" stroke="transparent" points="254.5,-364.43 254.5,-387.43 467.5,-387.43 467.5,-364.43 254.5,-364.43"/>
<polygon fill="none" stroke="black" points="254.5,-364.43 254.5,-387.43 467.5,-387.43 467.5,-364.43 254.5,-364.43"/>
<text text-anchor="start" x="319" y="-372.23" font-family="arial" font-size="14.00" fill="white">06m 02d 15h </text>
</g>
<!-- A0&#45;&gt;A2 -->
<g id="edge12" class="edge">
<title>A0&#45;&gt;A2</title>
<path fill="none" stroke="black" stroke-width="1.73" d="M249.09,-600.27C275.79,-584.65 306.38,-562.38 325.5,-534.43 347.91,-501.66 356.04,-456.22 358.96,-424.77"/>
<polygon fill="black" stroke="black" stroke-width="1.73" points="362.45,-424.92 359.76,-414.68 355.48,-424.37 362.45,-424.92"/>
<polygon fill="snow" stroke="transparent" points="348.5,-507.43 348.5,-522.43 382.5,-522.43 382.5,-507.43 348.5,-507.43"/>
<text text-anchor="start" x="348.5" y="-511.23" font-family="arial" font-size="14.00" fill="#8bc0dd">7,116</text>
<polygon fill="snow" stroke="transparent" points="348.5,-492.43 348.5,-507.43 382.5,-507.43 382.5,-492.43 348.5,-492.43"/>
<text text-anchor="start" x="354.5" y="-496.23" font-family="arial" font-size="14.00" fill="#fdb475">01s</text>
</g>
<!-- A3 -->
<g id="node6" class="node">
<title>A3</title>
<polygon fill="#3282bd" stroke="transparent" points="8.5,-267.43 8.5,-290.43 239.5,-290.43 239.5,-267.43 8.5,-267.43"/>
<polygon fill="none" stroke="black" points="8.5,-267.43 8.5,-290.43 239.5,-290.43 239.5,-267.43 8.5,-267.43"/>
<text text-anchor="start" x="12.5" y="-275.23" font-family="arial" font-size="14.00" fill="white">MUST&#45;RETAKE&#45;COURSES (32,792)</text>
<polygon fill="#7f2704" stroke="transparent" points="8.5,-244.43 8.5,-267.43 239.5,-267.43 239.5,-244.43 8.5,-244.43"/>
<polygon fill="none" stroke="black" points="8.5,-244.43 8.5,-267.43 239.5,-267.43 239.5,-244.43 8.5,-244.43"/>
<text text-anchor="start" x="82" y="-252.23" font-family="arial" font-size="14.00" fill="white">06m 02d 15h </text>
</g>
<!-- A0&#45;&gt;A3 -->
<g id="edge19" class="edge">
<title>A0&#45;&gt;A3</title>
<path fill="none" stroke="black" stroke-width="1.37" d="M166.27,-600.34C149.17,-583.33 128.79,-559.66 117.5,-534.43 83.55,-458.53 100.31,-357.86 113.25,-304.77"/>
<polygon fill="black" stroke="black" stroke-width="1.37" points="116.71,-305.36 115.77,-294.81 109.93,-303.64 116.71,-305.36"/>
<polygon fill="snow" stroke="transparent" points="99.5,-447.43 99.5,-462.43 133.5,-462.43 133.5,-447.43 99.5,-447.43"/>
<text text-anchor="start" x="99.5" y="-451.23" font-family="arial" font-size="14.00" fill="#97c6e0">3,853</text>
<polygon fill="snow" stroke="transparent" points="99.5,-432.43 99.5,-447.43 133.5,-447.43 133.5,-432.43 99.5,-432.43"/>
<text text-anchor="start" x="105.5" y="-436.23" font-family="arial" font-size="14.00" fill="#fdb475">01s</text>
</g>
<!-- A1&#45;&gt;A1 -->
<g id="edge7" class="edge">
<title>A1&#45;&gt;A1</title>
<path fill="none" stroke="black" stroke-width="1.15" d="M264.77,-517.68C275.33,-516.12 282.5,-512.7 282.5,-507.43 282.5,-504.05 279.56,-501.43 274.67,-499.57"/>
<polygon fill="black" stroke="black" stroke-width="1.15" points="275.32,-496.13 264.77,-497.17 273.66,-502.93 275.32,-496.13"/>
<polygon fill="snow" stroke="transparent" points="282.5,-507.43 282.5,-522.43 316.5,-522.43 316.5,-507.43 282.5,-507.43"/>
<text text-anchor="start" x="282.5" y="-511.23" font-family="arial" font-size="14.00" fill="#9ec9e2">1,926</text>
<polygon fill="snow" stroke="transparent" points="282.5,-492.43 282.5,-507.43 316.5,-507.43 316.5,-492.43 282.5,-492.43"/>
<text text-anchor="start" x="288.5" y="-496.23" font-family="arial" font-size="14.00" fill="#fdb475">01s</text>
</g>
<!-- A1&#45;&gt;A2 -->
<g id="edge8" class="edge">
<title>A1&#45;&gt;A2</title>
<path fill="none" stroke="black" stroke-width="1.31" d="M208.42,-480.14C217.28,-464.46 230.33,-445.18 246.5,-432.43 252.65,-427.58 259.39,-423.21 266.44,-419.29"/>
<polygon fill="black" stroke="black" stroke-width="1.31" points="268.25,-422.29 275.49,-414.56 265.01,-416.09 268.25,-422.29"/>
<polygon fill="snow" stroke="transparent" points="246.5,-447.43 246.5,-462.43 280.5,-462.43 280.5,-447.43 246.5,-447.43"/>
<text text-anchor="start" x="246.5" y="-451.23" font-family="arial" font-size="14.00" fill="#9ac7e1">3,302</text>
<polygon fill="snow" stroke="transparent" points="246.5,-432.43 246.5,-447.43 280.5,-447.43 280.5,-432.43 246.5,-432.43"/>
<text text-anchor="start" x="252.5" y="-436.23" font-family="arial" font-size="14.00" fill="#fdb475">01s</text>
</g>
<!-- A1&#45;&gt;A3 -->
<g id="edge22" class="edge">
<title>A1&#45;&gt;A3</title>
<path fill="none" stroke="black" stroke-width="1.18" d="M193.71,-480.25C191.11,-450.55 185.03,-401 171.5,-360.43 164.96,-340.82 154.64,-320.3 145.24,-303.63"/>
<polygon fill="black" stroke="black" stroke-width="1.18" points="148.17,-301.71 140.14,-294.8 142.11,-305.21 148.17,-301.71"/>
<polygon fill="snow" stroke="transparent" points="185.5,-387.43 185.5,-402.43 219.5,-402.43 219.5,-387.43 185.5,-387.43"/>
<text text-anchor="start" x="185.5" y="-391.23" font-family="arial" font-size="14.00" fill="#9ec9e2">2,178</text>
<polygon fill="snow" stroke="transparent" points="185.5,-372.43 185.5,-387.43 219.5,-387.43 219.5,-372.43 185.5,-372.43"/>
<text text-anchor="start" x="191.5" y="-376.23" font-family="arial" font-size="14.00" fill="#fdb475">01s</text>
</g>
<!-- A2&#45;&gt;A1 -->
<g id="edge17" class="edge">
<title>A2&#45;&gt;A1</title>
<path fill="none" stroke="black" stroke-width="1.23" d="M329.36,-414.51C322.7,-420.3 315.79,-426.48 309.5,-432.43 296.02,-445.16 295.37,-451.35 280.5,-462.43 274.54,-466.86 268.08,-471.09 261.46,-475.05"/>
<polygon fill="black" stroke="black" stroke-width="1.23" points="259.3,-472.25 252.38,-480.27 262.79,-478.32 259.3,-472.25"/>
<polygon fill="snow" stroke="transparent" points="309.5,-447.43 309.5,-462.43 343.5,-462.43 343.5,-447.43 309.5,-447.43"/>
<text text-anchor="start" x="309.5" y="-451.23" font-family="arial" font-size="14.00" fill="#9dc9e2">2,626</text>
<polygon fill="snow" stroke="transparent" points="309.5,-432.43 309.5,-447.43 343.5,-447.43 343.5,-432.43 309.5,-432.43"/>
<text text-anchor="start" x="315.5" y="-436.23" font-family="arial" font-size="14.00" fill="#fdb475">02s</text>
</g>
<!-- A2&#45;&gt;A2 -->
<g id="edge13" class="edge">
<title>A2&#45;&gt;A2</title>
<path fill="none" stroke="black" stroke-width="6.07" d="M475.44,-396.45C486.21,-394.59 493,-391.59 493,-387.43 493,-384.76 490.21,-382.57 485.38,-380.85"/>
<polygon fill="black" stroke="black" stroke-width="6.07" points="486.42,-375.64 475.44,-378.41 483.88,-385.95 486.42,-375.64"/>
<polygon fill="snow" stroke="transparent" points="493,-387.43 493,-402.43 535,-402.43 535,-387.43 493,-387.43"/>
<text text-anchor="start" x="493" y="-391.23" font-family="arial" font-size="14.00" fill="#135ea5">45,982</text>
<polygon fill="snow" stroke="transparent" points="493,-372.43 493,-387.43 535,-387.43 535,-372.43 493,-372.43"/>
<text text-anchor="start" x="503" y="-376.23" font-family="arial" font-size="14.00" fill="#fdb475">01s</text>
</g>
<!-- A2&#45;&gt;A3 -->
<g id="edge9" class="edge">
<title>A2&#45;&gt;A3</title>
<path fill="none" stroke="black" stroke-width="1.75" d="M269.59,-360.31C257.68,-355.22 245.99,-349.29 235.5,-342.43 220.24,-332.44 222.01,-323.48 207.5,-312.43 201.65,-307.97 195.28,-303.72 188.75,-299.76"/>
<polygon fill="black" stroke="black" stroke-width="1.75" points="190.19,-296.54 179.79,-294.53 186.66,-302.59 190.19,-296.54"/>
<polygon fill="snow" stroke="transparent" points="235.5,-327.43 235.5,-342.43 269.5,-342.43 269.5,-327.43 235.5,-327.43"/>
<text text-anchor="start" x="235.5" y="-331.23" font-family="arial" font-size="14.00" fill="#8abfdd">7,295</text>
<polygon fill="snow" stroke="transparent" points="235.5,-312.43 235.5,-327.43 269.5,-327.43 269.5,-312.43 235.5,-312.43"/>
<text text-anchor="start" x="241.5" y="-316.23" font-family="arial" font-size="14.00" fill="#fdb475">01s</text>
</g>
<!-- A4 -->
<g id="node7" class="node">
<title>A4</title>
<polygon fill="#9ec9e2" stroke="transparent" points="373.5,-123.43 373.5,-146.43 535.5,-146.43 535.5,-123.43 373.5,-123.43"/>
<polygon fill="none" stroke="black" points="373.5,-123.43 373.5,-146.43 535.5,-146.43 535.5,-123.43 373.5,-123.43"/>
<text text-anchor="start" x="377.5" y="-131.23" font-family="arial" font-size="14.00" fill="white">LATE&#45;DROPOUT (2,214)</text>
<polygon fill="#fdb475" stroke="transparent" points="373.5,-100.43 373.5,-123.43 535.5,-123.43 535.5,-100.43 373.5,-100.43"/>
<polygon fill="none" stroke="black" points="373.5,-100.43 373.5,-123.43 535.5,-123.43 535.5,-100.43 373.5,-100.43"/>
<text text-anchor="start" x="434" y="-108.23" font-family="arial" font-size="14.00" fill="white">Instant</text>
</g>
<!-- A2&#45;&gt;A4 -->
<g id="edge23" class="edge">
<title>A2&#45;&gt;A4</title>
<path fill="none" stroke="black" d="M386.75,-360.27C402.39,-343.05 421.15,-319.18 431.5,-294.43 449.66,-250.97 454.16,-196.33 454.95,-160.91"/>
<polygon fill="black" stroke="black" points="458.45,-160.61 455.08,-150.57 451.45,-160.52 458.45,-160.61"/>
<polygon fill="snow" stroke="transparent" points="446.5,-267.43 446.5,-282.43 530.5,-282.43 530.5,-267.43 446.5,-267.43"/>
<text text-anchor="start" x="477" y="-271.23" font-family="arial" font-size="14.00" fill="#a4cce4">561</text>
<polygon fill="snow" stroke="transparent" points="446.5,-252.43 446.5,-267.43 530.5,-267.43 530.5,-252.43 446.5,-252.43"/>
<text text-anchor="start" x="446.5" y="-256.23" font-family="arial" font-size="14.00" fill="#e4590b">03m 04d 09h </text>
</g>
<!-- A5 -->
<g id="node8" class="node">
<title>A5</title>
<polygon fill="#9dc9e2" stroke="transparent" points="491.5,-195.43 491.5,-218.43 649.5,-218.43 649.5,-195.43 491.5,-195.43"/>
<polygon fill="none" stroke="black" points="491.5,-195.43 491.5,-218.43 649.5,-218.43 649.5,-195.43 491.5,-195.43"/>
<text text-anchor="start" x="495.5" y="-203.23" font-family="arial" font-size="14.00" fill="white">ON&#45;TIME&#45;GRAD (2,579)</text>
<polygon fill="#fdb475" stroke="transparent" points="491.5,-172.43 491.5,-195.43 649.5,-195.43 649.5,-172.43 491.5,-172.43"/>
<polygon fill="none" stroke="black" points="491.5,-172.43 491.5,-195.43 649.5,-195.43 649.5,-172.43 491.5,-172.43"/>
<text text-anchor="start" x="550" y="-180.23" font-family="arial" font-size="14.00" fill="white">Instant</text>
</g>
<!-- A2&#45;&gt;A5 -->
<g id="edge14" class="edge">
<title>A2&#45;&gt;A5</title>
<path fill="none" stroke="black" stroke-width="1.23" d="M461.91,-360.39C495.92,-346.48 530.51,-325.55 551.5,-294.43 563.66,-276.4 568.46,-252.51 570.2,-232.83"/>
<polygon fill="black" stroke="black" stroke-width="1.23" points="573.71,-232.89 570.87,-222.68 566.72,-232.43 573.71,-232.89"/>
<polygon fill="snow" stroke="transparent" points="536,-327.43 536,-342.43 619,-342.43 619,-327.43 536,-327.43"/>
<text text-anchor="start" x="560.5" y="-331.23" font-family="arial" font-size="14.00" fill="#9dc9e2">2,579</text>
<polygon fill="snow" stroke="transparent" points="536,-312.43 536,-327.43 619,-327.43 619,-312.43 536,-312.43"/>
<text text-anchor="start" x="536" y="-316.23" font-family="arial" font-size="14.00" fill="#fdb475">01h 42m 11s </text>
</g>
<!-- A6 -->
<g id="node9" class="node">
<title>A6</title>
<polygon fill="#9ac7e1" stroke="transparent" points="169.5,-123.43 169.5,-146.43 340.5,-146.43 340.5,-123.43 169.5,-123.43"/>
<polygon fill="none" stroke="black" points="169.5,-123.43 169.5,-146.43 340.5,-146.43 340.5,-123.43 169.5,-123.43"/>
<text text-anchor="start" x="173.5" y="-131.23" font-family="arial" font-size="14.00" fill="white">EARLY&#45;DROPOUT (3,258)</text>
<polygon fill="#fdb475" stroke="transparent" points="169.5,-100.43 169.5,-123.43 340.5,-123.43 340.5,-100.43 169.5,-100.43"/>
<polygon fill="none" stroke="black" points="169.5,-100.43 169.5,-123.43 340.5,-123.43 340.5,-100.43 169.5,-100.43"/>
<text text-anchor="start" x="234.5" y="-108.23" font-family="arial" font-size="14.00" fill="white">Instant</text>
</g>
<!-- A2&#45;&gt;A6 -->
<g id="edge15" class="edge">
<title>A2&#45;&gt;A6</title>
<path fill="none" stroke="black" stroke-width="1.01" d="M355.16,-360.34C351.53,-341.96 346.8,-316.76 343.5,-294.43 339.38,-266.56 344.83,-192.06 329.5,-168.43 326.87,-164.37 323.72,-160.63 320.22,-157.21"/>
<polygon fill="black" stroke="black" stroke-width="1.01" points="322.46,-154.52 312.61,-150.6 317.87,-159.8 322.46,-154.52"/>
<polygon fill="snow" stroke="transparent" points="343.5,-267.43 343.5,-282.43 427.5,-282.43 427.5,-267.43 343.5,-267.43"/>
<text text-anchor="start" x="374" y="-271.23" font-family="arial" font-size="14.00" fill="#a4cce4">683</text>
<polygon fill="snow" stroke="transparent" points="343.5,-252.43 343.5,-267.43 427.5,-267.43 427.5,-252.43 343.5,-252.43"/>
<text text-anchor="start" x="343.5" y="-256.23" font-family="arial" font-size="14.00" fill="#fda661">14d 10h 35m </text>
</g>
<!-- A7 -->
<g id="node10" class="node">
<title>A7</title>
<polygon fill="#99c6e1" stroke="transparent" points="670.5,-195.43 670.5,-218.43 802.5,-218.43 802.5,-195.43 670.5,-195.43"/>
<polygon fill="none" stroke="black" points="670.5,-195.43 670.5,-218.43 802.5,-218.43 802.5,-195.43 670.5,-195.43"/>
<text text-anchor="start" x="674.5" y="-203.23" font-family="arial" font-size="14.00" fill="white">LATE&#45;GRAD (3,544)</text>
<polygon fill="#fdb475" stroke="transparent" points="670.5,-172.43 670.5,-195.43 802.5,-195.43 802.5,-172.43 670.5,-172.43"/>
<polygon fill="none" stroke="black" points="670.5,-172.43 670.5,-195.43 802.5,-195.43 802.5,-172.43 670.5,-172.43"/>
<text text-anchor="start" x="716" y="-180.23" font-family="arial" font-size="14.00" fill="white">Instant</text>
</g>
<!-- A2&#45;&gt;A7 -->
<g id="edge18" class="edge">
<title>A2&#45;&gt;A7</title>
<path fill="none" stroke="black" stroke-width="1.33" d="M475.26,-375.41C533.68,-368.19 597.53,-357.29 622.5,-342.43 666.57,-316.18 699.98,-265.96 718.9,-231.83"/>
<polygon fill="black" stroke="black" stroke-width="1.33" points="722.18,-233.13 723.85,-222.67 716.02,-229.8 722.18,-233.13"/>
<polygon fill="snow" stroke="transparent" points="659,-327.43 659,-342.43 742,-342.43 742,-327.43 659,-327.43"/>
<text text-anchor="start" x="683.5" y="-331.23" font-family="arial" font-size="14.00" fill="#99c6e1">3,544</text>
<polygon fill="snow" stroke="transparent" points="659,-312.43 659,-327.43 742,-327.43 742,-312.43 659,-312.43"/>
<text text-anchor="start" x="659" y="-316.23" font-family="arial" font-size="14.00" fill="#fdb374">17h 18m 58s </text>
</g>
<!-- A3&#45;&gt;A1 -->
<g id="edge21" class="edge">
<title>A3&#45;&gt;A1</title>
<path fill="none" stroke="black" stroke-width="1.19" d="M122.42,-294.5C121.99,-324.31 123.76,-374.18 137.5,-414.43 144.51,-434.97 156.93,-455.61 168.47,-472.13"/>
<polygon fill="black" stroke="black" stroke-width="1.19" points="165.72,-474.29 174.4,-480.36 171.4,-470.2 165.72,-474.29"/>
<polygon fill="snow" stroke="transparent" points="137.5,-387.43 137.5,-402.43 171.5,-402.43 171.5,-387.43 137.5,-387.43"/>
<text text-anchor="start" x="137.5" y="-391.23" font-family="arial" font-size="14.00" fill="#9ec9e2">2,228</text>
<polygon fill="snow" stroke="transparent" points="137.5,-372.43 137.5,-387.43 171.5,-387.43 171.5,-372.43 137.5,-372.43"/>
<text text-anchor="start" x="143.5" y="-376.23" font-family="arial" font-size="14.00" fill="#fdb475">02s</text>
</g>
<!-- A3&#45;&gt;A2 -->
<g id="edge16" class="edge">
<title>A3&#45;&gt;A2</title>
<path fill="none" stroke="black" stroke-width="1.7" d="M234.52,-294.53C246.79,-299.53 258.72,-305.45 269.5,-312.43 284.31,-322.02 282.3,-330.71 295.5,-342.43 300.11,-346.52 305.13,-350.55 310.26,-354.39"/>
<polygon fill="black" stroke="black" stroke-width="1.7" points="308.23,-357.24 318.38,-360.28 312.34,-351.58 308.23,-357.24"/>
<polygon fill="snow" stroke="transparent" points="295.5,-327.43 295.5,-342.43 329.5,-342.43 329.5,-327.43 295.5,-327.43"/>
<text text-anchor="start" x="295.5" y="-331.23" font-family="arial" font-size="14.00" fill="#8bc0dd">6,870</text>
<polygon fill="snow" stroke="transparent" points="295.5,-312.43 295.5,-327.43 329.5,-327.43 329.5,-312.43 295.5,-312.43"/>
<text text-anchor="start" x="301.5" y="-316.23" font-family="arial" font-size="14.00" fill="#fdb475">01s</text>
</g>
<!-- A3&#45;&gt;A3 -->
<g id="edge10" class="edge">
<title>A3&#45;&gt;A3</title>
<path fill="none" stroke="black" stroke-width="3.11" d="M247.21,-276.29C258.15,-274.42 265,-271.47 265,-267.43 265,-264.84 262.19,-262.69 257.29,-261"/>
<polygon fill="black" stroke="black" stroke-width="3.11" points="257.75,-257.51 247.21,-258.57 256.11,-264.31 257.75,-257.51"/>
<polygon fill="snow" stroke="transparent" points="265,-267.43 265,-282.43 307,-282.43 307,-267.43 265,-267.43"/>
<text text-anchor="start" x="265" y="-271.23" font-family="arial" font-size="14.00" fill="#5ba3d0">19,466</text>
<polygon fill="snow" stroke="transparent" points="265,-252.43 265,-267.43 307,-267.43 307,-252.43 265,-252.43"/>
<text text-anchor="start" x="275" y="-256.23" font-family="arial" font-size="14.00" fill="#fdb475">01s</text>
</g>
<!-- A3&#45;&gt;A4 -->
<g id="edge11" class="edge">
<title>A3&#45;&gt;A4</title>
<path fill="none" stroke="black" stroke-width="1.12" d="M184.21,-240.38C240.72,-216.14 324.93,-180.01 384.31,-154.54"/>
<polygon fill="black" stroke="black" stroke-width="1.12" points="385.8,-157.71 393.61,-150.55 383.04,-151.27 385.8,-157.71"/>
<polygon fill="snow" stroke="transparent" points="346.5,-195.43 346.5,-210.43 430.5,-210.43 430.5,-195.43 346.5,-195.43"/>
<text text-anchor="start" x="371.5" y="-199.23" font-family="arial" font-size="14.00" fill="#a0cae3">1,653</text>
<polygon fill="snow" stroke="transparent" points="346.5,-180.43 346.5,-195.43 430.5,-195.43 430.5,-180.43 346.5,-180.43"/>
<text text-anchor="start" x="346.5" y="-184.23" font-family="arial" font-size="14.00" fill="#fc994d">28d 06h 42m </text>
</g>
<!-- A3&#45;&gt;A6 -->
<g id="edge20" class="edge">
<title>A3&#45;&gt;A6</title>
<path fill="none" stroke="black" stroke-width="1.22" d="M119.76,-240.31C118.17,-218.77 119.55,-188.59 135.5,-168.43 140.24,-162.43 145.89,-157.25 152.11,-152.77"/>
<polygon fill="black" stroke="black" stroke-width="1.22" points="154.4,-155.46 160.91,-147.1 150.6,-149.58 154.4,-155.46"/>
<polygon fill="snow" stroke="transparent" points="135.5,-195.43 135.5,-210.43 219.5,-210.43 219.5,-195.43 135.5,-195.43"/>
<text text-anchor="start" x="160.5" y="-199.23" font-family="arial" font-size="14.00" fill="#9dc9e2">2,575</text>
<polygon fill="snow" stroke="transparent" points="135.5,-180.43 135.5,-195.43 219.5,-195.43 219.5,-180.43 135.5,-180.43"/>
<text text-anchor="start" x="135.5" y="-184.23" font-family="arial" font-size="14.00" fill="#fda964">11d 15h 06m </text>
</g>
<!-- A4&#45;&gt;complete -->
<g id="edge5" class="edge">
<title>A4&#45;&gt;complete</title>
<path fill="none" stroke="#bfbfbf" stroke-width="1.18" stroke-dasharray="5,2" d="M478.69,-96.36C496.13,-77.57 519.05,-52.87 533.53,-37.26"/>
<polygon fill="white" stroke="transparent" points="509,-60.43 509,-78.43 546,-78.43 546,-60.43 509,-60.43"/>
<text text-anchor="start" x="509" y="-65.63" font-family="arial" font-size="16.00" fill="#9ec9e2">2214</text>
</g>
<!-- A5&#45;&gt;complete -->
<g id="edge4" class="edge">
<title>A5&#45;&gt;complete</title>
<path fill="none" stroke="#bfbfbf" stroke-width="1.23" stroke-dasharray="5,2" d="M567.01,-168.27C562.39,-133.74 554.37,-73.67 550.2,-42.41"/>
<polygon fill="white" stroke="transparent" points="564,-114.43 564,-132.43 601,-132.43 601,-114.43 564,-114.43"/>
<text text-anchor="start" x="564" y="-119.63" font-family="arial" font-size="16.00" fill="#9dc9e2">2579</text>
</g>
<!-- A6&#45;&gt;complete -->
<g id="edge3" class="edge">
<title>A6&#45;&gt;complete</title>
<path fill="none" stroke="#bfbfbf" stroke-width="1.3" stroke-dasharray="5,2" d="M330.72,-96.36C396.85,-73.74 488.01,-42.56 527.7,-28.98"/>
<polygon fill="white" stroke="transparent" points="427,-60.43 427,-78.43 464,-78.43 464,-60.43 427,-60.43"/>
<text text-anchor="start" x="427" y="-65.63" font-family="arial" font-size="16.00" fill="#9ac7e1">3258</text>
</g>
<!-- A7&#45;&gt;complete -->
<g id="edge2" class="edge">
<title>A7&#45;&gt;complete</title>
<path fill="none" stroke="#bfbfbf" stroke-width="1.33" stroke-dasharray="5,2" d="M707.79,-168.27C667.31,-131.39 594.86,-65.36 563.12,-36.44"/>
<polygon fill="white" stroke="transparent" points="685,-114.43 685,-132.43 722,-132.43 722,-114.43 685,-114.43"/>
<text text-anchor="start" x="685" y="-119.63" font-family="arial" font-size="16.00" fill="#99c6e1">3544</text>
</g>
</g>
</svg>
