<?xml version="1.0" encoding="UTF-8" standalone="no"?>
<svg
   version="1.1"
   x="0px"
   y="0px"
   viewBox="0 0 100 100"
   xml:space="preserve"
   width="100"
   height="100"
   xmlns:inkscape="http://www.inkscape.org/namespaces/inkscape"
   xmlns="http://www.w3.org/2000/svg"
   xmlns:svg="http://www.w3.org/2000/svg">
<g
   style="fill-rule:evenodd"
   id="g829"
   transform="matrix(0.84812782,0,0,0.84812782,7.7553529,8.4119166)">
<path
   class="st0"
   d="m 11.82,85.67 h 78.49 c 1.41,0 2.55,-1.14 2.55,-2.55 v -9.07 c 0,-1.41 -1.14,-2.55 -2.55,-2.55 H 11.82 c -1.41,0 -2.55,1.14 -2.55,2.55 v 9.07 c 0,1.4 1.14,2.55 2.55,2.55 z"
   id="path21" /><path
   class="st1"
   d="m 11.82,56.27 h 45.31 c 1.41,0 2.55,-1.14 2.55,-2.55 v -9.07 c 0,-1.41 -1.14,-2.55 -2.55,-2.55 H 11.82 c -1.41,0 -2.55,1.14 -2.55,2.55 v 9.07 c 0,1.41 1.14,2.55 2.55,2.55 z"
   id="path23" /><path
   class="st0"
   d="m 11.82,26.87 h 62.01 c 1.41,0 2.55,-1.14 2.55,-2.55 v -9.07 c 0,-1.41 -1.14,-2.55 -2.55,-2.55 H 11.82 c -1.41,0 -2.55,1.14 -2.55,2.55 v 9.07 c 0,1.41 1.14,2.55 2.55,2.55 z"
   id="path25" />
</g>
</svg>
