<?xml version="1.0" encoding="UTF-8" standalone="no"?>
<!DOCTYPE svg PUBLIC "-//W3C//DTD SVG 1.1//EN"
 "http://www.w3.org/Graphics/SVG/1.1/DTD/svg11.dtd">
<!-- Generated by graphviz version 2.43.0 (0)
 -->
<!-- Title: mpdfg Pages: 1 -->
<svg width="484pt" height="735pt"
 viewBox="0.00 0.00 483.50 734.85" xmlns="http://www.w3.org/2000/svg" xmlns:xlink="http://www.w3.org/1999/xlink">
<g id="graph0" class="graph" transform="scale(1 1) rotate(0) translate(4 730.85)">
<title>mpdfg</title>
<polygon fill="white" stroke="transparent" points="-4,4 -4,-730.85 479.5,-730.85 479.5,4 -4,4"/>
<!-- start -->
<g id="node1" class="node">
<title>start</title>
<ellipse fill="green" stroke="black" cx="192.5" cy="-705.64" rx="21.43" ry="21.43"/>
<text text-anchor="middle" x="192.5" y="-700.64" font-family="Times,serif" font-size="20.00">▲</text>
</g>
<!-- A0 -->
<g id="node3" class="node">
<title>A0</title>
<polygon fill="#08306b" stroke="transparent" points="96.5,-603.43 96.5,-626.43 288.5,-626.43 288.5,-603.43 96.5,-603.43"/>
<polygon fill="none" stroke="black" points="96.5,-603.43 96.5,-626.43 288.5,-626.43 288.5,-603.43 96.5,-603.43"/>
<text text-anchor="start" x="100.5" y="-611.23" font-family="arial" font-size="14.00" fill="white">Enter the consultation box (37)</text>
<polygon fill="#fdb475" stroke="transparent" points="96.5,-580.43 96.5,-603.43 288.5,-603.43 288.5,-580.43 96.5,-580.43"/>
<polygon fill="none" stroke="black" points="96.5,-580.43 96.5,-603.43 288.5,-603.43 288.5,-580.43 96.5,-580.43"/>
<text text-anchor="start" x="172" y="-588.23" font-family="arial" font-size="14.00" fill="white">Instant</text>
</g>
<!-- start&#45;&gt;A0 -->
<g id="edge1" class="edge">
<title>start&#45;&gt;A0</title>
<path fill="none" stroke="#bfbfbf" stroke-width="8" stroke-dasharray="5,2" d="M192.5,-684.36C192.5,-668.92 192.5,-647.53 192.5,-630.77"/>
<polygon fill="white" stroke="transparent" points="193,-648.43 193,-666.43 212,-666.43 212,-648.43 193,-648.43"/>
<text text-anchor="start" x="193" y="-653.63" font-family="arial" font-size="16.00" fill="#08306b">37</text>
</g>
<!-- complete -->
<g id="node2" class="node">
<title>complete</title>
<ellipse fill="red" stroke="black" cx="192.5" cy="-21.21" rx="21.43" ry="21.43"/>
<text text-anchor="middle" x="192.5" y="-16.21" font-family="Times,serif" font-size="20.00">■</text>
</g>
<!-- A1 -->
<g id="node4" class="node">
<title>A1</title>
<polygon fill="#1b68ae" stroke="transparent" points="8.5,-483.43 8.5,-506.43 173.5,-506.43 173.5,-483.43 8.5,-483.43"/>
<polygon fill="none" stroke="black" points="8.5,-483.43 8.5,-506.43 173.5,-506.43 173.5,-483.43 8.5,-483.43"/>
<text text-anchor="start" x="12.5" y="-491.23" font-family="arial" font-size="14.00" fill="white">Registration (Normal) (27)</text>
<polygon fill="#7f2704" stroke="transparent" points="8.5,-460.43 8.5,-483.43 173.5,-483.43 173.5,-460.43 8.5,-460.43"/>
<polygon fill="none" stroke="black" points="8.5,-460.43 8.5,-483.43 173.5,-483.43 173.5,-460.43 8.5,-460.43"/>
<text text-anchor="start" x="49.5" y="-468.23" font-family="arial" font-size="14.00" fill="white">01h 30m 11s </text>
</g>
<!-- A0&#45;&gt;A1 -->
<g id="edge3" class="edge">
<title>A0&#45;&gt;A1</title>
<path fill="none" stroke="black" stroke-width="5.67" d="M169.86,-576.24C155.07,-559.13 135.62,-536.62 119.67,-518.17"/>
<polygon fill="black" stroke="black" stroke-width="5.67" points="123.37,-514.86 113.07,-510.54 115.86,-521.35 123.37,-514.86"/>
<polygon fill="snow" stroke="transparent" points="155,-543.43 155,-558.43 208,-558.43 208,-543.43 155,-543.43"/>
<text text-anchor="start" x="173.5" y="-547.23" font-family="arial" font-size="14.00" fill="#1b68ae">27</text>
<polygon fill="snow" stroke="transparent" points="155,-528.43 155,-543.43 208,-543.43 208,-528.43 155,-528.43"/>
<text text-anchor="start" x="155" y="-532.23" font-family="arial" font-size="14.00" fill="#fdae6c">03m 17s</text>
</g>
<!-- A4 -->
<g id="node7" class="node">
<title>A4</title>
<polygon fill="#8dc0de" stroke="transparent" points="207.5,-483.43 207.5,-506.43 381.5,-506.43 381.5,-483.43 207.5,-483.43"/>
<polygon fill="none" stroke="black" points="207.5,-483.43 207.5,-506.43 381.5,-506.43 381.5,-483.43 207.5,-483.43"/>
<text text-anchor="start" x="211.5" y="-491.23" font-family="arial" font-size="14.00" fill="white">Registration (Priorities) (10)</text>
<polygon fill="#b53b02" stroke="transparent" points="207.5,-460.43 207.5,-483.43 381.5,-483.43 381.5,-460.43 207.5,-460.43"/>
<polygon fill="none" stroke="black" points="207.5,-460.43 207.5,-483.43 381.5,-483.43 381.5,-460.43 207.5,-460.43"/>
<text text-anchor="start" x="253" y="-468.23" font-family="arial" font-size="14.00" fill="white">01h 08m 00s </text>
</g>
<!-- A0&#45;&gt;A4 -->
<g id="edge6" class="edge">
<title>A0&#45;&gt;A4</title>
<path fill="none" stroke="black" stroke-width="1.7" d="M215.14,-576.24C229.93,-559.13 249.38,-536.62 265.33,-518.17"/>
<polygon fill="black" stroke="black" stroke-width="1.7" points="268.03,-520.4 271.93,-510.54 262.74,-515.82 268.03,-520.4"/>
<polygon fill="snow" stroke="transparent" points="257,-543.43 257,-558.43 310,-558.43 310,-543.43 257,-543.43"/>
<text text-anchor="start" x="275.5" y="-547.23" font-family="arial" font-size="14.00" fill="#8dc0de">10</text>
<polygon fill="snow" stroke="transparent" points="257,-528.43 257,-543.43 310,-543.43 310,-528.43 257,-528.43"/>
<text text-anchor="start" x="257" y="-532.23" font-family="arial" font-size="14.00" fill="#fdae6c">03m 12s</text>
</g>
<!-- A2 -->
<g id="node5" class="node">
<title>A2</title>
<polygon fill="#08306b" stroke="transparent" points="128.5,-363.43 128.5,-386.43 256.5,-386.43 256.5,-363.43 128.5,-363.43"/>
<polygon fill="none" stroke="black" points="128.5,-363.43 128.5,-386.43 256.5,-386.43 256.5,-363.43 128.5,-363.43"/>
<text text-anchor="start" x="132.5" y="-371.23" font-family="arial" font-size="14.00" fill="white">Waiting room 1 (37)</text>
<polygon fill="#e15509" stroke="transparent" points="128.5,-340.43 128.5,-363.43 256.5,-363.43 256.5,-340.43 128.5,-340.43"/>
<polygon fill="none" stroke="black" points="128.5,-340.43 128.5,-363.43 256.5,-363.43 256.5,-340.43 128.5,-340.43"/>
<text text-anchor="start" x="166" y="-348.23" font-family="arial" font-size="14.00" fill="white">48m 22s</text>
</g>
<!-- A1&#45;&gt;A2 -->
<g id="edge4" class="edge">
<title>A1&#45;&gt;A2</title>
<path fill="none" stroke="black" stroke-width="5.67" d="M113.14,-456.24C127.93,-439.13 147.38,-416.62 163.33,-398.17"/>
<polygon fill="black" stroke="black" stroke-width="5.67" points="167.14,-401.35 169.93,-390.54 159.63,-394.86 167.14,-401.35"/>
<polygon fill="snow" stroke="transparent" points="155,-423.43 155,-438.43 208,-438.43 208,-423.43 155,-423.43"/>
<text text-anchor="start" x="173.5" y="-427.23" font-family="arial" font-size="14.00" fill="#1b68ae">27</text>
<polygon fill="snow" stroke="transparent" points="155,-408.43 155,-423.43 208,-423.43 208,-408.43 155,-408.43"/>
<text text-anchor="start" x="155" y="-412.23" font-family="arial" font-size="14.00" fill="#fdb171">01m 44s</text>
</g>
<!-- A3 -->
<g id="node6" class="node">
<title>A3</title>
<polygon fill="#08306b" stroke="transparent" points="116.5,-123.43 116.5,-146.43 269.5,-146.43 269.5,-123.43 116.5,-123.43"/>
<polygon fill="none" stroke="black" points="116.5,-123.43 116.5,-146.43 269.5,-146.43 269.5,-123.43 116.5,-123.43"/>
<text text-anchor="start" x="120.5" y="-131.23" font-family="arial" font-size="14.00" fill="white">Exit of Consultation (37)</text>
<polygon fill="#fdb475" stroke="transparent" points="116.5,-100.43 116.5,-123.43 269.5,-123.43 269.5,-100.43 116.5,-100.43"/>
<polygon fill="none" stroke="black" points="116.5,-100.43 116.5,-123.43 269.5,-123.43 269.5,-100.43 116.5,-100.43"/>
<text text-anchor="start" x="172.5" y="-108.23" font-family="arial" font-size="14.00" fill="white">Instant</text>
</g>
<!-- A2&#45;&gt;A3 -->
<g id="edge5" class="edge">
<title>A2&#45;&gt;A3</title>
<path fill="none" stroke="black" d="M189.98,-336.28C188.34,-317.89 186.35,-292.68 185.5,-270.43 184.59,-246.44 184.59,-240.41 185.5,-216.43 186.2,-198 187.69,-177.54 189.11,-160.61"/>
<polygon fill="black" stroke="black" points="192.6,-160.83 189.98,-150.57 185.63,-160.23 192.6,-160.83"/>
<polygon fill="snow" stroke="transparent" points="186,-243.43 186,-258.43 239,-258.43 239,-243.43 186,-243.43"/>
<text text-anchor="start" x="208.5" y="-247.23" font-family="arial" font-size="14.00" fill="#a4cce4">7</text>
<polygon fill="snow" stroke="transparent" points="186,-228.43 186,-243.43 239,-243.43 239,-228.43 186,-228.43"/>
<text text-anchor="start" x="186" y="-232.23" font-family="arial" font-size="14.00" fill="#fdaa65">05m 25s</text>
</g>
<!-- A5 -->
<g id="node8" class="node">
<title>A5</title>
<polygon fill="#1058a0" stroke="transparent" points="255.5,-243.43 255.5,-266.43 467.5,-266.43 467.5,-243.43 255.5,-243.43"/>
<polygon fill="none" stroke="black" points="255.5,-243.43 255.5,-266.43 467.5,-266.43 467.5,-243.43 255.5,-243.43"/>
<text text-anchor="start" x="259.5" y="-251.23" font-family="arial" font-size="14.00" fill="white">Checkout of DIG Department (30)</text>
<polygon fill="#fda35c" stroke="transparent" points="255.5,-220.43 255.5,-243.43 467.5,-243.43 467.5,-220.43 255.5,-220.43"/>
<polygon fill="none" stroke="black" points="255.5,-220.43 255.5,-243.43 467.5,-243.43 467.5,-220.43 255.5,-220.43"/>
<text text-anchor="start" x="335" y="-228.23" font-family="arial" font-size="14.00" fill="white">08m 56s</text>
</g>
<!-- A2&#45;&gt;A5 -->
<g id="edge8" class="edge">
<title>A2&#45;&gt;A5</title>
<path fill="none" stroke="black" stroke-width="6.37" d="M230.01,-336.24C255.28,-318.59 288.77,-295.21 315.63,-276.45"/>
<polygon fill="black" stroke="black" stroke-width="6.37" points="319.09,-280.84 324.1,-270.54 312.71,-271.7 319.09,-280.84"/>
<polygon fill="snow" stroke="transparent" points="296.5,-303.43 296.5,-318.43 318.5,-318.43 318.5,-303.43 296.5,-303.43"/>
<text text-anchor="start" x="299.5" y="-307.23" font-family="arial" font-size="14.00" fill="#1058a0">30</text>
<polygon fill="snow" stroke="transparent" points="296.5,-288.43 296.5,-303.43 318.5,-303.43 318.5,-288.43 296.5,-288.43"/>
<text text-anchor="start" x="296.5" y="-292.23" font-family="arial" font-size="14.00" fill="#fdb374">30s</text>
</g>
<!-- A3&#45;&gt;complete -->
<g id="edge2" class="edge">
<title>A3&#45;&gt;complete</title>
<path fill="none" stroke="#bfbfbf" stroke-width="8" stroke-dasharray="5,2" d="M192.5,-96.36C192.5,-79.54 192.5,-57.99 192.5,-42.46"/>
<polygon fill="white" stroke="transparent" points="193,-60.43 193,-78.43 212,-78.43 212,-60.43 193,-60.43"/>
<text text-anchor="start" x="193" y="-65.63" font-family="arial" font-size="16.00" fill="#08306b">37</text>
</g>
<!-- A4&#45;&gt;A2 -->
<g id="edge7" class="edge">
<title>A4&#45;&gt;A2</title>
<path fill="none" stroke="black" stroke-width="1.7" d="M271.86,-456.24C257.07,-439.13 237.62,-416.62 221.67,-398.17"/>
<polygon fill="black" stroke="black" stroke-width="1.7" points="224.26,-395.82 215.07,-390.54 218.97,-400.4 224.26,-395.82"/>
<polygon fill="snow" stroke="transparent" points="256.5,-423.43 256.5,-438.43 278.5,-438.43 278.5,-423.43 256.5,-423.43"/>
<text text-anchor="start" x="259.5" y="-427.23" font-family="arial" font-size="14.00" fill="#8dc0de">10</text>
<polygon fill="snow" stroke="transparent" points="256.5,-408.43 256.5,-423.43 278.5,-423.43 278.5,-408.43 256.5,-408.43"/>
<text text-anchor="start" x="256.5" y="-412.23" font-family="arial" font-size="14.00" fill="#fdb374">42s</text>
</g>
<!-- A5&#45;&gt;A3 -->
<g id="edge9" class="edge">
<title>A5&#45;&gt;A3</title>
<path fill="none" stroke="black" stroke-width="6.37" d="M323.99,-216.24C298.72,-198.59 265.23,-175.21 238.37,-156.45"/>
<polygon fill="black" stroke="black" stroke-width="6.37" points="241.29,-151.7 229.9,-150.54 234.91,-160.84 241.29,-151.7"/>
<polygon fill="snow" stroke="transparent" points="297,-183.43 297,-198.43 350,-198.43 350,-183.43 297,-183.43"/>
<text text-anchor="start" x="315.5" y="-187.23" font-family="arial" font-size="14.00" fill="#1058a0">30</text>
<polygon fill="snow" stroke="transparent" points="297,-168.43 297,-183.43 350,-183.43 350,-168.43 297,-168.43"/>
<text text-anchor="start" x="297" y="-172.23" font-family="arial" font-size="14.00" fill="#fdab67">05m 00s</text>
</g>
</g>
</svg>
