<?xml version="1.0" encoding="UTF-8" standalone="no"?>
<!DOCTYPE svg PUBLIC "-//W3C//DTD SVG 1.1//EN"
 "http://www.w3.org/Graphics/SVG/1.1/DTD/svg11.dtd">
<!-- Generated by graphviz version 2.43.0 (0)
 -->
<!-- Title: mpdfg Pages: 1 -->
<svg width="1235pt" height="1263pt"
 viewBox="0.00 0.00 1234.68 1262.85" xmlns="http://www.w3.org/2000/svg" xmlns:xlink="http://www.w3.org/1999/xlink">
<g id="graph0" class="graph" transform="scale(1 1) rotate(0) translate(4 1258.85)">
<title>mpdfg</title>
<polygon fill="white" stroke="transparent" points="-4,4 -4,-1258.85 1230.68,-1258.85 1230.68,4 -4,4"/>
<!-- start -->
<g id="node1" class="node">
<title>start</title>
<ellipse fill="green" stroke="black" cx="199.18" cy="-1233.64" rx="21.43" ry="21.43"/>
<text text-anchor="middle" x="199.18" y="-1228.64" font-family="Times,serif" font-size="20.00">▲</text>
</g>
<!-- A0 -->
<g id="node3" class="node">
<title>A0</title>
<polygon fill="#4d99ca" stroke="transparent" points="103.18,-1131.43 103.18,-1154.43 295.18,-1154.43 295.18,-1131.43 103.18,-1131.43"/>
<polygon fill="none" stroke="black" points="103.18,-1131.43 103.18,-1154.43 295.18,-1154.43 295.18,-1131.43 103.18,-1131.43"/>
<text text-anchor="start" x="107.18" y="-1139.23" font-family="arial" font-size="14.00" fill="white">Enter the consultation box (40)</text>
<polygon fill="#fd9c52" stroke="transparent" points="103.18,-1108.43 103.18,-1131.43 295.18,-1131.43 295.18,-1108.43 103.18,-1108.43"/>
<polygon fill="none" stroke="black" points="103.18,-1108.43 103.18,-1131.43 295.18,-1131.43 295.18,-1108.43 103.18,-1108.43"/>
<text text-anchor="start" x="178.68" y="-1116.23" font-family="arial" font-size="14.00" fill="white">Instant</text>
</g>
<!-- start&#45;&gt;A0 -->
<g id="edge1" class="edge">
<title>start&#45;&gt;A0</title>
<path fill="none" stroke="#bfbfbf" stroke-width="3.6" stroke-dasharray="5,2" d="M199.18,-1212.36C199.18,-1196.92 199.18,-1175.53 199.18,-1158.77"/>
<polygon fill="white" stroke="transparent" points="199.68,-1176.43 199.68,-1194.43 218.68,-1194.43 218.68,-1176.43 199.68,-1176.43"/>
<text text-anchor="start" x="199.68" y="-1181.63" font-family="arial" font-size="16.00" fill="#4d99ca">40</text>
</g>
<!-- complete -->
<g id="node2" class="node">
<title>complete</title>
<ellipse fill="red" stroke="black" cx="714.18" cy="-21.21" rx="21.43" ry="21.43"/>
<text text-anchor="middle" x="714.18" y="-16.21" font-family="Times,serif" font-size="20.00">■</text>
</g>
<!-- A1 -->
<g id="node4" class="node">
<title>A1</title>
<polygon fill="#8dc0de" stroke="transparent" points="214.18,-1011.43 214.18,-1034.43 388.18,-1034.43 388.18,-1011.43 214.18,-1011.43"/>
<polygon fill="none" stroke="black" points="214.18,-1011.43 214.18,-1034.43 388.18,-1034.43 388.18,-1011.43 214.18,-1011.43"/>
<text text-anchor="start" x="218.18" y="-1019.23" font-family="arial" font-size="14.00" fill="white">Registration (Priorities) (11)</text>
<polygon fill="#eb6211" stroke="transparent" points="214.18,-988.43 214.18,-1011.43 388.18,-1011.43 388.18,-988.43 214.18,-988.43"/>
<polygon fill="none" stroke="black" points="214.18,-988.43 214.18,-1011.43 388.18,-1011.43 388.18,-988.43 214.18,-988.43"/>
<text text-anchor="start" x="274.68" y="-996.23" font-family="arial" font-size="14.00" fill="white">28m 43s</text>
</g>
<!-- A0&#45;&gt;A1 -->
<g id="edge3" class="edge">
<title>A0&#45;&gt;A1</title>
<path fill="none" stroke="black" stroke-width="1.67" d="M221.82,-1104.24C236.61,-1087.13 256.06,-1064.62 272.01,-1046.17"/>
<polygon fill="black" stroke="black" stroke-width="1.67" points="274.71,-1048.4 278.6,-1038.54 269.42,-1043.82 274.71,-1048.4"/>
<polygon fill="snow" stroke="transparent" points="262.68,-1071.43 262.68,-1086.43 315.68,-1086.43 315.68,-1071.43 262.68,-1071.43"/>
<text text-anchor="start" x="281.18" y="-1075.23" font-family="arial" font-size="14.00" fill="#8dc0de">11</text>
<polygon fill="snow" stroke="transparent" points="262.68,-1056.43 262.68,-1071.43 315.68,-1071.43 315.68,-1056.43 262.68,-1056.43"/>
<text text-anchor="start" x="262.68" y="-1060.23" font-family="arial" font-size="14.00" fill="#fc9649">03m 16s</text>
</g>
<!-- A7 -->
<g id="node10" class="node">
<title>A7</title>
<polygon fill="#63a8d2" stroke="transparent" points="15.18,-1011.43 15.18,-1034.43 180.18,-1034.43 180.18,-1011.43 15.18,-1011.43"/>
<polygon fill="none" stroke="black" points="15.18,-1011.43 15.18,-1034.43 180.18,-1034.43 180.18,-1011.43 15.18,-1011.43"/>
<text text-anchor="start" x="19.18" y="-1019.23" font-family="arial" font-size="14.00" fill="white">Registration (Normal) (29)</text>
<polygon fill="#7f2704" stroke="transparent" points="15.18,-988.43 15.18,-1011.43 180.18,-1011.43 180.18,-988.43 15.18,-988.43"/>
<polygon fill="none" stroke="black" points="15.18,-988.43 15.18,-1011.43 180.18,-1011.43 180.18,-988.43 15.18,-988.43"/>
<text text-anchor="start" x="56.18" y="-996.23" font-family="arial" font-size="14.00" fill="white">01h 16m 37s </text>
</g>
<!-- A0&#45;&gt;A7 -->
<g id="edge10" class="edge">
<title>A0&#45;&gt;A7</title>
<path fill="none" stroke="black" stroke-width="2.87" d="M176.54,-1104.24C161.75,-1087.13 142.29,-1064.62 126.35,-1046.17"/>
<polygon fill="black" stroke="black" stroke-width="2.87" points="128.94,-1043.82 119.75,-1038.54 123.64,-1048.4 128.94,-1043.82"/>
<polygon fill="snow" stroke="transparent" points="160.68,-1071.43 160.68,-1086.43 213.68,-1086.43 213.68,-1071.43 160.68,-1071.43"/>
<text text-anchor="start" x="179.18" y="-1075.23" font-family="arial" font-size="14.00" fill="#63a8d2">29</text>
<polygon fill="snow" stroke="transparent" points="160.68,-1056.43 160.68,-1071.43 213.68,-1071.43 213.68,-1056.43 160.68,-1056.43"/>
<text text-anchor="start" x="160.68" y="-1060.23" font-family="arial" font-size="14.00" fill="#fc9649">03m 06s</text>
</g>
<!-- A2 -->
<g id="node5" class="node">
<title>A2</title>
<polygon fill="#08306b" stroke="transparent" points="340.18,-891.43 340.18,-914.43 481.18,-914.43 481.18,-891.43 340.18,-891.43"/>
<polygon fill="none" stroke="black" points="340.18,-891.43 340.18,-914.43 481.18,-914.43 481.18,-891.43 340.18,-891.43"/>
<text text-anchor="start" x="344.18" y="-899.23" font-family="arial" font-size="14.00" fill="white">Waiting Room 4 (106)</text>
<polygon fill="#fd9a4f" stroke="transparent" points="340.18,-868.43 340.18,-891.43 481.18,-891.43 481.18,-868.43 340.18,-868.43"/>
<polygon fill="none" stroke="black" points="340.18,-868.43 340.18,-891.43 481.18,-891.43 481.18,-868.43 340.18,-868.43"/>
<text text-anchor="start" x="399.68" y="-876.23" font-family="arial" font-size="14.00" fill="white">57s</text>
</g>
<!-- A1&#45;&gt;A2 -->
<g id="edge4" class="edge">
<title>A1&#45;&gt;A2</title>
<path fill="none" stroke="black" stroke-width="1.6" d="M325.37,-984.24C341.17,-967.13 361.97,-944.62 379.01,-926.17"/>
<polygon fill="black" stroke="black" stroke-width="1.6" points="381.84,-928.26 386.06,-918.54 376.7,-923.51 381.84,-928.26"/>
<polygon fill="snow" stroke="transparent" points="368.68,-951.43 368.68,-966.43 421.68,-966.43 421.68,-951.43 368.68,-951.43"/>
<text text-anchor="start" x="387.18" y="-955.23" font-family="arial" font-size="14.00" fill="#90c2de">10</text>
<polygon fill="snow" stroke="transparent" points="368.68,-936.43 368.68,-951.43 421.68,-951.43 421.68,-936.43 368.68,-936.43"/>
<text text-anchor="start" x="368.68" y="-940.23" font-family="arial" font-size="14.00" fill="#fc994d">01m 24s</text>
</g>
<!-- A3 -->
<g id="node6" class="node">
<title>A3</title>
<polygon fill="#5da4d0" stroke="transparent" points="51.18,-771.43 51.18,-794.43 216.18,-794.43 216.18,-771.43 51.18,-771.43"/>
<polygon fill="none" stroke="black" points="51.18,-771.43 51.18,-794.43 216.18,-794.43 216.18,-771.43 51.18,-771.43"/>
<text text-anchor="start" x="55.18" y="-779.23" font-family="arial" font-size="14.00" fill="white">IDE office&#45;Verification (32)</text>
<polygon fill="#fc9143" stroke="transparent" points="51.18,-748.43 51.18,-771.43 216.18,-771.43 216.18,-748.43 51.18,-748.43"/>
<polygon fill="none" stroke="black" points="51.18,-748.43 51.18,-771.43 216.18,-771.43 216.18,-748.43 51.18,-748.43"/>
<text text-anchor="start" x="107.18" y="-756.23" font-family="arial" font-size="14.00" fill="white">05m 20s</text>
</g>
<!-- A1&#45;&gt;A3 -->
<g id="edge26" class="edge">
<title>A1&#45;&gt;A3</title>
<path fill="none" stroke="black" d="M226.6,-984.33C218.04,-979.28 209.97,-973.35 203.18,-966.43 160.58,-922.96 143.69,-851.68 137.15,-808.69"/>
<polygon fill="black" stroke="black" points="140.6,-808.08 135.73,-798.67 133.66,-809.06 140.6,-808.08"/>
<polygon fill="snow" stroke="transparent" points="169.68,-891.43 169.68,-906.43 222.68,-906.43 222.68,-891.43 169.68,-891.43"/>
<text text-anchor="start" x="192.18" y="-895.23" font-family="arial" font-size="14.00" fill="#a4cce4">1</text>
<polygon fill="snow" stroke="transparent" points="169.68,-876.43 169.68,-891.43 222.68,-891.43 222.68,-876.43 169.68,-876.43"/>
<text text-anchor="start" x="169.68" y="-880.23" font-family="arial" font-size="14.00" fill="#fd9a4f">01m 00s</text>
</g>
<!-- A2&#45;&gt;A2 -->
<g id="edge15" class="edge">
<title>A2&#45;&gt;A2</title>
<path fill="none" stroke="black" stroke-width="1.6" d="M488.93,-901.41C499.59,-899.73 506.68,-896.41 506.68,-891.43 506.68,-888.24 503.77,-885.72 498.87,-883.89"/>
<polygon fill="black" stroke="black" stroke-width="1.6" points="499.48,-880.44 488.93,-881.45 497.81,-887.23 499.48,-880.44"/>
<polygon fill="snow" stroke="transparent" points="507.18,-891.43 507.18,-906.43 560.18,-906.43 560.18,-891.43 507.18,-891.43"/>
<text text-anchor="start" x="525.68" y="-895.23" font-family="arial" font-size="14.00" fill="#90c2de">10</text>
<polygon fill="snow" stroke="transparent" points="507.18,-876.43 507.18,-891.43 560.18,-891.43 560.18,-876.43 507.18,-876.43"/>
<text text-anchor="start" x="507.18" y="-880.23" font-family="arial" font-size="14.00" fill="#f67926">17m 18s</text>
</g>
<!-- A2&#45;&gt;A3 -->
<g id="edge5" class="edge">
<title>A2&#45;&gt;A3</title>
<path fill="none" stroke="black" stroke-width="2.8" d="M331.29,-883.81C296.29,-877.96 255.93,-866.98 224.18,-846.43 210.07,-837.3 213.52,-827.82 201.18,-816.43 196.64,-812.23 191.65,-808.18 186.5,-804.35"/>
<polygon fill="black" stroke="black" stroke-width="2.8" points="188.5,-801.47 178.32,-798.51 184.43,-807.17 188.5,-801.47"/>
<polygon fill="snow" stroke="transparent" points="224.18,-831.43 224.18,-846.43 246.18,-846.43 246.18,-831.43 224.18,-831.43"/>
<text text-anchor="start" x="227.18" y="-835.23" font-family="arial" font-size="14.00" fill="#66aad3">28</text>
<polygon fill="snow" stroke="transparent" points="224.18,-816.43 224.18,-831.43 246.18,-831.43 246.18,-816.43 224.18,-816.43"/>
<text text-anchor="start" x="224.18" y="-820.23" font-family="arial" font-size="14.00" fill="#fd9a4f">51s</text>
</g>
<!-- A4 -->
<g id="node7" class="node">
<title>A4</title>
<polygon fill="#4d99ca" stroke="transparent" points="178.18,-483.43 178.18,-506.43 348.18,-506.43 348.18,-483.43 178.18,-483.43"/>
<polygon fill="none" stroke="black" points="178.18,-483.43 178.18,-506.43 348.18,-506.43 348.18,-483.43 178.18,-483.43"/>
<text text-anchor="start" x="182.18" y="-491.23" font-family="arial" font-size="14.00" fill="white">Nephrology consulting (40)</text>
<polygon fill="#e75c0d" stroke="transparent" points="178.18,-460.43 178.18,-483.43 348.18,-483.43 348.18,-460.43 178.18,-460.43"/>
<polygon fill="none" stroke="black" points="178.18,-460.43 178.18,-483.43 348.18,-483.43 348.18,-460.43 178.18,-460.43"/>
<text text-anchor="start" x="236.68" y="-468.23" font-family="arial" font-size="14.00" fill="white">31m 54s</text>
</g>
<!-- A2&#45;&gt;A4 -->
<g id="edge7" class="edge">
<title>A2&#45;&gt;A4</title>
<path fill="none" stroke="black" stroke-width="3.27" d="M369.19,-864.35C363.13,-859.03 357.49,-853.02 353.18,-846.43 323.09,-800.42 335.94,-779.9 323.18,-726.43 302.23,-638.65 302.77,-615.25 278.18,-528.43 277.44,-525.82 276.64,-523.15 275.8,-520.46"/>
<polygon fill="black" stroke="black" stroke-width="3.27" points="279.09,-519.24 272.68,-510.81 272.43,-521.4 279.09,-519.24"/>
<polygon fill="snow" stroke="transparent" points="323.18,-699.43 323.18,-714.43 345.18,-714.43 345.18,-699.43 323.18,-699.43"/>
<text text-anchor="start" x="326.18" y="-703.23" font-family="arial" font-size="14.00" fill="#57a0ce">35</text>
<polygon fill="snow" stroke="transparent" points="323.18,-684.43 323.18,-699.43 345.18,-699.43 345.18,-684.43 323.18,-684.43"/>
<text text-anchor="start" x="323.18" y="-688.23" font-family="arial" font-size="14.00" fill="#fd9b50">42s</text>
</g>
<!-- A5 -->
<g id="node8" class="node">
<title>A5</title>
<polygon fill="#81badb" stroke="transparent" points="260.18,-243.43 260.18,-266.43 517.18,-266.43 517.18,-243.43 260.18,-243.43"/>
<polygon fill="none" stroke="black" points="260.18,-243.43 260.18,-266.43 517.18,-266.43 517.18,-243.43 260.18,-243.43"/>
<text text-anchor="start" x="264.18" y="-251.23" font-family="arial" font-size="14.00" fill="white">Checkout of UROLOGY Department (16)</text>
<polygon fill="#fc9548" stroke="transparent" points="260.18,-220.43 260.18,-243.43 517.18,-243.43 517.18,-220.43 260.18,-220.43"/>
<polygon fill="none" stroke="black" points="260.18,-220.43 260.18,-243.43 517.18,-243.43 517.18,-220.43 260.18,-220.43"/>
<text text-anchor="start" x="362.18" y="-228.23" font-family="arial" font-size="14.00" fill="white">03m 41s</text>
</g>
<!-- A2&#45;&gt;A5 -->
<g id="edge32" class="edge">
<title>A2&#45;&gt;A5</title>
<path fill="none" stroke="black" stroke-width="1.07" d="M419.01,-864.4C429.36,-832.38 445.91,-776.14 452.18,-726.43 464.55,-628.25 415.86,-607.79 398.18,-510.43 383.49,-429.56 384.38,-332.67 386.3,-281.05"/>
<polygon fill="black" stroke="black" stroke-width="1.07" points="389.81,-280.88 386.72,-270.74 382.81,-280.59 389.81,-280.88"/>
<polygon fill="snow" stroke="transparent" points="420.68,-555.43 420.68,-570.43 473.68,-570.43 473.68,-555.43 420.68,-555.43"/>
<text text-anchor="start" x="443.18" y="-559.23" font-family="arial" font-size="14.00" fill="#a1cbe3">2</text>
<polygon fill="snow" stroke="transparent" points="420.68,-540.43 420.68,-555.43 473.68,-555.43 473.68,-540.43 420.68,-540.43"/>
<text text-anchor="start" x="420.68" y="-544.23" font-family="arial" font-size="14.00" fill="#ea6010">29m 30s</text>
</g>
<!-- A8 -->
<g id="node11" class="node">
<title>A8</title>
<polygon fill="#87bddc" stroke="transparent" points="139.18,-627.43 139.18,-650.43 200.18,-650.43 200.18,-627.43 139.18,-627.43"/>
<polygon fill="none" stroke="black" points="139.18,-627.43 139.18,-650.43 200.18,-650.43 200.18,-627.43 139.18,-627.43"/>
<text text-anchor="start" x="143.68" y="-635.23" font-family="arial" font-size="14.00" fill="white">WC (14)</text>
<polygon fill="#fc974a" stroke="transparent" points="139.18,-604.43 139.18,-627.43 200.18,-627.43 200.18,-604.43 139.18,-604.43"/>
<polygon fill="none" stroke="black" points="139.18,-604.43 139.18,-627.43 200.18,-627.43 200.18,-604.43 139.18,-604.43"/>
<text text-anchor="start" x="143.18" y="-612.23" font-family="arial" font-size="14.00" fill="white">02m 47s</text>
</g>
<!-- A2&#45;&gt;A8 -->
<g id="edge25" class="edge">
<title>A2&#45;&gt;A8</title>
<path fill="none" stroke="black" stroke-width="1.73" d="M331.58,-879.54C281.8,-871.94 216.28,-860.62 159.18,-846.43 92.07,-829.75 51.84,-854.36 11.18,-798.43 -30.74,-740.77 60.74,-681.61 121.26,-650.56"/>
<polygon fill="black" stroke="black" stroke-width="1.73" points="122.95,-653.63 130.31,-646.01 119.81,-647.38 122.95,-653.63"/>
<polygon fill="snow" stroke="transparent" points="11.18,-771.43 11.18,-786.43 33.18,-786.43 33.18,-771.43 11.18,-771.43"/>
<text text-anchor="start" x="14.18" y="-775.23" font-family="arial" font-size="14.00" fill="#8bc0dd">12</text>
<polygon fill="snow" stroke="transparent" points="11.18,-756.43 11.18,-771.43 33.18,-771.43 33.18,-756.43 11.18,-756.43"/>
<text text-anchor="start" x="11.18" y="-760.23" font-family="arial" font-size="14.00" fill="#fd9b50">40s</text>
</g>
<!-- A9 -->
<g id="node12" class="node">
<title>A9</title>
<polygon fill="#97c6e0" stroke="transparent" points="438.18,-363.43 438.18,-386.43 559.18,-386.43 559.18,-363.43 438.18,-363.43"/>
<polygon fill="none" stroke="black" points="438.18,-363.43 438.18,-386.43 559.18,-386.43 559.18,-363.43 438.18,-363.43"/>
<text text-anchor="start" x="442.18" y="-371.23" font-family="arial" font-size="14.00" fill="white">Sampling room (7)</text>
<polygon fill="#fb8e3f" stroke="transparent" points="438.18,-340.43 438.18,-363.43 559.18,-363.43 559.18,-340.43 438.18,-340.43"/>
<polygon fill="none" stroke="black" points="438.18,-340.43 438.18,-363.43 559.18,-363.43 559.18,-340.43 438.18,-340.43"/>
<text text-anchor="start" x="472.18" y="-348.23" font-family="arial" font-size="14.00" fill="white">07m 00s</text>
</g>
<!-- A2&#45;&gt;A9 -->
<g id="edge16" class="edge">
<title>A2&#45;&gt;A9</title>
<path fill="none" stroke="black" stroke-width="1.33" d="M452.63,-864.37C458.36,-859.11 463.51,-853.11 467.18,-846.43 539.22,-714.94 489.99,-660.18 497.18,-510.43 498.97,-473.11 499.03,-430.36 498.76,-400.81"/>
<polygon fill="black" stroke="black" stroke-width="1.33" points="502.26,-400.52 498.65,-390.55 495.26,-400.59 502.26,-400.52"/>
<polygon fill="snow" stroke="transparent" points="503.18,-627.43 503.18,-642.43 525.18,-642.43 525.18,-627.43 503.18,-627.43"/>
<text text-anchor="start" x="510.18" y="-631.23" font-family="arial" font-size="14.00" fill="#99c6e1">6</text>
<polygon fill="snow" stroke="transparent" points="503.18,-612.43 503.18,-627.43 525.18,-627.43 525.18,-612.43 503.18,-612.43"/>
<text text-anchor="start" x="503.18" y="-616.23" font-family="arial" font-size="14.00" fill="#fd9a4f">50s</text>
</g>
<!-- A11 -->
<g id="node14" class="node">
<title>A11</title>
<polygon fill="#94c4df" stroke="transparent" points="736.18,-363.43 736.18,-386.43 927.18,-386.43 927.18,-363.43 736.18,-363.43"/>
<polygon fill="none" stroke="black" points="736.18,-363.43 736.18,-386.43 927.18,-386.43 927.18,-363.43 736.18,-363.43"/>
<text text-anchor="start" x="740.18" y="-371.23" font-family="arial" font-size="14.00" fill="white">Paramedical Programming (8)</text>
<polygon fill="#fc9042" stroke="transparent" points="736.18,-340.43 736.18,-363.43 927.18,-363.43 927.18,-340.43 736.18,-340.43"/>
<polygon fill="none" stroke="black" points="736.18,-340.43 736.18,-363.43 927.18,-363.43 927.18,-340.43 736.18,-340.43"/>
<text text-anchor="start" x="805.18" y="-348.23" font-family="arial" font-size="14.00" fill="white">06m 00s</text>
</g>
<!-- A2&#45;&gt;A11 -->
<g id="edge23" class="edge">
<title>A2&#45;&gt;A11</title>
<path fill="none" stroke="black" stroke-width="1.47" d="M488.86,-884.21C565.53,-877.23 676.08,-864.49 715.18,-846.43 760.35,-825.56 799.18,-822.18 799.18,-772.43 799.18,-772.43 799.18,-772.43 799.18,-482.43 799.18,-454.01 807.93,-423.04 816.28,-399.97"/>
<polygon fill="black" stroke="black" stroke-width="1.47" points="819.56,-401.18 819.81,-390.59 813.01,-398.72 819.56,-401.18"/>
<polygon fill="snow" stroke="transparent" points="799.68,-627.43 799.68,-642.43 852.68,-642.43 852.68,-627.43 799.68,-627.43"/>
<text text-anchor="start" x="822.18" y="-631.23" font-family="arial" font-size="14.00" fill="#94c4df">8</text>
<polygon fill="snow" stroke="transparent" points="799.68,-612.43 799.68,-627.43 852.68,-627.43 852.68,-612.43 799.68,-612.43"/>
<text text-anchor="start" x="799.68" y="-616.23" font-family="arial" font-size="14.00" fill="#fd9a4f">01m 00s</text>
</g>
<!-- A12 -->
<g id="node15" class="node">
<title>A12</title>
<polygon fill="#a0cae3" stroke="transparent" points="599.18,-699.43 599.18,-722.43 726.18,-722.43 726.18,-699.43 599.18,-699.43"/>
<polygon fill="none" stroke="black" points="599.18,-699.43 599.18,-722.43 726.18,-722.43 726.18,-699.43 599.18,-699.43"/>
<text text-anchor="start" x="603.18" y="-707.23" font-family="arial" font-size="14.00" fill="white">Box Param‚dical (3)</text>
<polygon fill="#ac3803" stroke="transparent" points="599.18,-676.43 599.18,-699.43 726.18,-699.43 726.18,-676.43 599.18,-676.43"/>
<polygon fill="none" stroke="black" points="599.18,-676.43 599.18,-699.43 726.18,-699.43 726.18,-676.43 599.18,-676.43"/>
<text text-anchor="start" x="636.18" y="-684.23" font-family="arial" font-size="14.00" fill="white">57m 40s</text>
</g>
<!-- A2&#45;&gt;A12 -->
<g id="edge27" class="edge">
<title>A2&#45;&gt;A12</title>
<path fill="none" stroke="black" stroke-width="1.13" d="M488.88,-885.09C547.36,-879.41 620.45,-868.12 641.18,-846.43 668.72,-817.61 670.53,-769.86 667.72,-736.85"/>
<polygon fill="black" stroke="black" stroke-width="1.13" points="671.18,-736.29 666.67,-726.7 664.22,-737.01 671.18,-736.29"/>
<polygon fill="snow" stroke="transparent" points="658.68,-831.43 658.68,-846.43 711.68,-846.43 711.68,-831.43 658.68,-831.43"/>
<text text-anchor="start" x="681.18" y="-835.23" font-family="arial" font-size="14.00" fill="#a0cae3">3</text>
<polygon fill="snow" stroke="transparent" points="658.68,-816.43 658.68,-831.43 711.68,-831.43 711.68,-816.43 658.68,-816.43"/>
<text text-anchor="start" x="658.68" y="-820.23" font-family="arial" font-size="14.00" fill="#fc994d">01m 40s</text>
</g>
<!-- A13 -->
<g id="node16" class="node">
<title>A13</title>
<polygon fill="#a1cbe3" stroke="transparent" points="1018.18,-555.43 1018.18,-578.43 1219.18,-578.43 1219.18,-555.43 1018.18,-555.43"/>
<polygon fill="none" stroke="black" points="1018.18,-555.43 1018.18,-578.43 1219.18,-578.43 1219.18,-555.43 1018.18,-555.43"/>
<text text-anchor="start" x="1022.18" y="-563.23" font-family="arial" font-size="14.00" fill="white">Other specialities consulting &#160;(2)</text>
<polygon fill="#dc5107" stroke="transparent" points="1018.18,-532.43 1018.18,-555.43 1219.18,-555.43 1219.18,-532.43 1018.18,-532.43"/>
<polygon fill="none" stroke="black" points="1018.18,-532.43 1018.18,-555.43 1219.18,-555.43 1219.18,-532.43 1018.18,-532.43"/>
<text text-anchor="start" x="1092.18" y="-540.23" font-family="arial" font-size="14.00" fill="white">38m 30s</text>
</g>
<!-- A2&#45;&gt;A13 -->
<g id="edge33" class="edge">
<title>A2&#45;&gt;A13</title>
<path fill="none" stroke="black" stroke-width="1.07" d="M488.86,-888.62C635.14,-884.65 937.78,-873.26 977.18,-846.43 1065.06,-786.58 1100.15,-655.91 1112.41,-592.45"/>
<polygon fill="black" stroke="black" stroke-width="1.07" points="1115.88,-592.97 1114.25,-582.5 1108.99,-591.7 1115.88,-592.97"/>
<polygon fill="snow" stroke="transparent" points="1061.68,-771.43 1061.68,-786.43 1114.68,-786.43 1114.68,-771.43 1061.68,-771.43"/>
<text text-anchor="start" x="1084.18" y="-775.23" font-family="arial" font-size="14.00" fill="#a1cbe3">2</text>
<polygon fill="snow" stroke="transparent" points="1061.68,-756.43 1061.68,-771.43 1114.68,-771.43 1114.68,-756.43 1061.68,-756.43"/>
<text text-anchor="start" x="1061.68" y="-760.23" font-family="arial" font-size="14.00" fill="#fd9a4f">01m 00s</text>
</g>
<!-- A3&#45;&gt;A2 -->
<g id="edge6" class="edge">
<title>A3&#45;&gt;A2</title>
<path fill="none" stroke="black" stroke-width="2.73" d="M146.71,-798.73C157.21,-818.69 170.7,-843.23 175.18,-846.43 198.53,-863.09 265.15,-874.58 321.53,-881.63"/>
<polygon fill="black" stroke="black" stroke-width="2.73" points="321.21,-885.12 331.56,-882.86 322.06,-878.17 321.21,-885.12"/>
<polygon fill="snow" stroke="transparent" points="175.18,-831.43 175.18,-846.43 197.18,-846.43 197.18,-831.43 175.18,-831.43"/>
<text text-anchor="start" x="178.18" y="-835.23" font-family="arial" font-size="14.00" fill="#68abd4">27</text>
<polygon fill="snow" stroke="transparent" points="175.18,-816.43 175.18,-831.43 197.18,-831.43 197.18,-816.43 175.18,-816.43"/>
<text text-anchor="start" x="175.18" y="-820.23" font-family="arial" font-size="14.00" fill="#fd9c52">02s</text>
</g>
<!-- A3&#45;&gt;A4 -->
<g id="edge21" class="edge">
<title>A3&#45;&gt;A4</title>
<path fill="none" stroke="black" stroke-width="1.2" d="M194.27,-744.25C201.7,-739.16 208.61,-733.24 214.18,-726.43 262.76,-666.95 267.34,-572.19 265.72,-520.67"/>
<polygon fill="black" stroke="black" stroke-width="1.2" points="269.21,-520.51 265.3,-510.66 262.22,-520.8 269.21,-520.51"/>
<polygon fill="snow" stroke="transparent" points="261.18,-627.43 261.18,-642.43 283.18,-642.43 283.18,-627.43 261.18,-627.43"/>
<text text-anchor="start" x="268.18" y="-631.23" font-family="arial" font-size="14.00" fill="#9dc9e2">4</text>
<polygon fill="snow" stroke="transparent" points="261.18,-612.43 261.18,-627.43 283.18,-627.43 283.18,-612.43 261.18,-612.43"/>
<text text-anchor="start" x="261.18" y="-616.23" font-family="arial" font-size="14.00" fill="#fd9b50">30s</text>
</g>
<!-- A3&#45;&gt;A8 -->
<g id="edge13" class="edge">
<title>A3&#45;&gt;A8</title>
<path fill="none" stroke="black" d="M139.78,-744.38C145.45,-722 153.69,-689.5 160.01,-664.6"/>
<polygon fill="black" stroke="black" points="163.43,-665.34 162.5,-654.79 156.65,-663.62 163.43,-665.34"/>
<polygon fill="snow" stroke="transparent" points="157.68,-699.43 157.68,-714.43 210.68,-714.43 210.68,-699.43 157.68,-699.43"/>
<text text-anchor="start" x="180.18" y="-703.23" font-family="arial" font-size="14.00" fill="#a4cce4">1</text>
<polygon fill="snow" stroke="transparent" points="157.68,-684.43 157.68,-699.43 210.68,-699.43 210.68,-684.43 157.68,-684.43"/>
<text text-anchor="start" x="157.68" y="-688.23" font-family="arial" font-size="14.00" fill="#fd9a4f">01m 00s</text>
</g>
<!-- A4&#45;&gt;A2 -->
<g id="edge22" class="edge">
<title>A4&#45;&gt;A2</title>
<path fill="none" stroke="black" stroke-width="1.93" d="M286.63,-510.83C290.86,-516.39 294.94,-522.41 298.18,-528.43 329.36,-586.36 380.19,-774.75 400.93,-854.38"/>
<polygon fill="black" stroke="black" stroke-width="1.93" points="397.63,-855.62 403.53,-864.42 404.41,-853.86 397.63,-855.62"/>
<polygon fill="snow" stroke="transparent" points="365.18,-699.43 365.18,-714.43 449.18,-714.43 449.18,-699.43 365.18,-699.43"/>
<text text-anchor="start" x="399.18" y="-703.23" font-family="arial" font-size="14.00" fill="#84bbdb">15</text>
<polygon fill="snow" stroke="transparent" points="365.18,-684.43 365.18,-699.43 449.18,-699.43 449.18,-684.43 365.18,-684.43"/>
<text text-anchor="start" x="365.18" y="-688.23" font-family="arial" font-size="14.00" fill="#fdb475">12m 04d 23h </text>
</g>
<!-- A4&#45;&gt;A5 -->
<g id="edge8" class="edge">
<title>A4&#45;&gt;A5</title>
<path fill="none" stroke="black" stroke-width="1.53" d="M270.21,-456.34C278.9,-426.31 295.25,-376.03 317.18,-336.43 328.52,-315.95 344.16,-295.14 357.88,-278.5"/>
<polygon fill="black" stroke="black" stroke-width="1.53" points="360.69,-280.6 364.43,-270.69 355.32,-276.1 360.69,-280.6"/>
<polygon fill="snow" stroke="transparent" points="317.68,-363.43 317.68,-378.43 370.68,-378.43 370.68,-363.43 317.68,-363.43"/>
<text text-anchor="start" x="340.18" y="-367.23" font-family="arial" font-size="14.00" fill="#91c3df">9</text>
<polygon fill="snow" stroke="transparent" points="317.68,-348.43 317.68,-363.43 370.68,-363.43 370.68,-348.43 317.68,-348.43"/>
<text text-anchor="start" x="317.68" y="-352.23" font-family="arial" font-size="14.00" fill="#fd9a4f">01m 13s</text>
</g>
<!-- A6 -->
<g id="node9" class="node">
<title>A6</title>
<polygon fill="#4d99ca" stroke="transparent" points="638.18,-123.43 638.18,-146.43 791.18,-146.43 791.18,-123.43 638.18,-123.43"/>
<polygon fill="none" stroke="black" points="638.18,-123.43 638.18,-146.43 791.18,-146.43 791.18,-123.43 638.18,-123.43"/>
<text text-anchor="start" x="642.18" y="-131.23" font-family="arial" font-size="14.00" fill="white">Exit of Consultation (40)</text>
<polygon fill="#fd9c52" stroke="transparent" points="638.18,-100.43 638.18,-123.43 791.18,-123.43 791.18,-100.43 638.18,-100.43"/>
<polygon fill="none" stroke="black" points="638.18,-100.43 638.18,-123.43 791.18,-123.43 791.18,-100.43 638.18,-100.43"/>
<text text-anchor="start" x="694.18" y="-108.23" font-family="arial" font-size="14.00" fill="white">Instant</text>
</g>
<!-- A4&#45;&gt;A6 -->
<g id="edge12" class="edge">
<title>A4&#45;&gt;A6</title>
<path fill="none" stroke="black" stroke-width="1.93" d="M250.53,-456.19C227.42,-403.98 185.77,-286.14 243.18,-216.43 289.87,-159.74 495.62,-137.5 619.21,-129.14"/>
<polygon fill="black" stroke="black" stroke-width="1.93" points="619.69,-132.62 629.44,-128.47 619.23,-125.63 619.69,-132.62"/>
<polygon fill="snow" stroke="transparent" points="214.68,-303.43 214.68,-318.43 267.68,-318.43 267.68,-303.43 214.68,-303.43"/>
<text text-anchor="start" x="233.18" y="-307.23" font-family="arial" font-size="14.00" fill="#84bbdb">15</text>
<polygon fill="snow" stroke="transparent" points="214.68,-288.43 214.68,-303.43 267.68,-303.43 267.68,-288.43 214.68,-288.43"/>
<text text-anchor="start" x="214.68" y="-292.23" font-family="arial" font-size="14.00" fill="#fc974a">02m 36s</text>
</g>
<!-- A4&#45;&gt;A9 -->
<g id="edge30" class="edge">
<title>A4&#45;&gt;A9</title>
<path fill="none" stroke="black" d="M315.04,-456.38C350.93,-438.37 398.84,-414.31 436.66,-395.32"/>
<polygon fill="black" stroke="black" points="438.68,-398.22 446.04,-390.61 435.54,-391.96 438.68,-398.22"/>
<polygon fill="snow" stroke="transparent" points="408.68,-423.43 408.68,-438.43 461.68,-438.43 461.68,-423.43 408.68,-423.43"/>
<text text-anchor="start" x="431.18" y="-427.23" font-family="arial" font-size="14.00" fill="#a4cce4">1</text>
<polygon fill="snow" stroke="transparent" points="408.68,-408.43 408.68,-423.43 461.68,-423.43 461.68,-408.43 408.68,-408.43"/>
<text text-anchor="start" x="408.68" y="-412.23" font-family="arial" font-size="14.00" fill="#fd9a4f">01m 00s</text>
</g>
<!-- A5&#45;&gt;A6 -->
<g id="edge9" class="edge">
<title>A5&#45;&gt;A6</title>
<path fill="none" stroke="black" stroke-width="2" d="M460.12,-216.38C511.05,-197.95 579.44,-173.2 632.43,-154.02"/>
<polygon fill="black" stroke="black" stroke-width="2" points="633.92,-157.2 642.14,-150.5 631.54,-150.62 633.92,-157.2"/>
<polygon fill="snow" stroke="transparent" points="589.68,-183.43 589.68,-198.43 642.68,-198.43 642.68,-183.43 589.68,-183.43"/>
<text text-anchor="start" x="608.18" y="-187.23" font-family="arial" font-size="14.00" fill="#81badb">16</text>
<polygon fill="snow" stroke="transparent" points="589.68,-168.43 589.68,-183.43 642.68,-183.43 642.68,-168.43 589.68,-168.43"/>
<text text-anchor="start" x="589.68" y="-172.23" font-family="arial" font-size="14.00" fill="#fc9649">03m 07s</text>
</g>
<!-- A6&#45;&gt;complete -->
<g id="edge2" class="edge">
<title>A6&#45;&gt;complete</title>
<path fill="none" stroke="#bfbfbf" stroke-width="3.6" stroke-dasharray="5,2" d="M714.18,-96.36C714.18,-79.54 714.18,-57.99 714.18,-42.46"/>
<polygon fill="white" stroke="transparent" points="714.68,-60.43 714.68,-78.43 733.68,-78.43 733.68,-60.43 714.68,-60.43"/>
<text text-anchor="start" x="714.68" y="-65.63" font-family="arial" font-size="16.00" fill="#4d99ca">40</text>
</g>
<!-- A7&#45;&gt;A2 -->
<g id="edge11" class="edge">
<title>A7&#45;&gt;A2</title>
<path fill="none" stroke="black" stroke-width="2.67" d="M161.77,-984.33C197.94,-969.88 243.93,-951.8 285.18,-936.43 298.02,-931.64 311.64,-926.7 325,-921.94"/>
<polygon fill="black" stroke="black" stroke-width="2.67" points="326.41,-925.15 334.66,-918.51 324.07,-918.56 326.41,-925.15"/>
<polygon fill="snow" stroke="transparent" points="285.68,-951.43 285.68,-966.43 338.68,-966.43 338.68,-951.43 285.68,-951.43"/>
<text text-anchor="start" x="304.18" y="-955.23" font-family="arial" font-size="14.00" fill="#6badd5">26</text>
<polygon fill="snow" stroke="transparent" points="285.68,-936.43 285.68,-951.43 338.68,-951.43 338.68,-936.43 285.68,-936.43"/>
<text text-anchor="start" x="285.68" y="-940.23" font-family="arial" font-size="14.00" fill="#fd9a4f">01m 06s</text>
</g>
<!-- A7&#45;&gt;A3 -->
<g id="edge19" class="edge">
<title>A7&#45;&gt;A3</title>
<path fill="none" stroke="black" stroke-width="1.13" d="M76.25,-984.35C55.35,-954.96 28.55,-905.88 45.18,-864.43 54.31,-841.66 72.07,-821.34 89.26,-805.62"/>
<polygon fill="black" stroke="black" stroke-width="1.13" points="91.89,-807.97 97.08,-798.73 87.26,-802.72 91.89,-807.97"/>
<polygon fill="snow" stroke="transparent" points="45.68,-891.43 45.68,-906.43 98.68,-906.43 98.68,-891.43 45.68,-891.43"/>
<text text-anchor="start" x="68.18" y="-895.23" font-family="arial" font-size="14.00" fill="#a0cae3">3</text>
<polygon fill="snow" stroke="transparent" points="45.68,-876.43 45.68,-891.43 98.68,-891.43 98.68,-876.43 45.68,-876.43"/>
<text text-anchor="start" x="45.68" y="-880.23" font-family="arial" font-size="14.00" fill="#fd9a4f">01m 00s</text>
</g>
<!-- A8&#45;&gt;A2 -->
<g id="edge14" class="edge">
<title>A8&#45;&gt;A2</title>
<path fill="none" stroke="black" stroke-width="1.73" d="M198.88,-654.5C204.35,-660.09 209.73,-666.2 214.18,-672.43 266.17,-745.17 243.93,-792.4 315.18,-846.43 321.39,-851.14 328.19,-855.5 335.2,-859.51"/>
<polygon fill="black" stroke="black" stroke-width="1.73" points="333.71,-862.69 344.17,-864.39 337.06,-856.54 333.71,-862.69"/>
<polygon fill="snow" stroke="transparent" points="270.68,-771.43 270.68,-786.43 311.68,-786.43 311.68,-771.43 270.68,-771.43"/>
<text text-anchor="start" x="283.18" y="-775.23" font-family="arial" font-size="14.00" fill="#8bc0dd">12</text>
<polygon fill="snow" stroke="transparent" points="270.68,-756.43 270.68,-771.43 311.68,-771.43 311.68,-756.43 270.68,-756.43"/>
<text text-anchor="start" x="270.68" y="-760.23" font-family="arial" font-size="14.00" fill="#fd9c52">Instant</text>
</g>
<!-- A8&#45;&gt;A4 -->
<g id="edge39" class="edge">
<title>A8&#45;&gt;A4</title>
<path fill="none" stroke="black" d="M174.48,-600.33C179.69,-579.38 189.22,-549.99 205.18,-528.43 208.03,-524.57 211.32,-520.88 214.85,-517.41"/>
<polygon fill="black" stroke="black" points="217.31,-519.89 222.36,-510.58 212.6,-514.71 217.31,-519.89"/>
<polygon fill="snow" stroke="transparent" points="205.68,-555.43 205.68,-570.43 258.68,-570.43 258.68,-555.43 205.68,-555.43"/>
<text text-anchor="start" x="228.18" y="-559.23" font-family="arial" font-size="14.00" fill="#a4cce4">1</text>
<polygon fill="snow" stroke="transparent" points="205.68,-540.43 205.68,-555.43 258.68,-555.43 258.68,-540.43 205.68,-540.43"/>
<text text-anchor="start" x="205.68" y="-544.23" font-family="arial" font-size="14.00" fill="#fd9a4f">01m 00s</text>
</g>
<!-- A8&#45;&gt;A6 -->
<g id="edge29" class="edge">
<title>A8&#45;&gt;A6</title>
<path fill="none" stroke="black" d="M161.15,-600.28C153.19,-572 142.18,-525.46 142.18,-484.43 142.18,-484.43 142.18,-484.43 142.18,-242.43 142.18,-146.15 456.93,-127.78 619.47,-124.71"/>
<polygon fill="black" stroke="black" points="619.53,-128.21 629.47,-124.54 619.41,-121.21 619.53,-128.21"/>
<polygon fill="snow" stroke="transparent" points="142.68,-363.43 142.68,-378.43 195.68,-378.43 195.68,-363.43 142.68,-363.43"/>
<text text-anchor="start" x="165.18" y="-367.23" font-family="arial" font-size="14.00" fill="#a4cce4">1</text>
<polygon fill="snow" stroke="transparent" points="142.68,-348.43 142.68,-363.43 195.68,-363.43 195.68,-348.43 142.68,-348.43"/>
<text text-anchor="start" x="142.68" y="-352.23" font-family="arial" font-size="14.00" fill="#fc984c">02m 00s</text>
</g>
<!-- A9&#45;&gt;A2 -->
<g id="edge31" class="edge">
<title>A9&#45;&gt;A2</title>
<path fill="none" stroke="black" stroke-width="1.07" d="M516.88,-390.69C531.43,-413.73 549.18,-448.73 549.18,-482.43 549.18,-772.43 549.18,-772.43 549.18,-772.43 549.18,-811.22 517.33,-839.91 484.12,-859.29"/>
<polygon fill="black" stroke="black" stroke-width="1.07" points="482.23,-856.33 475.2,-864.26 485.64,-862.44 482.23,-856.33"/>
<polygon fill="snow" stroke="transparent" points="549.18,-627.43 549.18,-642.43 633.18,-642.43 633.18,-627.43 549.18,-627.43"/>
<text text-anchor="start" x="587.18" y="-631.23" font-family="arial" font-size="14.00" fill="#a1cbe3">2</text>
<polygon fill="snow" stroke="transparent" points="549.18,-612.43 549.18,-627.43 633.18,-627.43 633.18,-612.43 549.18,-612.43"/>
<text text-anchor="start" x="549.18" y="-616.23" font-family="arial" font-size="14.00" fill="#fda35c">12m 04d 23h </text>
</g>
<!-- A9&#45;&gt;A5 -->
<g id="edge37" class="edge">
<title>A9&#45;&gt;A5</title>
<path fill="none" stroke="black" d="M473.77,-336.24C457.82,-319.13 436.83,-296.62 419.64,-278.17"/>
<polygon fill="black" stroke="black" points="421.9,-275.47 412.52,-270.54 416.78,-280.24 421.9,-275.47"/>
<polygon fill="snow" stroke="transparent" points="456.68,-303.43 456.68,-318.43 509.68,-318.43 509.68,-303.43 456.68,-303.43"/>
<text text-anchor="start" x="479.18" y="-307.23" font-family="arial" font-size="14.00" fill="#a4cce4">1</text>
<polygon fill="snow" stroke="transparent" points="456.68,-288.43 456.68,-303.43 509.68,-303.43 509.68,-288.43 456.68,-288.43"/>
<text text-anchor="start" x="456.68" y="-292.23" font-family="arial" font-size="14.00" fill="#fd9a4f">01m 00s</text>
</g>
<!-- A9&#45;&gt;A8 -->
<g id="edge20" class="edge">
<title>A9&#45;&gt;A8</title>
<path fill="none" stroke="black" d="M490.33,-390.6C484.92,-405.67 476.63,-424.35 465.18,-438.43 456.45,-449.15 274.14,-575.48 262.18,-582.43 247.99,-590.67 232,-598.66 217.34,-605.52"/>
<polygon fill="black" stroke="black" points="215.55,-602.49 207.93,-609.86 218.48,-608.85 215.55,-602.49"/>
<polygon fill="snow" stroke="transparent" points="441.68,-483.43 441.68,-498.43 494.68,-498.43 494.68,-483.43 441.68,-483.43"/>
<text text-anchor="start" x="464.18" y="-487.23" font-family="arial" font-size="14.00" fill="#a4cce4">1</text>
<polygon fill="snow" stroke="transparent" points="441.68,-468.43 441.68,-483.43 494.68,-483.43 494.68,-468.43 441.68,-468.43"/>
<text text-anchor="start" x="441.68" y="-472.23" font-family="arial" font-size="14.00" fill="#fd9a4f">01m 00s</text>
</g>
<!-- A10 -->
<g id="node13" class="node">
<title>A10</title>
<polygon fill="#a0cae3" stroke="transparent" points="551.18,-243.43 551.18,-266.43 787.18,-266.43 787.18,-243.43 551.18,-243.43"/>
<polygon fill="none" stroke="black" points="551.18,-243.43 551.18,-266.43 787.18,-266.43 787.18,-243.43 551.18,-243.43"/>
<text text-anchor="start" x="555.18" y="-251.23" font-family="arial" font-size="14.00" fill="white">Special treatment NEPHROLOGY (3)</text>
<polygon fill="#e3570a" stroke="transparent" points="551.18,-220.43 551.18,-243.43 787.18,-243.43 787.18,-220.43 551.18,-220.43"/>
<polygon fill="none" stroke="black" points="551.18,-220.43 551.18,-243.43 787.18,-243.43 787.18,-220.43 551.18,-220.43"/>
<text text-anchor="start" x="642.68" y="-228.23" font-family="arial" font-size="14.00" fill="white">34m 20s</text>
</g>
<!-- A9&#45;&gt;A10 -->
<g id="edge17" class="edge">
<title>A9&#45;&gt;A10</title>
<path fill="none" stroke="black" stroke-width="1.13" d="M566.87,-357C620.2,-351.19 687.9,-339.77 705.18,-318.43 714.62,-306.77 710.26,-292.22 701.83,-279.12"/>
<polygon fill="black" stroke="black" stroke-width="1.13" points="704.5,-276.83 695.81,-270.77 698.82,-280.93 704.5,-276.83"/>
<polygon fill="snow" stroke="transparent" points="710.68,-303.43 710.68,-318.43 751.68,-318.43 751.68,-303.43 710.68,-303.43"/>
<text text-anchor="start" x="727.18" y="-307.23" font-family="arial" font-size="14.00" fill="#a0cae3">3</text>
<polygon fill="snow" stroke="transparent" points="710.68,-288.43 710.68,-303.43 751.68,-303.43 751.68,-288.43 710.68,-288.43"/>
<text text-anchor="start" x="710.68" y="-292.23" font-family="arial" font-size="14.00" fill="#fd9c52">Instant</text>
</g>
<!-- A10&#45;&gt;A2 -->
<g id="edge18" class="edge">
<title>A10&#45;&gt;A2</title>
<path fill="none" stroke="black" stroke-width="1.13" d="M791.73,-270.44C872.4,-291.23 963.18,-323.31 963.18,-362.43 963.18,-772.43 963.18,-772.43 963.18,-772.43 963.18,-866.2 655.17,-885.73 498.89,-889.6"/>
<polygon fill="black" stroke="black" stroke-width="1.13" points="498.74,-886.11 488.82,-889.84 498.9,-893.1 498.74,-886.11"/>
<polygon fill="snow" stroke="transparent" points="963.68,-555.43 963.68,-570.43 1004.68,-570.43 1004.68,-555.43 963.68,-555.43"/>
<text text-anchor="start" x="980.18" y="-559.23" font-family="arial" font-size="14.00" fill="#a0cae3">3</text>
<polygon fill="snow" stroke="transparent" points="963.68,-540.43 963.68,-555.43 1004.68,-555.43 1004.68,-540.43 963.68,-540.43"/>
<text text-anchor="start" x="963.68" y="-544.23" font-family="arial" font-size="14.00" fill="#fd9c52">Instant</text>
</g>
<!-- A11&#45;&gt;A5 -->
<g id="edge36" class="edge">
<title>A11&#45;&gt;A5</title>
<path fill="none" stroke="black" stroke-width="1.13" d="M727.45,-351.85C699.84,-345.35 671.3,-334.97 648.18,-318.43 635.34,-309.24 642.26,-297.25 629.18,-288.43 627.98,-287.62 584.5,-279.59 534.79,-270.61"/>
<polygon fill="black" stroke="black" stroke-width="1.13" points="535.24,-267.13 524.78,-268.8 533.99,-274.02 535.24,-267.13"/>
<polygon fill="snow" stroke="transparent" points="648.68,-303.43 648.68,-318.43 701.68,-318.43 701.68,-303.43 648.68,-303.43"/>
<text text-anchor="start" x="671.18" y="-307.23" font-family="arial" font-size="14.00" fill="#a0cae3">3</text>
<polygon fill="snow" stroke="transparent" points="648.68,-288.43 648.68,-303.43 701.68,-303.43 701.68,-288.43 648.68,-288.43"/>
<text text-anchor="start" x="648.68" y="-292.23" font-family="arial" font-size="14.00" fill="#fc994d">01m 20s</text>
</g>
<!-- A11&#45;&gt;A6 -->
<g id="edge24" class="edge">
<title>A11&#45;&gt;A6</title>
<path fill="none" stroke="black" stroke-width="1.27" d="M841.03,-336.4C854.36,-296.31 872.69,-218.84 837.18,-168.43 829.76,-157.89 819.57,-149.87 808.22,-143.76"/>
<polygon fill="black" stroke="black" stroke-width="1.27" points="809.42,-140.45 798.89,-139.25 806.37,-146.75 809.42,-140.45"/>
<polygon fill="snow" stroke="transparent" points="857.68,-243.43 857.68,-258.43 910.68,-258.43 910.68,-243.43 857.68,-243.43"/>
<text text-anchor="start" x="880.18" y="-247.23" font-family="arial" font-size="14.00" fill="#9cc8e1">5</text>
<polygon fill="snow" stroke="transparent" points="857.68,-228.43 857.68,-243.43 910.68,-243.43 910.68,-228.43 857.68,-228.43"/>
<text text-anchor="start" x="857.68" y="-232.23" font-family="arial" font-size="14.00" fill="#fc974a">02m 48s</text>
</g>
<!-- A12&#45;&gt;A2 -->
<g id="edge35" class="edge">
<title>A12&#45;&gt;A2</title>
<path fill="none" stroke="black" d="M644.57,-726.63C616.51,-768.37 564.62,-845.38 563.18,-846.43 544.27,-860.14 521.18,-869.59 498.72,-876.1"/>
<polygon fill="black" stroke="black" points="497.54,-872.8 488.81,-878.81 499.38,-879.55 497.54,-872.8"/>
<polygon fill="snow" stroke="transparent" points="583.68,-831.43 583.68,-846.43 636.68,-846.43 636.68,-831.43 583.68,-831.43"/>
<text text-anchor="start" x="606.18" y="-835.23" font-family="arial" font-size="14.00" fill="#a4cce4">1</text>
<polygon fill="snow" stroke="transparent" points="583.68,-816.43 583.68,-831.43 636.68,-831.43 636.68,-816.43 583.68,-816.43"/>
<text text-anchor="start" x="583.68" y="-820.23" font-family="arial" font-size="14.00" fill="#fc984c">02m 00s</text>
</g>
<!-- A12&#45;&gt;A5 -->
<g id="edge38" class="edge">
<title>A12&#45;&gt;A5</title>
<path fill="none" stroke="black" d="M658.31,-672.29C647.09,-598.98 613.02,-393.09 576.18,-336.43 557.87,-308.27 528.27,-288.45 497.92,-274.62"/>
<polygon fill="black" stroke="black" points="499.06,-271.29 488.49,-270.51 496.27,-277.71 499.06,-271.29"/>
<polygon fill="snow" stroke="transparent" points="629.68,-483.43 629.68,-498.43 682.68,-498.43 682.68,-483.43 629.68,-483.43"/>
<text text-anchor="start" x="652.18" y="-487.23" font-family="arial" font-size="14.00" fill="#a4cce4">1</text>
<polygon fill="snow" stroke="transparent" points="629.68,-468.43 629.68,-483.43 682.68,-483.43 682.68,-468.43 629.68,-468.43"/>
<text text-anchor="start" x="629.68" y="-472.23" font-family="arial" font-size="14.00" fill="#fd9a4f">01m 00s</text>
</g>
<!-- A12&#45;&gt;A6 -->
<g id="edge28" class="edge">
<title>A12&#45;&gt;A6</title>
<path fill="none" stroke="black" d="M665.62,-672.37C676.36,-591.62 709.18,-350.1 719.18,-336.43 729.74,-321.99 740.61,-328.81 755.18,-318.43 780,-300.73 792.37,-298.53 804.18,-270.43 813.48,-248.3 813.24,-238.65 804.18,-216.43 794.81,-193.46 776.65,-173.11 759.08,-157.43"/>
<polygon fill="black" stroke="black" points="760.95,-154.42 751.08,-150.56 756.38,-159.73 760.95,-154.42"/>
<polygon fill="snow" stroke="transparent" points="703.68,-423.43 703.68,-438.43 756.68,-438.43 756.68,-423.43 703.68,-423.43"/>
<text text-anchor="start" x="726.18" y="-427.23" font-family="arial" font-size="14.00" fill="#a4cce4">1</text>
<polygon fill="snow" stroke="transparent" points="703.68,-408.43 703.68,-423.43 756.68,-423.43 756.68,-408.43 703.68,-408.43"/>
<text text-anchor="start" x="703.68" y="-412.23" font-family="arial" font-size="14.00" fill="#fc9649">03m 00s</text>
</g>
<!-- A13&#45;&gt;A6 -->
<g id="edge34" class="edge">
<title>A13&#45;&gt;A6</title>
<path fill="none" stroke="black" stroke-width="1.07" d="M1099.86,-528.4C1083.86,-503.08 1063.18,-462.9 1063.18,-424.43 1063.18,-424.43 1063.18,-424.43 1063.18,-242.43 1063.18,-188.65 912.61,-154.61 809.27,-137.58"/>
<polygon fill="black" stroke="black" stroke-width="1.07" points="809.54,-134.08 799.11,-135.93 808.42,-140.99 809.54,-134.08"/>
<polygon fill="snow" stroke="transparent" points="1063.68,-363.43 1063.68,-378.43 1116.68,-378.43 1116.68,-363.43 1063.68,-363.43"/>
<text text-anchor="start" x="1086.18" y="-367.23" font-family="arial" font-size="14.00" fill="#a1cbe3">2</text>
<polygon fill="snow" stroke="transparent" points="1063.68,-348.43 1063.68,-363.43 1116.68,-363.43 1116.68,-348.43 1063.68,-348.43"/>
<text text-anchor="start" x="1063.68" y="-352.23" font-family="arial" font-size="14.00" fill="#fc9548">03m 30s</text>
</g>
</g>
</svg>
