<?xml version="1.0" encoding="UTF-8" standalone="no"?>
<!DOCTYPE svg PUBLIC "-//W3C//DTD SVG 1.1//EN"
 "http://www.w3.org/Graphics/SVG/1.1/DTD/svg11.dtd">
<!-- Generated by graphviz version 2.43.0 (0)
 -->
<!-- Title: mpdfg Pages: 1 -->
<svg width="664pt" height="975pt"
 viewBox="0.00 0.00 664.00 974.85" xmlns="http://www.w3.org/2000/svg" xmlns:xlink="http://www.w3.org/1999/xlink">
<g id="graph0" class="graph" transform="scale(1 1) rotate(0) translate(4 970.85)">
<title>mpdfg</title>
<polygon fill="white" stroke="transparent" points="-4,4 -4,-970.85 660,-970.85 660,4 -4,4"/>
<!-- start -->
<g id="node1" class="node">
<title>start</title>
<ellipse fill="green" stroke="black" cx="197" cy="-945.64" rx="21.43" ry="21.43"/>
<text text-anchor="middle" x="197" y="-940.64" font-family="Times,serif" font-size="20.00">▲</text>
</g>
<!-- A0 -->
<g id="node3" class="node">
<title>A0</title>
<polygon fill="#3d8cc3" stroke="transparent" points="101,-843.43 101,-866.43 293,-866.43 293,-843.43 101,-843.43"/>
<polygon fill="none" stroke="black" points="101,-843.43 101,-866.43 293,-866.43 293,-843.43 101,-843.43"/>
<text text-anchor="start" x="105" y="-851.23" font-family="arial" font-size="14.00" fill="white">Enter the consultation box (69)</text>
<polygon fill="#fdaa65" stroke="transparent" points="101,-820.43 101,-843.43 293,-843.43 293,-820.43 101,-820.43"/>
<polygon fill="none" stroke="black" points="101,-820.43 101,-843.43 293,-843.43 293,-820.43 101,-820.43"/>
<text text-anchor="start" x="176.5" y="-828.23" font-family="arial" font-size="14.00" fill="white">Instant</text>
</g>
<!-- start&#45;&gt;A0 -->
<g id="edge1" class="edge">
<title>start&#45;&gt;A0</title>
<path fill="none" stroke="#bfbfbf" stroke-width="4.19" stroke-dasharray="5,2" d="M197,-924.36C197,-908.92 197,-887.53 197,-870.77"/>
<polygon fill="white" stroke="transparent" points="197.5,-888.43 197.5,-906.43 216.5,-906.43 216.5,-888.43 197.5,-888.43"/>
<text text-anchor="start" x="197.5" y="-893.63" font-family="arial" font-size="16.00" fill="#3d8cc3">69</text>
</g>
<!-- complete -->
<g id="node2" class="node">
<title>complete</title>
<ellipse fill="red" stroke="black" cx="338" cy="-21.21" rx="21.43" ry="21.43"/>
<text text-anchor="middle" x="338" y="-16.21" font-family="Times,serif" font-size="20.00">■</text>
</g>
<!-- A1 -->
<g id="node4" class="node">
<title>A1</title>
<polygon fill="#4c98ca" stroke="transparent" points="217,-723.43 217,-746.43 382,-746.43 382,-723.43 217,-723.43"/>
<polygon fill="none" stroke="black" points="217,-723.43 217,-746.43 382,-746.43 382,-723.43 217,-723.43"/>
<text text-anchor="start" x="221" y="-731.23" font-family="arial" font-size="14.00" fill="white">Registration (Normal) (57)</text>
<polygon fill="#7f2704" stroke="transparent" points="217,-700.43 217,-723.43 382,-723.43 382,-700.43 217,-700.43"/>
<polygon fill="none" stroke="black" points="217,-700.43 217,-723.43 382,-723.43 382,-700.43 217,-700.43"/>
<text text-anchor="start" x="258" y="-708.23" font-family="arial" font-size="14.00" fill="white">01h 23m 40s </text>
</g>
<!-- A0&#45;&gt;A1 -->
<g id="edge3" class="edge">
<title>A0&#45;&gt;A1</title>
<path fill="none" stroke="black" stroke-width="3.63" d="M219.64,-816.24C234.43,-799.13 253.88,-776.62 269.83,-758.17"/>
<polygon fill="black" stroke="black" stroke-width="3.63" points="272.53,-760.4 276.43,-750.54 267.24,-755.82 272.53,-760.4"/>
<polygon fill="snow" stroke="transparent" points="260.5,-783.43 260.5,-798.43 313.5,-798.43 313.5,-783.43 260.5,-783.43"/>
<text text-anchor="start" x="279" y="-787.23" font-family="arial" font-size="14.00" fill="#4c98ca">57</text>
<polygon fill="snow" stroke="transparent" points="260.5,-768.43 260.5,-783.43 313.5,-783.43 313.5,-768.43 260.5,-768.43"/>
<text text-anchor="start" x="260.5" y="-772.23" font-family="arial" font-size="14.00" fill="#fda45e">02m 45s</text>
</g>
<!-- A6 -->
<g id="node9" class="node">
<title>A6</title>
<polygon fill="#93c3df" stroke="transparent" points="8,-723.43 8,-746.43 182,-746.43 182,-723.43 8,-723.43"/>
<polygon fill="none" stroke="black" points="8,-723.43 8,-746.43 182,-746.43 182,-723.43 8,-723.43"/>
<text text-anchor="start" x="12" y="-731.23" font-family="arial" font-size="14.00" fill="white">Registration (Priorities) (12)</text>
<polygon fill="#b73c02" stroke="transparent" points="8,-700.43 8,-723.43 182,-723.43 182,-700.43 8,-700.43"/>
<polygon fill="none" stroke="black" points="8,-700.43 8,-723.43 182,-723.43 182,-700.43 8,-700.43"/>
<text text-anchor="start" x="53.5" y="-708.23" font-family="arial" font-size="14.00" fill="white">01h 01m 15s </text>
</g>
<!-- A0&#45;&gt;A6 -->
<g id="edge8" class="edge">
<title>A0&#45;&gt;A6</title>
<path fill="none" stroke="black" stroke-width="1.52" d="M174.36,-816.24C159.57,-799.13 140.12,-776.62 124.17,-758.17"/>
<polygon fill="black" stroke="black" stroke-width="1.52" points="126.76,-755.82 117.57,-750.54 121.47,-760.4 126.76,-755.82"/>
<polygon fill="snow" stroke="transparent" points="158.5,-783.43 158.5,-798.43 211.5,-798.43 211.5,-783.43 158.5,-783.43"/>
<text text-anchor="start" x="177" y="-787.23" font-family="arial" font-size="14.00" fill="#93c3df">12</text>
<polygon fill="snow" stroke="transparent" points="158.5,-768.43 158.5,-783.43 211.5,-783.43 211.5,-768.43 158.5,-768.43"/>
<text text-anchor="start" x="158.5" y="-772.23" font-family="arial" font-size="14.00" fill="#fda55f">02m 30s</text>
</g>
<!-- A2 -->
<g id="node5" class="node">
<title>A2</title>
<polygon fill="#1b68ae" stroke="transparent" points="259,-603.43 259,-626.43 451,-626.43 451,-603.43 259,-603.43"/>
<polygon fill="none" stroke="black" points="259,-603.43 259,-626.43 451,-626.43 451,-603.43 259,-603.43"/>
<text text-anchor="start" x="263" y="-611.23" font-family="arial" font-size="14.00" fill="white">Consultation UROLOGY (100)</text>
<polygon fill="#fb8b3b" stroke="transparent" points="259,-580.43 259,-603.43 451,-603.43 451,-580.43 259,-580.43"/>
<polygon fill="none" stroke="black" points="259,-580.43 259,-603.43 451,-603.43 451,-580.43 259,-580.43"/>
<text text-anchor="start" x="328.5" y="-588.23" font-family="arial" font-size="14.00" fill="white">15m 47s</text>
</g>
<!-- A1&#45;&gt;A2 -->
<g id="edge4" class="edge">
<title>A1&#45;&gt;A2</title>
<path fill="none" stroke="black" stroke-width="1.66" d="M311.43,-696.24C319.33,-679.59 329.66,-657.82 338.28,-639.66"/>
<polygon fill="black" stroke="black" stroke-width="1.66" points="341.48,-641.08 342.61,-630.54 335.16,-638.07 341.48,-641.08"/>
<polygon fill="snow" stroke="transparent" points="333.5,-663.43 333.5,-678.43 386.5,-678.43 386.5,-663.43 333.5,-663.43"/>
<text text-anchor="start" x="352" y="-667.23" font-family="arial" font-size="14.00" fill="#8dc0de">15</text>
<polygon fill="snow" stroke="transparent" points="333.5,-648.43 333.5,-663.43 386.5,-663.43 386.5,-648.43 333.5,-648.43"/>
<text text-anchor="start" x="333.5" y="-652.23" font-family="arial" font-size="14.00" fill="#fda55f">02m 28s</text>
</g>
<!-- A3 -->
<g id="node6" class="node">
<title>A3</title>
<polygon fill="#08306b" stroke="transparent" points="178,-483.43 178,-506.43 319,-506.43 319,-483.43 178,-483.43"/>
<polygon fill="none" stroke="black" points="178,-483.43 178,-506.43 319,-506.43 319,-483.43 178,-483.43"/>
<text text-anchor="start" x="182" y="-491.23" font-family="arial" font-size="14.00" fill="white">Waiting Room 5 (150)</text>
<polygon fill="#fda45e" stroke="transparent" points="178,-460.43 178,-483.43 319,-483.43 319,-460.43 178,-460.43"/>
<polygon fill="none" stroke="black" points="178,-460.43 178,-483.43 319,-483.43 319,-460.43 178,-460.43"/>
<text text-anchor="start" x="222" y="-468.23" font-family="arial" font-size="14.00" fill="white">02m 50s</text>
</g>
<!-- A1&#45;&gt;A3 -->
<g id="edge14" class="edge">
<title>A1&#45;&gt;A3</title>
<path fill="none" stroke="black" stroke-width="2.93" d="M251.56,-696.39C228.07,-680.67 202.02,-658.28 189,-630.43 171.44,-592.84 195.42,-548.52 217.87,-518.65"/>
<polygon fill="black" stroke="black" stroke-width="2.93" points="220.74,-520.67 224.13,-510.63 215.22,-516.36 220.74,-520.67"/>
<polygon fill="snow" stroke="transparent" points="189.5,-603.43 189.5,-618.43 242.5,-618.43 242.5,-603.43 189.5,-603.43"/>
<text text-anchor="start" x="208" y="-607.23" font-family="arial" font-size="14.00" fill="#62a7d2">42</text>
<polygon fill="snow" stroke="transparent" points="189.5,-588.43 189.5,-603.43 242.5,-603.43 242.5,-588.43 189.5,-588.43"/>
<text text-anchor="start" x="189.5" y="-592.23" font-family="arial" font-size="14.00" fill="#fda55f">02m 12s</text>
</g>
<!-- A2&#45;&gt;A3 -->
<g id="edge5" class="edge">
<title>A2&#45;&gt;A3</title>
<path fill="none" stroke="black" stroke-width="3.54" d="M266.46,-576.12C259.7,-571.19 253.69,-565.35 249,-558.43 241.61,-547.51 239.98,-533.47 240.68,-520.55"/>
<polygon fill="black" stroke="black" stroke-width="3.54" points="244.17,-520.81 241.68,-510.51 237.21,-520.11 244.17,-520.81"/>
<polygon fill="snow" stroke="transparent" points="249,-543.43 249,-558.43 333,-558.43 333,-543.43 249,-543.43"/>
<text text-anchor="start" x="283" y="-547.23" font-family="arial" font-size="14.00" fill="#4f9acb">55</text>
<polygon fill="snow" stroke="transparent" points="249,-528.43 249,-543.43 333,-543.43 333,-528.43 249,-528.43"/>
<text text-anchor="start" x="249" y="-532.23" font-family="arial" font-size="14.00" fill="#fdb475">12m 04d 23h </text>
</g>
<!-- A4 -->
<g id="node7" class="node">
<title>A4</title>
<polygon fill="#76b4d8" stroke="transparent" points="210,-243.43 210,-266.43 467,-266.43 467,-243.43 210,-243.43"/>
<polygon fill="none" stroke="black" points="210,-243.43 210,-266.43 467,-266.43 467,-243.43 210,-243.43"/>
<text text-anchor="start" x="214" y="-251.23" font-family="arial" font-size="14.00" fill="white">Checkout of UROLOGY Department (29)</text>
<polygon fill="#fda45e" stroke="transparent" points="210,-220.43 210,-243.43 467,-243.43 467,-220.43 210,-220.43"/>
<polygon fill="none" stroke="black" points="210,-220.43 210,-243.43 467,-243.43 467,-220.43 210,-220.43"/>
<text text-anchor="start" x="312" y="-228.23" font-family="arial" font-size="14.00" fill="white">02m 53s</text>
</g>
<!-- A2&#45;&gt;A4 -->
<g id="edge22" class="edge">
<title>A2&#45;&gt;A4</title>
<path fill="none" stroke="black" stroke-width="1.61" d="M277.16,-576.39C263.23,-570.96 249.02,-564.9 236,-558.43 141.74,-511.52 102.82,-490.13 69,-390.43 61.29,-367.7 55.04,-355.95 69,-336.43 79.35,-321.95 163.41,-294.59 234.84,-273.45"/>
<polygon fill="black" stroke="black" stroke-width="1.61" points="236.23,-276.69 244.83,-270.51 234.25,-269.98 236.23,-276.69"/>
<polygon fill="snow" stroke="transparent" points="89.5,-423.43 89.5,-438.43 142.5,-438.43 142.5,-423.43 89.5,-423.43"/>
<text text-anchor="start" x="108" y="-427.23" font-family="arial" font-size="14.00" fill="#90c2de">14</text>
<polygon fill="snow" stroke="transparent" points="89.5,-408.43 89.5,-423.43 142.5,-423.43 142.5,-408.43 89.5,-408.43"/>
<text text-anchor="start" x="89.5" y="-412.23" font-family="arial" font-size="14.00" fill="#fda661">02m 04s</text>
</g>
<!-- A5 -->
<g id="node8" class="node">
<title>A5</title>
<polygon fill="#3d8cc3" stroke="transparent" points="262,-123.43 262,-146.43 415,-146.43 415,-123.43 262,-123.43"/>
<polygon fill="none" stroke="black" points="262,-123.43 262,-146.43 415,-146.43 415,-123.43 262,-123.43"/>
<text text-anchor="start" x="266" y="-131.23" font-family="arial" font-size="14.00" fill="white">Exit of Consultation (69)</text>
<polygon fill="#fdaa65" stroke="transparent" points="262,-100.43 262,-123.43 415,-123.43 415,-100.43 262,-100.43"/>
<polygon fill="none" stroke="black" points="262,-100.43 262,-123.43 415,-123.43 415,-100.43 262,-100.43"/>
<text text-anchor="start" x="318" y="-108.23" font-family="arial" font-size="14.00" fill="white">Instant</text>
</g>
<!-- A2&#45;&gt;A5 -->
<g id="edge13" class="edge">
<title>A2&#45;&gt;A5</title>
<path fill="none" stroke="black" stroke-width="2.17" d="M459.1,-593.28C526.96,-580.93 603,-552.01 603,-484.43 603,-484.43 603,-484.43 603,-242.43 603,-165.55 508.78,-138.4 432.7,-129.01"/>
<polygon fill="black" stroke="black" stroke-width="2.17" points="432.91,-125.51 422.58,-127.84 432.11,-132.46 432.91,-125.51"/>
<polygon fill="snow" stroke="transparent" points="603.5,-363.43 603.5,-378.43 656.5,-378.43 656.5,-363.43 603.5,-363.43"/>
<text text-anchor="start" x="622" y="-367.23" font-family="arial" font-size="14.00" fill="#7bb6d9">26</text>
<polygon fill="snow" stroke="transparent" points="603.5,-348.43 603.5,-363.43 656.5,-363.43 656.5,-348.43 603.5,-348.43"/>
<text text-anchor="start" x="603.5" y="-352.23" font-family="arial" font-size="14.00" fill="#fda55f">02m 18s</text>
</g>
<!-- A7 -->
<g id="node10" class="node">
<title>A7</title>
<polygon fill="#66aad3" stroke="transparent" points="407,-363.43 407,-386.43 559,-386.43 559,-363.43 407,-363.43"/>
<polygon fill="none" stroke="black" points="407,-363.43 407,-386.43 559,-386.43 559,-363.43 407,-363.43"/>
<text text-anchor="start" x="411" y="-371.23" font-family="arial" font-size="14.00" fill="white">Exams UROLOGY (39)</text>
<polygon fill="#fc9042" stroke="transparent" points="407,-340.43 407,-363.43 559,-363.43 559,-340.43 407,-340.43"/>
<polygon fill="none" stroke="black" points="407,-340.43 407,-363.43 559,-363.43 559,-340.43 407,-340.43"/>
<text text-anchor="start" x="456.5" y="-348.23" font-family="arial" font-size="14.00" fill="white">13m 09s</text>
</g>
<!-- A2&#45;&gt;A7 -->
<g id="edge21" class="edge">
<title>A2&#45;&gt;A7</title>
<path fill="none" stroke="black" stroke-width="1.19" d="M374.99,-576.15C398.09,-544.78 435.97,-490.08 460,-438.43 465.54,-426.51 470.2,-412.92 473.85,-400.66"/>
<polygon fill="black" stroke="black" stroke-width="1.19" points="477.3,-401.32 476.67,-390.75 470.57,-399.41 477.3,-401.32"/>
<polygon fill="snow" stroke="transparent" points="450.5,-483.43 450.5,-498.43 503.5,-498.43 503.5,-483.43 450.5,-483.43"/>
<text text-anchor="start" x="473" y="-487.23" font-family="arial" font-size="14.00" fill="#9ec9e2">5</text>
<polygon fill="snow" stroke="transparent" points="450.5,-468.43 450.5,-483.43 503.5,-483.43 503.5,-468.43 450.5,-468.43"/>
<text text-anchor="start" x="450.5" y="-472.23" font-family="arial" font-size="14.00" fill="#fda964">01m 00s</text>
</g>
<!-- A3&#45;&gt;A2 -->
<g id="edge10" class="edge">
<title>A3&#45;&gt;A2</title>
<path fill="none" stroke="black" stroke-width="4.66" d="M312.57,-510.46C320.19,-515.56 327.28,-521.51 333,-528.43 341.83,-539.1 347.12,-553.22 350.28,-566.26"/>
<polygon fill="black" stroke="black" stroke-width="4.66" points="346.36,-567.44 352.39,-576.4 354.35,-565.78 346.36,-567.44"/>
<polygon fill="snow" stroke="transparent" points="348,-543.43 348,-558.43 370,-558.43 370,-543.43 348,-543.43"/>
<text text-anchor="start" x="351" y="-547.23" font-family="arial" font-size="14.00" fill="#3181bd">79</text>
<polygon fill="snow" stroke="transparent" points="348,-528.43 348,-543.43 370,-543.43 370,-528.43 348,-528.43"/>
<text text-anchor="start" x="348" y="-532.23" font-family="arial" font-size="14.00" fill="#fda964">44s</text>
</g>
<!-- A3&#45;&gt;A3 -->
<g id="edge18" class="edge">
<title>A3&#45;&gt;A3</title>
<path fill="none" stroke="black" stroke-width="1.61" d="M326.76,-493.41C337.41,-491.73 344.5,-488.41 344.5,-483.43 344.5,-480.24 341.59,-477.72 336.7,-475.89"/>
<polygon fill="black" stroke="black" stroke-width="1.61" points="337.3,-472.44 326.76,-473.45 335.63,-479.23 337.3,-472.44"/>
<polygon fill="snow" stroke="transparent" points="345,-483.43 345,-498.43 398,-498.43 398,-483.43 345,-483.43"/>
<text text-anchor="start" x="363.5" y="-487.23" font-family="arial" font-size="14.00" fill="#90c2de">14</text>
<polygon fill="snow" stroke="transparent" points="345,-468.43 345,-483.43 398,-483.43 398,-468.43 345,-468.43"/>
<text text-anchor="start" x="345" y="-472.23" font-family="arial" font-size="14.00" fill="#fc9548">11m 00s</text>
</g>
<!-- A3&#45;&gt;A4 -->
<g id="edge6" class="edge">
<title>A3&#45;&gt;A4</title>
<path fill="none" stroke="black" stroke-width="1.23" d="M256.03,-456.24C261.37,-441.35 269.37,-422.85 280,-408.43 287.29,-398.53 294.52,-400.87 301,-390.43 321.93,-356.69 331.05,-311.61 335,-280.51"/>
<polygon fill="black" stroke="black" stroke-width="1.23" points="338.48,-280.88 336.16,-270.54 331.53,-280.07 338.48,-280.88"/>
<polygon fill="snow" stroke="transparent" points="323.5,-363.43 323.5,-378.43 376.5,-378.43 376.5,-363.43 323.5,-363.43"/>
<text text-anchor="start" x="346" y="-367.23" font-family="arial" font-size="14.00" fill="#9cc8e1">6</text>
<polygon fill="snow" stroke="transparent" points="323.5,-348.43 323.5,-363.43 376.5,-363.43 376.5,-348.43 323.5,-348.43"/>
<text text-anchor="start" x="323.5" y="-352.23" font-family="arial" font-size="14.00" fill="#fa8837">17m 10s</text>
</g>
<!-- A3&#45;&gt;A5 -->
<g id="edge15" class="edge">
<title>A3&#45;&gt;A5</title>
<path fill="none" stroke="black" stroke-width="1.23" d="M169.08,-462.59C131.88,-448.85 90.94,-426.36 69,-390.43 56.5,-369.94 65.84,-360.22 69,-336.43 79.96,-254.07 84.36,-218.05 151,-168.43 177.43,-148.75 211.32,-137.7 242.96,-131.56"/>
<polygon fill="black" stroke="black" stroke-width="1.23" points="243.92,-134.95 253.15,-129.73 242.69,-128.05 243.92,-134.95"/>
<polygon fill="snow" stroke="transparent" points="76.5,-303.43 76.5,-318.43 129.5,-318.43 129.5,-303.43 76.5,-303.43"/>
<text text-anchor="start" x="99" y="-307.23" font-family="arial" font-size="14.00" fill="#9cc8e1">6</text>
<polygon fill="snow" stroke="transparent" points="76.5,-288.43 76.5,-303.43 129.5,-303.43 129.5,-288.43 76.5,-288.43"/>
<text text-anchor="start" x="76.5" y="-292.23" font-family="arial" font-size="14.00" fill="#fa8938">17m 00s</text>
</g>
<!-- A3&#45;&gt;A7 -->
<g id="edge11" class="edge">
<title>A3&#45;&gt;A7</title>
<path fill="none" stroke="black" stroke-width="2.55" d="M265.1,-456.14C278.3,-436.19 295.12,-411.65 300,-408.43 332.23,-387.15 347.44,-399.38 385,-390.43 386.28,-390.12 387.56,-389.81 388.85,-389.5"/>
<polygon fill="black" stroke="black" stroke-width="2.55" points="390,-392.82 398.87,-387.04 388.33,-386.03 390,-392.82"/>
<polygon fill="snow" stroke="transparent" points="300.5,-423.43 300.5,-438.43 353.5,-438.43 353.5,-423.43 300.5,-423.43"/>
<text text-anchor="start" x="319" y="-427.23" font-family="arial" font-size="14.00" fill="#6daed5">34</text>
<polygon fill="snow" stroke="transparent" points="300.5,-408.43 300.5,-423.43 353.5,-423.43 353.5,-408.43 300.5,-408.43"/>
<text text-anchor="start" x="300.5" y="-412.23" font-family="arial" font-size="14.00" fill="#fda762">01m 14s</text>
</g>
<!-- A8 -->
<g id="node11" class="node">
<title>A8</title>
<polygon fill="#94c4df" stroke="transparent" points="86,-363.43 86,-386.43 284,-386.43 284,-363.43 86,-363.43"/>
<polygon fill="none" stroke="black" points="86,-363.43 86,-386.43 284,-386.43 284,-363.43 86,-363.43"/>
<text text-anchor="start" x="90" y="-371.23" font-family="arial" font-size="14.00" fill="white">Paramedical Programming (11)</text>
<polygon fill="#fd9b50" stroke="transparent" points="86,-340.43 86,-363.43 284,-363.43 284,-340.43 86,-340.43"/>
<polygon fill="none" stroke="black" points="86,-340.43 86,-363.43 284,-363.43 284,-340.43 86,-340.43"/>
<text text-anchor="start" x="158.5" y="-348.23" font-family="arial" font-size="14.00" fill="white">07m 38s</text>
</g>
<!-- A3&#45;&gt;A8 -->
<g id="edge16" class="edge">
<title>A3&#45;&gt;A8</title>
<path fill="none" stroke="black" stroke-width="1.47" d="M234.02,-456.24C225.13,-439.59 213.51,-417.82 203.81,-399.66"/>
<polygon fill="black" stroke="black" stroke-width="1.47" points="206.74,-397.71 198.94,-390.54 200.56,-401.01 206.74,-397.71"/>
<polygon fill="snow" stroke="transparent" points="223,-423.43 223,-438.43 245,-438.43 245,-423.43 223,-423.43"/>
<text text-anchor="start" x="226" y="-427.23" font-family="arial" font-size="14.00" fill="#94c4df">11</text>
<polygon fill="snow" stroke="transparent" points="223,-408.43 223,-423.43 245,-423.43 245,-408.43 223,-408.43"/>
<text text-anchor="start" x="223" y="-412.23" font-family="arial" font-size="14.00" fill="#fda964">38s</text>
</g>
<!-- A4&#45;&gt;A5 -->
<g id="edge7" class="edge">
<title>A4&#45;&gt;A5</title>
<path fill="none" stroke="black" stroke-width="2.32" d="M338,-216.24C338,-199.89 338,-178.62 338,-160.67"/>
<polygon fill="black" stroke="black" stroke-width="2.32" points="341.5,-160.54 338,-150.54 334.5,-160.54 341.5,-160.54"/>
<polygon fill="snow" stroke="transparent" points="338.5,-183.43 338.5,-198.43 391.5,-198.43 391.5,-183.43 338.5,-183.43"/>
<text text-anchor="start" x="357" y="-187.23" font-family="arial" font-size="14.00" fill="#76b4d8">29</text>
<polygon fill="snow" stroke="transparent" points="338.5,-168.43 338.5,-183.43 391.5,-183.43 391.5,-168.43 338.5,-168.43"/>
<text text-anchor="start" x="338.5" y="-172.23" font-family="arial" font-size="14.00" fill="#fda45e">02m 41s</text>
</g>
<!-- A5&#45;&gt;complete -->
<g id="edge2" class="edge">
<title>A5&#45;&gt;complete</title>
<path fill="none" stroke="#bfbfbf" stroke-width="4.19" stroke-dasharray="5,2" d="M338,-96.36C338,-79.54 338,-57.99 338,-42.46"/>
<polygon fill="white" stroke="transparent" points="338.5,-60.43 338.5,-78.43 357.5,-78.43 357.5,-60.43 338.5,-60.43"/>
<text text-anchor="start" x="338.5" y="-65.63" font-family="arial" font-size="16.00" fill="#3d8cc3">69</text>
</g>
<!-- A6&#45;&gt;A2 -->
<g id="edge25" class="edge">
<title>A6&#45;&gt;A2</title>
<path fill="none" stroke="black" d="M152.38,-696.38C192.42,-678.21 245.99,-653.9 288,-634.84"/>
<polygon fill="black" stroke="black" points="289.66,-637.93 297.32,-630.61 286.77,-631.55 289.66,-637.93"/>
<polygon fill="snow" stroke="transparent" points="255.5,-663.43 255.5,-678.43 308.5,-678.43 308.5,-663.43 255.5,-663.43"/>
<text text-anchor="start" x="278" y="-667.23" font-family="arial" font-size="14.00" fill="#a4cce4">1</text>
<polygon fill="snow" stroke="transparent" points="255.5,-648.43 255.5,-663.43 308.5,-663.43 308.5,-648.43 255.5,-648.43"/>
<text text-anchor="start" x="255.5" y="-652.23" font-family="arial" font-size="14.00" fill="#fda661">02m 00s</text>
</g>
<!-- A6&#45;&gt;A3 -->
<g id="edge9" class="edge">
<title>A6&#45;&gt;A3</title>
<path fill="none" stroke="black" stroke-width="1.47" d="M94.92,-696.37C95.98,-665.47 101.52,-613.47 125,-576.43 140.7,-551.65 165.62,-531.18 188.93,-515.89"/>
<polygon fill="black" stroke="black" stroke-width="1.47" points="190.86,-518.81 197.43,-510.5 187.11,-512.9 190.86,-518.81"/>
<polygon fill="snow" stroke="transparent" points="125.5,-603.43 125.5,-618.43 178.5,-618.43 178.5,-603.43 125.5,-603.43"/>
<text text-anchor="start" x="144" y="-607.23" font-family="arial" font-size="14.00" fill="#94c4df">11</text>
<polygon fill="snow" stroke="transparent" points="125.5,-588.43 125.5,-603.43 178.5,-603.43 178.5,-588.43 125.5,-588.43"/>
<text text-anchor="start" x="125.5" y="-592.23" font-family="arial" font-size="14.00" fill="#fda661">01m 54s</text>
</g>
<!-- A7&#45;&gt;A2 -->
<g id="edge23" class="edge">
<title>A7&#45;&gt;A2</title>
<path fill="none" stroke="black" stroke-width="1.19" d="M496.82,-390.45C511.03,-421.09 528.32,-472.61 507,-510.43 491.76,-537.47 465.02,-557.46 438.17,-571.78"/>
<polygon fill="black" stroke="black" stroke-width="1.19" points="436.39,-568.75 429.07,-576.41 439.57,-574.99 436.39,-568.75"/>
<polygon fill="snow" stroke="transparent" points="516,-483.43 516,-498.43 538,-498.43 538,-483.43 516,-483.43"/>
<text text-anchor="start" x="523" y="-487.23" font-family="arial" font-size="14.00" fill="#9ec9e2">5</text>
<polygon fill="snow" stroke="transparent" points="516,-468.43 516,-483.43 538,-483.43 538,-468.43 516,-468.43"/>
<text text-anchor="start" x="516" y="-472.23" font-family="arial" font-size="14.00" fill="#fda964">36s</text>
</g>
<!-- A7&#45;&gt;A3 -->
<g id="edge12" class="edge">
<title>A7&#45;&gt;A3</title>
<path fill="none" stroke="black" stroke-width="2.27" d="M405.47,-390.51C395.07,-395.64 384.93,-401.59 376,-408.43 362.66,-418.64 366.31,-428.17 353,-438.43 346.78,-443.22 339.96,-447.59 332.88,-451.54"/>
<polygon fill="black" stroke="black" stroke-width="2.27" points="331.01,-448.57 323.8,-456.33 334.28,-454.76 331.01,-448.57"/>
<polygon fill="snow" stroke="transparent" points="376,-423.43 376,-438.43 460,-438.43 460,-423.43 376,-423.43"/>
<text text-anchor="start" x="410" y="-427.23" font-family="arial" font-size="14.00" fill="#78b5d8">28</text>
<polygon fill="snow" stroke="transparent" points="376,-408.43 376,-423.43 460,-423.43 460,-408.43 376,-408.43"/>
<text text-anchor="start" x="376" y="-412.23" font-family="arial" font-size="14.00" fill="#fdad6a">12m 04d 23h </text>
</g>
<!-- A7&#45;&gt;A4 -->
<g id="edge19" class="edge">
<title>A7&#45;&gt;A4</title>
<path fill="none" stroke="black" stroke-width="1.09" d="M450.82,-336.24C429.33,-318.75 400.9,-295.61 377.96,-276.94"/>
<polygon fill="black" stroke="black" stroke-width="1.09" points="380.06,-274.14 370.09,-270.54 375.64,-279.57 380.06,-274.14"/>
<polygon fill="snow" stroke="transparent" points="427.5,-303.43 427.5,-318.43 480.5,-318.43 480.5,-303.43 427.5,-303.43"/>
<text text-anchor="start" x="450" y="-307.23" font-family="arial" font-size="14.00" fill="#a1cbe3">3</text>
<polygon fill="snow" stroke="transparent" points="427.5,-288.43 427.5,-303.43 480.5,-303.43 480.5,-288.43 427.5,-288.43"/>
<text text-anchor="start" x="427.5" y="-292.23" font-family="arial" font-size="14.00" fill="#fda661">01m 40s</text>
</g>
<!-- A7&#45;&gt;A5 -->
<g id="edge24" class="edge">
<title>A7&#45;&gt;A5</title>
<path fill="none" stroke="black" stroke-width="1.09" d="M490.44,-336.3C497.63,-305.55 504.7,-253.93 484,-216.43 469.24,-189.68 443.07,-169.64 416.93,-155.21"/>
<polygon fill="black" stroke="black" stroke-width="1.09" points="418.56,-152.12 408.08,-150.53 415.28,-158.3 418.56,-152.12"/>
<polygon fill="snow" stroke="transparent" points="497.5,-243.43 497.5,-258.43 550.5,-258.43 550.5,-243.43 497.5,-243.43"/>
<text text-anchor="start" x="520" y="-247.23" font-family="arial" font-size="14.00" fill="#a1cbe3">3</text>
<polygon fill="snow" stroke="transparent" points="497.5,-228.43 497.5,-243.43 550.5,-243.43 550.5,-228.43 497.5,-228.43"/>
<text text-anchor="start" x="497.5" y="-232.23" font-family="arial" font-size="14.00" fill="#fda661">02m 00s</text>
</g>
<!-- A8&#45;&gt;A4 -->
<g id="edge20" class="edge">
<title>A8&#45;&gt;A4</title>
<path fill="none" stroke="black" stroke-width="1.23" d="M218.96,-336.24C241.74,-318.67 271.89,-295.41 296.16,-276.7"/>
<polygon fill="black" stroke="black" stroke-width="1.23" points="298.36,-279.42 304.14,-270.54 294.08,-273.88 298.36,-279.42"/>
<polygon fill="snow" stroke="transparent" points="279,-303.43 279,-318.43 301,-318.43 301,-303.43 279,-303.43"/>
<text text-anchor="start" x="286" y="-307.23" font-family="arial" font-size="14.00" fill="#9cc8e1">6</text>
<polygon fill="snow" stroke="transparent" points="279,-288.43 279,-303.43 301,-303.43 301,-288.43 279,-288.43"/>
<text text-anchor="start" x="279" y="-292.23" font-family="arial" font-size="14.00" fill="#fdaa65">20s</text>
</g>
<!-- A8&#45;&gt;A5 -->
<g id="edge17" class="edge">
<title>A8&#45;&gt;A5</title>
<path fill="none" stroke="black" stroke-width="1.19" d="M164.59,-336.39C143.22,-305.74 115.89,-254.22 140,-216.43 163.07,-180.27 204.43,-158.1 243.41,-144.62"/>
<polygon fill="black" stroke="black" stroke-width="1.19" points="244.85,-147.83 253.25,-141.37 242.66,-141.18 244.85,-147.83"/>
<polygon fill="snow" stroke="transparent" points="140.5,-243.43 140.5,-258.43 193.5,-258.43 193.5,-243.43 140.5,-243.43"/>
<text text-anchor="start" x="163" y="-247.23" font-family="arial" font-size="14.00" fill="#9ec9e2">5</text>
<polygon fill="snow" stroke="transparent" points="140.5,-228.43 140.5,-243.43 193.5,-243.43 193.5,-228.43 140.5,-228.43"/>
<text text-anchor="start" x="140.5" y="-232.23" font-family="arial" font-size="14.00" fill="#fda45e">02m 48s</text>
</g>
</g>
</svg>
