<?xml version="1.0" encoding="UTF-8" standalone="no"?>
<!DOCTYPE svg PUBLIC "-//W3C//DTD SVG 1.1//EN"
 "http://www.w3.org/Graphics/SVG/1.1/DTD/svg11.dtd">
<!-- Generated by graphviz version 2.43.0 (0)
 -->
<!-- Title: mpdfg Pages: 1 -->
<svg width="1259pt" height="758pt"
 viewBox="0.00 0.00 1259.29 758.43" xmlns="http://www.w3.org/2000/svg" xmlns:xlink="http://www.w3.org/1999/xlink">
<g id="graph0" class="graph" transform="scale(1 1) rotate(0) translate(4 754.43)">
<title>mpdfg</title>
<polygon fill="white" stroke="transparent" points="-4,4 -4,-754.43 1255.29,-754.43 1255.29,4 -4,4"/>
<!-- start -->
<g id="node1" class="node">
<title>start</title>
<ellipse fill="green" stroke="black" cx="627.29" cy="-729.21" rx="21.43" ry="21.43"/>
<text text-anchor="middle" x="627.29" y="-724.21" font-family="Times,serif" font-size="20.00">▲</text>
</g>
<!-- A0 -->
<g id="node3" class="node">
<title>A0</title>
<polygon fill="#083776" stroke="transparent" points="580.29,-627 580.29,-650 675.29,-650 675.29,-627 580.29,-627"/>
<polygon fill="none" stroke="black" points="580.29,-627 580.29,-650 675.29,-650 675.29,-627 580.29,-627"/>
<text text-anchor="start" x="584.29" y="-634.8" font-family="arial" font-size="14.00" fill="white">NEW (64,065)</text>
<polygon fill="#fdb475" stroke="transparent" points="580.29,-604 580.29,-627 675.29,-627 675.29,-604 580.29,-604"/>
<polygon fill="none" stroke="black" points="580.29,-604 580.29,-627 675.29,-627 675.29,-604 580.29,-604"/>
<text text-anchor="start" x="607.29" y="-611.8" font-family="arial" font-size="14.00" fill="white">Instant</text>
</g>
<!-- start&#45;&gt;A0 -->
<g id="edge1" class="edge">
<title>start&#45;&gt;A0</title>
<path fill="none" stroke="#bfbfbf" stroke-width="7.63" stroke-dasharray="5,2" d="M627.29,-707.93C627.29,-692.49 627.29,-671.11 627.29,-654.34"/>
<polygon fill="white" stroke="transparent" points="627.29,-672 627.29,-690 673.29,-690 673.29,-672 627.29,-672"/>
<text text-anchor="start" x="627.29" y="-677.2" font-family="arial" font-size="16.00" fill="#083979">63498</text>
</g>
<!-- complete -->
<g id="node2" class="node">
<title>complete</title>
<ellipse fill="red" stroke="black" cx="124.29" cy="-147" rx="21.43" ry="21.43"/>
<text text-anchor="middle" x="124.29" y="-142" font-family="Times,serif" font-size="20.00">■</text>
</g>
<!-- A0&#45;&gt;A0 -->
<g id="edge21" class="edge">
<title>A0&#45;&gt;A0</title>
<path fill="none" stroke="black" stroke-width="1.06" d="M683.05,-636.61C693.46,-635.42 700.79,-632.22 700.79,-627 700.79,-623.66 697.78,-621.14 692.88,-619.45"/>
<polygon fill="black" stroke="black" stroke-width="1.06" points="693.56,-616.02 683.05,-617.39 692.12,-622.87 693.56,-616.02"/>
<polygon fill="snow" stroke="transparent" points="701.29,-627 701.29,-642 742.29,-642 742.29,-627 701.29,-627"/>
<text text-anchor="start" x="710.29" y="-630.8" font-family="arial" font-size="14.00" fill="#a3cbe3">567</text>
<polygon fill="snow" stroke="transparent" points="701.29,-612 701.29,-627 742.29,-627 742.29,-612 701.29,-612"/>
<text text-anchor="start" x="701.29" y="-615.8" font-family="arial" font-size="14.00" fill="#fdb475">Instant</text>
</g>
<!-- A1 -->
<g id="node4" class="node">
<title>A1</title>
<polygon fill="#206eb2" stroke="transparent" points="543.29,-507 543.29,-530 711.29,-530 711.29,-507 543.29,-507"/>
<polygon fill="none" stroke="black" points="543.29,-507 543.29,-530 711.29,-530 711.29,-507 543.29,-507"/>
<text text-anchor="start" x="547.29" y="-514.8" font-family="arial" font-size="14.00" fill="white">CHANGE DIAGN (42,390)</text>
<polygon fill="#fdb475" stroke="transparent" points="543.29,-484 543.29,-507 711.29,-507 711.29,-484 543.29,-484"/>
<polygon fill="none" stroke="black" points="543.29,-484 543.29,-507 711.29,-507 711.29,-484 543.29,-484"/>
<text text-anchor="start" x="606.79" y="-491.8" font-family="arial" font-size="14.00" fill="white">Instant</text>
</g>
<!-- A0&#45;&gt;A1 -->
<g id="edge3" class="edge">
<title>A0&#45;&gt;A1</title>
<path fill="none" stroke="black" stroke-width="5.12" d="M627.29,-599.81C627.29,-583.47 627.29,-562.19 627.29,-544.24"/>
<polygon fill="black" stroke="black" stroke-width="5.12" points="631.77,-544.11 627.29,-534.11 622.81,-544.11 631.77,-544.11"/>
<polygon fill="snow" stroke="transparent" points="627.29,-567 627.29,-582 711.29,-582 711.29,-567 627.29,-567"/>
<text text-anchor="start" x="648.29" y="-570.8" font-family="arial" font-size="14.00" fill="#2676b6">39,409</text>
<polygon fill="snow" stroke="transparent" points="627.29,-552 627.29,-567 711.29,-567 711.29,-552 627.29,-552"/>
<text text-anchor="start" x="627.29" y="-555.8" font-family="arial" font-size="14.00" fill="#fdae6c">07d 00h 13m </text>
</g>
<!-- A2 -->
<g id="node5" class="node">
<title>A2</title>
<polygon fill="#08306b" stroke="transparent" points="379.29,-387 379.29,-410 463.29,-410 463.29,-387 379.29,-387"/>
<polygon fill="none" stroke="black" points="379.29,-387 379.29,-410 463.29,-410 463.29,-387 379.29,-387"/>
<text text-anchor="start" x="383.29" y="-394.8" font-family="arial" font-size="14.00" fill="white">FIN (66,914)</text>
<polygon fill="#fdb475" stroke="transparent" points="379.29,-364 379.29,-387 463.29,-387 463.29,-364 379.29,-364"/>
<polygon fill="none" stroke="black" points="379.29,-364 379.29,-387 463.29,-387 463.29,-364 379.29,-364"/>
<text text-anchor="start" x="400.79" y="-371.8" font-family="arial" font-size="14.00" fill="white">Instant</text>
</g>
<!-- A0&#45;&gt;A2 -->
<g id="edge9" class="edge">
<title>A0&#45;&gt;A2</title>
<path fill="none" stroke="black" stroke-width="3.51" d="M571.47,-608.8C531.5,-594.17 478.54,-569.78 442.29,-534 407.96,-500.13 396.92,-479.49 405.29,-432 405.76,-429.32 406.38,-426.58 407.11,-423.85"/>
<polygon fill="black" stroke="black" stroke-width="3.51" points="410.51,-424.7 410.11,-414.11 403.82,-422.64 410.51,-424.7"/>
<polygon fill="snow" stroke="transparent" points="442.29,-507 442.29,-522 526.29,-522 526.29,-507 442.29,-507"/>
<text text-anchor="start" x="463.29" y="-510.8" font-family="arial" font-size="14.00" fill="#509bcb">24,075</text>
<polygon fill="snow" stroke="transparent" points="442.29,-492 442.29,-507 526.29,-507 526.29,-492 442.29,-492"/>
<text text-anchor="start" x="442.29" y="-495.8" font-family="arial" font-size="14.00" fill="#8d2c04">06m 12d 19h </text>
</g>
<!-- A3 -->
<g id="node6" class="node">
<title>A3</title>
<polygon fill="#08306b" stroke="transparent" points="538.29,-27 538.29,-50 663.29,-50 663.29,-27 538.29,-27"/>
<polygon fill="none" stroke="black" points="538.29,-27 538.29,-50 663.29,-50 663.29,-27 538.29,-27"/>
<text text-anchor="start" x="542.29" y="-34.8" font-family="arial" font-size="14.00" fill="white">RELEASE (67,014)</text>
<polygon fill="#fdb475" stroke="transparent" points="538.29,-4 538.29,-27 663.29,-27 663.29,-4 538.29,-4"/>
<polygon fill="none" stroke="black" points="538.29,-4 538.29,-27 663.29,-27 663.29,-4 538.29,-4"/>
<text text-anchor="start" x="580.29" y="-11.8" font-family="arial" font-size="14.00" fill="white">Instant</text>
</g>
<!-- A0&#45;&gt;A3 -->
<g id="edge30" class="edge">
<title>A0&#45;&gt;A3</title>
<path fill="none" stroke="black" d="M682.79,-625.53C820.59,-622.88 1167.29,-606.42 1167.29,-508 1167.29,-508 1167.29,-508 1167.29,-146 1167.29,-47.86 837.58,-30.78 681.01,-28.2"/>
<polygon fill="black" stroke="black" points="681,-24.7 670.95,-28.05 680.9,-31.7 681,-24.7"/>
<polygon fill="snow" stroke="transparent" points="1167.29,-327 1167.29,-342 1251.29,-342 1251.29,-327 1167.29,-327"/>
<text text-anchor="start" x="1205.29" y="-330.8" font-family="arial" font-size="14.00" fill="#a4cce4">6</text>
<polygon fill="snow" stroke="transparent" points="1167.29,-312 1167.29,-327 1251.29,-327 1251.29,-312 1167.29,-312"/>
<text text-anchor="start" x="1167.29" y="-315.8" font-family="arial" font-size="14.00" fill="#fd9e55">26d 16h 07m </text>
</g>
<!-- A4 -->
<g id="node7" class="node">
<title>A4</title>
<polygon fill="#083573" stroke="transparent" points="435.29,-147 435.29,-170 561.29,-170 561.29,-147 435.29,-147"/>
<polygon fill="none" stroke="black" points="435.29,-147 435.29,-170 561.29,-170 561.29,-147 435.29,-147"/>
<text text-anchor="start" x="439.29" y="-154.8" font-family="arial" font-size="14.00" fill="white">CODE OK (64,864)</text>
<polygon fill="#fdb475" stroke="transparent" points="435.29,-124 435.29,-147 561.29,-147 561.29,-124 435.29,-124"/>
<polygon fill="none" stroke="black" points="435.29,-124 435.29,-147 561.29,-147 561.29,-124 435.29,-124"/>
<text text-anchor="start" x="477.79" y="-131.8" font-family="arial" font-size="14.00" fill="white">Instant</text>
</g>
<!-- A0&#45;&gt;A4 -->
<g id="edge26" class="edge">
<title>A0&#45;&gt;A4</title>
<path fill="none" stroke="black" d="M682.8,-622.36C798.61,-613.24 1055.29,-584.4 1055.29,-508 1055.29,-508 1055.29,-508 1055.29,-326 1055.29,-286.32 1060.26,-267.11 1031.29,-240 967.17,-180.01 712.32,-158.57 579.6,-151.37"/>
<polygon fill="black" stroke="black" points="579.65,-147.87 569.48,-150.84 579.28,-154.86 579.65,-147.87"/>
<polygon fill="snow" stroke="transparent" points="1055.29,-387 1055.29,-402 1139.29,-402 1139.29,-387 1055.29,-387"/>
<text text-anchor="start" x="1093.29" y="-390.8" font-family="arial" font-size="14.00" fill="#a4cce4">3</text>
<polygon fill="snow" stroke="transparent" points="1055.29,-372 1055.29,-387 1139.29,-387 1139.29,-372 1055.29,-372"/>
<text text-anchor="start" x="1055.29" y="-375.8" font-family="arial" font-size="14.00" fill="#ea6110">03m 06d 04h </text>
</g>
<!-- A5 -->
<g id="node8" class="node">
<title>A5</title>
<polygon fill="#083370" stroke="transparent" points="129.29,-267 129.29,-290 238.29,-290 238.29,-267 129.29,-267"/>
<polygon fill="none" stroke="black" points="129.29,-267 129.29,-290 238.29,-290 238.29,-267 129.29,-267"/>
<text text-anchor="start" x="133.29" y="-274.8" font-family="arial" font-size="14.00" fill="white">BILLED (65,969)</text>
<polygon fill="#fdb475" stroke="transparent" points="129.29,-244 129.29,-267 238.29,-267 238.29,-244 129.29,-244"/>
<polygon fill="none" stroke="black" points="129.29,-244 129.29,-267 238.29,-267 238.29,-244 129.29,-244"/>
<text text-anchor="start" x="163.29" y="-251.8" font-family="arial" font-size="14.00" fill="white">Instant</text>
</g>
<!-- A0&#45;&gt;A5 -->
<g id="edge27" class="edge">
<title>A0&#45;&gt;A5</title>
<path fill="none" stroke="black" d="M571.47,-615.73C487.33,-597.74 326.96,-553.42 224.29,-462 181.13,-423.58 181.35,-399.34 174.29,-342 172.66,-328.77 172.94,-325.27 174.29,-312 174.54,-309.49 174.87,-306.91 175.26,-304.32"/>
<polygon fill="black" stroke="black" points="178.72,-304.84 176.99,-294.39 171.83,-303.64 178.72,-304.84"/>
<polygon fill="snow" stroke="transparent" points="224.29,-447 224.29,-462 308.29,-462 308.29,-447 224.29,-447"/>
<text text-anchor="start" x="262.29" y="-450.8" font-family="arial" font-size="14.00" fill="#a4cce4">5</text>
<polygon fill="snow" stroke="transparent" points="224.29,-432 224.29,-447 308.29,-447 308.29,-432 224.29,-432"/>
<text text-anchor="start" x="224.29" y="-435.8" font-family="arial" font-size="14.00" fill="#fd9b50">29d 23h 50m </text>
</g>
<!-- A1&#45;&gt;A1 -->
<g id="edge10" class="edge">
<title>A1&#45;&gt;A1</title>
<path fill="none" stroke="black" stroke-width="1.29" d="M719.57,-516.6C730.3,-514.83 737.29,-511.63 737.29,-507 737.29,-504.03 734.42,-501.66 729.54,-499.86"/>
<polygon fill="black" stroke="black" stroke-width="1.29" points="730.12,-496.4 719.57,-497.4 728.44,-503.2 730.12,-496.4"/>
<polygon fill="snow" stroke="transparent" points="737.29,-507 737.29,-522 821.29,-522 821.29,-507 737.29,-507"/>
<text text-anchor="start" x="762.29" y="-510.8" font-family="arial" font-size="14.00" fill="#9ac7e1">2,772</text>
<polygon fill="snow" stroke="transparent" points="737.29,-492 737.29,-507 821.29,-507 821.29,-492 737.29,-492"/>
<text text-anchor="start" x="737.29" y="-495.8" font-family="arial" font-size="14.00" fill="#fda25b">20d 23h 48m </text>
</g>
<!-- A1&#45;&gt;A2 -->
<g id="edge4" class="edge">
<title>A1&#45;&gt;A2</title>
<path fill="none" stroke="black" stroke-width="5.14" d="M557.58,-479.93C547.6,-474.74 537.84,-468.77 529.29,-462 516.11,-451.58 519.17,-442.79 506.29,-432 498.55,-425.52 489.69,-419.64 480.69,-414.43"/>
<polygon fill="black" stroke="black" stroke-width="5.14" points="482.6,-410.35 471.68,-409.46 478.26,-418.23 482.6,-410.35"/>
<polygon fill="snow" stroke="transparent" points="529.29,-447 529.29,-462 613.29,-462 613.29,-447 529.29,-447"/>
<text text-anchor="start" x="550.29" y="-450.8" font-family="arial" font-size="14.00" fill="#2574b6">39,613</text>
<polygon fill="snow" stroke="transparent" points="529.29,-432 529.29,-447 613.29,-447 613.29,-432 529.29,-432"/>
<text text-anchor="start" x="529.29" y="-435.8" font-family="arial" font-size="14.00" fill="#f47420">02m 14d 17h </text>
</g>
<!-- A1&#45;&gt;A3 -->
<g id="edge31" class="edge">
<title>A1&#45;&gt;A3</title>
<path fill="none" stroke="black" d="M698.09,-479.99C767.06,-449.64 859.5,-393.08 844.29,-312 842.7,-303.56 840.27,-302.05 837.29,-294 820.57,-248.93 825.15,-233.73 801.29,-192 766.68,-131.49 756.08,-113.79 700.29,-72 693.93,-67.24 686.99,-62.87 679.81,-58.87"/>
<polygon fill="black" stroke="black" points="681.1,-55.59 670.62,-54.02 677.83,-61.78 681.1,-55.59"/>
<polygon fill="snow" stroke="transparent" points="837.29,-267 837.29,-282 921.29,-282 921.29,-267 837.29,-267"/>
<text text-anchor="start" x="875.29" y="-270.8" font-family="arial" font-size="14.00" fill="#a4cce4">1</text>
<polygon fill="snow" stroke="transparent" points="837.29,-252 837.29,-267 921.29,-267 921.29,-252 837.29,-252"/>
<text text-anchor="start" x="837.29" y="-255.8" font-family="arial" font-size="14.00" fill="#ed6614">03m 01d 11h </text>
</g>
<!-- A1&#45;&gt;A4 -->
<g id="edge24" class="edge">
<title>A1&#45;&gt;A4</title>
<path fill="none" stroke="black" d="M647.96,-479.71C699.21,-413.09 825.06,-239.53 784.29,-192 758.36,-161.78 654.85,-152.11 579.8,-149.13"/>
<polygon fill="black" stroke="black" points="579.53,-145.62 569.41,-148.76 579.28,-152.62 579.53,-145.62"/>
<polygon fill="snow" stroke="transparent" points="757.29,-327 757.29,-342 841.29,-342 841.29,-327 757.29,-327"/>
<text text-anchor="start" x="795.29" y="-330.8" font-family="arial" font-size="14.00" fill="#a4cce4">4</text>
<polygon fill="snow" stroke="transparent" points="757.29,-312 757.29,-327 841.29,-327 841.29,-312 757.29,-312"/>
<text text-anchor="start" x="757.29" y="-315.8" font-family="arial" font-size="14.00" fill="#fdae6c">07d 11h 28m </text>
</g>
<!-- A2&#45;&gt;A1 -->
<g id="edge23" class="edge">
<title>A2&#45;&gt;A1</title>
<path fill="none" stroke="black" d="M412.25,-414.34C408.71,-429.85 407.67,-448.92 418.29,-462 422.02,-466.6 474.08,-477.57 525.31,-487.4"/>
<polygon fill="black" stroke="black" points="524.71,-490.85 535.19,-489.29 526.02,-483.97 524.71,-490.85"/>
<polygon fill="snow" stroke="transparent" points="418.29,-447 418.29,-462 502.29,-462 502.29,-447 418.29,-447"/>
<text text-anchor="start" x="452.29" y="-450.8" font-family="arial" font-size="14.00" fill="#a4cce4">19</text>
<polygon fill="snow" stroke="transparent" points="418.29,-432 418.29,-447 502.29,-447 502.29,-432 418.29,-432"/>
<text text-anchor="start" x="418.29" y="-435.8" font-family="arial" font-size="14.00" fill="#fdaa65">12d 11h 16m </text>
</g>
<!-- A2&#45;&gt;A2 -->
<g id="edge15" class="edge">
<title>A2&#45;&gt;A2</title>
<path fill="none" stroke="black" stroke-width="1.04" d="M471.4,-397.85C481.8,-396.71 489.29,-393.09 489.29,-387 489.29,-383.1 486.22,-380.21 481.27,-378.34"/>
<polygon fill="black" stroke="black" stroke-width="1.04" points="481.92,-374.9 471.4,-376.15 480.4,-381.73 481.92,-374.9"/>
<polygon fill="snow" stroke="transparent" points="489.29,-387 489.29,-402 573.29,-402 573.29,-387 489.29,-387"/>
<text text-anchor="start" x="519.79" y="-390.8" font-family="arial" font-size="14.00" fill="#a3cbe3">401</text>
<polygon fill="snow" stroke="transparent" points="489.29,-372 489.29,-387 573.29,-387 573.29,-372 489.29,-372"/>
<text text-anchor="start" x="489.29" y="-375.8" font-family="arial" font-size="14.00" fill="#f98332">01m 26d 21h </text>
</g>
<!-- A2&#45;&gt;A3 -->
<g id="edge5" class="edge">
<title>A2&#45;&gt;A3</title>
<path fill="none" stroke="black" stroke-width="7.94" d="M471.34,-385.95C546.2,-384.7 681.8,-377.44 712.29,-342 717.73,-335.66 718.71,-128.14 680.29,-72 677.47,-67.88 674.13,-64.11 670.45,-60.67"/>
<polygon fill="black" stroke="black" stroke-width="7.94" points="674.6,-55.08 662.47,-54.05 665.73,-65.78 674.6,-55.08"/>
<polygon fill="snow" stroke="transparent" points="712.29,-207 712.29,-222 796.29,-222 796.29,-207 712.29,-207"/>
<text text-anchor="start" x="733.29" y="-210.8" font-family="arial" font-size="14.00" fill="#08316d">66,458</text>
<polygon fill="snow" stroke="transparent" points="712.29,-192 712.29,-207 796.29,-207 796.29,-192 712.29,-192"/>
<text text-anchor="start" x="712.29" y="-195.8" font-family="arial" font-size="14.00" fill="#fdb374">01d 17h 03m </text>
</g>
<!-- A2&#45;&gt;A4 -->
<g id="edge28" class="edge">
<title>A2&#45;&gt;A4</title>
<path fill="none" stroke="black" d="M469.43,-359.87C493.05,-344.19 519.19,-321.86 532.29,-294 551.57,-252.97 546.93,-234.9 532.29,-192 531.23,-188.89 529.85,-185.84 528.25,-182.87"/>
<polygon fill="black" stroke="black" points="531.18,-180.94 522.93,-174.28 525.23,-184.63 531.18,-180.94"/>
<polygon fill="snow" stroke="transparent" points="544.29,-267 544.29,-282 628.29,-282 628.29,-267 544.29,-267"/>
<text text-anchor="start" x="578.29" y="-270.8" font-family="arial" font-size="14.00" fill="#a4cce4">34</text>
<polygon fill="snow" stroke="transparent" points="544.29,-252 544.29,-267 628.29,-267 628.29,-252 544.29,-252"/>
<text text-anchor="start" x="544.29" y="-255.8" font-family="arial" font-size="14.00" fill="#fda762">14d 12h 06m </text>
</g>
<!-- A2&#45;&gt;A5 -->
<g id="edge32" class="edge">
<title>A2&#45;&gt;A5</title>
<path fill="none" stroke="black" d="M371.28,-378.96C309.92,-369.88 212.48,-353.84 200.29,-342 190.19,-332.19 185.56,-317.69 183.59,-304.12"/>
<polygon fill="black" stroke="black" points="187.05,-303.61 182.55,-294.02 180.09,-304.32 187.05,-303.61"/>
<polygon fill="snow" stroke="transparent" points="200.29,-327 200.29,-342 284.29,-342 284.29,-327 200.29,-327"/>
<text text-anchor="start" x="238.29" y="-330.8" font-family="arial" font-size="14.00" fill="#a4cce4">2</text>
<polygon fill="snow" stroke="transparent" points="200.29,-312 200.29,-327 284.29,-327 284.29,-312 200.29,-312"/>
<text text-anchor="start" x="200.29" y="-315.8" font-family="arial" font-size="14.00" fill="#fda55f">17d 19h 01m </text>
</g>
<!-- A3&#45;&gt;A1 -->
<g id="edge20" class="edge">
<title>A3&#45;&gt;A1</title>
<path fill="none" stroke="black" stroke-width="1.01" d="M670.97,-33.21C719.31,-38.65 784.01,-49.7 837.29,-72 890.28,-94.19 943.29,-88.54 943.29,-146 943.29,-388 943.29,-388 943.29,-388 943.29,-433.58 912.46,-440.47 872.29,-462 828.72,-485.34 775.19,-496.61 729.29,-501.93"/>
<polygon fill="black" stroke="black" stroke-width="1.01" points="728.88,-498.46 719.31,-503.01 729.63,-505.42 728.88,-498.46"/>
<polygon fill="snow" stroke="transparent" points="943.29,-267 943.29,-282 1027.29,-282 1027.29,-267 943.29,-267"/>
<text text-anchor="start" x="977.29" y="-270.8" font-family="arial" font-size="14.00" fill="#a4cce4">89</text>
<polygon fill="snow" stroke="transparent" points="943.29,-252 943.29,-267 1027.29,-267 1027.29,-252 943.29,-252"/>
<text text-anchor="start" x="943.29" y="-255.8" font-family="arial" font-size="14.00" fill="#fda35c">20d 04h 45m </text>
</g>
<!-- A3&#45;&gt;A2 -->
<g id="edge18" class="edge">
<title>A3&#45;&gt;A2</title>
<path fill="none" stroke="black" stroke-width="1.06" d="M529.61,-45.55C460.73,-67.02 360.66,-110.94 320.29,-192 314.34,-203.93 313.21,-210.7 320.29,-222 329.98,-237.5 344.14,-227.28 357.29,-240 383.29,-265.16 380.8,-278.84 395.29,-312 400.66,-324.31 405.75,-338.12 409.98,-350.44"/>
<polygon fill="black" stroke="black" stroke-width="1.06" points="406.68,-351.59 413.18,-359.95 413.31,-349.36 406.68,-351.59"/>
<polygon fill="snow" stroke="transparent" points="320.29,-207 320.29,-222 404.29,-222 404.29,-207 320.29,-207"/>
<text text-anchor="start" x="350.79" y="-210.8" font-family="arial" font-size="14.00" fill="#a1cbe3">614</text>
<polygon fill="snow" stroke="transparent" points="320.29,-192 320.29,-207 404.29,-207 404.29,-192 320.29,-192"/>
<text text-anchor="start" x="320.29" y="-195.8" font-family="arial" font-size="14.00" fill="#fb8f40">01m 13d 11h </text>
</g>
<!-- A3&#45;&gt;A3 -->
<g id="edge22" class="edge">
<title>A3&#45;&gt;A3</title>
<path fill="none" stroke="black" stroke-width="1.01" d="M671.11,-37.21C681.65,-35.62 688.79,-32.21 688.79,-27 688.79,-23.66 685.86,-21.06 680.98,-19.21"/>
<polygon fill="black" stroke="black" stroke-width="1.01" points="681.66,-15.77 671.11,-16.79 679.99,-22.57 681.66,-15.77"/>
<polygon fill="snow" stroke="transparent" points="688.79,-27 688.79,-42 772.79,-42 772.79,-27 688.79,-27"/>
<text text-anchor="start" x="722.79" y="-30.8" font-family="arial" font-size="14.00" fill="#a4cce4">56</text>
<polygon fill="snow" stroke="transparent" points="688.79,-12 688.79,-27 772.79,-27 772.79,-12 688.79,-12"/>
<text text-anchor="start" x="688.79" y="-15.8" font-family="arial" font-size="14.00" fill="#fda159">22d 16h 35m </text>
</g>
<!-- A3&#45;&gt;A4 -->
<g id="edge6" class="edge">
<title>A3&#45;&gt;A4</title>
<path fill="none" stroke="black" stroke-width="7.74" d="M597.49,-54.27C594.72,-69.56 589.22,-88.43 578.29,-102 574.87,-106.24 570.92,-110.14 566.66,-113.7"/>
<polygon fill="black" stroke="black" stroke-width="7.74" points="562.54,-108.33 558.68,-119.77 570.74,-119.11 562.54,-108.33"/>
<polygon fill="snow" stroke="transparent" points="592.29,-87 592.29,-102 676.29,-102 676.29,-87 592.29,-87"/>
<text text-anchor="start" x="613.29" y="-90.8" font-family="arial" font-size="14.00" fill="#083674">64,558</text>
<polygon fill="snow" stroke="transparent" points="592.29,-72 592.29,-87 676.29,-87 676.29,-72 592.29,-72"/>
<text text-anchor="start" x="592.29" y="-75.8" font-family="arial" font-size="14.00" fill="#fdb06f">05d 01h 54m </text>
</g>
<!-- A3&#45;&gt;A5 -->
<g id="edge13" class="edge">
<title>A3&#45;&gt;A5</title>
<path fill="none" stroke="black" stroke-width="1.18" d="M529.6,-27.35C386.53,-27.77 71.05,-38.18 10.29,-120 -26.88,-170.04 48.41,-214.12 111.08,-240.41"/>
<polygon fill="black" stroke="black" stroke-width="1.18" points="110.04,-243.77 120.62,-244.32 112.69,-237.29 110.04,-243.77"/>
<polygon fill="snow" stroke="transparent" points="10.29,-147 10.29,-162 94.29,-162 94.29,-147 10.29,-147"/>
<text text-anchor="start" x="35.29" y="-150.8" font-family="arial" font-size="14.00" fill="#9ec9e2">1,697</text>
<polygon fill="snow" stroke="transparent" points="10.29,-132 10.29,-147 94.29,-147 94.29,-132 10.29,-132"/>
<text text-anchor="start" x="10.29" y="-135.8" font-family="arial" font-size="14.00" fill="#dc5107">03m 27d 21h </text>
</g>
<!-- A4&#45;&gt;A1 -->
<g id="edge17" class="edge">
<title>A4&#45;&gt;A1</title>
<path fill="none" stroke="black" stroke-width="1.01" d="M560.3,-174.08C587.59,-189.06 616.91,-210.78 632.29,-240 652.72,-278.81 640.08,-406.45 632.2,-469.74"/>
<polygon fill="black" stroke="black" stroke-width="1.01" points="628.72,-469.33 630.93,-479.69 635.66,-470.21 628.72,-469.33"/>
<polygon fill="snow" stroke="transparent" points="643.29,-327 643.29,-342 727.29,-342 727.29,-327 643.29,-327"/>
<text text-anchor="start" x="677.29" y="-330.8" font-family="arial" font-size="14.00" fill="#a4cce4">81</text>
<polygon fill="snow" stroke="transparent" points="643.29,-312 643.29,-327 727.29,-327 727.29,-312 643.29,-312"/>
<text text-anchor="start" x="643.29" y="-315.8" font-family="arial" font-size="14.00" fill="#fd9d53">27d 09h 38m </text>
</g>
<!-- A4&#45;&gt;A2 -->
<g id="edge11" class="edge">
<title>A4&#45;&gt;A2</title>
<path fill="none" stroke="black" stroke-width="1.18" d="M514.16,-174.25C521.17,-189.53 525.71,-208.4 515.29,-222 496.52,-246.47 469.2,-217.35 448.29,-240 433.86,-255.62 426.81,-311.75 423.63,-349.69"/>
<polygon fill="black" stroke="black" stroke-width="1.18" points="420.12,-349.61 422.83,-359.85 427.1,-350.16 420.12,-349.61"/>
<polygon fill="snow" stroke="transparent" points="448.29,-267 448.29,-282 532.29,-282 532.29,-267 448.29,-267"/>
<text text-anchor="start" x="473.29" y="-270.8" font-family="arial" font-size="14.00" fill="#9ec9e2">1,739</text>
<polygon fill="snow" stroke="transparent" points="448.29,-252 448.29,-267 532.29,-267 532.29,-252 448.29,-252"/>
<text text-anchor="start" x="448.29" y="-255.8" font-family="arial" font-size="14.00" fill="#fd9a4f">01m 01d 05h </text>
</g>
<!-- A4&#45;&gt;A3 -->
<g id="edge7" class="edge">
<title>A4&#45;&gt;A3</title>
<path fill="none" stroke="black" stroke-width="1.03" d="M487.54,-119.98C483.08,-104.78 480.87,-85.91 490.29,-72 497.77,-60.94 508.54,-52.66 520.45,-46.46"/>
<polygon fill="black" stroke="black" stroke-width="1.03" points="522.16,-49.52 529.73,-42.11 519.19,-43.18 522.16,-49.52"/>
<polygon fill="snow" stroke="transparent" points="490.29,-87 490.29,-102 574.29,-102 574.29,-87 490.29,-87"/>
<text text-anchor="start" x="520.79" y="-90.8" font-family="arial" font-size="14.00" fill="#a3cbe3">271</text>
<polygon fill="snow" stroke="transparent" points="490.29,-72 490.29,-87 574.29,-87 574.29,-72 490.29,-72"/>
<text text-anchor="start" x="490.29" y="-75.8" font-family="arial" font-size="14.00" fill="#fa8534">01m 25d 11h </text>
</g>
<!-- A4&#45;&gt;A4 -->
<g id="edge19" class="edge">
<title>A4&#45;&gt;A4</title>
<path fill="none" stroke="black" stroke-width="1.02" d="M569.51,-157.21C580.11,-155.62 587.29,-152.21 587.29,-147 587.29,-143.66 584.34,-141.06 579.44,-139.21"/>
<polygon fill="black" stroke="black" stroke-width="1.02" points="580.06,-135.76 569.51,-136.79 578.4,-142.56 580.06,-135.76"/>
<polygon fill="snow" stroke="transparent" points="587.29,-147 587.29,-162 671.29,-162 671.29,-147 587.29,-147"/>
<text text-anchor="start" x="617.79" y="-150.8" font-family="arial" font-size="14.00" fill="#a3cbe3">227</text>
<polygon fill="snow" stroke="transparent" points="587.29,-132 587.29,-147 671.29,-147 671.29,-132 587.29,-132"/>
<text text-anchor="start" x="587.29" y="-135.8" font-family="arial" font-size="14.00" fill="#f67a27">02m 07d 21h </text>
</g>
<!-- A4&#45;&gt;A5 -->
<g id="edge8" class="edge">
<title>A4&#45;&gt;A5</title>
<path fill="none" stroke="black" stroke-width="7.53" d="M453.82,-174.16C445.96,-179.61 438.11,-185.65 431.29,-192 418.98,-203.44 422.57,-213.15 408.29,-222 362.59,-250.33 302.46,-261.01 255.87,-264.78"/>
<polygon fill="black" stroke="black" stroke-width="7.53" points="255.34,-258.22 245.84,-265.51 256.29,-271.36 255.34,-258.22"/>
<polygon fill="snow" stroke="transparent" points="431.29,-207 431.29,-222 515.29,-222 515.29,-207 431.29,-207"/>
<text text-anchor="start" x="452.29" y="-210.8" font-family="arial" font-size="14.00" fill="#083b7c">62,546</text>
<polygon fill="snow" stroke="transparent" points="431.29,-192 431.29,-207 515.29,-207 515.29,-192 431.29,-192"/>
<text text-anchor="start" x="431.29" y="-195.8" font-family="arial" font-size="14.00" fill="#fc984c">01m 03d 03h </text>
</g>
<!-- A5&#45;&gt;complete -->
<g id="edge2" class="edge">
<title>A5&#45;&gt;complete</title>
<path fill="none" stroke="#bfbfbf" stroke-width="7.63" stroke-dasharray="5,2" d="M137.21,-239.75C131.6,-234.6 126.67,-228.68 123.29,-222 114.75,-205.15 116.35,-183.25 119.25,-167.66"/>
<polygon fill="white" stroke="transparent" points="123.29,-198 123.29,-216 169.29,-216 169.29,-198 123.29,-198"/>
<text text-anchor="start" x="123.29" y="-203.2" font-family="arial" font-size="16.00" fill="#083979">63498</text>
</g>
<!-- A5&#45;&gt;A1 -->
<g id="edge25" class="edge">
<title>A5&#45;&gt;A1</title>
<path fill="none" stroke="black" d="M178.21,-294.33C176.66,-309.09 176.96,-327.42 184.29,-342 207.9,-389.03 232.29,-388.42 278.29,-414 331.02,-443.33 346.85,-446.94 405.29,-462 456.45,-475.18 473.33,-469.5 525.1,-479.06"/>
<polygon fill="black" stroke="black" points="524.7,-482.55 535.19,-481.03 526.05,-475.68 524.7,-482.55"/>
<polygon fill="snow" stroke="transparent" points="278.29,-387 278.29,-402 362.29,-402 362.29,-387 278.29,-387"/>
<text text-anchor="start" x="312.29" y="-390.8" font-family="arial" font-size="14.00" fill="#a4cce4">20</text>
<polygon fill="snow" stroke="transparent" points="278.29,-372 278.29,-387 362.29,-387 362.29,-372 278.29,-372"/>
<text text-anchor="start" x="278.29" y="-375.8" font-family="arial" font-size="14.00" fill="#f47522">02m 13d 14h </text>
</g>
<!-- A5&#45;&gt;A2 -->
<g id="edge16" class="edge">
<title>A5&#45;&gt;A2</title>
<path fill="none" stroke="black" stroke-width="1.05" d="M245.9,-287.99C260.63,-294.33 275.68,-302.29 288.29,-312 301.59,-322.26 297.9,-331.85 311.29,-342 326.22,-353.32 344.46,-362.16 361.76,-368.85"/>
<polygon fill="black" stroke="black" stroke-width="1.05" points="360.66,-372.17 371.25,-372.34 363.08,-365.6 360.66,-372.17"/>
<polygon fill="snow" stroke="transparent" points="311.29,-327 311.29,-342 395.29,-342 395.29,-327 311.29,-327"/>
<text text-anchor="start" x="341.79" y="-330.8" font-family="arial" font-size="14.00" fill="#a3cbe3">472</text>
<polygon fill="snow" stroke="transparent" points="311.29,-312 311.29,-327 395.29,-327 395.29,-312 311.29,-312"/>
<text text-anchor="start" x="311.29" y="-315.8" font-family="arial" font-size="14.00" fill="#7f2704">06m 26d 00h </text>
</g>
<!-- A5&#45;&gt;A3 -->
<g id="edge14" class="edge">
<title>A5&#45;&gt;A3</title>
<path fill="none" stroke="black" stroke-width="1.02" d="M184.34,-239.98C186.94,-208.14 195.76,-154.27 225.29,-120 253.36,-87.43 268.67,-86.12 309.29,-72 377.95,-48.13 460.17,-37.2 519.67,-32.2"/>
<polygon fill="black" stroke="black" stroke-width="1.02" points="520.07,-35.68 529.76,-31.39 519.51,-28.7 520.07,-35.68"/>
<polygon fill="snow" stroke="transparent" points="225.29,-147 225.29,-162 309.29,-162 309.29,-147 225.29,-147"/>
<text text-anchor="start" x="255.79" y="-150.8" font-family="arial" font-size="14.00" fill="#a3cbe3">222</text>
<polygon fill="snow" stroke="transparent" points="225.29,-132 225.29,-147 309.29,-147 309.29,-132 225.29,-132"/>
<text text-anchor="start" x="225.29" y="-135.8" font-family="arial" font-size="14.00" fill="#852904">06m 19d 05h </text>
</g>
<!-- A5&#45;&gt;A4 -->
<g id="edge29" class="edge">
<title>A5&#45;&gt;A4</title>
<path fill="none" stroke="black" d="M188.69,-239.75C193.44,-223.47 202.06,-203.52 217.29,-192 233.09,-180.04 339.58,-165.78 416.8,-156.8"/>
<polygon fill="black" stroke="black" points="417.48,-160.25 427.02,-155.63 416.68,-153.29 417.48,-160.25"/>
<polygon fill="snow" stroke="transparent" points="217.29,-207 217.29,-222 301.29,-222 301.29,-207 217.29,-207"/>
<text text-anchor="start" x="251.29" y="-210.8" font-family="arial" font-size="14.00" fill="#a4cce4">38</text>
<polygon fill="snow" stroke="transparent" points="217.29,-192 217.29,-207 301.29,-207 301.29,-192 217.29,-192"/>
<text text-anchor="start" x="217.29" y="-195.8" font-family="arial" font-size="14.00" fill="#bd3e02">04m 28d 22h </text>
</g>
<!-- A5&#45;&gt;A5 -->
<g id="edge12" class="edge">
<title>A5&#45;&gt;A5</title>
<path fill="none" stroke="black" stroke-width="1.18" d="M246.06,-277.46C256.55,-275.99 263.79,-272.51 263.79,-267 263.79,-263.47 260.82,-260.77 255.92,-258.9"/>
<polygon fill="black" stroke="black" stroke-width="1.18" points="256.6,-255.47 246.06,-256.54 254.97,-262.28 256.6,-255.47"/>
<polygon fill="snow" stroke="transparent" points="263.79,-267 263.79,-282 347.79,-282 347.79,-267 263.79,-267"/>
<text text-anchor="start" x="288.79" y="-270.8" font-family="arial" font-size="14.00" fill="#9ec9e2">1,719</text>
<polygon fill="snow" stroke="transparent" points="263.79,-252 263.79,-267 347.79,-267 347.79,-252 263.79,-252"/>
<text text-anchor="start" x="263.79" y="-255.8" font-family="arial" font-size="14.00" fill="#f98230">01m 28d 10h </text>
</g>
</g>
</svg>
