<?xml version="1.0" encoding="UTF-8" standalone="no"?>
<!-- Created with Inkscape (http://www.inkscape.org/) -->

<svg
   version="1.1"
   id="svg119"
   width="766.85413"
   height="768.06873"
   viewBox="0 0 766.85413 768.06873"
   sodipodi:docname="logo.svg"
   inkscape:version="1.2.2 (b0a8486541, 2022-12-01)"
   xmlns:inkscape="http://www.inkscape.org/namespaces/inkscape"
   xmlns:sodipodi="http://sodipodi.sourceforge.net/DTD/sodipodi-0.dtd"
   xmlns="http://www.w3.org/2000/svg"
   xmlns:svg="http://www.w3.org/2000/svg">
  <defs
     id="defs123" />
  <sodipodi:namedview
     id="namedview121"
     pagecolor="#ffffff"
     bordercolor="#000000"
     borderopacity="0.25"
     inkscape:showpageshadow="2"
     inkscape:pageopacity="0.0"
     inkscape:pagecheckerboard="0"
     inkscape:deskcolor="#d1d1d1"
     showgrid="false"
     inkscape:zoom="0.60559829"
     inkscape:cx="312.9137"
     inkscape:cy="411.98928"
     inkscape:window-width="1920"
     inkscape:window-height="1128"
     inkscape:window-x="0"
     inkscape:window-y="0"
     inkscape:window-maximized="1"
     inkscape:current-layer="g237" />
  <g
     inkscape:groupmode="layer"
     inkscape:label="Image"
     id="g125"
     transform="translate(-203.01739,-122.7051)">
    <g
       id="g237"
       transform="translate(70.017394,0.70388787)">
      <path
         style="fill:#338bd5"
         d="m 294.15789,886 c 0,-1.375 0.22698,-1.9375 0.50439,-1.25 0.27741,0.6875 0.27741,1.8125 0,2.5 -0.27741,0.6875 -0.50439,0.125 -0.50439,-1.25 z m 285.29782,-68.5 c 2.7e-4,-22 0.13226,-30.85753 0.29331,-19.6834 0.16105,11.17413 0.16083,29.17413 -4.9e-4,40 -0.16132,10.82587 -0.29309,1.6834 -0.29282,-20.3166 z M 369.46592,803 c 0,-29.425 0.12752,-41.4625 0.28337,-26.75 0.15586,14.7125 0.15586,38.7875 0,53.5 -0.15585,14.7125 -0.28337,2.675 -0.28337,-26.75 z m 407.80311,41.30701 c 0.97297,-0.25354 2.32297,-0.23687 3,0.0371 0.67703,0.27393 -0.11903,0.48137 -1.76903,0.46099 -1.65,-0.0204 -2.20394,-0.2445 -1.23097,-0.49804 z m 88,0 c 0.97297,-0.25354 2.32297,-0.23687 3,0.0371 0.67703,0.27393 -0.11903,0.48137 -1.76903,0.46099 -1.65,-0.0204 -2.20394,-0.2445 -1.23097,-0.49804 z M 327,838.62244 c 0,-0.20765 0.7875,-0.99515 1.75,-1.75 1.58606,-1.24387 1.62143,-1.2085 0.37756,0.37756 C 327.82119,838.91575 327,839.44548 327,838.62244 Z M 356.232,819 c 0,-1.925 0.2058,-2.7125 0.45733,-1.75 0.25152,0.9625 0.25152,2.5375 0,3.5 -0.25153,0.9625 -0.45733,0.175 -0.45733,-1.75 z m -0.15305,-5.58333 c 0.048,-1.16495 0.28494,-1.4019 0.60416,-0.60417 0.28887,0.72187 0.25335,1.58438 -0.0789,1.91667 -0.33229,0.33229 -0.56864,-0.25834 -0.52522,-1.3125 z m 441,-7 c 0.048,-1.16495 0.28494,-1.4019 0.60416,-0.60417 0.28887,0.72187 0.25335,1.58438 -0.0789,1.91667 -0.33229,0.33229 -0.56864,-0.25834 -0.52522,-1.3125 z M 832.15789,801 c 0,-1.375 0.22698,-1.9375 0.50439,-1.25 0.27741,0.6875 0.27741,1.8125 0,2.5 -0.27741,0.6875 -0.50439,0.125 -0.50439,-1.25 z M 599.07895,784.41667 c 0.048,-1.16495 0.28494,-1.4019 0.60416,-0.60417 0.28887,0.72187 0.25335,1.58438 -0.0789,1.91667 -0.33229,0.33229 -0.56864,-0.25834 -0.52522,-1.3125 z M 500,784.62244 c 0,-0.20765 0.7875,-0.99515 1.75,-1.75 1.58606,-1.24387 1.62143,-1.2085 0.37756,0.37756 C 500.82119,784.91575 500,785.44548 500,784.62244 Z M 808.87244,783.25 c -1.24387,-1.58606 -1.2085,-1.62143 0.37756,-0.37756 0.9625,0.75485 1.75,1.54235 1.75,1.75 0,0.82304 -0.82119,0.29331 -2.12756,-1.37244 z M 838,784.62244 c 0,-0.20765 0.7875,-0.99515 1.75,-1.75 1.58606,-1.24387 1.62143,-1.2085 0.37756,0.37756 C 838.82119,784.91575 838,785.44548 838,784.62244 Z m -634,-1 c 0,-0.20765 0.7875,-0.99515 1.75,-1.75 1.58606,-1.24387 1.62143,-1.2085 0.37756,0.37756 C 204.82119,783.91575 204,784.44548 204,783.62244 Z M 800.49064,392 c 0,-114.675 0.11669,-161.5875 0.25931,-104.25 0.14262,57.3375 0.14262,151.1625 0,208.5 -0.14262,57.3375 -0.25931,10.425 -0.25931,-104.25 z M 224.4906,391 c 0,-114.125 0.11671,-160.8125 0.25935,-103.75 0.14264,57.0625 0.14264,150.4375 0,207.5 -0.14264,57.0625 -0.25935,10.375 -0.25935,-103.75 z m 22.70435,204.5 c 0.0204,-1.65 0.2445,-2.20394 0.49804,-1.23097 0.25354,0.97297 0.23687,2.32297 -0.0371,3 -0.27393,0.67703 -0.48137,-0.11903 -0.46099,-1.76903 z m 0.0572,-22 c 0.0111,-2.2 0.21589,-2.98225 0.45508,-1.73834 0.23919,1.24391 0.23011,3.04391 -0.0202,4 -0.25029,0.95609 -0.446,-0.0617 -0.4349,-2.26166 z m 65.82677,-6.08333 c 0.048,-1.16495 0.28494,-1.4019 0.60416,-0.60417 0.28887,0.72187 0.25335,1.58438 -0.0789,1.91667 -0.33229,0.33229 -0.56864,-0.25834 -0.52522,-1.3125 z m 410,-1 c 0.048,-1.16495 0.28494,-1.4019 0.60416,-0.60417 0.28887,0.72187 0.25335,1.58438 -0.0789,1.91667 -0.33229,0.33229 -0.56864,-0.25834 -0.52522,-1.3125 z M 336,538.46346 v -17.67565 l 2.84966,-3.64391 c 1.56732,-2.00414 22.07998,-32.49704 45.58369,-67.76199 l 42.73403,-64.1181 -2.49423,-4.92211 c -9.39318,-18.53656 -1.83453,-41.22935 16.78634,-50.39637 14.74783,-7.26034 32.55778,-3.52366 44.1004,9.25264 4.68433,5.185 7.38305,11.33139 8.88216,20.22935 l 1.1916,7.07268 12.43317,6.81651 c 6.83825,3.74908 19.32646,10.44129 27.75158,14.87156 l 15.3184,8.05505 2.6816,-2.56502 c 1.47488,-1.41077 5.3816,-3.80597 8.6816,-5.32267 5.16127,-2.37216 7.21537,-2.74604 14.69432,-2.67459 l 8.69432,0.0831 3.859,-5.13194 c 2.12246,-2.82257 11.48501,-15.25986 20.80569,-27.63841 19.72338,-26.19413 44.75096,-59.91795 45.85682,-61.79051 0.43039,-0.72878 -0.13264,-3.20863 -1.28518,-5.66056 -9.18923,-19.54924 -1.45042,-41.85045 17.80401,-51.30649 4.94291,-2.42751 6.69849,-2.73598 15.57102,-2.73598 8.70764,0 10.7108,0.33731 15.5,2.61007 8.15767,3.87129 14.4021,9.93 18.21325,17.67154 3.05424,6.20404 3.28675,7.38672 3.28675,16.71839 0,9.32784 -0.23332,10.516 -3.28057,16.70585 -6.32177,12.84132 -17.82898,20.06086 -32.21943,20.21422 -4.125,0.044 -8.89134,-0.14507 -10.59186,-0.42007 -3.03477,-0.49077 -3.53762,0.0953 -27.2361,31.74701 -13.27934,17.73586 -29.31578,38.99806 -35.63654,47.24934 l -11.49229,15.00233 2.89351,4.56259 c 3.87046,6.10309 5.41243,13.09653 4.84323,21.96595 -1.99496,31.08569 -41.12179,45.18357 -63.44525,22.86011 -6.32266,-6.32265 -9.51985,-13.92359 -10.10321,-24.01915 l -0.46989,-8.13182 -24.5073,-13.36818 c -13.47901,-7.3525 -25.26835,-13.73785 -26.19852,-14.18966 -1.22941,-0.59716 -2.62846,0.0598 -5.1235,2.40581 -7.79764,7.33195 -23.75627,11.72965 -33.13239,9.13024 l -3.70011,-1.02581 -13.27429,19.65562 c -7.30085,10.81059 -23.1858,34.36757 -35.29989,52.34884 -24.8941,36.95102 -46.89547,69.40623 -53.08412,78.30678 -2.50241,3.59898 -5.02614,6.12787 -6.30667,6.31955 C 336.02353,556.13558 336,555.94429 336,538.46346 Z M 583.70145,434.04048 c 6.15509,-3.75298 8.17047,-12.45816 4.33903,-18.74193 -5.50207,-9.02371 -20.00151,-8.22247 -24.54701,1.35646 -2.68787,5.66426 -1.52371,10.99392 3.4058,15.59211 3.49124,3.25659 4.65656,3.75239 8.81201,3.74914 2.98383,-0.002 5.99536,-0.73947 7.99017,-1.95578 z M 464.75914,376.0054 c 9.43412,-5.75205 9.43412,-18.25875 0,-24.0108 C 455.49954,346.34895 444,352.99935 444,364 c 0,10.80993 11.66007,17.55317 20.75914,12.0054 z M 696.5,280.09385 c 9.21801,-5.10642 7.84637,-20.41533 -2.20545,-24.61525 -4.75556,-1.987 -7.62129,-1.86272 -12.31976,0.53426 -7.06189,3.60271 -9.67843,10.88274 -6.46924,17.99944 3.64349,8.07983 12.66811,10.69403 20.99445,6.08155 z M 247.27236,548 c 0,-2.475 0.19502,-3.4875 0.43337,-2.25 0.23836,1.2375 0.23836,3.2625 0,4.5 -0.23835,1.2375 -0.43337,0.225 -0.43337,-2.25 z m 65.88553,-6 c 0,-1.375 0.22698,-1.9375 0.50439,-1.25 0.27741,0.6875 0.27741,1.8125 0,2.5 -0.27741,0.6875 -0.50439,0.125 -0.50439,-1.25 z m 0,-14 c 0,-1.375 0.22698,-1.9375 0.50439,-1.25 0.27741,0.6875 0.27741,1.8125 0,2.5 -0.27741,0.6875 -0.50439,0.125 -0.50439,-1.25 z m -65.88553,-28 c 0,-2.475 0.19502,-3.4875 0.43337,-2.25 0.23836,1.2375 0.23836,3.2625 0,4.5 -0.23835,1.2375 -0.43337,0.225 -0.43337,-2.25 z m -0.0774,-20.5 c 0.0204,-1.65 0.2445,-2.20394 0.49804,-1.23097 0.25354,0.97297 0.23687,2.32297 -0.0371,3 -0.27393,0.67703 -0.48137,-0.11903 -0.46099,-1.76903 z m 0.19961,-18 c 0.002,-7.7 0.15853,-10.71781 0.34883,-6.70625 0.1903,4.01156 0.18902,10.31156 -0.003,14 -0.1917,3.68844 -0.3474,0.40625 -0.34584,-7.29375 z m 65.85762,7 c 0.0111,-2.2 0.21589,-2.98225 0.45508,-1.73834 0.23919,1.24391 0.23011,3.04391 -0.0202,4 -0.25029,0.95609 -0.446,-0.0617 -0.4349,-2.26166 z m -0.17323,-17.08333 c 0.048,-1.16495 0.28494,-1.4019 0.60416,-0.60417 0.28887,0.72187 0.25335,1.58438 -0.0789,1.91667 -0.33229,0.33229 -0.56864,-0.25834 -0.52522,-1.3125 z M 247.29966,442 c 0,-3.025 0.18747,-4.2625 0.41659,-2.75 0.22913,1.5125 0.22913,3.9875 0,5.5 -0.22912,1.5125 -0.41659,0.275 -0.41659,-2.75 z m -0.0273,-11 c 0,-2.475 0.19502,-3.4875 0.43337,-2.25 0.23836,1.2375 0.23836,3.2625 0,4.5 -0.23835,1.2375 -0.43337,0.225 -0.43337,-2.25 z m 0,-11 c 0,-2.475 0.19502,-3.4875 0.43337,-2.25 0.23836,1.2375 0.23836,3.2625 0,4.5 -0.23835,1.2375 -0.43337,0.225 -0.43337,-2.25 z m -0.11447,-34 c 0,-1.375 0.22698,-1.9375 0.50439,-1.25 0.27741,0.6875 0.27741,1.8125 0,2.5 -0.27741,0.6875 -0.50439,0.125 -0.50439,-1.25 z m 66.09429,-40.5 c 0.0111,-2.2 0.21589,-2.98225 0.45508,-1.73834 0.23919,1.24391 0.23011,3.04391 -0.0202,4 -0.25029,0.95609 -0.446,-0.0617 -0.4349,-2.26166 z m -0.0572,-7 c 0.0204,-1.65 0.2445,-2.20394 0.49804,-1.23097 0.25354,0.97297 0.23687,2.32297 -0.0371,3 -0.27393,0.67703 -0.48137,-0.11903 -0.46099,-1.76903 z m 0.0572,-22 c 0.0111,-2.2 0.21589,-2.98225 0.45508,-1.73834 0.23919,1.24391 0.23011,3.04391 -0.0202,4 -0.25029,0.95609 -0.446,-0.0617 -0.4349,-2.26166 z m -0.0943,-22.5 c 0,-1.375 0.22698,-1.9375 0.50439,-1.25 0.27741,0.6875 0.27741,1.8125 0,2.5 -0.27741,0.6875 -0.50439,0.125 -0.50439,-1.25 z m 0.11447,-58 c 0,-2.475 0.19502,-3.4875 0.43337,-2.25 0.23836,1.2375 0.23836,3.2625 0,4.5 -0.23835,1.2375 -0.43337,0.225 -0.43337,-2.25 z m -65.84111,-27.5 c 6.6e-4,-13.2 0.14295,-18.46169 0.31621,-11.69265 0.17326,6.76904 0.17273,17.56904 -10e-4,24 -0.17391,6.43096 -0.31567,0.89265 -0.31502,-12.30735 z"
         id="path241" />
      <path
         style="fill:#304151"
         d="M 274,833.03498 V 776 h 10 10 v 5.50288 5.50288 l 3.52932,-3.90653 c 5.59362,-6.19148 11.39561,-8.49362 21.47068,-8.51926 7.54726,-0.0192 9.24052,0.33745 15.10667,3.18188 11.65805,5.65286 20.14841,18.01028 21.69377,31.5745 1.99239,17.48806 -2.40022,32.21199 -12.44359,41.71059 -8.00966,7.57521 -12.84719,9.45199 -24.35685,9.44955 -10.5519,-0.002 -15.36733,-1.73451 -21.78897,-7.83822 l -3.28897,-3.12614 0.12213,19.98393 0.12213,19.98394 -10.08316,0.28498 L 274,890.06997 Z m 51.73937,6.7562 c 5.58524,-3.69614 8.49138,-10.06386 9.05769,-19.84652 1.02477,-17.70228 -8.36327,-29.10559 -22.81838,-27.71663 -20.09174,1.93056 -24.82383,37.46204 -6.5213,48.96603 4.578,2.87748 14.89194,2.16408 20.28199,-1.40288 z m 104.0649,19.33444 c -15.29291,-5.03595 -25.25134,-19.04183 -26.54047,-37.32742 -1.41445,-20.06318 6.67125,-35.70392 22.50132,-43.52586 7.3587,-3.63607 7.99754,-3.76926 17.68468,-3.68702 12.03505,0.10216 18.93752,2.36276 25.88377,8.4771 C 474.54266,787.64764 480,797.67435 480,802.65972 V 806 l -9.75,-0.004 -9.75,-0.004 -1.75452,-4.24625 c -4.12447,-9.98194 -17.74137,-12.66926 -26.56694,-5.24303 -6.61946,5.56991 -9.55208,20.53988 -6.25187,31.9136 2.09252,7.21161 8.15767,13.18601 14.31666,14.10246 2.60883,0.38819 6.33095,0.40797 8.27138,0.0439 4.22343,-0.79232 9.76182,-5.4024 11.48338,-9.55862 l 1.24455,-3.0046 h 9.89773 9.89773 l -0.60779,2.75 c -2.76146,12.49426 -7.58276,18.99786 -18.00553,24.28818 -6.17141,3.13244 -7.60091,3.44604 -16.83443,3.69308 -7.73657,0.20699 -11.419,-0.16756 -15.78608,-1.60564 z M 507,859.46342 c -17.15313,-5.32616 -22.75751,-27.88648 -10.05099,-40.46005 7.00214,-6.92888 18.29678,-9.94089 37.43691,-9.98356 l 8.88593,-0.0198 -0.64168,-4.75 c -1.13271,-8.38496 -5.75087,-12.33447 -14.50193,-12.40226 -6.31631,-0.0489 -10.90554,2.37501 -12.72044,6.71868 L 513.97316,802 H 504.01158 494.05 l 0.5677,-3.25 c 1.83177,-10.48652 6.77891,-16.83085 16.63482,-21.3329 5.63536,-2.57415 7.27626,-2.84958 16.74748,-2.81109 16.99196,0.0691 26.1218,5.02986 31.8893,17.32741 2.61021,5.56553 2.61076,5.57236 2.93698,36.31658 L 563.15256,859 H 553.07628 543 v -4.58499 -4.58498 l -4.55547,4.00988 c -2.50551,2.20544 -6.63567,4.71868 -9.17814,5.58499 -5.62115,1.91532 -16.16334,1.93355 -22.26639,0.0385 z m 28.57055,-18.50702 c 4.37268,-2.70247 6.43977,-6.65626 7.16778,-13.71005 l 0.57061,-5.52862 -9.90447,0.48004 c -12.02583,0.58286 -18.40713,2.9729 -20.92197,7.83608 -1.98997,3.84817 -1.33125,8.88806 1.4961,11.44678 4.19811,3.79924 15.02162,3.53645 21.59195,-0.52423 z M 764,860.06487 c -4.33987,-1.32491 -10.41841,-4.7827 -12.68793,-7.21755 -5.52751,-5.93017 -7.68943,-16.34675 -5.23058,-25.20202 1.55144,-5.58736 8.05955,-12.18022 14.34513,-14.53196 C 767.05144,810.63468 778.68389,809 789.69736,809 H 798.25 l -0.625,-3.125 c -0.34375,-1.71875 -0.625,-3.93422 -0.625,-4.92327 0,-0.98906 -1.13638,-3.14879 -2.52529,-4.79941 -6.24087,-7.41686 -22.7565,-5.13435 -24.90915,3.44251 -0.58712,2.33926 -0.8772,2.40517 -10.58461,2.40517 -11.0009,0 -10.57831,0.33218 -8.90524,-7 3.06049,-13.41253 18.09415,-22.05992 35.92429,-20.66372 4.125,0.32302 9.63489,1.32091 12.2442,2.21754 6.47783,2.22596 13.93333,9.15797 16.84986,15.66675 2.29172,5.11442 2.37682,6.24051 2.72258,36.02943 L 818.17355,859 H 808.08678 798 v -4.9627 -4.96269 l -4.49239,4.3661 c -2.57679,2.50435 -6.49043,5.0469 -9.17813,5.96269 -4.83495,1.64744 -15.91858,2.00807 -20.32948,0.66147 z m 24.71229,-18.17855 C 794.4488,839.12418 797,834.73628 797,827.63197 V 822 h -6.95078 c -18.42935,0 -27.31563,6.65259 -22.37959,16.75416 3.13904,6.42401 11.5927,7.68233 21.04266,3.13216 z m 64.51786,17.56328 c -6.38574,-1.71919 -9.94632,-3.49845 -14.25317,-7.12242 -3.8634,-3.25084 -7.95347,-11.50425 -7.96721,-16.07718 L 831,833 h 9.53138 c 8.20484,0 9.60665,0.24356 10.07216,1.75 1.03492,3.34917 2.10303,4.76289 5.18552,6.86343 8.8798,6.05109 24.21094,2.14626 24.21094,-6.1665 0,-5.98887 -2.09507,-7.22935 -18.33876,-10.85832 -21.88636,-4.88959 -28.69226,-10.68894 -28.63928,-24.40371 0.0287,-7.4261 2.51967,-12.73122 8.41403,-17.91964 6.60618,-5.81499 12.86987,-7.77944 24.56401,-7.70387 10.27123,0.0664 15.86475,1.80986 22.81575,7.11165 3.44401,2.62687 7.41722,9.99226 8.67262,16.07696 l 0.67054,3.25 H 888.07946 C 879.83422,801 878,800.72991 878,799.51578 c 0,-0.81633 -1.30474,-2.94449 -2.89943,-4.72925 -2.70401,-3.02632 -3.33912,-3.24642 -9.42325,-3.26578 -8.00021,-0.0254 -11.99674,2.34787 -12.49765,7.42166 -0.58108,5.88573 2.11673,7.24509 22.93638,11.55705 9.96086,2.06299 15.62305,5.02969 19.55781,10.24731 3.89555,5.1656 5.07857,11.61724 3.50644,19.12239 -1.88644,9.00565 -9.49902,16.66317 -19.52545,19.6407 -6.23753,1.85234 -19.43235,1.82226 -26.4247,-0.0603 z M 133,817.5 V 776 h 10.5 10.5 v 5.19542 5.19541 l 3.39304,-3.70433 c 5.04464,-5.50746 11.62833,-8.15523 20.10696,-8.08644 8.75269,0.071 15.16227,2.91867 20.23863,8.99162 l 3.59933,4.30596 3.84228,-4.36507 c 5.76082,-6.54463 11.57064,-8.99311 21.39047,-9.01477 7.01816,-0.0155 8.83522,0.37345 13.93288,2.9822 3.96317,2.02817 6.92594,4.48149 9.14598,7.57332 C 255.30591,792.95083 256,797.88422 256,830.2101 V 859 h -10 -10 l -0.006,-26.25 c -0.003,-14.73539 -0.45243,-27.85886 -1.02429,-29.91773 -0.57146,-2.05749 -2.55993,-5.02095 -4.52922,-6.75 -3.04721,-2.6755 -4.26475,-3.08178 -9.22571,-3.07853 -7.24295,0.005 -11.2309,2.33153 -14.07869,8.21427 C 205.11814,805.38741 205,807.10695 205,832.31572 V 859 h -9.94206 -9.94207 l -0.30793,-27.75 c -0.28447,-25.63475 -0.46039,-28.00882 -2.30794,-31.14547 -3.12588,-5.30691 -6.5418,-7.3353 -12.35308,-7.3353 -6.16901,0 -10.79294,2.46836 -13.61154,7.26615 -1.89212,3.22077 -2.05705,5.41775 -2.34332,31.21462 L 153.88413,859 H 143.44206 133 Z M 369.74599,803.75018 369.99198,748.5 379.99599,748.21502 390,747.93003 V 803.46502 859 l -10.25,1.8e-4 -10.25,1.7e-4 z m 209.98923,13.99998 0.23521,-41.25016 10.15841,-0.28657 10.1584,-0.28657 -0.60629,5.11921 -0.60629,5.11921 3.91761,-3.53933 c 8.66835,-7.83134 18.35588,-10.18199 29.51426,-7.16156 8.0976,2.19192 14.2652,7.35886 17.60412,14.74793 2.33271,5.16234 2.39678,6.04028 2.70285,37.03768 L 653.127,859 H 643.0635 633 l -0.022,-26.75 c -0.0198,-24.08852 -0.21043,-27.1651 -1.91621,-30.92204 -5.80199,-12.7788 -25.3672,-11.09784 -29.92772,2.57126 -0.72857,2.18371 -1.13411,12.6431 -1.13411,29.25 L 600,859 l -10.25,1.6e-4 -10.25,1.6e-4 z M 688.31935,852.75 c -1.14864,-3.4375 -7.76539,-21.93671 -14.70389,-41.10935 C 666.67696,792.468 661,776.59028 661,776.35682 c 0,-0.23347 4.77061,-0.29676 10.60136,-0.14065 l 10.60136,0.28383 6.98611,21.5 c 3.84236,11.825 8.21045,25.325 9.70686,30 l 2.72075,8.5 2.77894,-9 c 1.52842,-4.95 5.81488,-18.45 9.52546,-30 l 6.74652,-21 10.16632,-0.28498 c 5.59148,-0.15674 10.16145,0.0683 10.1555,0.5 -0.0243,1.75895 -3.40852,11.48242 -15.88885,45.65096 C 717.89515,842.09227 712,858.40477 712,858.61598 712,858.82719 707.14175,859 701.20389,859 H 690.40778 Z M 271,658.41734 c -21.4921,-5.67017 -38.91616,-23.29656 -44.46884,-44.98521 -1.3853,-5.41094 -1.52521,-29.60815 -1.29232,-223.5 L 225.5,172.5 l 2.27658,-6.70596 c 7.40111,-21.80097 27.99734,-38.95575 51.31263,-42.73875 4.30317,-0.69821 81.09309,-1.04267 233.57282,-1.04774 250.37725,-0.008 235.20863,-0.39011 249.52184,6.28036 18.28142,8.51979 31.04549,23.55906 35.81184,42.1953 1.97508,7.72252 2.00429,10.95711 2.00429,221.96665 0,187.58269 -0.18704,214.86886 -1.50865,220.09004 -5.49187,21.69638 -24.25507,40.45958 -45.95145,45.95145 -8.8283,2.23466 -473.05961,2.16331 -481.5399,-0.074 z m 475.46504,-20.95025 c 12.73823,-3.31789 22.11992,-11.14791 27.84998,-23.24376 L 777.5,607.5 777.77014,395 c 0.18101,-142.38836 -0.0682,-214.0915 -0.75524,-217.32365 -2.64821,-12.45788 -12.23727,-24.0745 -24.74872,-29.98173 L 745.5,144.5 514.24956,144.23952 c -230.74179,-0.25991 -231.2638,-0.25598 -237.3287,1.78714 -13.71015,4.61862 -22.6803,13.59321 -27.45975,27.47334 -1.60495,4.66098 -1.73477,19.13707 -1.91463,213.5 -0.10612,114.675 0.17486,211.82879 0.62441,215.8973 1.90765,17.26455 13.59309,30.63986 30.32911,34.7151 3.84902,0.93725 57.60883,1.23709 233.5399,1.30255 202.28435,0.0753 229.21602,-0.0911 234.42514,-1.44786 z m -428.1882,-61.43981 c -1.77274,-1.08088 -3.57274,-3.2167 -4,-4.74626 C 313.84958,569.75146 313.5,486.74875 313.5,386.83054 V 205.16109 l 2.39705,-2.55152 c 5.11617,-5.44588 12.56308,-5.29471 17.60295,0.35733 1.98176,2.22247 2.00236,3.84253 2.25829,177.63801 L 336.01657,556 h 190.0064 190.0064 l 3.50269,3.25 c 2.80926,2.6066 3.53012,4.0512 3.64129,7.29712 0.15969,4.66223 -2.04202,8.61638 -5.73443,10.29875 -1.88686,0.85972 -52.71129,1.15318 -199.23597,1.15039 -193.77986,-0.004 -196.75085,-0.0329 -199.92611,-1.96898 z"
         id="path239" />
    </g>
  </g>
</svg>
